<svg xmlns="http://www.w3.org/2000/svg" width="37" height="37" viewBox="0 0 37 37">
    <path fill-rule="evenodd" d="M7.717 17.697c6.086-6.263 16.48-6.263 22.566 0 .385.396 1.018.405 1.414.02.396-.385.405-1.018.02-1.414-6.872-7.071-18.562-7.071-25.434 0-.385.396-.376 1.029.02 1.414s1.03.376 1.414-.02zm3.978 4.022c3.754-3.625 9.856-3.625 13.61 0 .398.384 1.03.373 1.414-.024.384-.398.373-1.03-.024-1.414-4.53-4.375-11.86-4.375-16.39 0-.397.383-.408 1.016-.024 1.414.383.397 1.016.408 1.414.024zm4.932 4.06c1.29-1.039 3.455-1.039 4.746 0 .43.346 1.06.278 1.406-.152.346-.43.278-1.06-.152-1.406-2.023-1.628-5.23-1.628-7.254 0-.43.346-.498.975-.152 1.406.346.43.975.498 1.406.152z"/>
</svg>
