<svg xmlns="http://www.w3.org/2000/svg" width="24" height="24" viewBox="0 0 24 24">
    <path fill-rule="evenodd" d="M7 18.25c.966 0 1.75.784 1.75 1.75S7.966 21.75 7 21.75 5.25 20.966 5.25 20s.784-1.75 1.75-1.75zm12 0c.966 0 1.75.784 1.75 1.75s-.784 1.75-1.75 1.75-1.75-.784-1.75-1.75.784-1.75 1.75-1.75zM3.518 1c.48 0 .89.339.984.808L5.085 5h16.39c.95 0 1.668.848 1.498 1.769l-1.4 7.588c-.176.952-1.018 1.643-1.999 1.643H7.011c-.98 0-1.822-.691-1.998-1.643L4.393 11H4.38l-.587-3.251-.18-.98-.014-.092-.662-3.668H1.002C.448 3.009 0 2.561 0 2.005 0 1.45.448 1 1.002 1h2.516z"/>
</svg>
