<svg xmlns="http://www.w3.org/2000/svg" width="24" height="24" viewBox="0 0 24 24">
    <path fill-rule="evenodd" d="M12 2c.552 0 1 .448 1 1l.001 1.062c3.618.452 6.486 3.32 6.937 6.938H21c.552 0 1 .448 1 1s-.448 1-1 1l-1.062.001c-.452 3.618-3.32 6.485-6.937 6.937L13 21c0 .552-.448 1-1 1s-1-.448-1-1v-1.062c-3.618-.451-6.486-3.319-6.938-6.937L3 13c-.552 0-1-.448-1-1s.448-1 1-1h1.062C4.513 7.381 7.382 4.513 11 4.062V3c0-.552.448-1 1-1zm0 4c-3.314 0-6 2.686-6 6s2.686 6 6 6 6-2.686 6-6-2.686-6-6-6zm0 2c2.21 0 4 1.79 4 4s-1.79 4-4 4-4-1.79-4-4 1.79-4 4-4zm0 2c-1.105 0-2 .895-2 2s.895 2 2 2 2-.895 2-2-.895-2-2-2z"/>
</svg>
