<svg xmlns="http://www.w3.org/2000/svg" width="24" height="24" viewBox="0 0 24 24">
    <path fill-rule="evenodd" d="M14.5 19l-.005.164c-.085 1.305-1.17 2.336-2.496 2.336l-.164-.005C10.53 21.41 9.5 20.325 9.5 19h5zm6.19-16.887c.267.266.291.683.073.977l-.072.084-2.74 2.74v.002L5.868 18h-.003l-3.07 3.07c-.293.294-.768.294-1.06 0-.267-.265-.291-.682-.073-.976l.072-.084 2.158-2.157c-.286-.176-.478-.492-.478-.853l.009-.131c.029-.217.13-.42.285-.576L5 15l.54-7.018C5.799 4.607 8.614 2 11.999 2l.235.004c2.007.072 3.793 1.06 4.936 2.57l2.46-2.46c.293-.294.768-.294 1.06 0zm-2.274 5.46c.019.136.033.272.044.409L19 15l1.293 1.293.083.094c.306.393.278.96-.083 1.32l-.1.087c-.173.132-.386.206-.607.206H7.989z"/>
</svg>
