<svg xmlns="http://www.w3.org/2000/svg" width="24" height="24" viewBox="0 0 24 24">
    <path fill-rule="evenodd" d="M4.615 3.21l.094.083 15.998 15.998c.39.391.39 1.025 0 1.416-.361.36-.929.388-1.322.083l-.094-.083-5.793-5.794L13.5 20c0 .552-.448 1-1 1l-.109-.004c-.293 0-.575-.112-.782-.311l-3.65-3.686L3 17c-1.105 0-2-.895-2-2V9c0-1.105.895-2 2-2l2.583-.002-2.29-2.29c-.39-.39-.39-1.024 0-1.415.361-.36.929-.388 1.322-.083zm14.698 1.696c1.505 2.037 2.33 4.501 2.33 7.088 0 1.582-.309 3.12-.893 4.54l-1.56-1.56c.297-.952.453-1.954.453-2.98 0-2.155-.686-4.203-1.938-5.899-.329-.444-.235-1.07.21-1.4.444-.327 1.07-.233 1.398.211zm-1.992 3.867c.611.956.94 2.067.94 3.226 0 .61-.091 1.21-.268 1.779l-1.732-1.732v-.047c0-.774-.218-1.513-.625-2.15-.297-.465-.161-1.084.304-1.381.466-.297 1.084-.16 1.381.305zM12.5 3c.513 0 .936.386.993.883L13.5 4l-.003 5.282L9.575 5.36l2.034-2.05c.234-.224.548-.327.855-.308L12.5 3z"/>
</svg>
