<svg xmlns="http://www.w3.org/2000/svg" width="24" height="24" viewBox="0 0 24 24">
    <path fill-rule="evenodd" d="M20 3c.552 0 1 .448 1 1v16c0 .552-.448 1-1 1H4c-.552 0-1-.448-1-1V4c0-.552.448-1 1-1h16zm-2.687 3.582c-.397-.384-1.03-.373-1.414.024l-9.083 9.398-.081.096c-.299.397-.261.964.105 1.318.397.384 1.03.373 1.414-.024l9.083-9.398.082-.095c.298-.398.26-.965-.106-1.319zm-1.375 7.669c-.933 0-1.688.755-1.688 1.687 0 .931.755 1.687 1.688 1.687.932 0 1.687-.756 1.687-1.688 0-.931-.755-1.686-1.687-1.686zM8.063 6.376c-.933 0-1.688.754-1.688 1.686 0 .933.755 1.688 1.688 1.688.932 0 1.687-.755 1.687-1.688 0-.931-.755-1.686-1.687-1.686z"/>
</svg>
