<svg xmlns="http://www.w3.org/2000/svg" width="24" height="24" viewBox="0 0 24 24">
    <path fill-rule="evenodd" d="M15.167 3C16.007 3 17 5 18 5h2c1.105 0 2 .895 2 2v11c0 1.105-.895 2-2 2H4c-1.105 0-2-.895-2-2V7c0-1.105.895-2 2-2h2c.998 0 2.002-2 2.833-2h6.334zm1.05 6.696c-.156-.101-.366-.082-.502.055l-1.543 1.568c-.074.075-.115.176-.115.281 0 .22.179.4.4.4H15l-.005.176C14.904 13.751 13.598 15 12 15c-.256 0-.506-.032-.749-.094l-.114-.022c-.496-.068-.975.245-1.103.742-.137.535.185 1.08.72 1.217.405.104.822.157 1.246.157 2.761 0 5-2.239 5-5h.543c.105 0 .206-.041.28-.115.158-.155.16-.408.005-.566l-1.543-1.568zM12 7c-2.689 0-4.882 2.122-4.995 4.783L7 12 6.457 12l-.08.008c-.183.037-.32.199-.32.392 0 .105.041.206.115.28l1.543 1.569.062.051c.155.104.366.088.508-.051l1.543-1.568.051-.064c.101-.156.083-.366-.055-.502-.075-.074-.176-.115-.28-.115L9 11.999C9 10.343 10.343 9 12 9c.256 0 .498.032.748.097.534.14 1.08-.18 1.22-.715.139-.535-.181-1.08-.716-1.22C12.84 7.054 12.428 7 12 7z"/>
</svg>
