<svg xmlns="http://www.w3.org/2000/svg" width="24" height="24" viewBox="0 0 24 24">
    <path fill-rule="evenodd" d="M17.111 14.637l5.006 7.481-7.48-5.006 2.474-2.475zm3.874-12.524c.266.266.29.683.072.977l-.072.084-5.724 5.724h.001l-6.364 6.366-.002-.002-5.808 5.809c-.293.293-.768.293-1.06 0-.267-.266-.291-.683-.074-.977l.073-.084 5.808-5.81-3.689-3.689-.13.055c-.532.194-1.15.078-1.576-.348l-.103-.114c-.48-.59-.446-1.459.103-2.008l5.656-5.657C8.389 2.146 8.773 2 9.157 2l.144.007c.334.032.66.176.916.432l.1.11c.375.458.44 1.083.194 1.598l3.69 3.69 5.723-5.724c.293-.293.768-.293 1.06 0zm-3.959 7.144l1.599.107.12.015c.196.037.378.133.521.275l.083.094c.305.393.277.96-.083 1.321l-.917.916h.001l-6.365 6.364-.916.916-.09.08c-.158.124-.35.199-.551.212h-.117c-.5-.024-.913-.42-.948-.932l-.108-1.598 7.771-7.77z"/>
</svg>
