<svg xmlns="http://www.w3.org/2000/svg" width="24" height="24" viewBox="0 0 24 24">
    <path fill-rule="evenodd" d="M12.5 3c.513 0 .936.386.993.883L13.5 4v16c0 .552-.448 1-1 1l-.109-.004c-.293 0-.575-.112-.782-.311l-3.65-3.686L3 17c-1.105 0-2-.895-2-2V9c0-1.105.895-2 2-2l4.958-.001 3.65-3.688c.235-.225.549-.328.856-.309L12.5 3zm5.415 1.696c.444-.328 1.07-.234 1.398.21 1.505 2.037 2.33 4.501 2.33 7.088 0 2.592-.829 5.062-2.34 7.101-.328.444-.955.537-1.398.208-.444-.329-.537-.955-.208-1.4 1.257-1.697 1.946-3.75 1.946-5.909 0-2.155-.686-4.203-1.938-5.899-.329-.444-.235-1.07.21-1.4zM15.94 8.468c.466-.297 1.084-.16 1.381.305.611.956.94 2.067.94 3.226 0 1.159-.33 2.272-.942 3.229-.297.465-.915.6-1.38.303-.466-.297-.602-.916-.304-1.38.407-.638.627-1.378.627-2.152 0-.774-.22-1.513-.626-2.15-.297-.465-.161-1.084.304-1.381z"/>
</svg>
