<svg xmlns="http://www.w3.org/2000/svg" width="24" height="24" viewBox="0 0 24 24">
    <path fill-rule="evenodd" d="M24 19v2.995C24 23.102 23.103 24 21.995 24H19v-2.001l2.995.001.001-3H24zM2.001 19L2 21.995l3 .001V24H2.005C.898 24 0 23.103 0 21.995V19h2.001zM13 17v2h-2v-2h2zm-4-2v4H5v-4h4zm10 0v4h-4v-4h4zM9 13H7v-2h2V9h6v6H9v-2h4v-2H9v2zm10-2v2h-2v-2h2zM9 5v4H5V5h4zm10 0v4h-4V5h4zm-6 0v2h-2V5h2zM5 0v2.001L2.005 2l-.002 3H0V2l.005-.145C.082.818.947 0 2.005 0H5zm16.995 0C23.102 0 24 .897 24 2.005V5h-2.001L22 2.005l-3-.002V0h2.995z"/>
</svg>
