<svg xmlns="http://www.w3.org/2000/svg" width="24" height="24" viewBox="0 0 24 24">
    <path fill-rule="evenodd" d="M9 3l6 2.1 3.959-1.53c.173-.068.356-.102.541-.102.78 0 1.42.595 1.493 1.356l.007.144v13.653c0 .184-.1.35-.258.437l-.082.037L15 21l-6-2.1-3.959 1.53c-.173.068-.356.102-.541.102-.78 0-1.42-.595-1.493-1.356L3 19.032V5.379c0-.184.1-.35.258-.437l.082-.037L9 3zm7 5.5c-.513 0-.936.386-.993.883L15 9.5v7c0 .552.448 1 1 1 .513 0 .936-.386.993-.883L17 16.5v-7c0-.552-.448-1-1-1zm-8-2c-.552 0-1 .448-1 1v7c0 .552.448 1 1 1s1-.448 1-1v-7c0-.552-.448-1-1-1z"/>
</svg>
