<svg xmlns="http://www.w3.org/2000/svg" width="24" height="24" viewBox="0 0 24 24">
    <path fill-rule="evenodd" d="M21 19c.552 0 1 .448 1 1 0 .513-.386.936-.883.993L21 21H3c-.552 0-1-.448-1-1 0-.513.386-.936.883-.993L3 19h18zM12 2.147c4.971 0 9 4.029 9 9 0 2.235-.815 4.28-2.164 5.854H5.164C3.814 15.427 3 13.382 3 11.147c0-4.971 4.029-9 9-9zm-.049 4.662c-.414 0-.75.336-.75.75v4.63l-1.475-1.475-.084-.073c-.294-.218-.71-.193-.977.073-.293.293-.293.768 0 1.06l2.756 2.756c.024.025.05.047.078.068l.026.02c.023.015.046.03.07.042l.026.014c.025.012.052.023.079.033l.028.01.076.019.035.006.01.001.073.007h.023c.042 0 .077-.002.111-.007l.04-.007.066-.016.041-.013.064-.026.04-.02c.018-.01.036-.02.052-.032l.029-.019.012-.009c.029-.022.056-.045.082-.07l2.853-2.854.072-.084c.218-.293.194-.71-.072-.976-.293-.293-.768-.293-1.061 0l-1.573 1.572v-4.63l-.007-.102c-.05-.366-.363-.648-.743-.648z"/>
</svg>
