<svg xmlns="http://www.w3.org/2000/svg" width="24" height="24" viewBox="0 0 24 24">
    <path fill-rule="evenodd" d="M8.096 2.439L2.44 8.096c-.586.586-.586 1.536 0 2.122.461.461 1.149.559 1.706.293l5.01 5.01.207 3.104c.038.551.514.968 1.065.932.242-.016.469-.12.641-.292l.916-.916 6.365-6.364h-.001l.917-.916c.39-.391.39-1.024 0-1.415-.172-.171-.399-.274-.641-.29l-3.104-.207-5.01-5.01c.266-.558.168-1.245-.294-1.708C9.924 2.146 9.541 2 9.157 2s-.768.146-1.061.439zm6.541 14.673l7.48 5.006-5.006-7.481-2.474 2.475z"/>
</svg>
