<svg xmlns="http://www.w3.org/2000/svg" width="24" height="24" viewBox="0 0 24 24">
    <path fill-rule="evenodd" d="M19.5 7l-.758 12.125c-.066 1.054-.94 1.875-1.996 1.875H8.254c-1.056 0-1.93-.821-1.996-1.875L5.5 7h14zm-9 3l-.117.007c-.462.053-.823.416-.876.874l-.007.116v6.006c0 .505.386.932.883.99L10.5 18l.117-.007c.462-.053.823-.416.876-.874l.007-.116v-6.006c0-.544-.448-.997-1-.997zm4 0l-.117.007c-.462.053-.823.416-.876.874l-.007.116v6.006c0 .505.386.932.883.99L14.5 18l.117-.007c.462-.053.823-.416.876-.874l.007-.116v-6.006c0-.544-.448-.997-1-.997zm1.086-7c.265 0 .52.105.707.293L17 4h3c.552 0 1 .448 1 1s-.448 1-1 1H5c-.552 0-1-.448-1-1s.448-1 1-1h3l.707-.707C8.895 3.105 9.15 3 9.414 3h6.172z"/>
</svg>
