<svg xmlns="http://www.w3.org/2000/svg" width="24" height="24" viewBox="0 0 24 24">
    <path fill-rule="evenodd" d="M20.918 2.94c.266.267.29.684.072.977l-.072.085-4.919 4.917v.004L6.923 18H6.92l-3.898 3.9c-.293.292-.768.292-1.061 0-.266-.267-.29-.683-.073-.977l.073-.084 2.837-2.839L3 18c-.552 0-1-.448-1-1V7c0-.552.448-1 1-1h12c.489 0 .896.351.983.815l3.874-3.874c.293-.293.768-.293 1.06 0zm-4.919 8.105L16 17c0 .552-.448 1-1 1H9.045L16 11.044zm5.95-1.974c.034.102.051.209.051.316v5.226c0 .552-.448 1-1 1-.107 0-.214-.018-.316-.052l-2-.666c-.409-.137-.684-.519-.684-.95v-3.89c0-.431.275-.813.684-.95l2-.666c.524-.175 1.09.108 1.265.632z"/>
</svg>
