<svg xmlns="http://www.w3.org/2000/svg" width="24" height="24" viewBox="0 0 24 24">
    <path fill-rule="evenodd" d="M12 2c5.522 0 10 4.477 10 10s-4.478 10-10 10S2 17.523 2 12 6.478 2 12 2zM8.707 7.292c-.39-.39-1.023-.39-1.414 0-.39.391-.39 1.024 0 1.415L10.586 12l-3.293 3.293c-.36.361-.389.928-.083 1.32l.083.094c.195.195.451.293.707.293.256 0 .512-.098.707-.293L12 13.414l3.293 3.293c.163.163.367.258.58.285L16 17c.256 0 .512-.098.707-.293.391-.39.391-1.023 0-1.414L13.414 12l3.293-3.293c.361-.36.389-.928.083-1.32l-.083-.095c-.39-.39-1.023-.39-1.414 0L12 10.585z"/>
</svg>
