<svg xmlns="http://www.w3.org/2000/svg" width="24" height="24" viewBox="0 0 24 24">
    <path fill-rule="evenodd" d="M15.962 13.012c2.542.125 6.825 1.24 7.03 3.331L23 16.5v1.75c0 .918-.758 1.671-1.721 1.744l-.154.006-3.57.001c.254-.466.41-.992.44-1.555L18 18.25V16.5c0-1.442-.797-2.607-2.038-3.488zM8.5 13c2.446 0 7.274 1.12 7.492 3.343L16 16.5v1.75c0 .918-.758 1.671-1.721 1.744l-.154.006H2.875c-.984 0-1.79-.707-1.869-1.606L1 18.25V16.5C1 14.172 5.997 13 8.5 13zm7-10C17.433 3 19 4.592 19 6.556v.888c0 1.899-1.464 3.45-3.308 3.55L15.5 11c-.97 0-1.848-.4-2.482-1.048.27-.606.437-1.276.474-1.981l.008-.305V6.334c0-.818-.173-1.593-.481-2.286C13.652 3.401 14.53 3 15.5 3zm-7 0C10.433 3 12 4.592 12 6.556v.888c0 1.899-1.464 3.45-3.308 3.55L8.5 11C6.567 11 5 9.408 5 7.444v-.888C5 4.592 6.567 3 8.5 3z"/>
</svg>
