<svg xmlns="http://www.w3.org/2000/svg" width="24" height="24" viewBox="0 0 24 24">
    <path fill-rule="evenodd" d="M20.868 2.07c.266.266.29.683.072.976l-.072.084-3.02 3.02.001.001-2.361 2.363-.002-.002-3.442 3.443.002.001-2.192 2.194-.002-.002-1.416 1.414.002.002-2.3 2.301h-.002l-3.165 3.162c-.293.293-.768.293-1.06 0-.267-.266-.291-.683-.074-.976l.073-.084 2.99-2.989c-1.436-1.159-2.712-2.67-3.763-4.475-.182-.311-.182-.696 0-1.007C3.72 7.063 7.665 4.394 11.98 4.394c1.563 0 3.077.35 4.495 1.006l3.332-3.33c.293-.293.768-.293 1.06 0zm-1.784 4.97c1.426 1.156 2.695 2.661 3.741 4.456.182.311.182.696 0 1.007-2.583 4.433-6.528 7.104-10.845 7.104-1.553 0-3.058-.346-4.468-.995l2.175-2.176c.667.328 1.419.513 2.214.513 2.76 0 5-2.224 5-4.971 0-.8-.19-1.557-.529-2.227zM14.9 11.977c0 1.64-1.342 2.971-3 2.971-.226 0-.445-.025-.657-.071l2.807-2.806c.31-.124.587-.311.815-.546.023.147.035.298.035.452zm-3-4.972c-2.76 0-5 2.225-5 4.972 0 .865.222 1.677.612 2.385l1.518-1.517c-.085-.275-.13-.566-.13-.868 0-1.308.854-2.421 2.042-2.817-.08.235-.122.485-.122.746 0 .337.072.657.201.946l3.253-3.252c-.706-.38-1.515-.595-2.374-.595z"/>
</svg>
