<svg xmlns="http://www.w3.org/2000/svg" width="36" height="36" viewBox="0 0 36 36">
    <path fill-rule="evenodd" d="M20.88 6c.552 0 1 .448 1 1v1.22c0 .58.34 1.124.899 1.443l.225.121c.525.248 1.093.241 1.547-.02l1.07-.616c.478-.275 1.088-.111 1.364.366l2.88 4.97c.278.479.114 1.092-.366 1.368l-1.057.608c-.503.289-.804.856-.803 1.524l.006.198c.044.594.336 1.093.797 1.358l1.057.608c.48.276.644.89.366 1.368l-2.88 4.97c-.276.477-.886.64-1.364.366l-1.069-.616c-.5-.287-1.138-.266-1.72.07l-.181.111c-.486.33-.77.831-.77 1.363V29c0 .552-.449 1-1 1h-5.76c-.553 0-1-.448-1-1v-1.22c0-.58-.34-1.124-.9-1.443l-.225-.121c-.525-.248-1.093-.241-1.547.02l-1.07.616c-.478.275-1.088.111-1.364-.366l-2.88-4.97c-.278-.479-.113-1.092.367-1.368l1.057-.608c.502-.289.804-.856.802-1.524l-.006-.198c-.044-.594-.336-1.093-.796-1.358l-1.057-.608c-.48-.276-.645-.89-.367-1.368l2.88-4.97c.276-.477.886-.64 1.364-.366l1.07.616c.5.287 1.137.266 1.719-.07l.044-.026c.57-.324.908-.868.908-1.448V7c0-.552.448-1 1-1zm-1 2h-3.76v.22c0 1.25-.663 2.384-1.734 3.074l-.193.117-.246.135c-1.12.565-2.421.57-3.496-.048l-.206-.119-1.877 3.239.188.108c1.085.624 1.733 1.766 1.8 3.033l.005.225-.005.255c-.067 1.269-.715 2.41-1.8 3.035l-.188.107 1.877 3.239.207-.118c1.074-.617 2.374-.613 3.482-.055l.205.11.255.153c1.063.686 1.726 1.82 1.726 3.07V28h3.76v-.22c0-1.25.664-2.384 1.734-3.074l.194-.117.246-.135c1.12-.565 2.42-.57 3.495.048l.205.118 1.877-3.239-.186-.107c-1.085-.624-1.734-1.766-1.8-3.033l-.006-.225.006-.255c.066-1.269.715-2.41 1.8-3.035l.186-.108-1.877-3.239-.206.12c-1.074.616-2.374.612-3.481.054l-.205-.11-.255-.153c-1.063-.686-1.727-1.82-1.727-3.07V8zM18 13c2.761 0 5 2.239 5 5s-2.239 5-5 5-5-2.239-5-5 2.239-5 5-5zm0 2c-1.657 0-3 1.343-3 3s1.343 3 3 3 3-1.343 3-3-1.343-3-3-3z"/>
</svg>
