<svg xmlns="http://www.w3.org/2000/svg" width="36" height="36" viewBox="0 0 36 36">
    <path fill-rule="evenodd" d="M36 18c0 9.941-8.059 18-18 18S0 27.941 0 18 8.059 0 18 0s18 8.059 18 18m-26 7h16V14H10v11zM25.002 9.222v-.72c0-.83-.672-1.502-1.5-1.502C22.671 7 22 7.672 22 8.501v.721h-8.003v-.723c0-.828-.671-1.499-1.499-1.499-.828 0-1.499.671-1.499 1.499v.723H9.111c-.613 0-1.111.373-1.111.834v16.111c0 .46.498.833 1.111.833h17.778c.613 0 1.111-.373 1.111-.833V10.056c0-.461-.498-.834-1.111-.834h-1.887z"/>
</svg>
