<svg xmlns="http://www.w3.org/2000/svg" width="36" height="36" viewBox="0 0 36 36">
    <path fill-rule="evenodd" d="M26.485 9.514c3.55 3.55 4.369 8.626 2.33 13.096l-.14.297-.112.221 1.407 5.63c.17.682-.39 1.296-1.05 1.24l-.11-.016-.106-.026-4.589-1.422-.164.09c-4.442 2.314-10.2 1.66-13.962-1.691l-.242-.222-.232-.226c-4.608-4.608-4.685-12.032-.23-16.734l.23-.237.237-.23c4.701-4.454 12.125-4.377 16.733.23zM10.93 10.928c-3.905 3.906-3.905 10.238 0 14.143 3.236 3.236 8.644 3.847 12.56 1.521.209-.123.454-.166.69-.124l.117.029 3.302 1.023-1.068-4.277c-.04-.163-.04-.333.002-.494l.039-.118.053-.113c2.151-3.902 1.59-8.446-1.553-11.59-3.905-3.904-10.237-3.904-14.142 0zm12.778 3.365c.36.36.388.928.083 1.32l-.083.094-6.5 6.5c-.36.36-.928.388-1.32.083l-.094-.083-3.5-3.5c-.39-.39-.39-1.024 0-1.414.36-.36.928-.388 1.32-.083l.094.083 2.793 2.792 5.793-5.792c.39-.39 1.024-.39 1.414 0z"/>
</svg>
