<svg xmlns="http://www.w3.org/2000/svg" width="36" height="36" viewBox="0 0 36 36">
    <path fill-rule="evenodd" d="M27 9c.552 0 1 .448 1 1v15.689h-.012c.008.103.012.206.012.311 0 2.21-1.79 4-4 4s-4-1.79-4-4 1.79-4 4-4c.73 0 1.413.195 2.001.536L26 15H14v10.689h-.012c.008.103.012.206.012.311 0 2.21-1.79 4-4 4s-4-1.79-4-4 1.79-4 4-4c.73 0 1.413.195 2.001.536L12 10c0-.552.448-1 1-1zM10 24c-1.105 0-2 .895-2 2s.895 2 2 2 2-.895 2-2-.895-2-2-2zm14 0c-1.105 0-2 .895-2 2s.895 2 2 2 2-.895 2-2-.895-2-2-2zm2-13H14v2h12v-2z"/>
</svg>
