<svg xmlns="http://www.w3.org/2000/svg" width="36" height="36" viewBox="0 0 36 36">
    <path fill-rule="evenodd" d="M18 5c7.18 0 13 5.82 13 13s-5.82 13-13 13S5 25.18 5 18 10.82 5 18 5zm0 2C11.925 7 7 11.925 7 18s4.925 11 11 11 11-4.925 11-11S24.075 7 18 7zm4 14c.552 0 1 .448 1 1s-.448 1-1 1h-8c-.552 0-1-.448-1-1s.448-1 1-1h8zm-8.5-7c.828 0 1.5.672 1.5 1.5s-.672 1.5-1.5 1.5-1.5-.672-1.5-1.5.672-1.5 1.5-1.5zm9 0c.828 0 1.5.672 1.5 1.5s-.672 1.5-1.5 1.5-1.5-.672-1.5-1.5.672-1.5 1.5-1.5z"/>
</svg>
