<svg xmlns="http://www.w3.org/2000/svg" width="36" height="36" viewBox="0 0 36 36">
    <path fill-rule="evenodd" d="M6 23c.513 0 .936.386.993.883L7 24v5h5c.552 0 1 .448 1 1 0 .513-.386.936-.883.993L12 31H7c-1.055 0-1.918-.816-1.995-1.85L5 29v-5c0-.552.448-1 1-1zm24 0c.513 0 .936.386.993.883L31 24v5c0 1.054-.815 1.918-1.85 1.995L29 31h-5c-.552 0-1-.448-1-1 0-.513.386-.936.883-.993L24 29h5v-5c0-.552.448-1 1-1zm-5-2v4h-4v-4h4zm-10 0v4h-4v-4h4zm4 2v2h-2v-2h2zm2-8v6h-6v-2h4v-2h-4v2h-2v-2h2v-2h6zm4 2v2h-2v-2h2zm-10-6v4h-4v-4h4zm10 0v4h-4v-4h4zm-6 0v2h-2v-2h2zm5-6h5c1.055 0 1.918.816 1.995 1.85L31 7v5c0 .552-.448 1-1 1-.513 0-.936-.386-.993-.883L29 12V7h-5c-.552 0-1-.448-1-1 0-.513.386-.936.883-.993L24 5h5-5zM7 5h5c.552 0 1 .448 1 1 0 .513-.386.936-.883.993L12 7H7v5c0 .552-.448 1-1 1-.513 0-.936-.386-.993-.883L5 12V7c0-1.054.815-1.918 1.85-1.995L7 5h5-5z"/>
</svg>
