<svg xmlns="http://www.w3.org/2000/svg" width="36" height="36" viewBox="0 0 36 36">
    <path fill-rule="evenodd" d="M18 5c7.18 0 13 5.82 13 13s-5.82 13-13 13S5 25.18 5 18 10.82 5 18 5zm0 2C11.925 7 7 11.925 7 18s4.925 11 11 11 11-4.925 11-11S24.075 7 18 7zm.064 4.6c1.018 0 1.802.249 2.388.732.579.498.864 1.187.864 2.059 0 .6-.19 1.164-.571 1.684-.38.52-.872.879-1.48 1.077v.03c.916.146 1.627.475 2.11 1.01.483.52.725 1.186.725 2.007 0 .966-.337 1.757-1.003 2.365-.674.608-1.553.909-2.652.909-.776 0-1.487-.154-2.124-.455v2.4H14.6V15.057c0-1.062.315-1.897.938-2.52.615-.622 1.472-.937 2.526-.937zm-.007 1.406c-.557 0-.989.176-1.289.535-.3.359-.447.857-.447 1.509v6.438c.667.388 1.319.578 1.948.578.616 0 1.1-.16 1.443-.476.345-.322.513-.776.513-1.355 0-1.31-.938-2.043-2.813-2.226v-1.407c.638-.08 1.158-.314 1.575-.71.41-.403.615-.85.615-1.362 0-1.011-.52-1.524-1.545-1.524z"/>
</svg>
