<svg xmlns="http://www.w3.org/2000/svg" width="36" height="36" viewBox="0 0 36 36">
    <path fill-rule="evenodd" d="M24.436 7c.964 0 1.477.1 2.012.385.5.268.9.666 1.167 1.167.286.535.385 1.048.385 2.012v14.154c0 .557-.065.892-.252 1.242-.18.337-.45.608-.788.788-.286.153-.562.224-.958.245L26 28.5c0 .552-.448 1-1 1-.513 0-.936-.386-.993-.883L24 28.5V27H12v1.5c0 .552-.448 1-1 1-.513 0-.936-.386-.993-.883L10 28.5l-.001-1.507c-.397-.02-.673-.092-.959-.245-.337-.18-.608-.45-.788-.788-.187-.35-.252-.685-.252-1.242V10.564c0-.964.1-1.477.385-2.012.268-.5.666-.9 1.167-1.167C10.087 7.1 10.6 7 11.564 7zm1.562 11H10.001l.001 6.92.005.072.074.006L25.718 25c.096 0 .159 0 .201-.002l.073-.006.006-.073V18zM12 20c.552 0 1 .448 1 1s-.448 1-1 1-1-.448-1-1 .448-1 1-1zm12 0c.552 0 1 .448 1 1s-.448 1-1 1-1-.448-1-1 .448-1 1-1zm6.5-6c.513 0 .936.386.993.883L31.5 15v2c0 .552-.448 1-1 1-.513 0-.936-.386-.993-.883L29.5 17v-2c0-.552.448-1 1-1zm-25 0c.513 0 .936.386.993.883L6.5 15v2c0 .552-.448 1-1 1-.513 0-.936-.386-.993-.883L4.5 17v-2c0-.552.448-1 1-1zm19.106-4.999H11.394c-.529.007-.712.048-.9.148-.15.081-.264.194-.345.346-.11.205-.149.407-.149 1.069V16h15.999v-5.606c-.006-.47-.04-.667-.117-.837l-.03-.062c-.082-.152-.195-.265-.347-.346C25.3 9.039 25.098 9 24.436 9z"/>
</svg>
