<svg xmlns="http://www.w3.org/2000/svg" width="36" height="36" viewBox="0 0 36 36">
    <path fill-rule="evenodd" d="M18 0c9.941 0 18 8.059 18 18s-8.059 18-18 18S0 27.941 0 18 8.059 0 18 0zm2.293 10h-4.586c-.453 0-.887.18-1.207.5-.305.305-.406.76-.258 1.165l1.488 4.092.007.02c.134.403-.084.839-.487.973l-.03.01c-.402.115-.823-.117-.94-.52l-.415-1.442c-.517-1.652-.8-2.464-.846-2.435C10.25 14.03 8.4 17.066 8.4 20.533l-.001.666-.999.001c-.773 0-1.4.627-1.4 1.4 0 .773.627 1.4 1.4 1.4h21.2c.773 0 1.4-.627 1.4-1.4 0-.773-.627-1.4-1.4-1.4l-1.001-.001.001-.665-.006-.338c-.116-3.317-1.923-6.198-4.582-7.815-.043.089-.332.954-.867 2.597l-.405 1.269-.003.01c-.136.408-.578.63-.987.493l-.02-.007c-.399-.145-.605-.587-.46-.986l1.488-4.092c.148-.406.047-.86-.258-1.165-.32-.32-.754-.5-1.207-.5z"/>
</svg>
