<svg xmlns="http://www.w3.org/2000/svg" width="36" height="36" viewBox="0 0 36 36">
    <path fill-rule="evenodd" d="M20 29c.552 0 1 .448 1 1s-.448 1-1 1h-4c-.552 0-1-.448-1-1s.448-1 1-1zM19 7c3.108 0 5.544 1.693 6.275 4.31l2.018-2.017c.39-.39 1.024-.39 1.414 0 .39.39.39 1.024 0 1.414l-20 20c-.39.39-1.024.39-1.414 0-.39-.39-.39-1.024 0-1.414l2.317-2.317c-2.249-.285-3.295-3.02-1.924-5.057l2.424-3.393.077-.212c.218-.61.313-.996.313-1.314v-4c0-3.555 2.766-6 6.5-6zm5.377 9.568c.544-.096 1.063.266 1.16.81.05.284.135.558.314 1.04l2.479 3.524C29.762 24.072 28.514 27 26 27H16c-.552 0-1-.448-1-1s.448-1 1-1h10c.807 0 1.26-1.064.682-1.925l-2.614-3.715-.21-.572c-.145-.411-.229-.713-.29-1.06-.097-.544.265-1.063.81-1.16zM19 9h-2c-2.68 0-4.5 1.608-4.5 4v4c0 .699-.173 1.314-.564 2.353l-.046.122-2.56 3.583C8.74 23.936 9.193 25 10 25h1.584l11.92-11.92L23.5 13c0-2.321-1.714-3.905-4.266-3.996L19 9zm-1 2c.552 0 1 .448 1 1s-.448 1-1 1h-1c-.673 0-1 .326-1 1v3c0 .552-.448 1-1 1s-1-.448-1-1v-3c0-1.78 1.224-3 3-3z"/>
</svg>
