<svg xmlns="http://www.w3.org/2000/svg" width="36" height="36" viewBox="0 0 36 36">
    <path fill-rule="evenodd" d="M12.984 17.285l13.608-7.957c.416-.243.947-.155 1.262.21C29.871 11.882 31 14.855 31 18c0 7.18-5.82 13-13 13S5 25.18 5 18c0-1.232.176-2.443.518-3.613.183-.623.9-.91 1.462-.585l6.004 3.483zm.507 2.02c-.31.182-.695.183-1.006.002l-5.336-3.095C7.05 16.8 7 17.397 7 18c0 6.075 4.925 11 11 11s11-4.925 11-11c0-2.255-.684-4.402-1.932-6.21l-.213-.3-13.364 7.816zm-4.68-9.198c-.477-.278-1.089-.116-1.367.362-.277.477-.115 1.09.363 1.367l4.677 2.718c.31.18.695.18 1.006 0l10.888-6.345c.477-.278.638-.89.36-1.367s-.89-.639-1.367-.36l-10.386 6.05-4.173-2.425z"/>
</svg>
