<svg xmlns="http://www.w3.org/2000/svg" width="36" height="36" viewBox="0 0 36 36">
    <path fill-rule="evenodd" d="M14 6h-4c-.552 0-1 .448-1 1v10c0 1.055-.816 1.918-1.85 1.995L7 19c-.552 0-1 .448-1 1v9c0 .552.448 1 1 1h22c.552 0 1-.448 1-1v-9c0-.513-.386-.936-.883-.993L29 19c-1.105 0-2-.895-2-2V7c0-.552-.448-1-1-1h-4c-.552 0-1 .448-1 1v5.631c0 1.246-.605 2.388-1.584 2.966C17.47 16.747 15 15.173 15 13V7c0-.552-.448-1-1-1zm11 2v9l.005.2c.084 1.72 1.255 3.153 2.84 3.63l.155.043V28H8v-7.127l.155-.042C9.801 20.335 11 18.808 11 17V8h2v5c0 3.668 4.104 6.286 7.434 4.319l.206-.129c1.485-.98 2.36-2.712 2.36-4.559V8h2z"/>
</svg>
