<svg xmlns="http://www.w3.org/2000/svg" width="36" height="36" viewBox="0 0 36 36">
    <path fill-rule="evenodd" d="M12.775 4.525c2.77-.7 5.68-.7 8.45 0 1.337.339 2.275 1.543 2.275 2.922v2.672c0 .087-.011.172-.032.253C25.628 12.206 27 14.942 27 18c0 3.057-1.372 5.794-3.533 7.628.022.08.033.165.033.253v2.672c0 1.379-.938 2.583-2.275 2.922-2.77.7-5.68.7-8.45 0-1.337-.339-2.275-1.543-2.275-2.922v-2.672c0-.088.011-.173.033-.254C8.372 23.794 7 21.057 7 18c0-3.057 1.372-5.794 3.533-7.628-.022-.08-.033-.166-.033-.253V7.447c0-1.379.938-2.583 2.275-2.922zM17 28c-1.619 0-3.147-.384-4.5-1.067v1.62c0 .463.317.87.765.983 2.45.62 5.02.62 7.47 0 .448-.114.765-.52.765-.983l.001-1.62C20.148 27.614 18.619 28 17 28zm0-18c-4.419 0-8 3.581-8 8 0 4.419 3.581 8 8 8 4.419 0 8-3.581 8-8 0-4.419-3.581-8-8-8zm.943 3.551c.552 0 1 .448 1 1v4.771c0 .553-.448 1-1 1h-2.886c-.552 0-1-.447-1-1 0-.552.448-1 1-1h1.886v-3.77c0-.553.448-1 1-1zM29 16c.552 0 1 .448 1 1v2c0 .552-.448 1-1 1s-1-.448-1-1v-2c0-.552.448-1 1-1zm-8.265-9.536c-2.45-.62-5.02-.62-7.47 0-.448.114-.765.52-.765.983v1.62C13.853 8.384 15.381 8 17 8c1.62 0 3.148.385 4.501 1.068L21.5 7.447c0-.463-.317-.87-.765-.983z"/>
</svg>
