<svg xmlns="http://www.w3.org/2000/svg" width="36" height="36" viewBox="0 0 36 36">
    <path fill-rule="evenodd" d="M12.75 5.62c3.173-2.159 7.324-2.16 10.497-.002 3.135 2.13 4.48 5.158 3.776 8.752l-.056.286.15.312c.614 1.287.479 3.515-.307 4.732l-.123.175-.779 1.017-.106.542c-.225 1.156-.704 2.228-1.383 3.151.042.09.07.19.082.293l.007.117v.361c0 .95.388 1.862 1.074 2.542l.163.153 1.4 1.186c.422.357.475.988.118 1.41-.33.388-.892.463-1.309.191l-.1-.075-1.416-1.198c-.967-.852-1.607-1.976-1.836-3.197-.383.272-.794.511-1.228.714l-.257.115-.768.325c-1.5.638-3.198.638-4.698 0l-.767-.325c-.53-.225-1.028-.504-1.488-.83-.212 1.135-.781 2.189-1.646 3.024l-.202.187-1.402 1.186c-.422.356-1.053.304-1.41-.118-.329-.39-.309-.957.028-1.322l.09-.087 1.387-1.173c.743-.656 1.185-1.547 1.244-2.49l.007-.218v-.36c0-.147.032-.287.088-.412-.678-.922-1.157-1.994-1.382-3.15l-.107-.542-.778-1.017c-.85-1.111-1.055-3.33-.515-4.706l.086-.2.148-.311-.056-.285c-.681-3.492.567-6.448 3.51-8.569zm9.373 1.652c-2.495-1.696-5.754-1.696-8.248 0-2.487 1.695-3.48 3.93-2.936 6.717l.12.61c.04.21.013.427-.08.62l-.29.61c-.33.693-.21 2.279.212 2.83l.921 1.204c.094.123.158.265.187.416l.151.771c.376 1.921 1.688 3.534 3.506 4.306l.767.326c1 .424 2.134.424 3.134 0l.768-.326c1.817-.772 3.13-2.385 3.505-4.306l.15-.771c.03-.151.094-.293.188-.416l.92-1.204c.423-.552.544-2.137.214-2.829l-.291-.609c-.093-.193-.12-.412-.08-.622l.12-.612c.545-2.787-.449-5.023-2.938-6.715z"/>
</svg>
