<svg xmlns="http://www.w3.org/2000/svg" width="36" height="36" viewBox="0 0 36 36">
    <path fill-rule="evenodd" d="M7.027 16c.553 0 1 .448 1 1v1.264l.15-.098c1.024-.653 2.139-1.07 3.319-1.13l.296-.008c1.256 0 2.165.34 3.51 1.115l.57.328.248.135c.51.268.876.385 1.232.385h3.546c1.06 0 1.984.609 2.387 1.495l3.886-1.803c1.509-.683 3.076-.491 3.929.834.66 1.03.49 2.723-.598 3.348l-9.227 5.355c-1.486.855-2.624 1.28-3.893 1.28-2.058 0-3.508-.335-5.83-1.158l-.594-.211-.741-.254c-.833-.273-1.515-.441-2.19-.522V29c0 .552-.447 1-1 1h-3c-.552 0-1-.448-1-1s.448-1 1-1h2V18h-2c-.552 0-1-.448-1-1s.448-1 1-1zm4.765 3.028c-.863 0-1.726.305-2.54.824-.292.187-.556.387-.785.587l-.074.065-.273.258c-.03.025-.06.047-.092.068v4.513c1.001.095 1.967.34 3.182.757l1.399.493c1.896.653 3.101.907 4.773.907.835 0 1.688-.318 2.892-1.011l9.228-5.357c-.025.015.015-.378-.085-.534-.226-.35-.72-.411-1.412-.097l-4.873 2.262c-.458.729-1.293 1.21-2.234 1.21h-3.546c-.552 0-1-.448-1-1 0-.553.448-1 1-1h3.546c.222 0 .406-.096.51-.232.019-.076.049-.148.087-.216l.005-.042-.007-.078c-.044-.223-.281-.414-.595-.414h-3.546c-.735 0-1.39-.209-2.163-.615-.14-.073-.282-.152-.454-.251l-.67-.385c-.925-.514-1.515-.712-2.273-.712zM21.488 6c-.9 0-1.8.345-2.488 1.034C18.313 6.345 17.412 6 16.511 6c-1.123 0-2.245.535-2.955 1.606-.929 1.404-.656 3.292.534 4.485l3.601 3.611c.361.362.835.543 1.31.543.472 0 .946-.181 1.308-.543l3.601-3.611c1.19-1.193 1.463-3.081.533-4.485C23.734 6.535 22.611 6 21.488 6m0 2c.52 0 .988.259 1.288.71.382.578.261 1.424-.282 1.969L19 14.182l-3.494-3.503c-.543-.545-.664-1.391-.282-1.969.3-.451.768-.71 1.287-.71.405 0 .786.158 1.073.446L19 9.866l1.416-1.42c.286-.288.667-.446 1.072-.446"/>
</svg>
