<svg xmlns="http://www.w3.org/2000/svg" width="36" height="36" viewBox="0 0 36 36">
    <path fill-rule="evenodd" d="M20.79 5.308c.113-.541.642-.889 1.183-.777.54.113.888.642.776 1.183l-.4 1.933c5.928 1.748 9.62 7.783 8.343 13.943-.112.54-.641.888-1.182.776l-9.792-2.03L17.715 30 28 30c.513 0 .936.386.993.883L29 31c0 .552-.448 1-1 1H7c-.552 0-1-.448-1-1s.448-1 1-1h8.672l2.087-10.07-9.791-2.029c-.54-.112-.888-.641-.776-1.182 1.276-6.16 7.063-10.23 13.197-9.478zm-.096 4c-4.98-.888-9.803 2.09-11.293 6.848l19.487 4.039c.525-4.959-2.718-9.608-7.642-10.772l-.275-.06-.277-.054zm.36 3.92c2.145.445 3.532 2.127 3.215 3.659-.112.54.235 1.07.776 1.182.54.112 1.07-.236 1.182-.777.563-2.719-1.623-5.37-4.767-6.022-.541-.112-1.07.236-1.182.777-.112.54.235 1.07.776 1.182z"/>
</svg>
