<svg xmlns="http://www.w3.org/2000/svg" width="36" height="36" viewBox="0 0 36 36">
    <path fill-rule="evenodd" d="M25.883 11.993L26 12c.512 0 .935.387.993.883L27 13c0 .552.448 1 1 1s1-.448 1-1c0-1.656-1.344-3-3-3-.552 0-1 .448-1 1 0 .513.386.936.883.993zM27 17v6.032c0 .552-.448 1-1 1H10c-.552 0-1-.448-1-1V13c0-.552.448-1 1-1h12.348c.552 0 1-.448 1-1s-.448-1-1-1H10c-1.656 0-3 1.344-3 3v10.032c0 1.657 1.343 3 3 3h16c1.657 0 3-1.343 3-3V17c0-.552-.448-1-1-1s-1 .448-1 1zM6 30h24c.552 0 1-.448 1-1s-.448-1-1-1H6c-.552 0-1 .448-1 1s.448 1 1 1zM26 8c2.726 0 4.935 2.21 4.935 4.935 0 .552.448 1 1 1s1-.448 1-1C32.935 9.105 29.83 6 26 6c-.552 0-1 .448-1 1s.448 1 1 1z"/>
</svg>
