<svg xmlns="http://www.w3.org/2000/svg" width="36" height="36" viewBox="0 0 36 36">
    <path fill-rule="evenodd" d="M30.059 20.826c.372.309.423.86.115 1.233-.513.618-1.043 1.148-1.592 1.595-2.413 1.965-4.565 2.217-7.997 1.607l-1.464-.27c-.461-.08-.705-.107-.963-.114l-.262-.001-.19.006c-.315.017-.646.065-1.236.176l-.608.117c-3.978.781-6.46.298-9.965-3.041-.35-.334-.364-.888-.03-1.237.333-.35.887-.364 1.236-.03 3.045 2.9 4.955 3.272 8.422 2.591l.863-.165c.666-.12 1.032-.161 1.486-.167h.232c.516.005.862.052 1.971.26l.487.091c3.177.603 4.918.445 6.912-1.18.46-.373.909-.823 1.35-1.356.309-.372.86-.423 1.233-.115zM21 17.125c.709 0 1.205.119 1.856.397l.405.183c.683.315 1.06.42 1.739.42.483 0 .875.392.875.875s-.392.875-.875.875c-.875 0-1.454-.137-2.21-.464l-.412-.186c-.574-.264-.878-.35-1.378-.35-.147 0-.316.051-.663.21l-.412.2c-.72.356-1.096.505-1.598.569-.11.014-.218.021-.327.021-.109 0-.217-.007-.327-.021-.401-.05-.722-.157-1.203-.38l-.807-.388c-.347-.16-.516-.211-.663-.211-.419 0-.712.068-1.172.26l-.374.164c-.913.409-1.514.576-2.454.576-.483 0-.875-.392-.875-.875s.392-.875.875-.875c.577 0 .943-.084 1.515-.326l.393-.173c.79-.352 1.32-.501 2.092-.501.533 0 .881.118 1.65.492l.202.099c.544.27.8.371 1.041.402.038.005.074.007.107.007s.069-.002.107-.007c.214-.027.44-.11.87-.318l.171-.084c.914-.453 1.275-.591 1.852-.591zm1-6.5c1.49 0 2.36.632 5.104 3.25l.254.243c2.052 1.965 3.17 2.79 4.276 2.975.084.014.166.024.246.029l.12.003c.483 0 .875.392.875.875s-.392.875-.875.875c-.218 0-.436-.019-.656-.056-1.53-.257-2.773-1.14-4.932-3.186l-1.143-1.083c-1.809-1.69-2.537-2.175-3.269-2.175-.503 0-.874.089-1.517.343l-.483.197c-.782.318-1.319.46-2 .46-.606 0-1.097-.112-1.748-.36l-.51-.206c-.787-.324-1.183-.434-1.742-.434-.787 0-1.578.565-3.7 2.572l-.458.436c-2.003 1.914-3.118 2.788-4.462 3.25-.464.159-.924.242-1.38.242-.483 0-.875-.392-.875-.875 0-.446.334-.814.765-.868l.11-.007c.254 0 .523-.049.813-.148.921-.316 1.828-.99 3.346-2.41L9.59 13.21c2.204-2.057 3.055-2.585 4.409-2.585.76 0 1.307.13 2.125.452l.534.217c.59.24.935.331 1.341.331.355 0 .663-.07 1.13-.248l.461-.186c.983-.405 1.565-.566 2.409-.566z"/>
</svg>
