<svg xmlns="http://www.w3.org/2000/svg" width="36" height="36" viewBox="0 0 36 36">
    <path fill-rule="evenodd" d="M28 9c1.597 0 2.904 1.25 2.995 2.824L31 12v13c0 1.597-1.25 2.904-2.824 2.995L28 28h-6c-.552 0-1-.448-1-1 0-.513.386-.936.883-.993L22 26h6c.512 0 .935-.387.993-.883L29 25V12c0-.512-.387-.935-.883-.993L28 11H8c-.512 0-.935.387-.993.883L7 12v13c0 .512.387.935.883.993L8 26h7.772l-1.186-1.336c-.34-.38-.333-.948-.006-1.322l.089-.09c.38-.338.948-.332 1.322-.005l.09.089 2.666 3c.31.347.335.856.078 1.23l-.078.098-2.667 3c-.367.413-.999.45-1.411.083-.381-.338-.442-.903-.16-1.312l.077-.1L15.772 28H8c-1.597 0-2.904-1.25-2.995-2.824L5 25V12c0-1.597 1.25-2.904 2.824-2.995L8 9h20zm-1 5v2H9v-2h18z"/>
</svg>
