<svg xmlns="http://www.w3.org/2000/svg" width="36" height="36" viewBox="0 0 36 36">
    <path fill-rule="evenodd" d="M18 27c.552 0 1 .448 1 1s-.448 1-1 1-1-.448-1-1 .448-1 1-1zm-3.5-3c.552 0 1 .448 1 1s-.448 1-1 1-1-.448-1-1 .448-1 1-1zm7 0c.552 0 1 .448 1 1s-.448 1-1 1-1-.448-1-1 .448-1 1-1zM18 21c.552 0 1 .448 1 1s-.448 1-1 1-1-.448-1-1 .448-1 1-1zM29.837 8.581l.183.176.176.183c2.166 2.354 2.108 6.02-.176 8.303l-4.949 4.95-7.072-7.072-7.07 7.072-4.95-4.95c-2.343-2.343-2.343-6.142 0-8.486 2.343-2.343 6.142-2.343 8.486 0l3.534 3.536 3.537-3.536c2.282-2.283 5.948-2.341 8.301-.176zm-22.443 1.59c-1.563 1.563-1.563 4.096 0 5.657l3.535 3.536 5.657-5.657-3.535-3.536-.16-.15c-1.57-1.41-3.988-1.36-5.497.15zm15.556 0l-3.536 3.536 5.657 5.657 3.535-3.535c1.562-1.563 1.562-4.095 0-5.658-1.562-1.561-4.094-1.561-5.656 0z"/>
</svg>
