<svg xmlns="http://www.w3.org/2000/svg" width="36" height="36" viewBox="0 0 36 36">
    <path fill-rule="evenodd" d="M20.12 4.889l10.99 10.99c1.173 1.17 1.173 3.071 0 4.242l-10.989 10.99c-1.172 1.17-3.07 1.17-4.242 0L4.89 20.12c-1.173-1.17-1.173-3.072 0-4.242L15.88 4.89c1.17-1.17 3.07-1.17 4.24 0zm-1.413 1.414l-.094-.082c-.392-.305-.96-.277-1.32.082L6.303 17.294c-.39.39-.39 1.022.001 1.413l10.989 10.99c.39.39 1.023.39 1.414 0l10.99-10.99c.39-.39.39-1.023-.001-1.414l-10.99-10.99zm2.729 8.741c-.588-.364-1.625-.742-2.956-.742-2.213 0-3.334.91-3.334 3.6 0 2.9 1.261 3.795 3.475 3.795 1.428 0 2.563-.49 3.053-.784v1.723c-.504.253-1.653.602-3.137.602-3.573 0-5.211-1.554-5.211-5.21 0-3.67 1.681-5.267 5.182-5.267 1.429 0 2.396.28 2.928.448v1.835z"/>
</svg>
