<svg xmlns="http://www.w3.org/2000/svg" width="36" height="36" viewBox="0 0 36 36">
    <path fill-rule="evenodd" d="M16.293 7.293C16.923 6.663 18 7.109 18 8v20c0 .89-1.077 1.337-1.707.707L10.586 23H7c-1.656 0-3-1.344-3-3v-4c0-1.656 1.344-3 3-3h3.586l5.707-5.707zm-4.586 7.414c-.187.188-.442.293-.707.293H7c-.552 0-1 .448-1 1v4c0 .552.448 1 1 1h4c.265 0 .52.105.707.293L16 25.586V10.414l-4.293 4.293zm14.42-3.319c3.652 3.652 3.652 9.573 0 13.224-.39.39-.39 1.024 0 1.414.391.39 1.025.39 1.415 0 4.433-4.432 4.433-11.62 0-16.052-.39-.39-1.024-.39-1.414 0-.39.39-.39 1.024 0 1.414zm-4.467 4.57l.083.094c1.076 1.076 1.076 2.82 0 3.896-.39.391-.39 1.024 0 1.415.391.39 1.024.39 1.415 0 1.856-1.858 1.856-4.868 0-6.725-.391-.39-1.024-.39-1.415 0-.36.36-.388.928-.083 1.32z"/>
</svg>
