<svg xmlns="http://www.w3.org/2000/svg" width="36" height="36" viewBox="0 0 36 36">
    <path fill-rule="evenodd" d="M25.173 9.196c4.198 2.835 6.04 6.805 5.222 11.54l-.06.323-.104.532.266.554c.802 1.669.504 4.687-.572 6.281l-.133.185c-.337.437-.965.518-1.403.18-.403-.31-.504-.87-.251-1.298l.07-.104c.689-.893.963-3.093.556-4.211l-.07-.167-.41-.854c-.074-.156-.107-.327-.096-.498l.017-.127.168-.858c.8-4.066-.673-7.358-4.32-9.82-3.661-2.473-8.448-2.472-12.11.003-3.548 2.398-5.037 5.581-4.374 9.5l.058.32.168.854c.034.17.022.344-.031.506l-.049.12-.41.854c-.479.997-.263 3.203.382 4.227l.105.151c.337.438.256 1.066-.181 1.403-.438.337-1.066.256-1.403-.181-1.138-1.476-1.51-4.487-.796-6.26l.09-.206.266-.554-.103-.529c-.939-4.769.787-8.78 4.877-11.667l.282-.195c4.337-2.932 10.01-2.933 14.349-.004zM16.194 20.28c.398.384.41 1.017.026 1.414-.384.398-1.017.41-1.414.026-.994-.96-2.618-.96-3.612 0-.397.383-1.03.372-1.413-.026-.384-.397-.373-1.03.025-1.414 1.768-1.706 4.62-1.706 6.388 0zm10 0c.398.384.41 1.017.026 1.414-.384.398-1.017.41-1.414.026-.994-.96-2.618-.96-3.612 0-.397.383-1.03.372-1.413-.026-.384-.397-.373-1.03.025-1.414 1.768-1.706 4.62-1.706 6.388 0z"/>
</svg>
