<svg xmlns="http://www.w3.org/2000/svg" width="36" height="36" viewBox="0 0 36 36">
    <path fill-rule="evenodd" d="M26.485 9.514c3.55 3.55 4.369 8.626 2.33 13.096l-.14.297-.112.221 1.407 5.63c.17.682-.39 1.296-1.05 1.24l-.11-.016-.106-.026-4.589-1.422-.164.09c-4.442 2.314-10.2 1.66-13.962-1.691l-.242-.222-.232-.226c-4.608-4.608-4.685-12.032-.23-16.734l.23-.237.237-.23c4.701-4.454 12.125-4.377 16.733.23zM10.93 10.928c-3.905 3.906-3.905 10.238 0 14.143 3.236 3.236 8.644 3.847 12.56 1.521.209-.123.454-.166.69-.124l.117.029 3.302 1.023-1.068-4.277c-.04-.163-.04-.333.002-.494l.039-.118.053-.113c2.151-3.902 1.59-8.446-1.553-11.59-3.905-3.904-10.237-3.904-14.142 0zm6.446 2.291l-.012.01.012-.01.006-.005-.002.002.033-.025c.022-.016.044-.03.067-.045l.037-.021c.02-.011.04-.022.06-.031l.053-.023.03-.011.03-.01.02-.007.03-.009.032-.008.026-.005c.02-.004.04-.008.06-.01l.026-.004.023-.003.035-.002.04-.002h.038l.04.002.035.002.023.003.026.003.06.01.026.006.032.008.03.01c.008.001.015.004.022.006l.054.02.005.001.059.026.05.026.04.023.015.01.052.035.031.024.006.005.082.073 3.89 3.889c.39.39.39 1.024 0 1.414-.391.39-1.024.39-1.415 0L19 16.415V22c0 .552-.448 1-1 1s-1-.448-1-1v-5.586l-2.182 2.182c-.39.39-1.024.39-1.414 0-.39-.39-.39-1.023 0-1.414l3.889-3.89.058-.053.012-.01-.01.01.022-.02z"/>
</svg>
