<svg xmlns="http://www.w3.org/2000/svg" width="36" height="36" viewBox="0 0 36 36">
    <path fill-rule="evenodd" d="M20.488 14c-.9 0-1.8.345-2.488 1.034-.687-.689-1.588-1.034-2.489-1.034-1.123 0-2.245.535-2.955 1.606-.929 1.404-.656 3.292.534 4.485l3.601 3.611c.361.362.835.543 1.31.543.472 0 .946-.181 1.308-.543l3.601-3.611c1.19-1.193 1.463-3.081.533-4.485C22.734 14.535 21.611 14 20.488 14M30 27c.552 0 1 .448 1 1s-.448 1-1 1H6c-.552 0-1-.448-1-1s.448-1 1-1zM18 7c6.313 0 11.432 5.118 11.432 11.432 0 2.166-.605 4.246-1.729 6.047-.292.469-.909.611-1.377.32-.469-.293-.612-.91-.32-1.379.927-1.485 1.426-3.199 1.426-4.988C27.432 13.223 23.209 9 18 9c-5.209 0-9.432 4.223-9.432 9.432 0 1.79.498 3.504 1.425 4.988.293.468.15 1.085-.318 1.378-.469.292-1.086.15-1.378-.319-1.124-1.8-1.729-3.88-1.729-6.047C6.568 12.118 11.687 7 18 7zm2.488 9c.52 0 .988.259 1.288.71.382.578.261 1.424-.282 1.969L18 22.182l-3.494-3.503c-.543-.545-.664-1.391-.282-1.969.3-.451.768-.71 1.287-.71.405 0 .786.158 1.073.446L18 17.866l1.416-1.42c.286-.288.667-.446 1.072-.446z"/>
</svg>
