<svg xmlns="http://www.w3.org/2000/svg" width="36" height="36" viewBox="0 0 36 36">
    <path fill-rule="evenodd" d="M20 6c1.104 0 2 .895 2 2v3c0 1.105-.896 2-2 2h-1v5h5l.005-.15c.073-.985.86-1.772 1.846-1.845L26 16h3c1.104 0 2 .895 2 2v10c0 1.105-.896 2-2 2h-3c-1.104 0-2-.895-2-2h-8c-3.865 0-7-3.135-7-7v-8H8c-1.054 0-1.918-.815-1.995-1.85L6 11V8c0-1.105.896-2 2-2zm0 2H8v3h3v10c0 2.76 2.24 5 5 5h10v2h3V18h-3v2h-7c-1.104 0-2-.895-2-2v-7h3V8zm-4 13c.829 0 1.5.672 1.5 1.5S16.829 24 16 24s-1.5-.672-1.5-1.5.671-1.5 1.5-1.5zm-2-4c.829 0 1.5.672 1.5 1.5S14.829 20 14 20s-1.5-.672-1.5-1.5.671-1.5 1.5-1.5z"/>
</svg>
