<svg xmlns="http://www.w3.org/2000/svg" width="36" height="36" viewBox="0 0 36 36">
    <path fill-rule="evenodd" d="M24 7c.513 0 .935.386.993.883L25 8v1h3c1.054 0 1.918.816 1.994 1.85L30 11v16c0 1.104-.896 2-2 2H8c-1.104 0-2-.896-2-2V11c0-1.104.896-2 2-2h3V8c0-.552.448-1 1-1 .513 0 .935.386.993.883L13 8v1h10V8c0-.552.448-1 1-1zm4 10H8v10h20V17zm-5.793 1.793c.36.36.388.928.083 1.32l-.083.095-4.5 4.5c-.36.36-.928.387-1.32.082l-.094-.083-2.5-2.5c-.39-.39-.39-1.024 0-1.414.36-.36.927-.388 1.32-.083l.094.083 1.792 1.792 3.794-3.792c.39-.39 1.024-.39 1.414 0zM11 11H8v4h20v-4h-3v1c0 .552-.448 1-1 1-.513 0-.936-.386-.993-.883L23 12v-1H13v1c0 .552-.448 1-1 1-.513 0-.936-.386-.993-.883L11 12v-1z"/>
</svg>
