<svg xmlns="http://www.w3.org/2000/svg" width="36" height="36" viewBox="0 0 36 36">
    <path fill-rule="evenodd" d="M36 18c0 9.941-8.06 18-18 18-9.941 0-18-8.059-18-18S8.059 0 18 0c9.94 0 18 8.059 18 18m-23.313-4.808c2.303 0 4.268 1.48 5.072 3.5h8.235l1.542 1.524c.263.263.263.688 0 .95l-1.542 1.526h-.767l-1.5-1.5-1.494 1.5-1.506-1.5-1.5 1.5h-1.468c-.804 2.018-2.77 3.5-5.072 3.5-3.015 0-5.46-2.482-5.46-5.5 0-3.02 2.445-5.5 5.46-5.5zm-1.46 4c-.83 0-1.5.671-1.5 1.5 0 .827.67 1.5 1.5 1.5.829 0 1.5-.673 1.5-1.5 0-.829-.671-1.5-1.5-1.5z"/>
</svg>
