<svg xmlns="http://www.w3.org/2000/svg" width="36" height="36" viewBox="0 0 36 36">
    <path fill-rule="evenodd" d="M12.337 9c2.485 0 4.5 2.015 4.5 4.5s-2.015 4.5-4.5 4.5-4.5-2.015-4.5-4.5S9.852 9 12.337 9zm0 2c-1.38 0-2.5 1.12-2.5 2.5s1.12 2.5 2.5 2.5 2.5-1.12 2.5-2.5-1.12-2.5-2.5-2.5zm11 9c2.485 0 4.5 2.015 4.5 4.5s-2.015 4.5-4.5 4.5-4.5-2.015-4.5-4.5 2.015-4.5 4.5-4.5zm0 2c-1.38 0-2.5 1.12-2.5 2.5s1.12 2.5 2.5 2.5 2.5-1.12 2.5-2.5-1.12-2.5-2.5-2.5zM9.544 28.707l18-18c.39-.39.39-1.024 0-1.414-.39-.39-1.024-.39-1.414 0l-18 18c-.39.39-.39 1.024 0 1.414.39.39 1.023.39 1.414 0z"/>
</svg>
