<svg xmlns="http://www.w3.org/2000/svg" width="36" height="36" viewBox="0 0 36 36">
    <path fill-rule="evenodd" d="M18 0c9.941 0 18 8.059 18 18s-8.059 18-18 18S0 27.941 0 18 8.059 0 18 0zm9.41 8.465c-.294-.293-.769-.293-1.062 0l-2.9 2.9c-.823-1.478-2.532-2.36-4.542-2.36h-1.812C14.26 9.005 12 10.746 12 13.45v3.556c0 .573-.098 1.141-.304 1.68l-2.302 3.21c-.741 1.082-.377 2.457.593 2.937L8.348 26.47l-.072.084c-.218.294-.194.71.073.976.293.293.767.293 1.06 0l18-18.005.073-.084c.218-.294.193-.71-.073-.976zM24 15.159l-9.848 9.847h1.349c0 1.104.894 2 2 2h1c1.104 0 2-.896 2-2h4.745c1.508 0 2.274-1.779 1.36-3.111l-2.266-3.111c-.206-.538-.34-1.206-.34-1.778v-1.848zm-5.795-4.484c-2.614.975-3.44 2.322-4.562 4.957-.266-2.027.338-3.586.886-4.034.54-.452 1.407-.94 3.676-.923z"/>
</svg>
