<svg xmlns="http://www.w3.org/2000/svg" width="36" height="36" viewBox="0 0 36 36">
    <path fill-rule="evenodd" d="M32 12c.552 0 1 .448 1 1v4c0 .466-.322.87-.776.974l-9.604 2.212.001.125c0 4.546-3.985 8.31-8.621 8.31-4.316 0-7.65-3.312-7.974-7.62L4.564 21c-.553 0-1-.448-1-1s.447-1 1-1h1.53c.58-4.003 3.79-7 7.896-7 .55 0 .998.445 1 .996l.006 1.504H17V13c0-.552.448-1 1-1h14zm-1 2H19v1.5c0 .552-.448 1-1 1h-4c-.55 0-.998-.445-1-.996l-.006-1.424C10.09 14.557 8 17.103 8 20.311c0 3.56 2.588 6.31 6 6.31 3.556 0 6.621-2.894 6.621-6.31 0-.239-.018-.49-.054-.787-.061-.508.27-.98.769-1.094L31 16.204V14zm-16.383 9.007L14.5 23c-1.637 0-3-1.364-3-3 0-.552-.448-1-1-1s-1 .448-1 1c0 2.74 2.258 5 5 5 .552 0 1-.448 1-1 0-.513-.386-.936-.883-.993z"/>
</svg>
