<svg xmlns="http://www.w3.org/2000/svg" width="36" height="36" viewBox="0 0 36 36">
    <path fill-rule="evenodd" d="M27 30H9c-1.656 0-3-1.344-3-3V15c0-1.656 1.344-3 3-3h18c1.656 0 3 1.344 3 3v12c0 1.656-1.344 3-3 3zm1-4v1c0 .552-.448 1-1 1H9c-.552 0-1-.448-1-1v-1h20zm-1-12c.552 0 1 .448 1 1v9H8v-9c0-.512.387-.935.883-.993L9 14zm-10 8h2c.552 0 1-.448 1-1s-.448-1-1-1h-2c-.552 0-1 .448-1 1s.448 1 1 1zm-3-11.5V9c0-.552.448-1 1-1h6c.552 0 1 .448 1 1v1.5h2V9c0-1.656-1.344-3-3-3h-6c-1.656 0-3 1.344-3 3v1.5h2z"/>
</svg>
