<svg xmlns="http://www.w3.org/2000/svg" width="36" height="36" viewBox="0 0 36 36">
    <path fill-rule="evenodd" d="M21.86 12.546c.18.382.53.648.933.71l6.144.933c1.017.155 1.423 1.461.687 2.212l-4.445 4.532c-.293.298-.426.727-.357 1.148l1.05 6.4c.173 1.06-.89 1.867-1.8 1.367l-5.495-3.022c-.362-.198-.793-.198-1.154 0l-5.496 3.022c-.91.5-1.972-.308-1.798-1.367l1.049-6.4c.069-.42-.064-.85-.357-1.148l-4.445-4.532c-.736-.75-.33-2.057.687-2.212l6.143-.934c.404-.061.754-.327.935-.71l2.747-5.822c.455-.964 1.769-.964 2.224 0l2.748 5.823z"/>
</svg>
