<svg xmlns="http://www.w3.org/2000/svg" width="36" height="36" viewBox="0 0 36 36">
    <path fill-rule="evenodd" d="M31 26c0 1.656-1.344 3-3 3H8c-1.656 0-3-1.344-3-3V10c0-1.656 1.344-3 3-3h20c1.656 0 3 1.344 3 3v16zM7 26c0 .552.448 1 1 1h20c.552 0 1-.448 1-1v-5h-5.645c-1.094 1.766-2.983 2.906-5.097 2.994l-.265.006c-2.22 0-4.223-1.161-5.362-3H7v5zM28 9H8c-.552 0-1 .448-1 1v9h6.22c.34 0 .652.172.836.45l.062.11c.727 1.484 2.213 2.44 3.875 2.44 1.663 0 3.148-.955 3.876-2.44.168-.343.516-.56.898-.56H29v-9c0-.552-.448-1-1-1zm-1 6v2H9v-2h18zm0-4v2H9v-2h18z"/>
</svg>
