<svg xmlns="http://www.w3.org/2000/svg" width="36" height="36" viewBox="0 0 36 36">
    <path fill-rule="evenodd" d="M29 28c.552 0 1 .448 1 1s-.448 1-1 1H7c-.552 0-1-.448-1-1s.448-1 1-1zm-1-4c.552 0 1 .448 1 1s-.448 1-1 1H8c-.552 0-1-.448-1-1s.448-1 1-1zM10 14c.552 0 1 .448 1 1v6c0 .552-.448 1-1 1s-1-.448-1-1v-6c0-.552.448-1 1-1zm4 1c.552 0 1 .448 1 1v5c0 .552-.448 1-1 1s-1-.448-1-1v-5c0-.552.448-1 1-1zm4 0c.552 0 1 .448 1 1v5c0 .552-.448 1-1 1s-1-.448-1-1v-5c0-.552.448-1 1-1zm4 0c.552 0 1 .448 1 1v5c0 .552-.448 1-1 1s-1-.448-1-1v-5c0-.552.448-1 1-1zm4-1c.552 0 1 .448 1 1v6c0 .552-.448 1-1 1s-1-.448-1-1v-6c0-.552.448-1 1-1zm-8.479-8.878c.299-.163.66-.163.958 0l11 6c.485.265.663.872.399 1.357-.265.485-.872.663-1.357.399L18 7.139 7.479 12.878c-.485.264-1.092.086-1.357-.4-.264-.484-.086-1.091.4-1.356z"/>
</svg>
