<svg xmlns="http://www.w3.org/2000/svg" width="36" height="36" viewBox="0 0 36 36">
    <path fill-rule="evenodd" d="M18 0c9.941 0 18 8.059 18 18s-8.059 18-18 18S0 27.941 0 18 8.059 0 18 0zm9.3 13H9.196c-.385 0-.7.315-.7.7v.1c0 .384.314.72.699.745l5.607.407c.384.026.698.361.698.746v4.038c0 .385-.061 1.008-.136 1.386l-1.675 8.46c-.075.377.168.767.539.867l.096.026c.372.1.76-.12.865-.492l2.084-7.485c.104-.37.432-.674.73-.674.299 0 .627.304.73.674l2.079 7.485c.104.371.492.592.865.493l.102-.028c.372-.099.615-.489.54-.867l-1.676-8.459c-.074-.378-.137-.686-.14-.686-.001.001-.003-.248-.003-.573v-4.165c0-.385.315-.72.698-.746l6.104-.407c.384-.025.698-.36.698-.746v-.1c0-.384-.315-.699-.7-.699zM18 7.5c-1.104 0-2 .896-2 2s.896 2 2 2 2-.896 2-2-.896-2-2-2z"/>
</svg>
