<svg xmlns="http://www.w3.org/2000/svg" width="36" height="36" viewBox="0 0 36 36">
    <path fill-rule="evenodd" d="M25.486 15.643c.666-.4 1.514.08 1.514.857V23c0 1.589-.818 3.065-2.166 3.908l-6.304 3.94c-.324.203-.736.203-1.06 0l-6.304-3.94C9.818 26.065 9 24.588 9 23c0-.552.448-1 1-1s1 .448 1 1c0 .9.463 1.735 1.226 2.212L18 28.821l5.774-3.609C24.537 24.735 25 23.9 25 23v-4.734l-7 4.2v.034c0 1.104-.896 2-2 2s-2-.896-2-2 .896-2 2-2c.353 0 .684.091.972.252zM26 7c.552 0 1 .448 1 1v4c0 .552-.448 1-1 1s-1-.448-1-1V9H11v8.157l7.003-4.552C18 12.571 18 12.535 18 12.5c0-1.104.896-2 2-2s2 .896 2 2-.896 2-2 2c-.327 0-.635-.078-.907-.217l-8.548 5.555C9.88 20.271 9 19.793 9 19V8c0-.552.448-1 1-1z"/>
</svg>
