<svg xmlns="http://www.w3.org/2000/svg" width="36" height="36" viewBox="0 0 36 36">
    <path fill-rule="evenodd" d="M9.921 11.038c.629-1.275 2.173-1.796 3.452-1.168l7.799 3.838c1.278.63 1.806 2.172 1.18 3.449l-5.556 11.285c-.244.495-.843.7-1.339.455-.495-.243-.7-.843-.455-1.338l5.554-11.284c.14-.285.022-.63-.268-.772l-7.798-3.838c-.29-.142-.635-.026-.775.257L7.897 19.68c-.244.495-.843.7-1.339.456-.495-.244-.7-.844-.455-1.34zM27 8c.552 0 1 .448 1 1v2h2c.513 0 .936.386.993.883L31 12c0 .552-.448 1-1 1h-2v2c0 .513-.386.936-.883.993L27 16c-.552 0-1-.448-1-1v-2h-2c-.513 0-.936-.386-.993-.883L23 12c0-.552.448-1 1-1h2V9c0-.513.386-.936.883-.993z"/>
</svg>
