<svg xmlns="http://www.w3.org/2000/svg" width="36" height="36" viewBox="0 0 36 36">
    <path fill-rule="evenodd" d="M18 6.919c7.18 0 13 5.82 13 13 0 .283-.009.564-.027.844.017.076.027.155.027.237 0 .141-.03.276-.082.398-.373 3.263-1.967 6.239-4.455 8.377-.266.23-.634.302-.968.19-2.427-.809-4.942-1.228-7.495-1.228s-5.067.42-7.495 1.228c-.334.111-.702.04-.968-.19-2.487-2.137-4.08-5.111-4.452-8.374C5.03 21.28 5 21.143 5 21c0-.082.01-.161.028-.237-.018-.28-.027-.561-.027-.844 0-7.18 5.82-13 13-13zm1 2.044v1.956c0 .552-.448 1-1 1-.513 0-.936-.386-.993-.883L17 10.919V8.963C11.394 9.47 7 14.181 7 19.92v.08L9 20c.552 0 1 .448 1 1 0 .513-.386.936-.883.993L9 22H7.198c.427 2.219 1.529 4.241 3.156 5.815l.078.073c2.271-.7 4.606-1.089 6.975-1.144l.593-.007c2.375 0 4.72.334 6.995.981l.573.169.078-.073c1.627-1.573 2.73-3.596 3.157-5.814H27c-.552 0-1-.448-1-1 0-.513.386-.936.883-.993L27 20h1.999l.002-.081c0-5.738-4.394-10.45-10-10.956zm-.51 6.837c.592 2.319 1.51 6.033 1.51 6.782 0 1.104-.896 2-2 2s-2-.896-2-2c0-.749.918-4.463 1.51-6.782.13-.509.85-.509.98 0z"/>
</svg>
