<svg xmlns="http://www.w3.org/2000/svg" width="36" height="36" viewBox="0 0 36 36">
    <path fill-rule="evenodd" d="M18 5c4.97 0 9 4.03 9 9 0 2.168-.767 4.157-2.043 5.71.017.055.03.114.036.173L25 20v9c0 .704-.702 1.175-1.341.94l-.106-.046L18 27.118l-5.553 2.776c-.63.315-1.365-.102-1.44-.779L11 29v-9c0-.101.015-.199.043-.29C9.767 18.156 9 16.167 9 14c0-4.97 4.03-9 9-9zm5.001 16.484C21.571 22.44 19.851 23 18 23c-1.85 0-3.57-.558-5-1.516v5.897l4.553-2.275c.241-.121.519-.138.77-.052l.124.052L23 27.382zM18 7c-3.866 0-7 3.134-7 7s3.134 7 7 7 7-3.134 7-7-3.134-7-7-7zm0 1.5c.552 0 1 .448 1 1s-.448 1-1 1c-1.933 0-3.5 1.567-3.5 3.5 0 .552-.448 1-1 1s-1-.448-1-1c0-3.037 2.463-5.5 5.5-5.5z"/>
</svg>
