<svg xmlns="http://www.w3.org/2000/svg" width="36" height="36" viewBox="0 0 36 36">
    <path fill-rule="evenodd" d="M19.724 9.09l.252.161-1.119 1.658c-1.06-.716-2.385-.998-3.719-.763-1.323.233-2.471.957-3.23 2-.701.967-1.016 2.138-.875 3.31l.037.252.404 2.292H22v-2.808h2v2.98c1.165.411 2 1.523 2 2.828v7c0 1.656-1.344 3-3 3H11c-1.656 0-3-1.344-3-3v-7c0-1.116.61-2.09 1.514-2.606L9.1 16.056c-.318-1.799.123-3.616 1.19-5.085 1.06-1.46 2.663-2.471 4.5-2.795 1.742-.306 3.489.027 4.933.913zM23 20H11c-.552 0-1 .448-1 1v7c0 .552.448 1 1 1h12c.552 0 1-.448 1-1v-7c0-.552-.448-1-1-1zm-6 2.5c.513 0 .936.386.993.883L18 23.5v2c0 .552-.448 1-1 1-.513 0-.936-.386-.993-.883L16 25.5v-2c0-.552.448-1 1-1zM29 12c.552 0 1 .448 1 1 0 .513-.386.936-.883.993L29 14h-2c-.552 0-1-.448-1-1 0-.513.386-.936.883-.993L27 12h2zm-.293-4.707c.36.36.388.928.083 1.32l-.083.094-1.5 1.5c-.39.39-1.024.39-1.414 0-.36-.36-.388-.928-.083-1.32l.083-.094 1.5-1.5c.39-.39 1.024-.39 1.414 0zM23 5.5c.513 0 .936.386.993.883L24 6.5v2c0 .552-.448 1-1 1-.513 0-.936-.386-.993-.883L22 8.5v-2c0-.552.448-1 1-1z"/>
</svg>
