<svg xmlns="http://www.w3.org/2000/svg" width="36" height="36" viewBox="0 0 36 36">
    <path fill-rule="evenodd" d="M29 28c0 1.656-1.344 3-3 3H10c-1.656 0-3-1.344-3-3V8c0-1.656 1.344-3 3-3h12.414L29 11.586V28zM20 7v7h7v14c0 .552-.448 1-1 1H10c-.552 0-1-.448-1-1V8c0-.552.448-1 1-1h10zm6.586 5H22V7.415L26.586 12zm-13.743 9.242c-.251 0-.536.034-.536.034v1.775s.285.017.536.017c.746 0 .989-.243.989-.955 0-.628-.243-.87-.99-.87zM11 20.12s1.005-.1 1.843-.1c1.718 0 2.346.628 2.346 2.094 0 1.466-.712 2.178-2.346 2.178-.251 0-.536-.017-.536-.017v1.667H11V20.12zm7.081 1.123c-.252 0-.578.034-.578.034v3.467s.285.034.494.034c1.021 0 1.532-.51 1.532-1.809 0-1.257-.468-1.726-1.448-1.726M16.196 25.9v-5.78s1.005-.1 1.843-.1c1.968 0 2.848.88 2.848 2.95 0 2.025-1.005 3.031-2.93 3.031-.756 0-1.76-.1-1.76-.1m5.698-5.822h3.602v1.173h-2.294v1.34h2.044v1.173h-2.044v2.178h-1.308v-5.864z"/>
</svg>
