<svg xmlns="http://www.w3.org/2000/svg" width="36" height="36" viewBox="0 0 36 36">
    <path fill-rule="evenodd" d="M26 6c2.21 0 4 1.79 4 4s-1.79 4-4 4c-1.864 0-3.43-1.274-3.874-3H18v14h4.126c.444-1.725 2.01-3 3.874-3 2.21 0 4 1.79 4 4s-1.79 4-4 4c-1.864 0-3.43-1.274-3.874-3H17c-.552 0-1-.448-1-1v-7h-4.126c-.444 1.726-2.01 3-3.874 3-2.21 0-4-1.79-4-4s1.79-4 4-4c1.864 0 3.43 1.275 3.874 3H16v-7c0-.513.386-.936.883-.993L17 9h5.126c.444-1.725 2.01-3 3.874-3zm0 2c-1.105 0-2 .895-2 2s.895 2 2 2 2-.895 2-2-.895-2-2-2zm0 16c-1.105 0-2 .895-2 2s.895 2 2 2 2-.895 2-2-.895-2-2-2zM8 16c-1.105 0-2 .895-2 2s.895 2 2 2 2-.895 2-2-.895-2-2-2z"/>
</svg>
