<svg xmlns="http://www.w3.org/2000/svg" width="36" height="36" viewBox="0 0 36 36">
    <path fill-rule="evenodd" d="M17.935 4.169C23.986 3.776 29 8.249 29 14.167c0 2.576-1.629 5.916-3.648 8.073l-.174.18 1.75 4.375c.186.464 0 .986-.42 1.234l-.102.052-9 4c-.506.225-1.1-.005-1.322-.513l-2.37-5.402h-2.517c-1.04 0-2.1-.799-2.19-1.854L9 24.167v-2.501h-.5c-1.658 0-2.468-1.363-1.968-2.687l.058-.142L8 15.75v-1.082c0-5.396 4.273-9.981 9.651-10.477zM27 14.167c0-4.74-4.015-8.321-8.935-8.002C13.6 6.454 10 10.239 10 14.668v1.3c0 .144-.03.286-.09.416l-1.498 3.28-.011.016.04-.01.059-.003H10c.552 0 1 .447 1 1v3.5c0-.098.124 0 .197 0h3.171c.397 0 .756.234.916.598l2.227 5.079 7.202-3.201-1.641-4.105c-.141-.351-.07-.748.174-1.028l.087-.089C25.261 19.697 27 16.406 27 14.167zm-8.64 5.85c.635 0 1.15.515 1.15 1.15 0 .635-.515 1.15-1.15 1.15-.635 0-1.15-.515-1.15-1.15 0-.635.515-1.15 1.15-1.15zm-.033-10.85c2.113 0 3.826 1.713 3.826 3.826 0 1.25-.542 2.194-1.666 3.203l-.217.19c-.654.557-.84.854-.917 1.589-.058.55-.55.948-1.099.89-.55-.056-.948-.548-.89-1.097.127-1.227.539-1.947 1.425-2.745l.184-.16c.869-.74 1.18-1.239 1.18-1.87 0-1.009-.818-1.827-1.826-1.827-.958 0-1.745.739-1.821 1.677l-.006.15c0 .553-.448 1-1 1s-1-.447-1-1c0-2.113 1.714-3.827 3.827-3.827z"/>
</svg>
