<svg xmlns="http://www.w3.org/2000/svg" width="36" height="36" viewBox="0 0 36 36">
    <path fill-rule="evenodd" d="M9.184 9.728C9.778 8.66 10.904 8 12.124 8h11.753c1.22 0 2.345.661 2.914 1.686l2.729 4.386C31.102 14.81 32 16.212 32 18v5.431c0 2.504-2.03 4.534-4.534 4.534-1.91 0-3.73-1.312-4.606-2.965h-9.715c-.868 1.682-2.625 2.965-4.61 2.965C6.03 27.965 4 25.935 4 23.431V18c0-1.658.994-3.012 2.526-3.808l.212-.105 2.446-4.36zm19.66 6.242l.158.093c.663.422.998 1.062.998 1.937v5.431c0 1.4-1.134 2.534-2.534 2.534-1.25 0-2.587-1.098-3.016-2.3L24.213 23H11.786l-.236.665c-.447 1.254-1.696 2.3-3.015 2.3-1.4 0-2.535-1.135-2.535-2.534V18c0-.83.528-1.553 1.443-2.03h21.4zM23.877 10c.445 0 .859.217 1.113.576l2.11 3.393H9.098l1.833-3.266c.218-.391.61-.648 1.047-.695l.147-.008zM9.273 19.182c0-.652.524-1.182 1.193-1.182h2.34c.66 0 1.194.525 1.194 1.182 0 .653-.524 1.182-1.193 1.182h-2.341c-.66 0-1.193-.525-1.193-1.182m12.727 0c0-.652.524-1.182 1.193-1.182h2.341c.659 0 1.193.525 1.193 1.182 0 .653-.524 1.182-1.193 1.182h-2.341c-.659 0-1.193-.525-1.193-1.182"/>
</svg>
