<svg xmlns="http://www.w3.org/2000/svg" width="36" height="36" viewBox="0 0 36 36">
    <path fill-rule="evenodd" d="M22 8c1.56 0 3 1.449 3 3h2c1.656 0 3 1.344 3 3v11.2c0 1.55-1.273 2.8-2.833 2.8H8.833C7.273 28 6 26.75 6 25.2V14c0-1.656 1.344-3 3-3h2c0-1.551 1.44-3 3-3h8zm0 2h-8c-.453 0-1 .55-1 1v1c0 .552-.448 1-1 1H9c-.552 0-1 .448-1 1v11.2c0 .438.37.8.833.8h18.334c.464 0 .833-.362.833-.8V14c0-.552-.448-1-1-1h-3c-.552 0-1-.448-1-1v-1c0-.45-.547-1-1-1zm-4 4c2.761 0 5 2.239 5 5s-2.239 5-5 5-5-2.239-5-5 2.239-5 5-5zm0 2c-1.657 0-3 1.343-3 3s1.343 3 3 3 3-1.343 3-3-1.343-3-3-3z"/>
</svg>
