<svg xmlns="http://www.w3.org/2000/svg" width="36" height="36" viewBox="0 0 36 36">
    <path fill-rule="evenodd" d="M28 8c1.652 0 3 1.348 3 3v8c0 1.652-1.348 3-3 3h-1v1.037c0 1.652-1.348 3-3 3h-5.638l-5.722 4.768c-.651.543-1.64.08-1.64-.768v-4H9c-1.652 0-3-1.348-3-3v-8c0-1.653 1.348-3 3-3l1-.001V11c0-1.593 1.253-2.903 2.824-2.995L13 8zm0 2H13c-.548 0-1 .452-1 1v1.036h12c1.652 0 3 1.348 3 3V20h1c.509 0 .935-.39.993-.884L29 19v-8c0-.548-.452-1-1-1zM13 27.902l4.36-3.634c.18-.15.406-.231.64-.231h6c.548 0 1-.453 1-1v-8c0-.548-.452-1-1-1H9c-.548 0-1 .452-1 1v8c0 .547.452 1 1 1h3c.552 0 1 .447 1 1v2.865z"/>
</svg>
