<svg xmlns="http://www.w3.org/2000/svg" width="36" height="36" viewBox="0 0 36 36">
    <path fill-rule="evenodd" d="M14 19c.668 0 1.137.637.965 1.262l-.037.11-2.676 6.688L17.4 23.2c.32-.24.748-.264 1.09-.072l.11.072 5.147 3.861-2.675-6.69c-.249-.62.17-1.292.812-1.365L22 19h4c.552 0 1 .448 1 1 0 .513-.386.936-.883.993L26 21h-2.523l3.451 8.629c.362.903-.64 1.715-1.437 1.233L25.4 30.8l-7.401-5.55L10.6 30.8c-.779.584-1.823-.173-1.564-1.068l.036-.103L12.522 21H10c-.513 0-.936-.386-.993-.883L9 20c0-.513.386-.936.883-.993L10 19h4zm4.92-13.895l.042.12L21.754 15H31c.513 0 .936.386.993.883L32 16c0 .513-.386.936-.883.993L31 17H21c-.406 0-.767-.245-.922-.612l-.04-.113L18 9.139l-2.038 7.136c-.112.39-.446.67-.842.718L15 17H5c-.552 0-1-.448-1-1 0-.513.386-.936.883-.993L5 15h9.245l2.793-9.775c.265-.925 1.53-.965 1.881-.12z"/>
</svg>
