<svg xmlns="http://www.w3.org/2000/svg" width="36" height="36" viewBox="0 0 36 36">
    <path fill-rule="evenodd" d="M10 10c.26 0 .509.101.694.28l.087.095 4 5c.113.142.186.312.21.49L15 16l-.001 2H18v-7c0-.513.386-.936.883-.993L19 10h6.667c.393 0 .75.23.911.588L29.933 18H30c1.055 0 1.918.815 1.995 1.85L32 20v4c0 1.105-.895 2-2 2l-1.291.001C28.466 27.697 27.007 29 25.244 29s-3.221-1.303-3.464-2.999h-8.071C13.466 27.697 12.007 29 10.244 29s-3.221-1.303-3.464-2.999L5 26c-.552 0-1-.448-1-1v-6c0-.552.448-1 1-1h7.999v-1.651L9.52 12H5.589c-.513 0-.936-.386-.993-.883L4.589 11c0-.513.386-.936.883-.993L5.59 10H10zm.244 14c-.829 0-1.5.671-1.5 1.5s.671 1.5 1.5 1.5 1.5-.671 1.5-1.5-.671-1.5-1.5-1.5zm15 0c-.829 0-1.5.671-1.5 1.5s.671 1.5 1.5 1.5 1.5-.671 1.5-1.5-.671-1.5-1.5-1.5zM30 20H6v4h1.08c.563-1.183 1.768-2 3.164-2 1.396 0 2.602.817 3.163 2h8.674c.562-1.183 1.767-2 3.163-2s2.602.817 3.163 2H30v-4zm-4.978-8H20v6h7.738l-2.716-6z"/>
</svg>
