<svg xmlns="http://www.w3.org/2000/svg" width="36" height="36" viewBox="0 0 36 36">
    <path fill-rule="evenodd" d="M18 4.125c-6.27 0-10.239 3.767-10.372 9.098l-.003.277c0 4.661-.525 8.169-1.72 10.818l-.141.302c-.783 1.617-.338 3.45 1.117 4.487 1.11.795 2.536 1.395 4.343 1.906l.424.116c.903.24 1.51.377 3.171.727.544.115 1.056-.3 1.056-.856v-5c0-.386-.253-.726-.622-.838l-.169-.056c-1.222-.456-2.209-1.783-2.209-3.106v-5.887l.093.01c.084.008.17.011.261.011l.253-.006c1.524-.067 3.187-.735 4.363-1.717l.155-.134.155.134c1.24 1.036 3.026 1.723 4.616 1.723l.198-.006.156-.015V22c0 1.383-1.079 2.77-2.378 3.162-.37.112-.622.452-.622.838v5c0 .556.512.97 1.056.856l1.495-.32c.663-.147 1.112-.256 1.676-.407 2.01-.536 3.57-1.166 4.768-2.022 1.454-1.038 1.899-2.87 1.116-4.488-1.295-2.682-1.861-6.278-1.861-11.119 0-5.477-3.997-9.375-10.375-9.375zm0 1.75c5.421 0 8.625 3.124 8.625 7.625 0 5.08.603 8.914 2.035 11.88.416.86.196 1.765-.557 2.303-.922.659-2.182 1.188-3.818 1.65l-.543.147-.654.165c-.294.071-.61.143-1.005.23l-.208.043v-3.321l.161-.077c1.638-.843 2.839-2.638 2.839-4.52v-7c0-.567-.53-.984-1.082-.85l-.63.172c-.18.046-.284.062-.392.062-1.473 0-3.27-.85-4.073-1.912-.35-.463-1.046-.463-1.396 0-.802 1.062-2.6 1.912-4.073 1.912-.13 0-.254-.022-.509-.093l-.431-.12-.082-.021c-.551-.134-1.082.283-1.082.85v7l.005.217c.088 1.801 1.26 3.493 2.834 4.303l.161.078v3.321l-.73-.16c-.48-.11-.851-.202-1.296-.32-1.824-.487-3.21-1.047-4.201-1.756-.754-.538-.974-1.443-.558-2.302 1.38-2.86 1.99-6.528 2.033-11.341l.002-.54c0-4.5 3.204-7.625 8.625-7.625z"/>
</svg>
