<svg xmlns="http://www.w3.org/2000/svg" width="36" height="36" viewBox="0 0 36 36">
    <path fill-rule="evenodd" d="M18 0c9.941 0 18 8.059 18 18s-8.059 18-18 18S0 27.941 0 18 8.059 0 18 0zm5 10c0-1.656-1.344-3-3-3h-4c-1.656 0-3 1.344-3 3v1h2v-1c0-.552.448-1 1-1h4c.552 0 1 .448 1 1v1H10c-1.104 0-2 .896-2 2v11c0 1.104.896 2 2 2h16c1.104 0 2-.896 2-2V13c0-1.104-.896-2-2-2h-3v-1zm-4.707 11.707c.416.416 1.099.385 1.475-.067l5-6c.354-.424.296-1.055-.128-1.408-.424-.354-1.055-.297-1.408.128l-4.3 5.158-3.225-3.225c-.422-.423-1.118-.383-1.49.085l-3 3.774c-.343.432-.272 1.061.16 1.405.433.343 1.062.271 1.406-.16l2.302-2.897 3.208 3.207z"/>
</svg>
