<svg xmlns="http://www.w3.org/2000/svg" width="36" height="36" viewBox="0 0 36 36">
    <path fill-rule="evenodd" d="M27 15c.552 0 1 .448 1 1v11c0 1.656-1.344 3-3 3H11c-1.656 0-3-1.344-3-3V16c0-.552.448-1 1-1s1 .448 1 1v11c0 .552.448 1 1 1h14c.552 0 1-.448 1-1V16c0-.552.448-1 1-1zm-6.76 1.35c.36-.42.991-.469 1.41-.11.42.36.469.991.11 1.41l-6 7c-.36.42-.991.469-1.41.11-.42-.36-.469-.991-.11-1.41zm.722 5.65c.807 0 1.461.654 1.461 1.461s-.654 1.461-1.461 1.461c-.808 0-1.462-.654-1.462-1.461S20.154 22 20.962 22zM15 16c.829 0 1.5.671 1.5 1.5S15.829 19 15 19s-1.5-.671-1.5-1.5.671-1.5 1.5-1.5zm2.475-10.851c.322-.199.728-.199 1.05 0L26 9.758V7c0-.513.386-.936.883-.993L27 6c.552 0 1 .448 1 1v3.99l2.525 1.559c.436.269.594.82.382 1.273l-.056.103c-.29.47-.906.616-1.376.326L18 7.175 6.525 14.25c-.47.29-1.086.144-1.376-.326-.29-.47-.144-1.086.326-1.376z"/>
</svg>
