<svg xmlns="http://www.w3.org/2000/svg" width="36" height="36" viewBox="0 0 36 36">
    <path fill-rule="evenodd" d="M18 36C8.059 36 0 27.941 0 18S8.059 0 18 0s18 8.059 18 18-8.059 18-18 18zm.125-26.938c4.215 0 7.657 3.313 7.865 7.476H26v.4C25.981 20.288 23.258 23 19.903 23h-3.96c-2.992 0-5.481-2.156-5.998-5H8.913C8.409 18 8 17.591 8 17.087v-.174c0-.504.409-.913.913-.913H17V9.062zM14 29c-1.104 0-2-.896-2-2s.896-2 2-2 2 .896 2 2-.896 2-2 2zm8 0c-1.104 0-2-.896-2-2s.896-2 2-2 2 .896 2 2-.896 2-2 2zm-1.708-9.096c.53-.314 1.047-.635 1.451-1.089.413-.435.791-.912 1.058-1.464.303-.536.506-1.132.695-1.783.488.658.59 1.484.441 2.254-.156.771-.56 1.501-1.145 2.042-.575.545-1.299.944-2.07 1.074-.765.14-1.568.053-2.226-.37.653-.16 1.252-.37 1.796-.664z"/>
</svg>
