<svg xmlns="http://www.w3.org/2000/svg" width="36" height="36" viewBox="0 0 36 36">
    <path fill-rule="evenodd" d="M18 0c9.941 0 18 8.059 18 18s-8.059 18-18 18S0 27.941 0 18 8.059 0 18 0zm-5.42 16.41l-2.12 2.12c-2.05 2.05-2.05 5.375 0 7.425s5.373 2.05 7.423 0l.354-.354c.489-.488.489-1.28 0-1.768-.488-.488-1.28-.488-1.767 0l-.354.354c-1.074 1.074-2.815 1.074-3.889 0-1.073-1.073-1.073-2.815 0-3.889l2.121-2.12c1.022-1.023 2.649-1.072 3.73-.15l.137.127c.442.47 1.179.53 1.691.12.504-.403.613-1.115.275-1.647l-.083-.116-.093-.103c-2.05-2.05-5.374-2.05-7.424 0zm4.955-4.946l-.347.338c-.494.482-.504 1.273-.023 1.767.482.495 1.274.505 1.768.023l.358-.35c1.085-1.084 2.827-1.084 3.902-.01 1.073 1.074 1.073 2.815 0 3.889l-2.122 2.12c-1.03 1.03-2.672 1.074-3.752.13l-.143-.134c-.488-.488-1.28-.488-1.767 0-.456.456-.486 1.175-.092 1.666l.097.107c2.05 2.05 5.374 2.05 7.425 0l2.121-2.121c2.05-2.05 2.05-5.375 0-7.425-2.051-2.05-5.375-2.05-7.425 0z"/>
</svg>
