<svg xmlns="http://www.w3.org/2000/svg" width="36" height="36" viewBox="0 0 36 36">
    <path fill-rule="evenodd" d="M23 13c.552 0 1 .448 1 1s-.448 1-1 1h-8c-.068 0-.113.07-.075.162l2 4.867c.24.586.691.971 1.075.971h4.947c1.347 0 2.56.879 3.027 2.134l2.956 7.508c.203.514-.05 1.094-.564 1.296-.514.203-1.094-.05-1.296-.564l-2.963-7.525c-.188-.504-.664-.849-1.16-.849H18c-1.301 0-2.406-.943-2.925-2.213l-.849-2.065c-2.566.587-4.434 2.885-4.434 5.572 0 3.155 2.56 5.715 5.715 5.715 2.515 0 4.713-1.64 5.454-4.004l.071-.246c.14-.534.685-.855 1.22-.716.534.139.855.685.716 1.22-.03.111-.062.224-.1.343-1 3.19-3.966 5.403-7.361 5.403-4.26 0-7.715-3.455-7.715-7.715 0-3.514 2.366-6.535 5.667-7.44l-.385-.933C12.506 14.53 13.49 13 15 13zm-9.25-7.5C15.542 5.5 17 6.958 17 8.75S15.542 12 13.75 12s-3.25-1.458-3.25-3.25 1.458-3.25 3.25-3.25zm0 2c-.69 0-1.25.56-1.25 1.25S13.06 10 13.75 10 15 9.44 15 8.75s-.56-1.25-1.25-1.25z"/>
</svg>
