<svg xmlns="http://www.w3.org/2000/svg" width="36" height="36" viewBox="0 0 36 36">
    <path fill-rule="evenodd" d="M26.591 9.329c.418-.245.948-.155 1.263.211C29.883 11.896 31 14.9 31 18c0 .632-.046 1.267-.136 1.888-.014.097-.037.193-.053.29h-2.033c.039-.192.078-.384.106-.579.077-.525.116-1.063.116-1.599 0-2.345-.757-4.626-2.146-6.508l-13.363 7.814c-.31.183-.695.183-1.007.002l-5.336-3.096C7.05 16.802 7 17.4 7 18c0 6.065 4.935 11 11 11 .153 0 .304-.018.457-.024v2c-.153.005-.304.024-.457.024-7.168 0-13-5.832-13-13 0-1.224.175-2.44.519-3.614.086-.295.303-.534.588-.648.286-.114.608-.091.873.064l6.004 3.484zM28 22c1.657 0 3 1.343 3 3v3c0 .621-.189 1.198-.512 1.677-.324.479-.782.86-1.32 1.087-.359.152-.754.236-1.168.236h-4v-9zm-6 0v9h-2v-9h2zm6 2h-2v5h2c.136 0 .267-.026.389-.078.179-.075.332-.202.442-.364.077-.115.169-.305.169-.558v-3c0-.551-.449-1-1-1zM23.371 6.48c.477-.278 1.09-.116 1.367.36.278.478.117 1.09-.36 1.369L13.49 14.553c-.156.09-.33.137-.504.137-.173 0-.347-.045-.502-.136l-4.678-2.718c-.478-.278-.64-.89-.362-1.367.277-.477.89-.64 1.367-.362l4.175 2.425z"/>
</svg>
