<svg xmlns="http://www.w3.org/2000/svg" width="36" height="36" viewBox="0 0 36 36">
    <path fill-rule="evenodd" d="M18 0c9.941 0 18 8.059 18 18s-8.059 18-18 18S0 27.941 0 18 8.059 0 18 0zm8 11H10c-1.104 0-2 .896-2 2v11c0 1.104.896 2 2 2h16c1.104 0 2-.896 2-2V13c0-1.104-.896-2-2-2zm-8.707 3.793c.36-.36.928-.388 1.32-.083l.094.083L21 17.085l2.293-2.292.094-.083c.392-.305.96-.278 1.32.083.36.36.388.928.083 1.32l-.083.094-2.292 2.293 2.292 2.293.083.094c.305.392.278.96-.083 1.32-.36.36-.928.388-1.32.083l-.094-.083L21 19.915l-2.293 2.292-.094.083c-.392.305-.96.278-1.32-.083-.36-.36-.388-.928-.083-1.32l.083-.094 2.292-2.293-2.292-2.293-.083-.094c-.305-.392-.278-.96.083-1.32z"/>
</svg>
