<svg xmlns="http://www.w3.org/2000/svg" width="36" height="36" viewBox="0 0 36 36">
    <path fill-rule="evenodd" d="M28.707 7.293c.36.36.388.928.083 1.32l-.083.094-20 20c-.39.39-1.024.39-1.414 0-.36-.36-.388-.928-.083-1.32l.083-.094 7.17-7.172-5.848-5.849c-.36-.36-.388-.927-.083-1.32l.083-.094 4.243-4.243c.36-.36.929-.388 1.321-.082l.094.083 5.838 5.857 7.182-7.18c.39-.39 1.024-.39 1.414 0zM23.086 17.44l.094.083 4.527 4.527c.156.156.256.36.284.576l.009.131V27c0 .513-.386.936-.883.993L27 28h-4.243c-.221 0-.435-.073-.608-.206l-.1-.087-4.526-4.528c-.39-.39-.39-1.024 0-1.414.36-.36.928-.388 1.32-.083l.094.083L23.171 26H26v-2.828l-4.234-4.235c-.36-.36-.388-.927-.083-1.32l.083-.094c.36-.36.928-.388 1.32-.083zm-6.001-3.169l-2.821 2.822 1.614 1.614 2.818-2.819-1.611-1.617zm-3.522-3.533l-2.827 2.827 2.114 2.114 2.823-2.824-2.11-2.117z"/>
</svg>
