<svg xmlns="http://www.w3.org/2000/svg" width="36" height="36" viewBox="0 0 36 36">
    <path fill-rule="evenodd" d="M26 5c1.656 0 3 1.344 3 3v20c0 1.656-1.344 3-3 3H10c-1.656 0-3-1.344-3-3V8c0-1.656 1.344-3 3-3zm0 2H10c-.552 0-1 .448-1 1v20c0 .552.448 1 1 1h16c.552 0 1-.448 1-1V8c0-.552-.448-1-1-1zm-3.707 14.464c.39-.39 1.023-.39 1.414 0 .39.39.39 1.023 0 1.414l-2.828 2.829c-.39.39-1.024.39-1.414 0l-1.414-1.414c-.39-.39-.39-1.024 0-1.414.39-.39 1.023-.39 1.414 0l.707.707zM16 21v2h-4v-2h4zm8-5v2H12v-2h12zm0-5v2H12v-2h12z"/>
</svg>
