<svg xmlns="http://www.w3.org/2000/svg" width="36" height="36" viewBox="0 0 36 36">
    <path fill-rule="evenodd" d="M17 29c-.552 0-1-.448-1-1 0-.513.386-.936.883-.993L17 27h1v-7h-6v3c0 .552-.448 1-1 1H6c-.552 0-1-.448-1-1v-4c0-3.314 2.686-6 6-6h7V9h-7c-.552 0-1-.448-1-1 0-.513.386-.936.883-.993L11 7h13c2.761 0 5 2.239 5 5v15h1c.552 0 1 .448 1 1 0 .513-.386.936-.883.993L30 29H17zm7-20h-4v5c0 .552-.448 1-1 1h-8c-2.21 0-4 1.79-4 4v3h3v-2c0-1.055.816-1.918 1.85-1.995L12 18h7c.552 0 1 .448 1 1v8h7V12c0-1.598-1.249-2.904-2.824-2.995L24 9z"/>
</svg>
