<svg xmlns="http://www.w3.org/2000/svg" width="36" height="36" viewBox="0 0 36 36">
    <path fill-rule="evenodd" d="M14.5 6.125c.245 0 .476.102.64.279l.077.094L18 10.474l2.783-3.976c.14-.2.357-.331.596-.365l.121-.008h.5c4.267 0 7.742 3.394 7.871 7.63l.004.245v8c0 .446-.334.814-.765.868l-.11.007h-3.125V30c0 .446-.334.814-.765.868l-.11.007-6.874.001c-.041.006-.083.009-.126.009s-.085-.003-.126-.009L11 30.875c-.446 0-.814-.334-.868-.765l-.007-.11v-7.125H7c-.446 0-.814-.334-.868-.765L6.125 22v-8c0-4.267 3.394-7.742 7.63-7.871L14 6.125h.5zm-.455 1.75H14c-3.308 0-6.003 2.622-6.121 5.9L7.875 14v7.125h2.25V13c0-.483.392-.875.875-.875.446 0 .814.334.868.765l.007.11v16.125h5.25v-16.85l-3.08-4.4zm7.909 0l-3.079 4.399v16.851h5.25V13c0-.446.334-.814.765-.868l.11-.007c.446 0 .814.334.868.765l.007.11v8.125h2.25V14c0-3.308-2.622-6.003-5.9-6.121l-.271-.004zM15 21.125c.483 0 .875.392.875.875 0 .446-.334.814-.765.868l-.11.007h-1c-.483 0-.875-.392-.875-.875 0-.446.334-.814.765-.868l.11-.007h1zm7 0c.483 0 .875.392.875.875 0 .446-.334.814-.765.868l-.11.007h-1c-.483 0-.875-.392-.875-.875 0-.446.334-.814.765-.868l.11-.007h1z"/>
</svg>
