<svg xmlns="http://www.w3.org/2000/svg" width="36" height="36" viewBox="0 0 36 36">
    <path fill-rule="evenodd" d="M18 6c6.627 0 12 5.373 12 12s-5.373 12-12 12S6 24.627 6 18 11.373 6 18 6zm0 16.75c-.884 0-1.75.077-2.584.225.562 1.996 1.454 3.716 2.584 4.96 1.13-1.244 2.022-2.964 2.584-4.959-.833-.149-1.7-.226-2.584-.226zm-4.046.568c-1.204.351-2.31.86-3.265 1.504 1.389 1.488 3.225 2.551 5.295 2.975-.871-1.266-1.561-2.79-2.03-4.48zm8.092-.001c-.47 1.689-1.159 3.214-2.03 4.48 2.07-.424 3.906-1.487 5.295-2.974l.293.204c-1.018-.74-2.228-1.321-3.558-1.71zm-12.3-10.964l-.056.083C8.623 14.026 8 15.941 8 18c0 2.097.645 4.043 1.748 5.65l-.235.164c1.18-.859 2.575-1.523 4.1-1.96-.238-1.23-.363-2.525-.363-3.854 0-1.328.125-2.624.362-3.854-1.424-.407-2.736-1.014-3.865-1.793zm16.505-.004l.178-.124c-1.168.84-2.542 1.49-4.041 1.92.237 1.23.362 2.526.362 3.855 0 1.329-.125 2.625-.362 3.855 1.424.408 2.735 1.014 3.865 1.794C27.355 22.043 28 20.097 28 18s-.646-4.044-1.749-5.651zm-5.325 2.137l-.085.016c-.92.163-1.873.248-2.844.248-1 0-1.98-.09-2.923-.262-.212 1.117-.324 2.298-.324 3.512s.112 2.395.324 3.513C16.019 21.34 17 21.25 18 21.25c1 0 1.98.09 2.925.262.213-1.117.325-2.298.325-3.512 0-1.215-.113-2.396-.324-3.514zM18 8.064l-.204.233c-1.034 1.222-1.853 2.854-2.38 4.727.833.15 1.698.226 2.58.226.886 0 1.753-.077 2.587-.225-.56-1.996-1.453-3.716-2.583-4.96zm-2.016.14l-.164.034c-2.003.446-3.78 1.492-5.132 2.94l-.295-.205c1.019.741 2.23 1.322 3.56 1.711.47-1.69 1.16-3.215 2.03-4.48zm4.032 0l.18.268c.786 1.21 1.414 2.64 1.85 4.21 1.203-.352 2.31-.861 3.264-1.505-1.39-1.488-3.225-2.55-5.294-2.974z"/>
</svg>
