<svg xmlns="http://www.w3.org/2000/svg" width="36" height="36" viewBox="0 0 36 36">
    <path fill-rule="evenodd" d="M18 0c9.94 0 18 8.059 18 18 0 9.94-8.06 18-18 18-9.941 0-18-8.06-18-18C0 8.059 8.059 0 18 0zm10.927 22.734v-2h-22v2H13l-3.126 1.519.81 2.43c.408 1.225 1.555 2.051 2.846 2.051h7.94c1.29 0 2.437-.826 2.846-2.05l1.316-3.95h3.295zm-6.78-14.616c-.139.17-.326.437-.512.78-.327.602-.528 1.221-.528 1.854 0 1.03.25 1.625.87 2.434l.15.19c.428.536.557.773.577 1.23l.003.15c-.001.248-.103.569-.279.905-.115.22-.23.391-.294.472-.34.435-.265 1.063.17 1.404.435.341 1.063.265 1.404-.17.133-.169.313-.437.492-.778.272-.52.453-1.05.497-1.589l.01-.25c0-1.029-.25-1.624-.87-2.433l-.15-.19c-.47-.59-.58-.817-.58-1.375 0-.245.104-.565.286-.9.12-.22.238-.39.303-.47.35-.428.285-1.057-.143-1.407-.428-.349-1.058-.285-1.407.143zm-10.78-.016c-.14.17-.326.437-.512.78-.327.602-.528 1.221-.528 1.854 0 1.03.25 1.625.87 2.433l.15.191c.428.535.557.772.577 1.23l.003.147c0 .25-.102.571-.279.908-.116.22-.23.391-.294.472-.34.434-.265 1.063.17 1.404.434.34 1.062.265 1.404-.17.133-.169.313-.436.492-.778.273-.522.455-1.055.497-1.597l.01-.242c0-1.029-.25-1.624-.87-2.433l-.15-.19c-.47-.59-.58-.817-.58-1.375 0-.245.104-.565.286-.9.12-.22.238-.39.303-.47.349-.428.285-1.058-.143-1.407-.428-.349-1.058-.285-1.407.143zm5.39-2c-.139.17-.326.437-.512.78-.327.602-.528 1.221-.528 1.854 0 1.03.25 1.625.87 2.433l.15.191c.428.535.557.772.577 1.23l.003.147c0 .25-.102.571-.279.908-.115.22-.23.391-.293.472-.341.434-.266 1.063.169 1.404.434.34 1.063.265 1.404-.17.133-.169.313-.436.492-.778.273-.522.455-1.055.498-1.597l.01-.242c0-1.029-.251-1.624-.87-2.433l-.15-.19c-.471-.59-.58-.817-.58-1.375 0-.245.103-.565.285-.9.12-.22.238-.39.303-.47.35-.428.285-1.058-.143-1.407-.428-.349-1.058-.285-1.407.143z"/>
</svg>
