<svg xmlns="http://www.w3.org/2000/svg" width="36" height="36" viewBox="0 0 36 36">
    <path fill-rule="evenodd" d="M36 18c0 9.941-8.059 18-18 18S0 27.941 0 18 8.059 0 18 0s18 8.059 18 18m-22.595 5.109c.569 1.887 1.45 3.58 2.579 4.944-2.338-.468-4.39-1.73-5.86-3.493.957-.596 2.037-1.077 3.2-1.428zm12.471 1.45l-.093.112c-1.464 1.705-3.478 2.924-5.767 3.38 1.13-1.363 2.01-3.055 2.58-4.942 1.193.352 2.3.84 3.28 1.45zM18 22.459c1.075 0 2.127.101 3.134.295-.653 2.13-1.74 3.962-3.134 5.255-1.394-1.293-2.48-3.125-3.136-5.255 1.008-.194 2.06-.295 3.136-.295zm8.752-9.797c.95 1.555 1.498 3.383 1.498 5.338s-.548 3.783-1.498 5.338c-1.133-.716-2.412-1.284-3.789-1.685.243-1.17.37-2.397.37-3.653 0-1.257-.127-2.484-.37-3.655 1.244-.36 2.41-.86 3.458-1.48zm-13.716 1.685l-.032.156c-.221 1.123-.338 2.297-.338 3.497 0 1.257.128 2.484.37 3.654-1.376.4-2.656.968-3.788 1.683C8.298 21.783 7.75 19.955 7.75 18c0-1.955.548-3.783 1.498-5.338 1.132.716 2.412 1.284 3.788 1.685zm8.47.354c.214 1.054.328 2.162.328 3.299s-.114 2.245-.328 3.299c-1.129-.224-2.305-.34-3.506-.34-1.201 0-2.378.116-3.505.339-.215-1.053-.329-2.16-.329-3.298 0-1.137.114-2.245.328-3.299 1.129.224 2.305.34 3.506.34 1.186 0 2.348-.113 3.463-.33zM18 7.991l.225.216c1.286 1.278 2.291 3.024 2.91 5.038-1.007.195-2.059.296-3.135.296-1.075 0-2.127-.101-3.134-.295.618-2.014 1.623-3.761 2.908-5.039L18 7.991zm-2.016-.044c-1.13 1.365-2.01 3.057-2.58 4.944-1.193-.352-2.3-.84-3.28-1.45 1.432-1.718 3.415-2.96 5.677-3.455zm4.032.001c2.339.467 4.39 1.73 5.861 3.493-.98.61-2.088 1.099-3.282 1.451-.557-1.85-1.413-3.51-2.51-4.859z"/>
</svg>
