<svg xmlns="http://www.w3.org/2000/svg" width="36" height="36" viewBox="0 0 36 36">
    <path fill-rule="evenodd" d="M34.002 9.413C35.28 11.916 36 14.757 36 17.769 36 27.838 27.941 36 18 36S0 27.838 0 17.77c0-.419.014-.834.041-1.245l10.913 6.366zM31.83 6.098c.426.518.825 1.06 1.193 1.624L10.954 20.567.313 14.37c.128-.688.294-1.362.496-2.02l10.145 5.909zm-2.95-2.854c.559.43 1.091.891 1.596 1.383L10.954 16 1.493 10.49c.264-.615.561-1.212.889-1.789l8.572 4.99zM25.074 1c.722.313 1.42.672 2.089 1.074l-16.21 9.48-7.574-4.42c.391-.551.812-1.08 1.26-1.582l6.315 3.677z"/>
</svg>
