<svg xmlns="http://www.w3.org/2000/svg" width="36" height="36" viewBox="0 0 36 36">
    <path fill-rule="evenodd" d="M18 0c9.941 0 18 8.059 18 18s-8.059 18-18 18S0 27.941 0 18 8.059 0 18 0zm3 8h-7c-1.104 0-2 .896-2 2v16h-2c-.552 0-1 .448-1 1s.448 1 1 1h15c.552 0 1-.448 1-1s-.448-1-1-1h-2v-2h1c2.21 0 4-1.79 4-4v-4.117c0-.688-.181-1.363-.523-1.955l-.126-.202c-.02-.04-.044-.079-.07-.117l-1.433-2.155c-.383-.575-1.159-.73-1.733-.348-.575.382-.731 1.158-.349 1.733l1.434 2.155c.185.278.463.458.764.526.024.118.036.24.036.363V20c0 1.105-.895 2-2 2h-1V10c0-1.054-.816-1.918-1.85-1.995L21 8zm0 1c.552 0 1 .447 1 1v6c0 .553-.448 1-1 1h-7c-.552 0-1-.447-1-1v-6c0-.553.448-1 1-1h7zm-2.758 1H14v3.535l1.414-2.12L18.242 10z"/>
</svg>
