<svg xmlns="http://www.w3.org/2000/svg" width="36" height="36" viewBox="0 0 36 36">
    <path fill-rule="evenodd" d="M20.536 21.3l.258.129.15-.155 1.101-1.107c1.021-1.021 2.446-1.064 3.498-.128l.135.127 1.828 1.818.678.687c1.043 1.042 1.086 2.467.13 3.541l-.13.138-.9.887-.21.216-.094.1-.179.2c-.83.915-1.9 1.3-3.184 1.241-1.377-.067-2.709-.479-4.2-1.211-2.804-1.368-5.224-3.262-7.224-5.648-1.59-1.855-2.783-3.807-3.555-5.901-.476-1.29-.695-2.383-.626-3.526.06-.93.433-1.728 1.113-2.38l.157-.15 1.281-1.269.249-.237c1.054-.937 2.48-.894 3.5.127l1.263 1.263 1.009 1.001.344.36c.932 1.043.932 2.373.013 3.405l-.25.264-.497.5-.64.622c.267.533.615 1.052 1.071 1.613 1.106 1.365 2.319 2.481 3.635 3.321l.175.1.101.053zm-7.638-11.087c-.284-.284-.523-.284-.822.015l-.236.23-.992.985-.341.331c-.317.304-.47.634-.499 1.06-.05.82.118 1.654.506 2.707.686 1.86 1.756 3.61 3.205 5.3 1.826 2.18 4.024 3.9 6.577 5.146 1.27.622 2.352.957 3.416 1.01.717.032 1.204-.143 1.595-.573.202-.233.394-.435.675-.714l.788-.774c.307-.306.307-.544-.009-.86l-.495-.503-2.001-1.992c-.284-.284-.521-.284-.807.002l-.942.946-.604.62c-.446.447-1.015.56-1.591.274l-.634-.31-.246-.13-.233-.134c-1.53-.976-2.902-2.238-4.136-3.762-.676-.831-1.174-1.62-1.553-2.52-.205-.542-.093-1.068.324-1.481l.73-.705.455-.45.136-.139.292-.303c.227-.26.226-.456-.014-.727l-.285-.298-2.259-2.25z"/>
</svg>
