<svg xmlns="http://www.w3.org/2000/svg" width="36" height="36" viewBox="0 0 36 36">
    <path fill-rule="evenodd" d="M18 0c9.941 0 18 8.059 18 18s-8.059 18-18 18S0 27.941 0 18 8.059 0 18 0zm2 7h-4c-1.656 0-3 1.344-3 3v1h-3c-1.054 0-1.918.816-1.995 1.85L8 13v11c0 1.104.896 2 2 2h16c1.104 0 2-.896 2-2V13c0-1.104-.896-2-2-2h-3v-1c0-1.656-1.344-3-3-3zm-5.707 8.293c.39-.39 1.024-.39 1.414 0L18 17.585l2.293-2.292c.36-.36.928-.388 1.32-.083l.094.083c.39.39.39 1.024 0 1.414L19.415 19l2.292 2.293c.36.36.388.928.083 1.32l-.083.094c-.39.39-1.024.39-1.414 0L18 20.415l-2.293 2.292c-.36.36-.928.388-1.32.083l-.094-.083c-.39-.39-.39-1.024 0-1.414L16.585 19l-2.292-2.293c-.36-.36-.388-.928-.083-1.32zM20 9c.552 0 1 .448 1 1v1h-6v-1c0-.552.448-1 1-1h4z"/>
</svg>
