<svg xmlns="http://www.w3.org/2000/svg" width="36" height="36" viewBox="0 0 36 36">
    <path fill-rule="evenodd" d="M27 23.057c.552 0 1 .448 1 1s-.448 1-1 1H14c-.552 0-1-.448-1-1s.448-1 1-1zm-17.984-.114c.552 0 1 .448 1 1s-.448 1-1 1h-.062c-.553 0-1-.448-1-1s.447-1 1-1zM27 17.057c.552 0 1 .448 1 1s-.448 1-1 1H14c-.552 0-1-.448-1-1s.448-1 1-1zM9.016 17c.552 0 1 .448 1 1s-.448 1-1 1h-.062c-.553 0-1-.448-1-1s.447-1 1-1zM27 11.057c.552 0 1 .448 1 1s-.448 1-1 1H14c-.552 0-1-.448-1-1s.448-1 1-1zm-17.984 0c.552 0 1 .448 1 1s-.448 1-1 1h-.062c-.553 0-1-.448-1-1s.447-1 1-1z"/>
</svg>
