<svg xmlns="http://www.w3.org/2000/svg" width="36" height="36" viewBox="0 0 36 36">
    <path fill-rule="evenodd" d="M27 15c.552 0 1 .448 1 1v11c0 1.656-1.344 3-3 3H11c-1.656 0-3-1.344-3-3V16c0-.552.448-1 1-1s1 .448 1 1v11c0 .552.448 1 1 1h14c.552 0 1-.448 1-1V16c0-.552.448-1 1-1zm-11.061.213l.532.532c.174.175.349.34.514.513.302.303.302.66 0 .963-.211.22-.431.43-.651.642-.055.055-.065.1-.037.174.147.349.348.652.587.945.467.578 1.008 1.09 1.64 1.495.138.082.285.146.432.219.074.037.119.028.183-.036.21-.22.432-.44.65-.66.286-.285.653-.285.937 0 .348.348.706.696 1.054 1.054.294.294.294.66 0 .954-.202.202-.412.394-.596.605-.275.303-.614.403-1.008.385-.57-.028-1.101-.22-1.605-.468-1.128-.55-2.1-1.311-2.907-2.274-.605-.706-1.1-1.485-1.421-2.356-.156-.422-.266-.853-.238-1.312.018-.284.128-.522.339-.724.22-.211.44-.44.66-.651.284-.284.65-.284.935 0zm1.536-10.064c.322-.199.728-.199 1.05 0L26 9.758V7c0-.513.386-.936.883-.993L27 6c.552 0 1 .448 1 1v3.99l2.525 1.559c.436.269.594.82.382 1.273l-.056.103c-.29.47-.906.616-1.376.326L18 7.175 6.525 14.25c-.47.29-1.086.144-1.376-.326-.29-.47-.144-1.086.326-1.376z"/>
</svg>
