<svg xmlns="http://www.w3.org/2000/svg" width="36" height="36" viewBox="0 0 36 36">
    <path fill-rule="evenodd" d="M13.142 8.049c-1.767.571-3.37 1.54-4.696 2.867-4.595 4.594-4.595 12.044 0 16.638 4.595 4.596 12.044 4.596 16.638 0 1.327-1.326 2.296-2.93 2.868-4.696.25-.776-.483-1.51-1.259-1.26-3.47 1.12-7.295.24-9.913-2.378-2.618-2.618-3.498-6.444-2.378-9.913.25-.776-.484-1.51-1.26-1.258zm-1.102 2.645l-.036.279c-.405 3.504.774 7.073 3.362 9.661l.246.239c2.565 2.422 6.02 3.516 9.416 3.123l.278-.036-.122.218c-.415.711-.921 1.37-1.514 1.962-3.813 3.814-9.996 3.814-13.81 0s-3.814-9.996 0-13.81c.592-.592 1.25-1.099 1.962-1.514l.218-.122zM28 12.125c.446 0 .814.334.868.765l.007.11v1.125H30c.483 0 .875.392.875.875 0 .446-.334.814-.765.868l-.11.007h-1.126L28.875 17c0 .483-.392.875-.875.875-.446 0-.814-.334-.868-.765l-.007-.11v-1.125H26c-.483 0-.875-.392-.875-.875 0-.446.334-.814.765-.868l.11-.007h1.124L27.125 13c0-.483.392-.875.875-.875zm-6-8c.446 0 .814.334.868.765l.007.11v1.125H24c.483 0 .875.392.875.875 0 .446-.334.814-.765.868l-.11.007h-1.126L22.875 9c0 .483-.392.875-.875.875-.446 0-.814-.334-.868-.765L21.125 9V7.875H20c-.483 0-.875-.392-.875-.875 0-.446.334-.814.765-.868l.11-.007h1.124L21.125 5c0-.483.392-.875.875-.875z"/>
</svg>
