<svg xmlns="http://www.w3.org/2000/svg" width="36" height="36" viewBox="0 0 36 36">
    <path fill-rule="evenodd" d="M18 0c9.941 0 18 8.059 18 18s-8.059 18-18 18S0 27.941 0 18 8.059 0 18 0zm-5 13.31h-3c-1.731 0-3.205 1.1-3.762 2.639h-2.2c-.572 0-1.035.463-1.035 1.034 0 .572.463 1.035 1.034 1.035H6v2.672c0 2.209 1.79 4 4 4h3c2.21 0 4-1.791 4-4v-2.725h2v2.725c0 2.209 1.79 4 4 4h3c2.21 0 4-1.791 4-4v-2.725h1.966c.57 0 1.034-.463 1.034-1.034s-.463-1.034-1.034-1.034h-2.223c-.571-1.512-2.032-2.587-3.743-2.587h-3c-1.711 0-3.172 1.075-3.743 2.587h-2.514c-.571-1.512-2.032-2.587-3.743-2.587zM25.5 15c-1.947.974-3.526 2.553-4.5 4.5V16l.007-.117c.057-.497.48-.883.993-.883zm-13 0c-1.947.974-3.526 2.553-4.5 4.5V16l.007-.117c.057-.497.48-.883.993-.883z"/>
</svg>
