<svg xmlns="http://www.w3.org/2000/svg" width="36" height="36" viewBox="0 0 36 36">
    <path fill-rule="evenodd" d="M15.984 6.296l-2.748 5.823c-.04.084-.109.137-.18.148l-6.143.933c-1.836.28-2.55 2.577-1.251 3.9l4.445 4.533c.068.07.102.178.084.286l-1.05 6.4c-.305 1.863 1.609 3.317 3.268 2.406l5.496-3.022c.06-.034.13-.034.191 0l5.494 3.022c1.66.912 3.574-.543 3.268-2.406l-1.05-6.4c-.017-.108.016-.216.084-.286l4.446-4.532c1.299-1.324.585-3.621-1.25-3.9l-6.145-.934c-.07-.011-.139-.063-.179-.147l-2.748-5.824c-.816-1.728-3.217-1.728-4.032 0zm2.224.854l2.747 5.823c.32.68.95 1.159 1.687 1.271l6.145.933c.198.03.297.346.123.523l-4.445 4.533c-.517.527-.75 1.277-.63 2.01l1.05 6.4c.041.256-.171.417-.33.329l-5.496-3.022c-.662-.363-1.456-.363-2.117 0l-5.496 3.022c-.16.088-.373-.073-.33-.329l1.049-6.4c.12-.733-.113-1.483-.63-2.01L7.09 15.7c-.174-.177-.076-.492.124-.523l6.142-.933c.737-.112 1.367-.59 1.689-1.27l2.747-5.825c.094-.199.321-.199.416 0z"/>
</svg>
