<svg xmlns="http://www.w3.org/2000/svg" width="36" height="36" viewBox="0 0 36 36">
    <path fill-rule="evenodd" d="M9.121 22.55l5.158 5.157c.36.36.927.388 1.32.083l.093-.083L16.4 27l1.415 1.414-.707.707c-1.125 1.125-2.92 1.17-4.099.135l-.144-.135-5.157-5.156 1.414-1.414zm17.522-5.036l4.242 4.244-6.95 6.948c-1.123 1.127-2.92 1.172-4.099.136l-.144-.135-8.364-8.364 1.415-1.414 6.242 6.242 7.658-7.657zm-.001 2.828l-6.243 6.243.708.708c.36.36.927.389 1.32.083l.094-.083 5.535-5.536-1.414-1.415zM15.635 7.688l.144.135 8.363 8.364-1.415 1.414-6.242-6.243-7.656 7.657-4.244-4.243 6.95-6.95c1.125-1.124 2.92-1.17 4.1-.134zm-2.591 1.466l-.094.083-5.537 5.534 1.415 1.415 6.243-6.242-.706-.707c-.361-.36-.929-.389-1.321-.083zm9.419-1.88l.144.134 5.157 5.157-1.414 1.414-5.157-5.156c-.361-.361-.928-.389-1.32-.083l-.095.083-.708.707-1.413-1.415.707-.706c1.124-1.125 2.92-1.17 4.099-.136z"/>
</svg>
