<svg xmlns="http://www.w3.org/2000/svg" width="36" height="36" viewBox="0 0 36 36">
    <path fill-rule="evenodd" d="M12.923 8C15.113 8 17 9.823 17 12c0 2.183-1.817 4-4 4h-2.01l.002 1.15H13c.433 0 .79.324.843.743l.007.107c0 .47-.38.85-.85.85h-2.003L11 19.997c.001.513-.383.937-.88.996l-.117.007c-.553.002-1.001-.445-1.003-.997l-.003-1.153H8c-.433 0-.79-.324-.843-.743L7.15 18c0-.47.38-.85.85-.85h.992L8.989 16H8c-.552 0-1-.448-1-1s.448-1 1-1h.984L8.97 9.003C8.968 8.449 9.417 8 9.97 8zm0 2h-1.95l.01 4H13c1.079 0 2-.921 2-2 0-1.057-.976-2-2.077-2zm.894 18.577l12-17c.318-.452.21-1.075-.24-1.394-.452-.318-1.075-.21-1.394.24l-12 17c-.318.452-.21 1.075.24 1.394.452.318 1.075.21 1.394-.24zM26 20c.552 0 1 .448 1 1v2h2c.513 0 .936.386.993.883L30 24c0 .552-.448 1-1 1h-2v2c0 .513-.386.936-.883.993L26 28c-.552 0-1-.448-1-1v-2h-2c-.513 0-.936-.386-.993-.883L22 24c0-.552.448-1 1-1h2v-2c0-.513.386-.936.883-.993z"/>
</svg>
