<svg xmlns="http://www.w3.org/2000/svg" width="36" height="36" viewBox="0 0 36 36">
    <path fill-rule="evenodd" d="M15.155 4.773c3.731-1.017 7.579 1.18 8.597 4.91l.526 1.93c.146.533-.169 1.082-.701 1.228-.533.145-1.083-.17-1.228-.702l-.526-1.929c-.728-2.664-3.476-4.234-6.141-3.507-2.664.726-4.234 3.475-3.508 6.14l.59 2.157H25c1.656 0 3 1.344 3 3v10c0 1.656-1.344 3-3 3H11c-1.656 0-3-1.344-3-3V18c0-1.553 1.181-2.831 2.694-2.985l-.45-1.646c-1.017-3.73 1.182-7.578 4.911-8.596zM25 17H11c-.552 0-1 .448-1 1v10c0 .552.448 1 1 1h14c.552 0 1-.448 1-1V18c0-.552-.448-1-1-1zm-8 5v2c0 .552.448 1 1 1s1-.448 1-1v-2c0-.552-.448-1-1-1s-1 .448-1 1z"/>
</svg>
