<svg xmlns="http://www.w3.org/2000/svg" width="36" height="36" viewBox="0 0 36 36">
    <path fill-rule="evenodd" d="M20 29c.552 0 1 .448 1 1s-.448 1-1 1h-4c-.552 0-1-.448-1-1s.448-1 1-1h4zm-.988-22c3.754 0 6.536 2.444 6.536 6v4c0 .247.058.533.187.936l.128.376.078.212 2.438 3.392C29.84 24.07 28.582 27 26.057 27H9.954c-2.523 0-3.781-2.93-2.338-5.06l2.495-3.523c.26-.7.353-1.058.353-1.417v-4c0-3.557 2.781-6 6.535-6zm0 2H17c-2.702 0-4.535 1.61-4.535 4v4c0 .583-.103 1.055-.356 1.776l-.215.586-2.633 3.716C8.68 23.937 9.135 25 9.954 25h16.103c.82 0 1.276-1.063.682-1.94l-2.577-3.583-.14-.375c-.329-.894-.474-1.461-.474-2.102v-4c0-2.39-1.833-4-4.536-4zM18 11c.552 0 1 .448 1 1s-.448 1-1 1h-1c-.673 0-1 .326-1 1v3c0 .552-.448 1-1 1s-1-.448-1-1v-3c0-1.78 1.224-3 3-3h1z"/>
</svg>
