<svg xmlns="http://www.w3.org/2000/svg" width="36" height="36" viewBox="0 0 36 36">
    <path fill-rule="evenodd" d="M20 22c.334 0 .647.167.832.445l2 3c.264.397.212.925-.125 1.262l-4 4c-.39.39-1.024.39-1.414 0l-4-4c-.337-.337-.39-.865-.125-1.262l2-3c.185-.278.498-.445.832-.445h4zm-.535 2h-2.93l-1.248 1.873L18 28.586l2.713-2.713L19.465 24zm-2.495-6.04l.117.002c.303.025.608.038.922.038.271 0 .541-.01.81-.03.55-.04 1.03.373 1.07.924.04.55-.373 1.03-.924 1.07-.316.024-.635.036-.955.036-.37 0-.729-.015-1.087-.044-.55-.045-.96-.528-.915-1.079.046-.55.528-.96 1.079-.915zm5.961-1.124c.494-.248 1.095-.05 1.343.444s.048 1.095-.445 1.343c-.607.305-1.237.561-1.885.768-.526.167-1.089-.124-1.256-.65-.167-.527.124-1.089.65-1.256.548-.175 1.08-.392 1.593-.65zm-11.317.375c.254-.491.857-.684 1.347-.43.51.263 1.04.486 1.587.666.524.174.81.74.636 1.264-.173.524-.739.809-1.263.636-.646-.214-1.274-.478-1.877-.789-.49-.253-.683-.857-.43-1.347zm14.713-3.023c.36-.418.992-.464 1.41-.103.418.361.464.993.103 1.41-.444.514-.927.993-1.445 1.431-.422.357-1.053.305-1.41-.117-.356-.421-.304-1.052.118-1.41.438-.37.848-.776 1.224-1.21zm-18.14-.209c.42-.357 1.052-.304 1.408.118.372.44.777.849 1.211 1.225.418.361.464.993.102 1.41-.361.418-.992.464-1.41.102-.513-.444-.992-.927-1.43-1.446-.356-.421-.304-1.052.118-1.409zm20.263-3.535c.173-.525.738-.81 1.263-.637.524.173.81.738.637 1.263-.213.646-.476 1.273-.787 1.876-.253.491-.856.684-1.347.431-.491-.252-.684-.855-.431-1.346.263-.51.485-1.04.665-1.587zm-22.199-.79c.527-.166 1.089.126 1.255.653.172.549.388 1.082.644 1.595.246.495.046 1.095-.449 1.341-.494.247-1.094.046-1.34-.448-.304-.608-.559-1.238-.763-1.888-.166-.526.127-1.088.653-1.254zM30 6c.552 0 1 .448 1 1 0 .36-.015.722-.044 1.082-.045.55-.528.96-1.079.915-.55-.045-.96-.528-.915-1.079.025-.305.038-.612.038-.918 0-.552.448-1 1-1zM6 6c.552 0 1 .447 1 1 0 .306.013.612.038.918.045.55-.365 1.033-.915 1.078-.55.045-1.034-.365-1.079-.915C5.014 7.721 5 7.361 5 7c0-.553.448-1 1-1z"/>
</svg>
