<svg xmlns="http://www.w3.org/2000/svg" width="36" height="36" viewBox="0 0 36 36">
    <path fill-rule="evenodd" d="M36 18c0 9.941-8.059 18-18 18S0 27.941 0 18 8.059 0 18 0s18 8.059 18 18M18 6c.552 0 1 .448 1 1v.955c5.106.503 9.094 4.808 9.094 10.045 0 .552-.448 1-1 1L19 18.999v7.02c0 1.332-1.027 2.393-2.335 2.476l-.165.005c-1.394 0-2.521-1.013-2.521-2.458 0-.552.448-1 1-1s1 .448 1 1l.007.092c.036.233.217.366.514.366.29 0 .5-.207.5-.48v-7.021L8.906 19c-.552 0-1-.448-1-1 0-5.237 3.989-9.543 9.094-10.045V7c0-.552.448-1 1-1zm5.96 8.848c-.448-.674-.93-1.324-1.54-1.86-.592-.547-1.226-1.06-1.933-1.466-.689-.44-1.436-.787-2.247-1.085.911-.373 1.917-.292 2.813-.007.9.297 1.727.806 2.393 1.486.67.672 1.225 1.492 1.507 2.42.291.913.334 1.952-.092 2.81-.162-.847-.479-1.607-.902-2.298z"/>
</svg>
