<svg xmlns="http://www.w3.org/2000/svg" width="36" height="36" viewBox="0 0 36 36">
    <path fill-rule="evenodd" d="M18 0c9.941 0 18 8.059 18 18s-8.059 18-18 18S0 27.941 0 18 8.059 0 18 0zm7 7H11c-1.104 0-2 .896-2 2v18c0 1.104.896 2 2 2h14c1.104 0 2-.896 2-2V9c0-1.104-.896-2-2-2zM13.25 21.5c.69 0 1.25.56 1.25 1.25S13.94 24 13.25 24 12 23.44 12 22.75s.56-1.25 1.25-1.25zm9.5 0c.69 0 1.25.56 1.25 1.25S23.44 24 22.75 24s-1.25-.56-1.25-1.25.56-1.25 1.25-1.25zm-4.75 0c.69 0 1.25.56 1.25 1.25S18.69 24 18 24s-1.25-.56-1.25-1.25.56-1.25 1.25-1.25zm6-6.519v2H12v-2h12zM24 11v2H12v-2h12z"/>
</svg>
