<svg xmlns="http://www.w3.org/2000/svg" width="36" height="36" viewBox="0 0 36 36">
    <path fill-rule="evenodd" d="M36 18c0 9.941-8.059 18-18 18S0 27.941 0 18 8.059 0 18 0s18 8.059 18 18M13.546 7.001l.116.013c.545.09.913.605.822 1.15L13.513 14h8.971l-.97-5.836c-.085-.506.227-.986.708-1.125l.114-.025c.545-.091 1.06.277 1.15.822l.998 6c.01.055.014.11.014.164H29v4h-1.571L26 28H10l-1.134-7.937L13 18H7v-4h4.5c0-.054.004-.109.014-.164l.998-6c.09-.545.605-.913 1.15-.822zM14 22h8c.552 0 1-.448 1-1s-.448-1-1-1h-8c-.552 0-1 .448-1 1s.448 1 1 1zm0 4h8c.552 0 1-.448 1-1s-.448-1-1-1h-8c-.552 0-1 .448-1 1s.448 1 1 1z"/>
</svg>
