<svg xmlns="http://www.w3.org/2000/svg" width="36" height="36" viewBox="0 0 36 36">
    <path fill-rule="evenodd" d="M9.684 17.051c2.152-.717 4.48-.717 6.632 0 .409.136.684.519.684.949v5.177c.918.127 1.854.079 2.758-.147.535-.134 1.078.192 1.212.728.134.535-.192 1.078-.728 1.212-1.472.368-3.012.368-4.484 0C15.312 24.86 15 24.46 15 24v-5.248c-1.314-.318-2.686-.318-4 0v3.509C11 25.976 14.112 29 17.966 29l.274-.004c3.75-.123 6.76-3.105 6.76-6.735V22c0-.552.448-1 1-1s1 .448 1 1v.261C27 27.089 22.95 31 18 31l-.298-.004C12.878 30.86 9 27.008 9 22.261V18c0-.43.275-.813.684-.949zM18 6c4.964 0 9 3.86 9 8.685V18c0 .684-.672 1.166-1.32.947-1.578-.532-3.282-.532-4.86 0-.523.177-1.09-.104-1.267-.627-.177-.523.104-1.09.627-1.267 1.56-.527 3.218-.642 4.82-.344v-2.024C25 10.985 21.879 8 18 8c-3.633 0-6.677 2.67-7.005 6.095-.052.55-.54.953-1.09.9-.55-.052-.953-.54-.9-1.09C9.432 9.437 13.35 6 18 6z"/>
</svg>
