<svg xmlns="http://www.w3.org/2000/svg" width="36" height="36" viewBox="0 0 36 36">
    <path fill-rule="evenodd" d="M24 7c1.105 0 2 .896 2 2v18c0 1.104-.895 2-2 2H14c-.552 0-1-.448-1-1s.448-1 1-1h10V9H14c-.552 0-1-.448-1-1s.448-1 1-1zm-9.646 4.29c.392-.39 1.026-.386 1.414.006l5.942 6c.386.39.386 1.018 0 1.408l-5.942 6c-.388.392-1.022.395-1.414.007-.392-.39-.396-1.022-.007-1.415L19.592 18l-5.245-5.296c-.389-.393-.385-1.026.007-1.415zm-4.02 2c.393-.39 1.026-.386 1.415.006l3.962 4c.386.39.386 1.018 0 1.408l-3.962 4c-.39.392-1.022.395-1.415.006-.392-.388-.395-1.021-.006-1.414L12.6 19H7c-.513 0-.936-.386-.993-.883L6 18c0-.552.448-1 1-1h5.602l-2.274-2.296c-.36-.362-.384-.93-.077-1.32z"/>
</svg>
