<svg xmlns="http://www.w3.org/2000/svg" width="36" height="36" viewBox="0 0 36 36">
    <path fill-rule="evenodd" d="M16.983 10.079c-.036-2.755 3-4.506 5.356-3.087l.175.113.174-.11c2.414-1.441 5.523.43 5.338 3.286l-.004.034.054.026c2.572 1.314 2.564 5.033-.015 6.336l-.053.024.003.034c.174 2.916-3.079 4.79-5.503 3.168l-.024-.017-.172.11c-.83.496-1.742.6-2.574.406l-4.215 6.634-.03.042c-.207.397-.477.77-.811 1.104-1.758 1.758-4.607 1.758-6.364 0C7.439 27.303 7 26.152 7 25V11c0-.552.448-1 1-1 .513 0 .936.386.993.883L9 11v10.257c1.749-1.17 4.137-.984 5.682.561.402.402.712.861.93 1.351l2.376-3.741c-.672-.674-1.085-1.624-1.014-2.718l.002-.035-.052-.025c-2.573-1.314-2.564-5.034.015-6.335l.053-.025zm-3.715 13.153c-.977-.976-2.56-.976-3.536 0-.976.977-.976 2.56 0 3.536s2.56.976 3.536 0 .976-2.56 0-3.536zM21.448 8.8c-1.083-.8-2.598.073-2.455 1.422l.061.582c.045.432-.194.844-.591 1.02l-.534.235c-1.235.543-1.24 2.303-.007 2.852l.533.238c.397.178.634.59.586 1.023l-.064.582c-.149 1.347 1.363 2.227 2.45 1.432l.47-.344c.353-.258.833-.257 1.184.003l.47.347c1.083.8 2.6-.075 2.457-1.421l-.062-.581c-.046-.433.193-.846.592-1.022l.534-.235c1.234-.543 1.239-2.304.007-2.853l-.533-.237c-.398-.177-.635-.59-.588-1.023l.064-.583c.15-1.347-1.361-2.228-2.449-1.432l-.47.344c-.353.257-.832.257-1.183-.002z"/>
</svg>
