<svg xmlns="http://www.w3.org/2000/svg" width="36" height="36" viewBox="0 0 36 36">
    <path fill-rule="evenodd" d="M21.757 7.03c.536-.134 1.08.192 1.213.727l1.31 5.24 3.72.001c.615 0 1.084.55.987 1.157l-2.222 14.002c-.077.485-.495.843-.987.843H10.222c-.492 0-.91-.358-.988-.843L7.012 14.155c-.096-.607.373-1.157.988-1.157h3.72l1.31-5.24c.124-.498.601-.814 1.098-.75l.115.022c.535.134.861.677.727 1.213l-1.19 4.755h8.439l-1.19-4.755c-.124-.498.148-1.002.617-1.178zm5.072 7.968H9.17L11.076 27h13.848l1.905-12.002zM13.499 20h9.002c.552 0 1-.448 1-1s-.448-1-1-1h-9.002c-.552 0-1 .448-1 1s.448 1 1 1zm0 4h9.002c.552 0 1-.448 1-1s-.448-1-1-1h-9.002c-.552 0-1 .448-1 1s.448 1 1 1z"/>
</svg>
