<svg xmlns="http://www.w3.org/2000/svg" width="36" height="36" viewBox="0 0 36 36">
    <path fill-rule="evenodd" d="M11 29c0 .552-.448 1-1 1s-1-.448-1-1V8c0-.552.448-1 1-1h3.138c1.086 0 2.148.322 3.05.924l2.233 1.488c.574.383 1.25.588 1.941.588H28c.552 0 1 .448 1 1v14c0 .552-.448 1-1 1h-7.638c-1.086 0-2.148-.322-3.05-.924l-2.233-1.488c-.574-.383-1.25-.588-1.941-.588H11zm16-17h-6.638c-1.086 0-2.148-.322-3.05-.924l-2.233-1.488C14.505 9.205 13.829 9 13.138 9H11v12h2.138c1.086 0 2.148.322 3.05.924l2.233 1.488c.574.383 1.25.588 1.941.588H27V12z"/>
</svg>
