<svg xmlns="http://www.w3.org/2000/svg" width="36" height="36" viewBox="0 0 36 36">
    <path fill-rule="evenodd" d="M26 5c1.652 0 3 1.348 3 3v18c0 1.652-1.348 3-3 3h-3v2c0 .738-.765 1.209-1.413.911l-.101-.054L16.723 29H10c-1.594 0-2.903-1.253-2.995-2.824L7 26V8c0-1.653 1.347-3 3-3zm0 2H10c-.548 0-1 .452-1 1v18c0 .548.452 1 1 1h7c.181 0 .36.05.515.143L21 29.234V28c0-.513.386-.936.884-.993L22 27h4c.548 0 1-.452 1-1V8c0-.548-.452-1-1-1zm-2.976 13.963c.552 0 1 .448 1 1 0 .513-.386.936-.884.994l-.116.006h-7c-.553 0-1-.447-1-1 0-.512.386-.935.883-.993l.117-.007h7zm-9.985-.114c.553 0 1 .448 1 1 0 .513-.386.936-.883.993l-.117.007h-.062c-.552 0-1-.448-1-1 0-.513.386-.935.884-.993l.116-.007h.062zm9.985-4.886c.552 0 1 .448 1 1 0 .513-.386.936-.884.994l-.116.006h-7c-.553 0-1-.447-1-1 0-.512.386-.935.883-.993l.117-.007h7zm-9.985-.057c.553 0 1 .448 1 1 0 .513-.386.936-.883.993l-.117.007h-.062c-.552 0-1-.448-1-1 0-.513.386-.935.884-.993l.116-.007h.062zm9.985-4.943c.552 0 1 .448 1 1 0 .513-.386.936-.884.994l-.116.006h-7c-.553 0-1-.447-1-1 0-.512.386-.935.883-.993l.117-.007h7zm-9.985 0c.553 0 1 .448 1 1 0 .513-.386.936-.883.994l-.117.006h-.062c-.552 0-1-.447-1-1 0-.512.386-.935.884-.993l.116-.007h.062z"/>
</svg>
