<svg xmlns="http://www.w3.org/2000/svg" width="36" height="36" viewBox="0 0 36 36">
    <path fill-rule="evenodd" d="M36 18c0 9.941-8.059 18-18 18S0 27.941 0 18 8.059 0 18 0s18 8.059 18 18m-17.932-4.599l3.529 3.529-7.601 7.603c-.94.939-2.213 1.467-3.541 1.467H9v-1.455c0-1.328.528-2.602 1.467-3.541l7.601-7.603zm5.527-4.108l2.112 2.113c.39.391.39 1.025 0 1.416l-2.696 2.694-3.529-3.529 2.696-2.694c.39-.391 1.026-.391 1.417 0zM19 26h7c.552 0 1-.448 1-1s-.448-1-1-1h-7c-.552 0-1 .448-1 1s.448 1 1 1z"/>
</svg>
