<svg xmlns="http://www.w3.org/2000/svg" width="36" height="36" viewBox="0 0 36 36">
    <path fill-rule="evenodd" d="M36 18c0 9.941-8.06 18-18 18-9.941 0-18-8.059-18-18S8.059 0 18 0c9.94 0 18 8.059 18 18M19.415 6.617l9.968 9.969c.78.78.78 2.047 0 2.828l-9.968 9.969c-.782.78-2.048.78-2.83 0l-9.968-9.97c-.781-.78-.781-2.046 0-2.827l9.969-9.97c.78-.78 2.047-.78 2.829 0zm-.654 6.933c-2.958 0-4.42 1.462-4.42 4.743 0 3.586 1.326 4.912 4.42 4.912 1.615 0 2.72-.612 2.72-.612v-2.447c-.426.424-1.344.781-2.21.781-1.615 0-2.312-.696-2.312-2.634 0-1.819.646-2.465 2.142-2.465 1.053 0 1.734.391 2.295.833v-2.618s-1.02-.493-2.635-.493z"/>
</svg>
