<svg xmlns="http://www.w3.org/2000/svg" width="36" height="36" viewBox="0 0 36 36">
    <path fill-rule="evenodd" d="M26.058 8l.071.004L26.2 8c4.082 0 6.586 3.235 6.6 7.352l-.002.253c-.082 3.86-2.302 7.05-5.74 7.507V26c0 1.656-1.344 3-3 3h-10c-1.656 0-3-1.344-3-3v-2.13l-7.451-8.084c-.364-.395-.351-1.007.029-1.386l2.124-2.12c.37-.37.964-.391 1.36-.048l3.938 3.405V9c0-.552.448-1 1-1h14zm1 13.082c2.215-.458 3.68-2.683 3.74-5.52.061-2.885-1.348-5.071-3.74-5.49zm-2-11.082h-12v7.824c0 .856-1.006 1.317-1.654.756l-4.89-4.228-.785.785 7.064 7.665c.17.185.265.427.265.678V26c0 .552.448 1 1 1h10c.552 0 1-.448 1-1V10zm-7.006 3c.552 0 1-.448 1-1s-.448-1-1-1H15c-.552 0-1 .448-1 1v3.518c0 .552.448 1 1 1s1-.448 1-1V13h2.052z"/>
</svg>
