<svg xmlns="http://www.w3.org/2000/svg" width="36" height="36" viewBox="0 0 36 36">
    <path fill-rule="evenodd" d="M17.804 4.995c1.735 0 3.425.351 4.99 1.024 1.522.655 2.903 1.604 4.07 2.79l.685.702c.623.653 1.081 1.21 1.452 1.816L29 8c0-.513.386-.936.883-.993L30 7c.513 0 .936.386.993.883L31 8v6c0 .513-.386.936-.883.993L30 15h-6c-.552 0-1-.448-1-1 0-.513.386-.936.883-.993L24 13h3.634c-.013-.023-.026-.047-.038-.072-.298-.63-.675-1.152-1.282-1.81l-.416-.437-.46-.469c-.986-1.002-2.152-1.804-3.434-2.355-1.317-.566-2.738-.862-4.2-.862-1.462 0-2.882.295-4.2.861-1.283.553-2.449 1.354-3.433 2.356-.987 1.004-1.776 2.192-2.32 3.5C7.291 15.054 7 16.505 7 18c0 1.494.292 2.945.851 4.29.544 1.307 1.333 2.494 2.32 3.497.984 1.002 2.15 1.804 3.433 2.356 1.318.567 2.738.862 4.2.862 1.462 0 2.883-.296 4.2-.862 1.283-.552 2.448-1.353 3.434-2.356.872-.887 1.63-2.146 2.264-3.669.212-.51.797-.751 1.307-.54.51.213.751.798.54 1.308-.724 1.74-1.61 3.21-2.685 4.303-1.166 1.187-2.547 2.136-4.07 2.792-1.565.673-3.255 1.024-4.99 1.024-1.735 0-3.423-.351-4.99-1.025-1.523-.655-2.905-1.605-4.069-2.79-1.166-1.185-2.098-2.588-2.74-4.133C5.345 21.47 5 19.76 5 18c0-1.759.344-3.47 1.005-5.057.642-1.544 1.574-2.947 2.74-4.133 1.164-1.185 2.546-2.135 4.07-2.79 1.566-.674 3.254-1.025 4.989-1.025z"/>
</svg>
