<svg xmlns="http://www.w3.org/2000/svg" width="36" height="36" viewBox="0 0 36 36">
    <path fill-rule="evenodd" d="M27.029 7l.044.003L27 7c.045 0 .09.003.133.009.02.002.039.006.058.01l.052.01c.019.005.038.01.056.017.022.006.043.014.064.022l.031.013c.027.011.053.024.079.037l.025.015c.026.015.051.03.075.048.04.027.077.057.112.09l-.083-.07c.022.017.043.034.063.052l.02.019.008.007c.023.022.043.043.063.066l.02.023.005.007.063.088c.03.046.055.094.076.144.009.02.017.042.025.064l.015.048.017.065.007.039c.01.057.016.116.016.177v12.293c0 3.268-1.772 6.28-4.629 7.867l-4.885 2.714c-.302.168-.67.168-.971 0l-4.886-2.714C9.772 26.573 8 23.561 8 20.293V8c0-.552.448-1 1-1zM26 10.52L12.1 25.291c.441.434.944.812 1.5 1.12l4.4 2.445 4.4-2.444c2.222-1.235 3.6-3.577 3.6-6.119V10.52zM24.684 9H10v11.293c0 1.205.31 2.365.872 3.383L24.684 9z"/>
</svg>
