<svg xmlns="http://www.w3.org/2000/svg" width="36" height="36" viewBox="0 0 36 36">
    <path fill-rule="evenodd" d="M28.835 23.348c.36-.419.992-.466 1.41-.106.42.36.467.99.107 1.41-.146.17-.298.33-.455.478l.682.682c.39.39.39 1.023 0 1.414-.39.39-1.023.39-1.414 0l-.961-.96c-.39.172-.794.296-1.203.373L27 27.848c0 .552-.448 1-1 1s-1-.448-1-1v-1.209c-.408-.077-.812-.201-1.203-.373l-.962.96c-.391.39-1.024.39-1.415 0-.39-.39-.39-1.024.001-1.414l.682-.682c-.157-.149-.309-.308-.455-.478-.36-.42-.312-1.05.107-1.41.419-.36 1.05-.313 1.41.106 1.586 1.846 4.084 1.846 5.67 0zM27 9c1.656 0 3 1.344 3 3v8h-2v-5.179l-10 6.364-10-6.364V25c0 .512.387.935.883.993L9 26h10v2H9c-1.656 0-3-1.344-3-3V12c0-1.656 1.344-3 3-3zm0 2H9c-.552 0-1 .448-1 1v.451l10 6.364 10-6.364V12c0-.512-.387-.935-.883-.993L27 11z"/>
</svg>
