<svg xmlns="http://www.w3.org/2000/svg" width="36" height="36" viewBox="0 0 36 36">
    <path fill-rule="evenodd" d="M18 36C8.059 36 0 27.941 0 18S8.059 0 18 0s18 8.059 18 18-8.059 18-18 18zm-5.806-24.373c.177-.38.56-.627.977-.627h9.658c.417 0 .8.246.974.624l1.584 3.442H10.62l1.573-3.439zm-.53 12.667h12.672v.906c0 .994.807 1.8 1.8 1.8H28.2c.993 0 1.8-.806 1.8-1.8v-6.199c0-1.507-.833-2.844-2.183-3.527l-2.204-4.71C25.108 9.692 24.015 9 22.83 9h-9.658c-1.187 0-2.28.692-2.787 1.767l-2.202 4.707C6.832 16.157 6 17.494 6 19v6.2c0 .994.806 1.8 1.8 1.8h2.063c.993 0 1.8-.806 1.8-1.8v-.906zM11.008 20C10.452 20 10 19.556 10 19c0-.552.443-1 1.009-1h1.982c.557 0 1.01.444 1.01 1 0 .553-.444 1-1.01 1h-1.982zm12 0C22.452 20 22 19.556 22 19c0-.552.443-1 1.009-1h1.982c.557 0 1.01.444 1.01 1 0 .553-.444 1-1.01 1h-1.982zM12.8 12.539l-.8 1.538L17.322 12h-3.634c-.374 0-.716.208-.888.539"/>
</svg>
