<svg xmlns="http://www.w3.org/2000/svg" width="36" height="36" viewBox="0 0 36 36">
    <path fill-rule="evenodd" d="M24.092 4.837c.39-.39 1.024-.39 1.414 0l5.657 5.657c.39.39.39 1.024 0 1.414l-19.799 19.8c-.39.39-1.024.39-1.414 0L4.293 26.05c-.39-.39-.39-1.023 0-1.414zm.707 2.122L23.29 8.466l1.748 1.749c.39.39.39 1.023 0 1.414-.36.36-.928.388-1.32.083l-.094-.083-1.749-1.749-2.074 2.074 1.749 1.75c.39.39.39 1.023 0 1.413-.36.36-.928.389-1.32.083l-.094-.083-1.749-1.748-2.074 2.073 1.749 1.75c.39.39.39 1.023 0 1.414-.36.36-.928.388-1.32.083l-.095-.083-1.748-1.749-2.074 2.074 1.748 1.749c.39.39.39 1.023 0 1.414-.36.36-.927.388-1.32.083l-.094-.083-1.748-1.749-2.074 2.074 1.748 1.749c.39.39.39 1.024 0 1.414-.36.36-.928.388-1.32.083l-.094-.083-1.749-1.749-1.508 1.51 4.243 4.243 18.384-18.385-4.242-4.242z"/>
</svg>
