<svg xmlns="http://www.w3.org/2000/svg" width="36" height="36" viewBox="0 0 36 36">
    <path fill-rule="evenodd" d="M18.147 6.16C18.859 5.44 19.85 5 20.968 5c2.262 0 4.243 1.787 4.243 3.983 0 .552-.448 1-1 1h-2.243V13h1.968C24.919 13 26 11.763 26 10.604V8c0-.754.803-1.237 1.469-.883l1.942 1.034c4.879 3.037 4.729 9.692-.05 12.892l-.234.153-.21.126c-.943.533-1.905.674-3.48.678h-2.029l2.527 6.645c.208.547-.097 1.156-.66 1.317l-7 2c-.18.05-.37.05-.55 0l-7-2c-.563-.161-.868-.77-.66-1.317L12.592 22h-2.03c-1.574-.004-2.536-.145-3.478-.678l-.188-.112-.258-.167c-4.773-3.198-4.898-9.885.046-12.96l1.852-.969C9.202 6.766 10 7.249 10 8v3c0 1.054.977 2 2.064 2h1.968V9.983h-2.243c-.552 0-1-.448-1-1C10.789 6.788 12.771 5 15.032 5c1.112 0 2.104.439 2.818 1.16l.148.158.149-.158zm-1.15 2.703C16.937 7.798 16.11 7 15.032 7c-.79 0-1.511.407-1.913.983h1.913c.552 0 1 .448 1 1V14c0 .552-.448 1-1 1h-2.968C9.887 15 8 13.174 8 11V9.65l-.323.168c-3.612 2.248-3.525 7.145.068 9.56l.207.133.138.081c.57.31 1.247.405 2.474.408h3.478c.7 0 1.184.701.935 1.355l-2.655 6.983L18 29.96l5.678-1.622-2.655-6.983c-.249-.654.235-1.355.935-1.355h3.476c1.229-.003 1.907-.099 2.476-.408l.12-.07.226-.145c3.6-2.418 3.705-7.283.158-9.494L28 9.663v.941C28 12.813 26.087 15 23.936 15h-2.968c-.552 0-1-.448-1-1V8.983c0-.552.448-1 1-1h1.913C22.48 7.407 21.758 7 20.968 7c-1.07 0-1.89.786-1.963 1.832l-.012.284c-.124 1.156-1.862 1.156-1.986 0l-.01-.253z"/>
</svg>
