<svg xmlns="http://www.w3.org/2000/svg" width="36" height="36" viewBox="0 0 36 36">
    <path fill-rule="evenodd" d="M22.553.58c9.618 2.512 15.38 12.345 12.867 21.964-2.512 9.619-12.346 15.379-21.965 12.868C3.837 32.899-1.924 23.066.588 13.447 3.1 3.829 12.934-1.933 22.553.58zM9.02 16.567c-.828-.028-1.522.62-1.55 1.448-.023.683.02 1.362.13 2.03.108.662.279 1.309.51 1.933.226.618.513 1.217.855 1.787.342.57.736 1.104 1.178 1.599.444.496.936.95 1.47 1.357.543.412 1.123.77 1.734 1.07.627.306 1.285.55 1.968.727.514.134 1.036.23 1.56.285.52.054 1.037.07 1.55.049.506-.022 1.012-.082 1.513-.178.499-.096.986-.226 1.46-.391.464-.16.925-.358 1.375-.59.443-.227.87-.487 1.278-.777.26-.184.51-.38.751-.586l1.673 1.672c.143.143.335.219.53.219.097 0 .194-.019.287-.057.28-.116.463-.39.463-.693v-5.386c0-.414-.336-.75-.75-.75h-5.386c-.303 0-.577.183-.693.463-.116.281-.052.603.163.818l1.583 1.583c-.116.094-.236.184-.358.271-.292.208-.597.393-.914.556-.324.167-.651.307-.984.422-.342.119-.688.212-1.043.28-.357.068-.719.11-1.078.126-.364.016-.733.005-1.105-.035-.375-.04-.747-.107-1.118-.204-.492-.128-.96-.302-1.407-.52-.435-.213-.85-.469-1.237-.762-.38-.29-.732-.615-1.048-.969-.317-.354-.599-.736-.843-1.143-.245-.408-.45-.837-.612-1.279-.165-.447-.287-.908-.364-1.381-.078-.475-.109-.958-.092-1.444.028-.828-.62-1.522-1.449-1.55zm8.566-9.491c-.506.022-1.012.081-1.513.177-.499.096-.986.227-1.46.392-.47.161-.93.359-1.378.59-.44.227-.867.487-1.275.777-.272.192-.534.398-.786.616L9.534 7.99c-.143-.144-.335-.22-.53-.22-.097 0-.194.019-.287.057-.28.116-.463.39-.463.693v5.386c0 .414.336.75.75.75h5.386c.303 0 .577-.183.693-.463.116-.28.052-.603-.163-.818l-1.618-1.618c.128-.104.26-.204.394-.3.292-.207.597-.393.914-.556.32-.166.647-.306.983-.421.342-.12.69-.212 1.044-.28.357-.069.718-.112 1.078-.127.363-.016.733-.004 1.109.034.374.04.748.109 1.114.204.491.129.961.303 1.407.521.435.213.85.47 1.237.763.38.289.731.614 1.048.968.318.355.6.737.842 1.142.246.41.451.838.613 1.28.165.447.287.909.364 1.382.078.474.109.957.092 1.443-.028.828.62 1.522 1.448 1.55.828.029 1.522-.62 1.55-1.448.024-.683-.02-1.362-.13-2.03-.108-.661-.278-1.308-.508-1.933-.227-.618-.514-1.216-.856-1.787-.34-.568-.735-1.102-1.178-1.599-.444-.496-.936-.95-1.47-1.357-.543-.412-1.123-.77-1.734-1.069-.626-.306-1.283-.55-1.966-.728-.512-.134-1.031-.228-1.56-.285-.525-.054-1.041-.07-1.552-.048z"/>
</svg>
