<svg xmlns="http://www.w3.org/2000/svg" width="36" height="36" viewBox="0 0 36 36">
    <path fill-rule="evenodd" d="M30.834 30.622c-6.971 7.088-18.367 7.183-25.456.212-7.088-6.971-7.183-18.367-.212-25.455 6.971-7.088 18.367-7.183 25.456-.212 7.087 6.97 7.182 18.367.212 25.455m-12.835-5.553c-.18-.18-.409-.316-.671-.387-.799-.214-1.622.262-1.836 1.06-.105.388-.052.792.15 1.139.2.349.524.596.91.699.799.214 1.622-.261 1.838-1.06.142-.536-.024-1.084-.392-1.451M9.482 17.61c-.388.104-.71.352-.91.699-.202.347-.255.75-.15 1.137.213.8 1.037 1.276 1.836 1.06.388-.102.71-.35.911-.697.2-.347.253-.751.15-1.138-.214-.801-1.039-1.275-1.837-1.061m7.75 2.31c.138-.517.67-.824 1.188-.685.517.139.823.67.686 1.187l-.68 2.539c1.506.705 2.34 2.413 1.895 4.075-.5 1.865-2.422 2.975-4.287 2.474-.6-.16-1.137-.471-1.566-.9-.213-.214-.402-.46-.559-.73-.466-.81-.59-1.752-.348-2.656.378-1.41 1.57-2.39 2.937-2.566zm2.082-10.793c.417-1.556 1.94-2.477 3.345-2.026l-2.163 8.074.014.003-.1.371 1.04-.278 2.751-.738c.047-.012.078-.013.11-.015l4.547-1.218c.446 1.408-.373 2.903-1.8 3.285l-6.203 1.662c-.517.138-1.034-.026-1.393-.372l-.12-.032-5.992 1.606c-.053.473-.204.935-.449 1.36-.468.81-1.223 1.389-2.126 1.63-1.25.336-2.528-.054-3.384-.91-.419-.42-.738-.951-.902-1.564-.242-.903-.118-1.846.35-2.656.431-.748 1.108-1.299 1.92-1.57l.205-.061c1.647-.44 3.337.374 4.055 1.852l4.355-1.167z"/>
</svg>
