<svg xmlns="http://www.w3.org/2000/svg" width="36" height="36" viewBox="0 0 36 36">
    <path fill-rule="evenodd" d="M19 7.201V10h-6c-.552 0-1 .448-1 1s.448 1 1 1h13v17H10V10.524c0-.972.7-1.804 1.658-1.97L19 7.2zM21 10V6c0-.625-.567-1.097-1.181-.983l-8.513 1.568C9.399 6.916 8 8.579 8 10.524V29c0 1.104.895 2 2 2h16c1.105 0 2-.896 2-2V12c0-1.104-.895-2-2-2h-5zm-.512 4.877c-.9 0-1.8.345-2.488 1.034-.688-.689-1.588-1.034-2.489-1.034-1.123 0-2.246.535-2.955 1.606-.929 1.404-.656 3.292.534 4.485l3.601 3.611c.361.362.835.543 1.31.543.472 0 .946-.18 1.307-.543l3.602-3.61c1.19-1.194 1.463-3.082.533-4.486-.709-1.07-1.832-1.606-2.955-1.606m0 2c.52 0 .988.26 1.287.71.383.578.262 1.424-.28 1.968L18 23.06l-3.494-3.504c-.543-.544-.664-1.39-.282-1.968.3-.45.768-.71 1.287-.71.405 0 .786.158 1.073.446L18 18.743l1.416-1.42c.287-.288.668-.446 1.072-.446"/>
</svg>
