<svg xmlns="http://www.w3.org/2000/svg" width="36" height="36" viewBox="0 0 36 36">
    <path fill-rule="evenodd" d="M29 10.112c.513 0 .935.386.993.883l.004.055.002.042V18.04c0 1.891-.536 3.73-1.538 5.323-.934 1.486-2.243 2.713-3.81 3.561l-.34.176-1.632.81c-1.455.72-3.056 1.09-4.674 1.09-1.494 0-2.972-.316-4.336-.93l-.338-.16-1.633-.81c-1.718-.85-3.15-2.146-4.15-3.736-.935-1.487-1.465-3.188-1.531-4.946l-.007-.378V11.11c0-.026.001-.053.004-.08l-.004.091c0-.046.003-.092.01-.137.002-.02.005-.041.01-.062l.011-.05.018-.06c.005-.018.012-.036.018-.053l.022-.052c.011-.024.023-.047.036-.07l.014-.026c.016-.025.032-.05.05-.074.005-.008.01-.016.017-.024.073-.095.162-.176.263-.24l.042-.025.06-.03c.015-.008.03-.014.044-.02l.065-.025.05-.015.06-.015.052-.01.063-.007.055-.004h.062c.02 0 .04 0 .06.002l-.082-.003c.046 0 .092.003.137.01.02.002.041.006.062.01.017.003.034.007.05.012.02.005.04.01.06.017l.053.019.053.022.06.03.035.02c.025.015.05.031.074.048l.024.018c.028.022.054.044.079.067l.009.009.075.07c.05.043.117.101.2.17.237.195.504.391.79.574.782.495 1.554.784 2.229.784.696 0 1.254-.189 2.097-.663l.778-.455.304-.171c.096-.052.187-.099.277-.143 1.188-.582 2.279-.619 3.43.038l.118.071.119-.07c1.091-.623 2.127-.623 3.243-.126l.187.087.277.143.845.489c.98.575 1.574.8 2.334.8.675 0 1.448-.29 2.229-.785.191-.12.374-.249.544-.378l.247-.195.178-.151c.158-.202.396-.34.666-.372l.127-.007zm-10.358 2.56c-.142.114-.313.187-.492.212l-.154.01c-.229 0-.45-.08-.628-.223-.754-.608-1.207-.675-1.892-.372l-.14.065c-.1.05-.207.106-.33.175l-.659.386C13.087 13.665 12.2 14 11 14c-1.011 0-2.014-.34-2.99-.908v4.948c0 1.513.429 2.983 1.232 4.26.746 1.187 1.793 2.171 3.05 2.855l.294.153 1.632.809c1.179.583 2.475.883 3.787.883 1.193 0 2.373-.248 3.462-.731l.324-.152 1.633-.81c1.387-.685 2.539-1.728 3.343-3.008.746-1.186 1.17-2.538 1.226-3.936L28 18.04v-4.948c-.976.568-1.98.908-2.991.908-1.107 0-1.948-.285-3.063-.912l-.813-.475-.247-.14-.11-.057-.102-.052c-.766-.375-1.228-.341-2.032.307zm1.628 1.85c.553 0 1 .448 1 1 0 .394-.228.736-.56.898l-.038.016c-1.608.71-3.427.749-5.059.12l-.323-.136c-.299-.146-.514-.437-.554-.781l-.007-.117c0-.513.387-.936.884-.993l.117-.007c.14 0 .277.029.404.085 1.189.524 2.543.524 3.732 0 .085-.037.174-.063.266-.075l.137-.01z"/>
</svg>
