<svg xmlns="http://www.w3.org/2000/svg" width="36" height="36" viewBox="0 0 36 36">
    <path fill-rule="evenodd" d="M18 5c7.18 0 13 5.82 13 13s-5.82 13-13 13S5 25.18 5 18 10.82 5 18 5zm0 2C11.925 7 7 11.925 7 18s4.925 11 11 11 11-4.925 11-11S24.075 7 18 7zm-4.707 6.293c.39-.39 1.024-.39 1.414 0L18 16.585l3.293-3.292c.36-.36.928-.388 1.32-.083l.094.083c.39.39.39 1.024 0 1.414L19.415 18l3.292 3.293c.36.36.388.928.083 1.32l-.083.094c-.39.39-1.024.39-1.414 0L18 19.415l-3.293 3.292c-.36.36-.928.388-1.32.083l-.094-.083c-.39-.39-.39-1.024 0-1.414L16.585 18l-3.292-3.293c-.36-.36-.388-.928-.083-1.32z"/>
</svg>
