<svg xmlns="http://www.w3.org/2000/svg" width="36" height="36" viewBox="0 0 36 36">
    <path fill-rule="evenodd" d="M14.13 6c.876 0 1.605.57 1.893 1.378l.096.303C16.4 8.461 17.147 9 18 9s1.6-.539 1.882-1.32l.096-.303C20.265 6.57 20.994 6 21.87 6H26c1.656 0 3 1.344 3 3v18c0 1.656-1.344 3-3 3h-4.13c-.876 0-1.605-.57-1.893-1.378l-.096-.303C19.6 27.539 18.853 27 18 27s-1.6.539-1.882 1.32l-.096.303C15.735 29.43 15.006 30 14.13 30H10c-1.656 0-3-1.344-3-3V9c0-1.656 1.344-3 3-3h4.13zM26 8h-4.13l-.072.258C21.263 9.877 19.743 11 18 11c-1.743 0-3.263-1.123-3.797-2.74l-.078-.258L10 8c-.552 0-1 .448-1 1v11h2v2H9v5c0 .552.448 1 1 1h4.13l.072-.258C14.737 26.123 16.257 25 18 25c1.743 0 3.263 1.123 3.797 2.74l.078.258L26 28c.552 0 1-.448 1-1v-5h-2v-2h2V9c0-.552-.448-1-1-1zm-9 12v2h-4v-2h4zm6 0v2h-4v-2h4z"/>
</svg>
