<svg xmlns="http://www.w3.org/2000/svg" width="36" height="36" viewBox="0 0 36 36">
    <path fill-rule="evenodd" d="M18 0c9.941 0 18 8.059 18 18s-8.059 18-18 18S0 27.941 0 18 8.059 0 18 0zm2.25 10c-1.226 0-2.206.97-2.206 2.146h-.088c0-1.176-.98-2.146-2.206-2.146s-2.25.808-2.25 1.984H16l.007 2.018h-2.334c-1.165 0-2.109-.669-2.109-1.834v-1.1l-1.2.74c-3.152 1.941-3.152 6.523 0 8.465.784.484 1.715.711 2.636.711h2l-1.983 5.475L18 28l4.983-1.541L21 20.984h2c.921 0 1.852-.227 2.635-.711 3.153-1.942 3.153-6.524.001-8.465l-1.2-.74v1.1c0 1.165-.944 1.834-2.109 1.834h-2.334L20 11.984h2.484c0-1.176-1.008-1.984-2.234-1.984z"/>
</svg>
