<svg xmlns="http://www.w3.org/2000/svg" width="36" height="36" viewBox="0 0 36 36">
    <path fill-rule="evenodd" d="M14.129 16.814c1.573-2.463 5.17-2.463 6.743 0l4.49 7.033C27.062 26.51 25.15 30 21.99 30h-8.98c-3.16 0-5.072-3.489-3.372-6.152l4.49-7.033zm-2.804 8.11l-.077.13C10.537 26.366 11.482 28 13.01 28h8.98c1.579 0 2.535-1.745 1.685-3.076l-4.49-7.034c-.786-1.232-2.585-1.232-3.371 0l-4.49 7.034zM8.25 13.125c1.726 0 3.125 1.399 3.125 3.125s-1.399 3.125-3.125 3.125-3.125-1.399-3.125-3.125 1.399-3.125 3.125-3.125zm0 1.75c-.76 0-1.375.615-1.375 1.375s.615 1.375 1.375 1.375 1.375-.615 1.375-1.375-.615-1.375-1.375-1.375zm18.5-1.75c1.726 0 3.125 1.399 3.125 3.125s-1.399 3.125-3.125 3.125-3.125-1.399-3.125-3.125 1.399-3.125 3.125-3.125zm0 1.75c-.76 0-1.375.615-1.375 1.375s.615 1.375 1.375 1.375 1.375-.615 1.375-1.375-.615-1.375-1.375-1.375zm-13-7.75c1.726 0 3.125 1.399 3.125 3.125s-1.399 3.125-3.125 3.125-3.125-1.399-3.125-3.125 1.399-3.125 3.125-3.125zm0 1.75c-.76 0-1.375.615-1.375 1.375s.615 1.375 1.375 1.375 1.375-.615 1.375-1.375-.615-1.375-1.375-1.375zm7.5-1.75c1.726 0 3.125 1.399 3.125 3.125s-1.399 3.125-3.125 3.125-3.125-1.399-3.125-3.125 1.399-3.125 3.125-3.125zm0 1.75c-.76 0-1.375.615-1.375 1.375s.615 1.375 1.375 1.375 1.375-.615 1.375-1.375-.615-1.375-1.375-1.375z"/>
</svg>
