<svg xmlns="http://www.w3.org/2000/svg" width="36" height="36" viewBox="0 0 36 36">
    <path fill-rule="evenodd" d="M18 5c7.18 0 13 5.82 13 13s-5.82 13-13 13S5 25.18 5 18 10.82 5 18 5zm0 2C11.925 7 7 11.925 7 18s4.925 11 11 11 11-4.925 11-11S24.075 7 18 7zm0 15.35c.593 0 1.08.449 1.143 1.025l.007.125v.5c0 .635-.515 1.15-1.15 1.15-.593 0-1.08-.449-1.143-1.025L16.85 24v-.5c0-.635.515-1.15 1.15-1.15zm0-10.85c.513 0 .935.386.993.883L19 12.5V20c0 .552-.448 1-1 1-.513 0-.936-.386-.993-.883L17 20v-7.5c0-.552.448-1 1-1z"/>
</svg>
