<svg xmlns="http://www.w3.org/2000/svg" width="36" height="36" viewBox="0 0 36 36">
    <path fill-rule="evenodd" d="M17.385 7.545c.361-.282.869-.282 1.23 0l.188.152.406.342c.225.195.467.412.722.649.969.9 1.938 1.914 2.844 3.022C25.407 14.932 27 18.293 27 21.666c0 4.97-4.03 9-9 9s-9-4.03-9-9c0-3.373 1.594-6.734 4.226-9.956.906-1.108 1.875-2.122 2.844-3.022.255-.237.496-.454.722-.649l.22-.187.373-.307zM18 9.64l-.183.162-.386.352c-.906.841-1.812 1.79-2.656 2.823C12.407 15.874 11 18.84 11 21.666c0 3.866 3.134 7 7 7s7-3.134 7-7c0-2.825-1.406-5.792-3.774-8.69-.844-1.033-1.75-1.982-2.656-2.823l-.387-.352L18 9.639zm3.595 12.436c0 1.785-1.448 3.232-3.232 3.232-.553 0-1 .448-1 1s.447 1 1 1c2.889 0 5.232-2.343 5.232-5.232 0-.552-.448-1-1-1-.553 0-1 .448-1 1z"/>
</svg>
