<svg xmlns="http://www.w3.org/2000/svg" width="36" height="36" viewBox="0 0 36 36">
    <path fill-rule="evenodd" d="M18 36C8.059 36 0 27.941 0 18S8.059 0 18 0s18 8.059 18 18-8.059 18-18 18zm8-27c.552 0 1 .448 1 1v16c0 .552-.448 1-1 1h-1v1c0 .552-.447 1-1 1-.552 0-1-.448-1-1v-1H13v1c0 .552-.448 1-1 1s-1-.448-1-1v-1h-1c-.552 0-1-.448-1-1V10c0-.552.448-1 1-1h16zm-11.707 5.293c.39-.39 1.024-.39 1.414 0L18 16.585l2.293-2.292c.36-.36.928-.388 1.32-.083l.094.083c.39.39.39 1.024 0 1.414L19.415 18l2.292 2.293c.36.36.388.928.083 1.32l-.083.094c-.39.39-1.024.39-1.414 0L18 19.415l-2.293 2.292c-.36.36-.928.388-1.32.083l-.094-.083c-.39-.39-.39-1.024 0-1.414L16.585 18l-2.292-2.293c-.36-.36-.388-.928-.083-1.32z"/>
</svg>
