<svg xmlns="http://www.w3.org/2000/svg" width="36" height="36" viewBox="0 0 36 36">
    <path fill-rule="evenodd" d="M6 28h24c.552 0 1-.448 1-1s-.448-1-1-1H6c-.552 0-1 .448-1 1s.448 1 1 1zm12-15.977c3.066 0 5 1.923 5 4.977 0 .553.448 1 1 1s1-.447 1-1c0-4.16-2.832-6.977-7-6.977-.552 0-1 .448-1 1 0 .553.448 1 1 1zm8.785 11.579C28.213 21.705 29 19.41 29 17c0-6.075-4.924-11-11-11-6.075 0-11 4.925-11 11 0 2.41.787 4.704 2.214 6.601.332.442.96.53 1.4.198.442-.332.53-.959.198-1.4C9.642 20.844 9 18.97 9 17c0-4.97 4.03-9 9-9 4.971 0 9 4.03 9 9 0 1.97-.642 3.844-1.813 5.398-.332.442-.243 1.069.198 1.4.441.333 1.068.245 1.4-.196z"/>
</svg>
