<svg xmlns="http://www.w3.org/2000/svg" width="36" height="36" viewBox="0 0 36 36">
    <path fill-rule="evenodd" d="M25.995 30c.552 0 1 .448 1 1s-.448 1-1 1H8c-.552 0-1-.448-1-1s.448-1 1-1zM21.731 4.037C22.369 3.859 23 4.338 23 5v2.62l5.479 6.167c.752.91.65 2.252-.232 3.04l-1.34 1.193c-.848.756-2.133.74-2.915.005l-1.617-1.332c-.437.18-.89.272-1.338.286.079.297.272.708.61 1.322l.322.57.54.932C23.894 22.234 24.4 24.099 23.7 26H25c.552 0 1 .448 1 1s-.448 1-1 1H9c-.552 0-1-.448-1-1s.448-1 1-1h1.08c-1.6-2.789-2.463-6.505-1.883-9.903.937-5.5 5.323-9.767 13.534-12.06zM21 6.344l-.413.136c-6.398 2.159-9.683 5.634-10.419 9.954-.569 3.336.52 7.125 2.286 9.567L21.489 26c.905-1.583.552-3.044-.866-5.463l-.486-.823-.294-.513c-.289-.52-.492-.95-.632-1.364-.16-.474-.231-.927-.203-1.354C17.845 15.839 17 14.61 17 13.042c0-.552.448-1 1-1s1 .448 1 1l.005.15c.105 1.476 1.74 2.267 2.945 1.473.366-.241.847-.216 1.186.063l2.175 1.795c.075.07.19.071.267.003l1.338-1.192c.08-.07.089-.191.044-.246l-5.708-6.424C21.09 8.481 21 8.244 21 8V6.344z"/>
</svg>
