<svg xmlns="http://www.w3.org/2000/svg" width="36" height="36" viewBox="0 0 36 36">
    <path fill-rule="evenodd" d="M18 5c7.18 0 13 5.82 13 13s-5.82 13-13 13S5 25.18 5 18 10.82 5 18 5zm0 2C11.925 7 7 11.925 7 18s4.925 11 11 11 11-4.925 11-11S24.075 7 18 7zm4.876 14.518c.266.484.09 1.092-.394 1.358-1.362.75-2.857 1.124-4.47 1.124-1.611 0-3.113-.374-4.489-1.121-.485-.264-.665-.87-.402-1.356.264-.485.87-.665 1.356-.402 1.08.587 2.254.879 3.535.879 1.28 0 2.443-.292 3.506-.876.484-.266 1.092-.09 1.358.394zM13.5 14c.828 0 1.5.672 1.5 1.5s-.672 1.5-1.5 1.5-1.5-.672-1.5-1.5.672-1.5 1.5-1.5zm9 0c.828 0 1.5.672 1.5 1.5s-.672 1.5-1.5 1.5-1.5-.672-1.5-1.5.672-1.5 1.5-1.5z"/>
</svg>
