<svg xmlns="http://www.w3.org/2000/svg" width="36" height="36" viewBox="0 0 36 36">
    <path fill-rule="evenodd" d="M28 9c1.656 0 3 1.344 3 3v13c0 1.656-1.344 3-3 3H8c-1.656 0-3-1.344-3-3V12c0-1.656 1.344-3 3-3zm0 2H8c-.552 0-1 .448-1 1v13c0 .552.448 1 1 1h20c.552 0 1-.448 1-1V12c0-.552-.448-1-1-1zm-8.887 3.21l.094.083L22 17.085l2.793-2.792c.39-.39 1.024-.39 1.414 0 .36.36.388.928.083 1.32l-.083.094-2.792 2.793 2.792 2.793c.39.39.39 1.024 0 1.414-.36.36-.928.388-1.32.083l-.094-.083L22 19.915l-2.793 2.792c-.39.39-1.024.39-1.414 0-.36-.36-.388-.928-.083-1.32l.083-.094 2.792-2.793-2.792-2.793c-.39-.39-.39-1.024 0-1.414.36-.36.928-.388 1.32-.083z"/>
</svg>
