<svg xmlns="http://www.w3.org/2000/svg" width="36" height="36" viewBox="0 0 36 36">
    <path fill-rule="evenodd" d="M13 12c1.48 0 2.773.804 3.465 2h3.07c.692-1.196 1.984-2 3.465-2h6c1.48 0 2.773.804 3.465 2H34c.552 0 1 .448 1 1 0 .513-.386.936-.883.993L34 16h-1v4c0 2.761-2.239 5-5 5h-4c-2.761 0-5-2.239-5-5v-4h-2v4c0 2.761-2.239 5-5 5H8c-2.761 0-5-2.239-5-5v-4H2c-.552 0-1-.448-1-1 0-.513.386-.936.883-.993L2 14h1.535C4.227 12.804 5.52 12 7 12zm0 2H7c-1.105 0-2 .895-2 2v4c0 1.657 1.343 3 3 3h4c1.657 0 3-1.343 3-3v-4c0-1.105-.895-2-2-2zm16 0h-6c-1.105 0-2 .895-2 2v4c0 1.657 1.343 3 3 3h4c1.657 0 3-1.343 3-3v-4c0-1.105-.895-2-2-2zm-18.134 1c.552 0 1 .448 1 1 0 .513-.386.935-.883.993l-.117.007L8 16.999v2.113c0 .513-.386.935-.883.993L7 20.112c-.513 0-.936-.386-.993-.884L6 19.112V16c0-.513.386-.936.883-.993L7 15h3.866zm16 0c.552 0 1 .448 1 1 0 .513-.386.935-.883.993l-.117.007L24 16.999v2.113c0 .513-.386.935-.883.993l-.117.007c-.513 0-.936-.386-.993-.884L22 19.112V16c0-.513.386-.936.883-.993L23 15h3.866z"/>
</svg>
