<svg xmlns="http://www.w3.org/2000/svg" width="36" height="36" viewBox="0 0 36 36">
    <path fill-rule="evenodd" d="M26 5c1.597 0 2.904 1.25 2.995 2.824L29 8v17c0 .87-.397 1.521-1.133 1.814-.398.158-.7.19-1.412.188l-.287-.001L25 27v1c0 1.597-1.25 2.904-2.824 2.995L22 31H10c-1.656 0-3-1.344-3-3V12c0-1.656 1.344-3 3-3h1V8c0-1.597 1.25-2.904 2.824-2.995L14 5h12zm-4 6H10c-.552 0-1 .448-1 1v16c0 .552.448 1 1 1h12c.552 0 1-.448 1-1V12c0-.552-.448-1-1-1zm-1 13v2H11v-2h10zm5-17H14c-.512 0-.935.387-.993.883L13 8v1h9c1.597 0 2.904 1.25 2.995 2.824L25 12v13h1.683c.074-.001.137-.003.19-.006l.127-.011V8c0-.512-.387-.935-.883-.993L26 7zm-5 12v2H11v-2h10zm0-5v2H11v-2h10z"/>
</svg>
