<svg xmlns="http://www.w3.org/2000/svg" width="36" height="36" viewBox="0 0 36 36">
    <path fill-rule="evenodd" d="M18 5c7.18 0 13 5.82 13 13s-5.82 13-13 13S5 25.18 5 18 10.82 5 18 5zm0 2C11.925 7 7 11.925 7 18s4.925 11 11 11 11-4.925 11-11S24.075 7 18 7zm.012 14c1.613 0 3.108.375 4.47 1.124.484.266.66.874.394 1.358-.266.484-.874.66-1.358.394-1.063-.584-2.226-.876-3.506-.876-1.281 0-2.454.292-3.535.879-.485.263-1.092.083-1.356-.402-.263-.486-.083-1.093.402-1.356 1.376-.747 2.878-1.121 4.49-1.121zM13.5 14c.828 0 1.5.672 1.5 1.5s-.672 1.5-1.5 1.5-1.5-.672-1.5-1.5.672-1.5 1.5-1.5zm9 0c.828 0 1.5.672 1.5 1.5s-.672 1.5-1.5 1.5-1.5-.672-1.5-1.5.672-1.5 1.5-1.5z"/>
</svg>
