<svg xmlns="http://www.w3.org/2000/svg" width="36" height="36" viewBox="0 0 36 36">
    <path fill-rule="evenodd" d="M36 18c0 9.941-8.059 18-18 18S0 27.941 0 18 8.059 0 18 0s18 8.059 18 18m-8.334-7.011c-2.744-2.752-7.195-2.752-9.94 0-2.745-2.752-7.196-2.752-9.941 0-2.745 2.753-2.745 7.215 0 9.968l9.94 9.968 9.941-9.968c2.745-2.753 2.745-7.215 0-9.968m-14.53.477c-.653.16-1.252.37-1.796.664-.53.314-1.047.635-1.451 1.089-.413.435-.791.912-1.058 1.464-.303.536-.506 1.132-.695 1.783-.488-.658-.59-1.484-.441-2.254.156-.771.56-1.501 1.145-2.042.575-.545 1.299-.944 2.07-1.074.765-.14 1.568-.053 2.226.37"/>
</svg>
