<svg xmlns="http://www.w3.org/2000/svg" width="36" height="36" viewBox="0 0 36 36">
    <path fill-rule="evenodd" d="M18 0c9.941 0 18 8.059 18 18s-8.059 18-18 18C8.06 36 0 27.941 0 18S8.06 0 18 0zm-.594 8c-3.082 0-5.58 2.498-5.58 5.58v1.684c-.415.179-.792.444-1.101.783-.606.665-.898 1.558-.8 2.447l.627 5.692C10.729 25.791 12.098 27 13.736 27h7.34c1.639 0 3.007-1.21 3.185-2.814l.627-5.692c.097-.89-.195-1.782-.802-2.447-.309-.339-.685-.604-1.1-.783V13.58l-.005-.22C22.866 10.38 20.414 8 17.406 8zm0 11.444c.545 0 .985.434.985.97v1.48c0 .537-.44.97-.985.97-.545 0-.986-.434-.986-.97v-1.48c0-.537.44-.97.986-.97zm0-9.444c1.977 0 3.58 1.602 3.58 3.58v1.419h-7.16v-1.42l.005-.19c.1-1.889 1.661-3.39 3.575-3.39z"/>
</svg>
