<svg xmlns="http://www.w3.org/2000/svg" width="36" height="36" viewBox="0 0 36 36">
    <path fill-rule="evenodd" d="M19 27v2h-2v-2h2zm8.399-17.917c.027.011.048.022.07.033l-.07-.033c.042.018.082.039.12.062l.038.024c.018.012.035.024.051.037.019.014.037.03.055.045l.032.03.038.038c.015.016.03.033.043.05.03.036.057.075.081.117l-.051-.078c.014.018.027.037.039.057l.012.02 3 5c.184.307.19.688.017 1l-5 9c-.31.56-1.057.687-1.536.264l-6.286-5.554-5.334 5.501c-.414.427-1.098.396-1.474-.041l-.076-.1-6-9c-.214-.322-.224-.738-.025-1.07l3-5 .012-.02c.012-.02.025-.039.04-.057l.03-.04.042-.049.038-.039.031-.028.056-.047.05-.035c.013-.01.026-.017.039-.025l.05-.029c.022-.011.043-.022.065-.031l.005-.002c6.122-2.662 12.676-2.662 18.798 0zM19 23v2h-2v-2h2zm7.755-11.464l-7.237 6.284 5.211 4.606 4.116-7.407-2.09-3.483zm-17.511 0l-2.061 3.435 4.962 7.443 4.401-4.538-7.302-6.34zm1.656-1.21L18 16.49l7.1-6.165c-4.666-1.651-9.534-1.651-14.2 0z"/>
</svg>
