<svg xmlns="http://www.w3.org/2000/svg" width="36" height="36" viewBox="0 0 36 36">
    <path fill-rule="evenodd" d="M30.406 9.077c.39.836.536 1.662.587 2.837.041.946-.099 1.893-.41 2.79-.311.895-.789 1.72-1.408 2.432l-.177.195.002.024v3.108c0 2.845-1.516 5.457-3.948 6.832l-.247.134-3.332 1.724c-2.096 1.085-4.558 1.128-6.68.13l-.264-.13-3.335-1.725c-2.492-1.29-4.089-3.853-4.189-6.68L7 20.462v-3.132c-.059-.064-.117-.129-.175-.195-.62-.713-1.098-1.54-1.408-2.432-.311-.896-.452-1.844-.41-2.79.05-1.171.196-2 .587-2.837.233-.5.828-.717 1.329-.483.5.233.717.828.483 1.329-.255.547-.36 1.145-.4 2.079-.031.693.072 1.387.3 2.045.227.653.576 1.256 1.028 1.777.47.541 1.02.969 1.653 1.277.497.241.704.84.462 1.336-.242.497-.84.704-1.337.462L9 18.841 9 20.463c0 2.112 1.115 4.046 2.896 5.07l.217.12 3.335 1.724c1.524.79 3.31.83 4.862.118l.244-.119 3.332-1.723c1.835-.951 3.02-2.841 3.109-4.937l.005-.253v-1.595l-.063.031c-.496.242-1.095.035-1.336-.462-.242-.496-.035-1.095.462-1.336.596-.29 1.097-.696 1.603-1.278.452-.519.8-1.122 1.028-1.776.228-.657.331-1.353.3-2.047-.04-.934-.145-1.53-.4-2.077-.234-.5-.017-1.096.483-1.33.5-.233 1.096-.016 1.33.484zM20.5 20c.552 0 1 .448 1 1 0 .513-.386.936-.883.993L20.5 22h-5c-.552 0-1-.448-1-1 0-.513.386-.936.883-.993L15.5 20h5zm.246-6.47c.535.136.86.68.723 1.216-.055.217-.154.508-.31.813-.175.338-.387.62-.673.832-.595.438-1.462.614-2.48.609-1.03.005-1.898-.17-2.493-.61-.285-.21-.497-.493-.671-.831-.157-.305-.256-.596-.311-.813-.136-.536.188-1.08.723-1.215.497-.126 1.002.144 1.18.612l.076.242c.027.078.065.17.11.258l.08.138c.166.123.658.222 1.305.219.637.003 1.128-.096 1.294-.219l.081-.138c.045-.087.083-.18.11-.258l.04-.13c.136-.536.68-.86 1.216-.724z"/>
</svg>
