<svg xmlns="http://www.w3.org/2000/svg" width="36" height="36" viewBox="0 0 36 36">
    <path fill-rule="evenodd" d="M12.5 8c4.144 0 7.5 3.395 7.5 7.577 0 2.25-.443 3.637-1.438 5.218l-.529.803c-.628.954-.882 1.568-.917 2.507l-.004.242c0 2.567-2.063 4.654-4.612 4.654-2.55 0-4.611-2.087-4.611-4.654 0-.553.447-1 1-1 .552 0 1 .447 1 1 0 1.468 1.172 2.654 2.61 2.654 1.385 0 2.522-1.097 2.608-2.486l.005-.168c0-1.429.326-2.383 1.082-3.587l.275-.422.252-.378C17.635 18.57 18 17.526 18 15.577 18 12.494 15.535 10 12.5 10S7 12.494 7 15.577c0 .552-.448 1-1 1-.553 0-1-.448-1-1C5 11.395 8.355 8 12.5 8zm0 4c1.933 0 3.5 1.567 3.5 3.5 0 .552-.448 1-1 1-.513 0-.936-.386-.993-.883L14 15.5c0-.829-.671-1.5-1.5-1.5s-1.5.671-1.5 1.5c0 .674.121.984.563 1.533l.167.204c.742.885 1.074 1.524 1.115 2.586l.004.235v1.609c0 .552-.448 1-1 1-.513 0-.936-.386-.993-.883l-.007-.117v-1.609c0-.593-.11-.867-.53-1.388l-.161-.196C9.338 17.494 9 16.788 9 15.5c0-1.933 1.567-3.5 3.5-3.5zm12.113-1.79l.094.083L27 12.586l2.293-2.293c.39-.39 1.024-.39 1.414 0 .36.36.388.928.083 1.32l-.083.094L28.414 14l2.293 2.293c.39.39.39 1.024 0 1.414-.36.36-.928.388-1.32.083l-.094-.083L27 15.414l-2.293 2.293c-.39.39-1.024.39-1.414 0-.36-.36-.388-.928-.083-1.32l.083-.094L25.586 14l-2.293-2.293c-.39-.39-.39-1.024 0-1.414.36-.36.928-.388 1.32-.083z"/>
</svg>
