<svg xmlns="http://www.w3.org/2000/svg" width="36" height="36" viewBox="0 0 36 36">
    <path fill-rule="evenodd" d="M24.017 8C26.217 8 28 9.783 28 11.983v5.625c0 1.057-.42 2.069-1.167 2.816L16.55 30.707c-.39.39-1.023.39-1.414 0l-9.843-9.844c-.39-.39-.39-1.024 0-1.414L15.575 9.168C16.321 8.42 17.335 8 18.392 8zm0 2h-5.625c-.526 0-1.03.209-1.402.581l-9.576 9.574 8.429 8.43 9.576-9.575c.331-.33.533-.765.573-1.227l.008-.175v-5.625C26 10.888 25.112 10 24.017 10zM13.01 18.159l4.95 4.95-1.414 1.414-4.95-4.95 1.414-1.414zm10.668-5.718c.586.585.586 1.535 0 2.121-.586.586-1.536.586-2.122 0-.585-.586-.585-1.536 0-2.12.586-.587 1.536-.587 2.122 0z"/>
</svg>
