<svg xmlns="http://www.w3.org/2000/svg" width="36" height="36" viewBox="0 0 36 36">
    <path fill-rule="evenodd" d="M18 27c.552 0 1 .448 1 1 0 1.85-.862 2.496-2.757 2.97l-.334.087c-.8.219-.909.365-.909.943 0 .552-.448 1-1 1s-1-.448-1-1c0-1.85.862-2.496 2.757-2.97l.334-.087c.8-.219.909-.365.909-.943 0-.552.448-1 1-1zm0-24c4.998 0 9 4.501 9 10 0 4.113-2.647 7.602-6.129 9.842l.986 1.644c.4.666-.08 1.514-.857 1.514h-6c-.777 0-1.257-.848-.857-1.514l.986-1.644-.28-.185C11.505 20.413 9 17.002 9 13c0-5.499 4.002-10 9-10zm0 2c-3.838 0-7 3.557-7 8 0 3.574 2.647 6.75 5.99 8.628.491.276.657.903.367 1.386l-.59.986h2.467l-.591-.986c-.29-.483-.124-1.11.367-1.386C22.353 19.75 25 16.574 25 13c0-4.443-3.162-8-7-8zm-.235 2c.552 0 1 .448 1 1s-.448 1-1 1l-.17.005c-1.695.106-3.095 1.782-3.095 3.893 0 .552-.448 1-1 1s-1-.448-1-1C12.5 9.669 14.824 7 17.765 7z"/>
</svg>
