<svg xmlns="http://www.w3.org/2000/svg" width="36" height="36" viewBox="0 0 36 36">
    <path fill-rule="evenodd" d="M18 0c9.941 0 18 8.059 18 18s-8.059 18-18 18S0 27.941 0 18 8.059 0 18 0zm-3.615 10.386C10.69 11.506 8 14.939 8 19c0 4.97 4.03 9 9 9 4.061 0 7.494-2.69 8.615-6.386-.828.251-1.706.386-2.615.386-4.97 0-9-4.03-9-9 0-.909.135-1.786.385-2.614zM26 13c-.552 0-1 .448-1 1v.999L24 15c-.552 0-1 .448-1 1s.448 1 1 1l1-.001V18c0 .552.448 1 1 1s1-.448 1-1v-1.001L28 17c.552 0 1-.448 1-1s-.448-1-1-1l-1-.001V14c0-.552-.448-1-1-1zm-6-7c-.552 0-1 .448-1 1v.999L18 8c-.552 0-1 .448-1 1s.448 1 1 1l1-.001V11c0 .552.448 1 1 1s1-.448 1-1V9.999L22 10c.552 0 1-.448 1-1s-.448-1-1-1l-1-.001V7c0-.552-.448-1-1-1z"/>
</svg>
