<svg xmlns="http://www.w3.org/2000/svg" width="36" height="36" viewBox="0 0 36 36">
    <path fill-rule="evenodd" d="M36 18c0 9.941-8.059 18-18 18S0 27.941 0 18 8.059 0 18 0s18 8.059 18 18M18.666 6.894l5.292 4.719V8.919h2v4.477l2.084 1.858c.685.611.253 1.746-.666 1.746H26v10c0 .553-.448 1-1 1H11c-.552 0-1-.447-1-1v-9.8l2-1.2H9.264c-.95.002-1.497.003-1.642.005-.004-.267.1-.54.336-.751l9.376-8.36c.38-.338.952-.338 1.332 0zM17 19c0 .553-.448 1-1 1s-1-.447-1-1c0-.553.448-1 1-1s1 .447 1 1m4 4c0 .553-.448 1-1 1s-1-.447-1-1c0-.553.448-1 1-1s1 .447 1 1m-4.335.734l4-4c.39-.391.39-1.024 0-1.415-.39-.39-1.024-.39-1.414 0l-4 4c-.39.39-.39 1.024 0 1.415.39.39 1.024.39 1.414 0z"/>
</svg>
