<svg xmlns="http://www.w3.org/2000/svg" width="36" height="36" viewBox="0 0 36 36">
    <path fill-rule="evenodd" d="M18 0c9.941 0 18 8.059 18 18s-8.059 18-18 18S0 27.941 0 18 8.059 0 18 0zm4.553 10.746c-.57-3.028-3.487-5.022-6.514-4.453-3.03.569-5.023 3.486-4.454 6.514l.453 2.41c-.462.177-.881.46-1.22.83-.605.666-.897 1.557-.8 2.446l.628 5.694C10.823 25.79 12.192 27 13.83 27h7.34c1.639 0 3.007-1.21 3.185-2.813l.627-5.694c.097-.889-.195-1.78-.802-2.447-.606-.665-1.475-1.046-2.382-1.046h-7.772l-.011-.093-.464-2.469-.031-.194c-.248-1.872 1.01-3.633 2.888-3.985 1.942-.365 3.814.914 4.18 2.857.102.543.625.9 1.167.798.543-.103.9-.626.798-1.168zm-4.941 8.466c.553 0 1 .447 1 1v1.526c0 .552-.447 1-1 1-.553 0-1-.448-1-1v-1.526c0-.553.447-1 1-1z"/>
</svg>
