<svg xmlns="http://www.w3.org/2000/svg" width="36" height="36" viewBox="0 0 36 36">
    <path fill-rule="evenodd" d="M28 9c.513 0 .936.386.993.883L29 10v9.57c0 2.816-1.52 5.403-3.953 6.76l-.246.131-3.333 1.704c-2.09 1.067-4.541 1.112-6.661.133l-.275-.134-3.333-1.703c-2.493-1.273-4.093-3.81-4.194-6.61L7 19.57V10c0-.552.448-1 1-1 .513 0 .936.386.993.883L9 10v9.57c0 2.077 1.113 3.985 2.892 4.994l.217.117 3.333 1.702c1.529.781 3.318.82 4.873.118l.243-.117 3.333-1.703c1.832-.937 3.015-2.8 3.104-4.863L27 19.57V10c0-.552.448-1 1-1zm-7.5 11c.552 0 1 .448 1 1 0 .513-.386.936-.883.993L20.5 22h-5c-.552 0-1-.448-1-1 0-.513.386-.936.883-.993L15.5 20h5zm.246-6.47c.535.136.86.68.723 1.216-.055.217-.154.508-.31.813-.175.338-.387.62-.673.832-.595.438-1.462.614-2.48.609-1.03.005-1.897-.17-2.493-.61-.285-.21-.497-.493-.671-.831-.157-.305-.256-.596-.311-.813-.136-.536.188-1.08.723-1.215.497-.126 1.002.144 1.18.612l.076.242c.027.078.065.17.11.258l.08.138c.167.123.658.222 1.305.219.637.003 1.128-.096 1.294-.219l.081-.138c.045-.087.083-.18.11-.258l.04-.13c.136-.536.68-.86 1.216-.724z"/>
</svg>
