<svg xmlns="http://www.w3.org/2000/svg" width="36" height="36" viewBox="0 0 36 36">
    <path fill-rule="evenodd" d="M29.343 26.028c.434-.213.958-.035 1.171.399.213.434.035.958-.399 1.171l-1.76.866c-1.253.617-2.74.513-3.893-.274l-.179-.121c-.632-.431-1.448-.489-2.135-.15l-1.762.866c-.433.213-.958.035-1.171-.399-.213-.433-.035-.958.399-1.171l1.762-.867c1.252-.616 2.74-.511 3.891.274l.18.121c.632.432 1.447.49 2.135.15zM27 9c1.656 0 3 1.344 3 3v8h-2v-5.179l-10 6.364-10-6.364V24c0 .512.387.935.883.993L9 25h8v2H9c-1.656 0-3-1.344-3-3V12c0-1.656 1.344-3 3-3zm2.343 13.028c.434-.213.958-.035 1.171.399.213.434.035.958-.399 1.171l-1.76.866c-1.253.617-2.74.513-3.893-.274l-.179-.121c-.632-.431-1.448-.489-2.135-.15l-1.762.866c-.433.213-.958.035-1.171-.399-.213-.433-.035-.958.399-1.171l1.762-.867c1.252-.616 2.74-.511 3.891.274l.18.121c.632.432 1.447.49 2.135.15zM27 11H9c-.552 0-1 .448-1 1v.451l10 6.364 10-6.364V12c0-.512-.387-.935-.883-.993L27 11z"/>
</svg>
