<svg xmlns="http://www.w3.org/2000/svg" width="36" height="36" viewBox="0 0 36 36">
    <path fill-rule="evenodd" d="M18 8c5.114 0 9.794 3.19 12.866 8.5.179.309.179.691 0 1C27.794 22.81 23.114 26 18 26c-5.113 0-9.793-3.19-12.866-8.5-.179-.309-.179-.691 0-1C8.207 11.19 12.887 8 18 8zm10.628 8.671C25.908 12.446 22.076 10 18 10c-4.18 0-8.104 2.573-10.835 7 2.73 4.427 6.655 7 10.835 7 4.076 0 7.909-2.446 10.628-6.671l.207-.329-.207-.329zM18 12c2.761 0 5 2.239 5 5s-2.239 5-5 5-5-2.239-5-5 2.239-5 5-5zm0 2c-1.657 0-3 1.343-3 3s1.343 3 3 3 3-1.343 3-3-1.343-3-3-3z"/>
</svg>
