<svg xmlns="http://www.w3.org/2000/svg" width="36" height="36" viewBox="0 0 36 36">
    <path fill-rule="evenodd" d="M26 5c1.656 0 3 1.344 3 3v20c0 1.656-1.344 3-3 3H10c-1.656 0-3-1.344-3-3V8c0-1.656 1.344-3 3-3zm0 2H10c-.552 0-1 .448-1 1v20c0 .552.448 1 1 1h16c.552 0 1-.448 1-1V8c0-.552-.448-1-1-1zM13.508 20.833c.645 0 1.166.522 1.166 1.167s-.521 1.167-1.166 1.167c-.645 0-1.167-.522-1.167-1.167s.522-1.167 1.167-1.167zm4.492 0c.645 0 1.167.522 1.167 1.167s-.522 1.167-1.167 1.167-1.167-.522-1.167-1.167.522-1.167 1.167-1.167zm4.492 0c.645 0 1.167.522 1.167 1.167s-.522 1.167-1.167 1.167-1.166-.522-1.166-1.167.521-1.167 1.166-1.167zM24 16v2H12v-2h12zm0-5v2H12v-2h12z"/>
</svg>
