<svg xmlns="http://www.w3.org/2000/svg" width="48" height="48" viewBox="0 0 48 48">
    <g fill="none">
        <circle cx="24" cy="24" r="24" fill="#F6650A"/>
        <path fill="#FFF" d="M31.06 16.94c.586.585.586 1.535 0 2.12L26.122 24l4.94 4.94c.585.585.585 1.535 0 2.12-.586.586-1.536.586-2.122 0L24 26.122l-4.94 4.94c-.585.585-1.535.585-2.12 0-.586-.586-.586-1.536 0-2.122L21.878 24l-4.94-4.94c-.585-.585-.585-1.535 0-2.12.586-.586 1.536-.586 2.122 0L24 21.878l4.94-4.94c.585-.585 1.535-.585 2.12 0z"/>
    </g>
</svg>
