<svg xmlns="http://www.w3.org/2000/svg" xmlns:xlink="http://www.w3.org/1999/xlink" width="36" height="36" viewBox="0 0 36 36">
    <defs>
        <linearGradient id="mri3vhstlc" x1="50%" x2="50%" y1="0%" y2="100%">
            <stop offset=".422%" stop-color="#B9B9B9" stop-opacity=".1"/>
            <stop offset="100%" stop-color="#FFF" stop-opacity=".01"/>
        </linearGradient>
        <rect id="bxjxt6y4ea" width="28" height="20" x="4" y="8" rx="2.5"/>
    </defs>
    <g fill="none" fill-rule="evenodd">
        <mask id="4bboswk0rb" fill="#fff">
            <use xlink:href="#bxjxt6y4ea"/>
        </mask>
        <rect width="27" height="19" x="4.5" y="8.5" stroke="#D9DCE0" rx="2.5"/>
        <g mask="url(#4bboswk0rb)">
            <g fill-rule="nonzero" transform="translate(19 20)">
                <rect width="7" height="5" x="3" fill="#F79E1B" rx="2.5"/>
                <rect width="7" height="5" fill="#EB001B" rx="2.5"/>
                <path fill="#FF5F00" d="M7 2.5c0 1.21-.859 2.218-2 2.45-1.14-.231-2-1.24-2-2.45C3 1.29 3.86.281 5 .05 6.142.282 7 1.29 7 2.5z"/>
            </g>
        </g>
        <path fill="url(#mri3vhstlc)" d="M4 8L28 8 4 28z" mask="url(#4bboswk0rb)"/>
        <circle cx="9.5" cy="13.5" r="2.5" fill="#000" fill-opacity=".1" fill-rule="nonzero" mask="url(#4bboswk0rb)"/>
    </g>
</svg>
