<svg xmlns="http://www.w3.org/2000/svg" width="36" height="36" viewBox="0 0 36 36">
    <defs>
        <linearGradient id="qosyudaf4a" x1="0%" x2="100%" y1="24.49%" y2="75.51%">
            <stop offset="0%" stop-color="#F1F1F6"/>
            <stop offset="60.608%" stop-color="#EEEAED"/>
            <stop offset="100%" stop-color="#FCE7DC"/>
        </linearGradient>
    </defs>
    <g fill="none" fill-rule="evenodd">
        <rect width="28" height="20" x="4" y="8" fill="url(#qosyudaf4a)" rx="2.5"/>
        <path fill="#FF5F00" d="M15.557 22.13L20.418 22.13 20.418 13.217 15.557 13.217z"/>
        <path fill="#EB001B" d="M15.875 17.63c0-1.795.831-3.393 2.125-4.423-.946-.753-2.14-1.203-3.438-1.203C11.49 12.004 9 14.523 9 17.63c0 3.107 2.49 5.625 5.562 5.625 1.298 0 2.492-.449 3.438-1.202-1.294-1.03-2.125-2.628-2.125-4.423"/>
        <path fill="#F79E1B" d="M26.988 17.63c0 3.106-2.49 5.624-5.563 5.624-1.297 0-2.491-.449-3.437-1.202 1.294-1.03 2.124-2.628 2.124-4.423 0-1.794-.83-3.392-2.124-4.422.946-.753 2.14-1.203 3.437-1.203 3.072 0 5.563 2.519 5.563 5.625z"/>
    </g>
</svg>
