<svg xmlns="http://www.w3.org/2000/svg" xmlns:xlink="http://www.w3.org/1999/xlink" width="36" height="36" viewBox="0 0 36 36">
    <defs>
        <linearGradient id="oaweh7ww6b" x1="0%" x2="79.885%" y1="24.49%" y2="74.601%">
            <stop offset="0%" stop-color="#10D012"/>
            <stop offset="59.533%" stop-color="#A4F651"/>
            <stop offset="100%" stop-color="#DFFDC5"/>
        </linearGradient>
        <linearGradient id="ljrn63v9wc" x1="50%" x2="50%" y1="0%" y2="100%">
            <stop offset="0%" stop-color="#FFF" stop-opacity=".3"/>
            <stop offset="100%" stop-color="#FFF" stop-opacity=".01"/>
        </linearGradient>
        <rect id="8g0t553dya" width="28" height="20" x="0" y="0" rx="2.5"/>
    </defs>
    <g fill="none" fill-rule="evenodd">
        <g transform="translate(4 8)">
            <mask id="kzesj4hbid" fill="#fff">
                <use xlink:href="#8g0t553dya"/>
            </mask>
            <use fill="url(#oaweh7ww6b)" xlink:href="#8g0t553dya"/>
            <path fill="url(#ljrn63v9wc)" d="M0 0L24 0 0 20z" mask="url(#kzesj4hbid)"/>
            <circle cx="5.5" cy="5.5" r="2.5" fill="#FFF" mask="url(#kzesj4hbid)" opacity=".5"/>
        </g>
        <g fill-rule="nonzero" transform="translate(19 20)">
            <rect width="7" height="5" x="3" fill="#F79E1B" rx="2.5"/>
            <rect width="7" height="5" fill="#EB001B" rx="2.5"/>
            <path fill="#FF5F00" d="M7 2.5c0 1.21-.859 2.218-2 2.45-1.14-.231-2-1.24-2-2.45C3 1.29 3.86.281 5 .05 6.142.282 7 1.29 7 2.5z"/>
        </g>
    </g>
</svg>
