<svg xmlns="http://www.w3.org/2000/svg" width="36" height="36" viewBox="0 0 36 36">
    <defs>
        <linearGradient id="7fnqznzoma" x1="0%" x2="100%" y1="24.49%" y2="75.51%">
            <stop offset="0%" stop-color="#F1F1F5"/>
            <stop offset="60.743%" stop-color="#ECECF2"/>
            <stop offset="100%" stop-color="#D6E6F6"/>
        </linearGradient>
    </defs>
    <g fill="none" fill-rule="evenodd">
        <rect width="28" height="20" x="4" y="8" fill="url(#7fnqznzoma)" rx="2.5"/>
        <path fill="#182E66" d="M17.775 14.13l-1.521 7.112h-1.84l1.521-7.112h1.84zm7.741 4.593l.969-2.671.557 2.67h-1.526zm2.054 2.52h1.702l-1.487-7.113h-1.57c-.353 0-.651.205-.783.521l-2.761 6.591h1.932l.384-1.062h2.36l.223 1.062zm-4.803-2.323c.008-1.877-2.595-1.98-2.578-2.82.006-.254.249-.526.78-.595.264-.034.99-.061 1.815.318l.322-1.509c-.442-.16-1.012-.314-1.72-.314-1.82 0-3.1.966-3.11 2.351-.011 1.024.914 1.595 1.61 1.936.718.348.959.572.955.884-.005.477-.572.688-1.1.696-.926.014-1.463-.25-1.89-.45l-.334 1.56c.43.197 1.224.368 2.045.377 1.934 0 3.199-.955 3.205-2.434zm-7.621-4.79l-2.982 7.112H10.22l-1.467-5.676c-.089-.349-.166-.477-.437-.625-.442-.24-1.173-.465-1.815-.605l.043-.206h3.132c.398 0 .757.265.848.725l.775 4.116 1.915-4.841h1.933z"/>
    </g>
</svg>
