<svg xmlns="http://www.w3.org/2000/svg" xmlns:xlink="http://www.w3.org/1999/xlink" width="36" height="36" viewBox="0 0 36 36">
    <defs>
        <linearGradient id="qdrt0hm7md" x1="0%" x2="79.885%" y1="24.49%" y2="74.601%">
            <stop offset="0%" stop-color="#E2CA1E"/>
            <stop offset="50.757%" stop-color="#CD9B08"/>
            <stop offset="100%" stop-color="#ECD84F"/>
        </linearGradient>
        <linearGradient id="xrd98qy42f" x1="50%" x2="50%" y1="0%" y2="100%">
            <stop offset="0%" stop-color="#FFF" stop-opacity=".3"/>
            <stop offset="100%" stop-color="#FFF" stop-opacity=".01"/>
        </linearGradient>
        <rect id="zw0msordta" width="28" height="20" x="4" y="8" rx="2.5"/>
        <path id="783zk8lu0c" d="M0 0H20V20H0z"/>
    </defs>
    <g fill="none" fill-rule="evenodd">
        <mask id="1w35cmdcvb" fill="#fff">
            <use xlink:href="#zw0msordta"/>
        </mask>
        <use fill="#000" fill-opacity=".14" xlink:href="#zw0msordta"/>
        <g mask="url(#1w35cmdcvb)">
            <g transform="translate(4 8)">
                <mask id="swvqqntq4e" fill="#fff">
                    <use xlink:href="#783zk8lu0c"/>
                </mask>
                <rect width="28" height="20" fill="url(#qdrt0hm7md)" mask="url(#swvqqntq4e)" rx="2.5"/>
            </g>
        </g>
        <rect width="7" height="5" x="22" y="20" fill="#F79E1B" fill-rule="nonzero" mask="url(#1w35cmdcvb)" rx="2.5"/>
        <rect width="7" height="5" x="19" y="20" fill="#EB001B" fill-rule="nonzero" mask="url(#1w35cmdcvb)" rx="2.5"/>
        <path fill="#FF5F00" fill-rule="nonzero" d="M26 22.5c0 1.21-.859 2.218-2 2.45-1.14-.231-2-1.24-2-2.45 0-1.21.86-2.219 2-2.45 1.141.232 2 1.24 2 2.45z" mask="url(#1w35cmdcvb)"/>
        <path fill="url(#xrd98qy42f)" d="M4 8L28 8 4 28z" mask="url(#1w35cmdcvb)"/>
        <circle cx="9.5" cy="13.5" r="2.5" fill="#FFF" fill-opacity=".5" fill-rule="nonzero" mask="url(#1w35cmdcvb)"/>
    </g>
</svg>
