<svg xmlns="http://www.w3.org/2000/svg" xmlns:xlink="http://www.w3.org/1999/xlink" width="36" height="36" viewBox="0 0 36 36">
    <defs>
        <linearGradient id="9svlby9xtb" x1="0%" x2="79.885%" y1="24.49%" y2="74.601%">
            <stop offset="0%" stop-color="#E2CA1E"/>
            <stop offset="50.757%" stop-color="#CD9B08"/>
            <stop offset="100%" stop-color="#ECD84F"/>
        </linearGradient>
        <linearGradient id="39qsdsgymd" x1="50%" x2="50%" y1="0%" y2="100%">
            <stop offset="0%" stop-color="#FFF" stop-opacity=".3"/>
            <stop offset="100%" stop-color="#FFF" stop-opacity=".01"/>
        </linearGradient>
        <rect id="mmp1yw3z0a" width="28" height="20" x="4" y="8" rx="2.5"/>
    </defs>
    <g fill="none" fill-rule="evenodd">
        <mask id="25lkethanc" fill="#fff">
            <use xlink:href="#mmp1yw3z0a"/>
        </mask>
        <use fill="url(#9svlby9xtb)" xlink:href="#mmp1yw3z0a"/>
        <rect width="7" height="5" x="22" y="20" fill="#F79E1B" fill-rule="nonzero" mask="url(#25lkethanc)" rx="2.5"/>
        <rect width="7" height="5" x="19" y="20" fill="#EB001B" fill-rule="nonzero" mask="url(#25lkethanc)" rx="2.5"/>
        <path fill="#FF5F00" fill-rule="nonzero" d="M26 22.5c0 1.21-.859 2.218-2 2.45-1.14-.231-2-1.24-2-2.45 0-1.21.86-2.219 2-2.45 1.141.232 2 1.24 2 2.45z" mask="url(#25lkethanc)"/>
        <path fill="url(#39qsdsgymd)" d="M4 8L28 8 4 28z" mask="url(#25lkethanc)"/>
        <circle cx="9.5" cy="13.5" r="2.5" fill="#FFF" fill-opacity=".5" fill-rule="nonzero" mask="url(#25lkethanc)"/>
    </g>
</svg>
