<svg xmlns="http://www.w3.org/2000/svg" xmlns:xlink="http://www.w3.org/1999/xlink" width="36" height="36" viewBox="0 0 36 36">
    <defs>
        <linearGradient id="xop2xu5wwb" x1="0%" x2="79.885%" y1="24.49%" y2="74.601%">
            <stop offset="0%" stop-color="#13D53D"/>
            <stop offset="59.533%" stop-color="#0E6484"/>
            <stop offset="100%" stop-color="#040404"/>
        </linearGradient>
        <linearGradient id="38jo8tn3qc" x1="50%" x2="50%" y1="0%" y2="100%">
            <stop offset="0%" stop-color="#FFF" stop-opacity=".3"/>
            <stop offset="100%" stop-color="#FFF" stop-opacity=".01"/>
        </linearGradient>
        <rect id="kzl906s3ha" width="28" height="20" x="4" y="8" rx="2.5"/>
    </defs>
    <g fill="none" fill-rule="evenodd">
        <path d="M0 0H36V36H0z"/>
        <mask id="ktp3qldidd" fill="#fff">
            <use xlink:href="#kzl906s3ha"/>
        </mask>
        <use fill="url(#xop2xu5wwb)" xlink:href="#kzl906s3ha"/>
        <path fill="url(#38jo8tn3qc)" d="M4 8L28 8 4 28z" mask="url(#ktp3qldidd)"/>
        <circle cx="9.5" cy="13.5" r="2.5" fill="#FFF" mask="url(#ktp3qldidd)" opacity=".5"/>
        <g mask="url(#ktp3qldidd)">
            <g fill-rule="nonzero" transform="translate(19 20)">
                <rect width="7" height="5" x="3" fill="#F79E1B" rx="2.5"/>
                <rect width="7" height="5" fill="#EB001B" rx="2.5"/>
                <path fill="#FF5F00" d="M7 2.5c0 1.21-.859 2.218-2 2.45-1.14-.231-2-1.24-2-2.45C3 1.29 3.86.281 5 .05 6.142.282 7 1.29 7 2.5z"/>
            </g>
        </g>
    </g>
</svg>
