<svg xmlns="http://www.w3.org/2000/svg" xmlns:xlink="http://www.w3.org/1999/xlink" width="36" height="36" viewBox="0 0 36 36">
    <defs>
        <linearGradient id="pfppsnap4b" x1="0%" x2="100%" y1="50%" y2="50%">
            <stop offset="0%" stop-color="#000014"/>
            <stop offset="100%" stop-color="#000014"/>
        </linearGradient>
        <linearGradient id="if7x9b7vzc" x1="50%" x2="50%" y1="0%" y2="100%">
            <stop offset="0%" stop-color="#454545"/>
            <stop offset="100%" stop-color="#101010"/>
        </linearGradient>
        <linearGradient id="oiksn14e7e" x1="50%" x2="50%" y1="0%" y2="100%">
            <stop offset="0%" stop-color="#FFF" stop-opacity=".16"/>
            <stop offset="100%" stop-color="#FFF" stop-opacity=".01"/>
        </linearGradient>
        <rect id="85d10mwk9a" width="28" height="20" x="5" y="8" rx="2.5"/>
    </defs>
    <g fill="none" fill-rule="evenodd">
        <mask id="x8r9azv5td" fill="#fff">
            <use xlink:href="#85d10mwk9a"/>
        </mask>
        <use fill="url(#pfppsnap4b)" xlink:href="#85d10mwk9a"/>
        <circle cx="29" cy="12" r="1" fill="url(#if7x9b7vzc)" mask="url(#x8r9azv5td)"/>
        <circle cx="25" cy="12" r="1" fill="url(#if7x9b7vzc)" mask="url(#x8r9azv5td)"/>
        <circle cx="21" cy="12" r="1" fill="url(#if7x9b7vzc)" mask="url(#x8r9azv5td)"/>
        <circle cx="17" cy="12" r="1" fill="url(#if7x9b7vzc)" mask="url(#x8r9azv5td)"/>
        <circle cx="29" cy="16" r="1" fill="url(#if7x9b7vzc)" mask="url(#x8r9azv5td)"/>
        <circle cx="25" cy="16" r="1" fill="url(#if7x9b7vzc)" mask="url(#x8r9azv5td)"/>
        <circle cx="21" cy="16" r="1" fill="url(#if7x9b7vzc)" mask="url(#x8r9azv5td)"/>
        <circle cx="17" cy="16" r="1" fill="url(#if7x9b7vzc)" mask="url(#x8r9azv5td)"/>
        <circle cx="13" cy="20" r="1" fill="url(#if7x9b7vzc)" mask="url(#x8r9azv5td)"/>
        <circle cx="9" cy="20" r="1" fill="url(#if7x9b7vzc)" mask="url(#x8r9azv5td)"/>
        <circle cx="13" cy="24" r="1" fill="url(#if7x9b7vzc)" mask="url(#x8r9azv5td)"/>
        <circle cx="9" cy="24" r="1" fill="url(#if7x9b7vzc)" mask="url(#x8r9azv5td)"/>
        <path fill="url(#oiksn14e7e)" d="M5 8L29 8 5 28z" mask="url(#x8r9azv5td)"/>
        <circle cx="9.5" cy="13.5" r="2.5" fill="#CDCCDB" fill-opacity=".3" fill-rule="nonzero" mask="url(#x8r9azv5td)"/>
        <rect width="10" height="5" x="19" y="20" fill="#3A63C6" fill-rule="nonzero" mask="url(#x8r9azv5td)" rx="2.5"/>
    </g>
</svg>
