<svg xmlns="http://www.w3.org/2000/svg" width="36" height="36" viewBox="0 0 36 36"><g fill="none" fill-rule="evenodd"><path d="M0 0h36v36H0z"/><path fill="#505A66" d="M23.1 11.92l7.077 6.518c.363.335.355.725-.015 1.034L23.1 25.386v-4.123h-11v2.21h8.8v2.212c0 2.441 1.514 3.152 3.382 1.588l7.289-6.102c1.392-1.166 1.438-3.123.093-4.362l-7.518-6.925C22.35 8.231 20.9 8.874 20.9 11.315v4.492h2.2V11.92z"/><path fill="#505A66" d="M9.48 10.906l.077.07.069.08c.316.41.32.996.005 1.407l-.086.099-1.295 1.326H17v2.223H8.371l1.163 1.193c.4.41.423 1.062.082 1.505l-.07.079-.077.071a1.08 1.08 0 01-1.467-.084L4.966 15.76a1.15 1.15 0 01-.293-1.052c.029-.177.1-.348.211-.496l.092-.107 3.037-3.115a1.08 1.08 0 011.467-.084zm.08 7.969l-.03.033.016-.02.014-.013zm-.02-7.917l.032.032-.015-.013-.016-.02z"/></g></svg>