<svg xmlns="http://www.w3.org/2000/svg" xmlns:xlink="http://www.w3.org/1999/xlink" width="36" height="36" viewBox="0 0 36 36"><defs><path id="operations-block-card-a" d="M26.727 9c1.715 0 3.17 1.504 3.268 3.193l.005.182v3.375h-2.182v-3.375c.003-.51-.473-1.048-.982-1.117l-.109-.008H9.273c-.566 0-1.028.437-1.085 1.002l-.006.123v11.25c-.003.58.422 1.057.971 1.118l.12.007h5.454V27H9.273c-1.748 0-3.172-1.409-3.268-3.184L6 23.625v-11.25c0-1.803 1.364-3.27 3.087-3.37L9.273 9h17.454zm-3.272 4.5c1.745 0 3.17 1.409 3.267 3.183l.005.192V18h2.182c.603 0 1.091.504 1.091 1.125v6.75c0 .621-.488 1.125-1.09 1.125H18c-.602 0-1.09-.504-1.09-1.125v-6.75c0-.621.488-1.125 1.09-1.125h2.181v-1.125c0-1.864 1.466-3.375 3.274-3.375zm4.363 6.75h-8.727v4.5h8.727v-4.5zm-4.363 1.125c.602 0 1.09.488 1.09 1.09v.07a1.09 1.09 0 11-2.181 0v-.07c0-.602.488-1.09 1.09-1.09zm0-5.625c-.563 0-1.026.439-1.085 1.002l-.006.123V18h2.181v-1.125c0-.621-.488-1.125-1.09-1.125zm-6.546-1.125v2.25h-6.545v-2.25h6.545z"/></defs><use fill="#F6650A" fill-rule="nonzero" xlink:href="#operations-block-card-a"/></svg>