<svg xmlns="http://www.w3.org/2000/svg" width="36" height="36" viewBox="0 0 36 36"><g fill="none" fill-rule="evenodd"><path d="M0 0h36v36H0z"/><path fill="#17B897" fill-rule="nonzero" d="M6 27v-2.538c.516.3 1.105.487 1.733.529l.272.009h19.99c.73 0 1.416-.195 2.006-.536L30 27c0 1.105-.897 2-2.005 2H8.005A2 2 0 016 27v-2.538zm21.995-15c1.107 0 2.005.9 2.005 1.992v7.016c0 1.1-.897 1.992-2.005 1.992H8.005C6.898 23 6 22.1 6 21.008v-7.016C6 12.892 6.897 12 8.005 12h19.99zM20 19h-4v2h4v-2z"/><path fill="#7D8894" d="M21 6a3 3 0 013 3v1.5h-2V9a1 1 0 00-1-1h-6a1 1 0 00-1 1v1.5h-2V9a3 3 0 013-3h6z"/></g></svg>