<svg xmlns="http://www.w3.org/2000/svg" xmlns:xlink="http://www.w3.org/1999/xlink" width="36" height="36" viewBox="0 0 36 36"><defs><path id="operations-card-income-a" d="M15.301 21.767l3.058 3.118c.279.284.376.685.295 1.051l-.009.05c-.034.164-.104.32-.21.457l-.086.1-3.059 3.117a1.093 1.093 0 01-1.477.084l-.075-.068-.072-.082a1.159 1.159 0 01-.004-1.408l.086-.099 1.264-1.29H6v-2.225h8.966l-1.208-1.232a1.156 1.156 0 01-.081-1.507l.067-.079.08-.071a1.093 1.093 0 011.477.084zM13.72 29.66l.018.016.014.017-.032-.033zm-.001-.001l.002.001h-.001l-.001-.001zM26.719 9C28.535 9 30 10.491 30 12.33v11.136c0 1.837-1.465 3.33-3.271 3.33h-5.456v-2.224h5.456a1.1 1.1 0 001.09-1.106V12.33a1.1 1.1 0 00-1.1-1.105H9.28c-.606 0-1.1.503-1.1 1.118v7.78H6v-7.78C6 10.5 7.47 9 9.281 9H26.72zM13.763 21.735l-.019.02-.013.011.032-.031zm11.873-6.061v2.224H10.364v-2.224h15.272z"/></defs><use fill="#08A652" fill-rule="nonzero" xlink:href="#operations-card-income-a"/></svg>