<svg xmlns="http://www.w3.org/2000/svg" xmlns:xlink="http://www.w3.org/1999/xlink" width="36" height="36" viewBox="0 0 36 36"><defs><linearGradient id="operations-card-visa-digital-b" x1="29.968%" y1="50%" y2="50%"><stop offset="0%" stop-color="#19B7EB"/><stop offset="100%" stop-color="#000014"/></linearGradient><linearGradient id="operations-card-visa-digital-d" x1="25.396%" y1="50%" y2="50%"><stop offset="0%" stop-color="#99CA1A"/><stop offset="100%" stop-color="#000014"/></linearGradient><linearGradient id="operations-card-visa-digital-e" x1="0%" y1="50%" y2="50%"><stop offset="0%" stop-color="#C442EE"/><stop offset="100%" stop-color="#000014"/></linearGradient><linearGradient id="operations-card-visa-digital-f" x1="0%" y1="50%" y2="50%"><stop offset="0%" stop-color="#C442EE"/><stop offset="100%" stop-color="#000014"/></linearGradient><linearGradient id="operations-card-visa-digital-g" x1="29.968%" y1="50%" y2="50%"><stop offset="0%" stop-color="#1967EB"/><stop offset="100%" stop-color="#000014"/></linearGradient><linearGradient id="operations-card-visa-digital-h" x1="25.396%" y1="50%" y2="50%"><stop offset="0%" stop-color="#CA1A91"/><stop offset="100%" stop-color="#000014"/></linearGradient><linearGradient id="operations-card-visa-digital-i" x1="0%" y1="50%" y2="50%"><stop offset="0%" stop-color="#14D133"/><stop offset="100%" stop-color="#000014"/></linearGradient><linearGradient id="operations-card-visa-digital-j" x1="29.968%" y1="50%" y2="50%"><stop offset="0%" stop-color="#1967EB"/><stop offset="100%" stop-color="#000014"/></linearGradient><linearGradient id="operations-card-visa-digital-k" x1="21.946%" y1="50%" y2="50%"><stop offset="0%" stop-color="#CFDE18"/><stop offset="100%" stop-color="#000014"/></linearGradient><rect id="operations-card-visa-digital-a" width="28" height="20" rx="2.5"/></defs><g fill="none" fill-rule="evenodd"><g transform="translate(4 8)"><mask id="operations-card-visa-digital-c" fill="#fff"><use xlink:href="#operations-card-visa-digital-a"/></mask><use fill="#000014" xlink:href="#operations-card-visa-digital-a"/><rect width="13" height="5" x="5" y="16" fill="url(#operations-card-visa-digital-b)" mask="url(#operations-card-visa-digital-c)" rx="2"/><path fill="url(#operations-card-visa-digital-d)" d="M10 12h10a2 2 0 012 2v1a2 2 0 01-2 2H10a2 2 0 01-2-2v-1a2 2 0 012-2z" mask="url(#operations-card-visa-digital-c)"/><rect width="15" height="5" x="15" y="15" fill="url(#operations-card-visa-digital-e)" mask="url(#operations-card-visa-digital-c)" rx="2"/><path fill="url(#operations-card-visa-digital-f)" d="M15 0h10a2 2 0 012 2v1a2 2 0 01-2 2H15a2 2 0 01-2-2V2a2 2 0 012-2z" mask="url(#operations-card-visa-digital-c)"/><path fill="url(#operations-card-visa-digital-g)" d="M14 9h5a2 2 0 012 2v1a2 2 0 01-2 2h-5a2 2 0 01-2-2v-1a2 2 0 012-2z" mask="url(#operations-card-visa-digital-c)"/><rect width="15" height="5" x="15" y="7" fill="url(#operations-card-visa-digital-h)" mask="url(#operations-card-visa-digital-c)" rx="2"/><rect width="12" height="5" x="18" y="11" fill="url(#operations-card-visa-digital-i)" mask="url(#operations-card-visa-digital-c)" rx="2"/><rect width="13" height="5" x="17" y="3" fill="url(#operations-card-visa-digital-j)" mask="url(#operations-card-visa-digital-c)" rx="2"/><rect width="10" height="5" x="20" y="-1" fill="url(#operations-card-visa-digital-k)" mask="url(#operations-card-visa-digital-c)" rx="2"/></g><circle cx="9.5" cy="13.5" r="2.5" fill="#FFF" fill-opacity=".5" fill-rule="nonzero"/></g></svg>