<?xml version="1.0" encoding="UTF-8"?>
<svg width="36px" height="36px" viewBox="0 0 36 36" version="1.1" xmlns="http://www.w3.org/2000/svg" xmlns:xlink="http://www.w3.org/1999/xlink">
    <!-- Generator: Sketch 61 (89581) - https://sketch.com -->
    <title>chat_bank</title>
    <desc>Created with Sketch.</desc>
    <g id="chat_bank" stroke="none" stroke-width="1" fill="none" fill-rule="evenodd">
        <g id="Icons/Products/Global/ic_support" transform="translate(6.000000, 6.000000)">
            <path d="M23.9977,12.2457 C23.8707,18.5247 18.7007,23.7757 12.4237,23.9927 C5.6107,24.2277 -0.0003,18.7707 -0.0003,11.9997 C-0.0003,5.3707 5.3797,-0.0003 11.9997,-0.0003 C12.8917,-0.0003 13.7607,0.0977 14.5977,0.2817 C17.1407,0.8417 19.7657,0.9207 22.2807,0.2467 L22.8297,0.0997 C23.4397,0.0497 23.9597,0.5597 23.9097,1.1797 L23.7607,1.7347 C23.0927,4.2177 23.1227,6.8167 23.6977,9.3227 C23.9127,10.2607 24.0177,11.2397 23.9977,12.2457" id="Fill-1" stroke="#08A652" stroke-width="2" fill-rule="nonzero" transform="translate(11.999904, 11.999858) scale(1, -1) translate(-11.999904, -11.999858) "></path>
            <g id="Group-3" transform="translate(8.500000, 5.500000)" fill="#545461">
                <path d="M3.6924,10.2101 C4.5924,10.2101 5.1524,10.7701 5.1524,11.6201 C5.1524,12.4601 4.5924,13.0201 3.6924,13.0201 C2.8124,13.0201 2.2324,12.4601 2.2324,11.6201 C2.2324,10.7701 2.8124,10.2101 3.6924,10.2101 Z M3.9424,9.99999997e-05 C6.3524,9.99999997e-05 7.9624,1.3901 7.9624,3.3301 C7.9624,4.6801 7.2924,5.6201 6.0924,6.3301 C4.9424,7.0101 4.6224,7.10984657 4.6224,7.97984657 C4.6224,8.15984657 4.5724,8.32984657 4.4824,8.47984657 C4.3124,8.78984657 3.9824,8.99984657 3.5924,8.99984657 C3.2024,8.99984657 2.8724,8.78984657 2.7024,8.47984657 C2.6424,8.38984657 2.6024,8.28984657 2.5824,8.17984657 L2.5724,8.11984657 L2.5724,8.11984657 C2.5624,8.07984657 2.5624,8.02984657 2.5624,7.97984657 L2.5624,7.56984657 C2.5824,6.42984657 3.1024,6.0601 4.2124,5.4101 C5.3024,4.7501 5.6724,4.2801 5.6724,3.4101 C5.6724,2.5001 4.9324,1.8401 3.8324,1.8401 C2.9424,1.8401 2.3124,2.2501 2.0324,2.9401 C1.8824,3.3201 1.5624,3.6001 1.1524,3.6001 L0.9324,3.6001 C0.2924,3.6001 -0.1576,2.9701 0.0524,2.3701 C0.5524,0.9501 1.8824,9.99999997e-05 3.9424,9.99999997e-05 Z" id="Combined-Shape"></path>
            </g>
        </g>
    </g>
</svg>