<svg xmlns="http://www.w3.org/2000/svg" xmlns:xlink="http://www.w3.org/1999/xlink" width="36" height="36" viewBox="0 0 36 36"><defs><path id="operations-coinbox-a" d="M28.906 26.81c.564 0 1.028.423 1.088.975l.006.12C30 28.51 29.51 29 28.906 29H7.094a1.095 1.095 0 110-2.19h21.812zM18 6c6.627 0 12 5.394 12 12.048 0 2.424-.713 4.682-1.941 6.572h-2.742a9.842 9.842 0 002.501-6.572c0-5.444-4.396-9.858-9.818-9.858s-9.818 4.414-9.818 9.858c0 2.525.946 4.828 2.5 6.572h-2.74A12.026 12.026 0 016 18.048C6 11.394 11.373 6 18 6zm.573 6.571c.687 0 1.27.098 1.751.292.48.195.87.452 1.173.772.302.32.521.694.66 1.12a4.275 4.275 0 010 2.626c-.137.408-.363.78-.66 1.088-.302.315-.694.564-1.174.748-.48.185-1.063.276-1.75.276h-.857v1.199h2.698v.002a.802.802 0 01.78.812.817.817 0 01-.25.592.783.783 0 01-.593.218h-2.637v1.178c.029.287-.063.573-.252.787a.992.992 0 01-.74.338 1.012 1.012 0 01-.999-1.01h-.001v-1.293h-1.24a.783.783 0 01-.595-.218.819.819 0 01-.25-.592.82.82 0 01.239-.58.784.784 0 01.572-.232v-.002h1.274v-1.199h-1.203a.812.812 0 01-.621-.223.85.85 0 01-.262-.617.832.832 0 01.811-.844v-.003h1.274V13.01c.002-.292.122-.439.358-.439h2.494zm-.198 1.64h-.658v3.595h.659c.276 0 .535-.024.775-.07.24-.048.452-.135.636-.261a1.23 1.23 0 00.43-.528c.102-.226.153-.517.153-.876 0-.356-.05-.656-.153-.898a1.395 1.395 0 00-.43-.576 1.668 1.668 0 00-.637-.299 3.306 3.306 0 00-.775-.086z"/></defs><use fill="#505A66" fill-rule="evenodd" xlink:href="#operations-coinbox-a"/></svg>