<svg xmlns="http://www.w3.org/2000/svg" xmlns:xlink="http://www.w3.org/1999/xlink" width="36" height="36" viewBox="0 0 36 36"><defs><path id="operations-credit-potenc-a" d="M21.995 4A2 2 0 0124 6v13c0 1.105-.897 2-2.005 2H2.005A2 2 0 010 19V6c0-1.105.897-2 2.005-2h19.99zM15.5 15a1.5 1.5 0 100 3 1.5 1.5 0 000-3zm.707-6.207a1 1 0 00-1.414 0l-7.003 7a1 1 0 001.414 1.414l7.003-7a1 1 0 000-1.414zM8.5 8a1.5 1.5 0 100 3 1.5 1.5 0 000-3z"/></defs><g fill="none" fill-rule="evenodd" transform="translate(6 7)"><path fill="#7D8894" d="M2 2v17h-.005H3v2H1.995A2 2 0 010 19.005V1.995A2 2 0 011.995 0H21v2H2z"/><use fill="#4C63B6" fill-rule="nonzero" xlink:href="#operations-credit-potenc-a"/></g></svg>