<svg xmlns="http://www.w3.org/2000/svg" xmlns:xlink="http://www.w3.org/1999/xlink" width="36" height="36" viewBox="0 0 36 36"><defs><path id="operations-estate-a" d="M18 10l11 6.009v11.533A3.456 3.456 0 0125.55 31h-15.1A3.454 3.454 0 017 27.542V16.009L18 10zm3.003 7h-6.006c-.505 0-.932.385-.99.88l-.007.117v6.006c0 .505.385.932.88.99l.117.007h6.006c.505 0 .932-.385.99-.88l.007-.117v-6.006c0-.544-.446-.997-.997-.997zM20 19v4h-4v-4h4z"/><path id="operations-estate-b" d="M18 7.158L6.504 13.864a1 1 0 01-1.008-1.728l12-7a1 1 0 011.008 0l12.002 7a1 1 0 11-1.007 1.728L18 7.158z"/></defs><g fill="none" fill-rule="evenodd"><path d="M0 0h36v36H0z"/><use fill="#4C63B6" fill-rule="nonzero" xlink:href="#operations-estate-a"/><use fill="#7D8894" xlink:href="#operations-estate-b"/></g></svg>