<svg xmlns="http://www.w3.org/2000/svg" xmlns:xlink="http://www.w3.org/1999/xlink" width="36" height="36" viewBox="0 0 36 36"><defs><path id="gear1" d="M10.71 0c.198 0 .385.147.422.332l.369 1.937a7.56 7.56 0 012.216 1.183l1.914-.703a.454.454 0 01.523.166l1.787 2.793a.409.409 0 01-.08.518L16.334 7.53c.103.475.161.968.161 1.47s-.058.988-.16 1.464l1.526 1.304a.409.409 0 01.08.518l-1.787 2.793a.454.454 0 01-.523.166l-1.914-.703A7.574 7.574 0 0111.5 15.73l-.369 1.93a.437.437 0 01-.421.339H7.283a.437.437 0 01-.422-.339l-.368-1.937a7.569 7.569 0 01-2.21-1.188l-1.921.709a.453.453 0 01-.516-.166L.06 12.286a.409.409 0 01.08-.518l1.533-1.298A6.803 6.803 0 011.498 9c0-.506.07-1 .174-1.477L.14 6.226a.409.409 0 01-.08-.518l1.787-2.793a.453.453 0 01.516-.166l1.921.71a7.555 7.555 0 012.21-1.19L6.86.332A.46.46 0 017.283 0zM9.079 5.953a3.277 3.277 0 00-3.273 3.272 3.277 3.277 0 003.273 3.273 3.277 3.277 0 003.272-3.273 3.277 3.277 0 00-3.272-3.272z"/></defs><use fill="#505A66" fill-rule="evenodd" transform="translate(9 9)" xlink:href="#gear1"/></svg>
