<?xml version="1.0" encoding="UTF-8"?>
<svg width="36px" height="36px" viewBox="0 0 36 36" version="1.1" xmlns="http://www.w3.org/2000/svg" xmlns:xlink="http://www.w3.org/1999/xlink">
    <g stroke="none" stroke-width="1" fill="none" fill-rule="evenodd">
        <g transform="translate(8.000000, 6.000000)" fill="#08A652">
            <path d="M19.0003,0.0001 C19.5525847,0.0001 20.0003,0.44781525 20.0003,1.0001 L20.0003,13.2931 C20.0003,16.561442 18.2282528,19.5729879 15.3709581,21.1602488 L10.4859581,23.8742488 C10.1839547,24.0420354 9.81673582,24.0420513 9.51471783,23.874291 L4.62854015,21.1601923 C1.77207945,19.5727697 0.0003,16.5611495 0.0003,13.2931 L0.0003,1.0001 C0.0003,0.44781525 0.44801525,0.0001 1.0003,0.0001 L19.0003,0.0001 Z M2.0003,2.0001 L2.0003,13.2931 C2.0003,15.8349104 3.37839809,18.1773623 5.59988217,19.411909 L10.0002503,21.8561577 L14.3996863,19.4119265 C16.6220583,18.1773726 18.0003,15.8350884 18.0003,13.2931 L18.0003,2.0001 L2.0003,2.0001 Z M4,5 L4,11 C4,11.5522847 4.44771525,12 5,12 C5.55228475,12 6,11.5522847 6,11 L6,5.99928284 L11.0003586,5.99928284 C11.5524453,5.99928284 12,5.55172813 12,4.99964142 C12,4.44755471 11.5524453,4 11.0003586,4 C9.00023905,4 7.00011953,4 5,4 C4.44771525,4 4,4.44771525 4,5 Z"></path>
        </g>
    </g>
</svg>
