<svg xmlns="http://www.w3.org/2000/svg" xmlns:xlink="http://www.w3.org/1999/xlink" width="36" height="36" viewBox="0 0 36 36"><defs><path id="operations-payandtrasf-otherbank-a" d="M25.006 4A2.996 2.996 0 0128 6.99v19.02c0 1.65-1.34 2.99-2.995 2.99H23v-2h2.005c.55 0 .995-.444.995-.99V6.99a.996.996 0 00-.994-.99H10.994A.999.999 0 0010 7v16H8V7c0-1.657 1.343-3 2.994-3h14.012zm-6.009 11a1 1 0 01.996.883L20 16c0 .552-.438 1-1.003 1h-4.994A.999.999 0 0113 16c0-.552.438-1 1.003-1h4.994zm3.008-5c.51 0 .93.383.988.883L23 11c0 .552-.456 1-.995 1h-8.01A.995.995 0 0113 11c0-.552.456-1 .995-1h8.01z"/></defs><g fill="none" fill-rule="evenodd"><path d="M0 0h36v36H0z"/><use fill="#08A652" fill-rule="nonzero" xlink:href="#operations-payandtrasf-otherbank-a"/><path fill="#505A66" d="M16.76 24.301l2.95 2.95c.255.255.349.612.278.941a1.036 1.036 0 01-.201.459l-.087.098-2.95 2.95a1.036 1.036 0 01-1.36.083l-.097-.086-.086-.098a1.027 1.027 0 01-.002-1.262l.085-.097 1.239-1.24L8 29v-2h8.539L15.3 25.76c-.37-.37-.4-.953-.083-1.36l.086-.097a1.035 1.035 0 011.457-.003z"/></g></svg>