<svg xmlns="http://www.w3.org/2000/svg" xmlns:xlink="http://www.w3.org/1999/xlink" width="36" height="36" viewBox="0 0 36 36"><defs><path id="operations-pensions-a" d="M25.154 7c1.337 0 1.822.14 2.311.4.49.262.873.646 1.134 1.135.262.489.401.974.401 2.31V18c0 6.075-4.925 11-11 11h-7.154c-1.337 0-1.822-.14-2.311-.4A2.726 2.726 0 017.4 27.464c-.262-.489-.401-.974-.401-2.31V18c0-6.075 4.925-11 11-11h7.154zm0 2.2H18A8.8 8.8 0 009.2 18v7.154c0 .887.037 1.08.14 1.274a.528.528 0 00.232.231c.194.104.387.141 1.274.141H18a8.8 8.8 0 008.8-8.8v-7.154c0-.887-.037-1.08-.14-1.274a.528.528 0 00-.232-.231c-.194-.104-.387-.141-1.274-.141zm-4.404 9.9a1.65 1.65 0 110 3.3 1.65 1.65 0 010-3.3zm1.328-5.178a1.1 1.1 0 010 1.556l-6.6 6.6a1.1 1.1 0 01-1.556-1.556l6.6-6.6a1.1 1.1 0 011.556 0zM15.25 13.6a1.65 1.65 0 110 3.3 1.65 1.65 0 010-3.3z"/></defs><use fill="#505A66" fill-rule="evenodd" xlink:href="#operations-pensions-a"/></svg>