<svg xmlns="http://www.w3.org/2000/svg" xmlns:xlink="http://www.w3.org/1999/xlink" width="36" height="36" viewBox="0 0 36 36"><defs><path id="operations-pfm-a" d="M0 .29h7.07v6.75H0z"/><path id="operations-pfm-c" d="M0 .04h10.96V11H0z"/><path id="operations-pfm-e" d="M.96.93h6.75V8H.96z"/></defs><g fill="none" fill-rule="evenodd"><path d="M0 0h36v36H0z"/><g transform="translate(6 9.92)"><mask id="operations-pfm-b" fill="#fff"><use xlink:href="#operations-pfm-a"/></mask><path fill="#52B2E1" d="M6.05 7.04H0C.21 4.47 1.22 2.14 2.79.29l4.28 4.28a5.82 5.82 0 00-1.02 2.47" mask="url(#operations-pfm-b)"/></g><path fill="#6F7888" d="M10.21 8.79c1.85-1.57 4.18-2.58 6.75-2.79v6.05c-.91.15-1.75.5-2.47 1.02l-4.28-4.28z"/><g transform="translate(6 18.92)"><mask id="operations-pfm-d" fill="#fff"><use xlink:href="#operations-pfm-c"/></mask><path fill="#FFBF00" d="M10.96 4.95V11C5.13 10.52.48 5.87 0 .04h6.05c.42 2.51 2.4 4.49 4.91 4.91" mask="url(#operations-pfm-d)"/></g><g transform="translate(18 21.92)"><mask id="operations-pfm-f" fill="#fff"><use xlink:href="#operations-pfm-e"/></mask><path fill="#FF8A1F" d="M3.43.93l4.28 4.28A11.893 11.893 0 01.96 8V1.95c.91-.15 1.75-.5 2.47-1.02" mask="url(#operations-pfm-f)"/></g><path fill="#19BB4F" d="M29.96 17.96c0 2.96-1.06 5.66-2.83 7.75l-4.28-4.28a5.99 5.99 0 00-3.89-9.38V6c6.16.51 11 5.67 11 11.96"/></g></svg>