<svg xmlns="http://www.w3.org/2000/svg" xmlns:xlink="http://www.w3.org/1999/xlink" width="36" height="36" viewBox="0 0 36 36"><defs><rect id="phone1" width="3" height="3" x="7" y="19" rx="1.5"/><path id="phone2" d="M3 2a1 1 0 00-1 1v21a1 1 0 001 1h11a1 1 0 001-1V3a1 1 0 00-1-1H3zm0-2h11a3 3 0 013 3v21a3 3 0 01-3 3H3a3 3 0 01-3-3V3a3 3 0 013-3z"/></defs><g fill="none" fill-rule="evenodd" transform="translate(10 5)"><use fill="#08A652" fill-rule="nonzero" xlink:href="#phone2"/><use fill="#505A66" xlink:href="#phone1"/></g></svg>
