<svg xmlns="http://www.w3.org/2000/svg" xmlns:xlink="http://www.w3.org/1999/xlink" width="36" height="36" viewBox="0 0 36 36"><defs><path id="operations-target-ghost-a" d="M17.585 24.117l-6.41 2.552c-1.536.612-2.289-.131-1.674-1.675l2.552-6.409-3.781-7.903c-.714-1.493-.077-2.121 1.41-1.41l7.903 3.78 6.41-2.551c1.536-.612 2.289.131 1.674 1.675l-2.552 6.409 3.781 7.903c.714 1.493.077 2.122-1.41 1.41l-7.903-3.78z"/><path id="operations-target-ghost-b" d="M27 4c.552 0 1 .453 1 .997V7h2.003c.511 0 .933.383.99.883L31 8c0 .552-.453 1-.997 1H28v2.003a.995.995 0 01-.883.99L27 12c-.552 0-1-.453-1-.997V9h-2.003a.995.995 0 01-.99-.883L23 8c0-.552.453-1 .997-1H26V4.997c0-.511.383-.933.883-.99L27 4z"/></defs><g fill="none" fill-rule="evenodd"><path d="M0 0h36v36H0z"/><use fill="#B7BEC6" transform="rotate(45 17.585 18.585)" xlink:href="#operations-target-ghost-a"/><use fill="#7D8894" xlink:href="#operations-target-ghost-b"/></g></svg>