<svg xmlns="http://www.w3.org/2000/svg" width="36" height="36" viewBox="0 0 36 36"><g fill="none" fill-rule="evenodd"><path d="M0 0h36v36H0z"/><path fill="#505A66" d="M26.621 27.07c.002-.002 1.836.786 1.839.786C26.757 30.416 23.832 34 17.69 34c-.012 0-.005-1.988 0-1.998 3.623.163 6.064-1.16 8.931-4.933zM18 6.266c4.322 0 7.826 3.59 7.826 8.01v5.278l-2-.06v-5.218c0-3.328-2.62-6.01-5.826-6.01-3.202 0-5.826 2.683-5.826 6.008v4.809h-2v-4.81c0-4.422 3.513-8.007 7.826-8.007z"/><path fill="#08A652" fill-rule="nonzero" d="M18 2c6.627 0 12 5.501 12 12.258v7.484c0 1.417-.235 2.778-.668 4.044l-1.893-.647c.37-1.08.561-2.224.561-3.397v-7.484C28 8.59 23.508 4 18 4 12.486 4 8 8.583 8 14.258v7.484c0 4.834 3.298 8.985 7.83 10.015l-.444 1.95C10.016 32.488 6 27.585 6 21.743v-7.484C6 7.488 11.371 2 18 2zm-7.826 19.729l2 .002c0 3.325 2.619 6.002 5.826 6.002 3.13 0 5.707-2.556 5.822-5.765l.004-.225h2c0 4.413-3.513 7.99-7.826 7.99-4.322 0-7.826-3.583-7.826-8.004zM18 10.533c2.017 0 3.652 1.67 3.652 3.73v7.474c0 2.06-1.64 3.73-3.652 3.73-2.017 0-3.652-1.67-3.652-3.73V18h2v3.737c0 .965.749 1.73 1.652 1.73.9 0 1.652-.767 1.652-1.73v-7.474c0-.965-.749-1.73-1.652-1.73-.9 0-1.652.767-1.652 1.73v.542h-2v-.542c0-2.06 1.64-3.73 3.652-3.73z"/></g></svg>