<svg xmlns="http://www.w3.org/2000/svg" width="36" height="36"><g fill="none" fill-rule="evenodd"><path d="M0 0h36v36H0z"/><path fill="#FFF" d="M9 15h18v12H9z"/><path d="M0 0h36v36H0z"/><path fill="#9156E6" fill-rule="nonzero" d="M6 14c0-1.105.897-2 2.005-2h19.99A2 2 0 0130 14v13c0 1.105-.897 2-2.005 2H8.005A2 2 0 016 27V14zm11.965 9.648a1 1 0 001.31-.132l5.455-5.833a1 1 0 00-1.46-1.366l-4.857 5.194-2.56-1.825a1 1 0 00-1.31.131l-3.273 3.5a1 1 0 001.46 1.366l2.675-2.86 2.56 1.825z"/><path stroke="#FFF" stroke-width="2" d="M13 9.6h10v-.908C23 7.785 22.127 7 21.003 7h-6.006C13.871 7 13 7.782 13 8.69v.91z" opacity=".4"/></g></svg>