<svg xmlns="http://www.w3.org/2000/svg" width="36" height="36" viewBox="0 0 36 36"><g fill="none" fill-rule="evenodd"><path d="M0 0h36v36H0z"/><g transform="translate(5 5)"><g transform="translate(2 5)"><mask id="products-loan-mortgage-loan-mortgage-g" fill="#fff"><path d="M0 6.009L11 0l11 6.009v11.533A3.456 3.456 0 0118.55 21H3.45A3.454 3.454 0 010 17.542V6.009zm7 1.988v6.006c0 .544.446.997.997.997h6.006c.544 0 .997-.446.997-.997V7.997c0-.544-.446-.997-.997-.997H7.997C7.453 7 7 7.446 7 7.997zM9 9h4v4H9V9z"/></mask><path d="M0 6.009L11 0l11 6.009v11.533A3.456 3.456 0 0118.55 21H3.45A3.454 3.454 0 010 17.542V6.009zm7 1.988v6.006c0 .544.446.997.997.997h6.006c.544 0 .997-.446.997-.997V7.997c0-.544-.446-.997-.997-.997H7.997C7.453 7 7 7.446 7 7.997zM9 9h4v4H9V9z"/><g class="repaint" fill="#4c63b6" fill-rule="nonzero" mask="url(#products-loan-mortgage-loan-mortgage-g)"><path d="M-7-10h36v36H-7z"/></g></g><mask id="products-loan-mortgage-loan-mortgage-d" fill="#fff"><path d="M13 2.158L1.504 8.864A1 1 0 01.496 7.136l12-7a1 1 0 011.008 0l12.002 7A1 1 0 0124.5 8.864L13 2.158z"/></mask><path d="M13 2.158L1.504 8.864A1 1 0 01.496 7.136l12-7a1 1 0 011.008 0l12.002 7A1 1 0 0124.5 8.864L13 2.158z"/><g fill="#95a6af" fill-rule="nonzero" mask="url(#products-loan-mortgage-loan-mortgage-d)"><path d="M-5-5h36v36H-5z"/></g></g></g></svg>