<svg xmlns="http://www.w3.org/2000/svg" width="36" height="36" viewBox="0 0 36 36"><g fill="none" fill-rule="nonzero"><path fill="#95a6af" d="M8 26v2h-.005A2 2 0 016 26.005V8.995A2 2 0 017.995 7H27v2H8v-.005V9h-.005H8v17h-.005H8z"/><path class="repaint" fill="#4C63B6" d="M6 13c0-1.105.897-2 2.005-2h19.99A2 2 0 0130 13v13c0 1.105-.897 2-2.005 2H8.005A2 2 0 016 26V13zm9.204 11.207l7.003-7a1 1 0 00-1.414-1.414l-7.003 7a1 1 0 001.414 1.414zM21.5 25a1.5 1.5 0 100-3 1.5 1.5 0 000 3zm-7-7a1.5 1.5 0 100-3 1.5 1.5 0 000 3z"/></g></svg>