<svg xmlns="http://www.w3.org/2000/svg" width="36" height="36" viewBox="0 0 36 36"><g fill="none" fill-rule="nonzero"><path fill="#4D5967" d="M6.002 23h4a1 1 0 011 1v4a1 1 0 01-1 1h-4a1 1 0 01-1-1v-4a1 1 0 011-1zm20 0h4a1 1 0 011 1v4a1 1 0 01-1 1h-4a1 1 0 01-1-1v-4a1 1 0 011-1z"/><path class="repaint" fill="#4C63B6" id="products-loan-auto-loan-auto" d="M5.345 16H4.32l-.249-.634A1 1 0 015.001 14h1.677l.552.468 1.472-3.437A5 5 0 0113.298 8h9.404a5 5 0 014.596 3.031l1.484 3.465.611-.496h1.605a1 1 0 01.931 1.366l-.25.634h-1.024a2.66 2.66 0 01.845 1.932v7.032l-.02.223c-.284 1.632-1.938 1.79-8.501 1.812l-.233.001-2.134-.68h-5.224l-2.134.68h-.233c-6.563-.024-8.217-.181-8.502-1.813l-.019-.223v-7.032c0-.74.314-1.431.845-1.932zm8.294-6a3 3 0 00-2.84 2.031L10 14.375a2.68 2.68 0 001.72.625h12.983a2.68 2.68 0 001.72-.625l-.8-2.344A3 3 0 0022.783 10H13.64zm10.73 9.495a1 1 0 00-.869.991V22h5a1 1 0 001-1v-1.045a1 1 0 00-1.132-.991l-4 .53zm-16.737-.532a1 1 0 00-1.132.992V21a1 1 0 001 1h5v-1.514a1 1 0 00-.868-.991l-4-.532z"/></g></svg>