<svg xmlns="http://www.w3.org/2000/svg" xmlns:xlink="http://www.w3.org/1999/xlink" width="36" height="36" viewBox="0 0 36 36">
    <defs>
        <linearGradient id="4kzgxkrt5b" x1="2.185%" x2="84.975%" y1="25.802%" y2="75.51%">
            <stop offset="0%" stop-color="#DEDEEC"/>
            <stop offset="36.041%" stop-color="#D8D7D7"/>
            <stop offset="73.334%" stop-color="#C8C8C8"/>
            <stop offset="100%" stop-color="#DCDCDC"/>
        </linearGradient>
        <rect id="xgrbmh1nra" width="28" height="20" x="4" y="8" rx="2.5"/>
    </defs>
    <g fill="none" fill-rule="evenodd">
        <mask id="moc9jwjyvc" fill="#fff">
            <use xlink:href="#xgrbmh1nra"/>
        </mask>
        <use fill="url(#4kzgxkrt5b)" xlink:href="#xgrbmh1nra"/>
        <path fill="#279D88" fill-rule="nonzero" d="M4 15.229L11.02 19.118 32 7 32 11.877 11.005 24 4 20.106z" mask="url(#moc9jwjyvc)"/>
        <g mask="url(#moc9jwjyvc)">
            <g fill-rule="nonzero" transform="translate(19 20)">
                <rect width="7" height="5" x="3" fill="#F79E1B" rx="2.5"/>
                <rect width="7" height="5" fill="#EB001B" rx="2.5"/>
                <path fill="#FF5F00" d="M7 2.5c0 1.21-.859 2.218-2 2.45-1.14-.231-2-1.24-2-2.45C3 1.29 3.86.281 5 .05 6.142.282 7 1.29 7 2.5z"/>
            </g>
        </g>
        <circle cx="9.5" cy="13.5" r="2.5" fill="#FFF" fill-opacity=".5" fill-rule="nonzero" mask="url(#moc9jwjyvc)"/>
    </g>
</svg>
