<svg xmlns="http://www.w3.org/2000/svg" xmlns:xlink="http://www.w3.org/1999/xlink" width="36" height="36" viewBox="0 0 36 36">
    <defs>
        <linearGradient id="r93be6vzpb" x1="50%" x2="50.001%" y1="24.49%" y2="75.51%">
            <stop offset="0%" stop-color="#F9E3BA"/>
            <stop offset="45.357%" stop-color="#F7DCA7"/>
            <stop offset="70.661%" stop-color="#DBAE4F"/>
            <stop offset="100%" stop-color="#848F4D"/>
        </linearGradient>
        <linearGradient id="ph9xi22e5d" x1="50%" x2="50%" y1="0%" y2="100%">
            <stop offset="0%" stop-color="#FFF" stop-opacity=".3"/>
            <stop offset="100%" stop-color="#FFF" stop-opacity=".01"/>
        </linearGradient>
        <radialGradient id="0h57jzissc" cx="50%" cy="50.119%" r="45.219%" fx="50%" fy="50.119%" gradientTransform="matrix(0 1 -.73304 0 .867 .001)">
            <stop offset="0%" stop-color="#FFF" stop-opacity=".846"/>
            <stop offset="100%" stop-color="#FFF" stop-opacity="0"/>
        </radialGradient>
        <rect id="q5nr7f91ea" width="28" height="20" x="4" y="8" rx="2.5"/>
    </defs>
    <g fill="none" fill-rule="evenodd">
        <mask id="2mhf4ye5ke" fill="#fff">
            <use xlink:href="#q5nr7f91ea"/>
        </mask>
        <use fill="url(#r93be6vzpb)" xlink:href="#q5nr7f91ea"/>
        <use fill="url(#0h57jzissc)" xlink:href="#q5nr7f91ea"/>
        <path fill="url(#ph9xi22e5d)" d="M4 8L28 8 4 28z" mask="url(#2mhf4ye5ke)"/>
        <circle cx="9.5" cy="13.5" r="2.5" fill="#FFF" fill-opacity=".6" fill-rule="nonzero" mask="url(#2mhf4ye5ke)"/>
        <g mask="url(#2mhf4ye5ke)">
            <g fill-rule="nonzero" transform="translate(19 20)">
                <rect width="7" height="5" x="3" fill="#0099DF" rx="2.5"/>
                <rect width="7" height="5" fill="#EB001B" rx="2.5"/>
                <path fill="#6C6BBD" d="M7 2.5c0 1.21-.859 2.218-2 2.45-1.14-.231-2-1.24-2-2.45C3 1.29 3.86.281 5 .05 6.142.282 7 1.29 7 2.5z"/>
            </g>
        </g>
    </g>
</svg>
