<svg width="36" height="36" xmlns="http://www.w3.org/2000/svg" xmlns:xlink="http://www.w3.org/1999/xlink"><defs><path d="M7 10.994v14.012c0 .545.45.994 1.008.994h19.984A.999.999 0 0029 25.006V10.994c0-.545-.45-.994-1.008-.994H8.008A.999.999 0 007 10.994zm-2 0A2.999 2.999 0 018.008 8h19.984A3.003 3.003 0 0131 10.994v14.012A2.999 2.999 0 0127.992 28H8.008A3.003 3.003 0 015 25.006V10.994z" id="a"/></defs><g fill="none" fill-rule="evenodd"><use fill="#2D2D2D" fill-rule="nonzero" xlink:href="#a"/><path fill="#505A66" d="M9 14h18v2H9z"/></g></svg>
