<svg width="36px" height="36px" viewBox="0 0 36 36" xmlns="http://www.w3.org/2000/svg">
    <path class="repaint" fill="#2CB1BC" d="M18,7 L26,7 C27.6568542,7 29,8.34314575 29,10 L29,18 C29,24.0751322 24.0751322,29 18,29 L10,29 C8.34314575,29 7,27.6568542 7,26 L7,18 C7,11.9248678 11.9248678,7 18,7 Z"/>
    <path fill="#FFFFFF" d="M21.5,20 C22.3284271,20 23,20.6715729 23,21.5 C23,22.3284271 22.3284271,23 21.5,23 C20.6715729,23 20,22.3284271 20,21.5 C20,20.6715729 20.6715729,20 21.5,20 Z M22.2072609,13.7930473 C22.5977,14.1836567 22.5975621,14.8168217 22.2069527,15.2072609 L15.2039009,22.2072609 C14.8132915,22.5977 14.1801265,22.5975621 13.7896874,22.2069527 C13.3992482,21.8163433 13.3993862,21.1831783 13.7899956,20.7927391 L20.7930473,13.7927391 C21.1836567,13.4023 21.8168217,13.4024379 22.2072609,13.7930473 Z M14.5,13 C15.3284271,13 16,13.6715729 16,14.5 C16,15.3284271 15.3284271,16 14.5,16 C13.6715729,16 13,15.3284271 13,14.5 C13,13.6715729 13.6715729,13 14.5,13 Z"/>
</svg>