<?xml version="1.0" encoding="UTF-8"?>
<svg width="36px" height="36px" viewBox="0 0 36 36" version="1.1" xmlns="http://www.w3.org/2000/svg" xmlns:xlink="http://www.w3.org/1999/xlink">
    <g id="switch-design1" stroke="none" stroke-width="1" fill="none" fill-rule="evenodd">
        <g id="x/Bars/Left-Bar/Buttons/List-Buttons/Icon-+-Text">
            <g id="x/Icons/outlined/other/Old-TV">
                <g id="switch-design" transform="translate(6, 6)">
                    <path d="M16.7071068,0.292893219 C17.0675907,0.65337718 17.0953203,1.22060824 16.7902954,1.61289944 L16.7071068,1.70710678 L12.414,6 L22,6 C23.1045695,6 24,6.8954305 24,8 L24,19 C24,20.1045695 23.1045695,21 22,21 L21.618,21 L22.8944272,23.5527864 C23.1414164,24.0467649 22.9411921,24.6474379 22.4472136,24.8944272 C21.9885193,25.1237744 21.4378281,24.9675139 21.1637448,24.548514 L21.1055728,24.4472136 L19.381,21 L4.618,21 L2.89442719,24.4472136 C2.64743794,24.9411921 2.0467649,25.1414164 1.5527864,24.8944272 C1.09409209,24.66508 0.888685784,24.1307708 1.05943572,23.6601042 L1.10557281,23.5527864 L2.381,21 L2,21 C0.8954305,21 1.3527075e-16,20.1045695 0,19 L0,8 C-1.3527075e-16,6.8954305 0.8954305,6 2,6 L9.585,6 L7.29289322,3.70710678 C6.90236893,3.31658249 6.90236893,2.68341751 7.29289322,2.29289322 C7.65337718,1.93240926 8.22060824,1.90467972 8.61289944,2.20970461 L8.70710678,2.29289322 L11,4.585 L15.2928932,0.292893219 C15.6834175,-0.0976310729 16.3165825,-0.0976310729 16.7071068,0.292893219 Z M9.5,8 C7.49833401,8 5.49666801,8.26117531 3.49500202,8.78352594 C2.66622817,8.99980106 2.07322757,9.7170247 2.00631094,10.5593798 L2,10.718696 L2,16.2812821 C2,17.1913585 2.61441642,17.9866877 3.49500533,18.2164749 C5.49667022,18.738825 7.49833511,19 9.5,19 C11.501666,19 13.503332,18.7388247 15.504998,18.2164741 C16.3337718,18.0001989 16.9267724,17.2829753 16.9936891,16.4406202 L17,16.281304 L17,10.7187179 C17,9.80864154 16.3855836,9.01331233 15.5049947,8.78352508 C13.5033298,8.26117503 11.5016649,8 9.5,8 Z" id="Combined-Shape" fill="#08A652"></path>
                    <path d="M10.1532359,10 C11.4946199,10 12.8356483,10.1197729 14.1756735,10.359137 C14.7193526,10.4562526 15.0813639,10.9757193 14.9842484,11.5193985 C14.8871328,12.0630776 14.3676661,12.4250889 13.8239869,12.3279734 C12.5995874,12.1092631 11.3762316,12 10.1532359,12 C8.47967862,12 7.49529648,12.0706327 6.55549287,12.3121001 L6.55549287,12.3121001 L6.43945956,12.3405507 C5.86592567,12.4743526 5.9998302,12.341267 5.9998302,12.9045133 L5.9998302,12.9045133 L6.00081047,14.7424047 C6.00927795,15.1037646 6.07980503,15.1499146 6.48250523,15.2218486 C7.02618414,15.3189654 7.3881942,15.838433 7.29107733,16.382112 C7.19396046,16.9257909 6.67449284,17.2878009 6.13081393,17.1906841 C4.79661712,16.9523577 3.9998302,16.1340852 3.9998302,14.6453005 L3.9998302,14.6453005 L3.9998302,12.9045133 L4.00238155,12.7184356 C4.04184281,11.3281351 4.54685577,10.7632272 6.05779031,10.3750167 C7.05291491,10.1193354 8.02303361,10.0251558 9.45679771,10.0045867 L9.45679771,10.0045867 Z M20.5,14 C21.3284271,14 22,14.6715729 22,15.5 C22,16.3284271 21.3284271,17 20.5,17 C19.6715729,17 19,16.3284271 19,15.5 C19,14.6715729 19.6715729,14 20.5,14 Z M20.5,10 C21.3284271,10 22,10.6715729 22,11.5 C22,12.3284271 21.3284271,13 20.5,13 C19.6715729,13 19,12.3284271 19,11.5 C19,10.6715729 19.6715729,10 20.5,10 Z" id="Combined-Shape" fill="#F2F2F2"></path>
                </g>
            </g>
        </g>
    </g>
</svg>
