<svg xmlns="http://www.w3.org/2000/svg" width="36" height="36" viewBox="0 0 36 36"><g fill="none" fill-rule="evenodd"><path fill="#17B897" d="M10.189 5l.798 8.831c.005.065.12.169.191.169H24.79c.075 0 .191-.105.197-.173L25.806 5H10.189zm2.804 16.999L10.74 20.71C9.78 20.16 9 18.821 9 17.716v-3.653a2.031 2.031 0 01-.005-.052L8.18 4.99C8.08 3.89 8.898 3 9.99 3h16.02c1.099 0 1.907.894 1.806 1.989L26.98 14H27v3.716c0 1.103-.77 2.439-1.74 2.994L23.007 22l-.008.007V29a4 4 0 01-4.01 4h-1.98A4.005 4.005 0 0113 29v-6.994L12.993 22zm4.007 5v1.002c0 .556.448.999 1 .999.556 0 1-.447 1-.999v-1.002A.997.997 0 0018 26c-.556 0-1 .447-1 .999z"/><path fill="#7D8894" d="M13 5h2v5.01c0 .546-.444.99-1 .99a1 1 0 01-1-.99V5zm4 0h2v2.001A.997.997 0 0118 8c-.552 0-1-.443-1-.999V5z"/></g></svg>