<svg xmlns="http://www.w3.org/2000/svg" width="36" height="36" viewBox="0 0 36 36"><g fill="none" fill-rule="evenodd"><path fill="#17B897" d="M16.005 19.997l.038-16.189a.9.9 0 011.706-.398l8.532 17.144A1 1 0 0125.385 22H16v-.01l-6.999.006-.002-1.992 7.006-.007zM4.633 25.898C4.283 24.85 4.897 24 6.008 24h23.905c1.109 0 1.477.712.81 1.608l-2.074 2.784C27.988 29.28 26.557 30 25.453 30H7.999c-1.104 0-2.281-.847-2.632-1.898l-.734-2.204z"/><path fill="#7D8894" d="M5 33a1 1 0 01.99-1h4.02c.546 0 .99.444.99 1a1 1 0 01-.99 1H5.99A.993.993 0 015 33zm9 0a1 1 0 01.99-1h4.02c.546 0 .99.444.99 1a1 1 0 01-.99 1h-4.02a.993.993 0 01-.99-1zm9 0a1 1 0 01.99-1h4.02c.546 0 .99.444.99 1a1 1 0 01-.99 1h-4.02a.993.993 0 01-.99-1z"/></g></svg>