<svg xmlns="http://www.w3.org/2000/svg" width="36" height="36" viewBox="0 0 36 36"><g fill="none" fill-rule="evenodd"><path fill="#17B897" d="M28 20.969v4.142s-.716 1.582-2.768 2.947C23.678 29.09 21.357 30 18 30c-7.787 0-10-4.889-10-4.889V20.97l7.193 3.808a6 6 0 005.614 0L28 20.969zM3.921 13.453l12.207-6.462a4 4 0 013.744 0l12.207 6.462a1.75 1.75 0 010 3.094l-12.207 6.462a4 4 0 01-3.744 0L3.921 16.547a1.75 1.75 0 010-3.094z"/><rect fill="#7D8894" width="2" height="5" x="30" y="19" rx="1"/></g></svg>