<svg xmlns="http://www.w3.org/2000/svg" width="36" height="36" viewBox="0 0 36 36"><g fill="none" fill-rule="evenodd"><path d="M0 0h36v36H0z"/><path fill="#17B897" fill-rule="nonzero" d="M10.645 6.95C10.906 5.873 12.021 5 13.12 5h9.762c1.105 0 2.211.866 2.474 1.95l3.173 13.1c.26 1.077-.418 1.95-1.52 1.95H8.992c-1.1 0-1.781-.866-1.519-1.95l3.173-13.1zm9.37 3.224l1.228 6.943a1 1 0 101.97-.349l-1.228-6.942a1 1 0 10-1.97.348z"/><path fill="#7D8894" d="M19 30h3.998a.999.999 0 110 2h-9.996a.999.999 0 110-2H17v-6.5h2V30z"/></g></svg>