<svg xmlns="http://www.w3.org/2000/svg" xmlns:xlink="http://www.w3.org/1999/xlink" width="36" height="36"
     viewBox="0 0 36 36">
    <defs>
        <path id="products-ghost-target-a"
              d="M13.585 20.117l-6.41 2.552c-1.536.612-2.289-.131-1.674-1.675l2.552-6.409-3.781-7.903c-.714-1.493-.077-2.121 1.41-1.41l7.903 3.78 6.41-2.551c1.536-.612 2.289.131 1.674 1.675l-2.552 6.409 3.781 7.903c.714 1.493.077 2.122-1.41 1.41l-7.903-3.78z"/>
        <path id="products-ghost-target-b"
              d="M24 3h2.003c.55 0 .997.444.997 1 0 .552-.453 1-.997 1H24v2.003c0 .55-.444.997-1 .997-.552 0-1-.453-1-.997V5h-2.003A.996.996 0 0119 4c0-.552.453-1 .997-1H22V.997c0-.55.444-.997 1-.997.552 0 1 .453 1 .997V3z"/>
    </defs>
    <g fill="none" fill-rule="evenodd">
        <path d="M0 0h36v36H0z"/>
        <g fill-rule="nonzero" transform="translate(4 4)">
            <use fill="#0C9" transform="rotate(45 13.585 14.585)" xlink:href="#products-ghost-target-a"/>
            <use fill="#FFF" xlink:href="#products-ghost-target-b"/>
        </g>
    </g>
</svg>
