<svg xmlns="http://www.w3.org/2000/svg" width="36" height="36" viewBox="0 0 36 36"><g fill="none" fill-rule="evenodd"><path d="M0 0h36v36H0z"/><path fill="#17B897" fill-rule="nonzero" d="M30 24.465V27c0 1.105-.897 2-2.005 2H8.005A2 2 0 016 27v-2.537A3.99 3.99 0 008.005 25h19.99c.73 0 1.415-.195 2.005-.535zM6 13.992C6 12.892 6.897 12 8.005 12h19.99c1.107 0 2.005.9 2.005 1.992v7.016c0 1.1-.897 1.992-2.005 1.992H8.005C6.898 23 6 22.1 6 21.008v-7.016zM16 19v2h4v-2h-4z"/><path fill="#7D8894" d="M14 10.5h-2V9a3 3 0 013-3h6a3 3 0 013 3v1.5h-2V9a1 1 0 00-1-1h-6a1 1 0 00-1 1v1.5z"/></g></svg>