<svg xmlns="http://www.w3.org/2000/svg" xlink="http://www.w3.org/1999/xlink" width="36" height="36" viewBox="0 0 36 36"><defs><path id="products-vacation-vacation-a" d="M12.005 17.997l.038-16.189a.9.9 0 011.706-.398l8.532 17.144A1 1 0 0121.385 20H12v-.01l-6.999.006-.002-1.992 7.006-.007zM.633 23.898C.283 22.85.897 22 2.008 22h23.905c1.109 0 1.477.712.81 1.608l-2.074 2.784C23.988 27.28 22.557 28 21.453 28H3.999c-1.104 0-2.281-.847-2.632-1.898l-.734-2.204z"/></defs><g fill="none" fill-rule="evenodd"><g transform="translate(4 2)"><mask id="products-vacation-vacation-b" fill="#fff"><use href="#vacation-a"/></mask><use fill="#FFF" href="#vacation-a"/><g fill="#FFF" mask="url(#products-vacation-vacation-b)"><path d="M-4-2h36v36H-4z"/></g></g><rect width="6" height="2" x="5" y="32" fill="#FFF" fill-opacity=".4" rx="1"/><rect width="6" height="2" x="14" y="32" fill="#FFF" fill-opacity=".4" rx="1"/><rect width="6" height="2" x="23" y="32" fill="#FFF" fill-opacity=".4" rx="1"/></g></svg>