<svg xmlns="http://www.w3.org/2000/svg" width="36" height="36" viewBox="0 0 36 36">
    <g fill="none">
        <path fill="#D80027" d="M0 18C0 8.06 8.06 0 18 0s18 8.06 18 18c-.783 0-18 2.348-18 2.348L0 18z"/>
        <path fill="#3D3D3D" d="M36 18c0 9.94-8.06 18-18 18S0 27.94 0 18"/>
        <g fill="#FFDA44">
            <path d="M5.532 5.316l1.526 1.107-.58 1.794 1.525-1.1 1.526 1.107-.584-1.793 1.525-1.1-1.885.001L8 3.532l-.582 1.794-1.886-.01zm6.968-4.1C11.134.421 9.58.002 8 .003V2.35c1.168-.003 2.315.304 3.326.889 3.178 1.84 4.267 5.905 2.435 9.087-1.84 3.178-5.905 4.267-9.087 2.435-.895-.516-1.656-1.234-2.223-2.097l-1.96 1.294c.745 1.133 1.757 2.113 3 2.836 4.298 2.48 9.813 1.004 12.294-3.294S16.8 3.687 12.5 1.206v.01z" transform="translate(10 9)"/>
            <path d="M2.81 7.435c-.621 1.138-.204 2.564.933 3.187l7.625 4.167c-.52.948-.243 2.102.705 2.62l2.06 1.127c.948.52 2.137.17 2.655-.778l1.127-2.06L2.81 7.435z" transform="translate(10 9)"/>
        </g>
    </g>
</svg>
