<svg xmlns="http://www.w3.org/2000/svg" width="36" height="36" viewBox="0 0 36 36">
    <g fill="none">
        <circle cx="18" cy="18" r="18" fill="#F0F0F0"/>
        <path fill="#D80027" d="M28.96 3.72c-6.465-4.958-15.455-4.958-21.92 0L18 14.68 28.96 3.72zM18 21.32L7.04 32.28c6.465 4.958 15.455 4.958 21.92 0L18 21.32z"/>
        <path fill="#6DA544" d="M14.68 18L3.72 7.04c-4.958 6.465-4.958 15.455 0 21.92L14.68 18zm6.64 0l10.96 10.96c4.958-6.465 4.958-15.455 0-21.92L21.32 18z"/>
        <circle cx="18" cy="18" r="7.826" fill="#F0F0F0"/>
        <g fill="#D80027">
            <path d="M6 .522L6.678 1.696 8.034 1.696 7.356 2.87 8.034 4.044 6.678 4.044 6 5.218 5.322 4.044 3.967 4.044 4.645 2.87 3.967 1.696 5.322 1.696zM2.555 6L3.233 7.174 4.588 7.174 3.91 8.348 4.588 9.522 3.233 9.522 2.555 10.696 1.877 9.522.522 9.522 1.2 8.348.522 7.174 1.877 7.174z" transform="translate(12 12)"/>
            <path d="M2.555 0L3.233 1.174 4.588 1.174 3.91 2.348 4.588 3.522 3.233 3.522 2.555 4.696 1.877 3.522 0.522 3.522 1.2 2.348 0.522 1.174 1.877 1.174z" transform="translate(12 12) translate(6.89 6)"/>
        </g>
    </g>
</svg>
