<svg xmlns="http://www.w3.org/2000/svg" width="36" height="36" viewBox="0 0 36 36">
    <g fill="none">
        <circle cx="18" cy="18" r="18" fill="#009B3A"/>
        <path fill="#FEDF00" d="M18 7.043L32.87 18 18 28.957 3.13 18z"/>
        <circle cx="18" cy="18" r="6.261" fill="#F0F0F0"/>
        <path fill="#002776" d="M14.87 17.6c-1.06 0-2.115.159-3.128.473.04 3.428 2.83 6.187 6.258 6.188 2.12 0 3.995-1.056 5.127-2.67-2.002-2.517-5.042-3.983-8.258-3.983l.001-.008zm9.275 1.6c.077-.395.116-.797.116-1.2 0-1.66-.66-3.253-1.834-4.427-1.174-1.175-2.766-1.834-4.427-1.834-2.58 0-4.795 1.56-5.753 3.8.863-.179 1.742-.269 2.623-.268 3.636 0 6.926 1.512 9.275 3.94V19.2z"/>
    </g>
</svg>
