<svg xmlns="http://www.w3.org/2000/svg" width="36" height="36" viewBox="0 0 36 36">
    <g fill="none">
        <path fill="#EFB22D" d="M5.272 30.728c-7.03-7.03-7.03-18.426 0-25.456 7.03-7.03 18.426-7.03 25.456 0 0 .002 4.78 16.176-2.25 23.205s-23.2 2.255-23.205 2.25l-.001.001z"/>
        <path fill="#E23D28" d="M5.272 30.728c7.03 7.03 18.426 7.03 25.456 0 7.03-7.03 7.03-18.426 0-25.456L5.272 30.728z"/>
        <path fill="#FFF" d="M28.182 10.174v-3.13h-6l-.458.458c-1.63 1.63-1.356 3.533-1.156 4.92.186 1.288.208 1.782-.27 2.26-.478.478-.973.457-2.26.27-1.39-.2-3.29-.474-4.92 1.156s-1.356 3.532-1.156 4.92c.186 1.288.208 1.782-.27 2.26-.478.478-.973.457-2.26.27l-1.58-.158-.034 3.13c.347.004.743.06 1.163.122.497.072 1.06.153 1.652.153.614 0 1.26-.088 1.898-.363v2.505h4.696V26.61h-2.348v-1.565h1.565v-2.348h-1.25c.06-.76-.045-1.487-.135-2.1-.186-1.288-.208-1.782.27-2.26.478-.478.973-.457 2.26-.27 1.012.146 2.296.33 3.55-.21v2.505h4.696V18h-2.348v-1.565h1.565v-2.348H23.8c.06-.76-.045-1.487-.135-2.11-.13-.9-.18-1.412-.035-1.803h4.552z"/>
    </g>
</svg>
