<svg xmlns="http://www.w3.org/2000/svg" width="36" height="36" viewBox="0 0 36 36">
    <g fill="none">
        <path fill="#F0F0F0" d="M.85 12.522C.3 14.25 0 16.09 0 18c0 1.91.3 3.75.85 5.478L18 24.26l17.15-.783c.565-1.77.851-3.618.85-5.477 0-1.9-.3-3.75-.85-5.478L18 11.74l-17.15.782z"/>
        <path fill="#3D3D3D" d="M36 18c0-1.068-.094-2.114-.272-3.13H.272C.094 15.886 0 16.932 0 18c0 1.05.09 2.097.272 3.13h35.456c.181-1.033.272-2.08.272-3.13z"/>
        <path fill="#338AF3" d="M18 36c8.03 0 14.832-5.26 17.15-12.522H.85C3.168 30.74 9.97 36 18 36zm0-36C9.97 0 3.168 5.26.85 12.522h34.3C32.832 5.26 26.03 0 18 0z"/>
    </g>
</svg>
