<svg xmlns="http://www.w3.org/2000/svg" width="36" height="36" viewBox="0 0 36 36">
    <g fill="none">
        <circle cx="18" cy="18" r="18" fill="#F0F0F0"/>
        <path fill="#D80027" d="M34.88 11.74H1.12C.377 13.743-.002 15.863 0 18c-.002 2.137.377 4.257 1.12 6.261h33.76c.743-2.004 1.122-4.124 1.12-6.261.002-2.137-.377-4.257-1.12-6.261v.001z"/>
        <path fill="#0052B4" d="M18 0C12.544 0 7.656 2.427 4.355 6.26h27.3C28.344 2.427 23.456 0 18 0zm13.645 29.74h-27.3C7.656 33.573 12.544 36 18 36c5.456 0 10.344-2.427 13.645-6.26z"/>
    </g>
</svg>
