<svg xmlns="http://www.w3.org/2000/svg" width="36" height="36" viewBox="0 0 36 36">
    <g fill="none">
        <circle cx="18" cy="18" r="18" fill="#FFDA44"/>
        <g fill="#0052B4">
            <path d="M18 36c5.906 0 11.148-2.845 14.43-7.239H3.57C6.852 33.155 12.094 36 18 36zM36 18c0-9.941-8.059-18-18-18S0 8.059 0 18c0 2.129.37 4.17 1.049 6.066H34.95C35.63 22.17 36 20.129 36 18z"/>
        </g>
        <g fill="#F0F0F0">
            <path d="M7.891 3.177L8.862 6.166 12.005 6.166 9.462 8.014 10.433 11.003 7.891 9.155 5.348 11.003 6.319 8.014 3.776 6.166 6.919 6.166zM2.493.046L3.076 1.84 4.962 1.84 3.436 2.948 4.019 4.742 2.493 3.634.967 4.742 1.55 2.948.024 1.84 1.91 1.84z" transform="translate(4.43 8.367)"/>
        </g>
    </g>
</svg>
