<svg xmlns="http://www.w3.org/2000/svg" width="36" height="36" viewBox="0 0 36 36">
    <g fill="none">
        <path fill="#FFDA44" d="M1.12 24.26C3.663 31.115 10.26 36 18 36c7.74 0 14.337-4.885 16.88-11.74L18 22.696 1.12 24.26z"/>
        <path fill="#3D3D3D" d="M18 0C10.26 0 3.663 4.885 1.12 11.74L18 13.304l16.88-1.565C32.337 4.885 25.74 0 18 0z"/>
        <path fill="#D80027" d="M1.12 11.74C.377 13.743-.002 15.863 0 18c-.002 2.137.377 4.257 1.12 6.261h33.76c.743-2.004 1.122-4.124 1.12-6.261.002-2.137-.377-4.257-1.12-6.261H1.12v.001z"/>
    </g>
</svg>
