<svg xmlns="http://www.w3.org/2000/svg" xmlns:xlink="http://www.w3.org/1999/xlink" width="36" height="36" viewBox="0 0 36 36">
    <defs>
        <path id="prefix__a" d="M18 0C8.06 0 0 8.06 0 18s8.06 18 18 18 18-8.06 18-18S27.94 0 18 0z"/>
        <path id="prefix__c" d="M18 0C8.06 0 0 8.06 0 18s8.06 18 18 18 18-8.06 18-18S27.94 0 18 0z"/>
        <path id="prefix__e" d="M18 0C8.06 0 0 8.06 0 18s8.06 18 18 18 18-8.06 18-18S27.94 0 18 0z"/>
        <path id="prefix__g" d="M18 0C8.06 0 0 8.06 0 18s8.06 18 18 18 18-8.06 18-18S27.94 0 18 0z"/>
    </defs>
    <g fill="none" fill-rule="evenodd">
        <mask id="prefix__b" fill="#fff">
            <use xlink:href="#prefix__a"/>
        </mask>
        <path fill="#6AB2E7" fill-rule="nonzero" d="M-3 36L51 36 51 0 -3 0z" mask="url(#prefix__b)"/>
        <mask id="prefix__d" fill="#fff">
            <use xlink:href="#prefix__c"/>
        </mask>
        <path fill="#12AD2B" fill-rule="nonzero" d="M-3 36L51 36 51 18 -3 18z" mask="url(#prefix__d)"/>
        <g>
            <mask id="prefix__f" fill="#fff">
                <use xlink:href="#prefix__e"/>
            </mask>
            <path fill="#F0F0F0" fill-rule="nonzero" d="M-3 0L-3 36 28.177 18 12.589 9z" mask="url(#prefix__f)"/>
        </g>
        <g>
            <mask id="prefix__h" fill="#fff">
                <use xlink:href="#prefix__g"/>
            </mask>
            <path fill="#D7141A" fill-rule="nonzero" d="M8.932 13.5L10.049 16.938 13.664 16.938 10.74 19.062 11.857 22.5 8.933 20.375 6.007 22.5 7.124 19.062 4.2 16.938 7.815 16.938z" mask="url(#prefix__h)"/>
        </g>
    </g>
</svg>
