<svg xmlns="http://www.w3.org/2000/svg" width="36" height="36" viewBox="0 0 36 36">
    <g fill="none">
        <path fill="#F0F0F0" d="M18 0c9.94 0 18 8.06 18 18s-8.06 18-18 18c0-.783-2.348-18-2.348-18L18 0z"/>
        <path fill="#496E2D" d="M18 36C8.06 36 0 27.94 0 18S8.06 0 18 0"/>
        <path fill="#D80027" d="M21.867 14.548L20.4 16.583l-2.4-.776 1.48 2.033L18 19.876l2.4-.778 1.48 2.033v-2.514l2.4-.778-2.392-.776-.021-2.515zm-2.374 8.54c-2.81-.002-5.086-2.279-5.087-5.088.002-2.809 2.278-5.085 5.087-5.087.876 0 1.7.22 2.42.6-1.168-1.146-2.74-1.787-4.376-1.785-3.458 0-6.261 2.803-6.261 6.261s2.803 6.261 6.261 6.261c1.636.002 3.208-.64 4.376-1.785-.743.403-1.575.613-2.42.612v.011z"/>
    </g>
</svg>
