<svg xmlns="http://www.w3.org/2000/svg" width="36" height="36" viewBox="0 0 36 36">
    <g fill="none">
        <path fill="#FFDA44" d="M0 18c-.002 2.137.377 4.257 1.12 6.261L18 25.826l16.88-1.565c.743-2.004 1.122-4.124 1.12-6.261.002-2.137-.377-4.257-1.12-6.261L18 10.174 1.12 11.74C.377 13.743-.002 15.863 0 18z"/>
        <path fill="#D80027" d="M34.88 11.74C32.337 4.885 25.74 0 18 0 10.26 0 3.663 4.885 1.12 11.74h33.76zM1.12 24.26C3.663 31.115 10.26 36 18 36c7.74 0 14.337-4.885 16.88-11.74H1.12z"/>
    </g>
</svg>
