<svg xmlns="http://www.w3.org/2000/svg" width="36" height="36" viewBox="0 0 36 36">
    <g fill="none">
        <circle cx="18" cy="18" r="18" fill="#338AF3"/>
        <path fill="#F0F0F0" d="M18 7.826l.777 2.4h2.515l-2.034 1.478.777 2.4L18 12.6l-2.034 1.478.777-2.4-2.034-1.478h2.515L18 7.826zM7.826 18l2.4-.777V14.7l1.478 2.034 2.4-.777L12.6 18l1.478 2.034-2.4-.777-1.478 2.034v-2.515L7.826 18zM18 28.174l-.777-2.4H14.7l2.034-1.478-.777-2.4L18 23.4l2.034-1.478-.777 2.4 2.034 1.478h-2.515L18 28.174zM28.174 18l-2.4.777v2.515l-1.478-2.034-2.4.777L23.4 18l-1.478-2.034 2.4.777 1.478-2.034v2.515l2.374.776z"/>
    </g>
</svg>
