<svg xmlns="http://www.w3.org/2000/svg" width="36" height="36" viewBox="0 0 36 36">
    <g fill="none">
        <circle cx="18" cy="18" r="18" fill="#F0F0F0"/>
        <path fill="#6DA544" d="M18 0c-3.182 0-6.17.827-8.765 2.276v31.448C11.83 35.173 14.818 36 18 36c9.94 0 18-8.06 18-18S27.94 0 18 0z"/>
        <path fill="#F0F0F0" d="M9.288 2.247c-1.128.625-2.186 1.37-3.156 2.221l.296-.254L20.214 18 6.428 31.786l-.296-.254c.966.848 2.023 1.594 3.156 2.22L36 18 9.288 2.247z"/>
        <path fill="#FFDA44" d="M7.767 3.19c-.55.38-1.076.79-1.58 1.226L18 18 6.19 31.583c.503.437 1.03.847 1.579 1.226L32.92 18 7.767 3.19z"/>
        <path fill="#3D3D3D" d="M6.428 4.214L5.272 5.272 16.435 18 5.272 30.728 6.428 31.786 20.214 18z"/>
        <path fill="#D80027" d="M5.272 5.272c-7.03 7.03-7.03 18.426 0 25.456L18 18 5.272 5.272z"/>
    </g>
</svg>
