<svg xmlns="http://www.w3.org/2000/svg" width="36" height="36" viewBox="0 0 36 36">
    <g fill="none">
        <path fill="#A2001D" d="M36 18c0 9.94-8.06 18-18 18S0 27.94 0 18 18 0 18 0s18 8.06 18 18z"/>
        <path fill="#0052B4" d="M0 18C0 8.06 8.06 0 18 0s18 8.06 18 18"/>
        <path fill="#F0F0F0" d="M24.26 22.696L18 21.913 11.74 22.696 11.74 13.306 24.26 13.306z"/>
        <circle cx="18" cy="18.783" r="3.13" fill="#0052B4"/>
        <circle cx="18" cy="18.783" r="1.565" fill="#A2001D"/>
        <path fill="#6DA544" d="M15.652 14.87L20.348 14.87 18 17.217z"/>
        <path fill="#FFDA44" d="M17.217 16.435L18.782 16.435 18.782 21.131 17.217 21.131z"/>
        <path fill="#6DA544" d="M20.504 20.66L15.494 20.66 11.738 22.695 24.26 22.695z"/>
    </g>
</svg>
