<svg xmlns="http://www.w3.org/2000/svg" width="36" height="36" viewBox="0 0 36 36">
    <g fill="none">
        <circle cx="17.989" cy="17.989" r="17.987" fill="#FFF"/>
        <path fill="#2B479D" d="M34.948 12C32.64 5.484 26.718.708 19.604.074c2.753 1.51 3.557 6.29 4.26 11.917.48 3.843.484 8.076.01 11.924-.698 5.656-1.506 10.47-4.27 11.987 7.128-.635 13.058-5.427 15.35-11.936l.017-.05c.648-1.856 1.004-3.85 1.004-5.926 0-2.104-.365-4.12-1.028-5.998l.001.008z"/>
        <path fill="#2B479D" d="M24.79 12C24.087 6.365 22.356 1.583 19.603.074 19.066.026 18.526.001 17.987 0 10.162 0 3.508 4.998 1.034 11.975.349 13.905-.001 15.939 0 17.988c0 2.018.339 4.021 1.004 5.926l.017.051c2.465 6.995 9.13 12 16.966 12 .545 0 1.083-.027 1.616-.074 2.765-1.515 4.498-6.33 5.197-11.987.475-3.848.472-8.08-.01-11.924V12z"/>
        <g fill="#F3F4F5">
            <path d="M35.496 13.87H24.27c.17 2.608.18 5.224.029 7.833h11.29c.257-1.221.386-2.466.386-3.714 0-1.42-.17-2.796-.48-4.12l.001.001z"/>
            <path d="M25.152 21.702c.151-2.61.142-5.225-.029-7.833h-8.056V.024c-2.835.143-5.494.945-7.834 2.25V13.87H.48C.17 15.193 0 16.57 0 17.99c0 1.248.13 2.493.386 3.714h8.848v12c2.34 1.306 5 2.11 7.834 2.25v-14.25h8.085l-.001-.002z"/>
        </g>
        <path fill="#ED2A3D" d="M35.67 14.702H23.425c.136 2.08.144 4.167.023 6.248h12.28c.16-.964.246-1.953.246-2.962 0-1.123-.106-2.22-.304-3.286z"/>
        <path fill="#ED2A3D" d="M25.045 14.702h-8.697V.077c-2.172.195-4.29.787-6.248 1.745v12.88H.305C.103 15.786.001 16.886 0 17.988c0 1 .086 2 .247 2.962H10.1v13.203c1.917.938 4.023 1.545 6.248 1.746V20.95h8.72c.12-2.081.113-4.168-.023-6.248z"/>
    </g>
</svg>
