<svg xmlns="http://www.w3.org/2000/svg" width="36" height="36" viewBox="0 0 36 36">
    <g fill="none">
        <circle cx="18" cy="18" r="18" fill="#FFDA44"/>
        <path fill="#6DA544" d="M28.96 3.72C25.819 1.302 21.964-.006 18 0c-3.964-.006-7.818 1.303-10.959 3.721L18 14.68 28.96 3.72z"/>
        <path fill="#3D3D3D" d="M3.72 7.04C1.302 10.181-.006 14.036 0 18c-.006 3.964 1.303 7.818 3.721 10.959L14.68 18 3.72 7.04z"/>
        <path fill="#6DA544" d="M7.04 32.28C10.181 34.698 14.036 36.006 18 36c3.964.006 7.818-1.303 10.959-3.721L18 21.32 7.04 32.28z"/>
        <path fill="#3D3D3D" d="M32.28 28.96C34.698 25.819 36.006 21.964 36 18c.006-3.964-1.303-7.818-3.721-10.959L21.32 18l10.96 10.96z"/>
    </g>
</svg>
