<svg xmlns="http://www.w3.org/2000/svg" width="36" height="36" viewBox="0 0 36 36">
    <g fill="none">
        <circle cx="18" cy="18" r="18" fill="#F0F0F0"/>
        <path fill="#D80027" d="M32.28 28.96L21.32 18 32.28 7.04c-.472-.614-.99-1.205-1.552-1.768-.563-.563-1.154-1.08-1.768-1.552L18 14.68 7.04 3.72c-.614.472-1.205.99-1.768 1.552-.563.563-1.08 1.154-1.552 1.768L14.68 18 3.72 28.96c.472.614.99 1.205 1.552 1.768.563.563 1.154 1.08 1.768 1.552L18 21.32l10.96 10.96c.614-.472 1.205-.99 1.768-1.552.563-.563 1.08-1.154 1.552-1.768z"/>
        <path fill="#FFDA44" d="M14.87 5.478L18 6.261 21.13 5.478 21.13 2.817 19.878 3.443 18 1.565 16.122 3.443 14.87 2.817z"/>
        <path fill="#D80027" d="M14.87 5.478v1.957c0 2.396 3.13 3.13 3.13 3.13s3.13-.734 3.13-3.13V5.478h-6.26z"/>
    </g>
</svg>
