<svg xmlns="http://www.w3.org/2000/svg" width="36" height="36" viewBox="0 0 36 36">
    <g fill="none">
        <circle cx="18" cy="18" r="18" fill="#FFDA44"/>
        <path fill="#3D3D3D" d="M5.272 30.728c.755.755 1.56 1.43 2.406 2.02l25.07-25.07c-.593-.845-1.266-1.65-2.02-2.406-.754-.756-1.56-1.428-2.406-2.02L3.25 28.322c.593.845 1.266 1.65 2.02 2.406h.002z"/>
        <path fill="#6DA544" d="M5.272 5.272C-.407 10.95-1.497 19.48 2 26.253L26.253 2C19.48-1.497 10.95-.406 5.272 5.272z"/>
        <path fill="#D80027" d="M30.728 30.728c5.68-5.68 6.77-14.207 3.273-20.98L9.747 34c6.774 3.496 15.302 2.406 20.98-3.273l.001.001z"/>
        <path fill="#F0F0F0" d="M11.444 21.234l1.68.856 1.334-1.333-.295 1.863 1.68.856-1.863.295-.295 1.863-.856-1.68-1.863.295 1.333-1.333-.855-1.682zm9.8-9.8l1.68.856 1.334-1.333-.295 1.863 1.68.856-1.863.295-.295 1.863-.856-1.68-1.863.295 1.333-1.333-.855-1.682z"/>
    </g>
</svg>
