<svg xmlns="http://www.w3.org/2000/svg" width="36" height="36" viewBox="0 0 36 36">
    <g fill="none">
        <circle cx="18" cy="18" r="18" fill="#F0F0F0"/>
        <path fill="#D80027" d="M24.26 18c0 1.57-2.8 5.48-6.26 5.48s-6.26-3.9-6.26-5.48c0-3.46 2.8-6.26 6.26-6.26s6.26 2.8 6.26 6.26z"/>
        <path fill="#0052B4" d="M24.26 18c0 3.46-2.8 6.26-6.26 6.26s-6.26-2.8-6.26-6.26"/>
        <path fill="#3D3D3D" d="M24.64 23.53l1.66-1.66 1.1 1.1-1.66 1.66-1.1-1.1zm-2.77 2.77l1.66-1.66 1.1 1.1-1.66 1.66-1.1-1.1zm6.1.55l1.66-1.66 1.1 1.1-1.66 1.66-1.1-1.1zm-2.76 2.77l1.66-1.66 1.1 1.1-1.66 1.66-1.1-1.1zm1.1-4.42l1.66-1.66 1.1 1.1-1.66 1.66-1.1-1.1zm-2.77 2.76l1.66-1.66 1.1 1.1-1.66 1.66-1.1-1.1zm4.43-15.5l-4.43-4.43 1.1-1.1 4.43 4.43-1.1 1.1zm-4.43-1.1L21.87 9.7l1.1-1.1 1.66 1.66-1.09 1.1zm2.77 2.77l-1.66-1.66 1.1-1.1 1.66 1.66-1.1 1.1zm.55-6.1L25.2 6.38l1.1-1.1 1.66 1.66-1.1 1.09zm2.77 2.76l-1.66-1.66 1.1-1.1 1.66 1.66-1.1 1.1zM6.38 25.2l4.43 4.43-1.1 1.1-4.43-4.43 1.1-1.1zm4.42 1.1l1.66 1.66-1.1 1.1L9.7 27.4l1.1-1.1zm-2.76-2.77L9.7 25.2l-1.1 1.1-1.66-1.66 1.1-1.11zm1.66-1.66l4.43 4.43-1.1 1.1-4.43-4.43 1.1-1.1zm1.1-15.5L6.38 10.8l-1.1-1.1L9.7 5.27l1.1 1.1zm1.67 1.66l-4.43 4.43-1.1-1.1 4.43-4.43 1.1 1.1zm1.66 1.66L9.7 14.13l-1.1-1.1 4.43-4.43 1.1 1.09z"/>
    </g>
</svg>
