<svg xmlns="http://www.w3.org/2000/svg" width="36" height="36" viewBox="0 0 36 36">
    <g fill="none">
        <path fill="#D80027" d="M34.214 10.174C31.303 4.153 25.136 0 18 0 10.864 0 4.698 4.153 1.786 10.174L18 11.74l16.214-1.565v-.001zM1.786 25.826C4.698 31.847 10.864 36 18 36c7.136 0 13.302-4.153 16.214-10.174L18 24.26 1.786 25.826z"/>
        <path fill="#0052B4" d="M34.214 10.174H1.786C.606 12.614-.004 15.29 0 18c-.004 2.71.607 5.386 1.786 7.826h32.428C35.358 23.46 36 20.805 36 18c0-2.805-.642-5.46-1.786-7.826z"/>
        <circle cx="18" cy="18" r="6.261" fill="#F0F0F0"/>
    </g>
</svg>
