<svg xmlns="http://www.w3.org/2000/svg" width="36" height="36" viewBox="0 0 36 36">
    <g fill="none">
        <g fill="#F0F0F0">
            <circle cx="18" cy="18" r="18"/>
            <path d="M4.114 6.546h27.77c-1.027-1.244-2.216-2.344-3.535-3.273H7.65c-1.32.928-2.508 2.03-3.535 3.273h-.001zM0 18l.075 1.636h35.85L36 18l-.075-1.636H.075L0 18zm1.963 8.182h32.074c.535-1.046.965-2.142 1.285-3.273H.678c.32 1.13.75 2.227 1.285 3.273zm5.687 6.545h20.7c1.319-.929 2.508-2.03 3.535-3.273H4.114c1.026 1.242 2.215 2.344 3.535 3.273h.001zM.678 13.1h34.645c-.323-1.14-.755-2.236-1.285-3.273H1.963C1.429 10.87.998 11.963.678 13.09v.01z"/>
        </g>
        <path fill="#D80027" d="M8.608 3.273H28.35C25.422 1.2 21.853 0 18 0c-2.348 0-6.463 1.2-9.4 3.273h.008zm8.61 6.545h16.82c-.596-1.166-1.318-2.263-2.152-3.273H17.217v3.273h.001zm0 6.546h18.708c-.1-1.107-.301-2.203-.603-3.273H17.217v3.273h.001zM.678 22.9h34.644c.302-1.07.504-2.166.603-3.273H.075c.1 1.124.305 2.218.603 3.273zm3.436 6.544h27.77c.834-1.01 1.556-2.107 2.152-3.273H1.963c.596 1.166 1.318 2.263 2.152 3.273h-.001zM18 36c3.706.007 7.322-1.137 10.35-3.273H7.65C10.678 34.863 14.294 36.007 18 36z"/>
        <path fill="#0052B4" d="M.678 13.09C.38 14.146.176 15.24.075 16.364H18V0C9.76 0 2.815 5.536.678 13.09z"/>
        <path fill="#F0F0F0" d="M10.715 4.696L11.88 8.283 15.652 8.283 12.6 10.5 13.765 14.087 10.715 11.87 7.665 14.087 8.83 10.5 5.78 8.283 9.55 8.283z"/>
    </g>
</svg>
