<svg xmlns="http://www.w3.org/2000/svg" width="36" height="36" viewBox="0 0 36 36">
    <g fill="none">
        <path fill="#3D3D3D" d="M1.786 10.174C.606 12.614-.004 15.29 0 18c-.004 2.71.607 5.386 1.786 7.826L18 27.39l16.214-1.565C35.393 23.385 36.004 20.71 36 18c.004-2.71-.607-5.386-1.786-7.826L18 8.61 1.786 10.174z"/>
        <path fill="#496E2D" d="M1.787 25.826C4.698 31.847 10.864 36 18 36c7.136 0 13.302-4.153 16.213-10.174H1.787z"/>
        <path fill="#D80027" d="M1.787 10.174h32.427C31.302 4.153 25.136 0 18 0 10.864 0 4.698 4.153 1.787 10.174z"/>
        <path fill="#F0F0F0" d="M22.2 14.7l1.477 2.035 2.392-.776-1.48 2.033 1.477 2.035-2.4-.778-1.48 2.033.002-2.514-2.4-.778 2.392-.776.02-2.514zm-4.04 8.377c-2.805-.001-5.08-2.272-5.088-5.077.002-2.809 2.278-5.085 5.087-5.087.876 0 1.7.22 2.42.6-1.168-1.146-2.74-1.787-4.376-1.785-3.458 0-6.261 2.803-6.261 6.261s2.803 6.261 6.261 6.261c1.636.002 3.208-.64 4.376-1.785-.743.403-1.575.613-2.42.612h.001z"/>
    </g>
</svg>
