<svg xmlns="http://www.w3.org/2000/svg" width="36" height="36" viewBox="0 0 36 36">
    <g fill="none">
        <path fill="#FF9811" d="M0.085 3.124L0.085 3.124 0.085 32.805 0.085 32.805 0.085 17.965z"/>
        <circle cx="18.035" cy="17.965" r="17.965" fill="#FFDA44"/>
        <path fill="#FF9811" d="M14.13 3.124H7.91c-.276.189-.546.385-.81.588L5.538 17.965 7.1 32.218c.264.203.534.399.81.587h6.22V3.125z"/>
        <path fill="#6DA544" d="M.07 17.965c0 5.807 2.756 10.969 7.03 14.253V3.712C2.826 6.996.07 12.158.07 17.965z"/>
        <path fill="#FFDA44" d="M28.982 10.952L28.982 11.401 29.005 11.404z"/>
        <path fill="#8D153A" d="M34.568 22.651h-3.385l-1.432 1.563v3.124h-3.124v-1.562h1.562V22.65h-7.03v1.953h-1.562v-3.721c-.479-.43-.78-1.053-.78-1.747V8.982c0-1.294 1.048-2.343 2.342-2.343v14.45h3.125l1.072-.893c-.187-.446-.291-.936-.291-1.45v-2.343h-2.343v-4.687h4.686c0-.78 1.172-1.562 1.172-1.562s1.171.781 1.171 1.562v4.687c.87.01 2.25-.012 3.742 0-.392-.685-.617-1.498-.617-2.343 0-1.379.595-2.618 1.542-3.475-1.365-3.026-3.544-5.606-6.258-7.46H16.473v29.68h11.688c3.3-2.255 5.808-5.582 7.025-9.48l-.618-.674z"/>
    </g>
</svg>
