<svg xmlns="http://www.w3.org/2000/svg" width="36" height="36" viewBox="0 0 36 36">
    <g fill="none">
        <circle cx="18" cy="18" r="18" fill="#D80027"/>
        <path fill="#FFDA44" d="M28.637 14.772H20.51L18 7.043l-2.51 7.728H7.363l6.574 4.776-2.51 7.73L18 22.5l6.574 4.777-2.51-7.73 6.574-4.777-.001.002zm-12.86 4.18l.85-2.613h2.748l.85 2.614L18 20.566l-2.223-1.615v.001zm3.09-4.18h-1.73L18 12.11l.865 2.663.002-.001zm2.69 3.21l-.535-1.646h2.8l-2.266 1.646h.001zm-6.574-1.646l-.535 1.646-2.266-1.646H14.983zm-.577 6.842l.865-2.663 1.4 1.017-2.266 1.646h.001zm4.93-1.646l1.4-1.017.865 2.663-2.266-1.646h.001z"/>
    </g>
</svg>
