<svg xmlns="http://www.w3.org/2000/svg" width="36" height="36" viewBox="0 0 36 36">
    <g fill="none">
        <circle cx="18" cy="18" r="18" fill="#F0F0F0"/>
        <path fill="#D80027" d="M36 18c0-7.136-4.153-13.302-10.174-16.214v32.428C31.847 31.302 36 25.136 36 18z"/>
        <path fill="#6DA544" d="M0 18c0 7.136 4.153 13.302 10.174 16.214V1.786C4.153 4.698 0 10.864 0 18zm13.304 0c0 2.593 2.102 4.696 4.696 4.696s4.696-2.102 4.696-4.696v-1.565h-9.4V18h.008z"/>
        <path fill="#FF9811" d="M24.26 14.87h-4.696c0-.864-.7-1.565-1.565-1.565s-1.565.7-1.565 1.565H11.74c0 .864.753 1.565 1.617 1.565h-.052c0 .864.7 1.565 1.565 1.565 0 .864.7 1.565 1.565 1.565h3.13c.864 0 1.565-.7 1.565-1.565.864 0 1.565-.7 1.565-1.565h-.052c.864 0 1.617-.7 1.617-1.565z"/>
    </g>
</svg>
