<svg xmlns="http://www.w3.org/2000/svg" xmlns:xlink="http://www.w3.org/1999/xlink" width="36" height="36" viewBox="0 0 36 36">
    <defs>
        <path id="prefix__a" d="M18 0C8.06 0 0 8.06 0 18s8.06 18 18 18 18-8.06 18-18S27.94 0 18 0z"/>
        <path id="prefix__c" d="M18 0C8.06 0 0 8.06 0 18s8.06 18 18 18 18-8.06 18-18S27.94 0 18 0z"/>
        <path id="prefix__e" d="M18 0C8.06 0 0 8.06 0 18s8.06 18 18 18 18-8.06 18-18S27.94 0 18 0z"/>
        <path id="prefix__g" d="M18 0C8.06 0 0 8.06 0 18s8.06 18 18 18 18-8.06 18-18S27.94 0 18 0z"/>
    </defs>
    <g fill="none" fill-rule="evenodd">
        <mask id="prefix__b" fill="#fff">
            <use xlink:href="#prefix__a"/>
        </mask>
        <path fill="#FECB00" fill-rule="nonzero" d="M-9 18L45 18 45 0 -9 0z" mask="url(#prefix__b)"/>
        <mask id="prefix__d" fill="#fff">
            <use xlink:href="#prefix__c"/>
        </mask>
        <path fill="#EA2839" fill-rule="nonzero" d="M-9 36L45 36 45 18 -9 18z" mask="url(#prefix__d)"/>
        <g>
            <mask id="prefix__f" fill="#fff">
                <use xlink:href="#prefix__e"/>
            </mask>
            <path fill="#34B233" fill-rule="nonzero" d="M-9 24L45 24 45 12 -9 12z" mask="url(#prefix__f)"/>
        </g>
        <g>
            <mask id="prefix__h" fill="#fff">
                <use xlink:href="#prefix__g"/>
            </mask>
            <path fill="#FFF" fill-rule="nonzero" d="M5.383 13.167L13.181 18.832 10.203 27.999 18 22.333 25.798 27.998 22.82 18.831 30.618 13.166 20.98 13.166 18 4 15.022 13.167z" mask="url(#prefix__h)"/>
        </g>
    </g>
</svg>
