<svg xmlns="http://www.w3.org/2000/svg" width="36" height="36" viewBox="0 0 36 36">
    <g fill="none">
        <circle cx="18" cy="18" r="18" fill="#F0F0F0"/>
        <path fill="#A2001D" d="M5.272 30.728c.742.742 1.547 1.418 2.406 2.021l25.07-25.07c-.593-.845-1.266-1.65-2.02-2.406-.754-.756-1.56-1.428-2.406-2.02L3.25 28.322c.603.859 1.279 1.664 2.021 2.406h.001z"/>
        <path fill="#0052B4" d="M5.272 5.272C-.407 10.95-1.497 19.48 2 26.253L26.253 2C19.48-1.497 10.95-.406 5.272 5.272z"/>
        <path fill="#496E2D" d="M30.728 30.728c5.68-5.68 6.77-14.207 3.273-20.98L9.747 34c6.774 3.496 15.302 2.406 20.98-3.273l.001.001z"/>
        <path fill="#FFDA44" d="M14.87 10.174L12.853 11.124 13.927 13.077 11.727 12.657 11.449 14.869 9.924 13.242 8.398 14.869 8.121 12.657 5.921 13.077 6.995 11.124 4.978 10.174 6.995 9.224 5.94 7.272 8.14 7.692 8.418 5.479 9.943 7.106 11.469 5.479 11.747 7.692 13.947 7.272 12.873 9.225z"/>
    </g>
</svg>
