<svg xmlns="http://www.w3.org/2000/svg" width="36" height="36" viewBox="0 0 36 36">
    <g fill="none">
        <path fill="#F0F0F0" d="M1.786 10.174C.606 12.614-.004 15.29 0 18c-.004 2.71.607 5.386 1.786 7.826L18 27.39l16.214-1.565C35.393 23.385 36.004 20.71 36 18c.004-2.71-.607-5.386-1.786-7.826L18 8.61 1.786 10.174z"/>
        <path fill="#6DA544" d="M1.787 25.826C4.698 31.847 10.864 36 18 36c7.136 0 13.302-4.153 16.213-10.174H1.787z"/>
        <g fill="#FF9811" transform="translate(1)">
            <path d="M.787 10.174h32.427C30.302 4.153 24.136 0 17 0 9.864 0 3.698 4.153.787 10.174z"/>
            <circle cx="17" cy="18" r="6.261"/>
        </g>
    </g>
</svg>
