<svg xmlns="http://www.w3.org/2000/svg" width="36" height="36" viewBox="0 0 36 36">
    <g fill="none">
        <circle cx="18" cy="18" r="18" fill="#F0F0F0"/>
        <path fill="#003876" d="M18 0C10.864 0 4.698 4.153 1.786 10.174h32.428C31.303 4.153 25.136 0 18 0zm0 36c7.136 0 13.302-4.153 16.214-10.174H1.786C4.698 31.847 10.864 36 18 36z"/>
        <path fill="#FFDA44" d="M18 12.522c-3.025.001-5.477 2.453-5.478 5.478.001 3.025 2.453 5.477 5.478 5.478 3.025-.001 5.477-2.453 5.478-5.478-.001-3.025-2.453-5.477-5.478-5.478zm0 8.61c-1.729 0-3.13-1.402-3.13-3.13 0-1.73 1.401-3.131 3.13-3.131 1.729 0 3.13 1.402 3.13 3.13 0 1.73-1.401 3.131-3.13 3.131z"/>
        <path fill="#0052B4" d="M20.71 18.783L18 18 15.29 18.783 14.386 20.348 21.616 20.348z"/>
        <path fill="#338AF3" d="M18 14.087L16.193 17.217 18 18 19.807 17.217z"/>
        <path fill="#6DA544" d="M15.29 18.783L20.712 18.783 19.808 17.218 16.193 17.218z"/>
    </g>
</svg>
