<svg xmlns="http://www.w3.org/2000/svg" width="36" height="36" viewBox="0 0 36 36">
    <g fill="none">
        <circle cx="18" cy="18" r="18" fill="#F0F0F0"/>
        <path fill="#0052B4" d="M18 0C12.544 0 7.656 2.427 4.355 6.26h27.3C28.344 2.427 23.456 0 18 0zm13.645 29.74h-27.3C7.656 33.573 12.544 36 18 36c5.456 0 10.344-2.427 13.645-6.26z"/>
        <path fill="#D80027" d="M33.358 8.61H2.642C.966 11.343 0 14.558 0 18s.966 6.657 2.642 9.39h30.716C35.034 24.657 36 21.442 36 18s-.966-6.657-2.642-9.39z"/>
        <circle cx="11.074" cy="18" r="6.926" fill="#F0F0F0"/>
        <path fill="#D80027" d="M11.074 11.074L12.628 15.857 17.665 15.857 13.588 18.813 15.154 23.61 11.074 20.64 7 23.604 8.56 18.814 4.487 15.858 9.52 15.858z"/>
    </g>
</svg>
