<svg xmlns="http://www.w3.org/2000/svg" width="36" height="36" viewBox="0 0 36 36">
    <g fill="none">
        <path fill="#060" d="M0 18c0 7.74 4.885 14.337 11.74 16.88L13.304 18 11.74 1.12C4.885 3.663 0 10.26 0 18z"/>
        <path fill="red" d="M36 18c0-9.94-8.06-18-18-18-2.202 0-4.31.396-6.26 1.12v33.76c2.003.743 4.123 1.122 6.26 1.12 9.94 0 18-8.06 18-18z"/>
        <circle cx="11.739" cy="18" r="6.261" fill="#FFDA44"/>
        <path fill="#D80027" d="M8.217 14.87v3.913c0 1.945 1.577 3.522 3.522 3.522 1.945 0 3.522-1.577 3.522-3.522V14.87H8.217z"/>
        <path fill="#F0F0F0" d="M11.74 19.957c-.647 0-1.174-.527-1.174-1.174v-1.565h2.348v1.565c0 .647-.527 1.174-1.174 1.174z"/>
    </g>
</svg>
