<svg xmlns="http://www.w3.org/2000/svg" width="36" height="36" viewBox="0 0 36 36">
    <g fill="none">
        <circle cx="18" cy="18" r="18" fill="#F0F0F0"/>
        <path fill="#D80027" d="M18 0C10.864 0 4.698 4.153 1.786 10.174h32.428C31.302 4.153 25.136 0 18 0z"/>
        <path fill="#0052B4" d="M18 36c7.136 0 13.302-4.153 16.214-10.174H1.786C4.698 31.847 10.864 36 18 36z"/>
        <path fill="#6DA544" d="M22.427 12.8l-1.66 1.66c.735.733 1.147 1.729 1.146 2.767 0 2.16-1.752 3.913-3.913 3.913-2.161 0-3.913-1.752-3.913-3.913-.001-1.038.411-2.034 1.146-2.767l-1.66-1.66c-1.176 1.173-1.836 2.766-1.834 4.427 0 3.458 2.803 6.261 6.261 6.261s6.261-2.803 6.261-6.261c.002-1.66-.658-3.254-1.834-4.427z"/>
        <path fill="#FFDA44" d="M18 14.87L18.583 16.664 20.469 16.664 18.943 17.772 19.526 19.566 18 18.457 16.474 19.565 17.057 17.771 15.531 16.663 17.417 16.663z"/>
    </g>
</svg>
