<svg xmlns="http://www.w3.org/2000/svg" width="36" height="36" viewBox="0 0 36 36">
    <g fill="none">
        <path fill="#FFDA44" d="M25.826 1.786C23.386.606 20.71-.004 18 0c-2.71-.004-5.386.607-7.826 1.786L8.61 18l1.565 16.214C12.615 35.393 15.29 36.004 18 36c2.71.004 5.386-.607 7.826-1.786L27.39 18 25.826 1.786z"/>
        <path fill="#496E2D" d="M18 11.74l1.554 4.783h5.03l-4.07 2.956 1.554 4.783L18 21.305l-4.07 2.956 1.554-4.783-4.07-2.956h5.03L18 11.74zm-7.826-9.953C4.153 4.698 0 10.864 0 18c0 7.136 4.153 13.302 10.174 16.213V1.787z"/>
        <path fill="#D80027" d="M25.826 1.787v32.427C31.847 31.302 36 25.136 36 18c0-7.136-4.153-13.302-10.174-16.213z"/>
    </g>
</svg>
