<svg xmlns="http://www.w3.org/2000/svg" width="36" height="36" viewBox="0 0 36 36">
    <g fill="none">
        <circle cx="18" cy="18" r="18" fill="#F0F0F0"/>
        <path fill="#0052B4" d="M18 0C8.059 0 0 8.059 0 18c0 2.2.4 4.3 1.12 6.26h33.76C35.6 22.3 36 20.2 36 18c0-9.941-8.059-18-18-18z"/>
        <g fill="#D80027">
            <path d="M17 0C9.468-.006 2.73 4.678.11 11.74h33.76C31.253 4.685 24.524.003 17 0z" transform="translate(1)"/>
            <path d="M3.65 10.17v8.98c0 5.1 6.67 6.67 6.67 6.67S17 24.26 17 19.15v-8.98H3.65z" transform="translate(1)"/>
        </g>
        <path fill="#FFDA44" d="M7.42 11.74h7.83V8.6l-1.57.78-2.35-2.35L8.98 9.4l-1.56-.8v3.14zm9.02 8.66l-5.1-5.1-5.1 5.1 1.66 1.66 3.43-3.43 3.43 3.43 1.68-1.66z"/>
        <path fill="#F0F0F0" d="M16.43 15.65h-2.37c.13-.23.2-.5.2-.78 0-.86-.7-1.57-1.57-1.57-.6 0-1.12.33-1.38.83-.26-.5-.78-.83-1.38-.83-.86 0-1.57.7-1.57 1.57 0 .3.08.55.2.78h-2.3c0 .86.75 1.57 1.62 1.57h-.05c0 .86.7 1.57 1.57 1.57 0 .77.55 1.4 1.28 1.54L9.43 23.1c.6.24 1.24.37 1.9.37.66 0 1.32-.13 1.9-.37L12 20.32c.73-.14 1.28-.77 1.28-1.54.86 0 1.57-.7 1.57-1.57h-.05c.86 0 1.62-.7 1.62-1.57l.01.01z"/>
    </g>
</svg>
