<svg xmlns="http://www.w3.org/2000/svg" width="36" height="36" viewBox="0 0 36 36">
    <g fill="none">
        <circle cx="18" cy="18" r="18" fill="#F0F0F0"/>
        <path fill="#A2001D" d="M34.88 11.74H1.12C.396 13.69 0 15.798 0 18s.396 4.31 1.12 6.26h33.76c.743-2.003 1.122-4.123 1.12-6.26.002-2.137-.377-4.257-1.12-6.261v.001z"/>
        <path fill="#6DA544" d="M18.052 36c6.165 0 11.606-3.1 14.85-7.826h-29.7C6.446 32.9 11.887 36 18.052 36zm0-36c6.165 0 11.606 3.1 14.85 7.826h-29.7C6.446 3.1 11.887 0 18.052 0z"/>
        <path fill="#FFDA44" d="M18 11.74L19.554 16.523 24.584 16.523 20.514 19.479 22.068 24.262 18 21.305 13.93 24.261 15.484 19.478 11.414 16.522 16.444 16.522z"/>
    </g>
</svg>
