<svg xmlns="http://www.w3.org/2000/svg" width="36" height="36" viewBox="0 0 36 36">
    <g fill="none">
        <path fill="#FFDA44" d="M34.2 25.83C35.36 23.46 36 20.8 36 18s-.64-5.46-1.8-7.83L18 9.4l-16.2.78C.64 12.54 0 15.2 0 18c0 2.8.64 5.46 1.8 7.83l16.2.78 16.2-.78z"/>
        <path fill="#3D3D3D" d="M18 0C11.093 0 4.795 3.95 1.79 10.17H34.2C31.197 3.954 24.903.003 18 0z"/>
        <path fill="#0052B4" d="M18 36c-6.907 0-13.205-3.95-16.21-10.17H34.2C31.197 32.046 24.903 35.997 18 36z"/>
        <path fill="#A2001D" d="M35.15 12.52H.85C.285 14.292-.001 16.14 0 18c-.001 1.86.285 3.708.85 5.48h34.3c.565-1.772.851-3.62.85-5.48.001-1.86-.285-3.708-.85-5.48z"/>
        <path fill="#FFDA44" d="M6.26 17.2h23.48v1.57H6.26V17.2zm3.14-3.12h17.2v1.57H9.4v-1.57z"/>
        <path fill="#F0F0F0" d="M26.72 18S22.7 22.7 18 22.7c-4.7 0-4.7-4.7-4.7-4.7s0-4.7 4.7-4.7 8.72 4.7 8.72 4.7z"/>
        <path fill="#3D3D3D" d="M18 22.7c-4.7 0-8.72-4.7-8.72-4.7s4.02-4.7 8.72-4.7"/>
        <path fill="#F0F0F0" d="M14.87 16.43L16.44 16.43 16.44 19.56 14.87 19.56z"/>
        <path fill="#3D3D3D" d="M19.57 16.43L21.14 16.43 21.14 19.56 19.57 19.56z"/>
        <g fill="#0052B4" transform="translate(4 16)">
            <circle cx="2.26" cy="2" r="1.57"/>
            <circle cx="25.74" cy="2" r="1.57"/>
        </g>
    </g>
</svg>
