<svg xmlns="http://www.w3.org/2000/svg" width="36" height="36" viewBox="0 0 36 36">
    <g fill="none">
        <path fill="#FFDA44" d="M31.42 30.68C34.27 27.453 36 23.17 36 18.5s-1.73-8.953-4.58-12.18L18 5 4.58 6.32C1.73 9.547 0 13.83 0 18.5s1.73 8.953 4.58 12.18L18 32l13.42-1.32z"/>
        <path fill="#3D3D3D" d="M5 6h27c-3.31-3.68-8.131-6-13.495-6C13.141 0 8.321 2.32 5 6z"/>
        <path fill="#D80027" d="M0 18.34L18 20l18-1.66c0-2.218-.36-4.353-1.03-6.34H1.03C.36 13.987 0 16.122 0 18.34z"/>
        <path fill="#3D3D3D" d="M1.03 24h33.94c.66-1.88 1.03-3.9 1.03-6H0c0 2.1.36 4.12 1.03 6z"/>
        <path fill="#D80027" d="M32 30H5c3.32 3.68 8.128 6 13.5 6s10.18-2.32 13.5-6z"/>
        <path fill="#F0F0F0" d="M25 19c0 3.314-2.686 6-6 6s-6-2.686-6-6 2.686-6 6-6 6 2.686 6 6z"/>
        <path fill="#3D3D3D" d="M21.022 18.813l-2.326-.915.57-1.761c.022-.096.032-.164.032-.26 0-.308-.137-.597-.359-.799l.581-.53c-.37-.336-.888-.548-1.458-.548-.571 0-1.09.212-1.46.549l.582.53c-.211.192-.36.48-.36.798 0 .116.022.221.053.327l-.877.8h1.586s-.666.904-1.026 1.636c-.36.731 0 1.636.846 1.992l.486.193.804.673v.751L17.87 23h1.66v-1.511l.74-.674h1.565l.02-.039c.37-.77 0-1.636-.845-1.992l.01.029z"/>
    </g>
</svg>
