<svg xmlns="http://www.w3.org/2000/svg" width="36" height="36" viewBox="0 0 36 36">
    <g fill="none">
        <circle cx="18" cy="18" r="18" fill="#F0F0F0"/>
        <path fill="#D80027" d="M17.2 18H36c.001-1.587-.207-3.168-.62-4.7H17.2V18zm0-9.4h16.14c-1.1-1.796-2.504-3.387-4.15-4.7h-12v4.7h.01zM18 36c4.07.008 8.02-1.371 11.2-3.91H6.8C9.98 34.629 13.93 36.008 18 36zM2.64 27.4h30.72c.895-1.462 1.575-3.045 2.02-4.7H.62c.445 1.655 1.125 3.238 2.02 4.7z"/>
        <path fill="#0052B4" d="M8.34 2.8h1.64L8.45 3.9l.58 1.8L7.5 4.6 5.98 5.7l.5-1.55C5.137 5.275 3.965 6.588 3 8.05h.53l-.97.7-.44.77.46 1.43-.87-.63-.6 1.4.5 1.57h1.9L2 14.4l.58 1.8-1.53-1.1-.9.66C.05 16.5 0 17.24 0 18h18V0c-3.422-.006-6.775.97-9.66 2.81V2.8zm.7 13.4L7.5 15.1l-1.53 1.1.58-1.8-1.53-1.1h1.9l.58-1.8.58 1.8h1.9l-1.53 1.1.58 1.8h.01zm-.58-7.04l.58 1.8-1.53-1.1-1.53 1.1.58-1.8-1.53-1.1h1.9l.58-1.8.58 1.8h1.9l-1.53 1.1zm7.04 7.04l-1.53-1.1-1.53 1.1.58-1.8-1.53-1.1h1.9l.58-1.8.58 1.8h1.9l-1.53 1.1.58 1.8zm-.58-7.04l.58 1.8-1.53-1.1-1.53 1.1.58-1.8-1.53-1.1h1.9l.58-1.8.58 1.8h1.9l-1.53 1.1zm0-5.24l.58 1.8-1.53-1.1-1.53 1.1.58-1.8-1.53-1.1h1.9l.58-1.8.58 1.8h1.9l-1.53 1.1z"/>
    </g>
</svg>
