<svg xmlns="http://www.w3.org/2000/svg" width="36" height="36" viewBox="0 0 36 36">
    <g fill="none">
        <path fill="#F0F0F0" d="M.85 12.52C.285 14.292-.001 16.14 0 18c-.001 1.86.285 3.708.85 5.48l17.15.78 17.15-.78c.565-1.772.851-3.62.85-5.48.001-1.86-.285-3.708-.85-5.48L18 11.74l-17.15.78z"/>
        <path fill="#D80027" d="M35.15 12.52L18 11.74l-17.15.78-.42 1.58h35.14l-.42-1.57v-.01zM.43 21.9l.42 1.57 17.15.78 17.15-.78c.164-.517.304-1.04.42-1.57H.43z"/>
        <path fill="#1EB53A" d="M18 36c7.832.002 14.766-5.06 17.15-12.52H.85C3.234 30.94 10.168 36.002 18 36z"/>
        <path fill="#0099B5" d="M18 0C10.168-.002 3.234 5.06.85 12.52h34.3C32.766 5.06 25.832-.002 18 0z"/>
        <g fill="#F0F0F0">
            <path d="M2.23 4.44C2.23 2.75 3.4 1.34 5 1 4.76.95 4.5.92 4.25.92 2.31.92.73 2.5.73 4.44s1.58 3.52 3.52 3.52c.26 0 .5-.03.75-.08-1.58-.35-2.77-1.75-2.77-3.44zM7.07 6.04L7.31 6.77 8.08 6.77 7.46 7.22 7.7 7.95 7.08 7.5 6.46 7.95 6.7 7.22 6.08 6.77 6.85 6.77z" transform="translate(6 3)"/>
            <path d="M1.07 0.04L1.31 0.77 2.08 0.77 1.46 1.22 1.7 1.95 1.08 1.5 0.46 1.95 0.7 1.22 0.08 0.77 0.85 0.77z" transform="translate(6 3) translate(8.47 6)"/>
            <path d="M12 6.04L12.24 6.77 13 6.77 12.38 7.22 12.62 7.95 12 7.5 11.38 7.95 11.62 7.22 11 6.77 11.77 6.77z" transform="translate(6 3)"/>
            <path d="M1.07 0.04L1.31 0.77 2.08 0.77 1.46 1.22 1.7 1.95 1.08 1.5 0.46 1.95 0.7 1.22 0.08 0.77 0.85 0.77z" transform="translate(6 3) translate(13.39 6)"/>
            <path d="M1.07 0.04L1.31 0.77 2.08 0.77 1.46 1.22 1.7 1.95 1.08 1.5 0.46 1.95 0.7 1.22 0.08 0.77 0.85 0.77z" transform="translate(6 3) translate(15.85 6)"/>
            <path d="M1.07 0.04L1.31 0.77 2.08 0.77 1.46 1.22 1.7 1.95 1.08 1.5 0.46 1.95 0.7 1.22 0.08 0.77 0.85 0.77z" transform="translate(6 3) translate(8.47 3.44)"/>
            <path d="M12 3.48L12.24 4.21 13 4.21 12.38 4.66 12.62 5.39 12 4.94 11.38 5.39 11.62 4.66 11 4.2 11.77 4.2z" transform="translate(6 3)"/>
            <path d="M1.07 0.04L1.31 0.77 2.08 0.77 1.46 1.22 1.7 1.95 1.08 1.5 0.46 1.95 0.7 1.22 0.08 0.77 0.85 0.77z" transform="translate(6 3) translate(13.39 3.44)"/>
            <path d="M1.07 0.04L1.31 0.77 2.08 0.77 1.46 1.22 1.7 1.95 1.08 1.5 0.46 1.95 0.7 1.22 0.08 0.77 0.85 0.77z" transform="translate(6 3) translate(15.85 3.44)"/>
            <path d="M12 0.92L12.24 1.65 13 1.65 12.38 2.1 12.62 2.83 12 2.38 11.38 2.83 11.62 2.1 11 1.65 11.77 1.65z" transform="translate(6 3)"/>
            <path d="M1.07 0.04L1.31 0.77 2.08 0.77 1.46 1.22 1.7 1.95 1.08 1.5 0.46 1.95 0.7 1.22 0.08 0.77 0.85 0.77z" transform="translate(6 3) translate(13.39 .88)"/>
            <path d="M1.07 0.04L1.31 0.77 2.08 0.77 1.46 1.22 1.7 1.95 1.08 1.5 0.46 1.95 0.7 1.22 0.08 0.77 0.85 0.77z" transform="translate(6 3) translate(15.85 .88)"/>
        </g>
    </g>
</svg>
