<svg xmlns="http://www.w3.org/2000/svg" width="36" height="36" viewBox="0 0 36 36">
    <g fill="none">
        <path fill="#F0F0F0" d="M18 0c9.94 0 18 8.06 18 18s-8.06 18-18 18c0-.783-2.348-18-2.348-18L18 0z"/>
        <path fill="#FFDA44" d="M18 36C8.06 36 0 27.94 0 18S8.06 0 18 0"/>
        <path fill="#ACABB1" d="M24.893 15.663l3.383 4.475c-.623.954-.472 2.219.36 2.999.83.78 2.102.85 3.015.168.906-.692 1.185-1.934.66-2.947-.523-1.013-1.698-1.503-2.786-1.164l-5.272-6.975-3.122 2.36 1.888 2.497 1.875-1.414-.001.001zm4.87 5.145c.345-.26.836-.192 1.096.152.26.344.192.836-.152 1.096-.344.26-.836.192-1.096-.152-.26-.344-.193-.836.152-1.096z"/>
        <path fill="#FFDA44" d="M30.695 17.077l1.888-2.497-3.122-2.36-5.272 6.975c-1.088-.34-2.263.151-2.787 1.164s-.245 2.255.661 2.947c.913.683 2.184.612 3.016-.168.831-.78.982-2.045.359-2.999l3.383-4.475 1.875 1.414-.001-.001zm-6.592 4.827c-.26.345-.75.413-1.096.152-.346-.261-.413-.752-.152-1.096.261-.344.75-.413 1.096-.152.346.261.413.752.152 1.096z"/>
    </g>
</svg>
