<svg xmlns="http://www.w3.org/2000/svg" width="36" height="36" viewBox="0 0 36 36">
    <g fill="none">
        <circle cx="18" cy="18" r="18" fill="#F0F0F0"/>
        <g fill="#FFDA44">
            <path d="M12.9 3.083c0-1.688-1.368-3.057-3.056-3.057-1.689 0-3.057 1.369-3.057 3.057H.06c0 1.662 1.448 3.01 3.11 3.01h-.1c0 1.662 1.348 3.01 3.01 3.01 0 1.472 1.057 2.695 2.453 2.956l-.007.018h2.634l-.008-.018c1.396-.261 2.453-1.484 2.453-2.956 1.663 0 3.01-1.348 3.01-3.01h-.1c1.662 0 3.11-1.348 3.11-3.01h-6.725z" transform="translate(8.156 9.492)"/>
            <path d="M8.5 11.765l-1.896 4.28c1 .406 2.094.632 3.24.632 1.146 0 2.24-.226 3.24-.633l-1.896-4.279H8.5z" transform="translate(8.156 9.492)"/>
        </g>
        <path fill="#F0F0F0" d="M14.087 14.078v5.266c0 2.995 3.913 3.913 3.913 3.913s3.913-.918 3.913-3.913v-5.266h-7.826z"/>
        <g fill="#338AF3">
            <path d="M1.623.056L3.739 5.976 5.833.056 7.432.056 4.378 7.882 3.1 7.882.024.056zM26.214 7.882L26.214.056 27.735.056 27.735 7.882z" transform="translate(2.742 18.07)"/>
        </g>
        <g fill="#D80027">
            <path d="M.043.029V6.41c.538.396 1.117.668 1.565.843V.029H.043zM4.738.029V6.41c-.538.396-1.116.668-1.565.843V.029h1.565z" transform="translate(15.61 15.75)"/>
        </g>
        <path fill="#0052B4" d="M14.087 14.078H21.913V16.561H14.087z"/>
    </g>
</svg>
