<svg xmlns="http://www.w3.org/2000/svg" width="24" height="24" viewBox="0 0 24 24"><g fill="none" fill-rule="evenodd"><circle class="icon-bg-color" cx="12" cy="12" r="10.8" fill="#FFF"/><path class="icon-color" fill="#FFC82D" d="M12 0C5.383 0 0 5.383 0 12s5.383 12 12 12 12-5.383 12-12S18.617 0 12 0m0 21.6c-5.293 0-9.6-4.307-9.6-9.6 0-5.293 4.307-9.6 9.6-9.6 5.293 0 9.6 4.307 9.6 9.6 0 5.293-4.307 9.6-9.6 9.6M12 6a1.2 1.2 0 00-1.2 1.2V12a1.2 1.2 0 102.4 0V7.2A1.2 1.2 0 0012 6m0 9.6a1.2 1.2 0 100 2.4 1.2 1.2 0 000-2.4"/></g></svg>