<svg xmlns="http://www.w3.org/2000/svg" xmlns:xlink="http://www.w3.org/1999/xlink" width="36" height="36" viewBox="0 0 36 36"><defs><path id="a" d="M22.583 14.293a1 1 0 111.415 1.414l-7.321 7.32a1 1 0 01-1.414 0l-3.97-3.969a1 1 0 011.414-1.414l3.263 3.263 6.613-6.614z"/><path id="b" d="M18 31c-7.18 0-13-5.82-13-13S10.82 5 18 5s13 5.82 13 13-5.82 13-13 13zm0-2c6.075 0 11-4.925 11-11S24.075 7 18 7 7 11.925 7 18s4.925 11 11 11z"/></defs><g fill="none" fill-rule="evenodd"><path d="M0 0h36v36H0z"/><use fill="#08A652" class="repaint" fill-rule="nonzero" xlink:href="#a"/><use fill="#08A652" class="repaint" xlink:href="#b"/></g></svg>
