<svg xmlns="http://www.w3.org/2000/svg" width="36" height="36" viewBox="0 0 36 36"><g fill="none" fill-rule="evenodd"><path d="M36 0v36H0V0z"/><path fill="#505A66" d="M29.02 13a.998.998 0 01.974.885L30 14v13c0 1.515-1.341 2.898-2.834 2.995L27 30H9c-1.505 0-2.897-1.318-2.995-2.831L6 27V13.981c0-.024.002-.049.004-.074L6 14a1.008 1.008 0 01.216-.62 1.01 1.01 0 01.166-.166l-.088.078A1.007 1.007 0 017 13h.02c.024 0 .048.002.072.004L7 13a1.008 1.008 0 01.62.216.95.95 0 01.095.084l10.267 10.301 10.274-10.307c.2-.2.464-.298.726-.294h.037zM17.255 25.706L8 16.419V27c0 .438.463.925.9.992L9 28h18c.425 0 .923-.464.992-.9L28 27V16.382l-9.292 9.324a.996.996 0 01-.647.292h-.158a.996.996 0 01-.647-.292z"/><path fill="#08A652" fill-rule="nonzero" d="M19.01 16a1 1 0 01.99 1c0 .556-.444 1-.99 1h-4.02a1 1 0 01-.99-1l.007-.117A.992.992 0 0114.99 16zM23 6a3 3 0 013 3v4.313l-2 2V9a1 1 0 00-1-1H13a1 1 0 00-1 1v6.312l-2-2.001V9a3 3 0 013-3h10zm-1.997 5c.544 0 .997.448.997 1 0 .556-.446 1-.997 1h-6.006c-.544 0-.997-.448-.997-1l.007-.117a.995.995 0 01.99-.883z"/></g></svg>