<svg xmlns="http://www.w3.org/2000/svg" width="24" height="24" viewBox="0 0 24 24"><g fill="none" fill-rule="evenodd"><path fill="#FFF" d="M-6642-3539H3358v6181H-6642z"/><path d="M0 0h24v24H0z"/><path fill="#FFF" fill-rule="nonzero" d="M7.836 16v-2.108h-.764V13.2h2.336v.692h-.764V16h-.808zm1.772 0l.756-1.44-.696-1.36h.936l.404.84.412-.84h.92l-.736 1.352.788 1.448h-.956l-.464-.892-.436.892h-.928zm3.748 0v-2.108h-.764V13.2h2.336v.692h-.764V16h-.808z"/><path fill="#D6DAE0" d="M6.167 3C5.525 3 5 3.506 5 4.125v15.75C5 20.494 5.525 21 6.167 21h11.666c.642 0 1.167-.506 1.167-1.125V8l-5-5H6.167z"/><path fill="#4C63B6" fill-rule="nonzero" d="M15.25 8H19l-5-5v3.75c0 .688.563 1.25 1.25 1.25zM11 15l-4-2.5 4-2.5v1.509l-1.742.991 1.742.991V15zm2 0v-1.509l1.742-.991L13 11.509V10l4 2.5-4 2.5z"/></g></svg>