<svg xmlns="http://www.w3.org/2000/svg" width="104" height="104" viewBox="0 0 104 104"><g fill="none" fill-rule="evenodd"><path d="M0 0h104v104H0z"/><g transform="translate(5 8)"><ellipse class="icon__background" cx="54.905" cy="40" fill="#D4E6D6" rx="39.905" ry="40"/><g fill="#4C6470"><path d="M60.091 8.304l3.685.004a.772.772 0 01.002 1.544l-3.685-.005a.772.772 0 01-.002-1.543z"/><path d="M61.16 7.234a.772.772 0 111.544.002l.005 3.685a.772.772 0 01-1.544-.002l-.004-3.685z"/></g><g fill="#4C6470"><path d="M81.339 15.372l1.487 1.49a.441.441 0 01-.623.625l-1.487-1.49a.441.441 0 01.623-.625z"/><path d="M82.203 15.372a.441.441 0 01.623.625l-1.487 1.49a.441.441 0 01-.623-.625l1.487-1.49z"/></g><path stroke="#4C6470" stroke-width="2" d="M48.004 7a2.002 2.002 0 002.004-2c0-1.105-.897-2-2.004-2A2.002 2.002 0 0046 5c0 1.105.897 2 2.004 2zm26.501 1a2.502 2.502 0 002.505-2.5c0-1.38-1.122-2.5-2.505-2.5A2.502 2.502 0 0072 5.5C72 6.88 73.122 8 74.505 8z"/><path class="icon__shadow" fill="#A9CEAD" d="M43 43.386C44.176 38.573 48.517 35 53.693 35c6.08 0 11.008 4.928 11.008 11.007a11.01 11.01 0 01-6.29 9.948V45.386a2 2 0 00-2-2H43z"/><g stroke="#4C6470" stroke-linecap="round" stroke-width="2"><path d="M24.809 38.705v-9.403a1.56 1.56 0 011.552-1.567h54.303a1.56 1.56 0 011.552 1.567v34.247a1.56 1.56 0 01-1.552 1.567H67.095"/><path d="M17.051 38.744v-19.54a1.56 1.56 0 011.552-1.566h54.304c.857 0 1.551.701 1.551 1.566v4.122m-9.717 27.082c.266-.986.408-2.023.408-3.094 0-6.488-5.21-11.747-11.637-11.747a11.537 11.537 0 00-7.935 3.155"/></g><g transform="translate(0 34)"><path stroke="#4C6470" stroke-linecap="round" stroke-linejoin="round" stroke-width="2" d="M12.96.176H3.668C1.955.176.567 1.58.567 3.31v6.265h55.83"/><path stroke="#4C6470" stroke-linecap="round" stroke-width="2" d="M59.498 41.537v8.007c0 1.766-1.388 3.198-3.101 3.198H3.668c-1.713 0-3.101-1.432-3.101-3.198V9.574h55.83c1.713 0 3.101 1.432 3.101 3.198v10.84"/><ellipse cx="53.122" cy="32.552" fill="#4C6470" fill-rule="nonzero" rx="1.968" ry="1.988"/><path stroke="#4C6470" stroke-linecap="round" stroke-width="2" d="M63.43 36.54c0 .99-.803 1.794-1.795 1.794H52.63c-3.294 0-5.963-2.543-5.963-5.68 0-3.137 2.67-5.68 5.963-5.68h8.8a2 2 0 012 2v7.565zM5.385 39.538v7.18"/></g></g></g></svg>