<svg xmlns="http://www.w3.org/2000/svg" width="104" height="104" viewBox="0 0 104 104"><g fill="none" fill-rule="evenodd"><path d="M0 0h104v104H0z"/><g transform="translate(10 4)"><ellipse class="icon__background" cx="44.292" cy="40" fill="#DFE9EE" rx="40.292" ry="40"/><g stroke="#4C6470" stroke-width="2" transform="translate(33 48)"><ellipse class="icon__shadow" cx="18.8" cy="9.087" fill="#AFC7D4" rx="18.116" ry="8.806"/><path stroke-linecap="round" d="M36.916 17.524v3.073c0 4.417-8.11 7.998-18.116 7.998-10.005 0-18.116-3.581-18.116-7.998v-3.073"/><path stroke-linecap="round" d="M36.916 27.148v3.073c0 4.417-8.11 7.998-18.116 7.998C8.795 38.219.684 34.638.684 30.22v-3.073"/><path stroke-linecap="round" d="M36.916 36.772v3.073c0 4.417-8.11 7.998-18.116 7.998-10.005 0-18.116-3.581-18.116-7.998v-3.073"/></g><path d="M26.667 80.561H5.6c-3.093 0-5.6-2.51-5.6-5.616V21.616C0 18.515 2.512 16 5.6 16h43.536c3.093 0 5.6 2.511 5.6 5.616v19.647m-19.648-9.824h11.228M35.088 42.667h11.228M11.228 56.702h15.439M11.228 67.93H23.86" stroke="#4C6470" stroke-linecap="round" stroke-width="2"/><g stroke="#4C6470" stroke-width="2"><path stroke-linecap="square" d="M12.07 28.422l3.96 2.925 6.088-4.726"/><path d="M8.965 31.955a10.187 10.187 0 00-.947 4.306c0 5.648 4.579 10.228 10.228 10.228 5.648 0 10.228-4.58 10.228-10.228 0-2.394-.825-4.655-2.297-6.46L16 36.78l-7.035-4.825z"/></g></g></g></svg>