<svg xmlns="http://www.w3.org/2000/svg" width="104" height="104" viewBox="0 0 104 104"><g fill="none" fill-rule="evenodd"><path d="M0 0h104v104H0z"/><g transform="translate(4 5)"><ellipse class="icon__background" cx="55.905" cy="40" fill="#D4E6D6" rx="39.905" ry="40"/><path class="icon__shadow" fill="#A9CEAD" d="M44.949 39.748c1.175-4.814 5.517-8.386 10.693-8.386 6.08 0 11.007 4.928 11.007 11.007 0 4.391-2.57 8.181-6.29 9.948V41.748a2 2 0 00-2-2H44.95z"/><g stroke="#4C6470" stroke-width="2"><path stroke-linecap="round" d="M40.058 83H3.31a2.272 2.272 0 01-1.635-.7A2.423 2.423 0 011 80.612V42.39C1 41.069 2.036 40 3.314 40h54.372C58.965 40 60 41.073 60 42.391v16.003"/><path d="M.598 48.5h59.804"/><path stroke-linecap="round" d="M2 54.5h58M9 74h14"/></g><g stroke="#4C6470" stroke-width="2" transform="translate(43 62)"><circle cx="16" cy="16" r="16"/><circle cx="11.363" cy="11.59" r="2.59"/><path stroke-linecap="round" d="M22 10L10.007 21.993"/><circle cx="20.408" cy="20.635" r="2.59"/></g><g stroke="#4C6470" stroke-linecap="round" stroke-width="2"><path d="M27.758 34.066v-9.402a1.56 1.56 0 011.551-1.567h54.304a1.56 1.56 0 011.552 1.567V58.91a1.56 1.56 0 01-1.552 1.566h-13.57"/><path d="M20 34.106v-19.54A1.56 1.56 0 0121.552 13h54.303a1.56 1.56 0 011.552 1.566v4.122M67.69 45.77c.266-.986.408-2.023.408-3.094 0-6.488-5.21-11.747-11.637-11.747a11.537 11.537 0 00-7.935 3.155"/></g></g></g></svg>