<svg xmlns="http://www.w3.org/2000/svg" width="104" height="104" viewBox="0 0 104 104"><g fill="none" fill-rule="evenodd"><path d="M0 0h104v104H0z"/><g transform="translate(4 5)"><ellipse class="icon__background" cx="55.905" cy="40" fill="#DFE9EE" rx="39.905" ry="40"/><path class="icon__shadow" fill="#BFD3DD" d="M61 51.69V43a4 4 0 00-4-4h-3c0-6.9 4.658-12.71 11-14.46C71.342 26.29 76 32.1 76 39c0 6.9-4.658 12.71-11 14.46a14.921 14.921 0 01-4-1.77zM38.865 29.897c3.555-4.762 9.235-7.845 15.635-7.845.167 0 .334.002.5.006C54.968 27.554 50.503 32 45 32a9.957 9.957 0 01-6.135-2.103z"/><g stroke="#4C6470" stroke-width="2"><path stroke-linecap="round" d="M40.058 83H3.31a2.272 2.272 0 01-1.635-.7A2.423 2.423 0 011 80.612V42.39C1 41.069 2.036 40 3.314 40h54.372C58.965 40 60 41.073 60 42.391v16.003"/><path d="M.598 48.5h59.804"/><path stroke-linecap="round" d="M2 54.5h58M9 74h14"/></g><g transform="translate(35 12)"><path stroke="#4C6470" stroke-linecap="round" stroke-width="2" d="M28.449 40.935A14.951 14.951 0 0034.009 42C42.287 42 49 35.288 49 27.008c0-8.28-6.712-14.991-14.992-14.991-7.345 0-13.456 5.282-14.742 12.255"/><text fill="#4C6470" font-family="ArialMT, Arial" font-size="17"><tspan x="29.273" y="33">$</tspan></text><text fill="#4C6470" font-family="ArialMT, Arial" font-size="11"><tspan x="6.941" y="14">€</tspan></text><circle cx="24" cy="66" r="16" stroke="#4C6470" stroke-width="2"/><text fill="#4C6470" font-family=".HelveticaNeueDeskInterface-Regular, .Helvetica Neue DeskInterface" font-size="18"><tspan x="19" y="73">₽</tspan></text><circle cx="10" cy="10" r="10" stroke="#4C6470" stroke-width="2"/></g></g></g></svg>