<svg xmlns="http://www.w3.org/2000/svg" width="104" height="104" viewBox="0 0 104 104"><g fill="none" fill-rule="evenodd"><path d="M0 0h104v104H0z"/><g transform="translate(1 1)"><circle class="icon__background" cx="46" cy="40" r="40" fill="#FFECB9"/><path class="icon__shadow" fill="#FFC82D" d="M34.013 31.046l17.726-9.262 18.274 9.262v-4.44l-18.274-9.56-17.726 9.56z"/><g stroke="#4C6470" stroke-width="2" transform="translate(0 17)"><path stroke-linecap="round" d="M16.5 22.5V14"/><circle cx="52" cy="11" r="2"/><path stroke-linecap="round" stroke-linejoin="round" d="M89 23v-6h4v6m5 6.15v52.492M102 85h-1m-3 0H7m-4 0H0m5-3.444V29m65-17v70m-36 0V12m-4-1L51.582 0 74 11M1.571 26H31m42 0h28.601M47 21h9v8h-9zM15 35h9v8h-9zm64 0h9v8h-9zM15 51h9v8h-9zm64 0h9v8h-9zM15 67h9v8h-9zm64 0h9v8h-9zM47 37h9v8h-9zm0 16h9v8h-9zm-1 28.759V68h12v13.759"/><path stroke-linecap="round" d="M11.5 16.5h2m6 0h2"/></g></g></g></svg>