<svg xmlns="http://www.w3.org/2000/svg" width="104" height="104" viewBox="0 0 104 104"><g fill="none" fill-rule="evenodd"><path d="M0 0h104v104H0z"/><g transform="translate(8 10)"><ellipse class="icon__background" cx="40.292" cy="40" fill="#FFE08A" rx="40.292" ry="40"/><path class="icon__shadow" fill="#FFC82D" d="M31.68 54.016c6.254 4.14 13.694 6.063 22.321 5.77 8.627-.295 15.414-3.524 20.36-9.686v9.685c-3.804 5.413-10.917 8.12-21.34 8.12-10.422 0-18.54-2.707-24.353-8.12v-5.77h3.012z"/><g stroke="#4C6470" stroke-width="2" transform="translate(18 23)"><path stroke-linecap="round" d="M42.615 54h20.923"/><path stroke-linecap="round" stroke-linejoin="round" d="M57.333 46l7.9 7.9-7.55 7.55"/><ellipse cx="28.235" cy="10.98" rx="22.588" ry="10.98"/><path stroke-linecap="round" d="M50.824 16.941v3.832c0 5.507-10.114 9.972-22.589 9.972-12.475 0-22.588-4.465-22.588-9.972V16.94m2.692 13.543C3.25 32.711 0 36.107 0 39.911c0 6.71 10.113 12.15 22.588 12.15 6.433 0 12.237-1.447 16.351-3.767"/><path stroke-linecap="round" d="M35.668 58.033c-3.69 1.166-8.205 1.852-13.08 1.852C10.113 59.885 0 55.394 0 49.853v-3.855M14.568 31.82c4.065 3.18 10.918 5.267 18.687 5.267 12.475 0 22.588-5.383 22.588-12.023 0-1.245-.355-2.446-1.016-3.576"/><path stroke-linecap="round" d="M55.843 31.087v3.815c0 5.483-10.113 9.928-22.588 9.928-12.475 0-22.588-4.445-22.588-9.928v-3.815"/></g><g transform="translate(9 10)"><rect width="2.009" height="6.802" x="2.588" y="17.175" fill="#4C6470" rx="1.004" transform="scale(-1 1) rotate(45 0 11.905)"/><rect width="2.009" height="6.802" x="2.588" y="17.175" fill="#4C6470" rx="1.004" transform="rotate(45 3.592 20.576)"/><rect width="2.009" height="6.802" x="60.956" y="6.668" fill="#4C6470" rx="1.004" transform="rotate(90 61.96 10.069)"/><path stroke="#4C6470" stroke-width="2" d="M47.51 5c1.388 0 2.512-1.12 2.512-2.5S48.898 0 47.51 0A2.505 2.505 0 0045 2.5C45 3.88 46.124 5 47.51 5zm-39 39c1.388 0 2.512-1.12 2.512-2.5S9.898 39 8.51 39A2.505 2.505 0 006 41.5C6 42.88 7.124 44 8.51 44z"/><rect width="1.148" height="3.887" x="72.479" y="22.1" fill="#4C6470" rx=".574" transform="scale(-1 1) rotate(45 0 -152.32)"/><rect width="1.148" height="3.887" x="72.479" y="22.1" fill="#4C6470" rx=".574" transform="rotate(45 73.053 24.044)"/><path stroke="#4C6470" stroke-width="2" d="M73.022 28c2.222 0 4.022-1.792 4.022-4s-1.8-4-4.022-4C70.8 20 69 21.792 69 24s1.8 4 4.022 4z"/><rect width="1.148" height="3.887" x="15.479" y="8.1" fill="#4C6470" rx=".574" transform="scale(-1 1) rotate(45 0 -28.71)"/><rect width="1.148" height="3.887" x="15.479" y="8.1" fill="#4C6470" rx=".574" transform="rotate(45 16.053 10.044)"/><rect width="2.009" height="6.802" x="60.956" y="6.668" fill="#4C6470" rx="1.004" transform="rotate(90 51.892 0)"/></g></g></g></svg>