<svg xmlns="http://www.w3.org/2000/svg" width="104" height="104" viewBox="0 0 104 104"><g fill="none" fill-rule="evenodd"><path d="M0 0h104v104H0z"/><g transform="translate(6)"><circle class="icon__background" cx="40" cy="40" r="40" fill="#D4E6D6"/><path class="icon__shadow" fill="#7EC282" d="M19.44 11.002c3.494 6.016 7.26 10.326 11.296 12.93 3.592 2.317 7.92 3.918 12.986 4.804-5.885 2.18-11.254 1.895-16.106-.857-5.096-2.89-7.836-8.513-8.22-16.87l.044-.007z"/><g stroke-width="2" transform="translate(18 5)"><path stroke="#4C6470" stroke-linecap="round" d="M29.032 38.172V26.854"/><path stroke="#516874" stroke-linecap="round" d="M21.578 19.64l-11.394-8.463"/><path stroke="#4C6470" d="M26.298 23.584c-1.13-7.427-3.863-12.75-8.197-15.97-4.335-3.219-9.882-4.232-16.642-3.04-.254 6.71 1.827 12.083 6.243 16.121 4.416 4.038 10.615 5 18.596 2.889z"/><path stroke="#4C6470" stroke-linecap="round" d="M24.271 33.051C15.375 34.19 8.82 38.09 8.82 42.725c0 5.528 9.321 10.009 20.82 10.009 11.498 0 20.819-4.481 20.819-10.01 0-4.552-6.322-8.394-14.975-9.609"/><path stroke="#4C6470" stroke-linecap="round" d="M36.807 61.842c-2.178.325-4.52.5-6.958.5-11.614 0-21.03-3.995-21.03-8.925v-5.309M9.867 65.82c-4.709 2.067-7.716 5.217-7.716 8.747 0 6.225 9.358 11.271 20.902 11.271 5.952 0 11.324-1.341 15.13-3.494"/><path stroke="#4C6470" stroke-linecap="round" d="M39.785 91.022c-3.78 2.317-9.914 3.824-16.84 3.824-11.484 0-20.794-4.144-20.794-9.256v-3.556M14.95 63.3c3.707 2.964 9.956 4.91 17.04 4.91 1.32 0 2.611-.067 3.863-.196m1.781 7.94a45.867 45.867 0 01-4.847.253c-11.474 0-20.776-4.144-20.776-9.256V62.32m39.211-13.692v3.225"/><ellipse cx="59.755" cy="73.853" stroke="#4C6470" rx="20.819" ry="10.009" transform="rotate(74 59.755 73.853)"/><path stroke="#4C6470" stroke-linecap="round" d="M59.962 95.65l-5.008 1.277c-4.96 1.237-11.236-6.805-14.017-17.962-2.782-11.156-1.016-21.203 3.944-22.44l3.712-1.136"/></g><g transform="translate(10 22)"><rect width="2.009" height="6.802" x="6.588" y="14.175" fill="#4C6470" rx="1.004" transform="scale(-1 1) rotate(45 0 -.752)"/><rect width="2.009" height="6.802" x="6.588" y="14.175" fill="#4C6470" rx="1.004" transform="rotate(45 7.592 17.576)"/><rect width="2.009" height="6.802" x="66.956" y="6.668" fill="#4C6470" rx="1.004" transform="rotate(90 67.96 10.069)"/><path stroke="#4C6470" stroke-width="2" d="M53.51 5c1.388 0 2.512-1.12 2.512-2.5S54.898 0 53.51 0A2.505 2.505 0 0051 2.5C51 3.88 52.124 5 53.51 5zm-45 42c1.388 0 2.512-1.12 2.512-2.5S9.898 42 8.51 42A2.505 2.505 0 006 44.5C6 45.88 7.124 47 8.51 47z"/><rect width="1.148" height="3.887" x="74.479" y="24.1" fill="#4C6470" rx=".574" transform="scale(-1 1) rotate(45 0 -155.15)"/><rect width="1.148" height="3.887" x="74.479" y="24.1" fill="#4C6470" rx=".574" transform="rotate(45 75.053 26.044)"/><path stroke="#4C6470" stroke-width="2" d="M75.022 30c2.222 0 4.022-1.792 4.022-4s-1.8-4-4.022-4C72.8 22 71 23.792 71 26s1.8 4 4.022 4z"/><rect width="1.148" height="3.887" x="1.479" y="31.1" fill="#4C6470" rx=".574" transform="scale(-1 1) rotate(45 0 28.088)"/><rect width="1.148" height="3.887" x="1.479" y="31.1" fill="#4C6470" rx=".574" transform="rotate(45 2.053 33.044)"/><rect width="2.009" height="6.802" x="66.956" y="6.668" fill="#4C6470" rx="1.004" transform="rotate(90 57.892 0)"/></g></g></g></svg>