<svg xmlns="http://www.w3.org/2000/svg" width="104" height="104" viewBox="0 0 104 104"><g fill="none" fill-rule="evenodd"><path d="M0 0h104v104H0z"/><g transform="translate(0 3)"><circle class="icon__background" cx="40" cy="40" r="40" fill="#FFECB9"/><path d="M33 61.241A7.455 7.455 0 0041.426 50 7.455 7.455 0 1133 61.241zm22-24A7.455 7.455 0 0063.426 26 7.455 7.455 0 1155 37.241zm-23 1A7.455 7.455 0 0040.426 27 7.455 7.455 0 1132 38.241z" fill="#FFCE45"/><g stroke-width="2" transform="translate(4 16)"><path stroke="#4C6470" stroke-linecap="round" d="M44.62 18.932h3.117m19.883 0h13.77m-60.39 0h2.953m-1.778 23h2.626m-2.626 20.615H36.99m8.044-21h14.814m-1.848 21h2m20 .074h.621m-.621-21h.621"/><path stroke="#4D6571" stroke-linecap="round" d="M7 80.758v-.019L8.205 1.224A1.242 1.242 0 019.447 0h7.492c.679 0 1.232.545 1.242 1.224l1.205 79.515M83 80.894l1.204-79.67A1.242 1.242 0 0185.446 0h7.493c.679 0 1.232.545 1.242 1.223l1.204 79.652M.405 84H98.13M11.621 44.271L11.945 7m80 73.271L91.621 43"/><circle cx="34.455" cy="17.455" r="7.455" stroke="#4D6571"/><path stroke="#4C6470" stroke-linecap="round" d="M30.847 17.43c-.045-1.13.587-2.294 1.72-2.948 1.132-.654 2.456-.62 3.412-.016"/><circle cx="57.455" cy="17.455" r="7.455" stroke="#4D6571"/><path stroke="#4C6470" stroke-linecap="round" d="M53.847 17.43c-.045-1.13.587-2.294 1.72-2.948 1.132-.654 2.456-.62 3.412-.016"/><circle cx="70.455" cy="41.455" r="7.455" stroke="#4D6571"/><path stroke="#4C6470" stroke-linecap="round" d="M66.847 40.43c-.045-1.13.587-2.294 1.72-2.948 1.132-.654 2.456-.62 3.412-.016"/><circle cx="35.455" cy="41.455" r="7.455" stroke="#4D6571"/><path stroke="#4C6470" stroke-linecap="round" d="M31.847 40.43c-.045-1.13.587-2.294 1.72-2.948 1.132-.654 2.456-.62 3.412-.016"/><circle cx="47.455" cy="62.455" r="7.455" stroke="#4D6571"/><path stroke="#4C6470" stroke-linecap="round" d="M43.847 61.43c-.045-1.13.587-2.294 1.72-2.948 1.132-.654 2.456-.62 3.412-.016"/><circle cx="70.455" cy="62.455" r="7.455" stroke="#4D6571"/><path stroke="#4C6470" stroke-linecap="round" d="M66.847 61.43c-.045-1.13.587-2.294 1.72-2.948 1.132-.654 2.456-.62 3.412-.016"/></g></g></g></svg>