<svg xmlns="http://www.w3.org/2000/svg" width="32" height="32" viewBox="0 0 32 32"><g fill="none" fill-rule="evenodd"><path fill="#231F20" fill-rule="nonzero" d="M27.612 11.836a10.335 10.335 0 00-2.38-4.718 9.479 9.479 0 00-4.661-2.726 17.755 17.755 0 00-5.395-.568 15.6 15.6 0 00-4.405.757A9.116 9.116 0 006.307 7.76a10.854 10.854 0 00-1.927 4.505 20.39 20.39 0 00-.198 6.703c.18 1.598.67 3.145 1.442 4.554a8.944 8.944 0 004.702 4.027 15.828 15.828 0 006.382.98 15.4 15.4 0 004.826-.873 9.215 9.215 0 005.765-6.044c.559-1.807.817-3.693.766-5.584a17.706 17.706 0 00-.453-4.192zm-.906 8.928a8.235 8.235 0 01-5.452 5.114 16.018 16.018 0 01-4.546.74 16.47 16.47 0 01-6.02-.823 8.235 8.235 0 01-4.439-3.4 9.726 9.726 0 01-1.367-3.855 15.499 15.499 0 01.157-5.658 8.721 8.721 0 011.82-3.83 8.647 8.647 0 014.2-2.667c1.34-.39 2.723-.606 4.117-.643 1.707-.083 3.417.07 5.082.453a9.215 9.215 0 014.397 2.306 8.45 8.45 0 012.249 4.003c.3 1.153.447 2.34.436 3.532a13.234 13.234 0 01-.634 4.728z"/><path fill="#ECEEF0" fill-rule="nonzero" d="M9.758 27.55a18.801 18.801 0 006.975.98 18.266 18.266 0 005.279-.874 9.644 9.644 0 006.34-6.06c.606-1.798.885-3.689.824-5.584a16.248 16.248 0 00-.502-4.176 10.039 10.039 0 00-2.61-4.718 10.624 10.624 0 00-5.123-2.743 21.181 21.181 0 00-5.863-.551 18.53 18.53 0 00-4.843.774 10.014 10.014 0 00-4.94 3.162 10.401 10.401 0 00-2.051 4.505 18.67 18.67 0 00-.223 6.703 11.645 11.645 0 001.581 4.563 9.602 9.602 0 005.156 4.018zm17.195-16.315c.436 1.303.683 2.662.733 4.036a15.293 15.293 0 01-.692 5.698 9.265 9.265 0 01-3.41 4.752c-.312.214-.658.387-1.012.593-.148-.996-.288-1.927-.428-2.858-.322-2.207-.684-4.397-.964-6.588a16.248 16.248 0 00-1.021-3.368c-1.013-2.85-3.13-8.655-3.163-8.746a12.106 12.106 0 015.156 1.095 9.059 9.059 0 014.8 5.386zM15.456 4.78h1.137v8.82h-1.145l.008-8.82zm-.32 10.706a.33.33 0 01.37-.24h1.087c.09-.009.18.032.23.108l3.295 7.28c.543 1.21 1.095 2.47 1.647 3.648 0 .099.082.19.14.33a15.45 15.45 0 01-5.27 1.095 17.41 17.41 0 01-6.59-1.12l.619-1.35c1.493-3.295 2.983-6.559 4.471-9.792v.04zm-7.017-8.54a10.13 10.13 0 014.875-2.018c.659-.099 1.342-.14 2.075-.206l-.823 2.47c-.997 2.842-2.018 5.683-2.981 8.533-.16.6-.272 1.21-.338 1.828-.461 2.47-.887 4.95-1.276 7.436l-.206 1.285c-.305-.165-.585-.288-.824-.453A8.68 8.68 0 015.36 21.86a13.358 13.358 0 01-1.03-5.057 16.108 16.108 0 01.495-4.743 9.396 9.396 0 013.294-5.114z"/><path fill="#BCBEC0" fill-rule="nonzero" d="M15.063 4.726c-1.31 4.475-3.663 10.229-3.887 11.544-.223 1.315-1.389 8.475-1.71 9.957L9.412 25.2c.436-3.96.663-6.928 1.002-8.929.232-1.373 2.772-7.77 3.85-10.545 0 0 .67-.803.799-.999zm1.925.004c1.31 4.474 3.707 10.307 3.93 11.622.224 1.316 1.47 8.485 1.652 9.965l.113-1.035c-.436-3.961-.663-6.928-1.002-8.93-.232-1.372-2.772-7.769-3.85-10.544l-.843-1.079z"/><path fill="#231F20" fill-rule="nonzero" d="M21.863 26.592c-.058-.148-3.071-9.172-4.167-11.593a.247.247 0 00-.271-.173H14.69a.33.33 0 00-.371.239c-1.49 3.294-4.046 11.025-4.277 11.527l.532-.838c.222-.486 3.16-5.938 4.601-9.092a.313.313 0 01.355-.23h1.054a.239.239 0 01.263.164c1.063 2.356 4.555 9.266 4.555 9.266l.46.73zM16.65 13.706h-1.16a.255.255 0 01-.256-.255l.222-8.672.18.943v7.086h.848V5.722l.1-.943.314 8.647a.255.255 0 01-.247.28z"/><path stroke="#231F20" stroke-width=".2" d="M2.9 15.005C2.9 8.869 7.868 3.9 14.007 3.9h3.986C24.124 3.9 29.1 8.876 29.1 15.003v2.234c0 6.135-4.968 11.104-11.107 11.105h-3.985A11.097 11.097 0 012.9 17.24v-2.235z"/></g></svg>