<svg xmlns="http://www.w3.org/2000/svg" xmlns:xlink="http://www.w3.org/1999/xlink" width="32" height="32" viewBox="0 0 32 32"><defs><path id="cars-alfa-romeo-ic-alfa-romeo-a" d="M0 0h24v24H0V0z"/><path id="cars-alfa-romeo-ic-alfa-romeo-c" d="M0 24h24V0H0z"/></defs><g fill="none" fill-rule="evenodd" transform="translate(4 4)"><mask id="cars-alfa-romeo-ic-alfa-romeo-b" fill="#fff"><use xlink:href="#cars-alfa-romeo-ic-alfa-romeo-a"/></mask><path fill="#1A2946" d="M24 12c0 6.627-5.373 12-12 12S0 18.627 0 12 5.373 0 12 0s12 5.373 12 12" xmask="url(#cars-alfa-romeo-ic-alfa-romeo-b)"/><mask id="cars-alfa-romeo-ic-alfa-romeo-d" fill="#fff"><use xlink:href="#cars-alfa-romeo-ic-alfa-romeo-c"/></mask><path fill="#A81922" d="M14.26 6.857h2.848v-.195H14.26z" xmask="url(#cars-alfa-romeo-ic-alfa-romeo-d)"/><path fill="#FFF" d="M5.38 5.876l-.687-.608.502-.541-.436-.396-.502.555-.251-.238.542-.595-.436-.383-1.03 1.189 1.795 1.598zM4.257 7.368l-.541-.277-.423.74-1.611-.753-.317.7 2.192 1.017zm3.011-4.212l-.41.237-.157-.673.567.436zM7.03 4.45l-.092-.423.779-.462.357.264.818-.33-2.218-1.664L6 2.192l.317 2.786.713-.528zm10.737.58l1.017-.791-.516 1.28.265.251 1.294-.528-.78 1.056.476.674 1.493-2.14-.476-.567-1.215.489.489-1.229-.555-.449-2.113 1.466zm2.813 4.16l.594-.25-.33-.753.277-.132.317.726.541-.224-.304-.7.265-.119.316.753.555-.224-.62-1.466-2.245.91zm-8.57-8.134l.224-.013c.204 0 .35.138.356.29.006.152-.098.317-.33.317h-.238l-.013-.594zm.025 1.083l.608.832.99.145-.858-1.11c.188-.038.541-.238.541-.66 0-.63-.567-.831-.924-.831L11.282.5v2.47h.753v-.83zm3.171.207c.057-.3.272-.481.593-.48.046 0 .092.004.139.013.375.071.613.395.547.74a.66.66 0 01-.785.506c-.375-.072-.56-.435-.494-.779m.367 1.447c.771.175 1.491-.191 1.653-1.023.14-.712-.384-1.41-1.16-1.559a1.57 1.57 0 00-.285-.028h-.04c-.65.014-1.198.407-1.33 1.05-.13.64.451 1.398 1.162 1.56M2.11 10.843l-.032.507-.7-.324.731-.183zm-1.537.5l2.443 1.32-.013-.884-.37-.17.056-.91.432-.109.12-.858-2.576.845-.092.766zm21.621.528c-.372 0-.588-.313-.588-.647 0-.333.208-.647.588-.647s.601.355.601.647c0 .286-.229.647-.601.647m-.017-2.06c-.861 0-1.294.707-1.294 1.413 0 .707.512 1.414 1.294 1.414.783 0 1.308-.641 1.308-1.414 0-.76-.459-1.412-1.308-1.412" xmask="url(#cars-alfa-romeo-ic-alfa-romeo-d)"/><path fill="#A81922" d="M13.192 7.254a.161.161 0 01.097.033l.574.389a.303.303 0 01.118.226l-.006.537v.002c0 .211.107.391.245.517a.827.827 0 00.274.169.828.828 0 00-.274.168.706.706 0 00-.245.518v.002l.006.539a.312.312 0 01-.123.227l-.57.386c-.055.037-.089.036-.121.028a.146.146 0 01-.085-.063c-.043-.065-.061-.142.062-.23l.002-.001.002-.002.274-.21c.093-.065.222-.177.222-.368v-.003l-.006-.44a.332.332 0 00-.129-.27c-.094-.072-.23-.08-.359-.038-.092.03-.153.063-.2.08a.442.442 0 01-.18.03.316.316 0 01-.259-.114.377.377 0 01-.087-.223V9.11c0-.061.03-.155.087-.223a.317.317 0 01.26-.114.42.42 0 01.178.03c.048.018.109.05.201.08.13.043.265.034.36-.037a.337.337 0 00.128-.274l.006-.437v-.002c0-.192-.133-.306-.226-.372l-.27-.206-.002-.002-.002-.002c-.123-.088-.105-.164-.062-.23a.147.147 0 01.11-.067" xmask="url(#cars-alfa-romeo-ic-alfa-romeo-d)"/><path fill="#FBBE28" d="M14.44 5.633a.25.25 0 100 .5.25.25 0 000-.5m.625 0a.25.25 0 100 .5.25.25 0 000-.5m.624 0a.25.25 0 100 .5.25.25 0 000-.5m.624 0a.25.25 0 100 .5.25.25 0 000-.5m.624 0a.25.25 0 100 .5.25.25 0 000-.5m-2.677 1.14h2.848v-.5H14.26zm0 .535h2.848v-.5H14.26z" xmask="url(#cars-alfa-romeo-ic-alfa-romeo-d)"/><path fill="#A7A9AC" d="M20.223 12.057a8.118 8.118 0 11-16.236 0 8.118 8.118 0 0116.236 0" xmask="url(#cars-alfa-romeo-ic-alfa-romeo-d)"/><path stroke="#FFF" d="M20.223 12.057a8.118 8.118 0 11-16.236 0 8.118 8.118 0 0116.236 0z" xmask="url(#cars-alfa-romeo-ic-alfa-romeo-d)"/><path fill="#A81922" d="M4.303 10.79c-.048.353-.054.664-.069 1.03-.012.277.01.846.036 1.107h2.843v5.329c.573.445 1.478.802 2.16 1.083v-6.412h2.745V10.79H9.276V4.661c-.682.281-1.586.638-2.159 1.084v5.044H4.303z" xmask="url(#cars-alfa-romeo-ic-alfa-romeo-d)"/><path stroke="#FFF" d="M4.303 10.79c-.048.353-.054.664-.069 1.03-.012.277.01.846.036 1.107h2.843v5.329c.573.445 1.478.802 2.16 1.083v-6.412h2.745V10.79H9.276V4.661c-.682.281-1.586.638-2.159 1.084v5.044H4.303z" xmask="url(#cars-alfa-romeo-ic-alfa-romeo-d)"/><path fill="#03532D" d="M14.854 19.328c.004-.041.003-.065-.013-.096-.011-.024-.068-.06-.11-.06h-.568c-.25 0-.509-.098-.695-.26a.967.967 0 01-.333-.762c0-.292.11-.535.329-.723.175-.152.425-.25.634-.25h1.4c.04 0 .067-.006.092-.02.014-.01.034-.032.034-.054s-.02-.045-.035-.054a.167.167 0 00-.092-.02h-2.191c-.978 0-1.49-.713-1.49-1.417 0-.677.58-1.431 1.413-1.431h3.263a.146.146 0 00.1-.043.138.138 0 00.033-.095.142.142 0 00-.034-.093.145.145 0 00-.1-.043H13.17c-1.066 0-1.84-.801-1.84-1.905 0-.931.741-1.936 1.939-1.936h3.01a.348.348 0 00.267-.119.402.402 0 00.09-.259.397.397 0 00-.087-.259.355.355 0 00-.27-.119h-3.386l-.005-.354a.61.61 0 01.215-.445.697.697 0 01.426-.184h1.801c.042 0 .074-.01.106-.032a.164.164 0 00.055-.128c0-.07-.01-.088-.069-.138a.182.182 0 00-.092-.02h-1.8a.697.697 0 01-.427-.186.615.615 0 01-.215-.444l.004-.286h2.372a.34.34 0 00.212-.07c.034-.026.09-.08.09-.16v-.34h1.245a.84.84 0 00.571-.214l.101-.092.115.074c.378.247.77.528 1.079.911.407.506.605 1.106.605 1.834 0 1.615-1.513 2.823-2.866 2.823H13.23a.153.153 0 00-.106.045.14.14 0 00-.034.098c0 .038.012.07.036.097a.15.15 0 00.104.046h3.11c1.307 0 1.892.876 1.892 1.745 0 .886-.647 1.783-1.884 1.783h-3.204a.119.119 0 00-.08.034.103.103 0 00-.027.072c0 .028.01.053.027.072a.12.12 0 00.08.033h2.385c.59 0 1.127.55 1.127 1.155 0 .302-.093.561-.269.75-.21.222-.523.335-.934.335h-1.43a.11.11 0 00-.07.02c-.01.008-.025.03-.024.046 0 .018.014.037.027.046a.11.11 0 00.067.019h.949a.56.56 0 01.447.217.738.738 0 01.164.448.616.616 0 01-.195.463.57.57 0 01-.344.137l-.209.016.02-.208z" xmask="url(#cars-alfa-romeo-ic-alfa-romeo-d)"/><path fill="#FFF" d="M17.464 5.994l-.201.185a.666.666 0 01-.453.168h-1.422v.516s-.006.01-.02.02a.17.17 0 01-.105.033h-2.546l-.005.348-.001.11c0 .212.099.422.273.58a.925.925 0 00.402.213.926.926 0 00-.402.214.779.779 0 00-.273.573l.002.184.005.348h3.561c.064 0 .112.03.133.056a.22.22 0 01.047.145c0 .04-.009.1-.048.147a.176.176 0 01-.132.056h-3.011c-1.307 0-2.115 1.096-2.115 2.112 0 1.086.687 1.904 1.677 2.056-.718.197-1.19.907-1.19 1.554 0 .792.572 1.593 1.666 1.593h.159a1.1 1.1 0 00-.506.944c0 .361.135.671.393.896.22.192.516.303.81.303h.517l-.036.38.414-.032a.741.741 0 00.447-.18.792.792 0 00.254-.596.91.91 0 00-.258-.62c.438-.008.78-.14 1.015-.391.207-.222.316-.522.316-.87 0-.498-.316-.963-.746-1.19h.262c.999 0 2.06-.686 2.06-1.959 0-.985-.644-1.712-1.614-1.883 1.325-.198 2.664-1.404 2.664-2.971 0-.77-.21-1.406-.644-1.945-.323-.4-.729-.692-1.12-.947l-.229-.15zm.037.445c.364.238.741.507 1.037.874.332.412.566.941.566 1.723 0 1.467-1.37 2.646-2.689 2.646H13.23a.327.327 0 00-.24.106.317.317 0 00-.077.215c0 .074.024.15.08.213a.325.325 0 00.237.105h3.11c1.118 0 1.714.72 1.714 1.57 0 .827-.62 1.606-1.707 1.606h-3.204a.294.294 0 00-.212.092.28.28 0 00-.071.19c0 .067.022.134.072.19.05.056.132.091.21.091h2.386c.514 0 .95.5.95.979 0 .242-.068.466-.22.628-.153.163-.396.28-.806.28h-1.43a.287.287 0 00-.172.053.244.244 0 00-.098.195c.002.08.048.147.1.185a.284.284 0 00.17.051h.949c.133 0 .233.059.31.154a.563.563 0 01.124.335.44.44 0 01-.135.331.394.394 0 01-.24.093.334.334 0 00-.03-.19.323.323 0 00-.268-.16h-.57a.904.904 0 01-.578-.215.793.793 0 01-.273-.63c0-.264.111-.453.268-.589a.855.855 0 01.52-.206h1.399a.338.338 0 00.183-.047.246.246 0 00.12-.204.249.249 0 00-.12-.205.34.34 0 00-.183-.046h-2.192c-.844 0-1.314-.596-1.314-1.24 0-.574.492-1.255 1.238-1.255h3.261c.09 0 .18-.04.235-.104a.315.315 0 00.075-.21.317.317 0 00-.077-.208.318.318 0 00-.233-.104H13.17c-.929 0-1.663-.689-1.663-1.73 0-.868.71-1.759 1.762-1.759h3.011a.527.527 0 00.402-.182c.09-.107.13-.24.13-.371a.572.572 0 00-.128-.373.529.529 0 00-.404-.182h-3.213l-.002-.18c0-.112.06-.224.157-.312a.523.523 0 01.307-.139h1.8a.35.35 0 00.207-.063.334.334 0 00.13-.273c0-.129-.038-.195-.13-.273a.35.35 0 00-.206-.062h-1.8a.526.526 0 01-.308-.14.44.44 0 01-.157-.313l.001-.11h2.198c.121 0 .232-.04.32-.106a.38.38 0 00.158-.3V6.7h1.07c.277 0 .517-.103.69-.26z" xmask="url(#cars-alfa-romeo-ic-alfa-romeo-d)"/></g></svg>