<svg xmlns="http://www.w3.org/2000/svg" xmlns:xlink="http://www.w3.org/1999/xlink" width="32" height="32" viewBox="0 0 32 32"><defs><path id="cars-aston-martin-ic-aston-martin-a" d="M0 7.273h31.673V.339H0v6.934z"/></defs><g fill="none" fill-rule="evenodd"><g transform="translate(0 11.388)"><mask id="cars-aston-martin-ic-aston-martin-b" fill="#fff"><use xlink:href="#cars-aston-martin-ic-aston-martin-a"/></mask><path fill="#000" d="M31.16 1.244c-.044.068-.069.1-.247.113h-6.965c.077-.131.142-.248.2-.352.003-.002.25-.43.687-.43h6.383c.066 0 .155.01.199.084.007.009.02.03.02.066a.312.312 0 01-.045.147l-.231.372zm-.864.784c-.036.061-.085.156-.248.213-.134.031-.404.01-.499 0l-5.926-.385c.076-.112.149-.22.213-.319h6.755a.386.386 0 00-.05.074l-.245.417zm-1.045.988c-.013.013-.08.084-.297.056l-5.68-.743c.08-.1.152-.198.222-.294l6.034.39c.006.002.03.004.07.008a.464.464 0 00-.067.096l-.282.487zm-1.672.592c-.216.053-.634-.01-.777-.04 0 0-2.674-.535-3.902-.783.086-.097.166-.196.244-.29l5.701.747-1.266.366zm-1.936.553c-.272.074-.63-.042-.636-.042l-.003-.004-2.614-.787c.13-.127.255-.259.37-.387l4.005.807a2.6 2.6 0 00.205.033l-1.327.38zm-2.04.586c-.183.048-.46-.057-.548-.102L21.636 4c.215-.174.418-.35.605-.528l2.709.817c.007.002.057.018.13.034l-1.476.424zM22.47 5.753c-.232.066-.504-.13-.504-.132-.003 0-.62-.433-1.323-.928a9.15 9.15 0 00.835-.568l1.495.684c.01.003.16.08.349.114-.09.1-.13.205-.137.224-.08.195-.161.401-.715.606zm-1.587.436c-.173.04-.39-.129-.456-.197 0 0-.339-.344-.77-.787.276-.12.547-.258.81-.41l1.389.97c.005.004.084.063.198.112-.306.083-.962.257-.962.257l-.209.055zm-1.625.433c-.146.023-.314-.21-.365-.297l-.417-.694a9.755 9.755 0 001-.346l.814.83c.01.008.098.098.23.173l-1.262.334zm-1.388.374a.34.34 0 01-.253-.032c-.151-.092-.206-.303-.21-.314l-.21-.753c.374-.05.737-.124 1.091-.215l.444.732c.016.028.105.18.24.287l-1.102.295zm-1.694-1.017c.283-.008.56-.03.833-.062l.22.771c.004.027.05.195.169.328-.165-.045-.215-.093-.426-.295l-.796-.742zM15.93 3.46h.382l.65 2.283a9.25 9.25 0 01-1.032.059V3.46zm6.055 0a9.112 9.112 0 01-.532.452c-.373-.168-.735-.336-.994-.452h1.526zm-1.965 0l1.268.578a8.556 8.556 0 01-.811.543c-.61-.43-1.254-.879-1.603-1.121h1.146zm-1.463 0l1.746 1.22c-.256.145-.516.27-.782.388a731.52 731.52 0 01-1.577-1.608h.613zm-.366 2.06c-.34.085-.688.15-1.047.201l-.64-2.261h.44l1.247 2.06zm-1.03-2.06h.523l1.653 1.686c-.31.125-.63.234-.96.323L17.16 3.46zm-7.665-.18l-.004-1.741h12.69v1.738L9.496 3.28zm6.25 2.522a9.46 9.46 0 01-1.033-.06l.649-2.282h.384v2.342zm-1.47 1.214c.12-.132.164-.3.171-.33l.217-.769c.274.034.553.054.834.062l-.953.891a.584.584 0 01-.27.146zm-.472-.02L12.7 6.701a1.03 1.03 0 00.24-.289s.187-.308.44-.73a9.3 9.3 0 001.098.215l-.213.753c-.003 0-.052.22-.21.314a.34.34 0 01-.252.032zm-2.648-.708c.13-.075.219-.165.227-.173l.815-.83c.326.133.659.248 1 .346l-.414.69c-.051.091-.222.324-.368.301l-1.26-.334zm-1.537-.411c.115-.049.197-.108.204-.112l1.383-.97c.264.152.536.29.811.41l-.769.787c-.067.068-.283.237-.457.197L9.62 5.877zm-1.13-.73a.778.778 0 00-.136-.224c.187-.033.342-.111.351-.114-.003 0 .748-.342 1.492-.686.273.208.551.398.836.57l-1.32.927c-.004.004-.28.203-.507.133-.555-.205-.637-.41-.716-.606zm1.732-1.235c-.013-.01-.377-.31-.532-.452h1.527l-.995.452zm.976.669a8.906 8.906 0 01-.812-.543c.603-.272 1.161-.53 1.269-.578H12.8l-1.603 1.12zm.955.487a10.331 10.331 0 01-.78-.388l1.744-1.22h.615l-1.579 1.608zM15.17 3.46l-.64 2.261a10.2 10.2 0 01-1.048-.201l1.247-2.06h.441zm-1.872 2.012a8.742 8.742 0 01-.96-.328c.662-.675 1.46-1.488 1.65-1.684h.526l-1.216 2.012zM6.595 4.323a847.112 847.112 0 002.838-.853c.186.18.39.356.604.53l-1.415.645c-.093.045-.365.15-.552.102-.055-.016-.678-.196-1.475-.424zm-1.891-.542c.117-.015.198-.03.206-.033l4.006-.807c.114.128.237.256.367.386l-2.615.788c-.007.004-.361.118-.637.046l-1.327-.38zm-1.875-.54l5.7-.747c.08.097.159.194.248.293l-3.905.78c-.143.031-.562.094-.774.04-.588-.171-1.067-.306-1.269-.365zm-.688-.713a.337.337 0 00-.066-.095c.038-.004 6.104-.398 6.104-.398.068.096.141.194.221.294l-5.679.743c-.216.028-.282-.041-.295-.056l-.285-.488zm-.763-.5c-.1-.167-.23-.412-.295-.49H7.84c.066.099.135.206.212.318l-5.927.385c-.09.01-.363.031-.5 0-.162-.057-.212-.152-.247-.213zm-.619-.67C.6 1.343.563 1.326.513 1.243c0 0-.213-.348-.231-.372A.306.306 0 01.237.725C.241.642.3.577.457.575h6.382c.43 0 .687.43.687.43.057.104.124.22.202.352H.759zm7.508.484a9.74 9.74 0 01-.21-.305h1.249v.235l-1.04.07zm.345.46a9.082 9.082 0 01-.215-.28l.909-.06v.248l-.694.091zm.694.79a9.03 9.03 0 00-.181-.192l.18-.036v.229zm-.323-.348a9.33 9.33 0 01-.238-.277l.56-.075v.287l-.322.065zm4.273-2.17c.297 0 .532.085.702.251.124.12.21.28.254.474 0 0 .009.033.022.058h-6.29A14.006 14.006 0 017.688.92a1.145 1.145 0 00-.313-.345h5.882zm9.11 1.198v-.235h1.25c-.064.096-.133.199-.208.306l-1.043-.071zm0 .438v-.248l.912.06c-.066.091-.14.183-.212.28l-.7-.092zm.182.69l-.183.195v-.23l.183.035zm-.183-.508l.564.075c-.077.092-.155.183-.238.277a13.955 13.955 0 01-.326-.067v-.285zM17.716.825c.17-.166.405-.25.702-.25H24.3a1.2 1.2 0 00-.313.345c-.07.123-.156.27-.257.437h-6.29c.013-.023.022-.058.022-.058a.933.933 0 01.254-.474zm.702-.486c-.36 0-.655.109-.87.322a1.181 1.181 0 00-.32.585c0 .01-.02.055-.124.055H14.57c-.108 0-.123-.047-.123-.053a1.213 1.213 0 00-.32-.587c-.216-.213-.51-.322-.871-.322H.45C.367.343.166.36.05.536 0 .624-.039.774.073.983c.004 0 .234.38.234.38.099.152.206.208.437.223.004 0 .111.01.184.138l.24.41c.05.095.167.315.574.37a.26.26 0 01.19.134l.294.505c.086.166.206.225.425.293l5.356 1.535c.18.054.257.253.257.253.126.324.294.588 1.131.835l4.38 1.169c.054.016.558.166.933-.19l1.027-.957s.044-.043.1-.043c.059 0 .103.043.103.043.004 0 1.027.957 1.027.957.38.356.88.206.936.19l4.382-1.169c.833-.247 1.007-.517 1.126-.835.007-.014.077-.199.257-.253l5.354-1.535c.22-.068.341-.127.428-.293l.29-.5a.258.258 0 01.19-.14c.408-.052.526-.271.581-.368-.004 0 .237-.411.237-.411.073-.128.181-.138.186-.138.229-.014.34-.07.431-.223l.238-.38a.556.556 0 00.073-.258.386.386 0 00-.05-.186c-.116-.18-.314-.195-.403-.2H18.418z" xmask="url(#cars-aston-martin-ic-aston-martin-b)"/></g><path fill="#000" d="M10.098 13.846c.01-.022.152-.352.171-.39.015.038.16.368.17.39h-.341zm.184-.644L9.74 14.39h.15v-.009a5.2 5.2 0 01.154-.414s.01-.02.013-.03h.418c.057.126.118.273.177.447l.003.006h.204l-.523-1.188h-.054zm1.067.514c-.127-.05-.247-.094-.247-.237 0-.107.085-.185.203-.185.094 0 .167.05.202.139l.003.007h.032l.05-.148-.006-.005a.389.389 0 00-.25-.085c-.238 0-.39.13-.39.329 0 .207.156.265.294.32.124.046.242.09.242.233a.23.23 0 01-.23.233c-.113 0-.192-.052-.265-.17l-.002-.004h-.032l-.037.162.005.003c.064.069.209.1.286.1.254 0 .433-.159.433-.39 0-.19-.148-.247-.291-.302m1.257-.366v-.122h-.902v.122l.013-.002c.1-.012.202-.02.364-.02v1.065h.17v-1.065c.122 0 .235.008.346.02l.01.002zm1.076.471c0 .109-.047.27-.153.38a.43.43 0 01-.318.132c-.275 0-.456-.196-.456-.505 0-.338.183-.551.472-.551.14 0 .27.06.348.159.086.11.107.225.107.36v.025zm-.47-.618c-.382 0-.644.25-.644.605 0 .36.257.6.64.6.396 0 .663-.251.663-.624 0-.402-.333-.581-.66-.581zm1.738.025v.86l-.814-.86h-.08v1.162h.115v-.9h.003c.006.008.735.793.735.793l.091.105.004.002h.063v-1.162h-.117zm2.037 0h-.05l-.288.51s-.184.322-.2.353c-.178-.29-.337-.593-.472-.858l-.003-.005h-.06l-.003.01c-.017.169-.118.871-.162 1.139l-.003.013h.141v-.009c0-.166.032-.41.063-.67l.02-.16c.02.039.244.454.326.627l.098.192h.032l.004-.007c.1-.222.24-.478.429-.812.029.2.065.6.083.83l.003.009h.181v-.013c-.04-.282-.086-.655-.14-1.138v-.011zm.567.618c.01-.022.152-.348.169-.39.018.038.163.368.173.39h-.342zm.231-.644h-.048l-.542 1.188h.147l.003-.009c.044-.144.1-.286.155-.418 0 0 .01-.015.012-.025h.419c.057.128.117.277.178.446l.003.006h.202l-.523-1.188h-.006zm.802.108c.07-.004.177-.01.238.002.119.018.18.086.18.2 0 .117-.08.204-.213.228a.78.78 0 01-.205.008v-.438zm.199-.082h-.369v1.162h.17v-.558h.046l.138.156c-.004 0 .2.253.2.253l.109.149h.225l-.47-.576c.214-.041.343-.161.343-.322 0-.178-.13-.264-.392-.264zm.488 0v.122l.013-.002c.1-.011.198-.02.36-.02v1.066h.172v-1.066c.123 0 .237.007.344.02l.014.002v-.122h-.903zm1.046 1.162h.16v-1.16h-.16zm1.308-.303h-.005l-.81-.86h-.083v1.163h.118v-.9h.003l.735.793.092.105.066.002v-1.163h-.116v.86z"/></g></svg>