<svg xmlns="http://www.w3.org/2000/svg" xmlns:xlink="http://www.w3.org/1999/xlink" width="32" height="32" viewBox="0 0 32 32"><defs><path id="cars-brilliance-ic-brilliance-a" d="M0 23.563h25.937V.38H0v23.181z"/></defs><g fill="none" fill-rule="evenodd" transform="translate(3 3)"><g transform="translate(0 .431)"><mask id="cars-brilliance-ic-brilliance-b" fill="#fff"><use xlink:href="#cars-brilliance-ic-brilliance-a"/></mask><path fill="#ECEEF0" d="M15.541 21.878c-.794 0-2.042-.448-2.042-2.384 0-1.293-.044-1.655 1.454-2.174 1.496-.526 2.408-.584 3.585-2.043.787-.98 1.114-2.058 1.339-3.517 0 0 .206-1.329.522-2.479.314-1.135 1-1.72 1.612-1.72.613 0 1.747.986 1.558 4.939-.173 2.458-1.342 4.987-3.328 6.971-1.59 1.59-3.566 2.407-4.7 2.407zm2.987-9.785c-.395 1.365-.841 2.51-1.884 3.293-.845.645-1.906.607-2.327.607-.419 0-.79-.286-.79-.917V9.285c0-1.039.668-1.343 1.323-1.343h2.746c.69 0 1.284.373 1.284 1.694 0 0 .043 1.092-.352 2.457zm-5.036-9.02c0-1.093.935-1.395 1.155-1.395.218 0 1.482.057 3.376 1.035 1.894.98 2.93 2.154 2.93 2.31 0 .164-.462.115-.756.497-.294.396-.6.955-1.458.955h-4.04c-.728 0-1.207-.444-1.207-1.304V3.072zm-1.045 2.105c0 .864-.48 1.303-1.205 1.303H7.198c-.859 0-1.16-.56-1.457-.957-.293-.386-.756-.333-.756-.494 0-.16 1.034-1.338 2.93-2.31 1.895-.985 3.159-1.036 3.377-1.036.22 0 1.155.3 1.155 1.394v2.1zm-.034 9.901c0 .628-.37.92-.793.92-.421 0-1.482.037-2.323-.608-1.048-.782-1.492-1.923-1.885-3.293-.398-1.366-.355-2.46-.355-2.46 0-1.32.599-1.69 1.29-1.69h2.742c.658 0 1.324.302 1.324 1.344v5.787zm-.011 4.407c0 1.933-1.247 2.386-2.044 2.386-1.134 0-3.109-.82-4.695-2.41-1.988-1.986-3.157-4.515-3.33-6.972-.19-3.952.943-4.946 1.557-4.946.613 0 1.297.588 1.612 1.728.32 1.15.522 2.471.522 2.471.23 1.468.55 2.547 1.34 3.525 1.177 1.46 2.087 1.513 3.584 2.04 1.499.523 1.454.88 1.454 2.178zm13.535-7.517C25.937 5.57 20.13.381 12.97.381 5.808.381.001 5.57.001 11.97s5.807 11.594 12.97 11.594c7.16 0 12.966-5.194 12.966-11.594z" xmask="url(#cars-brilliance-ic-brilliance-b)"/></g><path fill="#A9AAAB" d="M13 16.769v7.227s4.435.228 8.05-2.455c3.756-2.788 4.486-5.478 4.621-6.599.042-.35-.114-.562-.588-.562-.475 0-1.128-.18-1.366.562-.414 1.296-1.469 3.297-2.849 4.783-1.15 1.239-3.614 2.898-5.5 2.68-.684-.08-1-.392-1.437-.917-.436-.524-.248-2.155-.248-2.155 0-.416.09-.366.388-.825.61-.94 3.068-.94 4.094-1.911 1.239-1.172 1.827-3.902 1.92-5.132.022-.299 0-.334-.371-.334-.37 0-.468.012-.524.334-.055.323-.786 3.763-2.25 4.644-.698.42-1.571.634-2.275.66-.943.035-1.665 0-1.665 0z"/><path fill="#A9AAAB" d="M13.084 16.769v7.227s-4.435.228-8.05-2.455C1.278 18.753.548 16.063.413 14.942c-.042-.35.114-.562.588-.562.475 0 1.128-.18 1.366.562.414 1.296 1.469 3.297 2.849 4.783 1.15 1.239 3.543 2.888 5.368 2.695.686-.073 1.105-.506 1.429-1.05.323-.546.388-2.037.388-2.037 0-.416-.09-.366-.388-.825-.61-.94-3.068-.94-4.094-1.911-1.239-1.172-2.092-3.675-2.092-5.132 0-.3.121-.343.423-.343.303 0 .44.02.495.343.056.323.608 3.699 2.4 4.644.719.38 1.57.634 2.274.66.943.035 1.665 0 1.665 0z"/><path fill="#231F20" d="M19.354 6.006c-.242.307-.492.743-1.197.743H14.84c-.597 0-.99-.346-.99-1.015V4.1c0-.85.767-1.085.948-1.085.179 0 1.216.045 2.77.805 1.556.763 2.406 1.677 2.406 1.798 0 .129-.378.09-.62.388m-1.315-2.877c-1.908-.985-3.181-1.043-3.401-1.043-.221 0-1.164.305-1.164 1.406v2.114c0 .866.484 1.313 1.216 1.313h4.07c.866 0 1.172-.563 1.47-.962.296-.385.76-.335.76-.5 0-.158-1.043-1.34-2.951-2.328M5.927 5.618c0-.12.863-1.035 2.44-1.798 1.576-.76 2.629-.805 2.81-.805.184 0 .962.236.962 1.085v1.634c0 .669-.4 1.015-1.005 1.015H7.771c-.716 0-.97-.435-1.215-.743-.245-.298-.63-.26-.63-.388m-.928-.162c0 .166.465.116.762.502.297.399.603.962 1.469.962h4.07c.732 0 1.216-.448 1.216-1.314V3.492c0-1.101-.943-1.406-1.165-1.406-.219 0-1.492.058-3.4 1.043-1.908.987-2.952 2.17-2.952 2.327m12.831 7.516c-.308 1.146-.658 2.107-1.472 2.764-.66.541-1.489.51-1.818.51-.327 0-.616-.241-.616-.77v-4.86c0-.873.52-1.128 1.033-1.128H17.1c.54 0 1.005.313 1.005 1.421 0 0 .033.918-.276 2.063m1.115-3.009c0-1.35-.608-1.731-1.313-1.731h-2.805c-.672 0-1.352.31-1.352 1.373v5.918c0 .644.377.938.806.938.43 0 1.516.038 2.379-.621 1.065-.8 1.521-1.971 1.925-3.366.405-1.395.36-2.511.36-2.511m-11.016.971c0-1.11.464-1.422 1.003-1.422h2.145c.512 0 1.033.256 1.033 1.127V15.5c0 .529-.29.77-.617.77-.329 0-1.157.03-1.817-.51-.815-.657-1.164-1.619-1.472-2.764-.31-1.146-.275-2.062-.275-2.062M7.405 12.5c.404 1.394.86 2.566 1.926 3.365.862.66 1.947.62 2.377.62.43 0 .807-.292.807-.937V9.63c0-1.061-.68-1.372-1.351-1.372H8.357c-.704 0-1.313.38-1.313 1.731 0 0-.043 1.116.361 2.51"/><path fill="#231F20" d="M19.888 19.97c-1.34 1.246-2.79 1.963-3.922 2.201-1.134.238-2.126-.607-2.124-2.2.003-1.416.486-1.188 1.746-1.593 1.26-.413 2.028-.458 3.019-1.6.662-.767 1.335-1.777 1.57-2.753.118-.484.226-.92.44-1.94.244-1.156.435-2.428 1.242-2.428.99 0 1.53 1.163 1.136 4.844-.18 1.422-1.436 3.917-3.107 5.47zm.526-10.25c-.319 1.157-.526 2.496-.526 2.496-.227 1.47-.556 2.556-1.348 3.542-1.185 1.47-2.103 1.528-3.611 2.058-1.51.523-1.465.887-1.465 2.19 0 1.949 1.258 2.4 2.058 2.4 1.141 0 3.131-.822 4.734-2.424 2-1.998 3.177-4.545 3.35-7.021.191-3.98-.95-4.975-1.568-4.975-.616 0-1.307.59-1.624 1.734zM6.061 19.97c1.34 1.246 2.79 1.963 3.923 2.201s2.126-.607 2.123-2.2c-.002-1.416-.485-1.188-1.746-1.593-1.26-.413-2.027-.458-3.018-1.6-.662-.767-1.336-1.777-1.571-2.753-.117-.484-.226-.92-.44-1.94-.244-1.156-.434-2.428-1.241-2.428-.991 0-1.53 1.163-1.136 4.844.178 1.422 1.435 3.917 3.106 5.47zM5.536 9.72a26.02 26.02 0 01.525 2.496c.227 1.47.556 2.556 1.348 3.542 1.186 1.47 2.104 1.528 3.612 2.058 1.509.523 1.464.887 1.464 2.19 0 1.949-1.258 2.4-2.057 2.4-1.142 0-3.132-.822-4.735-2.424-2-1.998-3.177-4.545-3.35-7.021-.19-3.98.951-4.975 1.568-4.975.616 0 1.307.59 1.625 1.734z"/><ellipse cx="13" cy="12.431" stroke="#231F20" stroke-width=".4" rx="12.8" ry="11.419"/></g></svg>