<svg xmlns="http://www.w3.org/2000/svg" width="32" height="32" viewBox="0 0 32 32"><g fill="none" fill-rule="nonzero" transform="translate(0 6)"><path fill="#D1D3D4" d="M16 20c8.86 0 16-4.5 16-10S24.88 0 16 0v1.91c8.24 0 14.91 3.6 14.91 8.1S24.28 18.07 16 18.09V20zm0-20C7.17 0 0 4.49 0 10s7.18 10 16 10v-1.91c-8.2 0-14.89-3.6-14.89-8.06 0-4.46 6.68-8.11 14.89-8.12V0z"/><ellipse cx="16.03" cy="10" fill="#262262" rx="14.91" ry="8.09"/><path fill="#E6E7E8" d="M26.32 6.28h-5.64l.01 7.43h1.99V8.13h2.19l.58.67v3.06h-2.34v1.85h4.33V7.6zm-8.93 2.64h-2.13v4.8l2.2-.01-.01-3.01h1.68l.8-.75V6.28h-2.21v2.33zm-2.88-2.64l-2.22.01v3.66l.8.75h1.75V8.92l-.33-.31zm-2.98 1.16l-1-1.16H8V8.1h1.6v1.32H8v1.16h1.65v1.32H8v1.82h2.41l1.12-.72v-2.52L11 10l.5-.43.03-2.13zM8 6.29H4.56v7.43h1.89v-3.13H8V9.42H6.44V8.1H8V6.29zm0 5.61v1.82H6.87V11.9H8z"/></g></svg>