<svg xmlns="http://www.w3.org/2000/svg" xmlns:xlink="http://www.w3.org/1999/xlink" width="32" height="32" viewBox="0 0 32 32"><defs><path id="cars-chery-ic-chery-a" d="M.204 1h3.284V.184H.204z"/><path id="cars-chery-ic-chery-c" d="M.51 1h3.284V.184H.51z"/></defs><g fill="none" fill-rule="evenodd"><path fill="#ECEEF0" d="M14.847 11L6.203 21.276l2.448-.816 7.346-8.718z"/><path fill="#8D8F91" d="M17.149 11l-1.151.742 7.346 8.718 2.448.816z"/><path fill="#ECEEF0" d="M14.847 11l1.15.742L17.148 11z"/><path fill="#58595B" d="M10.65 12l-.004.772 1.172-1.697z"/><path fill="#A8A9AA" d="M1.284 15.457c.278 2.058 8.222 3.333 8.222 3.333l-1.743.632C-.567 18.16.009 15.47.009 15.47m0 0c-.02-3.468 11.816-4.396 11.816-4.396l-1.17.928s-9.65 1.395-9.371 3.454"/><path fill="#717171" d="M1.27 15.452c0-2.337 9.386-3.45 9.386-3.45v.77s-8.087.602-8.087 2.643"/><path fill="#717171" d="M2.57 15.415c0 2.04 6.416 2.56 6.416 2.56l.52.815s-8.236-1-8.236-3.339"/><g transform="translate(6 20.276)"><mask id="cars-chery-ic-chery-b" fill="#fff"><use xlink:href="#cars-chery-ic-chery-a"/></mask><path fill="#717171" d="M.204 1h3.284L2.652.184z" xmask="url(#cars-chery-ic-chery-b)"/></g><path fill="#A8A9AA" d="M15.998 11.742v1.6l-6.513 7.93-.833-.812z"/><path fill="#ECEEF0" d="M16 11.742v1.6l6.513 7.93.833-.812z"/><g transform="translate(22 20.276)"><mask id="cars-chery-ic-chery-d" fill="#fff"><use xlink:href="#cars-chery-ic-chery-c"/></mask><path fill="#717171" d="M3.794 1H.51l.836-.816z" xmask="url(#cars-chery-ic-chery-d)"/></g><path fill="#58595B" d="M21.353 12.771l-1.172-1.697 1.17.926z"/><path fill="#A8A9AA" d="M30.716 15.457c-.277 2.058-8.222 3.333-8.222 3.333l1.744.632c8.328-1.262 7.753-3.951 7.753-3.951m.001-.001c.019-3.468-11.816-4.396-11.816-4.396l1.168.928s9.65 1.395 9.373 3.454"/><path fill="#717171" d="M30.73 15.452c0-2.337-9.387-3.45-9.387-3.45v.77s8.088.602 8.088 2.643"/><path fill="#717171" d="M29.431 15.415c0 2.04-6.418 2.56-6.418 2.56l-.519.815s8.236-1 8.236-3.339"/><path fill="#58595B" d="M18.596 18.391l1.122 1.534-.955-.81z"/><path fill="#717171" d="M10.435 18.91l1.483-.602s5.565.232 6.678.083l.167.724s-2.328.436-8.328-.204"/><path fill="#A8A9AA" d="M18.763 19.115l.955.81s-5.235.354-9.019-.128l-.264-.886s5.146.473 8.328.204"/></g></svg>