<svg xmlns="http://www.w3.org/2000/svg" width="32" height="32" viewBox="0 0 32 32"><g fill="none" fill-rule="evenodd"><path fill="#CB9C2A" d="M20.444 20.286h-8.888v-2.572H1.778l1.778-4.285h8v-2.572h8.888v2.572h9.778l-1.778 4.285h-8z"/><path fill="#CFAB56" d="M16 10.857v9.429h-4.444v-2.572H1.778l1.778-4.285h8v-2.572z"/><path fill="#000" d="M2.863 16.801l1.394-2.63c.053-.099.14-.158.35-.158h7.046c.242 0 .395-.093.395-.382v-1.506c0-.272.122-.378.387-.378h7.259c.26 0 .388.115.388.383v1.51c0 .256.126.373.398.373h8.335c.265 0 .355.167.355.3a.25.25 0 01-.04.14l-1.389 2.633c-.089.147-.241.15-.351.15h-6.91c-.287 0-.393.127-.393.383l-.003 1.513c0 .248-.112.365-.39.365h-7.259c-.242 0-.39-.08-.39-.37v-1.513c0-.275-.132-.378-.392-.378H3.178c-.209 0-.348-.122-.348-.298 0-.05.012-.097.033-.137m-2.305 2.19h9.288c.286 0 .385.128.385.372v1.314c0 .392.237.572.595.572h10.477c.358 0 .597-.171.597-.572v-1.308c0-.266.115-.378.387-.378h5.825c.398 0 .688-.105.893-.466l2.884-5.44c.065-.117.111-.187.111-.321 0-.374-.331-.503-.561-.503h-9.152c-.238 0-.387-.061-.387-.372v-1.311c0-.376-.214-.578-.597-.578H10.826c-.391 0-.595.208-.595.578v1.307c0 .28-.136.373-.385.373l-5.999.003c-.461 0-.729.214-.866.491L.058 18.258a.512.512 0 00-.058.236c0 .217.147.497.558.497"/></g></svg>