<svg xmlns="http://www.w3.org/2000/svg" width="32" height="32" viewBox="0 0 32 32"><g fill="none" fill-rule="evenodd"><path fill="#BCBEC0" d="M25.162 8.451S19.323 8 16.313 8c-3.1 0-9.478.451-9.478.451S0 11.877 0 16.62c0 4.742 6.835 7.843 6.835 7.843s6.093.5 9.143.5c3.059 0 9.184-.5 9.184-.5s6.835-3.101 6.835-7.843-6.835-8.168-6.835-8.168z"/><path fill="#ECEEF0" d="M23.494 8.876s-4.775-.426-7.236-.426c-2.535 0-7.752.426-7.752.426s-5.589 3.234-5.589 7.71c0 4.475 5.59 7.402 5.59 7.402s4.982.472 7.476.472c2.501 0 7.51-.472 7.51-.472s5.59-2.927 5.59-7.403c0-4.475-5.59-7.71-5.59-7.71z"/><path fill="#3767B1" d="M24.186 19.352c-1.461 2.224-4.578 3.76-8.186 3.76-3.607 0-6.722-1.535-8.184-3.757l-5.384-.176s-.973-1.297-.973-2.578c0-1.372.973-2.729.973-2.729l5.338-.157C9.212 11.455 12.355 9.89 16 9.89c3.646 0 6.79 1.568 8.232 3.83l5.238.153s.973 1.357.973 2.729c0 1.281-.973 2.578-.973 2.578l-5.284.173z"/><path d="M25.254 15.2v-.004h-.821v2.518h.82v-1.942l1.423 1.942h1.313v-2.518h-.82v2.062l-1.478-2.052zm-11.214.535h1.459v-.54h-3.647v.54h1.459v1.98h.729zm-10.029-.539h2.827c.78.276.852.665.852 1.3 0 .637-.096.968-.852 1.218H4.01v-2.518zm.82.54v1.439h1.642c.397-.14.377-.355.377-.711s.025-.583-.377-.729H4.832zm3.137 1.997l1.59-2.556.963.003 1.598 2.563h-.88l-.303-.472H9.12l-.274.462h-.878zm1.453-.991h1.208l-.605-1.047-.603 1.047zm6.544-1.121s.04-.495.993-.526c.953-.032 1.974.11 2.146.167l.012.552s-2.167-.348-2.436-.026c-.269.322 1.92.346 2.401.646.255.159.218.472.218.574 0 .102.058.534-.37.671-.428.138-1.882.297-2.923-.017l.01-.587s1.439.414 2.526.108l.01-.237c-.731-.242-1.039-.22-1.716-.327-.273-.043-.798-.152-.85-.361-.054-.217-.021-.637-.021-.637zm4.119-.43v1.799s-.023.87 1.792.87c1.816 0 1.679-1.006 1.679-1.006V15.18h-.837v1.665s-.07.475-.82.475-1.001-.23-1.001-.443v-1.693l-.813.007z" fill="#FFF"/></g></svg>