<svg xmlns="http://www.w3.org/2000/svg" xmlns:xlink="http://www.w3.org/1999/xlink" width="32" height="32" viewBox="0 0 32 32"><defs><path id="cars-faw-ic-faw-a" d="M32.034 26.276H0V7.223h32.033v19.053z"/></defs><g fill="none" fill-rule="evenodd"><mask id="cars-faw-ic-faw-b" fill="#fff"><use xlink:href="#cars-faw-ic-faw-a"/></mask><path fill="#00306B" d="M16.017 8.02c8.402 0 15.23 3.917 15.23 8.74 0 4.822-6.828 8.735-15.23 8.735-8.402 0-15.213-3.913-15.213-8.735 0-4.823 6.811-8.74 15.213-8.74m0 18.257c8.856 0 16.017-4.263 16.017-9.517 0-5.28-7.161-9.537-16.017-9.537C7.179 7.223 0 11.48 0 16.76c0 5.254 7.178 9.517 16.016 9.517" xmask="url(#cars-faw-ic-faw-b)"/><path fill="#00306B" d="M13.694 13.771v1.487s-7.985-.106-8.629-.093c-.698 0-1.258-1.499-1.258-1.499l9.887.105zm.07-1.887l2.427-1.048h1.099l.124.21s-.106 9.727-.088 9.781c0 .087.071.383.47.665.354.246.734.23.734.23l-.016.852-4.873-.036v-.867s1.015-.024 1.204-1.104c.054-1.307.122-6.989.09-7.111a1.18 1.18 0 00-.455-.666 1.64 1.64 0 00-.716-.256v-.65zm4.821 6.936l1.378.016 1.697.999 3.353.032s-.628 1.455-1.346 1.436c-.803-.02-2.445-.02-2.445-.02l-1.485-1.017-1.169-.013.017-1.433zm.034-2.498l8.385.086s-.524 1.433-1.327 1.433c-.876 0-7.092-.055-7.092-.055l.034-1.464zm.018-3.458l1.398.032-.017.93 8.418.1s-.541 1.472-1.328 1.472c-.855 0-8.471-.073-8.471-.073v-2.46zm-5.014 7.095l-2.305 1.234s-2.269-.069-2.936-.069c-.662 0-1.275-1.486-1.275-1.486l3.861.068 2.656-1.43v1.683h-.001zm-8.437-3.795l8.474.106v1.447s-6.499-.085-7.18-.085c-.68 0-1.294-1.468-1.294-1.468zm10.901 8.662c8.157 0 14.568-3.493 14.568-8.047 0-4.544-6.516-8.087-14.673-8.087S1.38 12.184 1.38 16.74c0 4.563 6.549 8.086 14.707 8.086z" xmask="url(#cars-faw-ic-faw-b)"/></g></svg>