<svg xmlns="http://www.w3.org/2000/svg" width="32" height="32" viewBox="0 0 32 32"><g fill="none" fill-rule="evenodd"><path fill="#FFF200" fill-rule="nonzero" d="M26 .991v30.018c0 .547-.427.991-.954.991H7.954C7.427 32 7 31.557 7 31.009V.991C7 .443 7.427 0 7.954 0h17.092c.527 0 .954.443.954.991z"/><path fill="#009A4E" d="M7 1a1 1 0 01.995-1h17.01c.55 0 .995.444.995 1v1H7V1z"/><path fill="#FFF" d="M7 2h19v2H7z"/><path fill="#ED1C24" d="M7 4h19v2H7z"/><path fill="#000" fill-rule="nonzero" d="M25.477.991c0-.263-.197-.468-.431-.468H7.954c-.234 0-.43.205-.43.468v30.018c0 .263.196.468.43.468h17.092c.234 0 .43-.205.43-.468V.991zm.523 0v30.018c0 .547-.427.991-.954.991H7.954C7.427 32 7 31.557 7 31.009V.991C7 .443 7.427 0 7.954 0h17.092c.527 0 .954.443.954.991z"/><path stroke="#000" stroke-width=".5" d="M22.92 26.919v-.43"/><g fill="#000" fill-rule="nonzero"><path d="M15.527 18.235c.006-.019.154.077.23.123.162.1.235.159.378.268.113.089.167.134.281.234.14.123.215.229.252.205.055-.067-.089-.262-.215-.368a3.603 3.603 0 00-.349-.256c-.126-.086-.138-.106-.327-.236a3.06 3.06 0 01-.379-.315l-.197-.16-.31-.267-.344-.325-.26-.296s-.201-.254-.233-.303a10.59 10.59 0 01-.207-.337 4.44 4.44 0 00-.219-.32c-.073-.091-.24-.054-.436-.172-.237-.143-.294-.274-.294-.274s-.009-.02-.018-.03c-.009-.01-.027-.024-.027-.024l-.124-.089-.07-.048s-.054-.045-.122-.075a3.39 3.39 0 01-.22-.121l-.27-.177-.142-.117a1.21 1.21 0 00-.103-.067s-.042-.022-.055-.023c-.013 0-.07-.006-.07-.006s-.052-.014-.105.05-.04.03.047.39c.034.143.03.644.067.797.047.196.182.45.195.48.014.03.023.139.023.139s-.006.088.004.144c.04.26.41.089.492.444.08.35-.048.7-.048.7s-.08.174-.192.202c-.112.026-.286-.228-.411-.434a3.594 3.594 0 01-.258-.552c-.033-.084-.05-.103-.088-.164-.055-.091-.1-.074-.162-.218-.063-.144-.007-.202-.035-.327-.017-.07-.031-.077-.052-.177-.02-.099-.048-.413-.048-.413l-.04-.293s-.013-.134-.031-.217a4.978 4.978 0 01-.084-.577l-.012-.116-.004-.12s-.004-.058.01-.118a.455.455 0 01.042-.108s.057-.1.067-.124c.01-.024.128-.164.128-.164s.061-.053.162-.116.192-.058.192-.058.026-.003.205.02.546.123.64.147c.09.025.2.065.271.105.204.114.266.066.104-.065-.11-.087-.14-.127-.229-.209-.074-.07-.133-.117-.188-.181-.056-.066-.214-.306-.214-.306l-.099-.15s-.053-.061-.062-.065a.727.727 0 01-.035-.026s-.065.003-.133-.01c-.069-.014-.1.084-.1.084s-.147.281-.297.453c-.242.28-.416.47-.505.619-.124.206-.097.432-.161.537-.038.06-.058.07-.079.123-.062.163.165.252.113.431-.083.286-.734.568-.82.52-.09-.048-.017-.433.013-.558.03-.125.122-.31.13-.32a.258.258 0 00.037-.09c.007-.036.01-.12.014-.166.004-.046.023-.12.023-.12s.003-.016.06-.144c.058-.129.27-.428.422-.714.1-.187.142-.3.243-.487.092-.172.25-.434.25-.434s.067-.133.098-.183c.032-.05.099-.147.161-.242.063-.095.079-.166.161-.244a.473.473 0 01.203-.129c.133-.045.223-.02.359.018a.84.84 0 01.328.183c.092.079.16.166.16.166l.045.067.027.017.085.056.195.132.489.34c.024.017.108.087.124.093.017.005.14-.132.382-.303.28-.199.379-.184.471-.236.092-.051.13-.094.201-.168.109-.111.11-.17.233-.326.124-.155.24-.242.24-.242s.017-.017.238-.273c.22-.256.318-.449.318-.449l.121-.248s.176-.387.232-.54c.057-.153.057-.204.057-.204s.008-.04-.034-.118c-.044-.078-.09-.043-.173-.025-.161.035-.259-.008-.421-.037-.149-.025-.227-.07-.376-.096-.15-.026-.239-.052-.39-.037a.567.567 0 00-.092.02c-.086.03-.11.036-.173.074a.435.435 0 01-.203.048c-.057.002-.09.004-.143-.017a.233.233 0 01-.124-.098c-.002-.016-.007-.015.009-.042.015-.027.034-.032.034-.032l.069-.017.107-.029.143-.046a.598.598 0 00.086-.038s.025-.041.016-.065c-.013-.026-.068-.029-.068-.029s-.078.03-.087.032l-.132.042-.173.04c-.076.018-.184.027-.184.027l-.033-.01s-.037-.025-.042-.051a.859.859 0 01-.013-.068c-.017-.099-.036-.158-.013-.255a.598.598 0 01.078-.18l.06-.1.112-.171a.445.445 0 01.113-.089.441.441 0 01.204-.063c.088-.01.1-.009.225-.037.125-.03.214-.08.214-.08s.3-.113.483-.205c.192-.097.276-.2.474-.28.084-.033.133-.048.22-.071a.041.041 0 00.019-.027c.008-.033-.04-.048-.074-.044-.03.002-.098.035-.114 0-.011-.027.063-.043.063-.043s.035-.017.036-.037c0-.03-.05-.01-.074-.013-.116-.013-.125-.035-.206-.055-.095-.025-.146-.055-.245-.059a.811.811 0 00-.222.029c-.054.014-.056-.04-.035-.051.153-.073.156-.079.264-.084a.593.593 0 01.15.015c.009.005.127-.001.157-.033.03-.03-.097-.029-.157-.053-.055-.023-.14-.03-.139-.067.003-.038.044-.017.074-.024.036-.01.058-.008.095-.014.068-.009.074-.015.174-.024a.782.782 0 01.242.033s.15.069.223.105c.074.035.162.053.162.053s.105.015.184-.036c.08-.05.035-.084.007-.13-.027-.044-.062-.108-.011-.227.046-.105.07-.227.082-.238.017-.013.08.08.12.119.147.14.34.21.524.503.014.024.082-.014.294.02.212.033.397.266.444.322.049.056.111.053.111.053l.102.014.37.006s.168-.03.265.007c.067.026.293.18.19.24-.072.04-.14-.05-.204-.054-.077-.005-.11.01-.18.027-.143.037-.451.133-.34.171l.025.006.055.01s.136.032.217.064c.124.05.182.106.296.174.065.039.093.077.164.1.066.018.107 0 .174.01a.716.716 0 01.217.074c.12.059.163.13.27.209.053.04.099.046.139.1.009.011.016.018.02.032.015.048-.078.02-.127.012-.054-.01-.077-.037-.127-.06-.074-.037-.11-.076-.19-.091-.059-.012-.094-.003-.154 0-.059.003-.09.012-.148.013a.952.952 0 01-.253-.028c-.11-.024-.164-.067-.272-.09-.123-.026-.34-.134-.32-.026.012.051.127.095.127.095s.08.044.154.078c.075.033.117.084.117.084l.052.04s.053.075.124.16c.068.084.19.081.19.081s.073 0 .232.034c.158.033.32.133.32.133s.123.087.195.174c.071.087.03.13.021.14-.008.009-.005.004-.015.009-.008.004-.097-.11-.097-.11l-.063-.055s-.062-.045-.142-.071c-.08-.026-.107-.009-.107-.009s-.17.05-.319.045c-.147-.004-.224-.065-.224-.065l-.093-.064s-.14-.135-.146-.071c-.003.043.062.091.062.091l.075.076c.057.058.08.086.146.146.065.06.105.06.105.06a1.782 1.782 0 00.085.02l.124.05a1 1 0 01.21.134s.01.009.025.012c.015.001.045.017.054.02.009.001.035.001.093.01.06.009.037.048.037.048l-.01.014-.049.033s-.062.019-.105.021c-.043.003-.105-.022-.105-.022l-.131-.05s-.133-.037-.161-.041a5.96 5.96 0 01-.167-.033.606.606 0 01-.095-.036c-.016-.01-.045-.015-.117-.051-.07-.036-.1-.078-.188-.106-.089-.03-.143-.036-.21.012-.115.081.174.095.317.168.212.107.332.186.382.302.05.116.102.158.102.158s.15.077.216.157c.037.044.042.08.079.124.081.098.24.093.272.176.03.078-.129.043-.211.035-.15-.015-.185-.154-.324-.21-.078-.033-.128-.033-.208-.06-.147-.05-.215-.115-.361-.161-.089-.028-.25-.148-.229-.056.003.023.017.04.022.053a1.22 1.22 0 00.117.147c.02.018.115.09.25.166.134.075.25.22.25.22s.04.06.06.1c.02.047.006.06.037.125.03.064.044.076.084.116.098.097.202.077.327.13.035.015.037.02.074.06.037.04-.007.057-.007.057s-.14.037-.23.03c-.116-.01-.17-.047-.283-.105-.115-.058-.175-.162-.187-.168-.01-.007-.038-.038-.06-.054-.021-.016-.078-.028-.128-.042-.05-.014-.079-.016-.13-.03-.07-.02-.141-.052-.174-.063-.032-.011-.106-.025-.16.008-.11.066.168.11.254.205.044.048.063.081.104.131.032.039.045.066.085.096a.49.49 0 00.076.042s.066.031.164.086a.933.933 0 01.212.212l.07.109.04.062.011.028.015.035s.05.067.087.089c.037.023.03.042.03.042s-.004.014-.03.03c-.025.015-.039.002-.076-.01-.036-.01-.06-.046-.092-.072-.034-.028-.069-.094-.128-.132-.053-.032-.121-.044-.148-.052-.026-.01-.091-.052-.117-.064a3.507 3.507 0 01-.093-.042s-.13-.074-.202-.094c-.072-.02-.026.024-.026.024s.065.103.126.144c.08.054.193.102.157.146-.025.03-.059.019-.096.015-.06-.008-.132-.081-.132-.081s-.03-.02-.165-.064c-.134-.045-.084.03-.053.071.03.04.07.062.07.062l.092.042.042.013s.036.007.157.036c.121.028.188.089.188.089s.065.062.156.13c.091.07.182.087.232.094.05.007.048.043.048.043s.007.033.004.043a.025.025 0 01-.024.02c-.01 0-.015.005-.028.012-.014.007-.065.015-.065.015s-.136-.004-.243-.03c-.105-.027-.198-.103-.208-.107-.009-.004-.107-.06-.176-.083a.443.443 0 00-.183-.008c-.011.004-.048.01-.11.029-.064.017.015.042.015.042l.045.004.108.009s.112.013.206.049c.095.035.156.106.22.171a.76.76 0 00.131.106l.05.033.026.02.007.018-.007.02c-.004.011-.02.02-.02.02s-.023-.004-.033-.004c-.012 0-.083-.039-.136-.062-.054-.025-.081-.048-.14-.062a.417.417 0 00-.132-.014c-.015.005-.125.02-.21.026a1.177 1.177 0 01-.26-.004c-.142-.017-.332-.133-.356-.1-.05.067.101.086.175.13.1.059.274.112.274.112s.127.029.2.065c.164.077.213.192.344.313.072.067.13.097.227.111.084.013.082.002.214-.024.133-.027.213-.156.251-.109.008.01.005.018.003.03-.003.014-.013.039-.013.039s-.015.021-.039.046a.764.764 0 01-.163.096.796.796 0 01-.311.048c-.147-.004-.354-.12-.354-.12l-.149-.064s-.068-.033-.115-.05c-.124-.049-.202-.044-.33-.078-.078-.022-.13-.045-.2-.06-.072-.016-.031.013-.025.024.034.046.079.061.136.088.075.038.127.03.204.064.086.035.162.085.21.117.046.03.081.066.127.115l.158.138s.036.031.04.044c.005.013.022.047.014.1-.01.054-.052.016-.052.016l-.042-.027-.041-.04-.066-.056s-.057-.053-.155-.103a.677.677 0 00-.214-.065s-.103-.016-.1.017c.005.033.028.036.11.058a.411.411 0 01.137.065s.085.064.146.135c.06.071.077.14.077.14s.031.058.109.135c.078.078.118.051.114.09-.004.037-.038.044-.038.044l-.029-.002c-.008 0-.028-.012-.05-.02-.021-.009-.103-.067-.103-.067s-.129-.107-.143-.117l-.137-.105s-.072-.047-.123-.073a1.504 1.504 0 00-.16-.067c-.04-.013-.111-.017-.111-.017s-.086-.014-.139-.034c-.082-.032-.179-.123-.19-.127a.492.492 0 00-.103-.029c-.015.002-.05.15-.058.237-.035.36.058.6.203.93.21.48.794 1.077.794 1.077s.147.086.209.137c.174.14.463.338.72.6.218.224.509.623.509.623s.169.24.247.41c.095.21.172.528.172.528s.007.055.012.067c.007.011.022.026.032.026l.101.003c.01 0 .127-.008.203-.028.076-.02.257-.105.377-.169.119-.065.261-.188.261-.188s.028-.024.167-.183c.14-.16.23-.398.264-.489.034-.09.061-.262.081-.556.022-.296-.017-.608-.017-.608s-.053-.435-.085-.583c-.031-.147-.108-.388-.108-.388s-.053-.215-.07-.35a3.926 3.926 0 01-.02-.357s0-.136.042-.386c.045-.248.193-.5.193-.5s.042-.084.202-.28c.165-.202.217-.234.38-.354.128-.095.294-.247.349-.211.06.038-.059.115-.099.156-.101.102-.29.284-.443.557a1.813 1.813 0 00-.217.548c-.033.154-.019.324-.015.382.005.058.036.037.036.037s.325-.268.501-.47c.192-.22.362-.61.429-.613.045-.003.066.101.055.15-.042.202-.056.228-.12.362-.074.154-.142.223-.244.365-.107.149-.16.206-.246.403-.124.284-.052.503-.052.503s.016.133.074.131c.098-.003.312-.281.453-.508.103-.167.14-.36.208-.46.062-.09.117.145.09.284-.031.165-.11.313-.285.546-.17.228-.165.444-.165.444s-.018.1-.032.315c-.013.215.047.541.047.541s.053.273.064.48c.01.208.003.68-.186 1.047-.075.148-.237.351-.237.351s-.124.131-.226.208c-.102.076-.347.195-.347.195s-.169.06-.192.065c-.026.007-.04.028-.04.028s.014.034.021.047l.054.134s.05.17.07.304c.019.134-.004.165-.022.268-.018.098-.06.053-.071.246-.01.172.066.257.053.449-.006.084-.099-.106-.144-.187-.095-.174-.073-.443-.074-.51a.9.9 0 00-.032-.224.765.765 0 00-.123-.261c-.05-.066-.103-.104-.12-.097-.018.006-.02.041-.02.058 0 .019.035.082.042.096.01.013.072.13.072.13s.028.09.039.267c.01.175-.042.392-.042.392s-.069.244-.14.388c-.08.159-.258.374-.258.374s-.128.12-.224.317c-.095.197-.014.283-.049.308-.037.025-.112-.113-.132-.207-.019-.087-.01-.128.025-.226.033-.094.11-.23.11-.23l.114-.2s.139-.27.182-.467c.044-.195-.006-.413-.006-.413s-.006-.072-.054-.068c-.048.002-.082.045-.102.097-.04.108.017.089-.043.268-.047.142-.06.123-.085.207a.95.95 0 00-.045.265c.003.062-.03.036-.03.036s-.059-.111-.059-.25c0-.075.003-.118.012-.194a2.74 2.74 0 01.062-.305s.051-.182.04-.349c-.012-.167-.069-.198-.069-.198s-.015-.022-.078-.019c-.063.005-.06.12-.06.12s-.019.166-.044.269c-.07.283-.162.432-.326.67-.148.217-.35.407-.45.496-.1.09-.41.32-.41.32l-.362.248s-.144.144-.209.315a.7.7 0 00-.025.46c.038.158.094.23.123.275.028.043.084.12.102.21.012.056.004.09.007.146.004.05.01.077.009.128-.002.078.012.134-.032.198-.032.049-.119.092-.119.092s-.098.044-.157.081c-.616.381-.835.629-1.182 1.053-.11.136-.03.128-.147.289-.072.096-.237.096-.296.21-.083.157.187.311-.125.449-.402.178-1.094.05-1.108-.005-.038-.153.135-.329.197-.4.281-.314.532-.322.625-.583.02-.056.012-.104.236-.274.157-.12.786-.604 1.061-.928.094-.111.175-.185.216-.305.042-.122-.04-.198-.04-.198l-.113-.188-.217-.396s-.09-.211-.14-.333a6.464 6.464 0 01-.145-.448s-.07-.295-.081-.487c-.021-.344.025-.544.113-.878.115-.433.374-.615.478-1.044.03-.125.037-.34-.025-.33-.058.012-.063.18-.109.294-.167.426-.387.613-.508 1.054a2.564 2.564 0 00-.114.786c.001.177-.006.145.039.452.017.113.044.174.077.285.023.078.086.226.086.226s.086.194.116.33c.009.047.02.074.017.12-.006.082.008.1-.03.173-.047.091-.018.145-.17.18-.136.029-.412-.064-.412-.064s-1.136-.352-1.861-.25c-.144.02-.221.073-.366.07-.131-.001-.198-.107-.33-.066-.026.007-.035.027-.059.043-.192.137-.045.365-.551.247-.31-.073-.687-.268-.622-.39.087-.163.204-.19.45-.293.262-.11.657-.08.734-.084.095-.008.231-.076.4-.08.294-.005.346.031.346.031l.498.045.952.012s.17-.013.238-.026c.069-.014.123-.152.16-.218.037-.065-.002-.16-.002-.16l-.028-.046-.09-.15-.168-.29-.186-.38s-.121-.264-.186-.438c-.064-.173-.102-.27-.145-.45a2.426 2.426 0 01-.078-.48c-.007-.213-.02-.378.038-.552m2.36 9.905v-.207c0-.473.233-.565.913-.569.627.004.848.084.848.492v1.572h.231v.355h-1.53c-.322 0-.532-.227-.532-.506v-.319c0-.275.136-.514.616-.517h.598v-.478c0-.25-.017-.28-.262-.28h-.002c-.293 0-.312.039-.312.28v.178h-.568zm.71.565c-.12 0-.192.1-.192.222v.304c0 .123.051.22.192.222h.215c.119 0 .216-.038.216-.222l.001-.526h-.432zm-2.166-.748v-.55h-.853v.327h.228v1.693h-.228v.356h1.069v-.356h-.216v-.907c0-.085.504-.736.504-.661v.902h.591v-1.015c0-.232-.148-.382-.418-.382-.32 0-.537.414-.677.593m6.804 1.469v-2.019h-.871v.327h.244v1.692h-.244v.357h1.1v-.357h-.23m-8.998-1.469v-.55h-.854v.327h.228v1.693h-.228v.356h1.068v-.356h-.214v-.907c0-.085.502-.736.502-.661v.902h.591v-1.015c0-.232-.147-.382-.417-.382-.32 0-.537.414-.676.593m-1.181 1.048h-.598v.178c0 .241-.04.251-.331.255h-.005c-.334.001-.315-.033-.312-.255v-.422h1.246v-.917c0-.333-.244-.472-.89-.475h-.092c-.697.004-.883.166-.883.577v1.343c0 .452.26.528.895.546h.07c.692-.016.9-.065.9-.487v-.343zm-1.239-1.127c0-.125.037-.187.176-.189h.263c.109 0 .17.05.17.14v.687h-.609v-.638zm9.149.079v-.55h-.854v.327h.227v1.693h-.227v.356h1.069v-.356h-.215v-.907c0-.085.502-.736.502-.661v.902h.592v-1.015c0-.232-.149-.382-.42-.382-.318 0-.535.414-.674.593"/><path d="M10.444 28.628v-.317h-.333v1.117h.576v.355h-1.69v-.355h.45V26.92h-.354v-.432h13.169v.432H10.11v1.008h.333v-.298h.383v.999h-.383m12.155-2.157h1v1h-1z"/></g></g></svg>