<svg xmlns="http://www.w3.org/2000/svg" width="32" height="32" viewBox="0 0 32 32"><g fill="none" fill-rule="evenodd" transform="translate(4 4)"><circle cx="12" cy="12" r="12" fill="#ECEEF0"/><path fill="#4A4A4A" d="M12 .085c6.568 0 11.914 5.345 11.914 11.913l-.003.204a1.961 1.961 0 00-.631-.72c-.621-.448-.945-2.01-1.007-2.61l-.005-.006c.042.423.063.86.063 1.32 0 .842-.068 1.737-.21 2.738-.418 2.928-1.834 6.064-2.671 7.026 0 0-.05.057-.054.057l-.188.2-.007.005c-2.034 1.663-3.905 2.254-7.148 2.254h-.022c-3.243 0-5.115-.59-7.15-2.254l-.008-.006s-.192-.201-.192-.203l-.047-.052c-.835-.96-2.254-4.097-2.671-7.027-.143-1-.211-1.896-.211-2.738 0-.432.03-.831.07-1.229l-.013.062c-.06.602-.24 1.61-.904 2.001-.353.21-.662.573-.817 1.132 0-.05-.003-.101-.003-.152C.085 5.43 5.43.085 12 .085M12 0C5.383 0 0 5.384 0 12s5.383 12 12 12c6.616 0 12-5.384 12-12S18.617 0 12 0"/><path fill="#BCBEC0" d="M2.323 13.237l.016.093c.02.11.04.223.062.334a14.715 14.715 0 00.08.376c.008.031.015.067.022.1.023.102.05.206.074.31.005.015.007.029.01.045l.09.34c.009.036.018.07.03.105.025.098.052.191.08.289.008.02.013.04.018.06l.101.328c.011.036.024.071.033.104.029.089.057.176.087.26.01.027.017.054.027.08.035.105.071.205.108.308l.036.103c.03.08.061.16.089.24l.033.083.113.288.04.098c.03.073.06.148.091.219l.034.08.117.268.038.086c.033.07.065.134.096.204l.033.07.12.242c.012.023.023.045.034.07.034.062.065.127.098.187l.02.04h.001c.432.553.877.696 1.016.617.113-.069.16-.506.072-1.108-.053-.166-.104-.33-.155-.497l-.054-.17a32.523 32.523 0 01-.24-.835c-.01-.029-.015-.06-.024-.091a28.129 28.129 0 01-.252-.997c-.046-.194-.093-.388-.135-.582l-.063-.296c-.042-.186-.078-.372-.115-.555a27.843 27.843 0 01-.163-.877 37.49 37.49 0 00-.046-.257c-.045-.274-.089-.55-.127-.821-.39-2.691-.376-5.112.202-6.587.078-.196.16-.34.224-.433a.9.9 0 01.11-.135c1.192-1.195 4.421-1.795 7.652-1.795 3.228 0 6.457.6 7.652 1.796 0 0 .046.044.108.134.063.093.145.237.223.433.58 1.475.594 3.896.202 6.587a29.91 29.91 0 01-.175 1.09 31.947 31.947 0 01-.343 1.737c-.038.176-.08.351-.12.527l-.077.316c-.048.197-.1.393-.152.589-.022.079-.041.162-.064.243a25.193 25.193 0 01-.31 1.055c-.047.15-.092.298-.14.445-.083.587-.036 1.017.078 1.084.129.075.539-.053.952-.542.14-.26.285-.548.43-.863 0-.002 0-.005.002-.008.095-.206.188-.422.28-.648.005-.008.008-.017.012-.026.045-.11.088-.22.133-.334l.002-.003c.043-.113.088-.229.129-.348l.017-.043c.04-.113.08-.227.122-.34l.003-.013.117-.354.02-.066a10.452 10.452 0 00.113-.361c.037-.12.07-.239.104-.36l.02-.076.092-.347c.003-.007.003-.014.005-.021.03-.12.057-.24.087-.362l.02-.085c.025-.118.051-.237.073-.352l.006-.017.067-.363.015-.087c.02-.122.04-.244.056-.364.141-.987.21-1.867.21-2.695 0-1.529-.24-2.836-.736-3.995a4.609 4.609 0 00-1.802-2.103 14.1 14.1 0 00-6.61-2.146c-.27-.016-.548-.024-.824-.024h-.022c-.277 0-.553.008-.824.024-2.31.141-4.596.884-6.609 2.146a4.608 4.608 0 00-1.803 2.103c-.495 1.159-.736 2.466-.736 3.995a19.16 19.16 0 00.264 3.05m13.633 7.749l-.015.003a5.106 5.106 0 01-.36.1c-.119.03-.238.056-.358.08a16.67 16.67 0 01-3.153.288h-.03c-1.131 0-2.204-.103-3.152-.288a8.266 8.266 0 01-.329-.072 5.13 5.13 0 01-.307-.084c-.007-.001-.015-.002-.021-.005-.57-.138-1.32-.32-1.35-.208-.036.135.37.486.74.702a.021.021 0 00.009.006l.046.015.075.028c.114.043.23.083.347.12l.048.012c.11.035.222.067.335.097.023.007.047.012.07.02.118.03.24.058.363.083l.09.02c.124.025.251.049.38.067.027.007.056.01.086.015.133.022.269.04.41.058.012.002.025.005.037.005a11.536 11.536 0 00.494.05c.146.012.295.022.448.03.032.001.061.004.095.004.154.01.31.015.472.02h.08c.173.004.344.007.526.007h.021c.179 0 .353-.003.522-.007h.084c.16-.005.318-.01.473-.02.032 0 .064-.003.096-.005.152-.009.302-.017.448-.03.024-.002.048-.005.073-.006.137-.013.274-.026.407-.041.017-.002.036-.007.054-.008.137-.016.27-.036.402-.057.033-.005.066-.009.097-.015.126-.02.25-.042.37-.069l.1-.02a12.495 12.495 0 00.432-.105c.104-.028.204-.058.307-.088l.084-.024c.109-.036.218-.072.324-.111l.1-.038c.018-.007.035-.01.053-.02.003 0 .005-.002.008-.004.367-.219.759-.559.72-.69-.029-.106-.697.051-1.251.185"/><path fill="#A80834" d="M19.475 6.16c.001.004.004.008.007.013.055.14.104.295.15.46a63.7 63.7 0 01-.273 7.59c-.088.455-.186.903-.29 1.345.441-3.665.483-7 .406-9.408zm-.864 2.9h.126V7.6h-.12a93.68 93.68 0 00-.038-2.356c.049.027.098.056.143.083.103 3.496.042 9.04-.774 13.954a1.245 1.245 0 01-.199.34c.607-3.492.823-7.34.862-10.56zm-1.296 8.345h.143a51.006 51.006 0 01-.337 2.707l-.159.093c.141-.885.256-1.824.353-2.8zM15.941 9.06h.058l-.029 5.826c-.074 2.202-.188 4.272-.36 5.89a6.02 6.02 0 00-.146.04c.326-3.018.447-7.632.477-11.756zm-1.042 8.345h.14a91.981 91.981 0 01-.186 3.546c-.046.009-.094.016-.14.024.078-1.008.139-2.23.186-3.57zm-1.647-4.27h.137a569.17 569.17 0 01-.094 8.013c-.045.003-.09.008-.136.009.046-2.015.075-4.934.093-8.022zm-.905 4.267h.137l-.01 3.788c-.046 0-.09.002-.136.003l.01-3.791zm-.859 3.791l-.008-3.791h.134l.009 3.795a7.89 7.89 0 01-.135-.004zm-.879-3.788h.134c.017 1.427.036 2.712.06 3.756-.046-.003-.091-.008-.137-.012a370.608 370.608 0 01-.057-3.744zm-1.5 3.549c-.224-2.925-.312-7.605-.336-11.869h.137c.026 4.277.114 8.973.338 11.893-.048-.008-.092-.017-.139-.024zm-.758-.177c-.216-2.047-.342-4.814-.408-7.663h.138c.068 2.867.195 5.653.414 7.703a3.044 3.044 0 00-.144-.04zm-1.059-3.372h.14c.085 1.14.19 2.21.321 3.163-.051-.019-.1-.04-.15-.063a53.179 53.179 0 01-.31-3.1zm-.788-.009l.141.002c.096.979.214 1.922.353 2.806l-.156-.092a50.754 50.754 0 01-.338-2.715zm.62-9.787l-.14-.003c0-1.076.007-2.09.02-2.991l.141-.038c-.014.912-.021 1.939-.021 3.032zm2.671-.007l-.136.001a660.548 660.548 0 010-3.45l.134-.013c-.002 1.07-.002 2.24.002 3.462zm2.716-3.553l-.008 3.563h-.133l.01-3.566.131.003zm3.575 3.56h-.138a326.5 326.5 0 00-.011-3.226c.046.007.092.016.136.026.011.972.015 2.056.013 3.2zm.892-.003h-.14c0-1.092-.006-2.118-.02-3.029l.14.038c.012.9.02 1.912.02 2.991zm-1.799 2.788a13.624 13.624 0 00-.132-.654l.005-.68h.136l-.009 1.334zm-5.285 6.82h-.392l-.18-9.42h.472l.758-.001h.125l-.026 9.421h-.758zm4.41-9.582l-.012-.02h-.127c.003-1.224.003-2.397.003-3.472l.135.013c.003 1.076.003 2.253 0 3.48zm-.08 8.684c-.011-.901-.035-2.255-.095-2.995a4.637 4.637 0 00-.04-.358l-.002-.018h-1.46l-.009 4.265h-1.081l-.072-6.236-.037-3.17h2.747c.044.086.084.175.127.263.351.771.584 1.687.736 2.65.051.322.093.65.127.98.19 1.81.151 3.683.125 5.046l-.01.471h-1.052v-.002c0-.01 0-.38-.006-.896zm2.458.898h-.533l.044-8.325v-.021h-1.01V7.804h.01l.754-.002h.14l.751-.006h.14l.75-.003h.14l.677-.001v1.074h-.994l-.279 8.347h-.59zM15.19 4.26c.005 1.026.008 2.163.005 3.353h-.138c.003-1.196.001-2.34-.004-3.373.046.008.091.013.137.02zm-1.909-.183l.135.008-.003 3.528h-.135l.003-3.535zm-1.697-.03l.008 3.566h-.133l-.008-3.563.133-.003zm-1.036.038l.132-.007c0 1.1.002 2.288.005 3.523h-.132c-.002-1.23-.005-2.418-.005-3.516zm-2.496 7.562h-.139a230.42 230.42 0 01-.029-2.561h.14c.003.84.014 1.698.028 2.561zM8.02 8.895h-.565v2.946H8.48v1.083H7.454l.015 4.291h-.05l-.14-.002-.65-.006-.143-.002H6.36l-.078-2.671-.187-6.55-.006-.19h.004l.143.003.75.004h.139l.753.005.138.002.753.004h.012v1.083H8.02zM7.889 4.41c.046-.01.091-.019.138-.026-.01.98-.014 2.075-.011 3.23h-.138a270.96 270.96 0 01.011-3.204zM6.235 7.604l-.143-.001c.002-.98.014-1.893.032-2.703.044-.018.093-.035.14-.053-.019.824-.028 1.755-.029 2.757zm2.67.015l-.138-.001c0-1.192 0-2.33.004-3.36.046-.006.092-.011.137-.02a497.633 497.633 0 00-.003 3.38zm1.11 13.47a4.643 4.643 0 01-.137-.018 154.148 154.148 0 01-.117-3.666h.137c.03 1.397.07 2.658.118 3.684zm4.07-.02c-.046.006-.094.01-.14.017.05-1.025.088-2.285.12-3.68h.136a155.26 155.26 0 01-.117 3.663zm2.274-.561c-.05.02-.099.041-.149.06a53.91 53.91 0 00.318-3.163h.142a54.716 54.716 0 01-.31 3.102zm1.217-6.63c.071-1.37.113-2.742.136-4.05.012-.432.021-.713.024-.768h.126c-.028 2.649-.138 5.621-.403 8.341.002-.115.057-1.736.117-3.524zm.263-8.978c.018.81.03 1.723.03 2.703h-.141c0-1-.013-1.932-.03-2.756.046.016.095.035.141.053zM6.013 19.28c-.815-4.915-.875-10.458-.774-13.953.046-.027.094-.056.143-.083-.105 3.57-.046 9.34.83 14.38a1.277 1.277 0 01-.199-.344zM4.331 6.63c.044-.162.095-.316.15-.457l.006-.015a63.487 63.487 0 00.406 9.415 40.298 40.298 0 01-.29-1.355A63.466 63.466 0 014.33 6.63zm15.191-.473a1.902 1.902 0 00-.197-.375c-.045-.07-.078-.103-.08-.106C18.23 4.66 15.378 4 11.981 4c-3.396 0-6.247.66-7.266 1.676-.002.003-.033.036-.08.106-.076.109-.14.235-.195.375-.515 1.313-.58 3.541-.184 6.276.35 2.417.947 4.823 1.683 6.776.13.352.249.488.542.715a6.333 6.333 0 002.47 1.043c.927.181 1.97.275 3.017.275h.028c1.06 0 2.073-.093 3.015-.275a6.334 6.334 0 002.472-1.043c.29-.227.41-.362.54-.715.735-1.95 1.332-4.357 1.685-6.776.394-2.735.328-4.963-.186-6.276z"/><path fill="#A80834" d="M13.345 8.909c.047.12.09.25.134.396-.002.702-.005 1.41-.009 2.111h-.135c.004-.837.008-1.675.01-2.507m.594 1.535c-.132-.73-.286-1.308-.458-1.721a3.612 3.612 0 00-.067-.15l-.005-.012h-.062l-.659-.007h-.02l-.028 3.033v.022h1.47l-.003-.024c0-.005-.057-.527-.168-1.141"/></g></svg>