<svg xmlns="http://www.w3.org/2000/svg" width="32" height="32" viewBox="0 0 32 32"><g fill="none" fill-rule="nonzero" transform="translate(4 4)"><circle cx="12" cy="12" r="11.707" fill="#222D5E"/><path fill="#B3B3B3" d="M12 0C5.372 0 0 5.372 0 12s5.372 12 12 12 12-5.372 12-12c0-6.613-5.372-12-12-12zm-.044 23.372c-6.321 0-11.43-5.124-11.43-11.43C.526 5.62 5.65.51 11.956.51c6.307 0 11.43 5.124 11.43 11.43.015 6.307-5.109 11.431-11.43 11.431z"/><circle cx="12" cy="12" r="8.049" fill="#67B2D3"/><path fill="#FFF" d="M17.18 15.146l-.16.22c-.147-.103-.308-.22-.483-.307l.278-.381-.513-.702-.541.717c-.176-.073-.366-.132-.556-.205l.746-1.01-.483-.658-1.083 1.448c-.205-.044-.41-.073-.629-.117l1.361-1.829-.132-.176-.468-.644-1.888 2.532c-.19-.014-.38-.014-.57-.014h-.118l2.24-3-.835-1.127-3.19 4.287c-.293.044-.57.103-.849.176l3.688-4.946-.966-1.332-2.985 4.068s-2.81 3.839-2.922 4.125c-.111.286-.137.31-.137.5 0 .307.147.614.395.936.703 1.215 2.971 2.093 5.679 2.093h.424c2.751-.102 4.99-1.112 5.4-2.43a1.31 1.31 0 00.16-.585c0-.19-.029-.307-.102-.514-.073-.207-.76-1.125-.76-1.125z"/><path fill="#FFF" d="M12.044 3.659c-4.44 0-8.385 3.95-8.385 8.429 0 4.463 3.93 8.253 8.385 8.253 4.44 0 8.297-3.878 8.297-8.341 0-4.478-3.857-8.341-8.297-8.341zm-.03 15.95c-4.236 0-7.657-3.453-7.657-7.697s3.436-7.697 7.658-7.697c4.236 0 7.657 3.453 7.657 7.697s-3.421 7.698-7.657 7.698z"/><path fill="#E6E6E6" d="M6.673 4.917L5.371 6.263a.509.509 0 01-.322.176c-.117.015-.22 0-.293-.073l-.936-.907a.31.31 0 01-.088-.279.612.612 0 01.16-.321l1.303-1.347.249.249-1.317 1.361.966.937.995-1.025-.351-.351-.6.63-.25-.25.937-.965.85.82zm3.497-1.654l-1.77.615a.629.629 0 01-.366.015c-.117-.044-.19-.103-.22-.205L7.39 2.444a.352.352 0 01.044-.293.56.56 0 01.293-.22l1.77-.614.118.337-1.786.614.161.469 1.8-.615.117.337-1.785.614.16.468 1.8-.614.089.336zm3.852.027l-1.858-.22a.546.546 0 01-.337-.146c-.088-.088-.132-.176-.117-.278l.161-1.303a.336.336 0 01.176-.249.505.505 0 01.366-.058l1.858.22-.044.35-1.888-.219-.058.483 1.888.22-.044.35-1.888-.219-.059.498 1.888.22-.044.35zm2.133.442l1.215.746-.22.351-1.258-.775a.538.538 0 01-.234-.278c-.044-.117-.044-.205.014-.293l.878-1.434.469.292-.864 1.39zm3.382 2.107l-.805.644-.293-.366.805-.644.205-1.375.292.365-.117.996.996.102.292.366z"/></g></svg>