<svg xmlns="http://www.w3.org/2000/svg" width="32" height="32" viewBox="0 0 32 32"><path fill="#EC1D24" fill-rule="evenodd" d="M11.666 9.724v3.564c-3.687.48-6.767 1.392-9.398 2.916 0-7.632 8.026-10.824 13.725-10.872h.147c5.881-.12 13.945 3.972 13.642 10.956-2.631-1.524-5.602-2.496-9.3-2.976V9.724m-2.85 2.892v3.18c4.753.204 8.488 1.284 11.714 2.988a10.08 10.08 0 01-.776 1.632c-3.42-2.052-8.052-3.048-12.575-3.12-4.887-.072-9.665.936-12.685 2.904-.29-.492-.448-.924-.654-1.452 3.14-2.04 7.251-2.7 11.726-2.952v-3.18m1.613 14.244c-4.111-.012-8.186-1.524-11.06-4.536 2.777-1.452 6.949-2.136 11.06-2.088 4.256.048 8.476.864 11.07 2.388-3.03 2.832-7.069 4.248-11.07 4.236M16.043 4h-.048C7.167 4.024 0 9.352 0 15.928c0 6.588 7.045 11.928 15.995 11.952h.048c8.646-.048 15.922-5.34 15.922-11.952C31.965 9.34 24.907 4 16.043 4"/></svg>