<svg xmlns="http://www.w3.org/2000/svg" width="32" height="32" viewBox="0 0 32 32"><g fill="none" fill-rule="evenodd"><path fill="#E70010" d="M0 14h32v5H0z"/><path fill="#FFF" d="M6.036 18.323H4.16l.906-1.568a7.354 7.354 0 00-.326-.007c-.192 0-.37.007-.526.022-.425.04-.841.396-1.033.725l-.472.828H.829l2.13-3.594h1.88l-.734 1.2a7.67 7.67 0 01.91-.059c.272-.004.494-.003.575-.002l.699-1.139h1.877l-2.13 3.594zm5.374-1.638h-1.13l.404-.363c.006-.005.619-.51.888-.659a.923.923 0 01.458-.106l-.62 1.128zm1.047-1.956c-.854 0-1.76.329-2.104.551-.321.208-.7.48-.797.567l-2.924 2.476H8.43l.481-.44c.172-.149.642-.358 1.151-.358h.024c.391.005.757.024.914.033l-.368.765h1.495l1.8-3.594h-1.47zm4.168 3.594h-1.91l-.07-3.594 1.752.004.069 1.798 2.316-1.79h2.33zm6.335-1.638h-1.129l.404-.363c.006-.005.619-.51.888-.659a.923.923 0 01.458-.106l-.62 1.128zm1.048-1.956c-.854 0-1.76.329-2.104.551-.321.208-.7.48-.797.567l-2.924 2.476h1.798l.481-.44c.172-.149.642-.358 1.151-.358h.024c.391.005.757.024.914.033l-.368.765h1.495l1.8-3.594h-1.47zm6.18 3.594h-3.583c-.03 0-.726-.006-.97-.16-.35-.22-.422-.636-.18-1.037l1.417-2.37.016-.027h2.418l-.217.1c-.005.003-.542.256-.85.751-.164.262-.906 1.512-.913 1.524-.029.045-.038.088-.027.124.013.049.058.063.079.1h3.793l-.983.995z"/></g></svg>