<svg xmlns="http://www.w3.org/2000/svg" width="32" height="32" viewBox="0 0 32 32"><g fill="#D51D20" fill-rule="evenodd"><path d="M5.199 13.16a48.95 48.95 0 01.076-1.878c.032-.553.095-1.101.26-1.636.211-.68.574-1.254 1.16-1.675.332-.237.7-.406 1.087-.533.43-.142.87-.233 1.314-.288a64.8 64.8 0 011.864-.211c.434-.04.871-.065 1.311-.085.726-.033 1.45-.075 2.175-.082 1.067-.01 2.133-.01 3.2.01.806.016 1.614.06 2.423.106.863.048 1.727.133 2.584.265.556.082 1.105.195 1.623.411.635.26 1.162.653 1.53 1.242.214.34.352.71.447 1.096.095.39.143.786.174 1.186.1 1.19.11 2.382.088 3.574a27.58 27.58 0 01-.135 2.117c-.056.577-.108 1.152-.176 1.725-.116.934-.27 1.862-.562 2.763-.098.309-.218.61-.368.896-.37.722-.936 1.227-1.685 1.54-.46.19-.942.301-1.429.38-.838.136-1.684.2-2.532.249-1.16.063-2.324.094-3.49.094h-.278v.016c-1.006-.024-2.01-.036-3.019-.075a51.007 51.007 0 01-2.193-.144c-.61-.052-1.21-.137-1.801-.284a4.842 4.842 0 01-.848-.295 3.21 3.21 0 01-1.607-1.586 7.434 7.434 0 01-.515-1.488 17 17 0 01-.37-2.124c-.083-.799-.164-1.6-.23-2.4a27.211 27.211 0 01-.078-2.886m-.565 7.11c.121.62.27 1.233.506 1.82.143.335.293.667.504.968.397.57.926.988 1.564 1.265.261.114.527.211.799.291.754.228 1.535.344 2.32.408.75.064 1.504.116 2.26.145 1.089.04 2.176.055 3.028.073.912-.012 1.584-.02 2.251-.033.943-.02 1.887-.056 2.832-.126a18.35 18.35 0 002.101-.249c.569-.106 1.13-.251 1.662-.485.885-.388 1.553-1.004 1.955-1.888.169-.374.316-.753.425-1.147.21-.754.349-1.52.456-2.292.102-.765.186-1.534.265-2.3.079-.764.126-1.532.141-2.3.03-1.233.041-2.465-.064-3.694a6.072 6.072 0 00-.267-1.391c-.247-.767-.665-1.417-1.315-1.907a4.628 4.628 0 00-1.373-.69c-.658-.214-1.336-.328-2.022-.413a34.496 34.496 0 00-2.52-.213 95.088 95.088 0 00-2.617-.093 76.874 76.874 0 00-3.503.003c-1.32.026-2.633.081-3.948.199a21.19 21.19 0 00-1.955.248 7.242 7.242 0 00-1.595.463c-.872.376-1.54.974-1.956 1.837a5.082 5.082 0 00-.442 1.543c-.08.566-.109 1.136-.118 1.704a77.065 77.065 0 000 2.197c.02 1.31.145 2.614.294 3.916.082.718.193 1.432.332 2.141"/><path d="M8.822 8.865c.029.424.054.848.082 1.27.043.696.09 1.389.131 2.083.04.57.072 1.138.11 1.706.044.66.092 1.323.136 1.983.036.528.07 1.057.109 1.586.051.722.105 1.443.155 2.164.047.588.088 1.178.135 1.766.054.68.113 1.36.168 2.042.003.058.014.116.022.172.426.093 1.994.173 2.363.165l.046-.156c.204-.744.402-1.49.61-2.231.119-.406.264-.8.461-1.176.241-.47.626-.735 1.148-.817a8.739 8.739 0 011.369-.106c.463 0 .923.035 1.38.11.497.085.873.338 1.104.787.053.097.102.194.145.294.162.37.297.751.401 1.142.188.665.362 1.333.542 2.001.015.052.034.104.049.152.46.026 2.145-.1 2.37-.176.442-5.28.772-10.571 1.106-15.874a13.353 13.353 0 00-1.642-.126c-.012.046-.02.08-.027.116-.221.998-.441 1.995-.664 2.993-.326 1.459-.682 2.91-1.07 4.353-.128.47-.28.931-.493 1.37-.405.846-1.085 1.311-2.008 1.44a7.912 7.912 0 01-1.043.067c-.51.002-1.016 0-1.516-.094-.628-.115-1.148-.406-1.545-.912-.199-.253-.334-.542-.454-.84-.204-.511-.35-1.041-.492-1.572-.549-2.108-1.023-4.232-1.482-6.36a45.89 45.89 0 00-.13-.56c-.553.012-1.094.045-1.64.121v.1c.02.34.045.679.064 1.017"/></g></svg>