<svg xmlns="http://www.w3.org/2000/svg" width="32" height="32" viewBox="0 0 32 32"><path d="M2.794 15v1.062H1.9V15H0v2.893h1.9V16.8h.894v1.094h1.9V15zm4.144.001v1.94c.004.25.183.313.428.313.239 0 .421-.066.421-.318v-1.935h1.895v1.947c0 .858-.684 1.044-2.316 1.044-1.634 0-2.323-.183-2.323-1.044V15h1.895zM13.635 15l-.663 1.343L12.31 15h-2.274v2.893h1.793v-1.471l.668 1.471h.951l.668-1.471v1.471h1.792V15zm6.257 0l-.663 1.343L18.567 15h-2.274v2.893h1.793v-1.471l.668 1.471h.951l.669-1.471v1.471h1.792V15zm6.742.696V15H22.56v2.893h4.074v-.696H24.46v-.433h2.174v-.634H24.46v-.434zm2.81.625c.354 0 .524-.118.524-.357 0-.3-.214-.381-.526-.381h-.556v.738h.558zm.528 1.571l-1.085-1.037v1.038h-1.9V15h3.052c.64 0 1.7-.016 1.644.95-.027.45-.542.78-.951.86L32 17.893h-2.028z" fill="#000" fill-rule="nonzero"/></svg>