<svg xmlns="http://www.w3.org/2000/svg" width="32" height="32" viewBox="0 0 32 32"><g fill="none" fill-rule="evenodd"><path fill="#ECEEF0" d="M31.963 19.456c-.154-.346-.65-.261-.65-.261-.226.013-.512.242-.909.321-.854.17-1.508-.11-1.508-.11-1.26-.545-2.11-1.138-2.665-1.444-.555-.306-2.607-1.347-4.659-2.343 0 0-2.352-1.163-5.83-2.551 0 0-6.71-2.94-11.538-2.94 0 0-2.501-.03-3.348.898 0 0-.15.12-.077.267 0 0 .011.04-.02.067 0 0-.373.236-.676.575 0 0-.163.16-.032.4 0 0 .162.272.264.389.102.116.308.32.623.289.14-.013.143-.046.143-.046.145.14.397.149.397.149-.025-.087-.121-.259-.13-.359a.503.503 0 01.036-.215.943.943 0 01.251-.35c.09-.068.31-.138.476-.026.133.09.273.376.115.754 0 0-.18.299-.345.332l-.045.002c-.096-.002-.306-.114-.306-.114s-.009.025.015.127c.013.059.033.123.05.174l-.045.033s-.132.103-.074.252c0 0 .13.47.491.47.319.011.585-.281.585-.281.686-.714 1.652-.81 1.652-.81 1.07-.07 2.6.988 3.016 1.292-1.585-.016-2.225.572-2.225.572-.893.67-.545 1.48-.545 1.48.065.176.247.304.364.354a.834.834 0 00.437.06.65.65 0 00.25-.079c.122-.069.338-.206.443-.35a.483.483 0 00.094-.423s-.028-.137.1-.164c0 0 .42-.103 1.268.258 0 0 .921.519 2.117.622 0 0 1.359.133 1.687-.578 0 0 .781.308 1.924.435 0 0 1.114.111 2.92-.02.356-.026.773.002.773.002.579.067.946.357 1.092.585.592.928 1.298 2.749 4.19 2.677l1.309-.035c.796 0 1.444.007 2.08.335.278.144 1.011.847 1.463 1.085 1.338.87 2.112.465 2.112.465.455-.256.42-.712.31-.967-.138-.042 1.657.253 2.422-.717.181-.216.213-.414.158-.538"/><path fill="#231F20" d="M1.394 11.417s.019-.066.028-.08c.008-.016.055-.168.28-.185 0 0 .115-.01.246.03 0 0-.076.188-.385.219 0 0-.121.018-.17.016m30.276 8.48c-.076.183-.405.416-.792.54-.408.133-1.26.137-1.695-.004-.001 0-.094-.096-.4-.183-.712-.203-.943-.344-1.305-.67-.256-.229-.538-.517-.81-.79a1.672 1.672 0 00-.936-.493c-.543-.09-1.873-.188-2.363-.356-.33-.113-.72-.327-1.21-1.035-.236-.34-.413-.44-.753-.648 0 0 .26.197.395.437.197.348.29.599.399.783.108.187.233.353.427.504.243.188.4.23.673.283.261.05 1.154.089 1.92.118.754.028 1.076.253 1.31.444.218.176.562.68.805.887.323.275.332.279.707.506.19.115.358.19.512.245.346.195.203.536.203.536-.1.273-.456.37-.871.313-.628-.053-1.17-.56-1.626-.922-.251-.2-.34-.3-.825-.625-.737-.494-2.47-.453-2.47-.453l-1.27-.008c-2.472.035-3.377-1.885-3.624-2.289a3.158 3.158 0 00-.24-.346c-.114-.15-.736-.932-1.4-1.21 0 0 .638.532.574.824-.137-.002-.293.007-.478.012-2.492.07-3.009-.063-3.403-.139a8.566 8.566 0 01-1.697-.55s.072-.593-.183-1.086c0 0 2.056.7 3.693.502 0 0-2.641-.125-4.289-1.392 0 0 .407 1.34.086 1.903 0 0-.433 1.02-2.653.34 0 0-1.021-.384-1.815-.384 0 0-.597.024-.67.324 0 0-.038.144.118.213 0 0 .173.047.091.17a1.301 1.301 0 01-.507.455c-.62-.03-.573-.52-.573-.52.011-.175.069-.297.124-.416.39-.84 1.757-.963 1.757-.963 1.455-.14 2.981.197 2.981.197-1.091-.251-1.462-.436-1.774-.687-.42-.338-.813-1.476-.813-1.476-.168.558.04 1.122.18 1.411-.207-.318-.502-.587-.765-.79-.672-.52-1.647-.689-1.647-.689-.282-.046-.393-.329-.393-.329-.362-.642-.771-.672-.771-.672.202.267.18.631.18.631 0 .673-.896.895-.896.895-.67.643-.785.63-.916.639-.13.01-.227-.122-.227-.122-.043-.061.028-.117.028-.117.113-.068.22-.157.22-.157.652-.506.744-.765.692-1.118-.107-.706-.696-.654-.696-.654-.277 0-.414.204-.414.204-.107.123-.34.507-.34.507-.207.329-.391.28-.391.28-.227.015-.391-.18-.391-.18-.009-.007-.016-.016-.024-.024-.167-.174-.023-.385-.023-.385.277-.473.756-.519.82-.523l.285-.02c.541-.038.894-.536.894-.536-.228-.106-.634-.05-.634-.05-.396.026-.5.432-.501.432-.343.048-.326-.207-.253-.273.059-.066.262-.385 1.575-.575 0 0 .696-.133 1.933-.002.045.004.089.043.031.11-.156.176-.642.566-1.422.377 0 0-.014.302.836.452 0 0 .768.158 2.02 1.13 0 0-.607-1.085-1.657-1.415 0 0-.078-.049-.007-.117 0 0 .497-.43 1.374-.385 0 0 2.9.144 4.53 1.787 0 0-.056-.275-.305-.672 0 0-.05-.047-.021-.082 0 0 .021-.068.305-.013 0 0 1.035.164 3.438 1.013 0 0 1.8.61 2.783 1.002 1.476.592 5.175 2.04 7.512 3.288.416.222 2.154 1.051 2.154 1.051 1.299.78 2.494 1.342 2.494 1.342 1.177.525 2.033.284 2.033.284.273-.098.795-.372.998-.178.105.1.111.229.05.351m.293-.44c-.154-.346-.65-.261-.65-.261-.226.013-.512.242-.909.321-.854.17-1.508-.11-1.508-.11-1.26-.545-2.11-1.138-2.665-1.444-.555-.306-2.607-1.347-4.659-2.343 0 0-2.352-1.163-5.83-2.551 0 0-6.71-2.94-11.538-2.94 0 0-2.501-.03-3.348.898 0 0-.15.12-.077.267 0 0 .011.041-.021.067 0 0-.372.236-.675.575 0 0-.163.16-.032.4 0 0 .162.272.264.389.102.116.308.32.623.289.14-.013.143-.046.143-.046.145.14.397.149.397.149-.025-.087-.121-.259-.13-.359a.491.491 0 01.036-.215.94.94 0 01.251-.35c.09-.068.31-.138.476-.026.133.09.273.376.115.754 0 0-.18.299-.345.332l-.045.002c-.096-.002-.306-.114-.306-.114s-.009.024.015.127c.013.059.033.123.05.174l-.045.033s-.132.103-.074.252c0 0 .13.47.491.47.319.01.585-.282.585-.282.686-.713 1.652-.809 1.652-.809 1.07-.07 2.6.988 3.016 1.293-1.585-.017-2.225.57-2.225.57-.893.671-.545 1.48-.545 1.48.065.177.247.305.364.355a.831.831 0 00.437.06.648.648 0 00.25-.078c.121-.07.338-.207.443-.352a.484.484 0 00.094-.422s-.028-.137.1-.164c0 0 .42-.103 1.268.258 0 0 .921.519 2.117.622 0 0 1.359.133 1.687-.578 0 0 .781.308 1.924.435 0 0 1.114.111 2.92-.02.356-.026.774.002.774.002.578.067.945.357 1.09.585.593.928 1.299 2.749 4.191 2.677l1.31-.035c.795 0 1.443.007 2.079.335.278.144 1.011.847 1.463 1.085 1.339.87 2.112.465 2.112.465.455-.256.42-.712.31-.967-.138-.042 1.656.253 2.421-.717.182-.216.214-.414.159-.538"/></g></svg>