<svg xmlns="http://www.w3.org/2000/svg" width="32" height="32" viewBox="0 0 32 32"><g fill="none" fill-rule="evenodd"><path fill="#E6E7E8" fill-rule="nonzero" d="M15.936 28.92c-.258-.097-2.14-1.013-2.647-1.289-3.51-1.908-5.846-4.2-7.75-7.606-1.286-2.301-1.972-4.755-2.197-7.864-.05-.7-.025-3.011.042-3.826l.03-.356.511-.39C5.787 6.164 8 4.948 9.948 4.282c1.113-.382 2.448-.688 3.808-.873 1-.136 3.41-.147 4.382-.02 2.337.303 4.123.827 6.094 1.789 1.492.728 3.07 1.731 4.263 2.711l.162.134.05.912c.064 1.127.029 3.313-.066 4.152a18.698 18.698 0 01-.743 3.643c-.337 1.129-.544 1.652-1.042 2.636-.993 1.962-2.063 3.451-3.532 4.918-1.714 1.71-3.358 2.817-6.172 4.15-1.044.496-1.114.524-1.216.485zm-9.02-9.006c-.05-.08-.232-.43-.404-.774-.952-1.904-1.521-3.861-1.766-6.068-.085-.77-.132-3.136-.076-3.87l.039-.511-.125-.174c-.155-.215-.155-.232.001-.263.07-.014.225-.102.345-.196.581-.453 1.75-1.22 2.372-1.557 1.091-.59 1.175-.62 3.563-1.282a31.201 31.201 0 012.38-.578c.404-.077.589-.154.367-.154-.064 0-.13-.022-.147-.048-.046-.075.107-.16.514-.287.208-.065.396-.135.418-.156.08-.078-.214-.098-.724-.05-2.617.25-5.478 1.325-7.99 3.004l-1.193.797-.525.352.18.166c.166.153.178.18.148.319-.053.235-.032 2.878.027 3.598.129 1.556.359 2.732.835 4.27.424 1.369 1.109 2.785 1.682 3.479.161.196.203.187.078-.017zM26.201 18.9c.599-1.188.881-1.918 1.126-2.914.125-.507.221-1.233.156-1.173-.017.016-.118.366-.226.779-.426 1.64-.743 2.523-1.342 3.73-.182.368-.29.618-.24.557.049-.062.286-.502.526-.979zM8.685 10.316c0-.023.038-.063.085-.088a.716.716 0 00.188-.213c.057-.092.256-.338.442-.546.95-1.061 1.843-1.736 3.006-2.274.525-.243.856-.359 1.573-.552.33-.089.62-.18.643-.202.023-.023.093-.043.155-.044.109-.003.107-.006-.034-.077-.14-.07-.174-.068-.623.025-1.676.346-3.32 1.252-4.488 2.473-.438.459-.939 1.105-1.09 1.407a2.17 2.17 0 01-.164.278c-.042.053-.046.078-.011.078.028 0 .051.033.051.074 0 .043.055-.002.134-.111a.885.885 0 00.133-.228z"/><path fill="#ACAFB2" fill-rule="nonzero" d="M15.269 28.537c-1.688-.796-2.734-1.368-3.76-2.054-2.607-1.745-4.585-3.977-6.132-6.917-.825-1.57-1.437-3.472-1.74-5.407-.214-1.355-.26-2.177-.227-4.045.016-.93.04-1.777.055-1.882.024-.18.053-.215.454-.534 2.044-1.627 4.703-2.995 7.098-3.652a18.177 18.177 0 015.008-.676c1.644 0 3.025.173 4.693.59 2.597.649 5.425 2.122 7.836 4.083.138.113.169 3.522.043 4.807-.144 1.468-.344 2.47-.784 3.936-.507 1.687-1.12 2.96-2.243 4.65-.765 1.152-1.337 1.853-2.268 2.782-1.533 1.531-3.08 2.615-5.359 3.754-.986.493-1.85.893-1.926.891-.032 0-.369-.147-.748-.326zm1.879-.663c1.2-.607 1.673-.884 1.942-1.137l1.472-.804 2.46-1.797 3.291-4.452 1.733-4.843.315-3.944-.181-2.616-2.59-1.952-3.184-1.508c-.894-.409-2.821-.9-4.38-1.115-.8-.11-2.83-.136-3.722-.047-1.85.185-3.574.598-4.96 1.19-1.684.717-2.603 1.22-4.284 2.348-1.154.773-1.203.811-1.232.971-.017.092-.044.687-.06 1.323-.1 3.755.532 6.96 1.914 9.718 2.179 4.17 5.83 7.587 10.309 9.164.126.002.406-.12 1.157-.499z"/><path fill="#01336B" fill-rule="nonzero" d="M15.224 26.769c-2.368-1.23-3.774-2.21-5.163-3.596-1.284-1.283-2.127-2.41-3.018-4.034-1.519-2.77-2.104-5.85-1.842-9.707l.028-.415.427-.322c1.979-1.493 4.07-2.55 6.076-3.074 1.531-.4 2.593-.532 4.249-.532 1.526 0 2.35.09 3.803.416 1.819.408 3.792 1.283 5.56 2.467.73.487 1.424 1.015 1.465 1.112.022.053.042.917.044 1.92.004 1.664-.005 1.888-.097 2.558-.376 2.73-1.134 4.755-2.618 6.984-1.488 2.236-3.41 4.021-5.822 5.406-.473.271-2.134 1.157-2.247 1.197-.036.013-.417-.158-.845-.38z"/><path fill="#E6E7E8" fill-rule="nonzero" d="M16.994 24.058a9.21 9.21 0 004.47-1.744c.445-.33 1.235-1.092 1.603-1.546a9.42 9.42 0 001.885-3.981c.115-.544.123-.646.124-1.713 0-.988-.011-1.2-.097-1.646-.515-2.686-2.127-4.937-4.512-6.303-.836-.479-1.914-.858-2.952-1.04-.692-.122-2.052-.146-2.713-.049-2.25.333-4.235 1.404-5.66 3.055-2.036 2.357-2.719 5.475-1.857 8.475.7 2.436 2.495 4.55 4.803 5.655.837.4 1.991.731 2.914.835.489.055 1.497.056 1.992.002zm-2.303-1.131c-2.756-.465-5.15-2.377-6.142-4.907-.382-.974-.529-1.683-.563-2.717-.028-.849.03-1.451.21-2.164.779-3.096 3.17-5.387 6.243-5.98.683-.132.73-.127.814.071.186.446.357 1.37.527 2.861.072.136-.018 1.166.28 1.04.056-.035.085-.14.11-.399.18-1.86.47-3.401.681-3.618.055-.057.12-.056.52.009 1.639.264 3.133 1.04 4.348 2.257.637.638 1.04 1.18 1.421 1.917.692 1.333.978 2.577.924 4.01a7.2 7.2 0 01-.278 1.848c-.77 2.827-3.11 5.045-5.985 5.674-.28.061-.603.124-.72.14l-.213.03-.07-.17c-.213-.507-.483-2-.595-3.284a8.688 8.688 0 00-.072-.656c-.023-.08-.17-.108-.212-.041-.013.02-.074.491-.137 1.046-.188 1.664-.444 2.955-.608 3.059-.072.045-.059.046-.483-.026z"/><path fill="#8D9093" fill-rule="nonzero" d="M15.269 23.5a11.187 11.187 0 00-.6-.059 6.106 6.106 0 01-1.657-.394c-.254-.098-.652-.319-.625-.346.01-.01.176.045.37.121.86.336 1.18.403 2.067.436.643.023.861.047.998.108.133.06.159.088.11.119-.06.038-.52.049-.663.015zm.801-.017c-.056-.035-.064-.256-.053-1.545.007-.827.06-1.682.057-1.904-.006-.47.013-1.134-.053-1.134.042-.013.093.036.1.14.032.505.059 2.733.21 3.633.093.558.226.593.855.624.772-.032 1.195-.123 2.016-.433.268-.1.494-.174.504-.164.039.038-.406.262-.8.402a7.04 7.04 0 01-1.835.377c-.701.058-.914.06-1 .004zm-.049-12.413c.067 0 .102-.758.054-1.156-.072-.593-.085-3.319-.017-3.387.096-.096 1.172.02 1.902.204.757.19 1.176.349 1.846.697.491.254.963.56.924.598-.01.01-.297-.121-.638-.292-.804-.402-1.205-.545-2.008-.712a30.273 30.273 0 01-.999-.224c-.439-.112-.55-.11-.684.015-.097.09-.115.158-.154.59-.032.362-.029.578.013.839-.01.675.142 1.061-.239 2.829z"/><path fill="#5F6269" fill-rule="nonzero" d="M15.224 28.448c-1.636-.777-2.585-1.292-3.558-1.93-2.368-1.551-4.201-3.51-5.735-6.128-1.419-2.422-2.186-4.984-2.41-8.051-.054-.745-.027-3.684.038-4.07.066-.39.094-.098.054.558-.245 3.992.466 7.834 1.97 10.651 1.41 2.644 3.115 4.634 5.38 6.285.91.663 2.496 1.593 4.173 2.445.719.366.892.438 1.012.418.08-.012.4-.139.712-.28 1.208-.549 2.25-1.13 2.662-1.488.112-.096.614-.467 1.116-.824a28.92 28.92 0 001.435-1.086c2.501-2.096 4.538-5.142 5.472-8.183.586-1.907.893-4.144.89-6.473-.001-.97-.056-2.022-.112-2.17-.023-.06-.005-.076.082-.076.1 0 .115.022.139.211.067.528.108 2.494.07 3.373-.088 1.99-.303 3.298-.828 5.042-.357 1.187-.553 1.686-1.042 2.65-1.066 2.105-2.5 4.035-3.997 5.38-1.457 1.31-2.679 2.12-4.79 3.176-.806.404-1.929.945-1.95.941l-.783-.37zm-.032-.783c-1.18-.615-2.738-1.612-3.242-2.075-.197-.182-.195-.18.495.25.666.416 1.547.899 2.568 1.407l.967.482.612-.304c2.034-1.01 3.316-1.802 4.534-2.802 1.886-1.549 3.311-3.282 4.48-5.449 1.279-2.372 1.894-5.016 1.896-8.148 0-.85-.08-2.324-.136-2.474-.061-.164-1.84-1.404-2.796-1.95-1.018-.58-2.288-1.147-3.606-1.61a10.564 10.564 0 01-.712-.267c-.073-.074 1.083.199 1.738.41 1.104.356 2.321.922 3.332 1.55.461.287 1.782 1.248 2.172 1.581.094.08.107.145.15.701.06.801.018 3.195-.07 3.976-.173 1.536-.59 3.318-1.103 4.711-.265.718-.979 2.19-1.392 2.87a33.06 33.06 0 01-1.576 2.269c-.674.85-2.361 2.427-3.084 2.882-.534.336-2.796 1.501-3.737 1.924-.286.129-.58.276-.651.327a.886.886 0 01-.147.093c-.008 0-.32-.16-.692-.354zm.922-4.227c-.057-.036-.064-.2-.052-1.122.016-1.191.091-1.626.098-.57.006.85.057 1.381.14 1.443.092.067.134.248.058.248a.41.41 0 00-.118.022.165.165 0 01-.126-.02zm-.823-.045c-.036-.058.333-.058.423 0 .048.03.001.043-.164.044-.128 0-.244-.02-.259-.044zM9.708 9.435c0-.069.5-.588.854-.887.76-.645 1.818-1.242 2.691-1.52.86-.273 2.46-.568 2.46-.454 0 .027-.007.048-.016.048-.152 0-.933.18-1.54.356a10.487 10.487 0 00-3.292 1.654c-.666.496-1.157.836-1.157.803zm6.395-.678c-.05-.337-.083-1.926-.043-2.068l.039-.134.486.016a7.441 7.441 0 011.774.3c.378.109.958.345.958.39 0 .01-.095-.01-.211-.045-.479-.145-2.198-.551-2.445-.577-.235-.025-.27-.018-.297.055-.016.046-.06.14-.098.208-.054.096-.077.347-.102 1.09-.02.616-.042.893-.061.765zM4.909 13.285c-.09-.72-.132-1.279-.162-2.125-.03-.892.033-2.386.106-2.458.03-.03.076.003.14.105.077.123.09.195.07.395-.154 1.518-.187 2.655-.11 3.756.026.316.069 1.18-.044.327zm22.723-5.673c-.454-.305-.837-.599-.84-.645-.004-.071.103-.025.41.178.28.183.896.717.834.721-.012 0-.194-.114-.404-.254z"/><path fill="#8D9093" fill-rule="nonzero" d="M14.998 28.382c-2.484-1.184-3.927-2.095-5.448-3.436-2.23-1.97-4.143-4.828-5.105-7.632-.81-2.365-1.136-4.894-1.011-7.867.034-.827.072-1.317.106-1.364.081-.117.757-.653 1.332-1.057a21.307 21.307 0 014.617-2.44 18.81 18.81 0 0112.008-.364c2.1.634 4.773 2.047 6.517 3.445.22.176.433.332.474.347.114.04.149.668.148 2.656-.001 1.879-.036 2.355-.27 3.737-.139.825-.266 1.35-.577 2.383-.502 1.665-1.152 3.012-2.257 4.668-1.828 2.743-3.964 4.612-7.171 6.276-.971.504-2.23 1.086-2.35 1.086-.053 0-.51-.197-1.013-.438zm1.914-.163c.716-.334 1.138-.566 1.293-.71.061-.056.401-.278.756-.493 1.943-1.174 3.215-2.149 4.36-3.339 1.181-1.229 2.077-2.457 2.948-4.043 1.416-2.58 2.086-5.58 2.097-9.386.002-.71-.013-1.46-.033-1.67-.036-.37-.04-.381-.189-.467-3.288-2.444-6.076-3.906-10.095-4.499-.878-.114-3.246-.115-4.115-.002-1.872.245-3.484.656-4.603 1.175-2.074.961-2.66 1.28-4.071 2.214-.526.349-1.08.708-1.229.798l-.272.165-.027.298c-.066.712-.084 2.774-.033 3.567.246 3.788 1.144 6.562 3.05 9.43a16.63 16.63 0 002.2 2.674c1.636 1.638 3.088 2.626 6.019 4.094.947.474 1.088.532 1.229.502.057-.012.379-.15.715-.308zm-1.754-.506c-1.3-.68-2.507-1.457-3.51-2.258-.573-.458-1.584-1.38-1.584-1.446 0-.025.085.028.19.117.862.737 2.124 1.62 3.147 2.2.751.427 2.465 1.293 2.56 1.293.094 0 1.866-.887 2.555-1.28 3.125-1.779 5.351-4.053 7.083-7.239.743-1.366 1.311-3.03 1.588-4.648.195-1.143.315-3.215.25-4.326-.057-1.048.208-1.328-.658-1.982-2.51-1.835-4.632-2.832-7.5-3.522a16.334 16.334 0 01-.868-.224c-.161-.065.27-.052.827.025 2.439.34 4.43 1.09 6.463 2.436.58.385 1.712 1.241 1.89 1.432l.111.118v1.943c0 2.134-.03 2.529-.291 3.949-.418 2.273-1.138 4.27-2.182 6.05-.277.473-1.027 1.58-1.547 2.284-.622.842-2.247 2.444-3.088 3.044-.322.23-2.74 1.463-3.805 1.94-.35.157-.657.322-.68.365-.076.141-.269.086-.951-.27zM5.038 12.472l.022.521c.073 1.755.595 3.824 1.39 5.515.424.899 1.043 1.93 1.758 2.928l.572.799c.132.183.617.713 1.079 1.179.462.465.783.795.712.733-1.727-1.524-3.005-3.176-3.974-5.136-1.005-2.035-1.495-3.684-1.768-5.96-.102-.849-.12-4.202-.024-4.37.2-.35 2.35-1.784 3.435-2.291.434-.203 1.265-.525 1.346-.522.03.001-.186.118-.48.26-.998.478-1.824.975-2.935 1.764-.22.156-.575.39-.79.518-.213.128-.388.255-.388.28l.046 3.782zm5.732 11.822c-.055-.07-.054-.072.017-.017.074.058.098.094.061.094-.01 0-.044-.034-.078-.077z"/><path fill="#101A4B" fill-rule="nonzero" d="M15.135 26.68c-3.1-1.605-5.06-3.19-6.73-5.445-1.526-2.06-2.477-4.204-2.94-6.628-.234-1.224-.272-1.735-.27-3.58.001-.943.017-1.783.034-1.87.028-.133.102-.205.532-.518C7.237 7.567 8.35 6.922 9.78 6.31c2.018-.865 4.706-1.328 6.962-1.2 3.586.206 6.37 1.241 9.493 3.531.537.393.56.415.525.504-.02.05-.032.051-.074.001a2.072 2.072 0 00-.25-.202l-.585-.425a10.212 10.212 0 00-.556-.383 13.792 13.792 0 01-.415-.263c-.318-.21-.612-.367-1.58-.844-1.229-.605-1.502-.733-1.646-.767a8.119 8.119 0 01-.534-.173c-1.49-.526-3.307-.817-5.094-.816-2.157.002-4.182.39-6.045 1.158-.515.212-1.671.789-2.152 1.073-.879.52-2.167 1.42-2.316 1.622-.114.152-.156.687-.16 2.017-.008 2.487.385 4.571 1.244 6.607.946 2.24 2.89 4.791 4.928 6.469.719.591.786.643 1.032.799.117.073.367.238.557.367.19.128.372.233.405.233.033 0 .06.02.06.045 0 .025.088.09.194.145.472.242.735.39.962.54.134.088.278.16.32.16.042 0 .088.02.103.043a.785.785 0 00.214.132c.103.05.217.108.254.13.037.022.162.084.278.138.117.053.2.116.187.138-.014.023-.04.041-.056.04-.017 0-.421-.202-.899-.449zm.134-2.334l-.6-.093c-.27-.041-.544-.101-.61-.134a.668.668 0 00-.245-.06c-.17 0-1.092-.32-1.518-.527l-.252-.12a6.753 6.753 0 01-.46-.251 2.895 2.895 0 00-.306-.168c-.042 0-.548-.375-.736-.545-.102-.092-.2-.167-.218-.167a.564.564 0 01-.163-.122c-.612-.581-.898-.871-.877-.892.014-.014.17.118.347.292 2.4 2.36 6.045 3.184 9.285 2.101 1.948-.65 3.52-1.86 4.68-3.603 1.577-2.366 1.962-5.182 1.076-7.874-.753-2.29-2.477-4.265-4.688-5.37-.159-.08-.264-.145-.234-.145.079-.001 1.155.52 1.19.575.015.026.059.047.097.047.038 0 .142.055.23.123.09.068.22.153.292.19.36.182 1.602 1.378 2.054 1.978 1.39 1.848 2.006 3.99 1.819 6.339-.034.428-.083.868-.11.978-.026.11-.069.3-.096.423-.105.475-.476 1.508-.671 1.869-.562 1.038-.902 1.535-1.473 2.152-1 1.08-2.208 1.912-3.476 2.394-1.266.48-1.864.594-3.248.615-.538.007-1.028.006-1.09-.005zm1.532-1.553c-.242-.58-.596-2.745-.598-3.66 0-.31.072-.368.204-.166.087.132.196.67.196.967 0 .115.02.296.043.4.024.104.086.516.137.915.096.742.266 1.442.382 1.571.058.064.053.076-.037.1-.202.053-.261.03-.327-.127zm-2.039.074c-.012-.02.037-.028.109-.017.072.01.131.027.131.036 0 .034-.218.017-.24-.019zm-.237-.035c.014-.014.053-.016.085-.003.035.014.025.025-.027.027-.047.002-.073-.009-.058-.024zm-.546-.112a7.837 7.837 0 01-1.49-.545c-4.035-1.933-5.667-6.797-3.622-10.793a7.932 7.932 0 015.485-4.183c.576-.117.844-.107.864.035.011.075-.003.093-.056.072-.081-.03-.85.095-1.115.183a39.61 39.61 0 01-.489.157c-.433.137-1.396.611-1.836.905-1.732 1.157-2.9 2.905-3.348 5.01-.123.582-.167 1.736-.09 2.394.103.894.35 1.727.743 2.517.231.463.383.71.841 1.37.185.267.914 1.011 1.313 1.341.273.225.95.697 1.001.697.028 0 .086.04.13.09.045.048.11.088.145.088a.46.46 0 01.185.086c.067.048.18.1.252.118a.619.619 0 01.176.067c.057.044.573.225.933.327.147.042.307.093.356.114.157.068-.03.043-.378-.05zm3.755-5.084c-.155-.068-.632-.495-.594-.533.013-.013.101.039.194.116a.92.92 0 00.824.195c.459-.119.727-.465.895-1.157.054-.222.11-.42.127-.437.016-.018.075-.001.13.038.09.063.1.103.091.365-.006.162-.037.345-.07.407a.557.557 0 00-.058.211c0 .054-.04.12-.088.145-.047.026-.099.111-.114.19-.029.153-.27.363-.53.464-.185.071-.64.069-.807-.004zm-7.385-.026c-.73-.017-.956-.037-1.016-.087-.074-.061-.074-.066.004-.097.045-.018.545-.034 1.111-.035.808-.003 1.04-.017 1.079-.064.027-.033.106-.333.174-.667.068-.333.145-.627.17-.653.028-.027.18-.042.355-.034l.307.013.013.138c.013.128.006.136-.117.118-.217-.032-.3.047-.38.364-.04.158-.072.324-.072.368 0 .143-.09.404-.172.506-.11.137-.333.157-1.456.13zm2.407.014c-.133-.035-.255-.156-.206-.205.023-.022.489-.045 1.036-.05.547-.004 1.02-.023 1.05-.042.03-.018.055-.104.055-.19 0-.154-.003-.156-.167-.142l-.167.014-.01-1.668c-.007-1.087.005-1.642.033-1.595.023.04.11.275.193.521.137.407.146.47.106.684-.025.135-.033.598-.018 1.097l.025.863.136.14c.18.186.186.39.016.502-.105.069-.244.08-1.057.087-.515.004-.977-.003-1.025-.016zm3.214-.018c-.112-.065-.096-.13.03-.13.06 0 .12-.018.133-.04.018-.028.073-3.63.07-4.55 0-.055.045-.079.167-.089.152-.013.168-.026.18-.158.015-.148.038-.169.125-.11a.527.527 0 01.15.27c0 .023-.07.126-.155.229l-.155.186.02 1.274c.025 1.503.026 1.27-.012 2.225-.03.739-.035.775-.136.856a.387.387 0 01-.417.037zm3.402-.04c-.079-.048-.144-.109-.144-.133 0-.03.352-.045.996-.045 1.07 0 1.119-.01 1.087-.231-.01-.075-.048-.107-.137-.117-.085-.01-.122-.04-.122-.097 0-.072.086-.53.156-.834.022-.094.047-.1.379-.1h.355v.154c0 .146-.008.153-.124.13-.192-.038-.313.091-.368.393-.042.234-.038.266.053.389.084.114.093.158.057.3-.064.26-.14.278-1.153.279-.81 0-.903-.008-1.035-.088zm2.659-.008l-.156-.097.111-.032c.061-.018.374-.035.696-.037.63-.005.639-.009.639-.253 0-.14.06-.136.174.01.122.155.117.23-.027.38-.119.125-.122.125-.7.125-.52 0-.598-.01-.737-.096zm-11.857-.582c-.012-.03-.017-.966-.01-2.08l.011-2.024.17-.014c.132-.01.177-.038.21-.125.024-.06.063-.098.087-.083.084.052.045.21-.09.363l-.134.153.006 1.344c.003.74.02 1.595.038 1.9.022.384.017.565-.016.588-.077.052-.25.038-.272-.022zm3.372-.002c-.022-.03-.113-.394-.202-.81l-.428-1.98c-.146-.672-.28-1.33-.298-1.461-.03-.23-.028-.237.058-.191a.378.378 0 01.138.172c.06.152.343 1.276.452 1.792.175.835.487 2.063.584 2.3.032.079.049.151.038.16-.06.054-.306.066-.342.018zm6.681.002c-.012-.03-.016-.976-.01-2.102l.012-2.046.147-.002c.15-.001.23-.072.23-.205.001-.11.126-.137.178-.039.086.16.052.334-.09.47l-.136.13.014 1.9c.013 1.869.011 1.901-.076 1.925-.147.04-.246.028-.269-.031zm2.675-.022c-.013-.043-.216-.969-.451-2.058-.437-2.019-.518-2.49-.428-2.49.076 0 .223.177.273.33.05.152.204.854.267 1.214.022.128.08.388.128.578.048.19.11.466.14.613.028.147.082.397.12.556.068.29.169.732.234 1.023.02.086.05.191.068.234.028.067.007.078-.147.078-.132 0-.186-.02-.204-.078zm-5.125-.01c-.128-.052-.273-.245-.33-.44-.027-.09-.06-.572-.074-1.074-.027-.964.027-1.776.142-2.163.114-.385.39-.541.684-.385.16.085.314.298.256.355-.019.02-.054 0-.078-.043-.059-.104-.284-.1-.392.01-.202.2-.29.99-.258 2.297.025 1.034.045 1.14.25 1.326.052.047.094.102.094.122 0 .048-.17.045-.294-.006zm3.497-1.386c-.002-.123.29-1.507.317-1.507.016 0 .062.225.103.5.098.661.096.62.032.736-.063.114-.028.206.064.17.036-.014.063.004.063.041 0 .042-.045.066-.123.066a2.26 2.26 0 00-.289.028c-.125.021-.167.012-.167-.034zm-9.388-.028c-.004-.09.294-1.479.318-1.479.015 0 .052.177.084.394.042.3.044.43.005.547a1.638 1.638 0 00-.06.363l-.009.209h-.168c-.092 0-.169-.015-.17-.034zm3.434-1.73c-.229-.559-.427-1.084-.44-1.167l-.025-.151.133.098c.098.072.203.257.391.685.142.322.278.6.304.616.046.03.1.7.07.854-.01.044-.204-.377-.433-.935zm3.53.323c-.049-.035-.079-.071-.067-.08l.111-.063c.082-.045.091-.108.111-.742.013-.38.038-.707.056-.726.018-.018.034.027.034.1 0 .166.07.238.236.238.122 0 .128.008.1.145a7.82 7.82 0 00-.063.535c-.026.281-.06.424-.126.511-.104.141-.266.175-.392.082zm-5.04-1.148c-.073-.073-.067-.125.013-.125.037 0 .067.04.067.089 0 .104-.008.107-.08.036zm1.824 0c-.079-.079-.066-.125.035-.125.06 0 .09.03.09.089 0 .1-.047.114-.125.036zm2.795-.505c-.171-.12-.15-.137.073-.056.081.03.148.08.148.111 0 .081-.044.07-.221-.055zm-2.312-1.174c-.052-.033-.053-.053-.008-.108.033-.04.082-.362.119-.781.137-1.568.47-3.236.658-3.31.033-.012.228.007.434.043 2.028.351 3.706 1.345 4.985 2.952.087.11.182.25.21.311l.053.112-.08-.104a9.915 9.915 0 00-.28-.334c-.11-.126-.24-.28-.289-.341-.209-.261-.96-.875-1.51-1.235-1.096-.716-3.086-1.378-3.315-1.102-.105.127-.258.757-.356 1.47a23.938 23.938 0 00-.181 1.534c-.06.692-.071.737-.21.846-.126.1-.141.103-.23.047z"/><path fill="#FFF" fill-rule="nonzero" d="M16.148 15.11l.012-2.3.166-.013c.15-.012.167-.027.18-.155l.014-.142-.465-.014c-.608-.018-.616-.016-.6.156.012.124.033.144.17.164l.156.022.011 1.037c.007.57-.004 1.027-.025 1.015-.02-.013-.253-.555-.519-1.206l-.482-1.182-.583.012-.582.012v.134c0 .122.014.134.167.147l.167.014-.011 2.1-.012 2.098h-.4l-.46-2.135c-.559-2.586-.526-2.454-.612-2.486-.184-.071-.21.005-.612 1.848-.405 1.86-.52 2.229-.777 2.5a.922.922 0 01-.674.296h-.225l.012-2.102.011-2.102.156-.022c.138-.02.156-.038.156-.156v-.134h-1.38l-.014.129c-.017.146.047.203.226.204l.122.001v4.182h-.107c-.184 0-.249.047-.249.18 0 .069.015.135.034.146.018.011.573.007 1.232-.008l1.199-.03.135-.666.136-.668.366-.013c.35-.012.367-.008.387.09a10 10 0 01.16.882c0 .059-.04.085-.145.095-.128.012-.145.03-.145.147v.134l1.068.012c.926.01 1.074.002 1.118-.058.092-.125.023-.237-.155-.252l-.162-.014-.012-1.643c-.006-.904.004-1.659.024-1.679.02-.02.343.73.719 1.666.926 2.306.824 2.087.97 2.07l.122-.013.012-2.3zm-4.305.465c-.002-.107.332-1.613.357-1.613.036 0 .348 1.562.322 1.613-.009.018-.166.033-.348.033-.182 0-.33-.015-.331-.033zm6.376 1.81c.382-.107.673-.516.813-1.143.085-.382.067-.456-.111-.456-.162 0-.164.003-.273.428-.118.463-.266.707-.468.774-.294.097-.557-.034-.701-.35-.088-.19-.096-.296-.11-1.364-.023-1.638.075-2.238.39-2.4.413-.215.763.084.887.755.054.293.09.349.21.326.075-.014.086-.08.109-.705.014-.379.017-.714.006-.745-.034-.1-.23-.064-.283.051l-.048.106-.215-.133c-.195-.121-.244-.133-.506-.116-.232.015-.328.045-.476.15-.521.368-.884 1.325-.884 2.33 0 1.16.458 2.201 1.09 2.477.164.072.347.076.57.014zm5.01-.062c.1-.12.037-.223-.152-.247l-.176-.022-.501-2.313a935.17 935.17 0 01-.502-2.325.408.408 0 00-.133-.01c-.155 0-.126-.09-.421 1.29l-.46 2.135-.255 1.179-.212.013-.211.014.011-2.105.012-2.104.155-.022c.139-.02.156-.037.156-.156v-.133h-1.379v.133c0 .119.017.136.156.156l.155.022v4.182l-.155.022c-.138.02-.158.039-.17.168l-.014.145 1.06-.012 1.059-.012.014-.123c.012-.106-.005-.126-.122-.15-.075-.015-.136-.04-.135-.055.001-.015.047-.248.102-.517l.1-.49.364-.012c.348-.013.365-.009.385.089.08.375.16.813.16.885 0 .06-.032.084-.11.084a.184.184 0 00-.156.086c-.06.111-.059.117.024.2.099.098 1.27.103 1.352.005zm-1.988-1.815l.167-.823c.08-.397.16-.723.178-.723.018 0 .098.346.178.768.08.422.155.792.166.822.016.042-.07.056-.345.056-.356 0-.365-.003-.344-.1z"/><path fill="#8D9093" fill-rule="nonzero" d="M23.229 9.803c.165.28.209.368.451.912l.334.746c.06.13.107.245.107.256 0 .012.082.214.183.449.232.543.338 1.061.397 1.94.079 1.17-.054 2.396-.366 3.37-.139.431-.466 1.187-.5 1.152-.01-.01.07-.264.179-.564.399-1.099.552-1.942.552-3.035 0-1.147-.125-2.006-.425-2.924-.214-.656-.557-1.314-1.11-2.13-.923-1.456-.879-1.667.198-.172z"/><path d="M3 3h25.967v25.967H3z"/></g></svg>