<svg xmlns="http://www.w3.org/2000/svg" width="32" height="32" viewBox="0 0 32 32"><g fill="#E20714" fill-rule="evenodd"><path d="M15.993 7.34c-6.988 0-12.653 3.662-12.653 8.18 0 4.517 5.665 8.18 12.653 8.18s12.653-3.663 12.653-8.18c0-4.518-5.665-8.18-12.653-8.18m0-.34c7.176 0 12.993 3.814 12.993 8.52 0 4.705-5.817 8.52-12.993 8.52S3 20.225 3 15.52C3 10.814 8.817 7 15.993 7"/><path d="M15.993 8.638c-5.1 0-9.337 2.413-10.176 5.585l-.131.07c-.285.162-1.193.56-1.193 1.169 0 .608 1.115 1.09 1.115 1.09l.251.13c.932 3.097 5.114 5.434 10.134 5.434 5.09 0 9.319-2.403 10.17-5.565.309-.17.529-.295.603-.343.402-.26.687-.454.687-.805 0-.35-.726-.753-.726-.753l-.521-.279c-.745-3.244-5.033-5.733-10.213-5.733m.006-.675c6.434 0 11.649 3.378 11.649 7.544 0 4.166-5.215 7.543-11.649 7.543-6.433 0-11.648-3.377-11.648-7.543s5.215-7.544 11.648-7.544"/><path d="M17.885 10.028c-.155-.065-.855-.507-1.944-.507-1.09 0-2.023.52-2.023.52s-7.947 4.09-8.232 4.252c-.285.162-1.193.56-1.193 1.169 0 .608 1.115 1.09 1.115 1.09s8.505 4.382 8.738 4.46c.234.078.882.338 1.608.35.726.014 1.66-.376 1.66-.376s8.75-4.518 9.152-4.778c.402-.26.687-.454.687-.805 0-.35-.726-.753-.726-.753s-8.686-4.557-8.842-4.622zM5.3 16.55a3.102 3.102 0 01-.505-.34c-.22-.186-.439-.444-.439-.75 0-.069.01-.138.029-.205.073-.261.275-.471.485-.633a3.51 3.51 0 01.428-.276c.106-.06 8.669-4.485 8.725-4.512.148-.068.3-.13.453-.183a4.466 4.466 0 011.465-.268 4.045 4.045 0 011.788.414c.045.022 9.172 4.796 9.223 4.829.111.073.22.153.32.242.148.132.318.323.318.534 0 .454-.412.702-.75.92-.1.065-.21.125-.314.183-.191.108-.384.214-.576.32-.532.292-8.353 4.314-8.388 4.327a6.438 6.438 0 01-.269.096c-.27.089-.551.164-.832.21-.168.027-.34.044-.51.04a4.217 4.217 0 01-1.021-.155 6.362 6.362 0 01-.38-.116l-.247-.086c-.048-.016-.105-.046-.15-.068l-.3-.148a3469.9 3469.9 0 01-8.304-4.25 3.072 3.072 0 01-.249-.125z"/><path d="M6.851 16.468c2.682.824 1.973.586 2.88.788.906.202 2.556.537 4.827-.215s4.06-1.612 5.848-1.63c1.788-.017 3.147.162 3.916.448a25.38 25.38 0 011.471.607l-.277.149c-.512.273-7.968 4.006-7.968 4.006a4.853 4.853 0 01-.351.124 5.24 5.24 0 01-.782.191 2.703 2.703 0 01-.46.036 4.03 4.03 0 01-.951-.14 6.183 6.183 0 01-.357-.107l-.239-.08-.042-.018a27.611 27.611 0 01-.373-.177 4888.4 4888.4 0 01-8.226-4.09 3.518 3.518 0 01-.458-.285 1.794 1.794 0 01-.25-.222c.315.138.86.329 1.792.615zm11.794-5.68c-.162.073-8.736 4.265-8.736 4.265s1.68.18 2.95.18c1.27 0 2.7-.466 4.65-.806 1.949-.34 3.701-.197 5.15-.018 1.397.172 4.002 1.358 4.186 1.442.118-.083.246-.19.292-.33a.367.367 0 00.02-.117c0-.246-.632-.594-.829-.696 0 0-7.345-3.754-7.683-3.92z"/></g></svg>