<svg xmlns="http://www.w3.org/2000/svg" width="32" height="32" viewBox="0 0 32 32"><g fill="none" fill-rule="evenodd"><path d="M0 7h31.957v17.444H0z"/><path fill="#FFFAC2" d="M31.17 15.81c0 4.449-6.881 8.056-15.365 8.056C7.317 23.866.438 20.26.438 15.81s6.88-8.057 15.367-8.057c8.484 0 15.365 3.608 15.365 8.057z"/><path fill="#006351" d="M30.534 15.803c0 4.087-6.597 7.4-14.735 7.4-8.138 0-14.735-3.313-14.735-7.4 0-4.086 6.597-7.399 14.735-7.399 8.138 0 14.735 3.313 14.735 7.4zM15.799 8.987c-7.819 0-14.158 3.052-14.158 6.816 0 3.765 6.34 6.817 14.158 6.817s14.157-3.052 14.157-6.817c0-3.764-6.338-6.816-14.157-6.816z"/><path fill="#006351" d="M29.59 15.803c0 3.563-6.175 6.45-13.791 6.45-7.617 0-13.791-2.887-13.791-6.45 0-3.562 6.174-6.45 13.79-6.45 7.617 0 13.792 2.888 13.792 6.45zm-4.953-3.02h-2.365l-.288.824h1.531l-1.746.605-.115.334 2.686-.881.297-.881zM9.557 14.23h-.964s.893-2.38.965-2.56c.127-.319.204-.297.204-.297H8.43c.164.08.019.39.019.39s-1.066 2.968-1.14 3.116c-.075.149-.13.167-.13.167h2.304l.323-.879c-.028.084-.25.063-.25.063zm4.042.813h1.086s-.074-.11-.028-.23c.064-.168.64-1.735.64-1.735l.25 1.965h.984l1.289-3.496s.053-.164.124-.164L16.9 11.38s.03.12-.008.213c-.037.093-.63 1.68-.63 1.68l-.232-1.893h-1.122s.058.093.02.195l-1.19 3.265s-.073.203-.139.203zm4.963-3.662s.093.149-.028.492c-.12.343-1.067 2.894-1.067 2.894s-.074.24-.176.286l1.484-.001s1.8.066 2.356-1.825c0 0 .705-1.864-1.336-1.846h-1.233zm.158 2.826s.004-.002.171-.002c.252 0 .72-.055 1.034-.82.517-1.258-.204-1.215-.204-1.215h-.278l-.723 2.037zm-13.2 3.796h2.365l.288-.823h-1.53l1.745-.605.116-.334-2.687.882-.297.88zm4.145 1.52c-.037 0-.037-.12-.037-.12l.435-1.155.579 1.138c.037.074.018.136.018.136h1.297c-.124 0-.252-.235-.252-.235l-.645-1.158c.903 0 1.191-.895 1.191-.895.446-1.422-1.053-1.385-1.053-1.385H9.666c.111.124.024.384.024.384l-1.026 2.932a1.14 1.14 0 01-.21.357h1.212zm.919-2.829l-.252.739h.235s.458.04.627-.324c0 0 .198-.417-.355-.417l-.255.002zm12.496 2.842c-.093.002-.028-.225-.028-.225l.388-1.05L24 19.4c.037.074.018.136.018.136h1.343c-.124 0-.26-.235-.26-.235l-.645-1.158c.903 0 1.174-.863 1.174-.863.475-1.49-1.036-1.417-1.036-1.417h-1.52c.11.124.024.383.024.383s-.992 2.733-1.066 2.943a.956.956 0 01-.217.345l1.265.002zm.884-2.09s.454.034.593-.322c.164-.42-.245-.408-.245-.408h-.336l-.247.73h.235zm-10.11 2.168c1.339 0 2.135-1.313 2.135-2.255 0-.988-.406-1.604-1.333-1.604-1.183 0-1.955.898-2.154 2.013-.183 1.027.396 1.846 1.353 1.846zm.085-.868c.334.061.7-.179.892-.946.291-1.162-.245-1.172-.342-1.184-.297-.036-.692.305-.853 1.017-.073.324-.151 1.028.303 1.113zm2.368-2.883s.092.05.092.284v3.179s-.013.174-.078.21h.994s0-.074.099-.198c.099-.124 2.164-2.894 2.164-2.894s.471-.581.594-.581H18.75s.112.074.025.21c-.086.136-1.351 2.028-1.351 2.028l.016-1.908s-.003-.306.12-.332l-1.252.002zm6.012.867l.321-.868h-2.41s.086.077-.026.386c-.111.31-1.088 2.943-1.088 2.943s-.173.346-.222.346h2.485l.297-.878s-.037.05-.272.05h-1.051l.222-.594h.816s.173-.013.21.037l.334-.938s-.024.084-.247.084h-.791l.235-.655h1.002s.136-.018.185.087zM9.748 15.045h1.19s-.004-.091.027-.15c.057-.108.204-.366.204-.366h1.198l.002.322s.006.112-.082.197h1.187s-.088-.05-.104-.195l-.149-3.228s-.006-.206.092-.25h-1.178s.083.102-.075.334c-.158.232-2.17 3.216-2.17 3.216s-.04.076-.142.12zm2.596-2.42l-.661 1.075h.67l-.009-1.076z"/></g></svg>