<svg xmlns="http://www.w3.org/2000/svg" width="32" height="32" viewBox="0 0 32 32"><path fill="#000" fill-rule="evenodd" d="M10.832 16.197c-.85 1.324-.929 1.965-.95 2.395-.027.42-.027 1.176.663 1.792 1.165 1.021 2.796.857 4.238.857h11.903c.509 0 .657-.147.934-.51.95-1.433 1.38-2.986 1.38-4.377 0-2.98-1.967-6.73-6.933-8.424l-.562.789c3.943 1.842 5.576 4.254 5.576 7.629a4.806 4.806 0 01-.825 2.785H14.68c-.692 0-.79-.773-.541-1.207a46.009 46.009 0 013.317-5.012c1.173-1.539 2.324-2.976 3.532-4.485.329-.418.11-.82-.542-.953A21.231 21.231 0 0015.97 7C6.47 7 3 12.373 3 16.356c0 4.316 3.5 9.331 12.994 9.331 5.27 0 8.722-1.673 10.722-3.82h-2.018c-1.749 1.588-4.743 2.714-8.704 2.714-8.044 0-11.01-4.45-11.01-8.285.058-3.42 3.244-8.144 11.21-8.3.305-.009.538.263.327.519-1.361 1.651-5.246 6.992-5.69 7.682"/></svg>