<svg xmlns="http://www.w3.org/2000/svg" width="32" height="32" viewBox="0 0 32 32"><g fill="none" fill-rule="evenodd"><path fill="#0D2C22" d="M16.057 12.597l.03 1.234s.462.098.81-.201c.35-.307.271-.257.271-.257s.047-.05.158.033c.112.094-.063.317-.063.317s-.111.19-.444.368c-.336.159-.7.187-.7.187l-.016.178s.221.122.573.11c.332-.017.427-.047.427-.047s.669-.19.669-.988c0-.778-.78-.934-.78-.934h-.935zm1.381-1.097c0-.51-.397-.559-.397-.559h-1.017v.273l.572.018s.159-.178.333.026c.174.21.191.32.191.32s.032.365-.317.05c-.35-.322-.78-.18-.78-.18v.671h1.018s.397-.098.397-.618"/><path fill="#000" d="M14.976 11.8c-.16.208-.16.32-.16.32h.51v-.555s-.21.027-.35.236"/><path fill="#0D2C22" d="M14.674 11.566c.318-.226.667-.32.667-.32s.08-.288-.144-.27c-.24.014-.427.03-.427.03s-.129 0-.21.178c-.093.172-.54.951-.54.951l.223.017s.129-.366.43-.586m-1.445 5.778a.717.717 0 00-.349-.22c-.256-.066-.493 0-.714.207-.223.187-.414.506-.557.935-.065.176-.11.365-.144.527-.031.17-.031.331-.015.456a.678.678 0 00.144.368c.063.095.174.156.315.192a.6.6 0 00.414 0 .79.79 0 00.335-.206c.11-.112.206-.24.302-.397.079-.144.158-.32.238-.526.048-.157.095-.337.144-.493a1.63 1.63 0 00.014-.478.923.923 0 00-.127-.365"/><path fill="#0D2C22" d="M18.296 10.052c-.653-.363-1.7-.587-1.7-.587h-.508s-1.13-.172-1.97.718c-.826.87-.763 2.034-.763 2.034l.746-1.07s.097-.06.048-.206a2.762 2.762 0 00-.065-.157v-.206l3.228-.03s.872-.035.872.856c0 .89-.603.936-.603.936s.937.193.937 1.222c0 1.051-1.112 1.322-1.112 1.322l-2.414.01s-.207-.156.016-.248c.237-.08.333-.127.333-.238v-.13s-.525-.063-.89-.52c-.367-.451-.286-1.176-.286-1.176l-.475-.02-.302.462s.143 1.143.696 1.654c.557.506.938.984 2.256.92 1.32-.046 2.287-.732 2.287-.732l.257-.22s.096-.19.285-.08c.192.097-.19.491-.19.491s-.795 1.082-2.844 1.208c-2.015.124-3.436-1.96-3.369-2.11-.055.08-.272.4-.094.491.223.128.112.3.112.3l-1.494.017s-.095.048-.095-.144c0-.173.159-.156.159-.156s.539-.017.714-.306l.445-.681s-.158-.905-.126-1.286c.032-.383.317-2.4 1.872-3.065 1.575-.651 3.131-.129 3.131-.129s.286.16.493 0c.206-.161.285-.319.443-.016.144.302.462.795.462.795s.144.443-.492.077zm1.064 9.28c.175.094.38.109.65.03.255-.06.43-.187.54-.381.111-.187.129-.428.049-.715l-.27-1c-.05-.177-.096-.3-.143-.384-.048-.076-.096-.141-.16-.156-.047-.033-.126-.033-.222-.033-.11 0-.175 0-.223.02l-.03-.162 1.35-.396.047.158a.673.673 0 00-.175.094.598.598 0 00-.19.13c-.048.048-.064.124-.064.221 0 .095.016.24.064.414l.3 1.094c.08.335.033.62-.142.875-.19.27-.462.46-.841.57-.446.13-.825.13-1.112 0-.303-.11-.492-.349-.571-.682l-.398-1.51c-.016-.062-.047-.093-.063-.128-.034-.033-.08-.048-.143-.06h-.158c-.05 0-.096.012-.143.012l-.035-.157 1.638-.46.03.156a.537.537 0 01-.125.05c-.048.034-.095.049-.142.08a.262.262 0 00-.096.11c0 .05 0 .095.016.144l.382 1.493c.078.286.204.49.38.573zm1.843-3.243a1.1 1.1 0 01.269-.38c.128-.143.287-.256.46-.347.176-.116.352-.178.527-.226a1.84 1.84 0 01.427-.079l.065-.191.205-.109.492.874-.19.11c-.096-.062-.206-.127-.317-.206a1.902 1.902 0 00-.319-.144 1.116 1.116 0 00-.35-.017.75.75 0 00-.364.126.694.694 0 00-.332.336.476.476 0 000 .366c.061.097.14.158.268.173.128.018.286 0 .51-.045.126-.03.253-.063.379-.113.127-.03.24-.062.35-.078.255-.05.46-.05.636 0a.773.773 0 01.413.363.747.747 0 01.079.383 1.196 1.196 0 01-.112.416c-.08.14-.19.28-.316.408a2.699 2.699 0 01-.509.382 2.03 2.03 0 01-.572.238c-.19.065-.348.096-.492.114l-.08.203-.19.113-.54-.937.19-.113c.096.08.207.144.32.192a1.6 1.6 0 00.379.145c.127.028.269.045.397.028.143-.013.286-.063.43-.139.208-.13.333-.257.398-.399a.441.441 0 000-.397c-.048-.096-.145-.158-.272-.173-.127-.016-.301 0-.524.046-.143.046-.271.077-.381.11-.127.031-.238.064-.35.08-.238.048-.445.048-.62-.03a.775.775 0 01-.396-.351.827.827 0 01-.08-.352c.014-.109.049-.235.112-.38zm-4.179 2.002a1.368 1.368 0 00-.205-.431c-.096-.158-.175-.234-.256-.234-.045-.016-.095-.016-.158-.016h-.27l.049 2.462c0 .047 0 .094.014.124.033.05.064.082.112.097.03.017.078.035.143.047.065 0 .127.017.174.017v.176l-1.605.029v-.17c.032 0 .095-.018.159-.018.08-.017.127-.017.144-.034.047-.03.095-.062.11-.094.017-.05.017-.099.017-.146l-.032-2.474h-.269c-.064.014-.113.014-.16.014-.08.017-.158.113-.254.252a3.544 3.544 0 00-.191.447h-.16l-.014-.904 2.796-.049.013.905h-.157zm-2.97.815c-.08.218-.191.41-.334.585a1.678 1.678 0 01-.492.395c-.207.11-.413.175-.651.207-.223.017-.476 0-.747-.077a1.755 1.755 0 01-.588-.286 1.237 1.237 0 01-.413-.45 1.24 1.24 0 01-.19-.569 1.667 1.667 0 01.096-.665c.094-.241.206-.447.364-.606a1.77 1.77 0 01.525-.41c.206-.097.412-.148.651-.177a2.109 2.109 0 011.286.364c.175.126.302.271.414.43.094.175.16.364.174.588.031.208-.015.425-.095.671zM8.51 17.9c.017.05.064.096.127.162.063.045.143.11.269.205.113.077.225.16.35.222.112.065.208.098.287.081.11 0 .237-.046.396-.11a3.68 3.68 0 00.398-.193l.159.111-.637.828-2.811-2.019.113-.143c.047.035.112.064.175.11.08.033.126.064.159.064a.23.23 0 00.157 0 .265.265 0 00.11-.094L9.02 15.2a.537.537 0 00.063-.126.265.265 0 00-.063-.16.836.836 0 00-.128-.158c-.063-.066-.111-.094-.143-.127l.096-.163 1.684 1.212-.111.142c-.047-.018-.095-.049-.174-.095-.065-.031-.113-.064-.176-.08-.063-.032-.128-.032-.158-.015a.353.353 0 00-.111.11l-1.176 1.778a.704.704 0 00-.112.207.324.324 0 000 .173zm7.324-10.528c-1.75.032-2.892 1.571-2.892 1.571s-4.528 5.115-5.815 6.61c-1.286 1.491 0 3.207 0 3.207s2.653 3.317 8.96 3.193c6.291-.129 8.8-2.971 9.245-4.306.462-1.316-.761-2.48-.761-2.48L18.565 8.45s-.984-1.127-2.731-1.079z"/><path fill="#193D2E" d="M12.767 14.149v.006c.012-.017.017-.019 0-.006"/><path fill="#0D2C22" d="M14.912 13.341c.126.268.429.334.429.334v-1.092H14.8s-.016.506.112.758"/><path fill="#000" d="M15.944 27.546c-6.447 0-11.694-5.237-11.694-11.68 0-6.446 5.247-11.691 11.694-11.691 6.448 0 11.693 5.245 11.693 11.692 0 6.442-5.245 11.68-11.693 11.68m0-23.624C9.36 3.923 4 9.28 4 15.867c0 6.578 5.359 11.929 11.944 11.929 6.585 0 11.944-5.35 11.944-11.93 0-6.585-5.359-11.943-11.944-11.943"/><path fill="#EC9408" d="M26.048 17.851c-.492 1.45-3.114 4.688-9.961 4.815-6.845.144-9.722-3.557-9.722-3.557s-1.35-2.19.047-3.828c1.4-1.62 6.212-6.925 6.212-6.925s1.303-1.571 3.194-1.622c1.89-.045 3.017 1.129 3.017 1.129l6.577 7.194s1.128 1.35.636 2.794M15.944 4.53C9.7 4.529 4.62 9.614 4.62 15.867c0 6.246 5.08 11.325 11.324 11.325 6.254 0 11.34-5.079 11.34-11.325 0-6.253-5.086-11.338-11.34-11.338"/></g></svg>