<svg xmlns="http://www.w3.org/2000/svg" width="32" height="32" viewBox="0 0 32 32"><g fill="none" fill-rule="evenodd"><path fill="#FFF" fill-rule="nonzero" d="M26.77 15.994c0 8.751-4.63 15.784-10.279 15.784-5.65 0-10.282-7.033-10.282-15.784C6.209 7.24 10.84.207 16.491.207c5.649 0 10.28 7.033 10.28 15.787"/><path fill="#E21A22" d="M15.037 17.395h3.037v.742h-3.037zm.371 1.034h2.298v.826h-2.298zm-3.365-4.488h9.027v.371h-9.027zm-.481.705h9.987v.371h-9.987zm-.012-1.399h9.988v.371H11.55zm6.583 2.574c-.501.453-.499 1.268-.499 1.268h-2.152s.003-.815-.5-1.268c-.348-.317-.775-.385-.775-.385-.28-.054-.28-.088-.28-.105h5.259s0 .048-.28.105c0 0-.425.068-.773.385m-6.047-.49h1.084c0 .637-.416.923-1.084.782v-.782m3.84-10.28c.434-.85.517-2.123.625-2.146.108.023.191 1.297.624 2.143.408.801 1.283 1.478 1.232 1.557-.06.1-.544-.15-.79-.26-.39-.184-.707-.323-.707-.323s-.157 2.03.342 3.899c.408 1.531 1.383 2.927 1.472 3.049H17.48c-.04-.065-.08-.127-.114-.193a7.378 7.378 0 01-.815-1.987c-.237.883-.473 1.396-.813 1.987a6.8 6.8 0 01-.114.193H14.38c.089-.122 1.066-1.518 1.473-3.05.496-1.865.342-3.898.342-3.898s-.319.142-.71.323c-.242.113-.727.36-.79.26-.048-.079.828-.756 1.232-1.554m-3.884 7.919c-.005-.15-.083-2.206-.569-3.82-.532-1.769-1.6-2.822-1.529-2.927.066-.099.95.08 1.613.532.708.485 1.402 1.283 1.351 1.342-.03.037-.27-.161-.7-.32-.459-.17-.66-.138-.66-.138s.76 1.248 1.137 2.602c.316 1.135.48 2.602.489 2.729h-1.132m9.03 0c.006-.15.083-2.206.57-3.82.53-1.769 1.6-2.822 1.529-2.927-.066-.099-.95.08-1.614.532-.707.485-1.403 1.283-1.352 1.342.032.037.271-.161.702-.32.459-.17.658-.138.658-.138s-.76 1.248-1.137 2.602c-.314 1.135-.48 2.602-.488 2.729h1.132m-.043 2.361h-1.083c0 .637.416.923 1.083.782v-.782"/><path fill="#09264A" fill-rule="nonzero" d="M16.491 0c5.837 0 10.49 7.217 10.49 15.994 0 8.777-4.653 15.99-10.49 15.99C10.651 31.985 6 24.772 6 15.995 6 7.217 10.651 0 16.491 0zm0 .258c-5.607 0-10.233 6.987-10.233 15.736 0 8.746 4.626 15.736 10.233 15.736 5.606 0 10.23-6.99 10.23-15.736 0-8.749-4.624-15.736-10.23-15.736z"/><path fill="#0C2E59" fill-rule="nonzero" d="M7.247 19.258h18.485s-.365 4.893-3.185 8.471c-2.001 2.543-4.468 3.355-6.036 3.355-1.742 0-4.02-.756-6.04-3.369-2.789-3.604-3.224-8.457-3.224-8.457"/><path fill="#FFF" fill-rule="nonzero" d="M10.471 20.835l-.677 1.719h-.112l-.656-1.716-.071 1.325a1.11 1.11 0 00-.008.139c0 .116.155.122.238.122h.023v.13h-.763v-.128c.062-.002.234-.002.286-.065.037-.048.045-.133.06-.32l.064-1.248c.008-.105-.001-.145-.03-.164-.043-.034-.183-.037-.231-.04v-.127h.648l.588 1.52.601-1.52h.64v.127h-.022c-.136 0-.194.003-.222.034-.028.031-.032.096-.021.26l.068 1.21c.004.07.007.214.049.274.05.074.184.06.255.057v.13h-.933v-.128c.067-.005.168-.008.23-.036.046-.02.073-.054.073-.122a1.96 1.96 0 00-.008-.153l-.069-1.28m4.255-.382h.108l.046.515h-.12c-.065-.192-.19-.43-.438-.43-.162 0-.326.136-.326.28 0 .09.024.153.102.23.117.118.3.237.436.336.218.159.386.337.386.635 0 .322-.287.606-.649.606-.132 0-.251-.046-.376-.083l-.024-.008h-.023c-.037 0-.033.014-.037.042h-.107l-.06-.552h.125c.063.193.223.456.467.456.118 0 .392-.082.392-.34a.4.4 0 00-.118-.288 2.19 2.19 0 00-.347-.266c-.385-.264-.46-.456-.46-.646 0-.314.315-.544.577-.544.1 0 .198.02.281.049l.067.03.038.015.014.005c.02 0 .035-.028.046-.042m-2.417.289l-.274.776h.527l-.253-.776zm-.087-.193l-.05-.155h.354l.592 1.77c.07.203.063.245.31.262v.128h-.94v-.128c.065-.002.152-.002.213-.022.047-.017.074-.043.074-.1a.974.974 0 00-.058-.251l-.124-.385h-.59c-.062.175-.159.41-.169.6-.006.116.071.133.162.144l.114.012.02.13h-.78v-.125c.163-.037.217-.07.277-.218.02-.045.038-.102.062-.167l.533-1.495zm4.183.065h-.441v.799h.39c.083 0 .123 0 .151-.026.046-.042.052-.178.054-.229h.126v.68h-.126c-.008-.236.003-.272-.233-.272h-.362v.654c0 .107.002.144.02.161.022.026.12.02.148.02h.325c.265 0 .3-.139.356-.39h.123l-.049.543h-1.58v-.13c.246.01.303-.015.303-.25v-1.333c0-.246-.074-.255-.302-.25v-.13h1.505l.017.493h-.117c-.042-.255-.05-.34-.308-.34m5.033.349h-.111l.04-.567h.094c.014.029.023.046.054.057a.106.106 0 00.049.009h1.26a.393.393 0 00.128-.012c.023-.008.029-.031.037-.054h.094l.049.567h-.12c-.014-.071-.046-.244-.108-.309-.04-.037-.086-.04-.168-.04h-.334v1.535c0 .141.011.198.051.23.057.042.243.045.3.047v.128H21.7v-.128c.055-.002.249-.005.303-.045.037-.028.048-.08.048-.212v-1.555h-.296c-.12 0-.203-.008-.246.11-.028.077-.048.16-.07.239m2.012-.501h.987v.127c-.34.017-.317.07-.317.393v1.144c.02.272.063.28.328.3v.128h-.984v-.128c.069-.005.146-.005.211-.025.029-.009.035-.017.049-.04.04-.079.043-.238.043-.433V20.89c0-.266-.057-.28-.317-.3v-.127m-5.426 1.04h.222c.086-.002.166-.002.243-.05.083-.052.157-.165.157-.417 0-.385-.226-.45-.405-.45-.069-.003-.163.003-.217.003v.914zm2.179-.761l-.274.776h.527l-.253-.776zm.216-.348l.593 1.77c.069.203.063.245.308.262v.128h-.938v-.128c.086-.002.288.012.288-.121 0-.063-.031-.162-.06-.252l-.122-.385h-.59c-.069.19-.152.396-.169.603-.014.164.183.153.294.155v.128h-.756c-.296.011-.533-.071-.718-.388-.046-.08-.217-.42-.271-.513h-.251l.003.448c0 .28.025.323.194.323h.15v.13h-1.023v-.13c.254.01.317-.017.317-.26V20.78c0-.133.005-.186-.129-.198-.062-.003-.125-.003-.188-.003v-.127c.265-.006.536-.003.799-.003.162 0 .316-.008.476.04.188.06.362.2.362.515 0 .38-.217.501-.368.566.071.071.111.13.254.465.145.33.205.38.376.405.197-.009.237-.125.334-.397l.533-1.495-.051-.155h.353z"/></g></svg>