<svg xmlns="http://www.w3.org/2000/svg" xmlns:xlink="http://www.w3.org/1999/xlink" width="32" height="32" viewBox="0 0 32 32"><defs><path id="cars-mazda-ic-mazda-a" d="M22.92 19.26H0V.545h22.92V19.26z"/></defs><g fill="none" fill-rule="evenodd"><path fill="#E6E7E8" d="M15.488 23.768c-4.42.039-8.587-1.244-8.587-7.615 0-.477 0-.952.074-1.357l.068-.268c1.49.504 2.976 1.01 4.466 1.514 1.751.734 2.922 1.759 3.979 4.064 1.063-2.305 2.197-3.477 3.988-4.209l4.502-1.616c.01.038.023.075.03.116.074.509.11 1.133.11 1.757 0 6.37-4.204 7.653-8.63 7.614m-7.453-12.23c1.534-2.378 4.462-2.965 7.453-2.965 3.001 0 5.855.55 7.423 2.893.03.053.067.106.096.16-2.66 1.566-5.688 1.622-7.519 5.552-1.988-3.815-4.982-3.842-7.615-5.353.05-.096.105-.19.162-.286m16.851-1.575c-2.342-2.53-6.177-3.075-9.398-3.075-4.736 0-7.213.36-9.5 3.222-.04.046-.074.095-.11.145-1.13 1.353-1.83 3.295-1.83 5.897 0 8.017 6.508 9.299 11.44 9.299 4.977 0 11.48-1.282 11.48-9.3 0-2.6-.693-4.543-1.83-5.896a10.541 10.541 0 01-.252-.292"/><path fill="#000" d="M15.39 8.302c5.49 0 7.12 2.401 7.416 2.935.269-.154 1.093-.645 1.59-1.156l-.826.297a.1.1 0 01-.113-.035c-2.278-2.925-8.005-2.683-8.062-2.678-.001 0-.001-.002-.005-.002l-.005.002c-.059-.005-5.784-.247-8.064 2.678a.1.1 0 01-.116.035l-.643-.245c.529.53 1.206.949 1.45 1.09.291-.538 1.897-2.921 7.378-2.921"/><g transform="translate(4 6.195)"><mask id="cars-mazda-ic-mazda-b" fill="#fff"><use xlink:href="#cars-mazda-ic-mazda-a"/></mask><path fill="#000" d="M18.732 5.376a11.91 11.91 0 01-1.277.654l-.548.235c-1.12.483-2.28.98-3.324 1.768-.955.722-1.657 1.583-2.138 2.623-1.177-2.552-3.456-3.528-5.464-4.391l-.55-.235a11.73 11.73 0 01-1.31-.676.186.186 0 00.102-.1c.012-.03 1.355-2.846 7.167-2.846 5.816 0 7.188 2.832 7.2 2.862.008.019.025.039.038.055.03.03.064.044.104.05M11.39.72c7.347 0 9.268 2.808 9.346 2.926l.005.016.016-.01.064.016h-.085c-.489.728-1.905 1.504-1.964 1.537a.025.025 0 01-.012.002l-.015-.012c-.013-.029-1.389-2.964-7.355-2.964-5.956 0-7.306 2.92-7.32 2.95l-.024.008c-.05-.026-1.206-.661-1.861-1.492-.008-.006-.008-.012-.002-.02C2.254 3.556 4.038.72 11.39.72m.664 18.364c-.158 0-.29-.002-.401-.004h-.382a20.36 20.36 0 01-.403.004c-2.513 0-4.69-.408-6.476-1.213C1.476 16.557.17 13.128.17 10.315c0-3.296 1.108-5.414 1.774-6.398.002 0 .01.005.02.014.134.138 1.343 1.357 3.401 2.26l.55.236c2.027.87 4.323 1.858 5.454 4.475l.076.182.078-.182c.47-1.092 1.176-1.984 2.163-2.73 1.022-.773 2.173-1.266 3.285-1.745l.552-.237a11.62 11.62 0 003.15-2.018l.036-.033c.136-.126.214-.206.232-.215l.033.01.014-.003c.657.968 1.762 3.086 1.762 6.384 0 2.813-1.306 6.242-4.216 7.556-1.787.805-3.97 1.213-6.48 1.213m8.902-15.335a.177.177 0 00-.074.01l.002-.007.01-.02c.005-.016.012-.032.012-.047l.002-.02a.233.233 0 00-.009-.064l-.004-.013v-.002l-.018-.037C20.797 3.427 18.83.546 11.39.546c-7.448 0-9.279 2.914-9.348 3.03a.191.191 0 00-.018.187.162.162 0 00-.078-.022.183.183 0 00-.15.088C1.125 4.816 0 6.971 0 10.315c0 2.873 1.337 6.371 4.322 7.716 1.807.815 4.011 1.228 6.546 1.228l.405-.002c.15-.001.229-.001.376 0l.405.002c2.538 0 4.737-.413 6.544-1.228 2.987-1.345 4.322-4.843 4.322-7.716 0-3.344-1.126-5.499-1.795-6.486a.183.183 0 00-.17-.08" xmask="url(#cars-mazda-ic-mazda-b)"/></g><path fill="#BCBEC0" d="M9.119 13.833c.244.092.52.18.815.272 1.717.543 4.055 1.282 5.511 4.478 1.454-3.196 3.794-3.935 5.51-4.478.296-.093.571-.18.813-.272 1.169-.442 2.53-1.34 2.732-1.473a9.238 9.238 0 00.326-1.969c-.011.012-.025.024-.035.036l-.62 1.971a.113.113 0 01-.048.06c-1.582.95-2.893 1.43-3.408 1.578-2.223.635-3.135 1.576-3.14 1.587a.106.106 0 01-.14.01.112.112 0 01-.027-.139c.414-.724 1.133-1.404 1.712-1.877-.47.247-.923.525-1.36.85-.084.134-.58.924-.629 1.515a.105.105 0 01-.032.07c-.094.09-.248.245-.281.308a.095.095 0 01-.113.055.105.105 0 01-.08-.102c0-.02.002-.408.16-.96a6.388 6.388 0 00-1.244 2.02.055.055 0 01-.018.024c-.002.006-.002.008-.005.01a.024.024 0 01-.009.006.085.085 0 01-.025.018c-.007.003-.01.001-.014.003-.01.003-.016.006-.025.006a.077.077 0 01-.025-.006c-.003 0-.007 0-.014-.003-.01-.003-.016-.01-.024-.018-.003 0-.008-.002-.01-.005 0-.003-.003-.005-.005-.01-.005-.007-.015-.015-.017-.025-.75-1.92-2.126-2.99-3.593-3.762.41.357.865.841 1.107 1.383a.111.111 0 01-.027.122c-.03.033-.08.037-.12.015-.007-.006-.97-.568-2.646-1.124-1.112-.371-3.516-1.18-4.074-3.462.043.561.135 1.22.393 1.815.202.132 1.563 1.031 2.729 1.473"/><path fill="#000" d="M9.4 15.163c1.083.313 2.312.668 3.453 1.458 1.463 1.012 2.318 2.74 2.592 3.361.273-.622 1.13-2.35 2.59-3.361 1.143-.79 2.368-1.145 3.453-1.458.957-.275 1.785-.515 2.35-.987.055-.112.327-.692.572-1.506-.472.304-1.586.99-2.573 1.363-.245.093-.527.181-.82.274-1.718.542-4.068 1.285-5.479 4.571-.001.004-.006.007-.007.012-.006.007-.008.013-.013.02l-.018.013c-.007.003-.01.007-.014.01h-.002c-.01.004-.016.004-.025.005a.028.028 0 01-.014.003l-.018-.003c-.007-.001-.014-.001-.02-.006h-.003c-.007-.002-.01-.006-.014-.009a.208.208 0 00-.017-.014c-.007-.006-.01-.012-.015-.02l-.007-.011c-1.412-3.286-3.762-4.027-5.482-4.571-.294-.093-.574-.18-.82-.274-.987-.373-2.1-1.06-2.572-1.363.247.814.515 1.394.574 1.506.564.472 1.393.712 2.348.987"/><path fill="#000" d="M7.114 14.592c.587.392 1.342.61 2.205.861 1.063.306 2.265.654 3.372 1.418 1.688 1.168 2.572 3.43 2.578 3.449.007.027.058.163.172.163.104 0 .16-.115.18-.16.008-.022.892-2.285 2.578-3.452 1.103-.766 2.307-1.112 3.37-1.42.878-.253 1.65-.476 2.237-.88.118 1.07.371 4.886-1.591 6.874-1.923 1.947-5.182 2.156-6.495 2.156h-.164l-.19-.002v.002h-.16c-1.316 0-4.576-.209-6.498-2.156-1.954-1.98-1.707-5.79-1.594-6.853m8.091 9.187c.091 0 .177-.004.255-.004.08 0 .167.004.26.004 1.331 0 4.648-.216 6.614-2.21 2.125-2.152 1.728-6.344 1.623-7.162l-.018-.15-.114.089c-.581.44-1.378.67-2.301.937-1.077.31-2.292.662-3.42 1.442-1.73 1.197-2.634 3.51-2.64 3.527-.007.017-.016.03-.02.04l-.017-.034c-.007-.023-.91-2.334-2.641-3.533-1.128-.78-2.346-1.132-3.42-1.442-.908-.26-1.692-.488-2.27-.916l-.117-.085-.02.147c-.099.817-.485 5 1.63 7.141 1.969 1.993 5.283 2.21 6.616 2.21"/><path fill="#000" d="M8.084 21.168c-1.828-2.447-1.292-6.461-1.224-6.906a11.503 11.503 0 01-.679-1.886c-1.69 4.039.052 7.21.068 7.235.637.96 1.42 1.387 1.835 1.557m16.53-2.188c0-.005.002-.01.003-.013.013-.028.987-2.825-.064-6.057a11.109 11.109 0 01-.503 1.302.026.026 0 01.006.015c.03.188.648 4.241-1.106 6.789.44-.231 1.275-.81 1.664-2.037"/><path fill="#000" d="M25.03 10.418a9.488 9.488 0 01-.289 1.836l.016.027c1.357 3.69.174 7.428.161 7.466-.722 2.243-2.588 3.806-5.403 4.516-1.16.293-2.793.383-3.714.407.082.002-.059.007-.34.004-.28.003-.424-.002-.342-.004-.92-.024-2.552-.114-3.713-.407-2.802-.708-4.663-2.257-5.395-4.484-.169-.14-1.09-.954-1.707-2.856.119 2.686 1.404 5.817 4.136 7.029 2.898 1.286 6.47 1.228 7.021 1.228.553 0 4.454-.026 7.021-1.228 2.846-1.333 4.146-4.667 4.146-7.442 0-3.03-.939-5.052-1.598-6.092"/></g></svg>