<svg xmlns="http://www.w3.org/2000/svg" xmlns:xlink="http://www.w3.org/1999/xlink" width="32" height="32" viewBox="0 0 32 32"><defs><path id="cars-mini-ic-mini-a" d="M31.612 13.804V.49H0v13.314z"/><path id="cars-mini-ic-mini-c" d="M0 13.941h31.612V.627H0z"/></defs><g fill="none" fill-rule="evenodd" transform="translate(0 9)"><path fill="#000" d="M15.825 2.187a5.096 5.096 0 10.001 10.192 5.096 5.096 0 00-.001-10.192zm0 10.6a5.505 5.505 0 115.505-5.504 5.504 5.504 0 01-5.505 5.505z"/><g transform="translate(0 .137)"><mask id="cars-mini-ic-mini-b" fill="#fff"><use xlink:href="#cars-mini-ic-mini-a"/></mask><path fill="#000" d="M9.537 4.952a6.69 6.69 0 00-.272 1.05H1.992a33.42 33.42 0 01-.911-1.05h8.456zm.51 5.502H6.868a33.747 33.747 0 01-1.337-1.05H9.56c.13.364.294.715.485 1.05zm5.778-9.07a5.761 5.761 0 010 11.522 5.761 5.761 0 110-11.523zm6.265 8.02h3.992c-.442.365-.888.717-1.336 1.05h-3.141c.19-.335.353-.686.485-1.05zm8.443-4.452a34.89 34.89 0 01-.912 1.05h-7.237a6.553 6.553 0 00-.27-1.05h8.42zM27.42 8.228h-5.025c.056-.341.086-.693.088-1.048h6.023c-.356.357-.719.707-1.086 1.048zm-23.227 0A38.21 38.21 0 013.107 7.18h6.06c.003.355.032.707.087 1.048H4.193zM.858 4.952c.25.303.554.66.905 1.05h-.002c.326.364.696.761 1.104 1.178h.003c.333.336.691.69 1.074 1.048h-.001c.413.385.853.779 1.323 1.176h.002c.418.353.858.703 1.317 1.05.514.389 1.056.767 1.621 1.134h2.664a6.637 6.637 0 004.957 2.216 6.635 6.635 0 004.956-2.216h2.627c5.018-3.25 8.204-7.73 8.204-7.73h-9.996A6.654 6.654 0 0015.824.49a6.65 6.65 0 00-5.79 3.367H0s.299.419.857 1.095h.001z" xmask="url(#cars-mini-ic-mini-b)"/></g><mask id="cars-mini-ic-mini-d" fill="#fff"><use xlink:href="#cars-mini-ic-mini-c"/></mask><path fill="#000" d="M15.128 8.725h.696V5.873h-.696zm-2.041-.001l.716-1.676v1.676h.702v-2.85h-.772l-.809 1.879-.74-1.88h-.787v2.851h.597V7.008l.682 1.716zm3.951-1.719l1.324 1.72h.539V5.872h-.606v1.734l-1.333-1.734h-.522v2.851h.598zm2.488 1.72h.695V5.873h-.695z" xmask="url(#cars-mini-ic-mini-d)"/></g></svg>