<svg xmlns="http://www.w3.org/2000/svg" xmlns:xlink="http://www.w3.org/1999/xlink" width="32" height="32" viewBox="0 0 32 32"><defs><path id="cars-opel-a" d="M.037 9.684C1.355 4.297 6.213.3 12.006.3c6.805 0 12.321 5.516 12.321 12.321 0 .13-.002.26-.007.388l-.064.059c-.147.097-.335.322-.663.429-.312.102-.493.149-.728.149-.236 0-.383-.058-.463-.209-.056-.104-.157-.487-.157-.487l-.06-.066.002-.263c0-5.622-4.557-10.18-10.181-10.181-4.584 0-8.461 3.03-9.737 7.197h-.005l-.081.064s-.12.182-.221.311a.592.592 0 01-.441.205c-.236 0-.417-.046-.729-.149C.466 9.962.1 9.804.037 9.684z"/><path id="cars-opel-c" d="M.606.209L.632.205.605.21.606.209z"/><path id="cars-opel-e" d="M32 25V.234H0V25z"/><path id="cars-opel-g" d="M32 25H0V.233h32V25 .233H0V25h32z"/></defs><g fill="none" fill-rule="evenodd"><g transform="translate(4 3.767)"><mask id="cars-opel-b" fill="#fff"><use xlink:href="#cars-opel-a"/></mask><path d="M.037 9.684c.063.12.429.278.755.384.312.103.493.149.729.149a.592.592 0 00.441-.205c.101-.129.221-.311.221-.311l.081-.064h.005C3.545 5.47 7.422 2.44 12.006 2.44c5.624.001 10.181 4.559 10.181 10.181l-.002.263.06.066s.101.383.157.487c.08.151.227.209.463.209.235 0 .416-.047.728-.149.328-.107.516-.332.663-.429l.064-.059a9.97 9.97 0 00.007-.388C24.327 5.816 18.811.3 12.006.3 6.213.3 1.355 4.297.037 9.684" xmask="url(#cars-opel-b)"/></g><path fill="#BCBEC0" d="M27.438 18.915c-.306-.103-.694-.212-.93-.208-.235.003-.365.082-.51.278-.04.055-.143.224-.143.224l-.076.046-.008.019v-.001c-1.246 4.216-5.146 7.292-9.765 7.292-5.623 0-10.18-4.558-10.18-10.181 0-.112.002-.223.005-.333v-.001l-.042-.003s-.079-.18-.133-.284c-.063-.121-.176-.273-.41-.286-.236-.011-.594.054-.912.14-.333.09-.52.148-.638.28-.007.162-.01.324-.01.487 0 6.804 5.516 12.32 12.32 12.32 5.84 0 10.731-4.061 12-9.515l.001-.001c-.05-.061-.168-.137-.569-.273"/><path fill="#FFF" d="M16.006 4.062c-5.793 0-10.651 4-11.968 9.387v.001a.368.368 0 00.045.054c.122.112.43.24.71.331.313.102.493.148.729.148a.595.595 0 00.44-.204c.103-.129.222-.31.222-.31l.082-.065h.003c1.274-4.17 5.15-7.202 9.737-7.202 5.624 0 10.182 4.558 10.182 10.182 0 .09-.001.178-.003.266l.06.066s.1.384.157.488c.08.15.228.208.463.208.236 0 .416-.047.729-.149.327-.107.516-.33.663-.429l.063-.059c.004-.13.007-.26.007-.392 0-6.804-5.515-12.32-12.321-12.32"/><path d="M26.187 16.389c0 .088-.001.175-.003.262l.061.066s.1.384.156.487c.081.15.229.208.464.208.235 0 .416-.046.729-.148.327-.107.515-.332.663-.43l.063-.058c.005-.128.007-.258.007-.387 0-6.805-5.517-12.322-12.321-12.322-5.792 0-10.651 3.998-11.968 9.384.061.12.428.278.754.385.312.102.493.148.729.148a.596.596 0 00.441-.205c.101-.13.221-.311.221-.311l.081-.064h.005c1.276-4.167 5.153-7.197 9.737-7.197 5.624 0 10.181 4.559 10.181 10.182"/><path fill="#E6E7E8" d="M16.006 4.065c-5.793 0-10.651 3.999-11.968 9.386.06.122.428.28.755.387.313.102.493.148.729.148a.589.589 0 00.44-.205c.103-.13.222-.311.222-.311l.08-.064h.004c1.275-4.17 5.152-7.201 9.738-7.201 5.624 0 10.182 4.558 10.182 10.18 0 .09-.001.18-.003.268l.06.066s.1.384.157.488c.08.15.228.208.463.208.236 0 .416-.047.729-.15.327-.105.516-.33.663-.428l.063-.06c.004-.13.007-.26.007-.391 0-6.805-5.515-12.321-12.321-12.321"/><path fill="#EAECEE" d="M1.427 15.099l.567-.991h.007l-.371-.598a.29.29 0 00-.105.06s-.263.247-.762.923c-.5.675-.69 1.05-.69 1.05-.014.03-.013.056 0 .075l.052-.035 1.308-.484h-.006z"/><path fill="#414042" d="M20.53 14.11l-3.881 2.962 2.813-.817h-.009l3.95-3.127c.023-.02.032-.036.027-.047l-2.906 1.03h.006z"/><path fill="#6D6E71" d="M11.483 18.531l3.723-2.845h-.005l-2.68.842c-.072.049-3.604 2.861-3.69 2.936-.033.027-.038.053-.032.069l2.688-1.002h-.004z"/><path fill="#808285" d="M28.321 16.776l-.064.06c-.148.097-.335.321-.664.428-.312.102-.493.15-.728.15s-.382-.059-.464-.209c-.056-.104-.156-.488-.156-.488l-.061-.066-6.721-.396-2.813.818h-.001l13.852.608 1.429-.664c-.012-.02-.045-.032-.094-.034l-3.515-.207"/><path fill="#E6E7E8" d="M23.38 13.063l-17.114.341-.082.064s-.12.182-.221.311a.596.596 0 01-.441.205c-.236 0-.416-.046-.73-.148-.326-.107-.694-.266-.754-.386l-2.331.045a.276.276 0 00-.076.015l.37.598 18.524.003 2.906-1.03c-.006-.012-.023-.018-.05-.018"/><path d="M.125 15.583l-.052.035a.075.075 0 00.057.028l3.565.253v-.001c.119-.133.306-.191.638-.281.318-.086.676-.151.913-.14.234.013.348.165.41.286.054.104.132.284.132.284l6.739.477-.006.005 2.681-.843L1.433 15.1l-1.308.483zm29.853 2.946l-18.491.002-2.688 1.003c.013.028.063.034.091.034l16.87-.3.095-.06s.103-.168.142-.223c.146-.196.276-.275.512-.278.234-.004.623.105.929.208.412.14.522.217.574.278h-.001l.001.002 2.35-.095a.201.201 0 00.051-.01l-.434-.562h-.001z"/><path fill="#414042" d="M5.954 13.78c.103-.13.222-.311.222-.311l.08-.064h.004v-.002c1.275-4.168 5.152-7.2 9.738-7.2v-.396c-5.002 0-9.288 3.782-10.293 8.142a.546.546 0 00.249-.17"/><path fill="#6D6E71" d="M16.006 26.565c-5.622 0-10.181-4.558-10.181-10.181 0-.067 0-.133.002-.2 0-.044.003-.09.004-.133v-.001H5.83l-.034-.002-.007-.001s-.078-.18-.133-.284a.545.545 0 00-.18-.212l-.003.038c-.024.29-.042.525-.042.795 0 5.84 4.735 10.577 10.576 10.577h.002a10.646 10.646 0 005.418-1.467v-.516a10.136 10.136 0 01-5.421 1.587"/><path fill="#6D6E71" d="M25.998 18.985c-.04.055-.143.224-.143.224l-.095.059h-.026l-.004.006c-1.242 4.203-5.123 7.273-9.724 7.29v.396h.002c5.059 0 9.274-3.468 10.314-8.215v-.005l.003-.01c-.13.038-.224.117-.327.255"/><path fill="#F1F2F2" d="M16.048 5.434c-5.218 0-9.582 3.65-10.681 8.537.064.008.128.013.197.013a.58.58 0 00.19-.036c1.102-4.666 5.292-8.141 10.294-8.141 5.842 0 10.577 4.735 10.577 10.577 0 .287-.017.655-.042.963a.669.669 0 00.324.065h.045a13.4 13.4 0 00.046-1.028c0-6.048-4.902-10.95-10.95-10.95"/><g transform="translate(5 13.767)"><mask id="cars-opel-d" fill="#fff"><use xlink:href="#cars-opel-c"/></mask><path d="M.606.209L.605.21.632.205.606.209" mask="url(#cars-opel-d)"/></g><path fill="#231F20" d="M26.91 17.412c.215-.006.393-.052.684-.147.328-.107.515-.332.663-.43l.002-.06a12.277 12.277 0 00-.339-3.286c-.293-.504-.817-.735-1.268-1.12-.533-.453-1.586-2.77-2.797-3.62a10.9 10.9 0 013.1 7.635c0 .309-.02.705-.045 1.028M4.793 13.836c.22.072.376.116.532.136a10.888 10.888 0 011.184-3.038c0-.003.003-.005.005-.007h-.001A11.963 11.963 0 018.19 8.716c-.395.034-1.862 2.323-2.287 2.68-.423.358-1.444.94-1.608 1.36a12.089 12.089 0 00-.197.708l-.011.044c.124.11.429.238.706.328"/><path fill="#414042" d="M27.438 18.915a4.727 4.727 0 00-.715-.19c0 .002 0 .003-.002.005a10.94 10.94 0 01-10.716 8.604c-5.879 0-10.949-4.824-10.949-10.95 0-.325.018-.56.048-.878l.003-.027a3.874 3.874 0 00-.773.138c-.28.075-.456.129-.577.223h.002l-.002.06a12.181 12.181 0 001.066 5.505c2.468 3.02 6.306 6.33 11.182 6.33 5.137 0 10.49-3.822 11.948-8.596-.074-.054-.213-.121-.515-.224"/><path fill="#FFF" d="M20.53 14.11l-3.881 2.963 13.854.608-.525.847-18.495.003 3.723-2.844-13.779-.588.568-.99z"/><path fill="#E6E7E8" d="M15.762 15.511l-14-.596.349-.608 17.832.002-3.85 2.938 14.064.617-.29.465-17.797.003z"/><g transform="translate(0 3.767)"><mask id="cars-opel-f" fill="#fff"><use xlink:href="#cars-opel-e"/></mask><path fill="#2B4355" d="M19.62 12.435l6.503.383a6.67 6.67 0 00.003-.2c0-5.58-4.54-10.12-10.12-10.12-4.451 0-8.321 2.84-9.653 7.076l17.03-.34c.074 0 .099.038.106.06.008.023.013.068-.047.116l-3.822 3.025zm6.625.515l-6.958-.41 4.017-3.18-17.121.342.026-.082a10.33 10.33 0 013.648-5.196 10.15 10.15 0 016.149-2.051c5.648 0 10.243 4.596 10.243 10.245 0 .089 0 .179-.003.268l-.001.064zm-20.354-.6c-.002.1-.004.186-.004.268 0 5.579 4.54 10.118 10.119 10.118 4.425 0 8.392-2.941 9.68-7.163-2.416.09-16.718.29-16.795.29-.042 0-.126-.017-.15-.081-.01-.025-.016-.076.049-.133.223-.192 3.26-2.634 3.557-2.842L5.89 12.35zm10.115 10.51c-5.648 0-10.243-4.594-10.243-10.242 0-.101.002-.208.005-.337l.002-.064 6.937.49-3.83 3.03.014.003c.077 0 14.448-.204 16.878-.295l.086-.003-.025.083a10.315 10.315 0 01-3.64 5.259 10.152 10.152 0 01-6.184 2.076zM.125 11.816h.01l3.625.258-.002.06c-.008.18-.011.338-.011.483 0 6.759 5.499 12.259 12.259 12.259 5.73 0 10.64-3.893 11.939-9.467l.01-.047.049-.002 2.355-.09c.032 0 .059-.01.072-.025.1-.126.62-.767.814-1.038.153-.213.424-.62.625-.922v-.002a.305.305 0 00-.037-.006l-3.516-.206-.06-.003.002-.061c.005-.15.007-.274.007-.39 0-6.76-5.5-12.26-12.26-12.26A12.225 12.225 0 004.098 9.696l-.012.047-2.38.047a.257.257 0 00-.14.059c-.003.002-.265.253-.754.914-.49.662-.682 1.039-.684 1.043-.003.004-.003.008-.003.01zM16.005 25C9.179 25 3.624 19.445 3.624 12.618c0-.131.003-.272.008-.428l-3.505-.25a.132.132 0 01-.11-.063.135.135 0 010-.128c.008-.015.2-.388.696-1.06.497-.672.759-.921.769-.931a.382.382 0 01.224-.092l2.283-.045A12.444 12.444 0 018.305 2.92a12.25 12.25 0 017.7-2.686c6.829 0 12.385 5.555 12.385 12.384 0 .1-.002.208-.006.333l3.454.203c.077.003.128.028.15.073.012.02.025.067-.014.126-.202.305-.474.712-.628.927a31.32 31.32 0 01-.82 1.043.214.214 0 01-.163.072c-.262.01-1.146.045-2.307.088a12.434 12.434 0 01-4.298 6.79A12.413 12.413 0 0116.006 25z" xmask="url(#cars-opel-f)"/></g><g transform="translate(0 3.767)"><mask id="cars-opel-h" fill="#fff"><use xlink:href="#cars-opel-g"/></mask><path fill="#231F20" d="M23.384 9.235c.072 0 .099.037.104.06.009.023.014.066-.046.114l-3.823 3.025 6.503.384c.003-.066.003-.133.003-.2 0-5.58-4.54-10.12-10.12-10.12l7.379 6.737zm2.86 3.715l-6.957-.41 4.017-3.18-17.12.341.024-.082a10.33 10.33 0 013.65-5.196 10.156 10.156 0 016.148-2.05c5.648 0 10.242 4.595 10.242 10.244 0 .09 0 .18-.003.268v.065zm-20.352-.6c-.004.1-.006.186-.006.268 0 5.579 4.54 10.117 10.12 10.117 4.424 0 8.392-2.94 9.68-7.162-2.416.09-16.719.29-16.796.29-.042 0-.126-.016-.15-.082-.008-.024-.014-.075.05-.132.223-.191 3.26-2.634 3.557-2.842l-6.455-.457zm10.114 10.51c-5.648 0-10.244-4.595-10.244-10.242 0-.101.003-.209.007-.338l.002-.063 6.936.49-3.83 3.03.013.002c.077 0 14.448-.204 16.878-.295l.087-.002-.026.082a10.325 10.325 0 01-3.637 5.26 10.154 10.154 0 01-6.186 2.076zM.124 11.817h.01l3.626.256-.002.06c-.007.18-.011.339-.011.484 0 6.76 5.5 12.258 12.259 12.258 5.732 0 10.642-3.892 11.94-9.466l.01-.048.047-.002c1.186-.043 2.09-.079 2.357-.088.032-.002.058-.012.07-.027.102-.126.62-.765.814-1.037.154-.214.425-.62.625-.923 0 0 .002 0 .002-.002a.275.275 0 00-.038-.005l-3.515-.207-.062-.002.003-.061c.005-.15.006-.274.006-.39 0-6.76-5.5-12.26-12.26-12.26A12.225 12.225 0 004.099 9.695l-.013.047-2.378.047a.257.257 0 00-.14.059c-.004.002-.266.253-.754.913-.49.663-.683 1.04-.685 1.044-.004.005-.004.01-.004.011zM16.006 25C9.177 25 3.623 19.445 3.623 12.617c0-.13.002-.272.007-.428l-3.504-.248a.134.134 0 01-.11-.064.132.132 0 01.002-.128c.007-.014.198-.389.694-1.06.496-.671.758-.92.77-.931a.382.382 0 01.222-.091l2.284-.046a12.447 12.447 0 014.317-6.7 12.245 12.245 0 017.7-2.688c6.829 0 12.385 5.555 12.385 12.385 0 .1-.003.208-.006.333l3.453.202c.078.005.128.028.151.073.012.022.025.068-.014.127-.201.305-.474.713-.628.928a36.43 36.43 0 01-.819 1.042.224.224 0 01-.165.073l-2.306.087a12.436 12.436 0 01-4.299 6.791A12.415 12.415 0 0116.006 25z" xmask="url(#cars-opel-h)"/></g></g></svg>