<svg xmlns="http://www.w3.org/2000/svg" width="32" height="32" viewBox="0 0 32 32"><g fill="none" fill-rule="evenodd"><path fill="#F7D244" d="M4.007 3.576C11.825-.12 22.786.943 27.849 3.11l-.18 13.91c.097 6.295-4.488 11.427-9.538 13.902-1.107.496-1.375.662-1.99.777a.61.61 0 01-.199-.012c-.481-.114-1.028-.22-1.719-.528-5.469-2.458-10.105-8.533-10.036-14.033l-.18-13.55z"/><path fill="#000" d="M19.586 20.345c.2-.203.354-.451.525-.688l1.023-.25c.03-.3.14-.783.453-1.086.277-.268.64-.352 1.09-.275-.007.005.017.018.01.021-.302.183-.668.47-.767 1.149.275.013.564.055.84.04.12-.347.334-.788.663-1.005.279-.183.652-.238 1.05.008-.456.12-.779.436-1.015.894-.02.042-.012.072.006.106l.798.319.046.005c.123-.256.415-.578.738-.656.32-.078.65.032.796.191-.51.13-.753.293-.986.597a.073.073 0 00-.005.07c.445.246.624.585.587 1.032a3.463 3.463 0 00-1.954-1.007c-1.41-.227-2.82.168-3.898.535m-2.706 1.54c.304-.06.602-.129.904-.215.066.1.11.182.136.298.035.211-.137.25-.264.214-.126-.05-.228-.127-.271-.22-.019-.014-.022-.01-.029 0a.48.48 0 01-.196.222c-.072.024-.12-.007-.16-.035-.09-.091-.12-.158-.12-.264m.935 2.445c-.087.142-.24.337-.376.379a.319.319 0 01-.386-.368c-.009-.122.164-.338.341-.466-.156-.126-.326-.27-.302-.465-.037-.026.126-.31.425-.264.143.032.33.208.446.555l.85-.445c-.32-.791.032-1.459.683-1.639-.206.344-.453.87-.215 1.437l.88-.259c.02-1.151.48-1.644 1.168-1.688-.39.37-.749.721-.649 1.59l.811-.145c.115-.559.494-1.628 1.354-1.189-.414.173-.759.494-.825 1.144l.837.069c.325-.607.824-.83 1.237-.507-.333.147-.632.284-.829.625.36.286.692.724.675 1.148-.543-.693-1.553-.927-2.526-.815-1.154.133-2.372.54-3.116 1.04.133.106.249.23.29.418.001.26-.234.32-.34.328-.261-.03-.36-.27-.433-.484m-.382 3.419c-.165-.097-.329-.22-.377-.367a.242.242 0 01.312-.272c.172.067.285.219.37.383l.516-.442c-.326-.381-.413-1.003.13-1.3-.166.356-.113.742.102 1.09l.612-.31c-.245-.854.148-1.377.78-1.462-.307.254-.607.607-.439 1.282l.697-.156c.11-.485.513-1.227 1.295-1.076-.385.138-.706.467-.824 1.029.247.011.452.062.693.153.172-.453.615-.932 1.116-.653-.355.154-.555.482-.756.837.296.15.568.357.494.616-.574-.427-1.228-.6-1.896-.508-.747.101-1.485.52-2.118 1.062.18.107.345.205.433.374.044.236-.142.308-.266.287-.221-.064-.343-.228-.454-.369-.11.222-.213.362-.402.476-.257.07-.408-.16-.344-.306.065-.178.127-.229.326-.368M4.623 17.46c.041 1.094.123 1.516.486 2.676l7.303.002c-.804-.908-1.014-1.863-1.045-2.662l-6.744-.016z"/><path fill="#A7002C" d="M5.23 20.539h7.467a4.918 4.918 0 003.087 1.295l.004 1.518-9.365-.003a12.928 12.928 0 01-1.194-2.81"/><path fill="#000" d="M6.638 23.735l9.15-.004.018 2.834-7.116-.004c-.431-.44-.846-.985-1.215-1.504-.347-.489-.65-.955-.837-1.322"/><path fill="#A7002C" d="M9.13 26.947l6.658-.002v4.258c-1.214-.264-2.665-1.015-3.943-1.906-1.16-.809-2.184-1.723-2.715-2.35"/><path fill="#000" d="M5.473 9.6c-.128-.165-.202-.315-.172-.441.026-.112.14-.178.254-.196.243-.04.361.037.503.401l.676-.38c-.23-1.08.246-1.933 1.127-1.974-.317.324-.944.913-.71 1.702l1.461-.472c-.174-1.289.52-1.788 1.28-1.658-.36.286-.794.603-.765 1.488l1.327-.306c.066-1.139.796-1.696 1.693-1.434-.56.195-1.023.53-1.147 1.414l1.229-.015c.336-.751.996-1.141 1.778-.62-.493.022-1.073.1-1.335.654.583.075 1.241.476 1.249.945-1.74-1.374-5.216-.267-7.577.964.257.288.22.573.081.64-.177.085-.535.05-.617-.236-.278.321-.636.3-.738.144-.115-.175-.094-.503.403-.62m.016 3.115c-.47-.443-.128-.761.138-.659.115.045.202.18.26.423l.737-.36c-.19-1.27.503-1.62.806-1.63-.186.216-.576.764-.32 1.444l.93-.395c-.071-.813.335-1.612 1.02-1.508a1.923 1.923 0 00-.648 1.351l1.05-.248c.074-.823.65-1.434 1.439-1.26-.28.1-.839.389-1.005 1.24.366-.027.735-.05 1.106-.053.304-.843.924-1.098 1.509-.74-.34.135-.797.244-.934.599l-.177.605c-1.834-.197-3.557.526-5.15 1.314.37.481.173.685-.075.692-.262.008-.323-.13-.414-.36-.168.236-.467.306-.613.224-.207-.117-.318-.491.341-.68m.337 3.136c-.41-.328-.29-.645-.084-.722.17-.063.402.044.601.412l.529-.364c-.415-.974-.146-1.727.537-1.707-.17.382-.413.833-.157 1.487l.814-.342c-.302-1.244.335-1.646.807-1.662-.24.323-.722.799-.429 1.502l.912-.279c-.013-1.199.813-1.648 1.26-1.561-.25.237-.864.6-.876 1.446l1.136-.125c.026-.27.393-.636.531-.667l.013 1.135c-1.144-.061-2.327.137-3.693.827-.342.174-.688.39-1.054.633.465.427.256.638.047.683-.275.059-.382-.066-.554-.27-.406.43-.678.393-.77.211-.131-.261-.022-.5.43-.636m10.366-10.88l.003 2.691H27.33l.002-.67c-1.005-.474-2.742-1.02-4.752-1.418-2.02-.4-4.318-.65-6.388-.603"/><path fill="#A7002C" d="M16.21 8.03l-.001 2.778 11.106.012V8.058z"/><path fill="#000" d="M20.582 11.21l.002 2.418 6.72.001-.001-2.42z"/><path fill="#A7002C" d="M20.585 14.031l6.673-.001-.008 3.017-6.67.002z"/><path fill="#000" d="M14.778 3.95l-.013.373 2.447-.07c.08-.017.115-.075.144-.133l.011-.95c-.026-.076-.07-.103-.193-.128l-1.794.035c-.186-.094-.198-.25-.145-.362.033-.07.091-.107.145-.145l1.988.02v-.38l-2.35-.019c-.083.024-.196.048-.256.166a11.13 11.13 0 00-.016.86c.042.114.087.181.245.24l1.79.018c.07.045.137.112.15.21a.222.222 0 01-.095.206l-2.058.06zm5.772.614l.002-.4-1.946-.166c-.135-.029-.169-.068-.222-.136l-.002-1.105a.484.484 0 01.143-.13c.624.028 1.363.118 2.044.218l.008-.406-2.235-.21c-.143.01-.342.042-.393.22l-.017 1.7c.026.083.069.167.186.19l2.432.225zm.41.063l.415.052.002-.836 1.63.288.01.856.479.084v-2.21l-.483-.12.014.944-1.633-.269-.015-.9-.43-.075zm3.114-1.626V5.24l2.691.8.001-.55c-.733-.207-1.466-.414-2.192-.603l-.008-.403 2.18.653.004-.528-2.153-.641v-.392l2.153.629.009-.493-2.685-.71zM7.225 4.492l-1.577.501c-.056.003-.126.018-.144-.05V4.44a.192.192 0 01.111-.087l1.53-.474c.13-.02.167.136.176.25.01.138-.012.275-.096.363zm.587-.99a.214.214 0 00-.119-.144.592.592 0 00-.195-.035c-.088-.013-.455.105-.91.245-.55.17-1.23.381-1.699.528L4.918 6.4l.606-.188-.014-.772 2.167-.676c.077-.02.121-.08.154-.167l-.019-1.094zm2.471.965l-1.328.271H8.83c-.045-.017-.101-.068-.12-.172l-.02-.94c.042-.138.121-.159.215-.207l1.241-.236.182-.006a.287.287 0 01.148.194l.013.815c.007.134-.03.229-.205.28zm.68-1.576a.32.32 0 00-.273-.233l-.161-.004-2.025.406c-.176.085-.26.155-.333.377l.09 1.65c.009.107.145.191.251.17.742-.163 1.998-.383 2.225-.475a.411.411 0 00.27-.377l-.045-1.514zm2.667.269c-.052.093-.072.174-.203.218l-1.247.142-.148.012c-.039-.016-.054-.04-.07-.086V2.95s.048-.079.166-.087c.017-.01 1.197-.143 1.197-.143l.153.001c.058.03.088.063.122.111.038.108.056.22.03.329m.368.545a.528.528 0 00-.098-.133c.064-.047.144-.132.215-.203l.032-.07-.02-.8c-.056-.149-.113-.215-.235-.256h-.16l-2.231.25.058 2.195a4.75 4.75 0 00.424-.072l-.02-.61.018-.004c.072-.094.12-.114.247-.122l1.104-.107a.44.44 0 01.215.14c.117.16.188.303.269.495l.52-.052c-.11-.248-.21-.44-.338-.65"/><path fill="#F8D444" d="M11.399 10.93c2.41-.14 6.071-.093 9.177-.085l.088 6.625c-.351 6.045-9.006 5.566-9.284.003l.019-6.543z"/><path fill="#000" d="M11.682 11.183l8.617-.004-.007 6.272c-.21 5.272-8.046 5.569-8.62.021l.01-6.29z"/><path fill="#F7D244" d="M11.974 11.467l.024 6.003c.336 4.84 7.73 5.23 8.034-.022l-.003-5.98-8.055-.001z"/><path fill="#000" d="M14.573 13.825c-.015-.013-.076-.013-.114-.02-.104.12-.161.087-.241.156-.032.015-.049.008-.067-.001-.028-.01-.049-.017-.07-.036-.011-.02-.012-.034.003-.053a.298.298 0 01.088-.07c.01-.013.01-.037-.001-.046a.162.162 0 00-.11-.003.23.23 0 01-.066.039h-.082a.307.307 0 01-.123-.088l.015-.024c.06-.055.15-.1.25-.161.016-.028.032-.08.06-.108.123-.082.255-.141.382-.222l.282.004c.012-.02.022-.028.016-.064l-.23-.222c-.03-.034-.02-.06 0-.073h.057a.546.546 0 01.174.061h.186a.702.702 0 00.219-.125.62.62 0 01.158-.09c.069-.021.209-.071.265-.16.148-.164.204-.198.354-.247h.12c.028.013.03.043-.002.052-.084.026-.164.113-.202.222a.192.192 0 00-.003.11.29.29 0 00.157.115h.2c.128-.042.281-.107.38-.108h.235a.387.387 0 01.187.069c.039.02.01.042-.016.062l-.189-.007c-.09.028-.144.084-.195.136-.026.039-.033.082.001.12.034.025.06.05.072.08.022.041.03.083.046.124.074.034.139.108.193.147.08.056.177.112.222.17.032.047.06.1.053.141-.019.024-.038.025-.06 0a.664.664 0 00-.217-.12c-.036-.016-.078-.016-.106.002l-.064.052c-.019.015-.017.042.003.056.108.028.155.077.218.128.06.09.092.177.12.269.014.018.023.027.02.055-.036.037-.048.035-.074.017a.72.72 0 00-.293-.204h-.105c-.047.023-.071.03-.029.097.086.082.126.12.176.236l.015.07v.224c-.013.026-.024.025-.038 0-.065-.08-.132-.15-.206-.17a.424.424 0 00-.224-.002.517.517 0 00-.238.23c-.046.11-.114.47-.018.589.125.186.242.215.387.256.346.024.733-.002.933-.02h.455a.996.996 0 01.596.37c.021.023.062.015.073.001a.776.776 0 00.172-.262.249.249 0 00.006-.16c-.024-.038-.022-.077-.042-.115-.092-.224-.26-.416-.412-.612a.678.678 0 01-.136-.274c-.01-.077-.018-.131.003-.188a.402.402 0 01.078-.156c.034-.023.05-.024.059 0 .013.017.002.113.015.151.038.078.072.126.105.178.029.026.056.02.083 0 .032-.021.045-.253.087-.363 0-.061.067-.116.117-.155.127-.092.235-.125.367-.168.058-.029.069-.055.103-.137.02-.04.075-.042.085-.016.009.12-.034.18-.067.227a.986.986 0 01-.138.12.418.418 0 00-.086.135.63.63 0 01-.157.217c-.026.027-.036.09.002.151.03.058.049.088.075.12.038.044.085.029.115.001a.405.405 0 00.165-.343c.015-.024.047-.02.06 0 .044.089.097.168.03.295a.993.993 0 01-.208.221c-.017.022-.015.037.004.064.045.04.078.088.102.135.02.053.1.055.194.018a.163.163 0 00.057-.052c.02-.043.046-.047.06.015v.102c-.132.21-.263.184-.379.201-.037.038-.038.101 0 .148a.208.208 0 00.071.067c.052.03.111.026.157 0a.663.663 0 00.197-.198c.007-.014.017-.013.02 0 .03.04.025.126.002.18-.043.1-.15.235-.209.26-.048.031-.023.085 0 .111a.312.312 0 00.09.075l.2-.001a.322.322 0 01-.202.15l-.162.001c-.103-.04-.19-.09-.297-.119a.154.154 0 00-.12 0c-.073.026-.12.08-.177.137-.028.024-.03.041-.021.061a.63.63 0 01.001.315c-.077.299-.31.422-.416.71a.57.57 0 00.004.322c.054.104.11.2.186.282.046.072.096.103.142.194.022.036.03.08-.002.102-.027.013-.05.025-.065.086-.003.114-.033.113-.068.136-.115.11-.19.177-.284.33a.604.604 0 00-.065.12.261.261 0 01-.138.162c-.194.073-.305.18-.447.271-.045.047-.025.128-.006.183.012.03.012.053 0 .075-.045.097-.228.056-.3.118-.05.027-.085.016-.128 0-.05-.014-.047-.094 0-.145.058-.086.115-.164.183-.244a.406.406 0 01.126-.197c.134-.13.254-.244.382-.373.131-.182.201-.349.272-.592.026-.096-.03-.114-.063-.148-.296-.099-.426-.181-.541-.358-.035-.036-.07-.03-.107 0a.52.52 0 01-.092.098c.004.132.032.262.03.393-.023.046-.056.063-.086.094a5.72 5.72 0 01-.636.38 5.313 5.313 0 00-.53.311c-.057.047-.114.086-.088.193.024.06.013.075.002.095l-.294.084c-.092.015-.107-.06-.09-.092.016-.031.092-.102.164-.237.038-.09.125-.155.215-.218.176-.106.333-.208.504-.324a.482.482 0 00.138-.14c.06-.073.097-.144.2-.236.047-.03.082-.06.074-.136-.01-.09-.03-.101-.053-.142-.092-.098-.197-.22-.223-.31a.387.387 0 01.002-.255c.047-.137-.005-.126-.054-.155-.23-.025-.56.021-.872-.016l-.237-.08a.968.968 0 01-.353-.225c-.045-.056-.085-.062-.16-.002a.706.706 0 01-.281.154.502.502 0 01-.249-.003c-.066-.016-.107-.042-.233-.049-.084-.017-.142-.051-.216-.067-.048-.01-.178-.011-.267-.017-.04.03-.018.095-.072.14l-.028.034-.008.322c-.006.168.05.3.066.449l.004.138c.004.016.013.033.049.04.036.011.066.025.073.06.012.032.061.037.112.001h.127c.043.017.07.056.032.12l-.2.227c-.04.034-.061.037-.107-.004-.082-.107-.126-.23-.242-.268a.198.198 0 01-.115-.149c-.027-.194-.021-.382-.025-.598-.014-.154.004-.424-.037-.48-.041-.12-.018-.237.09-.274.032-.004.12.009.153-.01.153-.068.324-.023.57-.134.024-.014.014-.07-.006-.09a.375.375 0 00-.077-.132l-.103-.015c-.153-.016-.177-.102-.214-.197-.025-.037-.019-.154-.05-.202l-.272-.376c-.024-.04-.095-.03-.118.004a1.559 1.559 0 00-.259.336 1.046 1.046 0 00-.09.197c-.02.036-.01.102-.03.129-.045.093-.093.17-.16.209l-.023.058a.215.215 0 00-.001.161.245.245 0 01.063.047c.02.027.01.078-.018.103a.834.834 0 00-.263.124c-.012.023-.083.016-.104-.003-.027-.039-.02-.122 0-.167a.739.739 0 01.103-.165l.068-.077c-.012-.126.057-.152.072-.226l.091-.288c.068-.125.157-.221.236-.344.03-.028.032-.114.071-.132l.094-.114a.352.352 0 01.155-.177c.063-.039.123-.063.185-.016a.96.96 0 01.152.26c.01.057.07.094.109.132a.64.64 0 01.12.07.117.117 0 00.148 0c.04-.079.068-.17.103-.256.113-.286.256-.53.532-.684.065-.036.076-.083.084-.142a.368.368 0 01.106-.18c.031-.034.031-.067.002-.095-.046-.033-.128-.025-.185-.051"/></g></svg>