<svg xmlns="http://www.w3.org/2000/svg" xmlns:xlink="http://www.w3.org/1999/xlink" width="32" height="32" viewBox="0 0 32 32"><defs><path id="cars-puch-ic-puch-a" d="M0 .86v24.177h25.108V.859H0z"/><path id="cars-puch-ic-puch-c" d="M0 25.14h25.108V.964H0z"/></defs><g fill="none" fill-rule="evenodd" transform="translate(3 3)"><path fill="#000" d="M4.552 15.867l-.001.047c0 .183.009.366.02.55.012.163.029.324.05.484.512 3.868 3.855 6.869 7.898 6.885h.032c4.059 0 7.419-3.006 7.932-6.885a7.75 7.75 0 00.07-1.034l-.001-.048V9.905h-16v5.962zm.002-10.4v3.944h.9V7.95h1.13c.35 0 .589-.008.717-.021a1.31 1.31 0 00.426-.104.562.562 0 00.242-.219c.085-.142.127-.525.127-.876 0-.37-.05-.828-.154-.97-.102-.145-.301-.235-.593-.272a8.312 8.312 0 00-.773-.022H4.554zm3.824 0v2.365c0 .27.004.46.008.57l.002.066c.006.091.018.194.038.307a.87.87 0 00.028.112c.076.228.245.374.512.438.14.032.304.053.493.065.189.012.456.019.803.019.463 0 .796-.01.999-.032a1.25 1.25 0 00.47-.13.66.66 0 00.306-.36.675.675 0 00.039-.165c.01-.068.023-.176.032-.32.007-.149.014-.34.014-.57V5.467h-.878v2.365c0 .081-.005.186-.011.314-.006.12-.017.204-.03.257l-.002.008a.268.268 0 01-.067.13c-.05.054-.132.087-.251.103a4.852 4.852 0 01-.631.026c-.374 0-.623-.016-.747-.05-.12-.037-.192-.108-.217-.217V8.4a3.644 3.644 0 01-.031-.568V5.467h-.88zm4.192.725c-.013.145-.02.794-.02 1.12 0 .257.004.792.012 1.089.002.094.005.165.008.197.012.114.033.208.062.289.013.03.026.061.042.087.053.09.134.167.24.22.122.059.302.1.54.12.24.02.64.03 1.2.03.535 0 .913-.025 1.129-.074.218-.05.365-.143.44-.283.017-.03.03-.065.044-.1.039-.112.057-.25.057-.415l-.001-.071c0-.164-.002-.559-.007-.672h-.9a6.792 6.792 0 01-.046.672c-.01.075-.024.13-.038.144-.041.037-.117.06-.232.071a8.104 8.104 0 01-.688.018c-.28 0-.473-.006-.586-.019a.485.485 0 01-.24-.075.272.272 0 01-.094-.138l-.015-.052c-.017-.088-.028-.826-.028-1.04 0-.215.012-.781.032-.88.02-.1.057-.17.112-.212a.487.487 0 01.23-.07 6.69 6.69 0 01.583-.015c.284 0 .495.006.634.019.142.013.229.033.263.063a.152.152 0 01.048.08c.008.03.014.467.019.56h.897c.003-.08.003-.128.003-.14 0-.235-.027-.783-.08-.903a.564.564 0 00-.286-.271 1.414 1.414 0 00-.414-.094 9.682 9.682 0 00-.828-.025c-.76 0-1.266.027-1.517.08-.25.053-.418.172-.5.351-.035.08-.063.192-.075.34zm4.058-.725v3.83h.945v-1.68h2.03v1.68h.945v-3.83h-.945V6.82h-2.03V5.467h-.945zM2.005 16.947a10.479 10.479 0 01.337-8.545C4.156 4.724 8.055 2.17 12.552 2.17c4.5 0 8.398 2.554 10.214 6.232.079.16.153.321.223.485.558 1.282.865 2.691.865 4.166a10.4 10.4 0 01-.751 3.895c-1.633 4.078-5.75 6.984-10.55 6.984-4.8 0-8.916-2.906-10.548-6.984z"/><g transform="translate(0 .104)"><mask id="cars-puch-ic-puch-b" fill="#fff"><use xlink:href="#cars-puch-ic-puch-a"/></mask><path fill="#000" d="M1.309 8.783a9.27 9.27 0 01.206-.485C3.383 4.21 7.632 1.343 12.553 1.343c4.924 0 9.172 2.867 11.04 6.955a11.131 11.131 0 011.012 4.651 11.14 11.14 0 01-.7 3.895c-1.67 4.485-6.131 7.708-11.352 7.708-5.22 0-9.682-3.223-11.35-7.708a11.172 11.172 0 01.105-8.061m-.637 8.061c1.689 4.757 6.383 8.193 11.882 8.193 5.5 0 10.195-3.436 11.885-8.193a11.613 11.613 0 00-.299-8.546C22.242 3.937 17.759.859 12.553.859 7.349.86 2.868 3.937.969 8.298a11.63 11.63 0 00-.298 8.546" xmask="url(#cars-puch-ic-puch-b)"/></g><path fill="#000" d="M6.953 7.233a.331.331 0 00.121-.035.187.187 0 00.094-.105c.018-.049.027-.462.027-.563a.56.56 0 00-.033-.223.2.2 0 00-.113-.102c-.04-.015-.199-.025-.47-.03H5.453v1.067h1.124c.203 0 .328-.006.375-.009"/><path fill="#42A500" d="M20.56 16.48c.012-.187.022-.374.022-.562l-.001-.047v-.144h-7.999v8.1c4.009 0 7.387-3.042 7.923-6.852a7.85 7.85 0 00.055-.495z"/><mask id="cars-puch-ic-puch-d" fill="#fff"><use xlink:href="#cars-puch-ic-puch-c"/></mask><path fill="#42A500" d="M4.54 15.665h7.978V9.908H4.541z" xmask="url(#cars-puch-ic-puch-d)"/></g></svg>