<svg xmlns="http://www.w3.org/2000/svg" xmlns:xlink="http://www.w3.org/1999/xlink" width="32" height="32" viewBox="0 0 32 32"><defs><path id="cars-saab-ic-saab-a" d="M0 .513h24.512v24.524H0z"/></defs><g fill="none" fill-rule="evenodd"><g transform="translate(3 3.45)"><mask id="cars-saab-ic-saab-b" fill="#fff"><use xlink:href="#cars-saab-ic-saab-a"/></mask><path fill="#152256" d="M12.256 1.412c6.263 0 11.37 5.101 11.37 11.368 0 6.256-5.107 11.36-11.37 11.36-6.261 0-11.37-5.104-11.37-11.36 0-6.267 5.109-11.368 11.37-11.368m0 23.625c6.77 0 12.257-5.487 12.257-12.257 0-6.777-5.487-12.267-12.257-12.267C5.488.513 0 6.003 0 12.78c0 6.77 5.488 12.257 12.256 12.257" xmask="url(#cars-saab-ic-saab-b)"/></g><path fill="#DBB654" d="M11.732 6.5h7v3.15h-7z"/><path fill="#162357" d="M9.642 22.35c-.923 0-1.572-.15-1.572-.89 0-.835.975-1.015 1.748-1.015.964 0 1.877.164 1.877.963H10.37c0-.34-.223-.392-.55-.392-.277 0-.48.08-.48.284 0 .223.177.303.652.303 1.18 0 1.704.206 1.782.754l.776-1.86h1.685l.827 1.994.829-1.994h1.682l.918 2.21v-2.21h2.694c.686 0 .857.474.857.752 0 .267-.113.614-.63.692.59.053.719.513.719.78 0 .3-.22.81-.813.81h-3.649l-.196-.484h-1.488l-.197.484h-1.452l-.205-.484h-1.49l-.196.484h-1.157l.107-.269c-.173.163-.49.352-1.533.352-.994 0-1.893-.214-1.91-1.037h1.325c0 .2.133.407.56.407.522 0 .578-.177.578-.297 0-.19-.143-.337-.772-.337m.893-10.066c.566.003 1-.2 1.378-.2.29 0 .787.145 1.015.646-.128-.098-.396-.24-.827-.24-.309 0-.87.31-1.332.31-.726 0-1.15-.593-1.385-1.125.228.225.607.6 1.15.609m1.44-2.315c.294 0 .622.102.988.307.056-.281.233-.589.45-.665-.02.01-.038.011-.057.018L12.061 6.6c.535 0 1.09.23 1.09.67 0 .128-.048.279-.17.448 0 .017.01.024.024.024.008 0 .013 0 .024-.007a.474.474 0 01.378-.17.51.51 0 01.508.51c0 .27-.228.5-.508.5-.038 0-.073 0-.098-.01.013.115.388.314.793.314.33 0 .683-.132.891-.535a.48.48 0 01-.293.1c-.296 0-.526-.22-.526-.5 0-.285.23-.51.526-.51a.46.46 0 01.264.078.543.543 0 01-.164-.368c0-.28.234-.51.52-.51a.503.503 0 11.37.851.479.479 0 01.235-.05.506.506 0 110 1.01.534.534 0 01-.337-.116c.067.223.45.591.938.591.25 0 .527-.1.805-.354-.036.008-.066.008-.091.008a.515.515 0 01-.527-.5c0-.28.231-.51.527-.51a.47.47 0 01.364.17c.008.008.016.008.026.008.012 0 .025-.007.025-.024-.12-.17-.173-.32-.173-.452 0-.436.554-.666 1.084-.666l-1.271 2.995c.083.075.165.175.227.283a2.09 2.09 0 01.737-.136c.19 0 .315.028.343.035 0 0 .154.038.178.08a4.367 4.367 0 01-.451.873c.652.664.902 1.499.78 2.585a2.666 2.666 0 00-.762-.327c.338.53.446.983.446 1.506 0 .389-.08.775-.236 1.143l-.12.289a2.637 2.637 0 00-.593-.677c.054.177.124.566.124.832 0 .703-.276 1.331-.937 1.735a4.29 4.29 0 00-.65-1.13c.03.65-.004 1.393-.248 1.908-.496.656-1.185 1.043-2.245 1.285.178-.44.34-1.599.258-3.03-.211.315-.464.917-.544 1.686-.257-.203-1.023-.8-1.023-1.802 0-.414.143-.83.422-1.253-.39.142-.632.393-.895.894-.091-.719.032-1.508.421-2.072-.94-.038-1.218-.592-1.168-1.414.273.22.563.393.951.393.382 0 .878-.172 1.377-.814-.216-.13-.44-.198-.588-.248-.188-.058-.487-.127-.762-.475-.104-.126-.276-.174-.497-.174-.258 0-.648.072-1.263.363.08-1.5.804-1.964 1.396-1.964m3.283 17.209c6.043 0 10.953-4.911 10.953-10.948 0-6.051-4.91-10.956-10.953-10.956C9.214 5.274 4.31 10.18 4.31 16.23c0 6.037 4.905 10.948 10.947 10.948"/><path fill="#9C0037" d="M14.936 10.753c-.065-.019-.14-.013-.222-.019-.009.119-.121.262-.352.262-.215 0-.324-.123-.358-.225a.965.965 0 01-.16-.03c.004.37.272.485.525.485.186 0 .485-.065.567-.473"/><path fill="#9C0037" d="M12.963 11.333a.85.85 0 00.483.325c.356.1.958.314.958.594a.284.284 0 01-.076.188c-.6.777-1.168.972-1.636.972-.216 0-.405-.039-.557-.095.11.36.476.452.774.452.23 0 .456-.033.898-.14-.474.372-.874.836-.968 1.559.42-.308.855-.374 1.31-.387-.537.574-.861 1.156-.861 1.738 0 .586.278.93.447 1.138.215-.966.706-1.573 1.022-1.866.192 1.347.098 2.81-.018 3.38.563-.197 1.077-.467 1.464-.978.225-.411.246-1.556.173-2.484.516.314.945.89 1.155 1.346.305-.28.46-.674.46-1.188 0-.597-.189-1.103-.367-1.503.416.131.773.332 1.07.656.08-.248.125-.5.125-.748 0-.91-.499-1.574-.851-1.909.553 0 .881.09 1.19.203.019-.562-.124-1.267-.658-1.802-.47.535-.915.854-1.81 1.16.786.626.563 1.53-.187 2.437-.062-.38-.178-.715-.434-1.013.046.501-.064 1.416-1.11 1.91a3.235 3.235 0 00-.098-1.082c-.074.08-.2.197-.333.289a1.542 1.542 0 01-.033-.415c.187-.15.36-.35.52-.574.157.392.254.923.273 1.16.37-.34.65-.963.275-2.102.563.284.84.573 1.057 1.054.576-.967-.03-1.48-.918-1.82 1.057-.107 2.338-.587 2.97-1.897-.427-.019-1.115.138-1.753.973a.785.785 0 01-.227-.211c.263-.363.584-.652.919-.84a.29.29 0 00-.08-.112h-3.632c-.127 0-.258.238-.32.506.095.028.223.039.344.039.14 0 .267-.017.423-.017.25 0 .662.034.892.181a.708.708 0 01-.147.252.97.97 0 00-.149-.06c-.123.597-.551.728-.827.728-.736 0-.874-.563-.827-.887-.366-.219-.68-.332-.952-.332-.635 0-.89.685-.984 1.098.333-.115.618-.175.863-.175.317.002.565.099.748.299"/><path fill="#162357" d="M16.729 21.221l-.457 1.12h.918zm-3.338 0l-.46 1.12h.913zm7.383.216a.218.218 0 00-.218-.218h-.945v.435h.945c.12 0 .218-.093.218-.217m.074 1.08c0-.114-.103-.208-.223-.208h-1.014v.428h1.014c.12 0 .223-.096.223-.22"/></g></svg>