<svg xmlns="http://www.w3.org/2000/svg" xmlns:xlink="http://www.w3.org/1999/xlink" width="32" height="32" viewBox="0 0 32 32"><defs><path id="cars-scion-ic-scion-a" d="M0 .045v22.024h31.936V.045H0v22.024h31.936V.045H0z"/></defs><g fill="none" fill-rule="evenodd"><g transform="translate(0 5.04)"><mask id="cars-scion-ic-scion-b" fill="#fff"><use xlink:href="#cars-scion-ic-scion-a"/></mask><path fill="#75767C" d="M15.969 20.388c-7.134 0-12.916-4.178-12.916-9.33 0-5.155 5.782-9.332 12.916-9.332 7.13 0 12.914 4.177 12.914 9.332 0 5.152-5.782 9.33-12.914 9.33m0-20.343C7.164.045 0 4.985 0 11.058c0 6.071 7.164 11.011 15.969 11.011 4.26 0 8.265-1.142 11.278-3.215 3.024-2.08 4.689-4.849 4.689-7.796 0-6.073-7.163-11.013-15.967-11.013" xmask="url(#cars-scion-ic-scion-b)"/></g><path fill="#B7B6B9" d="M16.195 25.428c-7.134 0-12.915-4.178-12.915-9.33 0-5.155 5.781-9.332 12.915-9.332 7.131 0 12.914 4.177 12.914 9.332 0 5.152-5.781 9.33-12.914 9.33M15.969 5.17C7.195 5.17.085 10.062.085 16.098c0 6.034 7.11 10.926 15.884 10.926 8.772 0 15.882-4.892 15.882-10.926 0-6.036-7.112-10.928-15.882-10.928"/><path fill="#71727A" d="M15.969 25.428c-7.134 0-12.916-4.178-12.916-9.33 0-5.155 5.782-9.332 12.916-9.332 7.13 0 12.914 4.177 12.914 9.332 0 5.152-5.782 9.33-12.914 9.33m0-19.294c-7.59 0-13.741 4.46-13.741 9.964 0 5.501 6.151 9.962 13.74 9.962 7.59 0 13.74-4.46 13.74-9.962 0-5.504-6.152-9.964-13.74-9.964"/><path fill="#E0DEDC" d="M15.969 26.06c-7.59 0-13.741-4.46-13.741-9.962 0-5.504 6.151-9.964 13.74-9.964 7.588 0 13.74 4.46 13.74 9.964 0 5.501-6.15 9.962-13.74 9.962m0-20.096c-7.67 0-13.91 4.546-13.91 10.134 0 5.586 6.24 10.132 13.91 10.132s13.91-4.546 13.91-10.132c0-5.588-6.24-10.134-13.91-10.134"/><path fill="#E0DEDC" d="M29.494 14.336H2.442a7.354 7.354 0 000 3.522h27.052a7.36 7.36 0 000-3.522"/><path fill="#71727A" d="M28.592 14.123H3.344s-.885.333-.902.5h27.052c-.017-.167-.902-.5-.902-.5M3.284 17.858h-.842c.017.168.901.5.901.5h25.25s.884-.333.901-.5H3.284zm26.221-.007l-.01.04.01-.04m-27.058.028l-.006-.025.006.025"/><path fill="#E0DEDC" d="M16.36 6.325s-3.545 3.622-4.176 8.01h3.092c-1.066-3.466 1.084-8.01 1.084-8.01"/><path fill="#71727A" d="M15.276 14.336h2.527c-2.857-1.557-1.443-8.011-1.443-8.011s-2.15 4.544-1.084 8.01"/><path fill="#E0DEDC" d="M15.576 25.869s3.545-3.622 4.176-8.01H16.66c1.066 3.465-1.084 8.01-1.084 8.01"/><path fill="#71727A" d="M16.66 17.858h-2.527c2.857 1.556 1.443 8.011 1.443 8.011s2.15-4.545 1.084-8.01"/><path fill="#060506" d="M21.54 15.29h-3.513c-.13 0-.232.096-.232.21v1.19c0 .116.102.213.232.213h3.513c.13 0 .232-.097.23-.212l.003-1.19c-.002-.115-.103-.212-.233-.212zm1.032.2v1.212c0 .362-.309.655-.689.655h-4.197c-.382 0-.69-.293-.69-.655V15.49c0-.36.308-.655.69-.655h4.197c.38 0 .689.295.689.655zm-6.2-.655v2.524h-.804l.001-2.524h.803zm-6.203 1.856c0 .115.1.212.23.212h4.546v.454h-4.887c-.382 0-.69-.293-.69-.655V15.49c0-.36.308-.655.69-.655h4.887v.454H10.4c-.13 0-.23.1-.23.214v1.188zm-7.014.21l4.561.002c.135 0 .229-.082.227-.198l-.001-.377H3.16v-.838c0-.367.31-.655.69-.655h4.892v.454H4.155c-.146 0-.195.087-.195.201l-.005.384h4.789v.831c0 .37-.305.652-.688.652H3.641c-.268 0-.486-.196-.486-.456zm25.625.002c0 .26-.218.454-.487.454h-.295v-1.855c0-.116-.1-.213-.227-.213h-3.775v2.068h-.8v-2.522h4.917c.377 0 .669.295.669.655l-.002 1.413z"/></g></svg>