<svg xmlns="http://www.w3.org/2000/svg" width="32" height="32" viewBox="0 0 32 32"><g fill="none" fill-rule="evenodd" transform="translate(3 3)"><circle cx="13" cy="13" r="13" fill="#000"/><path fill="#FFF" d="M17.213 3.716l.096.042c.229.096.37.215.437.354.065.138.055.308-.035.511-.085.202-.2.329-.341.378-.148.05-.33.026-.558-.07l-.097-.044.498-1.171zM16.48 5.35c.276.116.485.188.63.216.142.024.282.022.416-.006a.977.977 0 00.458-.23c.13-.116.237-.27.315-.457.08-.188.114-.368.11-.544a1.003 1.003 0 00-.154-.489 1.087 1.087 0 00-.293-.31c-.123-.089-.35-.203-.681-.343L16.84 3l-.9 2.123.443.189.098.038zm-3.89-2.422a.546.546 0 01.432-.196c.169 0 .315.065.428.196a.688.688 0 01.173.481c0 .196-.055.36-.17.489a.561.561 0 01-.431.19.554.554 0 01-.434-.19.706.706 0 01-.168-.489c0-.194.058-.356.17-.481m-.437 1.338a1.189 1.189 0 00.869.352c.162 0 .317-.031.471-.089a1.241 1.241 0 00.665-.65c.063-.148.094-.304.094-.47 0-.165-.031-.319-.094-.464a1.215 1.215 0 00-.665-.652 1.271 1.271 0 00-.471-.093c-.164 0-.324.033-.474.093-.148.061-.284.15-.395.261a1.2 1.2 0 00-.272.391 1.224 1.224 0 000 .93c.063.146.151.278.272.391M21.13 6.71c-.031.041-.052.074-.065.094l-.432.669-.401-.479.729-.311c.046-.019.09-.042.14-.065.047-.022.096-.05.148-.074a4.29 4.29 0 00-.12.166zm-2.125.162l.4.482.395-.174.575.683-.242.356.4.476 1.253-2.091L21.28 6l-2.275.872zm-13.955.1c.129.111.26.163.395.157.135-.008.3-.074.495-.208.14-.092.239-.143.302-.152.063-.01.12.012.18.064a.219.219 0 01.077.173.328.328 0 01-.084.201.55.55 0 01-.24.153 1.096 1.096 0 01-.36.051l.166.521c.17-.016.317-.053.446-.118a1.19 1.19 0 00.349-.276c.176-.203.258-.413.252-.631a.761.761 0 00-.288-.568.76.76 0 00-.225-.143.535.535 0 00-.235-.037c-.117.003-.284.081-.503.229l-.026.017a.686.686 0 01-.23.117.187.187 0 01-.15-.044.17.17 0 01-.056-.146.301.301 0 01.08-.173.573.573 0 01.182-.141.801.801 0 01.247-.072L5.61 5.5a1.16 1.16 0 00-.33.14c-.1.064-.19.145-.273.24a.793.793 0 00-.22.57.713.713 0 00.262.522m4.097-1.258l-.453-.93 1.13.6.702-.346-1.348-.654L9.448 3l-.657.319-.197 1.262-.458-.939-.556.272 1.006 2.071z"/><path fill="#FFF" d="M24.712 12.999v.003a11.67 11.67 0 01-3.437 8.273A11.664 11.664 0 0113 24.713a11.661 11.661 0 01-8.275-3.438 11.671 11.671 0 01-3.439-8.273v-.003c0-3.224 1.316-6.153 3.439-8.275A11.673 11.673 0 0113 1.287c3.227 0 6.156 1.316 8.276 3.437A11.68 11.68 0 0124.712 13M13 1.001a11.956 11.956 0 00-8.48 3.521A11.955 11.955 0 001 13v.003c0 3.303 1.346 6.302 3.518 8.478a11.968 11.968 0 0016.958 0 11.963 11.963 0 00.004-16.958A11.963 11.963 0 0013 1"/><path fill="#FFF" d="M13.003 5h-.004a7.978 7.978 0 00-5.65 2.35A7.973 7.973 0 005 13.001c0 2.204.9 4.206 2.346 5.656a7.989 7.989 0 005.657 2.346c2.2 0 4.2-.899 5.649-2.346a7.976 7.976 0 000-11.307A7.967 7.967 0 0013.003 5"/><path fill="#04A654" d="M13.972 13.875a.693.693 0 01.972.01c.27.272.274.709.009.974a.688.688 0 01-.97-.013.69.69 0 01-.01-.971m-1.96-5.743c.617.456.956.748 1.269 1.457l-.273.157c-.511-.674-1.117-1.37-1.816-1.764-.751-.4-2.496 1.573-2.28 1.664.698.328 1.604.752 2.12 1.123l-.223.355c-.71-.412-1.845-.978-2.416-.943-.294.044-.925 2.093-.607 2.172.661.056 1.893.72 2.462 1.009.397.316 1.614 2.362 1.123 2.65-.159.096-.646-.013-1.143-.26-2.279-.924-2.45.106-2.023.422.343.214.225.594.242.688-.02.575.595 1.024 1.777.22 2.421.03 3.8.084 6.226.118.222.71 1.755-.01 2.249-.598-.207-.5-1.985-1.747-2.214-.477l-.638-.121c1.375-2.929.96-8.454-2.26-8.996-.49-.08-2.491.447-1.575 1.124"/></g></svg>