<svg xmlns="http://www.w3.org/2000/svg" width="32" height="32" viewBox="0 0 32 32"><g fill="none" fill-rule="evenodd"><path fill="#BCBEC0" d="M.074 11.278s.085-.303.385-.208l15.43 4.852 15.532-4.873s.29-.096.389.22c-.516.18-15.925 5.705-15.925 5.705L.074 11.278z"/><path fill="#BCBEC0" d="M19.74 14.712c-.78-1.664-2.445-2.795-4.343-2.795-1.8 0-3.36 1.015-4.183 2.541l.302.45c.712-1.481 2.183-2.499 3.881-2.499 1.825 0 3.408 1.156 4.049 2.819l.294-.516zm-.522 2.458c-.122 2.089-1.786 3.744-3.82 3.744-2.115 0-3.828-1.786-3.828-3.99 0-.068.001-.137.005-.205l-.46-.58a4.76 4.76 0 00-.066.792c0 2.503 1.947 4.532 4.348 4.532 2.402 0 4.349-2.03 4.349-4.532 0-.156-.008-.31-.023-.463l-.505.702z"/><path fill="#BCBEC0" d="M12.471 18.198s-.108-.328.241-.48c.35-.152.52-.218.52-.218l2.652-.526-3.413 1.224z"/><path fill="#231F20" d="M19.739 16.496l-.012.018c.012.135.019.272.019.41 0 2.5-1.944 4.526-4.342 4.526-2.398 0-4.342-2.026-4.342-4.526 0-.25.02-.497.058-.737l-.5.158c-.022.194-.034.39-.034.59 0 2.773 2.157 5.02 4.818 5.02 2.66 0 4.818-2.247 4.818-5.02a5.17 5.17 0 00-.005-.205l-.478-.234z"/><path fill="#231F20" d="M31.82 11.265l-15.936 5.71L.065 11.276s-.038.094-.038.154.006.205.203.292c.196.086 10.394 4.626 10.394 4.626l.497-.158.462.573 1.656.737 2.632-.522-3.405 1.22s.042.202.323.223c.282.02 3.132.263 3.132.263l3.292-1.463.515-.714.484.258s11.222-4.949 11.472-5.055c.25-.105.137-.446.137-.446"/><path fill="#1D1D1B" d="M12.164 14.745c.685-1.1 1.874-1.828 3.225-1.828 1.458 0 2.725.846 3.376 2.092l.68.22c-.648-1.66-2.21-2.83-4.036-2.83-1.707 0-3.185 1.023-3.9 2.513l.655-.167z"/></g></svg>