<svg xmlns="http://www.w3.org/2000/svg" xmlns:xlink="http://www.w3.org/1999/xlink" width="32" height="32" viewBox="0 0 32 32"><defs><path id="cars-vauxhall-ic-vauxhall-a" d="M32 0v33.033H0V0z"/></defs><g fill="none" fill-rule="evenodd"><mask id="cars-vauxhall-ic-vauxhall-b" fill="#fff"><use xlink:href="#cars-vauxhall-ic-vauxhall-a"/></mask><path fill="#CE1017" d="M25.23 12.7c-.037 1.3-.55 2.197-1.4 2.737-.725.473-1.684.7-2.833.757l-.232.19c.729.087 2.09-.072 2.71-.407-.726 1.74-2.463 1.775-5.492 1.74 1.311.808 2.198.856 3.35 1.344.975.441 1.876 1.091 2.162 2.216.227-.442.174-1.178.087-1.805-.162-1.226 0-2.647.601-3.35.285-.348.604-.563.924-.685a1.683 1.683 0 011.133 0c.584.251.937.828.709 1.504-.144.393-.497.88-.09 1.158-.709.426-1.204-.244-1.028-.82.107-.32.072-.523-.087-.669-.232-.207-.497-.048-.497-.048s-.072.106-.09.157c.338-.072.62.56-.034 1.088.017-.528-.869-.724-.975.173-.087.91.992 2.876-.175 4.711-.833 1.3-2.322 2.224-3.526 2.945-1.736-.4-7.35-.33-8.732-.03-1.24-.527-2.34-1.339-3.242-2.318a9.926 9.926 0 01-.764-.929c-.138.035-.317.053-.601.086.036-.206.072-.437.107-.54-.372-.195-.69-.716-.652-1.12a1.702 1.702 0 01-.497-.28c.034-.107.139-.353.28-.577a12.866 12.866 0 01-.724-2.948 2.513 2.513 0 01-.603-.155s.212-.303.266-.545c-.088-.332-.107-.612-.054-.843a.82.82 0 01.143-.35l-.268-.557c.32-.179.495-.302.655-.35.09-.408.178-.807.304-1.198.497-1.718 1.326-3.4 2.301-4.414 1.01-.278 3.136-.368 4.39-.278-.424.664-1.466 2.347-1.805 2.963a29.81 29.81 0 00-3.489.174c-.228.525-.44 1.07-.62 1.627a7.16 7.16 0 00-.28 1.297c.156.18.28.49.83.51 1.01.068 2.144-.02 2.798-.02.533 0 .747-.367.939-.947-.229.035-.638.035-1.133.285.423-.877 1.274-1.592 1.825-1.809a1.85 1.85 0 01.088-.209c-.425.014-.973.157-1.276.35.567-.82.94-1.21 1.808-1.4.034-.072.053-.14.106-.19-.23 0-.462-.037-.886.118.338-.527.744-.912 1.346-.965.283-.539.779-1.048 1.382-1.662.054.526.123.808.16.911.017.037.035.057.085.076.39.012.925.08 1.155.116.353.067.406.196.423.54 1.223.247 1.33.918.727 1.933-.105-.425-.514-.616-1.223-.877l-.123.153c.602.215.637.335.602.71-.406-.283-1.24-.18-1.364.541-.232 1.363 1.046 3.031 1.027 3.031 2.392-1.282 3.189-3.102 2.479-4.925-1.395-3.596-5.522-3.995-7.474-3.628 1.952-1.929 5.155-1.77 7.032.032 1.7 1.508 1.966 2.773 2.091 3.98l.282.034c.284-2.364-1.54-5.006-4.532-5.799 4.073-.614 6.608 2.152 5.88 6.168l.212.171c.816-1.524.602-4.168-1.24-5.429 2.145.437 3.384 2.262 3.12 4.362-.088.788-.5 1.65-1.188 2.173l.052.211c1.544-.753 1.736-2.697 1.521-3.819.375.283.854.96.977 1.334.637 2.033-.799 3.662-2.747 4.06l-.12.25c1.344-.072 2.532-.894 3.027-2.02M16 3C8.828 3 3 8.815 3 15.997 3 23.185 8.83 29 16 29c7.172 0 13-5.815 13-13.002C29 8.816 23.172 3 16 3" xmask="url(#cars-vauxhall-ic-vauxhall-b)"/><path fill="#CE1017" d="M9.755 10.968c.3-.563.862-1.425 1.245-1.968h-.928L9.3 10.252l-.545-1.168L8 9.2l.702 1.8c.37-.032.597-.032 1.053-.032m6.008-.596a.624.624 0 01.176-.086c.088-.057.053-.111-.056-.13a.636.636 0 01-.266-.07c-.23-.084-.511-.168-.617.07.317.073.477.41.763.216M11 18.458a15.033 15.033 0 01-.389-1.266h-.368c0 .272.058.769.175 1.106-.66-.016-1.322-.712-1.42-1.141l-.39-.022c.02.2.193.718.272.842-.566-.016-1.166-.534-1.305-.89h-.311c.06.231.077.499.156.766-.311-.015-1.11-.517-1.188-.853L6 17.086c.08.639.197 1.264.37 1.871.097.287.215.591.328.891.489.218 1.13.218 1.851-.108.954-.429 1.752-.946 2.451-1.282M11.702 20l-.223.112c.035.142.373.552.578.677-.578.206-1.121.095-1.576-.318l-.257.111c.137.224.39.44.644.6-.558.156-1.392-.03-1.577-.285l-.238.098c.05.156.355.49.526.598-.425.128-1.071.016-1.458-.28L8 21.466c.238.316.508.617.815.881A7.6 7.6 0 009.58 23c3.105-.602 7.364-.473 9.401-.212.153-1.036-.56-1.89-2.58-1.855-2.92.062-3.646-.05-4.698-.933"/></g></svg>