<svg xmlns="http://www.w3.org/2000/svg" xmlns:xlink="http://www.w3.org/1999/xlink" width="32" height="32" viewBox="0 0 32 32"><defs><path id="cars-volkswagen-ic-volkswagen-a" d="M0 25V.3h24.7V25H0z"/></defs><g fill="none" fill-rule="evenodd"><path fill="#305BA0" d="M18.723 7.326a9.23 9.23 0 00-2.367-.304c-.8 0-1.578.102-2.316.294l2.347 6.474 2.336-6.464zm6.881 8.954c0-1.154-.2-2.257-.586-3.278l-4.401 11.483c2.953-1.547 4.987-4.641 4.987-8.204"/><path fill="#305BA0" d="M21.01 8.277l-2.712 7.466h-3.821l-2.723-7.496a9.355 9.355 0 00-2.613 2.235l3.866 10.028 1.47-3.664h3.821l1.255 3.664 3.906-10.148a9.307 9.307 0 00-2.449-2.085"/><g transform="translate(4 3.625)"><mask id="cars-volkswagen-ic-volkswagen-b" fill="#fff"><use xlink:href="#cars-volkswagen-ic-volkswagen-a"/></mask><path fill="#305BA0" d="M12.356 23.42c-5.93 0-10.778-4.836-10.778-10.765 0-5.94 4.849-10.784 10.778-10.784s10.776 4.844 10.776 10.784c0 5.929-4.847 10.766-10.776 10.766m0-23.12C5.557.3 0 5.845 0 12.655 0 19.446 5.557 25 12.356 25c6.803 0 12.345-5.553 12.345-12.344C24.7 5.846 19.159.3 12.356.3" xmask="url(#cars-volkswagen-ic-volkswagen-b)"/></g><path fill="#305BA0" d="M16.276 18.81l-2.387 6.193-.012.192c.79.222 1.62.333 2.48.333.807 0 1.59-.101 2.334-.294l-.028-.232-2.387-6.192zM7.1 16.28a9.237 9.237 0 004.814 8.105l-4.29-11.18a9.096 9.096 0 00-.523 3.076"/></g></svg>