<svg xmlns="http://www.w3.org/2000/svg" width="28" height="25" viewBox="0 0 28 25"><g fill="none" fill-rule="evenodd"><path fill="#E3E3E3" d="M3.23 17.23L7.485 17c1.33 2.548 3.454 4.044 6.516 4.044 3.066 0 5.246-1.265 6.578-3.813h3.5c-1.504 4.15-5.914 7.127-10.621 7.127-4.708 0-8.724-2.977-10.226-7.127zM19.681 4.881c.157.108.373.131.51 0l2.085-1.656a.395.395 0 00-.044-.609l-.996-.726 4.83-.275.062 4.656-.702-.82a.4.4 0 00-.284-.132.397.397 0 00-.296.111l-2.3 2.178c-.146.138.268.28.38.439.545.795 1.063 1.723 1.374 2.615h-3.53c-1.274-2.718-3.929-4.39-7.114-4.39-3.183 0-4.931 1.839-6.207 4.557l-4.218-.167c1.467-4.216 5.514-7.253 10.268-7.253 2.217 0 4.364.228 6.182 1.472z"/><path fill="#0C3693" d="M2.154 10.77h23.692s1.632.9 1.632 3.23-1.632 3.23-1.632 3.23H2.154S.31 16.386.31 14s1.844-3.23 1.844-3.23z"/><path fill="#9B9B9B" d="M25.476 16.475H2.454C1.315 15.612.75 14.721.773 13.815c.033-1.329 1.322-2.36 1.674-2.621h23.027c1.083.838 1.622 1.72 1.607 2.616-.024 1.33-1.255 2.391-1.605 2.665m-17.417.772h11.812a6.881 6.881 0 01-5.905 3.356 6.885 6.885 0 01-5.907-3.356m5.849 6.85c-4.526 0-8.386-2.86-9.83-6.85h3.1c1.28 2.45 3.842 4.13 6.786 4.13 2.947 0 5.508-1.68 6.789-4.13h2.984c-1.446 3.99-5.305 6.85-9.83 6.85m6.13-13.672H7.895c1.163-2.173 3.449-3.654 6.07-3.654 2.623 0 4.906 1.48 6.072 3.654m-6.13-6.972c2.132 0 4.182.632 5.93 1.828a.387.387 0 00.485-.043l2.023-1.962a.38.38 0 00-.042-.585l-.958-.698 4.644-.264.059 4.475-.675-.788a.385.385 0 00-.273-.128.382.382 0 00-.284.108l-2.212 2.093a.379.379 0 00-.053.495 10.3 10.3 0 011.231 2.44h-2.885C19.673 7.813 17.026 6 13.964 6c-3.06 0-5.705 1.813-6.931 4.426H4.038c1.41-4.053 5.3-6.972 9.87-6.972m11.696 6.972h-1.009c-.29-.912-.7-1.785-1.224-2.599l1.68-1.596 1.106 1.279a.395.395 0 00.43.108.382.382 0 00.247-.366l-.078-5.935a.389.389 0 00-.124-.276.368.368 0 00-.285-.106l-6.125.351a.387.387 0 00-.348.275.391.391 0 00.142.423l1.462 1.06-1.47 1.422a11.264 11.264 0 00-6.1-1.783c-5.001 0-9.247 3.257-10.688 7.743h-.895a.372.372 0 00-.21.06c-.086.055-2.06 1.37-2.114 3.306-.033 1.2.883 2.898 2.097 3.382.078.03.146.074.227.074h.936c1.476 4.421 5.689 7.624 10.647 7.624s9.17-3.203 10.644-7.624h1.052c.08 0 .156-.023.22-.07.333-.004 1.993-1.405 2.028-3.35.023-1.188-.656-2.308-2.015-3.328a.376.376 0 00-.233-.074z"/><path fill="#FFF" d="M7.852 12.407H5.63v.436h.592l-1.027 1.903-1.11-1.894.81-.006-.002-.44H1.67v.446h.742l.296.543.825 1.52.333.605h1.789l.677-1.241.776-1.433h.023l.721-.005zm1.965 2.71c-.33 0-.596-.529-.596-1.187 0-.657.266-1.185.596-1.185.33 0 .596.528.596 1.185 0 .658-.267 1.187-.596 1.187m.033-2.798c-1.263 0-2.287.736-2.287 1.645 0 .905 1.024 1.643 2.287 1.643 1.262 0 2.285-.738 2.285-1.643 0-.91-1.023-1.645-2.285-1.645m14.407 2.779a.27.27 0 01-.094.02c-.33 0-.597-.53-.597-1.188 0-.657.267-1.185.597-1.185.046 0 .09.01.133.03.265.117.462.59.462 1.155.001.592-.217 1.08-.501 1.168m-.015-2.777c-.015-.002-.032-.002-.046-.002-1.264 0-2.286.736-2.286 1.644 0 .905 1.014 1.638 2.27 1.645h.016c.276 0 .54-.036.784-.102.876-.231 1.502-.833 1.502-1.543 0-.697-.601-1.29-1.448-1.53a2.97 2.97 0 00-.792-.112m-8.914 2.713h-.77v-2.183l.731-.005v-.439H12.35v.444h.744v2.183h-.782v.485l.783.002h3.709v-1.445h-.485c-.026.764-.704.958-.99.958m6.861-2.627h-2.223v.436h.591l-1.027 1.903-1.11-1.894.81-.006-.002-.44h-3.225v.446h.744l1.454 2.668h1.79l.855-1.574.597-1.1h.134l.61-.005z"/></g></svg>