<?xml version="1.0" encoding="UTF-8"?>
<svg width="16px" height="16px" viewBox="0 0 16 16" version="1.1" xmlns="http://www.w3.org/2000/svg" xmlns:xlink="http://www.w3.org/1999/xlink">
    <title>safari-pinned-tab</title>
    <g id="safari-pinned-tab" stroke="none" stroke-width="1" fill="none" fill-rule="evenodd">
        <path d="M7.99977778,3.55271368e-15 C8.13364444,3.55271368e-15 8.26684444,0.00376952 8.39937778,0.0100516444 L8.27312808,0.0045516306 C8.31387694,0.00591510464 8.35454833,0.00758327477 8.39514005,0.00955393703 L8.39937778,0.0100516444 L8.66566637,0.027240882 C10.3102068,0.162552803 11.8133856,0.795243922 13.0251111,1.77470667 L13.0251111,1.77470667 L11.4690222,2.92120444 C10.6328718,2.34870427 9.64923024,1.97636245 8.58726945,1.87572837 L8.30697778,1.85637778 C8.29101264,1.85558928 8.27503328,1.85483173 8.25903919,1.85411483 L8.00066667,1.84821333 L8,1.847 C6.50318954,1.84758222 5.1298193,2.3846099 4.06183172,3.27654335 L3.87479111,3.44011556 C2.63093778,4.56648889 1.84881778,6.19297778 1.84818667,7.99973333 C1.84818667,9.58615843 2.45213527,11.0340969 3.44107148,12.1266423 C4.50712948,13.3024351 6.02169224,14.0666376 7.71201072,14.1451332 C7.71999921,14.1455591 7.727278,14.145884 7.73455996,14.1461958 L8.00008889,14.1518222 C9.58642468,14.1518222 11.0343211,13.5479139 12.1268548,12.5590202 C13.3696889,11.4322667 14.1524444,9.8052 14.1524444,7.99906667 C14.1524444,7.9444 14.1512,7.88977778 14.1499556,7.83511111 L14.1499556,7.83511111 L15.8718667,6.56613333 C15.9560444,7.0316 16.0000444,7.51031111 16.0000444,7.99973333 C16.0000444,10.2088471 15.1043714,12.2092083 13.6568219,13.6563947 C13.6388104,13.6751002 13.6204215,13.693312 13.6019451,13.7114349 C13.5251122,13.7860752 13.4471912,13.8594912 13.3678222,13.9313333 L13.5312481,13.779936 C13.4867213,13.8225551 13.4417032,13.8646645 13.3962032,13.906255 L13.3678222,13.9313333 C11.9486582,15.2171853 10.0655503,16 8.00008889,16 L8.00008889,16 C7.96612288,16 7.93163016,15.999781 7.89718981,15.9993444 C7.79805372,15.9979177 7.69910912,15.9946496 7.60053333,15.9899556 L7.75305169,15.9962401 C7.70894291,15.9948989 7.66492383,15.9932005 7.62099725,15.9911477 L7.60053333,15.9899556 L7.39257351,15.9772303 C5.42577083,15.8293812 3.65713465,14.9702646 2.34351021,13.6562695 C2.32351686,13.6371432 2.30391826,13.6173397 2.28442287,13.5974348 C2.21119552,13.5217616 2.13907245,13.4451581 2.06846667,13.3671556 L2.22528279,13.5364116 C2.17933867,13.4885011 2.13398523,13.4400203 2.08923414,13.3909809 L2.06846667,13.3671556 C0.782814664,11.9483858 3.01758618e-13,10.0652363 3.01758618e-13,7.99973333 C3.01758618e-13,7.86591111 0.00376948444,7.73271111 0.0100515556,7.60017778 L0.00493244663,7.71617715 C0.0779626365,5.62018198 0.957454084,3.72893008 2.34271721,2.3435139 C2.36012001,2.32592417 2.37751902,2.308683 2.39499645,2.2915215 C2.4727273,2.21537397 2.55202424,2.14060628 2.63282222,2.06746667 L2.48169587,2.20765592 C2.51613875,2.17483479 2.55087381,2.14231787 2.58589675,2.11010946 L2.63282222,2.06746667 C4.05210919,0.782452876 5.93484035,3.55271368e-15 7.99977778,3.55271368e-15 Z M14.3309778,3.10840444 C14.7085333,3.59652444 15.0314222,4.12988 15.2896,4.6984 L8.00053333,10.0709333 L4.95497778,8.16177778 L4.95497778,5.86502222 L8.00053333,7.77417778 L14.3309778,3.10840444 Z" id="Combined-Shape" fill="#000000" fill-rule="nonzero"></path>
    </g>
</svg>