<svg xmlns="http://www.w3.org/2000/svg" width="32" height="24" viewBox="0 0 32 24"><g fill="none" fill-rule="evenodd"><path fill="#D3D3D3" d="M0 2.991A2.989 2.989 0 012.996 0h26.007A2.995 2.995 0 0132 2.991v18.018A2.989 2.989 0 0129.003 24H2.996A2.995 2.995 0 010 21.009V2.991z"/><path fill="#00A1DF" d="M7.647 8.853l-2.432 5.65h2.913l.36-.9h.826l.36.9h3.206v-.687l.285.687h1.66l.285-.702v.702h6.666l.811-.878.758.878 3.424.008-2.44-2.818 2.44-2.84h-3.371l-.788.863-.736-.863h-7.252l-.623 1.458-.639-1.458h-2.905v.664l-.323-.664H7.647z"/><path fill="#FFF" d="M7.647 8.853l-2.432 5.65h2.913l.36-.9h.826l.36.9h3.206v-.687l.285.687h1.66l.285-.702v.702h6.666l.811-.878.758.878 3.424.008-2.44-2.818 2.44-2.84h-3.371l-.788.863-.736-.863h-7.252l-.623 1.458-.639-1.458h-2.905v.664l-.323-.664H7.647zm.563.802h1.42l1.613 3.833V9.655h1.554l1.247 2.748 1.148-2.748h1.547v4.054H15.8l-.007-3.176-1.374 3.176h-.84l-1.382-3.176v3.176H10.26l-.368-.909H7.91l-.368.91H6.506L8.21 9.654zm9.392 0h3.83l1.17 1.328 1.209-1.328h1.171l-1.78 2.038 1.78 2.016h-1.224l-1.17-1.344-1.217 1.344h-3.769V9.655zm-8.701.687l-.653 1.619h1.306l-.653-1.62zm9.647.152v.741h2.087v.825h-2.087v.81h2.343l1.088-1.192-1.043-1.184h-2.388z"/></g></svg>