<svg xmlns="http://www.w3.org/2000/svg" width="64" height="42" viewBox="0 0 64 42"><g fill="none" fill-rule="evenodd"><path fill="#00A1DF" d="M4.004 0A4.008 4.008 0 000 4.008v33.983A4.004 4.004 0 004.004 42h55.993A4.009 4.009 0 0064 37.991V4.008A4.004 4.004 0 0059.997 0H4.004zM2 37.991V4.008C2 2.9 2.899 2 4.004 2h55.993C61.104 2 62 2.897 62 4.008v33.983a2.007 2.007 0 01-2.003 2.008H4.004A2.003 2.003 0 012 37.991z"/><g fill-rule="nonzero"><path fill="#7673C0" d="M27.12 12.409h9.692v17.418H27.12z"/><path fill="#EB001B" d="M27.735 21.12a11.058 11.058 0 014.231-8.71 11.077 11.077 0 100 17.418 11.058 11.058 0 01-4.23-8.708z"/><path fill="#00A1DF" d="M49.886 21.12a11.077 11.077 0 01-17.92 8.708 11.077 11.077 0 000-17.419 11.077 11.077 0 0117.923 8.708l-.003.003z"/></g><path fill="#EB001B" fill-rule="nonzero" d="M49.659 10.992a3.247 3.247 0 011.473.851c.424.425.708.936.85 1.475.113.425.537.708.99.68h.086c.623-.028 1.076-.624.906-1.22-.227-.878-.708-1.672-1.388-2.353a5.575 5.575 0 00-2.35-1.389c-.596-.17-1.19.284-1.219.907v.085c-.056.426.227.823.652.964zm1.134-4.034a6.316 6.316 0 013.444 1.804 6.409 6.409 0 011.804 3.444c.082.465.492.82.985.793h.082a.934.934 0 00.874-1.121c-.3-1.668-1.066-3.253-2.35-4.51a8.508 8.508 0 00-4.511-2.351c-.547-.11-1.066.328-1.121.875v.082c0 .492.328.902.793.984z"/></g></svg>