<svg xmlns="http://www.w3.org/2000/svg" width="64" height="42" viewBox="0 0 64 42"><g fill="none" fill-rule="evenodd"><path fill="#FF5F00" d="M4.004 0A4.008 4.008 0 000 4.008v33.983A4.004 4.004 0 004.004 42h55.993A4.009 4.009 0 0064 37.991V4.008A4.004 4.004 0 0059.997 0H4.004zM2 37.991V4.008C2 2.9 2.899 2 4.004 2h55.993C61.104 2 62 2.897 62 4.008v33.983a2.007 2.007 0 01-2.003 2.008H4.004A2.003 2.003 0 012 37.991z"/><path fill="#636363" d="M14.836 33.112h1.363c.2 0 .368-.057.502-.17.133-.114.2-.278.2-.491 0-.241-.06-.41-.18-.508-.12-.099-.295-.148-.522-.148h-1.363v1.317zM14 31.114h2.32c.427 0 .77.098 1.029.294.258.196.388.492.388.889 0 .24-.06.447-.178.618a1.138 1.138 0 01-.504.398c.294.076.517.215.668.431.152.216.228.487.228.812 0 .187-.034.362-.1.525a1.07 1.07 0 01-.315.421 1.586 1.586 0 01-.548.28 2.67 2.67 0 01-.795.104H14v-4.772zm.836 4.09h1.477c.254 0 .451-.065.591-.197.14-.131.211-.317.211-.558 0-.236-.07-.418-.21-.545-.141-.127-.338-.19-.592-.19h-1.477v1.49zm4.33-4.09h.836v2.78c0 .16.008.323.024.488.015.165.06.313.133.445.074.131.185.24.334.324.15.085.36.127.632.127s.483-.042.632-.127a.852.852 0 00.334-.324c.074-.132.118-.28.134-.445a5.18 5.18 0 00.023-.488v-2.78h.836v3.054c0 .308-.047.575-.14.803a1.544 1.544 0 01-.398.571 1.66 1.66 0 01-.619.344c-.24.076-.508.114-.802.114-.294 0-.561-.038-.802-.114a1.66 1.66 0 01-.618-.344 1.544 1.544 0 01-.398-.571 2.098 2.098 0 01-.14-.803v-3.054zm5.943 3.181c0 .183.03.34.093.468.063.13.15.235.26.318.112.082.24.142.385.18.145.038.302.057.471.057.183 0 .34-.021.468-.063a.947.947 0 00.315-.164.592.592 0 00.173-.23.69.69 0 00.054-.265c0-.182-.041-.317-.124-.404a.706.706 0 00-.27-.184 5.661 5.661 0 00-.592-.177 41.5 41.5 0 01-.832-.217 1.784 1.784 0 01-.512-.21 1.22 1.22 0 01-.324-.292 1.021 1.021 0 01-.17-.34 1.367 1.367 0 01-.05-.368 1.242 1.242 0 01.548-1.063 1.75 1.75 0 01.561-.257 2.46 2.46 0 01.635-.084c.25 0 .485.032.705.097.221.065.415.161.582.29.167.13.3.29.398.479.098.189.147.409.147.658h-.836c-.022-.307-.127-.525-.314-.652s-.426-.19-.715-.19c-.098 0-.199.01-.301.03a.956.956 0 00-.28.1.616.616 0 00-.211.19.515.515 0 00-.084.301c0 .17.052.302.157.398.105.096.242.168.411.217l.21.057a57.37 57.37 0 00.856.228c.145.037.249.065.311.083.156.05.292.116.408.2.116.085.213.182.29.291a1.2 1.2 0 01.175.351c.037.125.056.25.056.375 0 .267-.054.495-.163.685a1.39 1.39 0 01-.432.464c-.178.12-.38.209-.608.264a2.91 2.91 0 01-.695.084 2.86 2.86 0 01-.769-.1 1.8 1.8 0 01-.628-.308 1.505 1.505 0 01-.428-.531 1.77 1.77 0 01-.167-.766h.836zm4.297-3.181h.836v4.772h-.836v-4.772zm2.34 0h.882l2.179 3.516h.013v-3.516h.796v4.772h-.883l-2.172-3.509h-.02v3.51h-.796v-4.773zm5.373 0h3.436v.722h-2.6v1.25h2.406v.681h-2.406v1.397h2.647v.722h-3.483v-4.772zm5.274 3.181c0 .183.03.34.093.468.063.13.15.235.26.318.112.082.24.142.385.18.145.038.302.057.472.057.182 0 .338-.021.467-.063a.947.947 0 00.315-.164.592.592 0 00.173-.23.69.69 0 00.054-.265c0-.182-.041-.317-.124-.404a.706.706 0 00-.27-.184 5.661 5.661 0 00-.592-.177 41.5 41.5 0 01-.832-.217 1.784 1.784 0 01-.512-.21 1.22 1.22 0 01-.324-.292 1.021 1.021 0 01-.17-.34 1.367 1.367 0 01-.05-.368 1.242 1.242 0 01.548-1.063 1.75 1.75 0 01.561-.257 2.46 2.46 0 01.635-.084c.25 0 .485.032.705.097.221.065.415.161.582.29.167.13.3.29.398.479.098.189.147.409.147.658h-.836c-.022-.307-.127-.525-.314-.652s-.426-.19-.715-.19c-.098 0-.199.01-.301.03a.956.956 0 00-.28.1.616.616 0 00-.211.19.515.515 0 00-.084.301c0 .17.052.302.157.398.105.096.242.168.411.217l.21.057a57.37 57.37 0 00.856.228c.145.037.249.065.311.083.156.05.292.116.408.2.116.085.213.182.29.291a1.2 1.2 0 01.175.351c.038.125.056.25.056.375 0 .267-.054.495-.163.685a1.39 1.39 0 01-.431.464 1.87 1.87 0 01-.609.264 2.91 2.91 0 01-.695.084 2.86 2.86 0 01-.769-.1 1.8 1.8 0 01-.628-.308 1.505 1.505 0 01-.428-.531 1.77 1.77 0 01-.167-.766h.836zm4.845 0c0 .183.032.34.094.468.062.13.15.235.26.318.112.082.24.142.385.18.145.038.302.057.471.057.183 0 .339-.021.468-.063a.947.947 0 00.314-.164.592.592 0 00.174-.23.69.69 0 00.054-.265c0-.182-.042-.317-.124-.404a.706.706 0 00-.27-.184 5.661 5.661 0 00-.592-.177 41.5 41.5 0 01-.833-.217 1.784 1.784 0 01-.51-.21 1.22 1.22 0 01-.325-.292 1.021 1.021 0 01-.17-.34 1.367 1.367 0 01-.05-.368 1.242 1.242 0 01.547-1.063 1.75 1.75 0 01.562-.257 2.46 2.46 0 01.635-.084c.25 0 .485.032.705.097.22.065.415.161.582.29.167.13.3.29.397.479.098.189.148.409.148.658h-.836c-.022-.307-.127-.525-.314-.652s-.426-.19-.715-.19c-.099 0-.199.01-.301.03a.956.956 0 00-.281.1.616.616 0 00-.21.19.515.515 0 00-.084.301c0 .17.052.302.157.398.105.096.242.168.411.217l.21.057a57.37 57.37 0 00.856.228c.145.037.249.065.311.083.156.05.292.116.408.2.116.085.213.182.29.291a1.2 1.2 0 01.174.351c.038.125.057.25.057.375 0 .267-.054.495-.164.685a1.39 1.39 0 01-.43.464 1.88 1.88 0 01-.609.264 2.91 2.91 0 01-.695.084 2.86 2.86 0 01-.769-.1 1.8 1.8 0 01-.628-.308 1.505 1.505 0 01-.428-.531 1.77 1.77 0 01-.167-.766h.835z"/><g fill-rule="nonzero"><path fill="#FF5F00" d="M27.091 8.455h9.818v17.182h-9.818z"/><path fill="#EB001B" d="M27.75 17.047A10.998 10.998 0 0132 8.361c-4.562-3.559-11.112-3.04-15.048 1.191a10.987 10.987 0 000 14.987c3.936 4.231 10.486 4.75 15.048 1.19a10.998 10.998 0 01-4.25-8.682z"/><path fill="#F79E1B" d="M50 17.047c0 4.228-2.432 8.086-6.263 9.933A11.19 11.19 0 0132 25.73a11.015 11.015 0 004.25-8.684c0-3.388-1.566-6.59-4.25-8.683A11.19 11.19 0 0143.737 7.11 11.037 11.037 0 0150 17.044v.003z"/></g></g></svg>