<svg xmlns="http://www.w3.org/2000/svg" width="32" height="24" viewBox="0 0 32 24"><g fill="none" fill-rule="evenodd"><path fill="#FF5F00" d="M0 2.991A2.989 2.989 0 012.996 0h26.007A2.995 2.995 0 0132 2.991v18.018A2.989 2.989 0 0129.003 24H2.996A2.995 2.995 0 010 21.009V2.991zm2 0v18.018c0 .545.446.991.996.991h26.007a.99.99 0 00.997-.991V2.991A.996.996 0 0029.003 2H2.996A.989.989 0 002 2.991z"/><g fill-rule="nonzero"><path fill="#FF5F00" d="M13.273 7.364h5.455v9.545h-5.455z"/><path fill="#EB001B" d="M13.64 12.137A6.11 6.11 0 0116 7.312a6.213 6.213 0 00-8.36.661 6.104 6.104 0 000 8.326 6.213 6.213 0 008.36.662 6.11 6.11 0 01-2.36-4.824z"/><path fill="#F79E1B" d="M26 12.137a6.132 6.132 0 01-3.48 5.519A6.217 6.217 0 0116 16.96a6.12 6.12 0 002.361-4.824A6.12 6.12 0 0016 7.312a6.217 6.217 0 016.52-.695A6.132 6.132 0 0126 12.136v.001z"/></g></g></svg>