<svg xmlns="http://www.w3.org/2000/svg" width="64" height="42" viewBox="0 0 64 42"><g fill="none" fill-rule="evenodd"><path fill="#D3D3D3" d="M4.004 0A4.008 4.008 0 000 4.008v33.983A4.004 4.004 0 004.004 42h55.993A4.009 4.009 0 0064 37.991V4.008A4.004 4.004 0 0059.997 0H4.004z"/><path fill="#231F20" fill-rule="nonzero" d="M20.544 35.016v-1.798a1.067 1.067 0 00-1.127-1.14 1.109 1.109 0 00-1.007.51 1.052 1.052 0 00-.947-.51.947.947 0 00-.84.427v-.354H16v2.865h.63V33.44a.671.671 0 01.7-.762c.414 0 .624.27.624.756v1.594h.63V33.44a.674.674 0 01.7-.762c.426 0 .63.27.63.756v1.594l.63-.012zm9.311-2.865H28.83v-.87h-.629v.87h-.57v.57h.582v1.318c0 .665.258 1.061.995 1.061.276 0 .546-.076.78-.222l-.18-.533a1.15 1.15 0 01-.552.162c-.3 0-.414-.192-.414-.48V32.72h1.02l-.007-.57zm5.317-.072a.845.845 0 00-.755.42v-.348H33.8v2.865h.623V33.41c0-.474.204-.738.6-.738.133-.001.265.023.389.072l.192-.6a1.334 1.334 0 00-.444-.077l.012.012zm-8.038.3a2.143 2.143 0 00-1.169-.3c-.725 0-1.199.348-1.199.917 0 .468.348.755.99.845l.3.042c.34.048.503.138.503.3 0 .222-.228.348-.654.348a1.526 1.526 0 01-.953-.3l-.3.485a2.07 2.07 0 001.241.372c.828 0 1.307-.39 1.307-.935 0-.546-.378-.767-1.001-.857l-.3-.042c-.27-.036-.485-.09-.485-.282 0-.192.204-.336.545-.336.316.004.626.089.9.246l.275-.503zm16.697-.3a.845.845 0 00-.755.42v-.348h-.618v2.865h.624V33.41c0-.474.203-.738.599-.738.133-.001.266.023.39.072l.191-.6a1.334 1.334 0 00-.443-.077l.012.012zm-8.032 1.498a1.448 1.448 0 001.528 1.499c.374.02.742-.103 1.031-.342l-.3-.503a1.259 1.259 0 01-.749.258.92.92 0 010-1.835c.271.003.534.094.75.258l.3-.503a1.499 1.499 0 00-1.032-.342 1.448 1.448 0 00-1.528 1.498v.012zm5.838 0v-1.426h-.623v.348a1.088 1.088 0 00-.9-.42 1.499 1.499 0 100 2.997c.35.013.685-.143.9-.42v.348h.623v-1.427zm-1.423-.814a.866.866 0 01-.028 1.732.86.86 0 01-.869-.918.866.866 0 01.897-.814zm-8.42-.684a1.499 1.499 0 10.043 2.997c.43.022.855-.117 1.19-.39l-.3-.461c-.237.19-.53.295-.834.3a.794.794 0 01-.857-.702h2.128v-.24c0-.899-.557-1.498-1.36-1.498l-.01-.006zm0 .557a.71.71 0 01.726.696h-1.5c.023-.4.361-.71.762-.696h.012zm15.618.947V31h-.6v1.499a1.088 1.088 0 00-.898-.42 1.499 1.499 0 100 2.997c.35.013.684-.143.899-.42v.348h.6v-1.42zm-1.407-.814a.866.866 0 01-.028 1.732.86.86 0 01-.87-.918.866.866 0 01.898-.814zm-21.946.814v-1.432h-.623v.348a1.088 1.088 0 00-.9-.42 1.499 1.499 0 100 2.997c.35.013.685-.143.9-.42v.348h.623v-1.42zm-2.32 0a.866.866 0 11.87.918.86.86 0 01-.876-.918h.006z"/><g fill-rule="nonzero"><path fill="#FF5F00" d="M27.123 9.415h9.692v17.418h-9.692z"/><path fill="#EB001B" d="M27.738 18.126a11.058 11.058 0 014.231-8.71 11.077 11.077 0 100 17.418 11.058 11.058 0 01-4.23-8.708z"/><path fill="#F79E1B" d="M49.892 18.126a11.077 11.077 0 01-17.923 8.708 11.077 11.077 0 000-17.419 11.077 11.077 0 0117.923 8.708v.003z"/></g></g></svg>