<svg xmlns="http://www.w3.org/2000/svg" width="64" height="42" viewBox="0 0 64 42"><g fill="none" fill-rule="evenodd"><path fill="#FFDA73" d="M4.004 0A4.008 4.008 0 000 4.008v33.983A4.004 4.004 0 004.004 42h55.993A4.009 4.009 0 0064 37.991V4.008A4.004 4.004 0 0059.997 0H4.004z"/><path fill="#212121" d="M19 31.114h.849l.862 3.65.976-3.65h.856l.936 3.65.902-3.65h.849l-1.317 4.772h-.849l-.956-3.65-.989 3.65h-.862L19 31.114zm9.324.568a1.33 1.33 0 00-.658.154c-.185.102-.335.24-.451.41a1.855 1.855 0 00-.258.586 2.694 2.694 0 000 1.336c.056.219.142.414.258.585.116.172.266.309.45.411.186.103.405.154.66.154.253 0 .473-.051.658-.154.185-.102.335-.24.451-.41a1.84 1.84 0 00.257-.586 2.694 2.694 0 000-1.336 1.855 1.855 0 00-.257-.585 1.291 1.291 0 00-.451-.411 1.338 1.338 0 00-.659-.154zm0-.682a2.148 2.148 0 011.678.742c.196.227.347.492.451.795.105.303.157.624.157.963 0 .343-.052.666-.157.97a2.407 2.407 0 01-.45.795 2.11 2.11 0 01-.72.538 2.25 2.25 0 01-.959.197 2.25 2.25 0 01-.959-.197 2.11 2.11 0 01-.718-.538 2.407 2.407 0 01-.452-.796 2.947 2.947 0 01-.157-.969c0-.339.053-.66.157-.963.105-.303.255-.568.452-.795A2.148 2.148 0 0128.324 31zm3.563.114h2.28c.525 0 .92.113 1.182.34.263.228.395.544.395.95 0 .227-.034.415-.1.565a1.2 1.2 0 01-.235.36.914.914 0 01-.264.198c-.087.04-.15.067-.19.08.071.022.148.045.23.08a.68.68 0 01.231.17.95.95 0 01.177.305c.047.125.07.28.07.468 0 .28.022.536.064.765.042.23.108.393.197.491h-.896a.78.78 0 01-.11-.34 4.062 4.062 0 01-.017-.362 3.44 3.44 0 00-.04-.564.985.985 0 00-.147-.395.622.622 0 00-.29-.23 1.283 1.283 0 00-.472-.074h-1.23v1.965h-.835v-4.772zm.835 2.172h1.37c.268 0 .47-.063.609-.19.138-.127.207-.318.207-.572a.884.884 0 00-.067-.37.54.54 0 00-.184-.225.676.676 0 00-.267-.107 1.773 1.773 0 00-.31-.027h-1.358v1.491zm4.385-2.172h.835v4.05h2.427v.722h-3.262v-4.772zm4.35 0h1.98c.365 0 .681.062.949.187.267.125.485.295.655.511.17.216.295.47.377.759.083.29.124.6.124.929 0 .33-.041.64-.124.93a2.183 2.183 0 01-.377.758c-.17.216-.388.386-.655.511a2.227 2.227 0 01-.95.187h-1.978v-4.772zm.836 4.09h.823c.325 0 .591-.043.798-.13.208-.087.37-.207.488-.36.118-.155.199-.335.241-.542a3.38 3.38 0 00.063-.672c0-.24-.02-.465-.063-.672a1.303 1.303 0 00-.24-.541 1.169 1.169 0 00-.489-.361c-.207-.087-.473-.13-.798-.13h-.823v3.409z"/><g fill-rule="nonzero"><path fill="#FF5F00" d="M27.091 8.455h9.818v17.182h-9.818z"/><path fill="#EB001B" d="M27.75 17.047A10.998 10.998 0 0132 8.361c-4.562-3.559-11.112-3.04-15.048 1.191a10.987 10.987 0 000 14.987c3.936 4.231 10.486 4.75 15.048 1.19a10.998 10.998 0 01-4.25-8.682z"/><path fill="#F79E1B" d="M50 17.047c0 4.228-2.432 8.086-6.263 9.933A11.19 11.19 0 0132 25.73a11.015 11.015 0 004.25-8.684c0-3.388-1.566-6.59-4.25-8.683A11.19 11.19 0 0143.737 7.11 11.037 11.037 0 0150 17.044v.003z"/></g></g></svg>