<svg xmlns="http://www.w3.org/2000/svg" width="32" height="24" viewBox="0 0 32 24"><g fill="none" fill-rule="evenodd"><path fill="#29AB4F" d="M0 2.991A2.989 2.989 0 012.996 0h26.007A2.995 2.995 0 0132 2.991v18.018A2.989 2.989 0 0129.003 24H2.996A2.995 2.995 0 010 21.009V2.991zm2 0v18.018c0 .545.446.991.996.991h26.007a.99.99 0 00.997-.991V2.991A.996.996 0 0029.003 2H2.996A.989.989 0 002 2.991z"/><path fill="#29AB4F" d="M10.213 9.923l-1.088 3.008L8.11 9.923c-.168-.499-.691-.903-1.18-.92L6.897 9H5v6h1.93v-3.692L8.472 15h1.35l1.448-3.273V15h1.93V9h-.724s-.084.003-.906.003c-.821 0-1.2.487-1.358.92zM18.748 9l-.242.03c-.46.098-.92.46-1.094.893L16.095 13.2V9h-1.93v6h1.688l.242-.03c.46-.098.92-.46 1.094-.893l1.317-3.277V15h1.93V9h-1.688zm2.68 2.727V15h2.191v-1.875h2.738c1.37 0 1.643-1.398 1.643-1.398h-6.571z"/><path fill="#00A8E3" d="M24.792 9H21c0 1.012 1.188 2 2.698 2H28c0-1.25-1.167-2-2.917-2h-.291z"/></g></svg>