<svg xmlns="http://www.w3.org/2000/svg" width="64" height="42" viewBox="0 0 64 42"><g fill="none" fill-rule="evenodd"><path fill="#2D8C29" d="M4.004 0A4.008 4.008 0 000 4.008v33.983A4.004 4.004 0 004.004 42h55.993A4.009 4.009 0 0064 37.991V4.008A4.004 4.004 0 0059.997 0H4.004zM2 37.991V4.008C2 2.9 2.899 2 4.004 2h55.993C61.104 2 62 2.897 62 4.008v33.983a2.007 2.007 0 01-2.003 2.008H4.004A2.003 2.003 0 012 37.991z"/><path fill="#CB5227" d="M11.971 10h10.513l-1.97 10.513H10L11.971 10zm11.17 0h10.513l-1.97 10.513H21.17L23.141 10zm11.17 0h10.514l-1.972 10.513H32.34L34.311 10zm-20.275 2.342l-1.178 6.2h1.067l1.012-5.29h2.383l-1.012 5.29h1.076l1.178-6.2h-4.526zm10.615 6.2h1.058l.442-2.346c.165.019.358.046.58.046.735 0 1.443-.193 1.94-.589.451-.358.791-.947.791-1.683 0-.552-.202-.957-.57-1.233-.396-.322-1.012-.441-1.582-.441-.561 0-1.123.055-1.5.147l-1.159 6.099zm14.461-6.301a3.14 3.14 0 00-2.18.864c-.745.718-1.16 1.877-1.16 2.98 0 1.39.838 2.558 2.439 2.558.901 0 1.655-.322 2.216-.874.727-.717 1.123-1.858 1.123-2.962 0-1.417-.782-2.566-2.438-2.566zm-12.391.975c.12-.037.322-.056.589-.056.607 0 1.076.24 1.076.893 0 .736-.598 1.315-1.509 1.315-.23 0-.386-.018-.56-.055l.404-2.097zm12.262-.074c1.14 0 1.426.883 1.426 1.702 0 .782-.304 1.84-.837 2.373a1.688 1.688 0 01-1.205.525c-1.04 0-1.463-.773-1.463-1.711 0-.8.313-1.813.856-2.355.33-.332.745-.534 1.223-.534z"/><path fill="#2D8C29" d="M21.17 21.17h10.513l-1.971 10.513H19.199L21.17 21.17zm11.17 0h10.513l-1.97 10.513H30.368L32.34 21.17zm11.17 0h10.513l-1.97 10.513H41.538L43.51 21.17zm-18.694 8.542h1.039l1.131-5.98h-.892l-1.527.709.065.837 1.103-.515h.019l-.938 4.949zm11.938-6.08c-1.729 0-2.722 2.143-2.722 4.075 0 1.177.45 2.106 1.628 2.106 1.784 0 2.704-2.3 2.704-4.213 0-.993-.395-1.968-1.61-1.968zm11.17 0c-1.729 0-2.722 2.143-2.722 4.075 0 1.177.45 2.106 1.628 2.106 1.784 0 2.704-2.3 2.704-4.213 0-.993-.395-1.968-1.61-1.968zm-11.298.855c.607 0 .671.708.671 1.15 0 .966-.497 3.32-1.5 3.32-.606 0-.708-.68-.708-1.214 0-1.131.59-3.256 1.537-3.256zm11.17 0c.607 0 .671.708.671 1.15 0 .966-.496 3.32-1.5 3.32-.606 0-.707-.68-.707-1.214 0-1.131.588-3.256 1.536-3.256z"/></g></svg>