<svg xmlns="http://www.w3.org/2000/svg" width="32" height="24" viewBox="0 0 32 24"><g fill="none" fill-rule="evenodd"><path fill="#225680" d="M0 2.991A2.989 2.989 0 012.996 0h26.007A2.995 2.995 0 0132 2.991v18.018A2.989 2.989 0 0129.003 24H2.996A2.995 2.995 0 010 21.009V2.991zm2 0v18.018c0 .545.446.991.996.991h26.007a.99.99 0 00.997-.991V2.991A.996.996 0 0029.003 2H2.996A.989.989 0 002 2.991z"/><path fill="#00264C" d="M17.537 9.127c-.889-.855-1.958-1.233-3.188-1.102a3.93 3.93 0 00-.128.016l-.017.033-.97 1.813c.64-.452 1.358-.604 2.151-.405.93.233 1.537.83 1.837 1.766h-3.08v1.23h3.072c-.214.713-.635 1.244-1.29 1.553-1.08.511-2.077.34-2.98-.433v1.632c.417.24.874.386 1.364.454.124.017.248.03.372.044h.182c.037-.006.074-.017.11-.018a3.76 3.76 0 001.125-.222c1.7-.598 2.815-2.317 2.557-4.153a3.704 3.704 0 00-1.117-2.208m-3.882-.953c-.05-.002-.084-.006-.117-.006-.48 0-.959.002-1.438-.002-.08 0-.12.025-.157.095-.445.857-.893 1.712-1.34 2.567l-.275.52-.057-.102c-.52-.994-1.04-1.987-1.557-2.982-.039-.075-.081-.1-.165-.098-.471.004-.943.002-1.415.002H7c.026.053.04.087.058.12.787 1.492 1.574 2.986 2.364 4.477.041.078.037.135-.003.207-.202.375-.402.75-.602 1.127l-.769 1.446c.53 0 1.04-.002 1.55.003.088 0 .131-.027.173-.105 1.202-2.254 2.408-4.506 3.612-6.758.09-.166.177-.332.272-.51M25 15.532c-.036.005-.06.012-.083.012-.532 0-1.065.003-1.597-.003-.054-.001-.12-.042-.157-.085-.796-.917-1.588-1.837-2.381-2.756a42.42 42.42 0 00-.33-.38v3.217H19.06V8.176h1.385v3.003l.024.015c.036-.039.072-.077.107-.117.809-.946 1.617-1.893 2.428-2.837.03-.035.085-.069.128-.07.54-.004 1.08-.002 1.621-.002.018 0 .035.003.078.007l-3.15 3.517 3.32 3.84"/></g></svg>