<svg xmlns="http://www.w3.org/2000/svg" width="64" height="42" viewBox="0 0 64 42"><g fill="none" fill-rule="evenodd"><path fill="#6F9BB1" fill-rule="nonzero" d="M2 4.008v33.984C2 39.103 2.896 40 4.003 40h55.994C61.1 40 62 39.1 62 37.992V4.008A2.004 2.004 0 0059.997 2H4.003C2.9 2 2 2.9 2 4.008zm-2 0A4.008 4.008 0 014.003 0h55.994A4.004 4.004 0 0164 4.008v33.984A4.008 4.008 0 0159.997 42H4.003A4.004 4.004 0 010 37.992V4.008z"/><path fill="#152E8B" d="M29.69 23.784L32 11h-3.692L26 23.784h3.69zm6.642-9.128c0-.517.662-1.068 2.096-1.068a7.21 7.21 0 012.745.474l.333.143.494-2.682c-.724-.252-1.865-.523-3.289-.523-3.62 0-6.173 1.683-6.195 4.086-.022 1.783 1.82 2.774 3.211 3.365 1.43.608 1.908.996 1.902 1.537-.01.828-1.14 1.213-2.195 1.213-1.466 0-2.244-.19-3.45-.654l-.474-.195-.51 2.773c.852.346 2.44.644 4.08.66 3.853 0 6.36-1.66 6.387-4.23.017-1.411-.963-2.483-3.081-3.365-1.279-.573-2.065-.956-2.054-1.534zM48.27 11c-.863 0-1.513.228-1.893 1.065L41 23.785h3.803s.617-1.458.758-1.806c.419 0 4.11-.05 4.635-.05.113.445.444 1.855.444 1.855H54L51.07 11h-2.8zm.166 4.801c-.02.03.3-.671.483-1.148l.24 1s.697 3.565.841 3.565h-3c.294-.907 1.436-3.417 1.436-3.417zM18.868 19.84l-.368-1.71-1.224-5.966C17.064 11.356 16.447 11 15.69 11h-5.643l-.047.382c.928.223 1.776.586 2.57.935.266.182 1.184.824 1.64 2.348l2.579 9.12h3.703L26 11h-3.707l-3.425 8.839z"/><path fill="#636363" d="M14.836 31.112h1.363c.2 0 .368-.057.502-.17.133-.114.2-.278.2-.491 0-.241-.06-.41-.18-.508-.12-.099-.295-.148-.522-.148h-1.363v1.317zM14 29.114h2.32c.427 0 .77.098 1.029.294.258.196.388.492.388.889 0 .24-.06.447-.178.618a1.138 1.138 0 01-.504.398c.294.076.517.215.668.431.152.216.228.487.228.812 0 .187-.034.362-.1.525a1.07 1.07 0 01-.315.421 1.586 1.586 0 01-.548.28 2.67 2.67 0 01-.795.104H14v-4.772zm.836 4.09h1.477c.254 0 .451-.065.591-.197.14-.131.211-.317.211-.558 0-.236-.07-.418-.21-.545-.141-.127-.338-.19-.592-.19h-1.477v1.49zm4.33-4.09h.836v2.78c0 .16.008.323.024.488.015.165.06.313.133.445.074.131.185.24.334.324.15.085.36.127.632.127s.483-.042.632-.127a.852.852 0 00.334-.324c.074-.132.118-.28.134-.445a5.18 5.18 0 00.023-.488v-2.78h.836v3.054c0 .308-.047.575-.14.803a1.544 1.544 0 01-.398.571 1.66 1.66 0 01-.619.344c-.24.076-.508.114-.802.114-.294 0-.561-.038-.802-.114a1.66 1.66 0 01-.618-.344 1.544 1.544 0 01-.398-.571 2.098 2.098 0 01-.14-.803v-3.054zm5.943 3.181c0 .183.03.34.093.468.063.13.15.235.26.318.112.082.24.142.385.18.145.038.302.057.471.057.183 0 .34-.021.468-.063a.947.947 0 00.315-.164.592.592 0 00.173-.23.69.69 0 00.054-.265c0-.182-.041-.317-.124-.404a.706.706 0 00-.27-.184 5.661 5.661 0 00-.592-.177 41.5 41.5 0 01-.832-.217 1.784 1.784 0 01-.512-.21 1.22 1.22 0 01-.324-.292 1.021 1.021 0 01-.17-.34 1.367 1.367 0 01-.05-.368 1.242 1.242 0 01.548-1.063 1.75 1.75 0 01.561-.257 2.46 2.46 0 01.635-.084c.25 0 .485.032.705.097.221.065.415.161.582.29.167.13.3.29.398.479.098.189.147.409.147.658h-.836c-.022-.307-.127-.525-.314-.652s-.426-.19-.715-.19c-.098 0-.199.01-.301.03a.956.956 0 00-.28.1.616.616 0 00-.211.19.515.515 0 00-.084.301c0 .17.052.302.157.398.105.096.242.168.411.217l.21.057a57.37 57.37 0 00.856.228c.145.037.249.065.311.083.156.05.292.116.408.2.116.085.213.182.29.291a1.2 1.2 0 01.175.351c.037.125.056.25.056.375 0 .267-.054.495-.163.685a1.39 1.39 0 01-.432.464c-.178.12-.38.209-.608.264a2.91 2.91 0 01-.695.084 2.86 2.86 0 01-.769-.1 1.8 1.8 0 01-.628-.308 1.505 1.505 0 01-.428-.531 1.77 1.77 0 01-.167-.766h.836zm4.297-3.181h.836v4.772h-.836v-4.772zm2.34 0h.882l2.179 3.516h.013v-3.516h.796v4.772h-.883l-2.172-3.509h-.02v3.51h-.796v-4.773zm5.373 0h3.436v.722h-2.6v1.25h2.406v.681h-2.406v1.397h2.647v.722h-3.483v-4.772zm5.274 3.181c0 .183.03.34.093.468.063.13.15.235.26.318.112.082.24.142.385.18.145.038.302.057.472.057.182 0 .338-.021.467-.063a.947.947 0 00.315-.164.592.592 0 00.173-.23.69.69 0 00.054-.265c0-.182-.041-.317-.124-.404a.706.706 0 00-.27-.184 5.661 5.661 0 00-.592-.177 41.5 41.5 0 01-.832-.217 1.784 1.784 0 01-.512-.21 1.22 1.22 0 01-.324-.292 1.021 1.021 0 01-.17-.34 1.367 1.367 0 01-.05-.368 1.242 1.242 0 01.548-1.063 1.75 1.75 0 01.561-.257 2.46 2.46 0 01.635-.084c.25 0 .485.032.705.097.221.065.415.161.582.29.167.13.3.29.398.479.098.189.147.409.147.658h-.836c-.022-.307-.127-.525-.314-.652s-.426-.19-.715-.19c-.098 0-.199.01-.301.03a.956.956 0 00-.28.1.616.616 0 00-.211.19.515.515 0 00-.084.301c0 .17.052.302.157.398.105.096.242.168.411.217l.21.057a57.37 57.37 0 00.856.228c.145.037.249.065.311.083.156.05.292.116.408.2.116.085.213.182.29.291a1.2 1.2 0 01.175.351c.038.125.056.25.056.375 0 .267-.054.495-.163.685a1.39 1.39 0 01-.431.464 1.87 1.87 0 01-.609.264 2.91 2.91 0 01-.695.084 2.86 2.86 0 01-.769-.1 1.8 1.8 0 01-.628-.308 1.505 1.505 0 01-.428-.531 1.77 1.77 0 01-.167-.766h.836zm4.845 0c0 .183.032.34.094.468.062.13.15.235.26.318.112.082.24.142.385.18.145.038.302.057.471.057.183 0 .339-.021.468-.063a.947.947 0 00.314-.164.592.592 0 00.174-.23.69.69 0 00.054-.265c0-.182-.042-.317-.124-.404a.706.706 0 00-.27-.184 5.661 5.661 0 00-.592-.177 41.5 41.5 0 01-.833-.217 1.784 1.784 0 01-.51-.21 1.22 1.22 0 01-.325-.292 1.021 1.021 0 01-.17-.34 1.367 1.367 0 01-.05-.368 1.242 1.242 0 01.547-1.063 1.75 1.75 0 01.562-.257 2.46 2.46 0 01.635-.084c.25 0 .485.032.705.097.22.065.415.161.582.29.167.13.3.29.397.479.098.189.148.409.148.658h-.836c-.022-.307-.127-.525-.314-.652s-.426-.19-.715-.19c-.099 0-.199.01-.301.03a.956.956 0 00-.281.1.616.616 0 00-.21.19.515.515 0 00-.084.301c0 .17.052.302.157.398.105.096.242.168.411.217l.21.057a57.37 57.37 0 00.856.228c.145.037.249.065.311.083.156.05.292.116.408.2.116.085.213.182.29.291a1.2 1.2 0 01.174.351c.038.125.057.25.057.375 0 .267-.054.495-.164.685a1.39 1.39 0 01-.43.464 1.88 1.88 0 01-.609.264 2.91 2.91 0 01-.695.084 2.86 2.86 0 01-.769-.1 1.8 1.8 0 01-.628-.308 1.505 1.505 0 01-.428-.531 1.77 1.77 0 01-.167-.766h.835z"/></g></svg>