<svg xmlns="http://www.w3.org/2000/svg" width="64" height="42" viewBox="0 0 64 42"><g fill="none" fill-rule="evenodd"><path fill="#3155AB" fill-rule="nonzero" d="M0 4.008A4.008 4.008 0 014.003 0h55.994A4.004 4.004 0 0164 4.008v33.984A4.008 4.008 0 0159.997 42H4.003A4.004 4.004 0 010 37.992V4.008z"/><path fill="#FFF" d="M49.503 9.52L50.5 4h-1.594l-.997 5.52h1.594zm2.867-3.94c0-.224.285-.461.905-.461.519-.009.894.096 1.185.204l.144.062.213-1.158A4.384 4.384 0 0053.398 4c-1.563 0-2.666.727-2.675 1.765-.01.77.786 1.197 1.386 1.452.618.263.824.43.822.664-.005.358-.493.524-.948.524-.633 0-.97-.082-1.49-.282l-.204-.085-.22 1.198c.367.15 1.053.278 1.761.285 1.664 0 2.746-.717 2.758-1.827.008-.61-.416-1.072-1.33-1.453-.553-.247-.892-.413-.887-.662zM57.526 4c-.373 0-.654.099-.818.46l-2.322 5.06h1.643s.266-.629.327-.78c.18 0 1.775-.02 2.001-.02.05.192.192.8.192.8H60L58.735 4h-1.21zm.072 2.073c-.01.013.129-.29.208-.496l.104.432s.3 1.54.363 1.54h-1.296c.127-.392.62-1.476.62-1.476zM44.83 7.817l-.16-.739-.528-2.576C44.05 4.154 43.784 4 43.457 4H41.02l-.02.165c.4.096.767.253 1.11.404.115.078.51.356.708 1.014l1.114 3.938h1.599L47.909 4h-1.6l-1.48 3.817zM60 18.172v.731h-1.875v4.106h-1.74v-4.106H54.51v-.731H60zm-15.158 0l2.51 4.837h-1.94l-1.896-3.748h-.026l-1.714 3.748h-.844l2.27-4.837h1.64zm-26.64 2.418c0 .59-.281 1.255-.884 1.74-.864.701-2.069.813-2.832.813-.73 0-1.326-.082-1.975-.425-.415-.224-.817-.545-1.072-.866l.87-.538.121.195c.141.223.429.492.677.649.395.254.776.328 1.225.328.301 0 .937-.037 1.38-.418.187-.156.528-.537.562-1.209l-2.685.037v-.739l2.685.038a1.64 1.64 0 00-.436-.97c-.254-.262-.703-.53-1.48-.53-.381 0-.75.052-1.104.216-.261.12-.562.313-.737.522l-.207.247-.87-.538c.388-.366.776-.62 1.258-.806.59-.232 1.172-.299 1.801-.299.978 0 2.07.21 2.819.814.603.485.884 1.15.884 1.74zm34.036 1.337c-.382.53-.884.634-1.319.634-.435 0-.937-.105-1.32-.634-.307-.426-.36-.911-.36-1.337 0-.425.053-.91.36-1.336.383-.53.885-.634 1.32-.634.435 0 .937.104 1.319.634.308.426.362.91.362 1.336 0 .426-.054.911-.362 1.337zm1.4-3.076c-.764-.612-1.909-.814-2.719-.814-.81 0-1.955.202-2.718.814-.603.478-.884 1.157-.884 1.74 0 .582.28 1.261.884 1.739.763.612 1.908.813 2.718.813s1.955-.201 2.718-.813c.603-.478.884-1.157.884-1.74 0-.582-.28-1.261-.884-1.739zm-14.79 2.65c-.234.209-.582.306-.957.306h-.194V19.3h.194c.375 0 .723.097.958.306.2.18.368.47.368.948s-.168.769-.368.948zm-2.785.306h-.194c-.375 0-.723-.097-.957-.306-.201-.18-.369-.47-.369-.948s.168-.769.369-.948c.234-.21.582-.306.957-.306h.194v2.508zm4.152-2.62c-.583-.41-1.467-.523-2.277-.523h-.188V18h-1.74v.664h-.188c-.81 0-1.694.112-2.276.523-.329.231-.744.657-.744 1.366 0 .537.235 1.015.744 1.366.314.217.957.523 2.276.523h.188v.701h1.74v-.701h.188c1.319 0 1.962-.306 2.277-.523.508-.35.743-.829.743-1.366 0-.71-.415-1.135-.743-1.366zm-10.329 2.74c-.381.53-.884.634-1.319.634-.435 0-.937-.105-1.319-.634-.308-.426-.362-.911-.362-1.337 0-.425.054-.91.362-1.336.382-.53.884-.634 1.32-.634.434 0 .937.104 1.318.634.308.426.362.91.362 1.336 0 .426-.054.911-.362 1.337zm1.4-3.076c-.764-.612-1.909-.814-2.719-.814-.81 0-1.955.202-2.718.814-.603.478-.884 1.157-.884 1.74 0 .582.281 1.261.884 1.739.763.612 1.908.813 2.718.813s1.955-.201 2.719-.813c.602-.478.883-1.157.883-1.74 0-.582-.28-1.261-.883-1.739zm-8.956 1.448c-.247.172-.569.202-.843.202h-.81v-1.598h.81c.194 0 .596.015.857.194.26.18.308.44.308.59a.72.72 0 01-.322.612zm1.493-1.784c-.415-.261-.977-.343-1.915-.343h-2.972v4.837h1.74v-1.777h1.313c.837 0 1.413-.097 1.834-.373.516-.343.636-.814.636-1.18 0-.365-.12-.835-.636-1.164zM6.875 20.95l.817-1.68h.026l.89 1.68H6.876zm.522-2.777L5 23.009h.87l.683-1.403h2.41l.744 1.403h1.942L9.01 18.172H7.397zm8.298 13.729l.82 2.017a1.31 1.31 0 00.533-.281l-.878-2 .914-.505-.785-.785-1.642.876.404 1.008.634-.33zm2.333-1.075c.065.19.115.38.151.57h.555a4.413 4.413 0 00-.705-1.67c-.396-.581-1.003-1.085-1.642-1.421a6.414 6.414 0 00-.714-.306c.252.174.49.347.713.537.77.637 1.354 1.397 1.642 2.29zm-.367 4.175c.093-.067.397-.29.532-.468l-.532-.194a2.75 2.75 0 01-1.274.604 2.372 2.372 0 01-.426.033c-.612 0-1.167-.264-1.65-.595l-.302.438c.094.115.21.182.324.265l-.38.76-.153.314c.03.1.089.174.154.223.115.091.271.124.473.108l.44-1.141c.33.133.712.174 1.094.174.137 0 .28-.008.425-.025.223-.033.447-.1.662-.19l.52 1.182.46-.24.166-.09-.164-.34-.37-.818zm.533-3.434c0 .347-.057.706-.165.995-.274.81-.887 1.397-1.643 1.563-.13.033-.274.04-.41.04-.894 0-1.65-.561-2.024-1.396a3.069 3.069 0 01-.23-1.202H5l1.704 1.162 6.578-.393a3.52 3.52 0 00.67 1.397c.51.628 1.231 1.017 2.023 1.017.129 0 .263-.007.387-.029a2.715 2.715 0 001.666-1.03 3.32 3.32 0 00.626-1.33l6.633.372L27 31.568h-8.806zm-5.05.995l-6.077.397 1.28.671 4.935-.671c-.058-.132-.094-.265-.137-.397zm.217.596l-4.647.645 1.262.512 3.63-.744a2.845 2.845 0 01-.245-.413zm.339.57l-3.308.726 1.572.456 2.14-.728a3.792 3.792 0 01-.404-.454zm4.99-.77l5.01.659 1.242-.652-6.136-.403c-.036.132-.072.265-.116.397zm-.338.613l3.645.758 1.333-.54-4.755-.656c-.036.173-.15.306-.223.438zm-.115.173l3.368.731-1.57.436-2.18-.729c.065-.049.31-.355.382-.438z"/></g></svg>