<svg xmlns="http://www.w3.org/2000/svg" width="64" height="42" viewBox="0 0 64 42"><g fill="none" fill-rule="evenodd"><path fill="#373737" fill-rule="nonzero" d="M0 4.008A4.008 4.008 0 014.003 0h55.994A4.004 4.004 0 0164 4.008v33.984A4.008 4.008 0 0159.997 42H4.003A4.004 4.004 0 010 37.992V4.008z"/><path fill="#FFF" d="M29.69 23.784L32 11h-3.692L26 23.784h3.69zm6.642-9.128c0-.517.662-1.068 2.096-1.068a7.21 7.21 0 012.745.474l.333.143.494-2.682c-.724-.252-1.865-.523-3.289-.523-3.62 0-6.173 1.683-6.195 4.086-.022 1.783 1.82 2.774 3.211 3.365 1.43.608 1.908.996 1.902 1.537-.01.828-1.14 1.213-2.195 1.213-1.466 0-2.244-.19-3.45-.654l-.474-.195-.51 2.773c.852.346 2.44.644 4.08.66 3.853 0 6.36-1.66 6.387-4.23.017-1.411-.963-2.483-3.081-3.365-1.279-.573-2.065-.956-2.054-1.534zM48.27 11c-.863 0-1.513.228-1.893 1.065L41 23.785h3.803s.617-1.458.758-1.806c.419 0 4.11-.05 4.635-.05.113.445.444 1.855.444 1.855H54L51.07 11h-2.8zm.166 4.801c-.02.03.3-.671.483-1.148l.24 1s.697 3.565.841 3.565h-3c.294-.907 1.436-3.417 1.436-3.417zM18.868 19.84l-.368-1.71-1.224-5.966C17.064 11.356 16.447 11 15.69 11h-5.643l-.047.382c.928.223 1.776.586 2.57.935.266.182 1.184.824 1.64 2.348l2.579 9.12h3.703L26 11h-3.707l-3.425 8.839zm-6.032 12.455c0 .183.03.34.093.468.063.13.15.235.26.318.112.082.24.142.385.18.145.038.302.057.471.057.183 0 .34-.021.468-.063a.947.947 0 00.315-.164.592.592 0 00.173-.23.69.69 0 00.054-.265c0-.182-.041-.317-.124-.404a.706.706 0 00-.27-.184 5.661 5.661 0 00-.592-.177 41.5 41.5 0 01-.832-.217 1.784 1.784 0 01-.512-.21 1.22 1.22 0 01-.324-.292 1.021 1.021 0 01-.17-.34 1.367 1.367 0 01-.05-.368 1.242 1.242 0 01.548-1.063 1.75 1.75 0 01.561-.257 2.46 2.46 0 01.635-.084c.25 0 .485.032.705.097.22.065.415.161.582.29.167.13.3.29.398.479.098.189.147.409.147.658h-.836c-.022-.307-.127-.525-.314-.652s-.426-.19-.715-.19c-.098 0-.199.01-.301.03a.956.956 0 00-.28.1.616.616 0 00-.211.19.515.515 0 00-.084.301c0 .17.052.302.157.398.105.096.242.168.411.217l.21.057a57.37 57.37 0 00.856.228c.145.037.249.065.311.083.156.05.292.116.408.2.116.085.213.182.29.291a1.2 1.2 0 01.175.351c.037.125.056.25.056.375 0 .267-.054.495-.163.685a1.39 1.39 0 01-.432.464c-.178.12-.38.209-.608.264a2.91 2.91 0 01-.695.084 2.86 2.86 0 01-.769-.1 1.8 1.8 0 01-.628-.308 1.505 1.505 0 01-.428-.531 1.77 1.77 0 01-.167-.766h.836zm4.297-3.181h.836v4.772h-.836v-4.772zm6.537 4.772h-.535l-.127-.561c-.222.254-.445.43-.668.528-.223.098-.48.147-.769.147a2.25 2.25 0 01-.96-.197 2.11 2.11 0 01-.718-.538 2.407 2.407 0 01-.45-.796 2.947 2.947 0 01-.158-.969c0-.339.052-.66.157-.963.105-.303.255-.568.451-.795A2.148 2.148 0 0121.571 29c.259 0 .505.035.739.104.234.069.442.171.625.307.183.136.334.306.454.511.12.205.196.442.228.709H22.8a1.049 1.049 0 00-.144-.411 1.04 1.04 0 00-.277-.298 1.215 1.215 0 00-.374-.18 1.55 1.55 0 00-.435-.06 1.33 1.33 0 00-.658.154 1.29 1.29 0 00-.451.41 1.855 1.855 0 00-.258.586 2.694 2.694 0 000 1.336c.056.219.142.414.258.585.115.172.266.309.45.411.186.103.405.154.66.154.213.005.402-.023.567-.083a1.08 1.08 0 00.675-.679c.058-.165.09-.347.094-.548h-1.27v-.635h2.032v2.513zm1.39-4.772h.882l2.18 3.516h.013v-3.516h.795v4.772h-.882l-2.173-3.509h-.02v3.51h-.795v-4.773zm6.65 0h.89l1.838 4.772h-.896l-.448-1.263H31.19l-.448 1.263h-.862l1.832-4.772zm-.294 2.874h1.458l-.716-2.052h-.02l-.722 2.052zm2.921-2.874h3.864v.722h-1.518v4.05h-.835v-4.05h-1.511v-.722zm4.88 0h.835v2.78c0 .16.008.323.023.488.016.165.06.313.134.445.073.131.185.24.334.324.15.085.36.127.632.127s.482-.042.631-.127a.852.852 0 00.335-.324c.073-.132.118-.28.133-.445a5.18 5.18 0 00.024-.488v-2.78h.835v3.054c0 .308-.047.575-.14.803a1.544 1.544 0 01-.398.571 1.66 1.66 0 01-.618.344c-.24.076-.508.114-.802.114-.294 0-.562-.038-.802-.114a1.66 1.66 0 01-.619-.344 1.544 1.544 0 01-.397-.571 2.098 2.098 0 01-.14-.803v-3.054zm5.393 0h2.28c.525 0 .92.113 1.183.34.263.228.394.544.394.95 0 .227-.033.415-.1.565-.067.149-.145.27-.234.36a.914.914 0 01-.264.198c-.087.04-.15.067-.19.08.07.022.147.045.23.08a.68.68 0 01.23.17c.072.079.13.18.178.305.046.125.07.28.07.468 0 .28.02.536.063.765.043.23.108.393.197.491h-.895a.78.78 0 01-.11-.34 4.062 4.062 0 01-.017-.362 3.44 3.44 0 00-.04-.564.985.985 0 00-.147-.395.622.622 0 00-.291-.23 1.283 1.283 0 00-.471-.074h-1.23v1.965h-.836v-4.772zm.836 2.172h1.37c.267 0 .47-.063.608-.19s.207-.318.207-.572a.884.884 0 00-.066-.37.54.54 0 00-.184-.225.676.676 0 00-.268-.107 1.773 1.773 0 00-.31-.027h-1.357v1.491zm4.384-2.172h3.436v.722h-2.6v1.25h2.406v.681h-2.406v1.397h2.647v.722H49.83v-4.772z"/></g></svg>