<svg xmlns="http://www.w3.org/2000/svg" width="64" height="42" viewBox="0 0 64 42"><g fill="none" fill-rule="evenodd"><path fill="#6F9BB1" fill-rule="nonzero" d="M2 4.008v33.984C2 39.103 2.896 40 4.003 40h55.994C61.1 40 62 39.1 62 37.992V4.008A2.004 2.004 0 0059.997 2H4.003C2.9 2 2 2.9 2 4.008zm-2 0A4.008 4.008 0 014.003 0h55.994A4.004 4.004 0 0164 4.008v33.984A4.008 4.008 0 0159.997 42H4.003A4.004 4.004 0 010 37.992V4.008z"/><path fill="#152E8B" d="M29.69 23.784L32 11h-3.692L26 23.784h3.69zm6.642-9.128c0-.517.662-1.068 2.096-1.068a7.21 7.21 0 012.745.474l.333.143.494-2.682c-.724-.252-1.865-.523-3.289-.523-3.62 0-6.173 1.683-6.195 4.086-.022 1.783 1.82 2.774 3.211 3.365 1.43.608 1.908.996 1.902 1.537-.01.828-1.14 1.213-2.195 1.213-1.466 0-2.244-.19-3.45-.654l-.474-.195-.51 2.773c.852.346 2.44.644 4.08.66 3.853 0 6.36-1.66 6.387-4.23.017-1.411-.963-2.483-3.081-3.365-1.279-.573-2.065-.956-2.054-1.534zM48.27 11c-.863 0-1.513.228-1.893 1.065L41 23.785h3.803s.617-1.458.758-1.806c.419 0 4.11-.05 4.635-.05.113.445.444 1.855.444 1.855H54L51.07 11h-2.8zm.166 4.801c-.02.03.3-.671.483-1.148l.24 1s.697 3.565.841 3.565h-3c.294-.907 1.436-3.417 1.436-3.417zM18.868 19.84l-.368-1.71-1.224-5.966C17.064 11.356 16.447 11 15.69 11h-5.643l-.047.382c.928.223 1.776.586 2.57.935.266.182 1.184.824 1.64 2.348l2.579 9.12h3.703L26 11h-3.707l-3.425 8.839z"/><path fill="#636363" d="M13 29.114h3.436v.722h-2.6v1.25h2.406v.681h-2.406v1.397h2.647v.722H13v-4.772zm4.725 0h.836v4.05h2.426v.722h-3.262v-4.772zm4.352 0h3.435v.722h-2.6v1.25h2.406v.681h-2.406v1.397h2.647v.722h-3.482v-4.772zm7.947 1.517a1.692 1.692 0 00-.147-.381 1.054 1.054 0 00-.585-.498 1.364 1.364 0 00-.458-.07 1.33 1.33 0 00-.658.154c-.185.102-.336.24-.452.41a1.855 1.855 0 00-.257.586 2.694 2.694 0 000 1.336c.056.219.142.414.257.585.116.172.267.309.452.411.185.103.404.154.658.154a1.101 1.101 0 00.862-.364c.103-.114.183-.246.241-.398.058-.151.096-.314.114-.488h.815a2.26 2.26 0 01-.184.782 1.875 1.875 0 01-1.053 1.01c-.24.093-.505.14-.795.14a2.25 2.25 0 01-.96-.197 2.11 2.11 0 01-.718-.538 2.407 2.407 0 01-.451-.796 2.947 2.947 0 01-.157-.969c0-.339.052-.66.157-.963.105-.303.255-.568.451-.795A2.148 2.148 0 0128.834 29c.267 0 .52.037.755.11.237.074.445.18.625.321.18.14.327.311.438.512.112.2.18.43.207.688h-.835zm1.664-1.517h3.863v.722h-1.517v4.05h-.836v-4.05h-1.51v-.722zm4.932 0h2.28c.526 0 .92.113 1.183.34.263.228.394.544.394.95 0 .227-.033.415-.1.565-.067.149-.145.27-.234.36a.914.914 0 01-.264.198c-.087.04-.15.067-.19.08.07.022.148.045.23.08a.68.68 0 01.23.17c.072.079.131.18.178.305.047.125.07.28.07.468 0 .28.021.536.064.765.042.23.108.393.197.491h-.896a.78.78 0 01-.11-.34 4.062 4.062 0 01-.017-.362 3.44 3.44 0 00-.04-.564.985.985 0 00-.147-.395.622.622 0 00-.29-.23 1.283 1.283 0 00-.472-.074h-1.23v1.965h-.836v-4.772zm.836 2.172h1.37c.268 0 .47-.063.609-.19.138-.127.207-.318.207-.572a.884.884 0 00-.067-.37.54.54 0 00-.184-.225.676.676 0 00-.267-.107 1.773 1.773 0 00-.311-.027h-1.357v1.491zm6.417-1.604c-.254 0-.474.051-.659.154-.185.102-.335.24-.451.41a1.855 1.855 0 00-.257.586 2.694 2.694 0 000 1.336c.055.219.141.414.257.585.116.172.266.309.451.411.185.103.405.154.659.154s.473-.051.658-.154c.185-.102.335-.24.451-.41.116-.172.202-.367.258-.586a2.694 2.694 0 000-1.336 1.855 1.855 0 00-.258-.585 1.291 1.291 0 00-.451-.411 1.338 1.338 0 00-.658-.154zm0-.682a2.148 2.148 0 011.678.742c.195.227.346.492.45.795.105.303.158.624.158.963 0 .343-.053.666-.157.97a2.407 2.407 0 01-.452.795 2.11 2.11 0 01-.718.538 2.25 2.25 0 01-.96.197 2.25 2.25 0 01-.959-.197 2.11 2.11 0 01-.718-.538 2.407 2.407 0 01-.451-.796 2.947 2.947 0 01-.158-.969c0-.339.053-.66.158-.963.104-.303.255-.568.45-.795a2.148 2.148 0 011.68-.742zm3.528.114h.883l2.179 3.516h.013v-3.516h.796v4.772h-.883l-2.172-3.509h-.02v3.51H47.4v-4.773z"/></g></svg>