<svg xmlns="http://www.w3.org/2000/svg" width="64" height="42" viewBox="0 0 64 42"><g fill="none" fill-rule="evenodd"><path fill="#FF391F" fill-rule="nonzero" d="M0 4.008A4.008 4.008 0 014.003 0h55.994A4.004 4.004 0 0164 4.008v33.984A4.008 4.008 0 0159.997 42H4.003A4.004 4.004 0 010 37.992V4.008z"/><path fill="#FFF" d="M49.503 9.52L50.5 4h-1.594l-.997 5.52h1.594zm2.867-3.94c0-.224.285-.461.905-.461.519-.009.894.096 1.185.204l.144.062.213-1.158A4.384 4.384 0 0053.398 4c-1.563 0-2.666.727-2.675 1.765-.01.77.786 1.197 1.386 1.452.618.263.824.43.822.664-.005.358-.493.524-.948.524-.633 0-.97-.082-1.49-.282l-.204-.085-.22 1.198c.367.15 1.053.278 1.761.285 1.664 0 2.746-.717 2.758-1.827.008-.61-.416-1.072-1.33-1.453-.553-.247-.892-.413-.887-.662zM57.526 4c-.373 0-.654.099-.818.46l-2.322 5.06h1.643s.266-.629.327-.78c.18 0 1.775-.02 2.001-.02.05.192.192.8.192.8H60L58.735 4h-1.21zm.072 2.073c-.01.013.129-.29.208-.496l.104.432s.3 1.54.363 1.54h-1.296c.127-.392.62-1.476.62-1.476zM44.83 7.817l-.16-.739-.528-2.576C44.05 4.154 43.784 4 43.457 4H41.02l-.02.165c.4.096.767.253 1.11.404.115.078.51.356.708 1.014l1.114 3.938h1.599L47.909 4h-1.6l-1.48 3.817zM33.445 38.149c.099 1.165-1.253.964-1.842.404-1.154-1.097.654-.862 1.27-1.322 1.193-.89 1.574-3.159 1.24-4.523-.272-1.117-.839-1.386-1.467-2.21-.868-1.138-.728-.909.162-2.029.49-.618 1.68-1.35 1.475-2.336-.44-2.117-2.5.567-2.66.436-.472-.387 1.478-2.22 1.71-2.257 1.474-.235 1.806 1.18 1.703 2.234-.093.94-1.655 2.132-1.66 2.89-.006.728.686.918.987 1.524.328.657.31 2.76.625 3.128.64.746-.575 3.801-1.543 4.06zm-4.402-6.232c-1.362.182.399-3.663.113-4.074-1.168.659-5.795 6.264-4.42 1.397.133-.47.905-3.268 1.736-3.064 1.022.25-1.849 4.196-1.243 4.434.656.257 5.301-5.792 5.214-3.675-.02.48-.729 4.893-1.4 4.982zM45.02 18.495c-.399-.113.047-2.156-.054-2.552-.581.417-2.365 3.274-3.268 2.883-.557-.241-.263-3.165.05-3.79 1.775-3.539.456 2.703.544 2.843.276-.161 3.814-4.017 3.658-2.976-.066.44-.368 3.75-.93 3.592zm-25.083 10.2c-.969.73-.447 1.807-1.255 2.731-1.182 1.354-.234-1.737-.316-1.923-.331-.75-1.962-.977-2.98-.736-1.978.468-.53 1.446-1.549 2.82-1.465 1.974-.271-1.887-.463-2.283-.331-.68-2.555-1.434-3.45-.526-.36.366-.097 3.506-.99 3.255-.836-.236.526-2.678-.524-3.261.395.22 1.308-3.958 1.717-3.39.473.655-.836 2.015-.243 2.577.217.206 2.762-.009 2.946-.098 1.065-.517.279.283 1.034-.94.252-.41.177-2.538.852-2.437.695.105-.28 2.521-.166 2.76.402.836 1.121.566 2.197.573 1.186.008 1.398.348 2.068-.573.253-.348.377-3.288 1.065-3.136.755.167-.697 3.175-.225 3.678.256.274 4.286-1.235 3.966.295-.205.978-2.997.097-3.684.614zm26.6-2.918c-.252-.796.137-5.043.665-5.386.685-.444 1.777.265 1.2 1.38-.288.559-.617 7.931-1.864 4.006zm-6.595 5.1c-1.173 2.333-1.418-2.473-1.323-2.37-1.217.679-.689.722-1.275 1.69-.431.714-.41 2.007-1.082.569-.273-.586.236-5.154 1.176-5.023.375.052.051 2.155.079 2.482.447.122.806-.524 1.147.03.323-.573.124-1.634.483-2.08.075-.094 1.227-1.382 1.152-.106-.044.747-.067 4.23-.357 4.808zm2.513-2.084c.73-.028.518 1.589.4 1.894-.25.64-1.228-1.862-.4-1.894zm.042-1.427c-.191-.442-.005-1.75-.142-1.95-.697-1.025-1.207 2.44-1.223 2.563-.106.832-.487 2.661.255 3.33 1.863 1.679 3.256-2.414 2.192-2.869-.964-.412-1.566.16-1.082-1.074zm4.444 2.973c-.153-.887 1.258-1.934 1.26-.71-.098.417-1.05 1.919-1.26.71zm-14.44-13.73c-.949-.562-1.547-.437-.337-1.93.46.103.724 1.234.52 1.611-.055.103-.116.202-.184.319zm1.66-1.248c-.122-.373-.019-2.133-.885-.694-1.466-.857-3.49.384-2.949 2.176.503 1.667 1.79.668 2.727.579.691-.066 1.143.578 1.783.156-.07.046 1.194-.82.231-.744-1.495.119-.513-.27-.907-1.473zm-10.087.49c.048.416.162.83-.137 1.207-.376-.399-.33-.801.137-1.206zm-.932-1.243c-1.453 1.722.684 5.5 1.776 3.19.78-1.65.49-5.872-1.776-3.19zm4.553 1.393a2.313 2.313 0 01.014-.946c.086-.873 1.178-.09-.014.946zm.879.788c.845 1.962-1.102 1.26-1.398 1.808-.46.854 1.677.35 2.088-.323.431-.706.492-2.953.135-3.63-1.72-3.253-4.12 1.738-3.113 2.302.994.558 1.278.388 2.288-.157zm-18.714.992c.559-.033.423 1.868 1.17 2.072 1.269.347 1.766-1.743 2.077-2.576.212-.568 1.838-5.074 1.53-5.285-.102-.07-2.084 2.6-1.282.234.683-2.016 3.112-.962 4.62-.86 1.09.075 7.33-.687 7.405.043.178 1.728-3.68.883-4.389 1.354-.5.333-1.704 3.733-1.146 4.55.593.871 1.927-2.02 1.911-.425-.014 1.345-3.24 3.116-2.662.37-.222-1.086 1.1-3.592.532-4.41-.271-.39-3.628-.675-4.068-.332-1.02.797-2.716 12.315-5.687 7.053-.056-.1-.563-1.756-.01-1.788zm29.528-2.844c-.045.067-1.594 1.696-1.328.814.365-1.215 1.508-1.084 1.328-.814zm-1.755 8.62c.557-.06.147-3.97.157-4.471.005-.237-.124-1.787.119-2.154.427-.644 1.397-.37 1.774-1.283.517-1.25-.571-2.57-1.973-1.514-.915.689-.897 3.543-.989 4.502l.046.003c.032.635.055 1.271.104 1.905.03.398.317 3.06.762 3.012z"/></g></svg>