<svg xmlns="http://www.w3.org/2000/svg" width="36" height="36" viewBox="0 0 36 36">
    <g fill="none">
        <circle cx="18" cy="18" r="18" fill="#FFDA44"/>
        <g fill="#338AF3">
            <path d="M18 36c5.456 0 10.344-2.427 13.645-6.26H4.355C7.656 33.572 12.545 36 18 36zM36 18c0-9.941-8.059-18-18-18S0 8.059 0 18c0 1.625.217 3.198.62 4.696h34.76c.403-1.498.62-3.071.62-4.696zM1.43 25.043c.348.816.753 1.6 1.212 2.348h30.716c.459-.748.864-1.532 1.211-2.348H1.431z"/>
        </g>
        <path fill="#F0F0F0" d="M8.249 11.353L4.732 9.801 8.249 8.249 9.801 4.732 11.353 8.249 14.87 9.801 11.353 11.353 9.801 14.87z"/>
        <path fill="#D80027" d="M9.801 6.67L10.759 8.842 12.931 9.801 10.759 10.759 9.801 12.931 8.842 10.759 6.67 9.801 8.842 8.842z"/>
    </g>
</svg>
