<svg xmlns="http://www.w3.org/2000/svg" width="36" height="36" viewBox="0 0 36 36">
    <g fill="none" fill-rule="evenodd">
        <path fill="#D80027" d="M18 0c9.94 0 18 8.06 18 18s-8.06 18-18 18S0 27.94 0 18 8.06 0 18 0"/>
        <path fill="#3D3D3D" d="M14.407 8.5c-.35-.006-.93.112-.918.38-.975-.167-1.077.236-1.02.594.093-.142.206-.22.293-.234.13-.02.266.02.405.106s.292.223.36.308c-.344.082-.6.03-.88-.018-.133-.023-.32-.098-.43-.176-.11-.078-.145-.15-.32-.328-.205-.2-.424-.15-.356.175.157.303.42.438.75.493.16.026.397.083.666.083s.57-.04.736-.004c-.1.062-.21.17-.432.21-.222.04-.568-.134-.776-.182.027.176.248.34.684.425.717.156 1.312.275 1.706.488.394.213.642.48.82.69.353.417.37.737.394.808.072.666-.16 1.04-.592 1.156-.267.044-.539-.035-.74-.216-.14-.165-.278-.45-.24-.893.038-.174.237-.628.068-.722-.78-.429-1.589-.806-2.419-1.129-.188-.07-.343.184-.403.283-1.167-.142-2.22-.932-2.693-1.773-.323-.573-.855.001-.765.542.144.604.604 1.04 1.156 1.35.567.312 1.275.62 1.99.603.386.073.382.573-.08.666-.906.006-1.63-.017-2.31-.675-.518-.472-.81.09-.66.4.254.983 1.656 1.26 3.076.94.55-.09.22.498.065.504-.593.425-1.655.84-2.6-.004-.428-.328-.717-.052-.558.42.415 1.233 2.002.974 3.09.367.28-.156.535.207.194.484-1.355.947-2.033.958-2.644.594-.765-.302-.832.547-.378.826.505.3 1.79.078 2.734-.515.404-.3.423.17.167.356-1.12.967-1.56 1.222-2.727 1.064-.58-.045-.57.668-.115.947.62.38 1.835-.25 2.776-1.033.396-.212.462.136.266.547-.576.726-1.116 1.154-1.636 1.352-.52.198-1.02.167-1.375.045-.432-.148-.486.3-.247.71.144.246.74.325 1.384.097.644-.228 1.335-.763 1.81-1.4.413-.36.36.124.173.466-.95 1.502-1.82 2.06-2.963 1.964-.507-.086-.623.308-.3.673.568.47 1.278.456 1.9-.01l2.162-2.293c.4-.31.515-.004.4.628-.104.362-.365.743-1.076 1.022-.485.277-.12.66.243.666.2.004.607-.23.918-.58.41-.46.434-.77.66-1.487.213-.35.594-.186.594.18-.183.718-.34.847-.71 1.14-.353.33.246.442.448.306.584-.394.797-.903.992-1.366.14-.334.55-.172.36.374-.453 1.304-1.196 1.818-2.497 2.08-.132.023-.212.1-.167.254l.524.527-2.263.6-1.11-.738c-.104-.243-.153-.615-.736-.353-.395-.182-.577-.115-.797.068.317.012.454.097.578.24.162.427.536.468.918.346l.63.58-1.25-.038c-.442-.475-.795-.45-1.11-.077-.24.037-.344.042-.51.335.26-.106.423-.138.535-.022.47.273.777.212 1 0l1.316.08c-.167.142-.396.217-.562.36-.68-.195-1.037.067-1.157.623-.096.218-.129.46-.094.695.066-.22.172-.408.367-.526.607.154.835-.094.868-.457.293-.24.734-.29 1.026-.533l.85.286c.122.372.4.52.848.423.535.017.44.236.484.412.142-.252.138-.497-.19-.72-.12-.326-.385-.474-.733-.286-.328-.093-.414-.227-.74-.32.826-.263 1.41-.322 2.236-.585l.578.51c.1.066.215.082.28 0 .517-.748.748-1.408 1.228-1.9.184-.204.416-.48.673-.547.13-.033.286-.013.387.097.101.11.18.312.146.614-.048.433-.153.57-.274.83-.121.26-.27.42-.423.62-.305.398-.71.63-.947.785-.477.31-.68.175-1.048.155-.478.054-.605.286-.214.608.365.2.694.214.96.164.23-.042.497-.338.688-.497.215-.25.572.046.328.335-.442.525-.884.87-1.43.864-.573.077-.466.4-.085.556.684.282 1.302-.246 1.616-.594.242-.265.414-.275.37.135-.24.743-.57 1.03-1.105 1.066-.435-.04-.44.295-.12.522.724.5 1.25-.352 1.494-.868.174-.465.442-.244.47.14.004.513-.228.93-.848 1.456L18 30.503l1.503-2.284c-.62-.525-.852-.943-.848-1.456.028-.384.296-.605.47-.14.245.516.77 1.37 1.494.87.318-.227.313-.562-.122-.522-.536-.037-.864-.324-1.105-1.067-.043-.4.13-.4.37-.135.314.348.93.876 1.616.594.38-.157.487-.48-.086-.556-.545.008-.987-.34-1.43-.864-.243-.29.113-.584.328-.335.19.16.46.455.69.497.267.05.595.026.96-.164.39-.32.264-.554-.214-.607-.37.02-.57.156-1.05-.155-.24-.156-.642-.387-.947-.785-.153-.2-.3-.36-.423-.62s-.226-.397-.274-.83c-.034-.302.046-.504.146-.614.1-.11.258-.13.387-.097.257.067.49.343.673.547.48.493.71 1.153 1.228 1.9.065.082.17.066.28 0l.578-.508c.825.263 1.41.322 2.236.585-.326.093-.413.226-.74.32-.348-.188-.614-.04-.733.286-.33.223-.333.468-.19.72.043-.176-.05-.395.484-.412.45.096.726-.05.848-.423l.85-.286c.292.242.733.295 1.026.533.033.363.26.61.868.457.195.118.3.307.367.526.035-.236.002-.477-.094-.695-.12-.556-.475-.818-1.157-.623-.167-.143-.396-.218-.563-.36l1.316-.08c.233.212.54.273 1 0 .113-.116.276-.084.535.023-.165-.293-.267-.298-.508-.335-.316-.372-.67-.398-1.11.076l-1.25.038.63-.58c.382.12.756.08.918-.347.124-.144.262-.23.578-.24-.22-.183-.4-.25-.796-.068-.583-.262-.632.1-.736.353l-1.11.738-2.263-.6.524-.527c.046-.153-.035-.23-.167-.254-1.3-.264-2.045-.777-2.497-2.08-.19-.546.22-.708.36-.374.195.463.408.972.992 1.366.202.136.8.026.448-.306-.37-.294-.526-.423-.71-1.14 0-.366.38-.53.594-.18.226.717.25 1.026.66 1.487.31.35.718.584.918.58.364-.007.728-.39.243-.666-.71-.278-.97-.66-1.075-1.022-.115-.632.01-.94.4-.628l2.162 2.293c.62.465 1.33.48 1.9.01.324-.364.208-.76-.3-.673-1.144.095-2.013-.462-2.963-1.964-.188-.342-.24-.827.173-.466.474.627 1.165 1.162 1.81 1.4s1.24.15 1.384-.097c.24-.408.185-.857-.248-.71-.354.122-.855.153-1.375-.045s-1.06-.626-1.636-1.352c-.196-.41-.13-.76.265-.547.942.78 2.155 1.414 2.777 1.033.455-.28.464-.992-.115-.947-1.167.158-1.608-.097-2.727-1.064-.256-.186-.238-.656.167-.355.943.593 2.23.825 2.734.515.454-.28.387-1.128-.378-.826-.61.364-1.29.353-2.644-.594-.34-.276-.087-.64.194-.484 1.1.607 2.677.867 3.09-.367.16-.473-.13-.748-.558-.42-.935.846-1.997.43-2.6.004-.155-.006-.484-.595.065-.504 1.42.318 2.822.043 3.076-.94.15-.32-.142-.882-.66-.41-.682.658-1.405.68-2.31.675-.463-.094-.467-.593-.08-.666.716.016 1.425-.29 1.99-.603.552-.31 1.012-.746 1.156-1.35.09-.54-.442-1.115-.765-.542-.587.964-1.575 1.615-2.693 1.773-.06-.1-.215-.355-.403-.284-.687.26-1.637.697-2.42 1.13-.17.094.03.548.068.722.04.444-.098.728-.24.893-.201.18-.473.26-.74.216-.432-.115-.664-.5-.592-1.157.022-.07.04-.39.394-.808.177-.2.425-.477.82-.69.395-.213.99-.332 1.706-.488.436-.086.657-.25.684-.425-.21.048-.55.225-.776.182-.226-.043-.333-.15-.432-.212.164-.034.467.005.736.005.269 0 .507-.057.666-.083.33-.054.594-.19.75-.493.068-.327-.15-.386-.355-.176-.174.178-.21.25-.32.328-.11.078-.297.152-.43.176-.27.047-.536.1-.88.018.068-.085.22-.223.36-.308.14-.085.275-.127.405-.106.087.015.2.092.293.234.057-.358-.044-.76-1.02-.594.013-.27-.568-.386-.918-.38-.198.003-.605.12-.898.257-.463.14-.924.243-1.463.28.31.26.372.276.686.5-.402.154-.751.42-1.008.765.415.02.552-.015.693.045-.578.168-.84.266-1.145.57l.337.074c.07.027.042.063-.007.115-.133.083-.64.68-.8.82-.15-.138-.657-.736-.8-.82-.048-.052-.078-.088-.007-.115.071-.027.23-.054.338-.074-.306-.306-.567-.404-1.145-.57.14-.06.278-.025.693-.045-.257-.345-.606-.61-1.008-.765.314-.223.375-.238.686-.5-.54-.038-1-.14-1.463-.28-.293-.137-.7-.253-.898-.257"/>
    </g>
</svg>
