<svg xmlns="http://www.w3.org/2000/svg" width="36" height="36" viewBox="0 0 36 36">
    <g fill="none">
        <path fill="#FFDA44" d="M24.26 1.12C22.257.377 20.137-.002 18 0c-2.137-.002-4.257.377-6.261 1.12L10.174 18l1.565 16.88c2.004.743 4.124 1.122 6.261 1.12 2.137.002 4.257-.377 6.261-1.12L25.826 18 24.26 1.12z"/>
        <path fill="#D80027" d="M36 18c0-7.74-4.885-14.337-11.74-16.88v33.76C31.115 32.337 36 25.74 36 18z"/>
        <path fill="#3D3D3D" d="M0 18c0 7.74 4.885 14.337 11.74 16.88V1.12C4.885 3.663 0 10.26 0 18z"/>
    </g>
</svg>
