<svg xmlns="http://www.w3.org/2000/svg" width="36" height="36" viewBox="0 0 36 36">
    <g fill="none">
        <circle cx="18" cy="18" r="18" fill="#F0F0F0"/>
        <g fill="#A2001D">
            <path d="M6.435 14.696L4.478 11.146 6.435 7.652 8.392 11.146z" transform="translate(1 2)"/>
            <path d="M2.522 14.696l-1.957-3.55 1.957-3.494 1.957 3.494-1.957 3.55zm3.913 9.652l-1.957-3.55 1.957-3.494 1.957 3.494-1.957 3.55z" transform="translate(1 2)"/>
            <path d="M2.522 24.348l-1.957-3.55 1.957-3.494 1.957 3.494-1.957 3.55zM8.4 1.494l-.554-1c-.99.587-1.923 1.268-2.784 2.033l1.38 2.506 1.957-3.55.001.011zM6.435 26.957L5.04 29.45c.86.766 1.792 1.448 2.782 2.036l.57-1.035-1.957-3.494z" transform="translate(1 2)"/>
        </g>
        <path fill="#6DA544" d="M10.957 22.696V34.57c2.227.947 4.623 1.433 7.043 1.43 7.74 0 14.337-4.885 16.88-11.74l-23.924-1.565.001.001z"/>
        <path fill="#A2001D" d="M34.88 24.26c.743-2.003 1.122-4.123 1.12-6.26 0-9.94-8.06-18-18-18-2.5 0-4.88.5-7.043 1.43v22.83H34.88z"/>
    </g>
</svg>
