<svg xmlns="http://www.w3.org/2000/svg" width="36" height="36" viewBox="0 0 36 36">
    <g fill="none">
        <path fill="#FFDA44" d="M25.826 1.786C23.386.606 20.71-.004 18 0c-2.71-.004-5.386.607-7.826 1.786L8.61 18l1.565 16.214C12.615 35.393 15.29 36.004 18 36c2.71.004 5.386-.607 7.826-1.786L27.39 18 25.826 1.786z"/>
        <path fill="#0052B4" d="M10.174 1.787C4.153 4.698 0 10.864 0 18c0 7.136 4.153 13.302 10.174 16.213V1.787zm15.652 0v32.427C31.847 31.302 36 25.136 36 18c0-7.136-4.153-13.302-10.174-16.213z"/>
        <path fill="#000" d="M23.478 10.957l1.05.525-2.1-1.05c-.063.127-1.434 2.916-1.658 7.177h-1.596v-6.652L18 9.39l-1.174 1.565v6.652H15.23c-.224-4.26-1.595-7.05-1.658-7.177l-2.1 1.05c.014.03 1.44 2.933 1.44 7.3v1.174h3.913v6.652h2.348v-6.652h3.913V18.78c0-2.258.39-4.12.72-5.285.357-1.27.72-2.01.724-2.02l-1.05-.522-.002.004z"/>
    </g>
</svg>
