<svg xmlns="http://www.w3.org/2000/svg" width="36" height="36" viewBox="0 0 36 36">
    <g fill="none">
        <circle cx="18" cy="18" r="18" fill="#F0F0F0"/>
        <path fill="#0052B4" d="M33.812 9.392C31.486 5.13 27.486 1.9 22.696.62l-.783 8.772H33.812zm-31.622 0h11.898L13.305.62C8.556 1.901 4.539 5.071 2.189 9.392h.001z"/>
        <path fill="#6DA544" d="M21.913 18v8.6H33.8c1.443-2.637 2.2-5.594 2.2-8.6H21.913zm-7.826 0H0c-.004 3.008.748 5.969 2.189 8.609h11.898V18z"/>
        <g fill="#FFDA44">
            <path d="M.2.6c2.326 4.263 6.326 7.48 11.116 8.772l.783-7.672L.19.6H.2zm20.506 8.77c4.749-1.281 8.766-4.451 11.116-8.772l-11.898 1.1.783 7.672h-.001z" transform="translate(2 26)"/>
            <path d="M19.913 1.7L31.811.6H19.913v1.1zM12.087.6H.2l11.898 1.1-.011-1.1z" transform="translate(2 26)"/>
        </g>
        <path fill="#D80027" d="M18 0c-1.586 0-3.165.208-4.696.62v34.76c1.497.403 3.07.62 4.696.62 1.586 0 3.165-.208 4.696-.62V.62C21.165.208 19.586 0 18 0z"/>
        <path fill="#FFDA44" d="M9.682 3.913L10.168 5.408 11.74 5.408 10.47 6.332 10.956 7.827 9.684 6.903 8.414 7.827 8.9 6.332 7.63 5.408 9.202 5.408z"/>
    </g>
</svg>
