<svg xmlns="http://www.w3.org/2000/svg" width="36" height="36" viewBox="0 0 36 36">
    <g fill="none">
        <circle cx="18" cy="18" r="18" fill="#F0F0F0"/>
        <path fill="#D80027" d="M36 18c0-7.136-4.153-13.302-10.174-16.214v32.428C31.847 31.303 36 25.136 36 18zM0 18c0 7.136 4.153 13.302 10.174 16.214V1.786C4.153 4.698 0 10.864 0 18zm21.13 2.348l3.13-1.565L22.696 18v-1.565L19.565 18l1.565-3.13h-1.565L18 12.522l-1.565 2.348H14.87L16.435 18l-3.13-1.565V18l-1.565.783 3.13 1.565-.783 1.565h3.13v2.348h1.565v-2.348h3.13l-.782-1.565z"/>
    </g>
</svg>
