<svg xmlns="http://www.w3.org/2000/svg" width="36" height="36" viewBox="0 0 36 36">
    <g fill="none">
        <path fill="#FFDA44" d="M34 9.746c-.853-1.652-1.957-3.161-3.273-4.475C29.378 3.92 27.865 2.83 26.254 2l-12.68 11.574L2 26.253c.853 1.652 1.957 3.161 3.273 4.475 1.314 1.316 2.823 2.42 4.475 3.273l12.68-11.574L34 9.746z"/>
        <path fill="#D80027" d="M5.272 30.728c.755.755 1.56 1.43 2.406 2.02L32.75 7.677c-.593-.845-1.266-1.65-2.02-2.406-.754-.756-1.56-1.428-2.406-2.02L3.25 28.323c.593.845 1.266 1.65 2.02 2.406l.002-.001z"/>
        <path fill="#338AF3" d="M5.272 5.27C-.407 10.95-1.498 19.48 2 26.253L26.254 2C19.48-1.498 10.95-.407 5.272 5.27zm25.456 25.458c5.68-5.68 6.77-14.208 3.273-20.982L9.747 34c6.774 3.496 15.303 2.406 20.982-3.273l-.001.001z"/>
        <path fill="#FFDA44" d="M9.592 5.478L10.562 8.468 13.705 8.468 11.162 10.316 12.132 13.306 9.589 11.458 7.046 13.306 8.016 10.316 5.473 8.468 8.62 8.468z"/>
    </g>
</svg>
