<svg xmlns="http://www.w3.org/2000/svg" width="36" height="36" viewBox="0 0 36 36">
    <g fill="none">
        <circle cx="18" cy="18" r="18" fill="#F0F0F0"/>
        <path fill="#D80027" d="M36 17.948H16.487c-3.874 3.874-6.217 6.865-8.61 9.257l10.174.917 15.788-1.565C35.261 23.929 36.004 20.987 36 18v-.052z"/>
        <path fill="#FFDA44" d="M7.878 9.34h25.904C30.72 3.773 24.8 0 18 0 13.238-.006 8.668 1.882 5.299 5.247l2.58 4.092-.001.001z"/>
        <path fill="#0052B4" d="M8.66 26.557C7.043 28.175 6.417 29.53 5.247 30.7 8.506 33.974 13.016 36 18 36c6.844 0 12.795-3.82 15.84-9.443H8.66z"/>
        <path fill="#6DA544" d="M5.272 5.22c-7.03 7.03-7.03 18.426 0 25.456L18 17.948 5.272 5.22z"/>
        <g fill="#F0F0F0">
            <path d="M2.748 5.948c0-2.573 1.791-4.799 4.304-5.351C6.674.514 6.282.47 5.878.47 2.853.471.401 2.923.4 5.948c.001 3.025 2.453 5.477 5.478 5.478.403 0 .796-.045 1.174-.127-2.513-.552-4.303-2.778-4.304-5.351z" transform="translate(2 12)"/>
            <path d="M6.992 1.252L7.282 2.149 8.225 2.149 7.462 2.703 7.752 3.6 6.989 3.046 6.226 3.6 6.516 2.703 5.753 2.149 6.7 2.149z" transform="translate(2 12)"/>
            <path d="M1.992 0.252L2.282 1.149 3.225 1.149 2.462 1.703 2.752 2.6 1.989 2.046 1.226 2.6 1.516 1.703 0.753 1.149 1.7 1.149z" transform="translate(2 12) translate(5 3.348)"/>
            <path d="M1.992 0.252L2.282 1.149 3.225 1.149 2.462 1.703 2.752 2.6 1.989 2.046 1.226 2.6 1.516 1.703 0.753 1.149 1.7 1.149z" transform="translate(2 12) translate(5 5.696)"/>
            <path d="M1.992 0.252L2.282 1.149 3.225 1.149 2.462 1.703 2.752 2.6 1.989 2.046 1.226 2.6 1.516 1.703 0.753 1.149 1.7 1.149z" transform="translate(2 12) translate(5 8.043)"/>
        </g>
    </g>
</svg>
