<svg xmlns="http://www.w3.org/2000/svg" width="36" height="36" viewBox="0 0 36 36">
    <g fill="none">
        <circle cx="18" cy="18" r="18" fill="#F0F0F0"/>
        <path fill="#496E2D" d="M21.52 35.654c7.131-1.427 12.706-7.002 14.133-14.133H21.52v14.133zM.345 21.52c1.427 7.131 7.002 12.706 14.133 14.133V21.52H.345zm35.31-7.042C34.228 7.346 28.653 1.772 21.521.345v14.133H35.655zM14.478.345C7.347 1.772 1.772 7.347.345 14.478h14.133V.345z"/>
        <path fill="#FFDA44" d="M16.826 21.522h-2.348v14.133c.775.153 1.56.256 2.348.306V21.52v.002zm0-7.044V.04c-.789.05-1.573.153-2.348.306V14.48h2.348v-.002z"/>
        <path fill="#3D3D3D" d="M19.174.04L18 0l-1.174.04v14.44h2.348V.04zm-2.348 35.92L18 36l1.174-.04V21.52h-2.348v14.44z"/>
        <path fill="#FFDA44" d="M14.478 16.826v-2.348H.345c-.153.775-.256 1.56-.306 2.348h14.44-.001zm7.044 0h14.44c-.05-.789-.153-1.573-.306-2.348H21.522v2.348z"/>
        <path fill="#3D3D3D" d="M21.522 19.174h14.44L36 18l-.04-1.174H21.52v2.348h.002zM.04 16.826L0 18l.04 1.174h14.44v-2.348H.04z"/>
        <circle cx="18" cy="18" r="8.609" fill="#D80027"/>
        <path fill="#496E2D" d="M19.96 18.96c-.64-1.28-1.473-2.58-1.473-2.58l.02-.943c.004-.517-.402-.944-.918-.967-.517-.022-.958.369-.999.884-.397.027-.706.357-.708.755 0 .292.165.545.408.672.121-.283.357-.502.648-.602.048.04.099.074.153.103l.123.06s-.456 1.286-.456 1.977c0 1.942 1.28 2.54 1.28 2.54v.02l-.64.64h1.28v-1.28l.64.64c.006-.012 1.213-.776.64-1.92l.002.001zM18 10.956l.3.897h.943l-.763.554.3.897-.76-.554-.763.554.3-.897-.763-.554h.943l.263-.897zM13.86 12.3l.763.554.763-.554-.3.897.763.554h-.943l-.3.897-.3-.897h-.943l.763-.554-.266-.897zm-2.56 3.523h.943l.3-.897.3.897h.943l-.763.554.3.897-.763-.554-.763.554.3-.897-.797-.554zm0 4.353l.763-.554-.3-.897.763.554.763-.554-.3.897.763.554h-.943l-.3.897-.3-.897H11.3zm2.56 3.522l.3-.897-.763-.554h.943l.3-.897.3.897h.943l-.763.554.3.897-.763-.554-.797.554zM18 25.043l-.3-.897h-.943l.763-.554-.3-.897.763.554.763-.554-.3.897.763.554h-.943l-.266.897zm4.14-1.345l-.763-.554-.763.554.3-.897-.763-.554h.943l.3-.897.292.897h.943l-.763.554.274.897zm2.56-3.522h-.943l-.3.897-.3-.897h-.943l.763-.554-.3-.897.763.554.763-.554-.3.897.797.554zm0-4.353l-.763.554.3.897-.763-.554-.763.554.3-.897-.763-.554h.943l.3-.897.292.897h.917zM22.14 12.3l-.3.897.763.554h-.943l-.3.897-.3-.897h-.943l.763-.554-.3-.897.763.554.797-.554z"/>
    </g>
</svg>
