<svg xmlns="http://www.w3.org/2000/svg" width="36" height="36" viewBox="0 0 36 36">
    <g fill="none">
        <circle cx="18" cy="18" r="18" fill="#F0F0F0"/>
        <path fill="#D80027" d="M.62 22.696c1.662 6.167 6.518 11.022 12.684 12.684V22.696H.62z"/>
        <path fill="#0052B4" d="M13.304.62C7.138 2.282 2.282 7.138.62 13.304h12.684V.62z"/>
        <path fill="#D80027" d="M35.38 13.304C33.718 7.138 28.862 2.282 22.696.62v12.684H35.38z"/>
        <path fill="#0052B4" d="M22.696 35.38c6.167-1.662 11.022-6.518 12.684-12.684H22.696V35.38z"/>
        <path fill="#496E2D" d="M22.696 18c0 2.593-2.102 4.696-4.696 4.696S13.304 20.593 13.304 18c0-2.593 4.696-4.696 4.696-4.696s4.696 2.102 4.696 4.696z"/>
        <path fill="#0052B4" d="M13.304 18c0-2.593 2.102-4.696 4.696-4.696s4.696 2.102 4.696 4.696"/>
        <path fill="#D80027" d="M15.36 15.652v2.935c0 1.459 1.183 2.642 2.642 2.642 1.458 0 2.641-1.183 2.641-2.642v-2.935H15.36z"/>
    </g>
</svg>
