<svg xmlns="http://www.w3.org/2000/svg" width="36" height="36" viewBox="0 0 36 36">
    <g fill="none">
        <circle cx="18" cy="18" r="18" fill="#F0F0F0"/>
        <path fill="#D80027" d="M18 0C10.26 0 3.663 4.885 1.12 11.74h33.76C32.337 4.885 25.74 0 18 0z"/>
        <path fill="#3D3D3D" d="M18 36c7.74 0 14.337-4.885 16.88-11.74H1.12C3.663 31.115 10.26 36 18 36z"/>
        <path fill="#FF9811" d="M24.26 16.043h-4.696c0-.864-.7-1.565-1.565-1.565s-1.565.7-1.565 1.565H11.74c0 .864.753 1.565 1.617 1.565h-.052c0 .864.7 1.565 1.565 1.565 0 .864.7 1.565 1.565 1.565h3.13c.864 0 1.565-.7 1.565-1.565.864 0 1.565-.7 1.565-1.565h-.052c.864 0 1.617-.7 1.617-1.565z"/>
    </g>
</svg>
