<svg xmlns="http://www.w3.org/2000/svg" width="36" height="36" viewBox="0 0 36 36">
    <g fill="none">
        <path fill="#338AF3" d="M16.435 16.435L5.272 30.728C8.53 33.985 13.03 36 18 36c9.94 0 18-8.06 18-18l-19.565-1.565z"/>
        <path fill="#6DA544" d="M16.435 18L5.272 5.272C8.53 2.015 13.03 0 18 0c9.94 0 18 8.06 18 18H16.435z"/>
        <path fill="#D80027" d="M5.272 5.272c-7.03 7.03-7.03 18.426 0 25.456C5.272 30.73 36 18 36 18L5.272 5.272z"/>
        <path fill="#FFDA44" d="M9.39 10.565c-3.456.005-6.256 2.805-6.261 6.261v2.348c.005 3.456 2.805 6.256 6.261 6.261 3.456-.005 6.256-2.805 6.261-6.261v-2.348c-.005-3.456-2.805-6.256-6.261-6.261zm3.913 8.61c-.002 1.708-1.11 3.218-2.739 3.733v-2.56l1.66-1.66-1.66-1.66-.001-.59v-.784H8.217V18l-1.66 1.66 1.66 1.66v1.587c-1.629-.515-2.737-2.025-2.739-3.733v-2.348c.004-2.16 1.754-3.91 3.913-3.913 2.16.004 3.91 1.754 3.913 3.913v2.348l-.001.001z"/>
    </g>
</svg>
