<svg xmlns="http://www.w3.org/2000/svg" width="36" height="36" viewBox="0 0 36 36">
    <g fill="none">
        <path fill="#FFDA44" d="M0 18c-.002 2.137.377 4.257 1.12 6.261L18 25.826l16.88-1.565c.743-2.004 1.122-4.124 1.12-6.261 0-2.172-.385-4.253-1.09-6.18L18 10.174 1.09 11.82C.385 13.747 0 15.828 0 18z"/>
        <path fill="#D80027" d="M18 36c7.74 0 14.337-4.885 16.88-11.74H1.12C3.663 31.115 10.26 36 18 36z"/>
        <path fill="#6DA544" d="M18 0C10.26 0 3.663 4.885 1.12 11.74h33.76C32.337 4.885 25.74 0 18 0z"/>
        <circle cx="18" cy="18" r="8.609" fill="#0052B4"/>
        <g fill="#FFDA44">
            <path d="M7 0.333L8.554 5.116 13.6 5.116 9.523 8.072 11.089 12.869 7 9.9 2.926 12.865 4.486 8.073 0.413 5.117 5.446 5.117z" transform="translate(11 11)"/>
            <path d="M13.197 8.2L8.267 6.598 11.314 2.405 10.048 1.485 7 5.668 3.953 1.474 2.687 2.394 5.734 6.588 0.804 8.19 1.288 9.68 6.218 8.078 6.218 13.262 7.783 13.262 7.783 8.078 12.713 9.68z" transform="translate(11 11)"/>
        </g>
    </g>
</svg>
