<svg xmlns="http://www.w3.org/2000/svg" width="36" height="36" viewBox="0 0 36 36">
    <g fill="none" transform="translate(0 -1)">
        <circle cx="18" cy="18.07" r="18" fill="#FFDA44"/>
        <path fill="#A2001D" d="M7.855 3.2C10.744 1.226 14.237.07 18 .07s7.256 1.156 10.145 3.13L18 3.983 7.855 3.2z"/>
        <path fill="#0052B4" d="M18 18.07L16.85 16.92 16.545 17.466z"/>
        <g fill="#496E2D">
            <path d="M5.272.342c-7.03 7.03-7.03 18.426 0 25.456L18 13.07 5.272.342zM30.728.342c7.03 7.03 7.03 18.426 0 25.456L18 13.07 30.728.342z" transform="translate(0 5)"/>
        </g>
        <circle cx="18" cy="18.07" r="6.261" fill="#A2001D"/>
        <path fill="#FFDA44" d="M18 11.8L19.403 16.12 23.945 16.12 20.27 18.8 21.673 23.12 18 20.45 14.325 23.12 15.729 18.8 12.055 16.13 16.597 16.13z"/>
        <path fill="#A2001D" d="M18.006.07h-.012C13.222.066 8.644 1.962 5.273 5.34h25.454C27.356 1.962 22.778.066 18.006.07zM5.273 30.8C8.53 34.056 13.03 36.07 18 36.07c4.97 0 9.47-2.014 12.727-5.27H5.273z"/>
        <g fill="#FFDA44">
            <path d="M6 .027L6.29.924 7.233.924 6.47 1.478 6.76 2.375 6 1.82 5.237 2.374 5.527 1.477 4.764.923 5.707.923zM1.635.027L1.925.924 2.868.924 2.105 1.478 2.395 2.375 1.632 1.821.869 2.375 1.159 1.478.396.924 1.339.924z" transform="translate(12 2)"/>
            <path d="M1.635 0.027L1.925 0.924 2.868 0.924 2.105 1.478 2.395 2.375 1.632 1.821 0.869 2.375 1.159 1.478 0.396 0.924 1.339 0.924z" transform="translate(12 2) translate(8.729)"/>
            <path d="M6 29.766L6.29 30.663 7.233 30.663 6.47 31.217 6.76 32.114 6 31.56 5.237 32.114 5.527 31.217 4.764 30.663 5.707 30.663z" transform="translate(12 2)"/>
            <path d="M1.635 0.027L1.925 0.924 2.868 0.924 2.105 1.478 2.395 2.375 1.632 1.821 0.869 2.375 1.159 1.478 0.396 0.924 1.339 0.924z" transform="translate(12 2) translate(0 29.739)"/>
            <path d="M1.635 0.027L1.925 0.924 2.868 0.924 2.105 1.478 2.395 2.375 1.632 1.821 0.869 2.375 1.159 1.478 0.396 0.924 1.339 0.924z" transform="translate(12 2) translate(8.729 29.739)"/>
        </g>
    </g>
</svg>
