<svg xmlns="http://www.w3.org/2000/svg" width="36" height="36" viewBox="0 0 36 36">
    <g fill="none">
        <circle cx="18" cy="18" r="18" fill="#F0F0F0"/>
        <g fill="#338AF3">
            <path d="M17 36c7.136 0 13.302-4.153 16.214-10.174H.786C3.698 31.847 9.864 36 17 36zm0-36C9.864 0 3.698 4.153.786 10.174h32.428C30.303 4.153 24.136 0 17 0zm-6.922 11.74l.583 1.794h1.886L11.02 14.64l.583 1.794-1.526-1.108-1.526 1.108.583-1.794-1.526-1.108h1.886l.584-1.792zm0 7.825l.583 1.794h1.886l-1.526 1.108.583 1.794-1.526-1.108-1.526 1.108.583-1.794L7.6 21.36h1.886l.592-1.795zM23.923 11.74L24.506 13.534 26.392 13.534 24.866 14.642 25.449 16.436 23.923 15.328 22.397 16.436 22.98 14.642 21.454 13.534 23.34 13.534z" transform="translate(1)"/>
            <path d="M2.923 0.74L3.506 2.534 5.392 2.534 3.866 3.642 4.449 5.436 2.923 4.328 1.397 5.436 1.98 3.642 0.454 2.534 2.34 2.534z" transform="translate(1) translate(21 18.825)"/>
            <path d="M17 15.652L17.583 17.446 19.469 17.446 17.943 18.554 18.526 20.348 17 19.24 15.474 20.348 16.057 18.554 14.531 17.446 16.417 17.446z" transform="translate(1)"/>
        </g>
    </g>
</svg>
