<svg xmlns="http://www.w3.org/2000/svg" width="36" height="36" viewBox="0 0 36 36">
    <g fill="none">
        <circle cx="18" cy="18" r="18" fill="#F0F0F0"/>
        <path fill="#FF9811" d="M18 0C10.864 0 4.698 4.153 1.786 10.174h32.428C31.302 4.153 25.136 0 18 0z"/>
        <path fill="#6DA544" d="M18 36c7.136 0 13.302-4.153 16.214-10.174H1.786C4.698 31.847 10.864 36 18 36z"/>
        <circle cx="18" cy="18" r="6.261" fill="#0052B4"/>
        <circle cx="18" cy="18" r="3.913" fill="#F0F0F0"/>
        <path fill="#0052B4" d="M18 13.17L19.207 15.908 22.182 15.584 20.414 18 22.181 20.414 19.206 20.09 18 22.83 16.793 20.092 13.818 20.415 15.586 18 13.819 15.586 16.794 15.91z"/>
    </g>
</svg>
