<svg xmlns="http://www.w3.org/2000/svg" width="36" height="36" viewBox="0 0 36 36">
    <g fill="none">
        <circle cx="18" cy="18" r="18" fill="#F0F0F0"/>
        <path fill="#D80027" d="M23.846 13.304H21.49l.03.783c0 1.74-.435 3.43-1.194 4.63-.234.37-.627.894-1.154 1.247v-6.66h-2.348v6.66c-.526-.353-.92-.876-1.154-1.247-.76-1.2-1.194-2.89-1.194-4.63l.03-.783h-2.355l-.023.783c0 4.827 2.578 8.61 5.87 8.61 3.292 0 5.87-3.78 5.87-8.61 0-.264-.008-.525-.023-.783h.001z"/>
        <path fill="#6DA544" d="M7.435 8.61h2.348v1.565h2.348V8.61h2.348v1.565h2.348V8.61h2.348v1.565h2.348V8.61h2.348v1.565h2.348V8.61h2.348v1.565h5.65C31.302 4.153 25.136 0 18 0 10.864 0 4.698 4.153 1.786 10.174h5.65V8.61h-.001z"/>
        <path fill="#D80027" d="M28.565 25.826v1.565h-2.348v-1.565H23.87v1.565h-2.348v-1.565h-2.348v1.565h-2.348v-1.565h-2.348v1.565H12.13v-1.565H9.783v1.565H7.435v-1.565h-5.65C4.698 31.847 10.864 36 18 36c7.136 0 13.302-4.153 16.214-10.174h-5.65.001z"/>
    </g>
</svg>
