<svg xmlns="http://www.w3.org/2000/svg" width="36" height="36" viewBox="0 0 36 36">
    <g fill="none">
        <circle cx="18" cy="18" r="18" fill="#F0F0F0"/>
        <path fill="#3D3D3D" d="M18 0C10.864 0 4.698 4.153 1.786 10.174h32.428C31.302 4.153 25.136 0 18 0z"/>
        <path fill="#496E2D" d="M18 36c-7.136 0-13.302-4.153-16.214-10.174h32.428C31.302 31.847 25.136 36 18 36z"/>
        <path fill="#A2001D" d="M35.15 12.522H.85C.3 14.25 0 16.1 0 18s.3 3.75.85 5.478h34.3C35.7 21.75 36 19.9 36 18s-.3-3.75-.85-5.478z"/>
        <g fill="#F0F0F0">
            <path d="M11.605 1.32L9.473 0.336 6 8.2 2.527 0.335 0.395 1.319 4.707 11 0.395 20.682 2.527 21.666 6 13.802 9.473 21.667 11.605 20.683 7.293 11z" transform="translate(12 7)"/>
            <path d="M7.448 2.246C6.623 1.346 6 .826 6 .826s-.623.518-1.448 1.42v17.51c.825.9 1.448 1.42 1.448 1.42s.623-.518 1.448-1.42V2.246z" transform="translate(12 7)"/>
        </g>
        <path fill="#A2001D" d="M14.087 12.603v10.794c.872 1.545 1.94 2.812 2.74 3.65V8.952c-.8.84-1.867 2.106-2.74 3.65v.001zm7.827 0c-.872-1.545-1.94-2.812-2.74-3.65V27.05c.8-.84 1.867-2.106 2.74-3.65V12.603z"/>
        <path fill="#000" d="M21.913 12.603v10.794c.883-1.564 1.565-3.414 1.565-5.397s-.682-3.833-1.565-5.397zm-7.826 0v10.794c-.883-1.564-1.565-3.414-1.565-5.397s.682-3.833 1.565-5.397z"/>
    </g>
</svg>
