<svg xmlns="http://www.w3.org/2000/svg" width="36" height="36" viewBox="0 0 36 36">
    <g fill="none">
        <circle cx="18" cy="18" r="18" fill="#D80027"/>
        <path fill="#FFDA44" d="M26.803 18L23.206 19.692 25.121 23.176 21.215 22.429 20.72 26.375 18 23.472 15.28 26.374 14.785 22.428 10.879 23.175 12.794 19.691 9.197 18 12.794 16.308 10.879 12.824 14.785 13.571 15.28 9.625 18 12.528 20.72 9.626 21.215 13.572 25.121 12.825 23.206 16.309z"/>
        <circle cx="18" cy="18" r="5.478" fill="#D80027"/>
        <path fill="#FFDA44" d="M15.26 18l-.4.02c.004.73.263 1.435.733 1.993.24-.645.599-1.24 1.058-1.752-.447-.172-.921-.26-1.4-.26L15.26 18zm1.687 2.948c.33.118.683.182 1.053.182.359 0 .715-.061 1.053-.182-.178-.693-.542-1.325-1.053-1.826-.503.494-.874 1.122-1.053 1.826zm3.763-4.513c-.559-.969-1.593-1.566-2.711-1.566-1.118 0-2.152.597-2.711 1.566.953.004 1.887.258 2.711.737.824-.479 1.758-.733 2.711-.737zm-1.37 1.825c.46.513.818 1.107 1.058 1.752.47-.558.73-1.263.733-1.993l-.4-.02c-.479 0-.953.088-1.4.26l.009.001z"/>
    </g>
</svg>
