<svg xmlns="http://www.w3.org/2000/svg" width="36" height="36" viewBox="0 0 36 36">
    <g fill="none">
        <path fill="#D80027" d="M0 18C0 8.06 8.06 0 18 0s18 8.06 18 18"/>
        <path fill="#FFDA44" d="M24.26 16.74l-2.558 1.203 1.362 2.478-2.778-.53-.352 2.806L18 20.632l-1.935 2.064-.352-2.806-2.778.53 1.362-2.478-2.558-1.203 2.558-1.203-1.362-2.477 2.778.53.352-2.806L18 12.848l1.935-2.064.352 2.806 2.778-.53-1.362 2.478 2.557 1.202zM22.696 5.87h-3.522c0-.648-.526-1.174-1.174-1.174-.648 0-1.174.526-1.174 1.174h-3.522c0 .648.565 1.174 1.213 1.174h-.04c0 .648.526 1.174 1.174 1.174 0 .648.526 1.174 1.174 1.174h2.348c.648 0 1.174-.526 1.174-1.174.648 0 1.174-.526 1.174-1.174h-.04c.648 0 1.213-.526 1.213-1.174h.002z"/>
        <path fill="#F0F0F0" d="M36 18c0 9.94-8.06 18-18 18S0 27.94 0 18h36z"/>
        <path fill="#0052B4" d="M18 36c5.627 0 10.65-2.582 13.95-6.625-.594-.405-.914-1.06-1.95-1.06-1.5 0-1.5 1.372-3 1.372s-1.5-1.372-3-1.372-1.5 1.372-3 1.372-1.5-1.372-3-1.372-1.5 1.372-3 1.372-1.5-1.372-3-1.372-1.5 1.372-3 1.372-1.5-1.372-3-1.372c-1.036 0-1.357.654-1.95 1.06C7.35 33.418 12.373 36 18 36zm15-15.704c-1.5 0-1.5-1.372-3-1.372s-1.5 1.372-3 1.372-1.5-1.372-3-1.372-1.5 1.372-3 1.372-1.5-1.372-3-1.372-1.5 1.372-3 1.372-1.5-1.372-3-1.372-1.5 1.372-3 1.372-1.5-1.372-3-1.372-1.5 1.372-3 1.372c-1.492 0-1.5-1.356-2.976-1.37.042.823.14 1.632.288 2.422 1.196.176 1.3 1.35 2.688 1.35 1.5 0 1.5-1.37 3-1.37s1.5 1.37 3 1.37 1.5-1.37 3-1.37 1.5 1.37 3 1.37 1.5-1.37 3-1.37 1.5 1.37 3 1.37 1.5-1.37 3-1.37 1.5 1.37 3 1.37 1.5-1.37 3-1.37 1.5 1.37 3 1.37c1.388 0 1.493-1.173 2.688-1.35.15-.8.247-1.6.3-2.422-1.476.015-1.485 1.37-2.977 1.37H33zm-3 3.324c-1.5 0-1.5 1.372-3 1.372s-1.5-1.372-3-1.372-1.5 1.372-3 1.372-1.5-1.372-3-1.372-1.5 1.372-3 1.372-1.5-1.372-3-1.372-1.5 1.372-3 1.372-1.5-1.372-3-1.372-1.5 1.372-3 1.372c-1.072 0-1.378-.7-2.012-1.1.42 1.21.967 2.373 1.634 3.467.125.023.252.034.379.033 1.5 0 1.5-1.37 3-1.37s1.5 1.37 3 1.37 1.5-1.37 3-1.37 1.5 1.37 3 1.37 1.5-1.37 3-1.37 1.5 1.37 3 1.37 1.5-1.37 3-1.37 1.5 1.37 3 1.37 1.5-1.37 3-1.37 1.5 1.37 3 1.37c.138 0 .264-.012.38-.033.667-1.094 1.215-2.256 1.634-3.467-.635.4-.94 1.1-2.013 1.1-1.5 0-1.5-1.372-3-1.372H30z"/>
        <path fill="#F0F0F0" d="M35.944 16.578c-1.444.034-1.463 1.37-2.944 1.37-1.5 0-1.5-1.372-3-1.372s-1.5 1.372-3 1.372-1.5-1.372-3-1.372-1.5 1.372-3 1.372-1.5-1.372-3-1.372-1.5 1.372-3 1.372-1.5-1.372-3-1.372-1.5 1.372-3 1.372-1.5-1.372-3-1.372-1.5 1.372-3 1.372c-1.48 0-1.5-1.336-2.944-1.37L0 18l.027.977c1.473.017 1.482 1.37 2.973 1.37 1.5 0 1.5-1.37 3-1.37s1.5 1.37 3 1.37 1.5-1.37 3-1.37 1.5 1.37 3 1.37 1.5-1.37 3-1.37 1.5 1.37 3 1.37 1.5-1.37 3-1.37 1.5 1.37 3 1.37 1.5-1.37 3-1.37 1.5 1.37 3 1.37c1.49 0 1.5-1.354 2.974-1.37L36 18l-.056-1.422z"/>
    </g>
</svg>
