<svg xmlns="http://www.w3.org/2000/svg" width="36" height="36" viewBox="0 0 36 36">
    <g fill="none">
        <path fill="#FFDA44" d="M25.826 1.786C23.386.606 20.71-.004 18 0c-2.71-.004-5.386.607-7.826 1.786L8.61 18l1.565 16.214C12.615 35.393 15.29 36.004 18 36c2.71.004 5.386-.607 7.826-1.786L27.39 18 25.826 1.786z"/>
        <path fill="#0052B4" d="M10.174 1.787C4.153 4.698 0 10.864 0 18c0 7.136 4.153 13.302 10.174 16.213V1.787z"/>
        <path fill="#D80027" d="M25.826 1.787v32.427C31.847 31.302 36 25.136 36 18c0-7.136-4.153-13.302-10.174-16.213z"/>
        <path fill="#FF9811" d="M24.26 14.162h-4.304c0-1.08-.876-1.957-1.957-1.957s-1.957.876-1.957 1.957H11.74c0 1.064.927 1.926 1.99 1.926h-.064c0 1.064.862 1.926 1.926 1.926 0 .942.677 1.725 1.57 1.892l-1.518 3.427c1.51.616 3.202.616 4.712 0l-1.518-3.427c.894-.167 1.57-.95 1.57-1.892 1.064 0 1.926-.863 1.926-1.926h-.064c1.064 0 1.99-.862 1.99-1.926z"/>
        <path fill="#0052B4" d="M18 16.826L15.457 18 15.457 20.348 18 21.913 20.543 20.348 20.543 18z"/>
        <path fill="#D80027" d="M15.457 15.652L20.544 15.652 20.544 18 15.457 18z"/>
    </g>
</svg>
