<svg xmlns="http://www.w3.org/2000/svg" width="36" height="36" viewBox="0 0 36 36">
    <g fill="none">
        <circle cx="18" cy="18" r="18" fill="#F0F0F0"/>
        <path fill="#D80027" d="M17.218 18H36c0-1.586-.208-3.165-.62-4.696H17.218V18zm0-9.4h16.14c-1.1-1.795-2.506-3.384-4.153-4.696H17.218V8.6zM18 36c4.236 0 8.13-1.464 11.205-3.913h-22.4C9.87 34.536 13.764 36 18 36zM2.642 27.4H33.36c.895-1.46 1.576-3.042 2.022-4.696H.62c.446 1.654 1.127 3.236 2.022 4.696z"/>
        <path fill="#0052B4" d="M18 18V0C8.06 0 0 8.06 0 18h18z"/>
        <path fill="#FFDA44" d="M11.97 15.408c-2.458 0-4.451-1.993-4.451-4.451 0-2.458 1.993-4.451 4.451-4.451.74-.001 1.467.183 2.117.535-1.022-1.003-2.397-1.564-3.829-1.562-3.025.001-5.477 2.453-5.478 5.478.001 3.025 2.453 5.477 5.478 5.478 1.432.002 2.807-.56 3.829-1.562-.63.34-1.35.535-2.117.535zm1.254-7.582l.8 1.652 1.785-.412-.8 1.648 1.435 1.138-1.787.403.005 1.832-1.43-1.146-1.43 1.146.005-1.832-1.787-.403 1.435-1.138-.8-1.648 1.785.412.784-1.652z"/>
    </g>
</svg>
