<svg xmlns="http://www.w3.org/2000/svg" width="36" height="36" viewBox="0 0 36 36">
    <g fill="none">
        <path fill="#FFDA44" d="M36 17.582c0 9.672-8.059 17.513-18 17.513S0 27.255 0 17.582L18 .068c9.941 0 18 7.841 18 17.514z"/>
        <path fill="#0052B4" d="M18 8.445v5.906l-6.26-5.906H18zm-8.6 9.146h5.3l-5.3-6.85-.78 5.333.78 1.517z"/>
        <path fill="#F0F0F0" d="M18 9.204V.068C8.059.068 0 7.91 0 17.582h9.4v-5.157l5.3 5.157h3.27l.05-.049v-3.182l-5.3-5.156H18v.01z"/>
        <path fill="#D80027" d="M18 15.431l-6.4-6.227H9.4l8.6 8.368v-2.14zM9.1 2.355c-.694.387-1.361.816-2 1.284h.74L5.9 5.01l.75 2.238L4.7 5.867l-.2.146c-.8.895-1.53 1.868-2.14 2.919v8.66h4.7V6.907H18V2.335H9.1v.02z"/>
        <path fill="#0052B4" d="M7.7 3.23l-.57.409-1.2 1.382-1.43.992L3.24 7.55c.452.213.948.323 1.45.321 1.84 0 3.33-1.46 3.33-3.24.002-.488-.111-.97-.33-1.41l.01.01z"/>
        <path fill="#FFDA44" d="M4.48 6.013l.2-.146 1.95 1.382-.75-2.238 1.95-1.382H7.1c-.956.708-1.837 1.506-2.63 2.384h.01zm7.96-2.9l.4 1.168h1.26l-1.02.72.4 1.168-1.02-.72-1.02.72.4-1.168-1.02-.72h1.26l.36-1.167zm-7.74 7.61l.4 1.167h1.26l-1.02.72.4 1.167-1.02-.72-1.02.72.4-1.167-1.02-.72H4.3l.4-1.168z"/>
    </g>
</svg>
