<svg xmlns="http://www.w3.org/2000/svg" width="36" height="36" viewBox="0 0 36 36">
    <g fill="none">
        <path fill="#0052B4" d="M36 17.582c0 9.671-8.06 17.513-18 17.513S0 27.253 0 17.582C0 17.586 18 .07 18 .068c9.94 0 18 7.842 18 17.514z"/>
        <path fill="#F0F0F0" d="M18 9.206L17.997.068C8.057.07 0 7.91 0 17.582h9.4v-5.145l5.288 5.145h3.272l.048-.047V14.35L12.7 9.206H18z"/>
        <path fill="#D80027" d="M9.106 2.353C6.288 3.915 3.953 6.187 2.347 8.929v8.653h4.696V6.922H18v-4.57H9.106zM18 15.428l-6.395-6.222H9.4l8.6 8.376v-2.155.001zm13.17-2.364l.388 1.164h1.257l-1.017.72.4 1.163-1.017-.72-1.017.72.4-1.163-1.017-.72h1.257l.366-1.164zm-4.493 8.377l.583 1.746h1.886l-1.526 1.078.583 1.745-1.526-1.078-1.526 1.078.583-1.745-1.526-1.078h1.886l.583-1.746zm.17-13.705l.486 1.455h1.572l-1.272.899.486 1.454-1.27-.899-1.27.9.486-1.455-1.27-.9h1.57l.482-1.454zm-4.325 5.278l.583 1.746h1.886l-1.526 1.078.583 1.746-1.526-1.078-1.526 1.078.583-1.746-1.526-1.078h1.886l.583-1.746z"/>
    </g>
</svg>
