<svg xmlns="http://www.w3.org/2000/svg" width="36" height="36" viewBox="0 0 36 36">
    <g fill="none">
        <path fill="red" d="M34.88 24.26C35.604 22.31 36 20.203 36 18s-.396-4.31-1.12-6.26L18 10.173 1.12 11.739C.396 13.69 0 15.8 0 18c0 2.202.396 4.31 1.12 6.26L18 25.827l16.88-1.565z"/>
        <path fill="#FFDF00" d="M18 36c7.74 0 14.337-4.885 16.88-11.74H1.12C3.663 31.116 10.26 36 18 36z"/>
        <path fill="#F0F0F0" d="M18 0C10.26 0 3.663 4.885 1.12 11.74h33.76C32.337 4.884 25.74 0 18 0z"/>
    </g>
</svg>
