<svg xmlns="http://www.w3.org/2000/svg" width="36" height="36" viewBox="0 0 36 36">
    <g fill="none">
        <circle cx="18" cy="18" r="18" fill="#F0F0F0"/>
        <path fill="#D80027" d="M18 0v18L5.272 30.728C8.53 33.985 13.03 36 18 36c9.94 0 18-8.06 18-18S18 0 18 0z"/>
        <path fill="#0052B4" d="M18 0C13.03 0 8.53 2.015 5.272 5.272L18 18h18c0-9.94-8.06-18-18-18z"/>
        <path fill="#FFDA44" d="M12.325 18l-2.198-1.034 1.17-2.13-2.387.457-.302-2.412-1.663 1.774-1.663-1.774-.303 2.412-2.387-.457 1.17 2.13L1.565 18l2.198 1.034-1.17 2.13 2.387-.457.302 2.4 1.663-1.774 1.663 1.774.302-2.4 2.387.457-1.17-2.13L12.325 18zM4.8 7.043l.732 1.023 1.198-.38-.747 1.012.732 1.023-1.193-.397-.747 1.012.01-1.257-1.193-.397 1.2-.38.008-1.259zm0 18.622l.732 1.023 1.198-.38-.747 1.012.732 1.023-1.193-.397-.747 1.012.01-1.257-1.193-.397 1.2-.38.008-1.259zm10.434-9.31l-.73 1.023-1.2-.38.747 1.012-.732 1.023 1.193-.397.747 1.012-.01-1.257 1.193-.397-1.2-.38-.008-1.259z"/>
    </g>
</svg>
