<svg xmlns="http://www.w3.org/2000/svg" width="36" height="36" viewBox="0 0 36 36">
    <g fill="none">
        <circle cx="18" cy="18" r="18" fill="#F0F0F0"/>
        <g fill="#D80027">
            <path d="M18 0C12.111 0 6.883 2.828 3.6 7.2h28.8C29.118 2.828 23.89 0 18 0zM18 36c5.889 0 11.117-2.828 14.4-7.2H3.6C6.882 33.172 12.11 36 18 36zM0 18c0 1.233.124 2.437.36 3.6h35.28c.236-1.163.36-2.367.36-3.6s-.124-2.437-.36-3.6H.36C.124 15.563 0 16.767 0 18z"/>
        </g>
        <path fill="#0052B4" d="M5.272 5.272c-7.03 7.03-7.03 18.426 0 25.456L18 18 5.272 5.272z"/>
        <path fill="#F0F0F0" d="M7.285 13.304L8.451 16.891 12.222 16.891 9.171 19.108 10.336 22.696 7.285 20.479 4.234 22.696 5.399 19.108 2.348 16.891 6.12 16.891z"/>
    </g>
</svg>
