<svg xmlns="http://www.w3.org/2000/svg" width="36" height="36" viewBox="0 0 36 36">
    <g fill="none">
        <circle cx="18" cy="18" r="18" fill="#006C35"/>
        <path fill="#F0F0F0" d="M10.174 21.522c.001 1.296 1.052 2.347 2.348 2.348h7.043c.002 1.08.877 1.955 1.957 1.957h2.348c1.08-.002 1.955-.877 1.957-1.957v-2.348H10.174zm15.848-11.348v5.478c-.003.863-.702 1.562-1.565 1.565v2.348c2.16-.004 3.91-1.754 3.913-3.913v-5.478h-2.348zM9.196 15.652c-.003.863-.702 1.562-1.565 1.565v2.348c2.16-.004 3.91-1.754 3.913-3.913v-5.478H9.196v5.478zM22.5 10.174h2.348v5.478H22.5v-5.478zm-3.52 3.13c.007.145-.066.281-.19.356-.124.074-.279.074-.403 0-.124-.075-.197-.211-.19-.356v-3.13H15.85v3.13c0 .216-.175.391-.391.391-.217 0-.392-.175-.392-.391v-3.13h-2.348v3.13c.005 1.511 1.229 2.735 2.74 2.74.582 0 1.12-.183 1.565-.493.444.3.984.493 1.565.493.117 0 .232-.008.346-.023-.166.685-.784 1.197-1.52 1.197v2.348c2.16-.004 3.91-1.754 3.913-3.913v-5.478H18.98v3.13-.001zm-6.262 3.913h3.522v2.348h-3.522v-2.348z"/>
    </g>
</svg>
