<svg xmlns="http://www.w3.org/2000/svg" width="36" height="36" viewBox="0 0 36 36">
    <g fill="none">
        <circle cx="18" cy="18" r="18" fill="#FFDA44"/>
        <path fill="#6DA544" d="M10.956 11.74H34.88C32.337 4.885 25.74 0 18 0 13.225-.006 8.645 1.892 5.273 5.273l5.684 6.467h-.001zm0 12.52H34.88C32.337 31.115 25.74 36 18 36c-4.775.006-9.355-1.892-12.727-5.273l5.684-6.466-.001-.001z"/>
        <path fill="#D80027" d="M5.272 5.272c-7.03 7.03-7.03 18.426 0 25.456L18 18 5.272 5.272z"/>
        <path fill="#3D3D3D" d="M22.857 14.87l.777 2.4h2.515l-2.034 1.478.777 2.4-2.034-1.478-2.034 1.478.777-2.4-2.034-1.478h2.515l.775-2.4zm7.826 0l.777 2.4h2.515l-2.035 1.48.777 2.4-2.034-1.478-2.034 1.478.777-2.4-2.034-1.478h2.515l.776-2.402z"/>
    </g>
</svg>
