<svg xmlns="http://www.w3.org/2000/svg" width="36" height="36" viewBox="0 0 36 36">
    <g fill="none">
        <circle cx="18" cy="18" r="18" fill="#FFDA44"/>
        <path fill="#496E2D" d="M18 0c-.013 0-.783 7.2-.783 7.2H32.4C29.117 2.828 23.9 0 18 0zm0 36c5.9 0 11.117-2.828 14.4-7.2H3.6C6.883 33.172 12.1 36 18 36zm17.64-21.6H17.217L18 21.6h17.64c.24-1.185.36-2.391.36-3.6s-.12-2.415-.36-3.6z"/>
        <path fill="#D80027" d="M18 21.6V0C8.06 0 0 8.06 0 18c0 1.233.124 2.437.36 3.6H18z"/>
        <path fill="#F0F0F0" d="M9.932 8.61L11.097 12.197 14.869 12.197 11.819 14.414 12.984 18 9.934 15.783 6.88 18 8.046 14.413 4.996 12.196 8.768 12.196z"/>
    </g>
</svg>
