<svg xmlns="http://www.w3.org/2000/svg" width="36" height="36" viewBox="0 0 36 36">
    <g fill="none">
        <path fill="#F0F0F0" d="M9.746 2c-1.652.853-3.161 1.957-4.475 3.273C3.92 6.622 2.83 8.135 2 9.746l11.574 12.68L26.253 34c1.652-.853 3.161-1.957 4.475-3.273 1.316-1.314 2.42-2.823 3.273-4.475l-11.574-12.68L9.746 2z"/>
        <path fill="#3D3D3D" d="M30.728 30.728c.742-.742 1.418-1.547 2.021-2.406L7.677 3.25c-.845.593-1.65 1.266-2.406 2.02-.756.754-1.43 1.56-2.02 2.406L28.323 32.75c.845-.593 1.65-1.266 2.406-2.02l-.001-.002z"/>
        <path fill="#D80027" d="M5.27 30.728c5.68 5.68 14.208 6.77 20.982 3.273L2 9.746C-1.498 16.52-.407 25.05 5.27 30.728zM30.728 5.272C25.05-.407 16.52-1.497 9.747 2L34 26.254c3.496-6.774 2.406-15.303-3.273-20.982h.001z"/>
    </g>
</svg>
