<svg xmlns="http://www.w3.org/2000/svg" width="36" height="36" viewBox="0 0 36 36">
    <g fill="none">
        <circle cx="18" cy="18" r="18" fill="#D80027"/>
        <path fill="#F0F0F0" d="M17.263 14.7l1.477 2.035 2.392-.776-1.48 2.033 1.477 2.035-2.4-.778-1.48 2.033v-2.514L14.87 18l2.392-.776.001-2.524zm-4.03 8.377c-2.805-.001-5.08-2.272-5.088-5.077.002-2.809 2.278-5.085 5.087-5.087.876 0 1.7.222 2.42.6-1.168-1.146-2.74-1.787-4.376-1.785-3.458 0-6.261 2.803-6.261 6.261s2.803 6.261 6.261 6.261c1.636.002 3.208-.64 4.376-1.785-.72.4-1.544.612-2.42.612h.001z"/>
    </g>
</svg>
