<svg xmlns="http://www.w3.org/2000/svg" width="36" height="36" viewBox="0 0 36 36">
    <g fill="none">
        <ellipse cx="17.514" cy="18" fill="#F0F0F0" rx="17.514" ry="18"/>
        <path fill="#FFDA44" d="M33.344 10.3c-.876-1.93-2.102-3.67-3.571-5.15l-12.26-1.23L5.129 5.28l4.894 5.03 7.492.23 15.84-.23-.01-.01zM5.128 30.73l.194.2 12.192 1.17 12.19-1.16c1.48-1.48 2.725-3.22 3.6-5.15l-22.65-.73-5.526 5.68v-.01z"/>
        <path fill="#3D3D3D" d="M34.852 15.46l-20.384-.6L17.514 18l-3.046 3.13 20.374-.5c.117-.85.195-1.73.195-2.62 0-.86-.059-1.7-.175-2.54l-.01-.01z"/>
        <path fill="#6DA544" d="M17.514 0c-4.768 0-9.108 1.97-12.26 5.15h24.519C26.621 1.97 22.281 0 17.513 0z"/>
        <path fill="#D80027" d="M15.052 15.47h19.81c-.253-1.782-.758-3.517-1.499-5.15H10.012l5.01 5.15h.03zm-5.098 10.3h23.35c.76-1.628 1.275-3.364 1.528-5.15H14.984l-5.011 5.15h-.02z"/>
        <path fill="#6DA544" d="M17.514 36c4.738 0 9.048-1.93 12.19-5.08H5.323C8.465 34.07 12.775 36 17.514 36z"/>
        <path fill="#3D3D3D" d="M6.256 4.2L5.128 5.27 17.514 18 5.128 30.73c.36.37.737.724 1.128 1.06L19.654 18 6.256 4.2z"/>
        <path fill="#D80027" d="M7.044 13.3L8.183 16.9 11.851 16.9 8.874 19.1 10.012 22.7 7.044 20.48 4.086 22.7 5.225 19.1 2.238 16.9 5.906 16.9z"/>
        <path fill="#FFDA44" d="M10.158 18.3L7.2 17.22l-.234-2.18c-.097-.54-.564-.95-1.118-.95-.633 0-1.139.53-1.139 1.17 0 .1.02.2.04.3l-.828.86h1.46c0 1.57-1.139 1.57-1.139 3.14l.633 1.57h3.794l.633-1.57c.068-.15.097-.3.116-.46.545-.23.71-.8.71-.8h.03z"/>
    </g>
</svg>
