<svg xmlns="http://www.w3.org/2000/svg" xmlns:xlink="http://www.w3.org/1999/xlink" width="156px"
     height="47px" viewBox="0 0 156 47" version="1.1"><title>Google Play</title>
    <g stroke="none" stroke-width="1" fill="none" fill-rule="evenodd">
        <g transform="translate(-1536.000000, -2129.000000)">
            <g transform="translate(561.000000, 1894.000000)">
                <g transform="translate(975.000000, 235.000000)">
                    <rect fill="#000000" x="0" y="0" width="156.000009"
                          height="46.8000026" rx="6.50000036"/>
                    <text font-family="OpenSans-SemiBold, Open Sans, Arial"
                          font-size="9.1000005" font-weight="500" fill="#FFFFFF">
                        <tspan x="53.3000029" y="17.8000004" class="load-in">Загрузить в</tspan>
                    </text>
                    <path d="M79.4893617,26.7278107 C77.1347518,26.7278107 75.2706856,28.5384615 75.2706856,31.0532544 C75.2706856,33.4674556 77.1347518,35.3786982 79.4893617,35.3786982 C81.8439716,35.3786982 83.7080378,33.5680473 83.7080378,31.0532544 C83.7080378,28.4378698 81.8439716,26.7278107 79.4893617,26.7278107 Z M79.4893617,33.5680473 C78.213948,33.5680473 77.1347518,32.4615385 77.1347518,30.9526627 C77.1347518,29.443787 78.213948,28.3372781 79.4893617,28.3372781 C80.7647754,28.3372781 81.8439716,29.3431953 81.8439716,30.9526627 C81.8439716,32.4615385 80.7647754,33.5680473 79.4893617,33.5680473 Z M70.3652482,26.7278107 C68.0106383,26.7278107 66.1465721,28.5384615 66.1465721,31.0532544 C66.1465721,33.4674556 68.0106383,35.3786982 70.3652482,35.3786982 C72.7198582,35.3786982 74.5839243,33.5680473 74.5839243,31.0532544 C74.5839243,28.4378698 72.7198582,26.7278107 70.3652482,26.7278107 Z M70.3652482,33.5680473 C69.0898345,33.5680473 68.0106383,32.4615385 68.0106383,30.9526627 C68.0106383,29.443787 69.0898345,28.3372781 70.3652482,28.3372781 C71.6406619,28.3372781 72.7198582,29.3431953 72.7198582,30.9526627 C72.7198582,32.4615385 71.6406619,33.5680473 70.3652482,33.5680473 Z M59.4751773,28.035503 L59.4751773,29.8461538 L63.6938534,29.8461538 C63.5957447,30.852071 63.2033097,31.6568047 62.712766,32.1597633 C62.1241135,32.7633136 61.143026,33.4674556 59.4751773,33.4674556 C56.8262411,33.4674556 54.8640662,31.3550296 54.8640662,28.6390533 C54.8640662,25.9230769 56.9243499,23.8106509 59.4751773,23.8106509 C60.8486998,23.8106509 61.927896,24.4142012 62.712766,25.1183432 L63.9881797,23.8106509 C62.9089835,22.8047337 61.535461,22 59.5732861,22 C56.0413712,22 53,25.0177515 53,28.6390533 C53,32.260355 56.0413712,35.2781065 59.5732861,35.2781065 C61.535461,35.2781065 62.9089835,34.6745562 64.0862884,33.3668639 C65.2635934,32.1597633 65.6560284,30.4497041 65.6560284,29.1420118 C65.6560284,28.739645 65.6560284,28.3372781 65.5579196,28.035503 L59.4751773,28.035503 L59.4751773,28.035503 Z M104.016548,29.443787 C103.624113,28.4378698 102.643026,26.7278107 100.484634,26.7278107 C98.3262411,26.7278107 96.5602837,28.4378698 96.5602837,31.0532544 C96.5602837,33.4674556 98.3262411,35.3786982 100.680851,35.3786982 C102.544917,35.3786982 103.722222,34.1715976 104.114657,33.4674556 L102.741135,32.4615385 C102.250591,33.1656805 101.661939,33.6686391 100.680851,33.6686391 C99.6997636,33.6686391 99.1111111,33.2662722 98.6205674,32.3609467 L104.212766,29.9467456 L104.016548,29.443787 L104.016548,29.443787 Z M98.3262411,30.852071 C98.3262411,29.2426036 99.6016548,28.3372781 100.484634,28.3372781 C101.171395,28.3372781 101.858156,28.739645 102.054374,29.2426036 L98.3262411,30.852071 Z M93.71513,34.9763314 L95.5791962,34.9763314 L95.5791962,22.4023669 L93.71513,22.4023669 L93.71513,34.9763314 Z M90.7718676,27.6331361 C90.2813239,27.1301775 89.4964539,26.6272189 88.5153664,26.6272189 C86.4550827,26.6272189 84.4929078,28.5384615 84.4929078,30.9526627 C84.4929078,33.3668639 86.356974,35.1775148 88.5153664,35.1775148 C89.4964539,35.1775148 90.2813239,34.6745562 90.6737589,34.1715976 L90.7718676,34.1715976 L90.7718676,34.7751479 C90.7718676,36.3846154 89.8888889,37.2899408 88.5153664,37.2899408 C87.4361702,37.2899408 86.6513002,36.4852071 86.4550827,35.7810651 L84.8853428,36.4852071 C85.3758865,37.591716 86.5531915,39 88.6134752,39 C90.7718676,39 92.5378251,37.6923077 92.5378251,34.5739645 L92.5378251,26.9289941 L90.7718676,26.9289941 L90.7718676,27.6331361 L90.7718676,27.6331361 Z M88.6134752,33.5680473 C87.3380615,33.5680473 86.2588652,32.4615385 86.2588652,30.9526627 C86.2588652,29.443787 87.3380615,28.3372781 88.6134752,28.3372781 C89.8888889,28.3372781 90.8699764,29.443787 90.8699764,30.9526627 C90.8699764,32.4615385 89.8888889,33.5680473 88.6134752,33.5680473 Z M112.552009,22.4023669 L108.137116,22.4023669 L108.137116,34.9763314 L110.001182,34.9763314 L110.001182,30.2485207 L112.552009,30.2485207 C114.612293,30.2485207 116.574468,28.739645 116.574468,26.3254438 C116.574468,23.9112426 114.612293,22.4023669 112.552009,22.4023669 L112.552009,22.4023669 Z M112.650118,28.4378698 L110.001182,28.4378698 L110.001182,24.112426 L112.650118,24.112426 C114.023641,24.112426 114.808511,25.3195266 114.808511,26.2248521 C114.710402,27.3313609 113.925532,28.4378698 112.650118,28.4378698 Z M123.932624,26.6272189 C122.559102,26.6272189 121.185579,27.2307692 120.695035,28.5384615 L122.362884,29.2426036 C122.755319,28.5384615 123.343972,28.3372781 124.030733,28.3372781 C125.01182,28.3372781 125.894799,28.9408284 125.992908,29.9467456 L125.992908,30.0473373 C125.698582,29.8461538 124.913712,29.5443787 124.128842,29.5443787 C122.362884,29.5443787 120.596927,30.5502959 120.596927,32.3609467 C120.596927,34.0710059 122.068558,35.1775148 123.638298,35.1775148 C124.913712,35.1775148 125.502364,34.5739645 125.992908,33.9704142 L126.091017,33.9704142 L126.091017,34.9763314 L127.856974,34.9763314 L127.856974,30.147929 C127.660757,27.9349112 125.992908,26.6272189 123.932624,26.6272189 L123.932624,26.6272189 Z M123.736407,33.5680473 C123.147754,33.5680473 122.264775,33.2662722 122.264775,32.4615385 C122.264775,31.4556213 123.343972,31.1538462 124.22695,31.1538462 C125.01182,31.1538462 125.404255,31.3550296 125.894799,31.556213 C125.698582,32.7633136 124.717494,33.5680473 123.736407,33.5680473 L123.736407,33.5680473 Z M134.037825,26.9289941 L131.977541,32.3609467 L131.879433,32.3609467 L129.72104,26.9289941 L127.758865,26.9289941 L130.996454,34.5739645 L129.132388,38.7988166 L130.996454,38.7988166 L136,26.9289941 L134.037825,26.9289941 L134.037825,26.9289941 Z M117.555556,34.9763314 L119.419622,34.9763314 L119.419622,22.4023669 L117.555556,22.4023669 L117.555556,34.9763314 Z"
                          fill="#FFFFFF" fill-rule="nonzero"/>
                    <path d="M19.5000011,34.6214168 L19.5000011,12.1811994 C19.5000011,11.3981282 19.9539875,10.7212389 20.6127997,10.4000006 L33.5933934,23.3974801 L20.6075792,36.400002 C19.9515881,36.0777869 19.5000011,35.4024683 19.5000011,34.6214168 Z M37.71153,27.520804 L23.5180779,35.7260035 L34.7121112,24.5175109 L37.71153,27.520804 Z M42.123386,21.8281169 C42.5954728,22.1899324 42.9000024,22.7600459 42.9000024,23.4013081 C42.9000024,24.0329342 42.6047009,24.5953917 42.1447426,24.9578672 L39.1298996,26.7008121 L35.8306972,23.3974801 L39.1276585,20.0962337 L42.123386,21.8281169 Z M23.5263964,11.0772331 L37.7092888,19.2762945 L34.7121112,22.2773172 L23.5263964,11.0772331 Z"
                          fill="#FFFFFF" fill-rule="nonzero"/>
                </g>
            </g>
        </g>
    </g>
</svg>
