<svg xmlns="http://www.w3.org/2000/svg"
     xlink="http://www.w3.org/1999/xlink" width="29px"
     height="29px" viewBox="0 0 29 29" version="1.1">
    <title>twitter</title>
    <g stroke="none" stroke-width="1" fill="none" fill-rule="evenodd">
        <g transform="translate(-1592.000000, -1947.000000)">
            <g transform="translate(572.000000, 1765.000000)">
                <g transform="translate(810.000000, 39.000000)">
                    <g id="Group-39"
                       transform="translate(114.000000, 106.000000)">
                        <g id="Group-16"
                           transform="translate(0.000000, 37.000000)">
                            <g id="twitter"
                               transform="translate(96.086957, 0.000000)">
                                <path
                                        d="M23.0764306,10.3465841 C22.4631747,10.6201593 21.803491,10.8051947 21.1116649,10.8878319 C21.8180316,10.4620708 22.360115,9.78839823 22.6159785,8.98435398 C21.9550192,9.37880531 21.2226326,9.66495575 20.443818,9.81919469 C19.819848,9.15065487 18.9308311,8.73284956 17.9464075,8.73284956 C16.057661,8.73284956 14.5257968,10.2739558 14.5257968,12.1740973 C14.5257968,12.443823 14.5561535,12.7063628 14.6148261,12.9583805 C11.7720127,12.8149204 9.25138823,11.4449912 7.5641693,9.36238053 C7.26978607,9.87052212 7.10091112,10.4620708 7.10091112,11.0926283 C7.10091112,12.2862478 7.70523855,13.34 8.62257137,13.9569558 C8.06212082,13.9392478 7.53432282,13.7844956 7.07336052,13.5260619 C7.07310543,13.5406903 7.07310543,13.5553186 7.07310543,13.5696903 C7.07310543,15.2370619 8.25267911,16.6277788 9.81719584,16.9436991 C9.53046556,17.0227434 9.2276641,17.0645752 8.9161893,17.0645752 C8.69527434,17.0645752 8.48124702,17.0432743 8.27257676,17.0032389 C8.70777414,18.3700885 9.97076491,19.3650708 11.4679357,19.3930442 C10.2970354,20.3161681 8.8223132,20.8661416 7.21927664,20.8661416 C6.94377068,20.8661416 6.6708157,20.8499735 6.40372797,20.8178938 C7.91671489,21.7946549 9.7151566,22.3641327 11.6467595,22.3641327 C17.9384994,22.3641327 21.3792628,17.1205221 21.3792628,12.5726549 C21.3792628,12.4235487 21.3759465,12.2749558 21.369314,12.127646 C22.0381812,11.6426018 22.6180192,11.0366814 23.0764306,10.3465841 L23.0764306,10.3465841 Z"
                                        fill="#FFFFFF"/>
                            </g>
                        </g>
                    </g>
                </g>
            </g>
        </g>
    </g>
</svg>
