<svg xmlns="http://www.w3.org/2000/svg"
     width="29px"
     height="29px" viewBox="0 0 29 29" version="1.1">
    <title>twitter copy</title>
    <g stroke="none" stroke-width="1" fill="none" fill-rule="evenodd">
        <g transform="translate(-1640.000000, -1947.000000)">
            <g transform="translate(572.000000, 1765.000000)">
                <g transform="translate(810.000000, 39.000000)">
                    <g id="Group-39"
                       transform="translate(114.000000, 106.000000)">
                        <g id="Group-16"
                           transform="translate(0.000000, 37.000000)">
                            <g id="twitter-copy"
                               transform="translate(144.130435, 0.000000)">
                                <g id="youtube"
                                   transform="translate(5.605072, 8.861111)"
                                   fill="#FFFFFF">
                                    <path
                                            d="M16.8672645,1.08676768 C17.3649149,1.87723737 17.615942,3.23877273 17.615942,5.63683838 C17.615942,5.63786364 17.615942,5.63991414 17.615942,5.63991414 C17.615942,5.64196465 17.615942,5.6450404 17.615942,5.6450404 C17.615942,8.03182828 17.3649149,9.40361616 16.8683655,10.1858838 C16.3905331,10.9773788 15.8719638,11.1209141 14.8161082,11.1875556 C13.7602527,11.2439444 11.1079524,11.2777778 8.81017301,11.2777778 C6.50798958,11.2777778 3.85458832,11.2439444 2.79983379,11.1865303 C1.74618025,11.1198889 1.22761096,10.9763535 0.745374547,10.1848586 C0.253229167,9.40259091 2.20268248e-13,8.03080303 2.20268248e-13,5.64401515 L2.20268248e-13,5.64196465 C2.20268248e-13,5.64196465 2.20268248e-13,5.64093939 2.20268248e-13,5.63888889 C2.20268248e-13,5.63888889 2.20268248e-13,5.63786364 2.20268248e-13,5.63581313 C2.20268248e-13,3.23877273 0.253229167,1.87723737 0.745374547,1.08676768 C1.22761096,0.294247475 1.74728125,0.149686869 2.80093478,0.0932979798 C3.85458832,0.0276818182 6.50798958,-2.01616501e-13 8.81017301,-2.01616501e-13 C11.1079524,-2.01616501e-13 13.7602527,0.0276818182 14.8150072,0.0943232323 C15.8708628,0.149686869 16.3894321,0.295272727 16.8672645,1.08676768 Z M6.60597826,8.71464646 L12.1109601,5.63888889 L6.60597826,2.56313131 L6.60597826,8.71464646 Z"
                                            id="Combined-Shape"/>
                                </g>
                            </g>
                        </g>
                    </g>
                </g>
            </g>
        </g>
    </g>
</svg>
