<svg xmlns="http://www.w3.org/2000/svg" width="20" height="20">
    <path d="M19.606 9.603C19.502 4.473 15.28.183 10.15.006A9.81 9.81 0 0 0 0 9.804a9.81 9.81 0 0 0 9.804 9.804c.73 0 1.44-.08 2.123-.23 2.078-.458 4.222-1.502 6.277-.952l.45.12a.82.82 0 0 0 .882-.882l-.122-.453c-.546-2.03-.52-3.172-.05-5.22.176-.766.26-1.566.245-2.388M6.836 7.63c.06-1.815 1.3-3.133 3.585-3.133 2.1 0 3.5 1.2 3.5 2.903 0 1.172-.582 1.99-1.624 2.612-1.003.6-1.287.98-1.287 1.74v.437H9.234l-.008-.52c-.07-1.15.375-1.838 1.432-2.46.95-.574 1.27-.98 1.27-1.74 0-.797-.643-1.37-1.608-1.37-.988 0-1.624.597-1.685 1.532h-1.8zm3.37 8.21c-.766 0-1.27-.483-1.27-1.218 0-.743.506-1.225 1.27-1.225.78 0 1.27.483 1.27 1.225 0 .735-.5 1.218-1.27 1.218z"/>
</svg>
