<svg xmlns="http://www.w3.org/2000/svg" width="22" height="16" viewBox="0 0 22 16">
    <path d="M16.831 7.444a1.005 1.005 0 0 0-.124-.151L13.88 4.464a1 1 0 0 0-1.415 1.415L13.586 7H6a1 1 0 0 0 0 2h7.586l-1.122 1.121a1 1 0 0 0 1.415 1.415l2.828-2.829a1 1 0 0 0 .122-1.266zM2.564 0h16.872c.892 0 1.215.093 1.54.267.327.174.583.43.757.756.174.326.267.65.267 1.54v10.873c0 .892-.093 1.215-.267 1.54-.174.327-.43.583-.756.757-.326.174-.65.267-1.54.267H2.563c-.892 0-1.215-.093-1.54-.267a1.817 1.817 0 0 1-.757-.756C.093 14.65 0 14.327 0 13.437V2.563c0-.892.093-1.215.267-1.54.174-.327.43-.583.756-.757C1.35.093 1.673 0 2.563 0z"/>
</svg>
