<?xml version="1.0" encoding="UTF-8"?>
<svg width="86px" height="30px" viewBox="0 0 86 30" version="1.1" xmlns="http://www.w3.org/2000/svg" xmlns:xlink="http://www.w3.org/1999/xlink">
    <!-- Generator: Sketch 61 (89581) - https://sketch.com -->
    <title>Group 5</title>
    <desc>Created with Sketch.</desc>
    <g id="SberMobile" stroke="none" stroke-width="1" fill="none" fill-rule="evenodd">
        <g id="768px_sbermob2" transform="translate(-613.000000, -785.000000)" fill-rule="nonzero">
            <g id="Group" transform="translate(592.000000, 770.000000)">
                <g id="App-Store-Badge-US-White" transform="translate(22.000000, 16.000000)">
                    <g id="Group-5" transform="translate(0.000000, -0.000091)">
                        <path d="M77.094339,-5.68434189e-14 L6.674276,-5.68434189e-14 C6.417586,-5.68434189e-14 6.163976,-5.68434189e-14 5.907965,0.001491 C5.69366,0.002891 5.481063,0.006958 5.2647,0.010381 C4.79465958,0.0159122625 4.32572453,0.0572643819 3.86197,0.134078 C3.39886686,0.21256384 2.95027076,0.360532018 2.531354,0.572978 C2.11294959,0.787221198 1.73064151,1.06560827 1.398299,1.39804 C1.06421175,1.7295369 0.785724227,2.11270246 0.573545,2.532803 C0.360780169,2.95206738 0.213248349,3.40134781 0.136045,3.865127 C0.0581076588,4.32832043 0.0161688665,4.79685538 0.010605,5.266527 C0.004109,5.481147 0.003423,5.696481 7.10542736e-14,5.911129 L7.10542736e-14,22.091111 C0.003423,22.308461 0.004109,22.519021 0.010605,22.736441 C0.0161705726,23.2060893 0.0581093657,23.6746009 0.136045,24.137771 C0.213035167,24.6018213 0.360575711,25.0513597 0.573545,25.470781 C0.785627885,25.889523 1.06415457,26.2711373 1.398299,26.600791 C1.72938138,26.9347008 2.11193656,27.2132773 2.531354,27.425881 C2.95026758,27.6388956 3.39881531,27.7877445 3.86197,27.867441 C4.32580337,27.9436393 4.79469019,27.9850082 5.2647,27.991201 C5.481063,27.995961 5.69366,27.998691 5.907965,27.998691 C6.163969,28.000091 6.4176,28.000091 6.674276,28.000091 L77.094339,28.000091 C77.345919,28.000091 77.601559,28.000091 77.853139,27.998691 C78.066429,27.998691 78.285179,27.995961 78.498469,27.991201 C78.9675902,27.9853376 79.4355943,27.943966 79.898469,27.867441 C80.3631178,27.7871835 80.8132737,27.638374 81.234209,27.425881 C81.6532482,27.2131542 82.0354502,26.9345853 82.366249,26.600791 C82.6995313,26.2698463 82.9786527,25.8885111 83.193369,25.470781 C83.4047402,25.0510545 83.5508763,24.6015521 83.626739,24.137771 C83.7047994,23.6745373 83.7482263,23.20613 83.756659,22.736441 C83.759389,22.519021 83.759389,22.308461 83.759389,22.091111 C83.764849,21.836801 83.764849,21.583891 83.764849,21.325451 L83.764849,6.675382 C83.764849,6.419035 83.764849,6.164739 83.759389,5.911129 C83.759389,5.696481 83.759389,5.481147 83.756659,5.266499 C83.7482281,4.79678671 83.7048011,4.32835597 83.626739,3.865099 C83.5506649,3.40158812 83.4045373,2.95234329 83.193369,2.532775 C82.761276,1.69072826 82.0761013,1.00530878 81.234209,0.572915 C80.8132724,0.360988166 80.3630684,0.213059287 79.898469,0.134015 C79.4356744,0.0568629482 78.9676215,0.0154964354 78.498469,0.010283 C78.285179,0.006867 78.066429,0.002765 77.853139,0.0014 C77.601559,-5.68434189e-14 77.345919,-5.68434189e-14 77.094339,-5.68434189e-14 L77.094339,-5.68434189e-14 Z" id="Background-Black" stroke="#000000" stroke-width="0.5"></path>
                        <path d="M29.611246,18.997846 L26.297866,18.997846 L25.502162,21.347361 L24.098746,21.347361 L27.237126,12.654761 L28.695226,12.654761 L31.833606,21.347361 L30.406264,21.347361 L29.611246,18.997846 Z M26.641034,17.913665 L29.267434,17.913665 L27.9727,14.100576 L27.93644,14.100576 L26.641034,17.913665 Z M38.61144,18.178902 C38.61144,20.148338 37.557338,21.413665 35.966616,21.413665 C35.1443857,21.4566762 34.3698897,21.0260125 33.972575,20.304865 L33.942475,20.304865 L33.942475,23.443931 L32.641595,23.443931 L32.641595,15.009757 L33.900776,15.009757 L33.900776,16.063859 L33.924702,16.063859 C34.3396678,15.3472325 35.114999,14.9167542 35.942669,14.943446 C37.551185,14.943453 38.61144,16.214933 38.61144,18.178902 Z M37.274328,18.178902 C37.274328,16.895802 36.611239,16.052239 35.599522,16.052239 C34.605578,16.052239 33.937022,16.913568 33.937022,18.178902 C33.937022,19.455856 34.605578,20.311032 35.599522,20.311032 C36.611246,20.311032 37.274328,19.473629 37.274328,18.178902 L37.274328,18.178902 Z M45.587171,18.178902 C45.587171,20.148338 44.532726,21.413665 42.942004,21.413665 C42.1197737,21.4566762 41.3452777,21.0260125 40.947963,20.304865 L40.917863,20.304865 L40.917863,23.443931 L39.616983,23.443931 L39.616983,15.009757 L40.876164,15.009757 L40.876164,16.063859 L40.90009,16.063859 C41.3150558,15.3472325 42.090387,14.9167542 42.918057,14.943446 C44.52658,14.943453 45.587171,16.214933 45.587171,18.178902 Z M44.249723,18.178902 C44.249723,16.895802 43.586634,16.052239 42.574917,16.052239 C41.580973,16.052239 40.912417,16.913568 40.912417,18.178902 C40.912417,19.455856 41.580973,20.311032 42.574917,20.311032 C43.586634,20.311032 44.249723,19.473629 44.249723,18.178902 L44.249723,18.178902 Z M50.196643,18.925382 C50.293033,19.787397 51.130443,20.353382 52.274768,20.353382 C53.371255,20.353382 54.16012,19.787369 54.16012,19.010117 C54.16012,18.335408 53.684337,17.931417 52.557778,17.654553 L51.431219,17.383163 C49.83503,16.997617 49.09401,16.25113 49.09401,15.039801 C49.09401,13.539995 50.401043,12.509819 52.256316,12.509819 C54.093816,12.509819 55.352997,13.539995 55.395382,15.039801 L54.082182,15.039801 C54.003572,14.172319 53.286478,13.648691 52.238529,13.648691 C51.19058,13.648691 50.473493,14.178479 50.473493,14.949571 C50.473493,15.564122 50.931503,15.925742 52.051909,16.202571 L53.009621,16.437729 C54.793116,16.859507 55.53345,17.575929 55.53345,18.847395 C55.53345,20.473663 54.238723,21.492219 52.17835,21.492219 C50.250613,21.492219 48.949054,20.497589 48.86497,18.925319 L50.196643,18.925382 Z M58.342347,13.509951 L58.342347,15.009757 L59.547523,15.009757 L59.547523,16.039933 L58.342347,16.039933 L58.342347,19.53378 C58.342347,20.076553 58.583658,20.329484 59.113439,20.329484 C59.256513,20.3269892 59.3993555,20.3169418 59.54137,20.299384 L59.54137,21.323407 C59.3031798,21.3679127 59.0610796,21.3880691 58.818809,21.383565 C57.535709,21.383565 57.035314,20.901629 57.035314,19.672527 L57.035314,16.039933 L56.113834,16.039933 L56.113834,15.009757 L57.0353,15.009757 L57.0353,13.509951 L58.342347,13.509951 Z M60.2448,18.178902 C60.2448,16.184861 61.419211,14.931833 63.250565,14.931833 C65.088065,14.931833 66.257009,16.184833 66.257009,18.178902 C66.257009,20.178417 65.094218,21.425971 63.250565,21.425971 C61.407584,21.425971 60.2448,20.17841 60.2448,18.178902 Z M64.931517,18.178902 C64.931517,16.811032 64.30466,16.003708 63.250558,16.003708 C62.196456,16.003708 61.569599,16.817185 61.569599,18.178902 C61.569599,19.552239 62.196456,20.353417 63.250558,20.353417 C64.30466,20.353417 64.931517,19.552239 64.931517,18.178902 L64.931517,18.178902 Z M67.329549,15.009757 L68.570278,15.009757 L68.570278,16.088457 L68.600378,16.088457 C68.7734012,15.3940489 69.4096708,14.9161331 70.124789,14.943439 C70.2747038,14.9429156 70.424205,14.9591965 70.570493,14.991977 L70.570493,16.208773 C70.3812347,16.1509413 70.1838057,16.1243889 69.985993,16.130163 C69.6035468,16.1146478 69.2334236,16.2670653 68.972807,16.5473952 C68.7121904,16.8277251 68.5871176,17.2079605 68.630429,17.588263 L68.630429,21.347347 L67.329549,21.347347 L67.329549,15.009757 Z M76.568324,19.485928 C76.393324,20.636413 75.272911,21.425964 73.839416,21.425964 C71.995763,21.425964 70.851431,20.190709 70.851431,18.208974 C70.851431,16.221086 72.001916,14.931826 73.784732,14.931826 C75.538148,14.931826 76.640788,16.136316 76.640788,18.0579 L76.640788,18.503604 L72.164617,18.503604 L72.164617,18.582214 C72.1228252,19.0540361 72.2857461,19.5210746 72.6119379,19.86453 C72.9381298,20.2079853 73.3961532,20.3947543 73.869502,20.377329 C74.5007916,20.4364787 75.0959741,20.0739754 75.333076,19.485921 L76.568324,19.485928 Z M72.1707577,17.59443 L75.339222,17.59443 C75.3628298,17.1704592 75.2085016,16.7558672 74.913419,16.4505331 C74.6183365,16.145199 74.2092546,15.9768073 73.784732,15.985928 C73.3568512,15.9833746 72.9456775,16.1518452 72.6426019,16.4538943 C72.3395262,16.7559433 72.1696614,17.166543 72.1707577,17.59443 L72.1707577,17.59443 Z" id="App-Store" fill="#000000"></path>
                        <path d="M26.478333,6.111791 C27.0305956,6.07215993 27.5715246,6.2822742 27.9522329,6.68430127 C28.3329412,7.08632834 28.5133001,7.63789235 28.443667,8.187179 C28.443667,9.521554 27.722478,10.288579 26.478333,10.288579 L24.969644,10.288579 L24.969644,6.111791 L26.478333,6.111791 Z M25.618369,9.697891 L26.405869,9.697891 C26.8005444,9.7214824 27.1848406,9.5659823 27.452053,9.27456725 C27.7192654,8.9831522 27.8409457,8.58684709 27.783308,8.195691 C27.8367523,7.80615817 27.7133196,7.41312335 27.4467698,7.12408479 C27.1802199,6.83504622 26.798447,6.68025141 26.405869,6.702038 L25.618369,6.702038 L25.618369,9.697891 Z M29.176476,8.711129 C29.122427,8.14614854 29.3933386,7.59936935 29.8755911,7.30010916 C30.3578437,7.00084896 30.9680573,7.00084896 31.4503099,7.30010916 C31.9325624,7.59936935 32.203474,8.14614854 32.149425,8.711129 C32.2045024,9.27671658 31.9338381,9.82455627 31.4511579,10.1244607 C30.9684777,10.4243652 30.3574233,10.4243652 29.8747431,10.1244607 C29.3920629,9.82455627 29.1213986,9.27671658 29.176476,8.711129 Z M31.509583,8.711129 C31.509583,8.02788 31.20264,7.62832 30.663976,7.62832 C30.123254,7.62832 29.819076,8.02788 29.819076,8.711136 C29.819076,9.399859 30.123275,9.796339 30.663976,9.796339 C31.202654,9.796339 31.509583,9.397115 31.509583,8.711129 L31.509583,8.711129 Z M36.101282,10.288516 L35.455973,10.288516 L34.804511,7.967029 L34.755294,7.967029 L34.106562,10.288516 L33.467399,10.288516 L32.598552,7.136465 L33.229511,7.136465 L33.794159,9.541665 L33.840646,9.541665 L34.488692,7.136465 L35.08547,7.136465 L35.733516,9.541665 L35.782733,9.541665 L36.344644,7.136465 L36.966713,7.136465 L36.101282,10.288516 Z M37.697471,7.136465 L38.2963,7.136465 L38.2963,7.637196 L38.342787,7.637196 C38.5044414,7.26852556 38.882181,7.04300623 39.283412,7.075621 C39.5940838,7.05226324 39.8985201,7.17144393 40.1107635,7.39951245 C40.323007,7.62758097 40.4200251,7.93978763 40.374425,8.247981 L40.374425,10.288481 L39.752356,10.288481 L39.752356,8.404193 C39.752356,7.897652 39.532241,7.645743 39.07218,7.645743 C38.8614561,7.63592838 38.6569541,7.7186288 38.5122882,7.87216275 C38.3676223,8.0256967 38.2972205,8.23475171 38.31954,8.44452 L38.31954,10.288516 L37.697471,10.288516 L37.697471,7.136465 Z M41.365639,5.905991 L41.987708,5.905991 L41.987708,10.288509 L41.365639,10.288509 L41.365639,5.905991 Z M42.852453,8.711129 C42.7984455,8.14611157 43.0693998,7.59931855 43.5516882,7.30005374 C44.0339765,7.00078893 44.6442215,7.00078893 45.1265098,7.30005374 C45.6087982,7.59931855 45.8797525,8.14611157 45.825745,8.711129 C45.8807524,9.27673683 45.6100385,9.82456103 45.1273344,10.1244523 C44.6446302,10.4243435 44.0335678,10.4243435 43.5508636,10.1244523 C43.0681595,9.82456103 42.7974456,9.27673683 42.852453,8.711129 L42.852453,8.711129 Z M45.18556,8.711129 C45.18556,8.02788 44.878617,7.62832 44.339953,7.62832 C43.799231,7.62832 43.495053,8.02788 43.495053,8.711136 C43.495053,9.399859 43.799252,9.796339 44.339953,9.796339 C44.878624,9.796339 45.18556,9.397115 45.18556,8.711129 L45.18556,8.711129 Z M46.48063,9.397115 C46.48063,8.82973 46.903094,8.502634 47.65299,8.456147 L48.506801,8.40693 L48.506801,8.134861 C48.506801,7.801948 48.286686,7.613963 47.861492,7.613963 C47.514229,7.613963 47.273604,7.741454 47.204556,7.964306 L46.602311,7.964306 C46.665885,7.422898 47.175163,7.075635 47.890199,7.075635 C48.680436,7.075635 49.12614,7.469035 49.12614,8.134861 L49.12614,10.288523 L48.527311,10.288523 L48.527311,9.845556 L48.478094,9.845556 C48.274708,10.1690444 47.9130216,10.3581053 47.531316,10.340456 C47.2637313,10.3682893 46.9968598,10.2816285 46.7966771,10.1018977 C46.5964943,9.92216696 46.4816843,9.66614132 46.48063,9.397115 L46.48063,9.397115 Z M48.506801,9.127776 L48.506801,8.864254 L47.737074,8.913471 C47.30299,8.942521 47.106115,9.090179 47.106115,9.368058 C47.106115,9.651747 47.352207,9.816835 47.690615,9.816835 C47.8909452,9.8371139 48.0909285,9.77522354 48.2447843,9.64533191 C48.3986401,9.51544029 48.4931941,9.32866974 48.506801,9.127776 Z M49.943712,8.711129 C49.943712,7.715134 50.455727,7.084175 51.25211,7.084175 C51.6542437,7.06564609 52.0308793,7.28112201 52.218712,7.637175 L52.265199,7.637175 L52.265199,5.905991 L52.887268,5.905991 L52.887268,10.288509 L52.291176,10.288509 L52.291176,9.790508 L52.241959,9.790508 C52.0399279,10.1436069 51.6586522,10.3554405 51.252117,10.340456 C50.45026,10.340491 49.943712,9.709518 49.943712,8.711129 Z M50.586312,8.711129 C50.586312,9.379685 50.901452,9.781982 51.428503,9.781982 C51.952803,9.781982 52.27684,9.373882 52.27684,8.713866 C52.27684,8.05693 51.949401,7.643013 51.428503,7.643013 C50.904847,7.643013 50.586291,8.04804 50.586291,8.711129 L50.586312,8.711129 Z M55.461,8.711129 C55.406951,8.14614854 55.6778626,7.59936935 56.1601151,7.30010916 C56.6423677,7.00084896 57.2525813,7.00084896 57.7348339,7.30010916 C58.2170864,7.59936935 58.487998,8.14614854 58.433949,8.711129 C58.4890264,9.27671658 58.2183621,9.82455627 57.7356819,10.1244607 C57.2530017,10.4243652 56.6419473,10.4243652 56.1592671,10.1244607 C55.6765869,9.82455627 55.4059226,9.27671658 55.461,8.711129 L55.461,8.711129 Z M57.7941,8.711129 C57.7941,8.02788 57.487164,7.62832 56.9485,7.62832 C56.407778,7.62832 56.1036,8.02788 56.1036,8.711136 C56.1036,9.399859 56.407799,9.796339 56.9485,9.796339 C57.487171,9.796339 57.7941,9.397115 57.7941,8.711129 Z M59.268615,7.136465 L59.867444,7.136465 L59.867444,7.637196 L59.913931,7.637196 C60.0755854,7.26852556 60.453325,7.04300623 60.854556,7.075621 C61.1652278,7.05226324 61.4696641,7.17144393 61.6819075,7.39951245 C61.894151,7.62758097 61.9911691,7.93978763 61.945569,8.247981 L61.945569,10.288481 L61.3235,10.288481 L61.3235,8.404193 C61.3235,7.897652 61.103385,7.645743 60.643324,7.645743 C60.4326001,7.63592838 60.2280981,7.7186288 60.0834322,7.87216275 C59.9387663,8.0256967 59.8683645,8.23475171 59.890684,8.44452 L59.890684,10.288516 L59.268615,10.288516 L59.268615,7.136465 Z M65.460612,6.351702 L65.460612,7.150822 L66.143525,7.150822 L66.143525,7.6748 L65.460612,7.6748 L65.460612,9.295601 C65.460612,9.625777 65.59665,9.770355 65.906316,9.770355 C65.9855949,9.77010128 66.0647942,9.76530776 66.143525,9.755998 L66.143525,10.274159 C66.0318117,10.2941445 65.9186259,10.304777 65.805145,10.305946 C65.113349,10.305946 64.837857,10.062584 64.837857,9.454872 L64.837857,7.674772 L64.337469,7.674772 L64.337469,7.150794 L64.837857,7.150794 L64.837857,6.351702 L65.460612,6.351702 Z M66.993227,5.905991 L67.609829,5.905991 L67.609829,7.643006 L67.659046,7.643006 C67.8284654,7.27110899 68.2128161,7.04530228 68.620146,7.078358 C68.9290536,7.0615491 69.2293688,7.1833536 69.4392925,7.4105947 C69.6492161,7.6378358 69.7468834,7.94684495 69.705692,8.253455 L69.705692,10.288516 L69.083,10.288516 L69.083,8.406916 C69.083,7.903448 68.8485,7.648466 68.408977,7.648466 C68.1925573,7.63071657 67.9793374,7.70939467 67.8263196,7.86346645 C67.6733019,8.01753823 67.5960893,8.23129322 67.615324,8.447586 L67.615324,10.288516 L66.993255,10.288516 L66.993227,5.905991 Z M73.332875,9.437442 C73.1584399,10.0320076 72.5830692,10.4161631 71.967056,10.349353 C71.5467507,10.3604481 71.142814,10.1862325 70.8624198,9.87292961 C70.5820256,9.55962674 70.4535205,9.13891016 70.511,8.722406 C70.4550472,8.30474433 70.5830708,7.88335361 70.8619036,7.56740387 C71.1407364,7.25145412 71.5429414,7.07203473 71.964319,7.075628 C72.84137,7.075628 73.370472,7.674828 73.370472,8.664628 L73.370472,8.881691 L71.144689,8.881691 L71.144689,8.916551 C71.1249924,9.1504491 71.2048755,9.38180443 71.3646926,9.55371949 C71.5245096,9.72563455 71.7494315,9.82215775 71.984143,9.819551 C72.2884833,9.85608728 72.5847378,9.70512413 72.734046,9.437421 L73.332875,9.437442 Z M71.144675,8.421623 L72.736762,8.421623 C72.752619,8.20770331 72.6774009,7.99703455 72.5296438,7.84153237 C72.3818868,7.68603018 72.1753322,7.60015636 71.960882,7.605073 C71.7435264,7.60234224 71.5342796,7.68750587 71.3806074,7.84124522 C71.2269353,7.99498457 71.1418632,8.20426861 71.144689,8.421623 L71.144675,8.421623 Z" id="Download-on-the" fill="#000000"></path>
                        <path d="M17.497697,13.922636 C17.5136081,12.6877286 18.161017,11.5470501 19.213103,10.900239 C18.5463743,9.9480332 17.4696827,9.36595837 16.30783,9.329607 C15.085462,9.201297 13.900439,10.061051 13.27753,10.061051 C12.642581,10.061051 11.683539,9.342347 10.650801,9.363592 C9.29199539,9.40749253 8.05592898,10.1613241 7.394842,11.349282 C5.987065,13.786682 7.037142,17.368855 8.385699,19.339082 C9.060415,20.303843 9.848958,21.3815 10.880765,21.343287 C11.890445,21.301406 12.267542,20.699448 13.486305,20.699448 C14.693763,20.699448 15.04755,21.343287 16.100294,21.31899 C17.183733,21.301406 17.866338,20.349945 18.517394,19.376049 C19.0021768,18.6886234 19.3752162,17.9288682 19.622694,17.124926 C18.3359002,16.5806756 17.4991945,15.3197919 17.497697,13.922636 Z M15.509277,8.033858 C16.1000147,7.32470565 16.39105,6.41320758 16.320577,5.492935 C15.4180695,5.58772545 14.5844051,6.01906498 13.985692,6.701009 C13.3944895,7.37383926 13.0949879,8.25408181 13.153154,9.147859 C14.0677588,9.15727355 14.9361563,8.74668564 15.509277,8.033858 Z" id="Icon" fill="#000000"></path>
                    </g>
                </g>
            </g>
        </g>
    </g>
</svg>