<svg xmlns="http://www.w3.org/2000/svg" xmlns:xlink="http://www.w3.org/1999/xlink" width="36" height="36" viewBox="0 0 36 36"><defs><path id="operations-application-card-a" d="M26.727 9C28.504 9 30 10.613 30 12.375v11.25c-.03 1.858-1.493 3.37-3.273 3.375H9.273C7.463 27 6 25.489 6 23.625v-11.25C6 10.508 7.463 9 9.273 9zm0 2.25H9.273c-.607 0-1.094.501-1.091 1.125v11.25c-.003.622.485 1.125 1.09 1.125h17.455c.576-.005 1.064-.509 1.091-1.125v-11.25c.003-.546-.544-1.125-1.09-1.125zm-1.09 4.5V18H10.363v-2.25h15.272z"/></defs><use fill="#08A652" fill-rule="nonzero" xlink:href="#operations-application-card-a"/></svg>