<svg xmlns="http://www.w3.org/2000/svg" width="36" height="36" viewBox="0 0 36 36"><path fill="#505A66" fill-rule="evenodd" d="M18 6c6.617 0 12 5.383 12 12s-5.383 12-12 12S6 24.617 6 18h2.181l.005.274C8.33 23.56 12.68 27.818 18 27.818c5.412 0 9.818-4.406 9.818-9.818S23.412 8.182 18 8.182a9.797 9.797 0 00-7.324 3.288l2.899-.304a1 1 0 11.209 1.989l-5.38.565a1 1 0 01-1.098-.89l-.571-5.428a1 1 0 011.99-.209l.298 2.851A11.974 11.974 0 0118 6zm0 5.455c.602 0 1.09.488 1.09 1.09v5.202l3.735 2.055.02.01c.474.275.659.858.446 1.35l-.056.11-.007.014a1.1 1.1 0 01-1.367.469l-.115-.054-4.3-2.357a1.1 1.1 0 01-.564-.84l-.007-.133.015-1.834.019.009v-4c0-.603.489-1.091 1.091-1.091z"/></svg>