<svg xmlns="http://www.w3.org/2000/svg" xmlns:xlink="http://www.w3.org/1999/xlink" width="36" height="36" viewBox="0 0 36 36"><defs><path id="operations-broker-normal-copy-a" d="M27.995 12A2 2 0 0130 14v13c0 1.105-.897 2-2.005 2H8.005A2 2 0 016 27V14c0-1.105.897-2 2.005-2h19.99zm-4.725 4.317l-4.857 5.194-2.56-1.825a1 1 0 00-1.31.131l-3.273 3.5a1 1 0 001.46 1.366l2.675-2.86 2.56 1.825a1 1 0 001.31-.132l5.455-5.833a1 1 0 00-1.46-1.366z"/><path id="operations-broker-normal-copy-b" d="M22 10.6V8.692c0-.33-.403-.692-.997-.692h-6.006c-.596 0-.997.36-.997.69v1.91h-2V8.69C12 7.206 13.342 6 14.997 6h6.006C22.658 6 24 7.209 24 8.692V10.6h-2z"/></defs><g fill="none" fill-rule="evenodd"><path d="M0 0h36v36H0z"/><path fill="#FFF" d="M9 15h18v12H9z"/><use fill="#653CAD" fill-rule="nonzero" xlink:href="#operations-broker-normal-copy-a"/><use fill="#7D8894" xlink:href="#operations-broker-normal-copy-b"/></g></svg>