<svg xmlns="http://www.w3.org/2000/svg" xmlns:xlink="http://www.w3.org/1999/xlink" width="36" height="36" viewBox="0 0 36 36"><defs><path id="operations-credit-a" d="M21.995 4A2 2 0 0124 6v13c0 1.105-.897 2-2.005 2H2.005A2 2 0 010 19V6c0-1.105.897-2 2.005-2h19.99zM17.5 11a1.5 1.5 0 100 3 1.5 1.5 0 000-3z"/></defs><g fill="none" fill-rule="evenodd" transform="translate(6 7)"><path fill="#7D8894" d="M2 2v17h-.005H3v2H1.995A2 2 0 010 19.005V1.995A2 2 0 011.995 0H21v2H2z"/><use fill="#4C63B6" fill-rule="nonzero" xlink:href="#operations-credit-a"/></g></svg>