<svg xmlns="http://www.w3.org/2000/svg" xmlns:xlink="http://www.w3.org/1999/xlink" width="36" height="36" viewBox="0 0 36 36"><defs><path id="operations-credit-auto-a" d="M18.702 0a5 5 0 014.596 3.031l1.484 3.465.611-.496h1.605a1 1 0 01.931 1.366l-.25.634h-1.025c.532.5.846 1.192.846 1.932v7.032l-.02.223c-.284 1.632-1.938 1.79-8.501 1.812l-.233.001-2.134-.68h-5.224L9.254 19h-.233C2.458 18.975.804 18.818.52 17.186l-.02-.222V9.932c0-.74.314-1.432.846-1.933L.32 8l-.249-.634a1 1 0 01.814-1.36L1.002 6h1.676l.55.468 1.474-3.437A5 5 0 019.298 0h9.404zm5.666 10.964l-4 .53a1 1 0 00-.862.878l-.006.114V14h5a1 1 0 00.993-.883L25.5 13v-1.045a1 1 0 00-.9-.995l-.115-.005zM3.5 10.954a1 1 0 00-1 1V13a1 1 0 001 1h5v-1.514a1 1 0 00-.868-.991l-4-.532a1 1 0 00-.132-.008zM18.784 2H9.639a3 3 0 00-2.772 1.852l-.067.18L6 6.374l.165.128a2.68 2.68 0 001.346.489l.21.008h12.982a2.68 2.68 0 001.554-.497l.166-.128-.8-2.344A3 3 0 0018.783 2z"/></defs><g fill="none" fill-rule="evenodd" transform="translate(4 8)"><path fill="#7D8894" d="M6.002 15a1 1 0 011 1v4a1 1 0 01-1 1h-4a1 1 0 01-1-1v-4a1 1 0 011-1h4zm20 0a1 1 0 011 1v4a1 1 0 01-1 1h-4a1 1 0 01-1-1v-4a1 1 0 011-1h4z"/><use fill="#4C63B6" fill-rule="nonzero" xlink:href="#operations-credit-auto-a"/></g></svg>