<svg xmlns="http://www.w3.org/2000/svg" xmlns:xlink="http://www.w3.org/1999/xlink" width="36" height="36" viewBox="0 0 36 36"><defs><path id="operations-deposit-close-a" d="M25.783 8C27.008 8 28 8.982 28 10.195v15.41a2.205 2.205 0 01-2.217 2.195h-.006v.533a1.667 1.667 0 01-3.333 0V27.8h-8.889v.533a1.667 1.667 0 01-3.333 0V27.8h-.005A2.205 2.205 0 018 25.605v-15.41C8 8.983 8.992 8 10.217 8h15.566zm-.005 2.2H10.222v15.4h15.556V10.2zm-10.064 3.858l2.357 2.356 2.334-2.333c.43-.43 1.13-.426 1.563.008.434.434.437 1.134.008 1.564l-2.334 2.333 2.357 2.357c.434.434.438 1.134.008 1.564-.43.43-1.13.426-1.563-.008l-2.358-2.358-2.333 2.334c-.43.43-1.13.426-1.563-.008a1.106 1.106 0 01-.008-1.563l2.333-2.334-2.357-2.357a1.106 1.106 0 01-.007-1.563c.43-.43 1.13-.426 1.563.008z"/></defs><use fill="#505A66" fill-rule="evenodd" xlink:href="#operations-deposit-close-a"/></svg>