<svg xmlns="http://www.w3.org/2000/svg" xmlns:xlink="http://www.w3.org/1999/xlink" width="36" height="36" viewBox="0 0 36 36"><defs><path id="operations-deposit-a" d="M25.783 8C27.008 8 28 8.982 28 10.195v15.41a2.205 2.205 0 01-2.217 2.195h-.006v.533a1.667 1.667 0 01-3.333 0V27.8h-8.889v.533a1.667 1.667 0 01-3.333 0V27.8h-.005A2.205 2.205 0 018 25.605v-15.41C8 8.983 8.992 8 10.217 8h15.566zm-.005 2.2H10.222v15.4h15.556V10.2zM18 13.5c2.455 0 4.444 1.97 4.444 4.4 0 2.43-1.99 4.4-4.444 4.4-2.455 0-4.444-1.97-4.444-4.4 0-2.43 1.99-4.4 4.444-4.4zm0 2.2a2.211 2.211 0 00-2.222 2.2c0 1.215.995 2.2 2.222 2.2a2.211 2.211 0 002.222-2.2c0-1.215-.995-2.2-2.222-2.2z"/></defs><use fill="#505A66" fill-rule="evenodd" xlink:href="#operations-deposit-a"/></svg>