<svg xmlns="http://www.w3.org/2000/svg" xmlns:xlink="http://www.w3.org/1999/xlink" width="36" height="36" viewBox="0 0 36 36"><defs><path id="operations-deposit-income-a" d="M25.783 8C27.008 8 28 8.982 28 10.195v15.41a2.205 2.205 0 01-2.217 2.195h-.006v.533a1.667 1.667 0 01-3.333 0V27.8h-8.889v.533a1.667 1.667 0 01-3.333 0V27.8h-.005A2.205 2.205 0 018 25.605V22.3h2.222v3.3h15.556V10.2H10.222v3.3H8v-3.305C8 8.983 8.992 8 10.217 8h15.566zm-8.31 6.026l3.115 3.083c.29.288.394.69.304 1.056a1.11 1.11 0 01-.222.48l-.093.103-3.114 3.084a1.133 1.133 0 01-1.497.091l-.089-.078-.08-.089a1.1 1.1 0 01.006-1.382l.088-.098L17.18 19H8v-2.2h9.132l-1.23-1.218a1.102 1.102 0 01-.093-1.48l.083-.093.085-.074a1.133 1.133 0 011.496.09z"/></defs><use fill="#08A652" fill-rule="nonzero" xlink:href="#operations-deposit-income-a"/></svg>