<svg xmlns="http://www.w3.org/2000/svg" width="36" height="36" viewBox="0 0 36 36"><g fill="none" fill-rule="evenodd"><path d="M0 0h36v36H0z" opacity=".05"/><path fill="#08A652" fill-rule="nonzero" d="M10 15.94V16c0 1.01.15 1.987.429 2.906A5.478 5.478 0 0010 21.037c0 .985.26 1.91.715 2.711.011.78-.193 1.65-.666 2.204.679-.179 1.33-.406 1.948-.676a5.471 5.471 0 003.22 1.254l.283.007.22-.004a5.466 5.466 0 002.468-.698c.47.087.951.14 1.442.158L20 26l.28-.004c.304-.008.604-.03.9-.065a7.485 7.485 0 01-5.438 2.603l-.242.003a7.46 7.46 0 01-4.218-1.3c-1.224.532-2.653.83-4.282.83 1.66-1.844 1.68-2.417 1.672-3.924-.431-.948-.672-2-.672-3.106a7.47 7.47 0 012-5.096zM20.5 7l.255.004C25.322 7.139 29 10.89 29 15.5a8.45 8.45 0 01-1.672 5.057C27.32 22.1 27.322 22.666 29 24.53c-2.007 0-3.71-.452-5.1-1.237a8.46 8.46 0 01-3.4.708l-.255-.004C15.678 23.861 12 20.11 12 15.5l.004-.255C12.139 10.678 15.89 7 20.5 7zm0 2a6.505 6.505 0 00-6.496 6.267L14 15.5l.004.233a6.506 6.506 0 006.263 6.263L20.5 22l.327-.008a6.442 6.442 0 002.435-.608c.828.43 1.732.779 2.689 1.03-.541-.634-.731-1.683-.65-2.536A6.477 6.477 0 0027 15.5a6.505 6.505 0 00-6.267-6.496z"/><path fill="#505A66" d="M17.5 14.5a1 1 0 110 2 1 1 0 010-2zm3 0a1 1 0 110 2 1 1 0 010-2zm3 0a1 1 0 110 2 1 1 0 010-2z"/></g></svg>