<svg xmlns="http://www.w3.org/2000/svg" xmlns:xlink="http://www.w3.org/1999/xlink" width="36" height="36" viewBox="0 0 36 36"><defs><path id="operations-docs-a" d="M24.75 7C25.993 7 27 7.985 27 9.2v17.6c0 1.215-1.007 2.2-2.25 2.2h-13.5C10.007 29 9 28.015 9 26.8V9.2C9 7.985 10.007 7 11.25 7h13.5zm0 2.2h-13.5v17.6h13.5V9.2zm-5.6 6.6a1.1 1.1 0 010 2.2h-5.675a1.1 1.1 0 010-2.2h5.675zm2.25-4.4a1.1 1.1 0 010 2.2h-7.925a1.1 1.1 0 010-2.2H21.4z"/></defs><use fill="#505A66" fill-rule="evenodd" xlink:href="#operations-docs-a"/></svg>