<svg xmlns="http://www.w3.org/2000/svg" width="36" height="36" viewBox="0 0 36 36"><g fill="none" fill-rule="evenodd"><path d="M0 0h36v36H0z"/><path fill="#08A652" fill-rule="nonzero" d="M27.167 3.85c1.103 0 1.983.915 1.983 2.017v15.6h-2.3V6.15H9.15v23.7h6.35v2.3H8.833c-1.103 0-1.983-.915-1.983-2.017V5.867c0-1.102.88-2.017 1.983-2.017h18.334zM18 20a1 1 0 010 2h-5a1 1 0 010-2h5zm5-5a1 1 0 010 2H13a1 1 0 010-2h10zm0-5a1 1 0 010 2H13a1 1 0 010-2h10z"/><path fill="#4D5967" fill-rule="nonzero" d="M27.28 25.306a1 1 0 011.44 1.388l-4.827 5a1 1 0 01-1.342.089l-3.174-2.525a1 1 0 011.246-1.565l2.462 1.959 4.195-4.346z"/></g></svg>