<svg xmlns="http://www.w3.org/2000/svg" width="36" height="36" viewBox="0 0 36 36"><path d="M15 6v2h-3v20h12V15h2v13a2 2 0 01-2 2H12a2 2 0 01-2-2V8a2 2 0 012-2h3zm7 9v10h-6v-2h4v-8h2zm-.879-4.464l-2.828-2.829-.05-.056-.021-.024-.012-.014a1.004 1.004 0 01-.005-.006l-.011-.015a1.032 1.032 0 01-.1-.169l-.005-.01a.996.996 0 01-.004-.01l.009.02a.967.967 0 01-.06-.163l-.013-.056A1.099 1.099 0 0118 7v-.043l.002-.027.002-.015.007-.065a1.096 1.096 0 01.058-.217l.01-.023a.993.993 0 01.01-.023l.005-.01a1.016 1.016 0 01.199-.284l2.828-2.829a1 1 0 011.415 1.415L21.415 6H30v2h-8.585l1.12 1.121a1 1 0 11-1.414 1.415zm-2.893-2.9l-.015-.02.009.011.006.008zm.024.027l-.011-.012-.013-.016.024.028z" fill="#505A66" fill-rule="evenodd"/></svg>