<svg xmlns="http://www.w3.org/2000/svg" width="36" height="36" viewBox="0 0 36 36"><path d="M15 30v-2h-3V8h12v13h2V8a2 2 0 00-2-2H12a2 2 0 00-2 2v20a2 2 0 002 2h3zm7-9V11h-2v10h2zm4.879 11.536l2.828-2.829.05-.056.021-.024.012-.014.005-.006.011-.015a1.032 1.032 0 00.1-.169l.005-.01a.995.995 0 00.004-.01l-.009.02a.967.967 0 00.06-.163l.013-.056A1.099 1.099 0 0030 29v-.043l-.002-.027-.002-.015-.007-.065a1.096 1.096 0 00-.058-.217l-.01-.023a.993.993 0 00-.01-.023l-.005-.01a1.016 1.016 0 00-.199-.284l-2.828-2.829a1 1 0 00-1.415 1.415L26.585 28H18v2h8.585l-1.12 1.121a1 1 0 001.414 1.415zm2.893-2.9l.015-.02-.009.011-.006.008zm-.024.027l.011-.012.013-.016-.024.028z" fill="#505A66" fill-rule="evenodd"/></svg>