<svg xmlns="http://www.w3.org/2000/svg" width="36" height="36" viewBox="0 0 36 36"><g fill="none" fill-rule="evenodd"><path fill="#7D8894" d="M18 29c.552 0 1 .443 1 1v2a1 1 0 01-2 0v-2a1 1 0 011-1zM7.538 21.4a.997.997 0 01-.642 1.26l-1.902.617a1 1 0 01-.618-1.902l1.902-.618a1 1 0 011.26.642zm22.184-.643l1.902.618a1 1 0 01-.618 1.902l-1.902-.618a1 1 0 01.618-1.902zM10.58 6.086l1.176 1.618a1 1 0 01-1.618 1.176L8.962 7.262a1 1 0 011.618-1.176zm16.237-.221a.997.997 0 01.221 1.397L25.862 8.88a1 1 0 01-1.618-1.176l1.176-1.618a1 1 0 011.397-.221z"/><path fill="#17B897" fill-rule="nonzero" d="M18 26l-6.436 3.383a1 1 0 01-1.45-1.054l1.229-7.166-5.207-5.075a1 1 0 01.554-1.706l7.196-1.045 3.217-6.52a1 1 0 011.794 0l3.217 6.52 7.196 1.045a1 1 0 01.554 1.706l-5.207 5.075 1.23 7.166a1 1 0 01-1.451 1.054L18 26z"/></g></svg>