<svg xmlns="http://www.w3.org/2000/svg" xmlns:xlink="http://www.w3.org/1999/xlink" width="36" height="36" viewBox="0 0 36 36"><defs><path id="operations-payandtrasf-sberbank-a" d="M26.885 9.088A11.956 11.956 0 0130 17.153a11.996 11.996 0 01-7.364 11.072l-.429.17-.701-1.873A9.995 9.995 0 0028 17.153c0-1.919-.541-3.75-1.53-5.32l-.204-.31L15.6 18.837l-7.086-4.859A9.994 9.994 0 008 17.153c0 1.609.378 3.158 1.095 4.555l-1.78.913A11.949 11.949 0 016 17.153c0-1.531.287-2.996.81-4.343.18-.536.44-1.031.72-1.522l.17-.294 7.9 5.418 11.285-7.324zm-4.57-3.64l1.227 1.58-7.894 6.128L10 8.986l1.189-1.609 4.428 3.27 6.698-5.198z"/><path id="operations-payandtrasf-sberbank-b" d="M15.76 24.301l2.95 2.95c.255.255.349.612.278.941a1.036 1.036 0 01-.201.459l-.087.098-2.95 2.95a1.036 1.036 0 01-1.36.083l-.097-.086-.086-.098a1.027 1.027 0 01-.002-1.262l.085-.097 1.239-1.24L7 29v-2h8.539L14.3 25.76c-.37-.37-.4-.953-.083-1.36l.086-.097a1.035 1.035 0 011.457-.003z"/></defs><g fill="none" fill-rule="evenodd"><path d="M0 0h36v36H0z"/><use fill="#08A652" fill-rule="nonzero" xlink:href="#operations-payandtrasf-sberbank-a"/><use fill="#505A66" xlink:href="#operations-payandtrasf-sberbank-b"/></g></svg>