<svg xmlns="http://www.w3.org/2000/svg" xmlns:xlink="http://www.w3.org/1999/xlink" width="36" height="36" viewBox="0 0 36 36"><defs><path id="operations-payandtrasf-my-a" d="M23 12.546l6.434 5.898c.33.303.322.656-.014.936L23 24.73V21H13v2h8v2c0 2.21 1.377 2.853 3.075 1.438l6.625-5.522c1.267-1.055 1.308-2.825.085-3.946l-6.834-6.265C22.319 9.209 21 9.791 21 11.999v4.064h2v-3.517z"/><path id="operations-payandtrasf-my-b" d="M10.037 11.796l.094.083.084.094a.994.994 0 01.005 1.22l-.082.093L8.923 14.5H17v2H9.035l1.093 1.093a.992.992 0 01.077 1.313l-.084.094a1 1 0 01-1.407.007l-2.842-2.842a.986.986 0 01-.27-.897.982.982 0 01.194-.456l.086-.098 2.841-2.842a1 1 0 011.314-.076z"/></defs><g fill="none" fill-rule="evenodd"><path d="M0 0h36v36H0z"/><use fill="#08A652" fill-rule="nonzero" xlink:href="#operations-payandtrasf-my-a"/><use fill="#505A66" xlink:href="#operations-payandtrasf-my-b"/></g></svg>