<svg xmlns="http://www.w3.org/2000/svg" xmlns:xlink="http://www.w3.org/1999/xlink" width="36" height="36" viewBox="0 0 36 36"><defs><path id="operations-payandtrasf-autopay-a" d="M29.966 20c1.108 0 1.366.638.59 1.413l-.843.842A6.007 6.007 0 0131 25.98c0 3.325-2.686 6.02-6 6.02s-6-2.695-6-6.02a6.01 6.01 0 011.733-4.232 1 1 0 011.36 1.469l.057-.063a4.007 4.007 0 00-1.157 2.826C20.993 28.2 22.787 30 25 30c2.213 0 4.007-1.8 4.007-4.02 0-.842-.26-1.64-.72-2.3l-.872.87c-.781.78-1.415.52-1.415-.59v-2.962A1 1 0 0127 20h2.966z"/><path id="operations-payandtrasf-autopay-b" d="M10.994 5h14.012a2.999 2.999 0 012.989 2.824L28 8v9h-2V8a1 1 0 00-.879-.993L25.006 7H10.994a.997.997 0 00-.987.876L10 7.99v19.018c0 .508.383.927.879.984l.116.007H16v2h-5.005a2.993 2.993 0 01-2.99-2.815L8 27.009V7.991a2.996 2.996 0 012.818-2.986L10.994 5h14.012zm8.003 11a1 1 0 01.996.883L20 17c0 .552-.438 1-1.003 1h-4.994A.999.999 0 0113 17c0-.552.438-1 1.003-1h4.994zm3.008-5c.51 0 .93.383.988.883L23 12c0 .552-.456 1-.995 1h-8.01A.995.995 0 0113 12c0-.552.456-1 .995-1h8.01z"/></defs><g fill="none" fill-rule="evenodd"><path d="M0 0h36v36H0z"/><use fill="#505A66" xlink:href="#operations-payandtrasf-autopay-a"/><use fill="#08A652" fill-rule="nonzero" xlink:href="#operations-payandtrasf-autopay-b"/></g></svg>