<svg xmlns="http://www.w3.org/2000/svg" xmlns:xlink="http://www.w3.org/1999/xlink" width="36" height="36" viewBox="0 0 36 36"><defs><path id="operations-payandtrasf-curandmetal-a" d="M31 12c1.107 0 2 .899 2 2.007v12.5A2.493 2.493 0 0130.49 29H10.004A2.008 2.008 0 018 26.996l2.003.004h20.488c.29 0 .509-.218.509-.493v-.443zm-14.5 0a4.5 4.5 0 110 9 4.5 4.5 0 010-9zm0 2a2.5 2.5 0 100 5 2.5 2.5 0 000-5z"/><path id="operations-payandtrasf-curandmetal-b" d="M6 23h20.996L27 10H6.004L6 23zM4 10c0-1.105.89-2 2.004-2h20.992C28.103 8 29 8.89 29 10v13c0 1.105-.89 2-2.004 2H6.004A1.998 1.998 0 014 23V10z"/></defs><g fill="none" fill-rule="evenodd"><path d="M0 0h36v36H0z"/><use fill="#505A66" xlink:href="#operations-payandtrasf-curandmetal-a"/><use fill="#08A652" fill-rule="nonzero" xlink:href="#operations-payandtrasf-curandmetal-b"/></g></svg>