<svg xmlns="http://www.w3.org/2000/svg" xmlns:xlink="http://www.w3.org/1999/xlink" width="36" height="36" viewBox="0 0 36 36"><defs><path id="operations-payandtrasf-othercard-a" d="M14.76 21.301l2.95 2.95c.255.255.349.612.278.941a1.036 1.036 0 01-.201.459l-.087.098-2.95 2.95a1.036 1.036 0 01-1.36.083l-.097-.086-.086-.098a1.027 1.027 0 01-.002-1.262l.085-.097 1.239-1.24L6 26v-2h8.539L13.3 22.76c-.37-.37-.4-.953-.083-1.36l.086-.097a1.035 1.035 0 011.457-.003zM27 13v2H10v-2h17z"/><path id="operations-payandtrasf-othercard-b" d="M21 26v-2h7a1 1 0 001-.993V10.993a1 1 0 00-.99-.993H8.99a.997.997 0 00-.99.997V20H6v-9.003A2.997 2.997 0 018.99 8h19.02A3 3 0 0131 10.993v12.014A3 3 0 0128 26h-7zm0 0v-2h7a1 1 0 001-.993V10.993a1 1 0 00-.99-.993H8.99a.997.997 0 00-.99.997V20H6v-9.003A2.997 2.997 0 018.99 8h19.02A3 3 0 0131 10.993v12.014A3 3 0 0128 26h-7z"/></defs><g fill="none" fill-rule="evenodd"><path d="M0 0h36v36H0z"/><use fill="#505A66" xlink:href="#operations-payandtrasf-othercard-a"/><use fill="#08A652" fill-rule="nonzero" xlink:href="#operations-payandtrasf-othercard-b"/></g></svg>