<svg xmlns="http://www.w3.org/2000/svg" xmlns:xlink="http://www.w3.org/1999/xlink" width="36" height="36" viewBox="0 0 36 36"><defs><path id="operations-payout-a" d="M9.271 9h17.382c1.746 0 3.2 1.508 3.295 3.292l.005.185-.029 3.273-2.175-.02.03-3.253c0-.607-.48-1.154-1.018-1.22l-.108-.007H9.271c-.57 0-1.03.437-1.09.997l-.006.121v11.264c0 .574.424 1.05.967 1.111l.118.007 17.401-.005c.56 0 1.022-.44 1.081-1.003l.006-.123.001-2.421-1.272 1.272c-.44.44-1.14.451-1.565.027-.424-.425-.412-1.126.027-1.565l3.182-3.182c.41-.41 1.047-.448 1.476-.106l.088.08 3.076 3.075c.425.425.413 1.125-.026 1.565-.44.44-1.14.451-1.565.026l-1.246-1.246v2.476c0 1.8-1.362 3.27-3.077 3.37l-.185.005-5.438.001v-2.25l-2.175.001v2.25L9.261 27c-1.739 0-3.16-1.409-3.256-3.178L6 23.632V12.368c0-1.796 1.362-3.264 3.085-3.363L9.271 9h17.382zm16.303 6.75V18H10.35v-2.25h15.224z"/></defs><use fill="#505A66" fill-rule="evenodd" xlink:href="#operations-payout-a"/></svg>