<svg xmlns="http://www.w3.org/2000/svg" xmlns:xlink="http://www.w3.org/1999/xlink" width="36" height="36" viewBox="0 0 36 36"><defs><path id="operations-reissue-card-a" d="M16.52 1.18a8.986 8.986 0 013.964 4.768l.99-1.716a1.076 1.076 0 011.471-.389c.517.299.696.956.4 1.469l-2.404 4.164a1.075 1.075 0 01-1.372.44l-4.043-1.81a1.078 1.078 0 01-.55-1.42 1.075 1.075 0 011.423-.538l2.209.988c-.49-1.727-1.597-3.198-3.159-4.1-2.927-1.689-6.712-.948-9.036 1.744a1.08 1.08 0 01-1.52.108 1.072 1.072 0 01-.119-1.515C7.755-.08 12.672-1.042 16.521 1.18z"/><path id="operations-reissue-card-b" d="M3.976 10.088l4.212 2.031c.542.261.773.905.517 1.44a1.077 1.077 0 01-1.443.494l-2.304-1.11c.512 1.69 1.617 3.127 3.16 4.018 2.893 1.67 6.616 1 8.959-1.58a1.088 1.088 0 011.53-.068c.448.4.487 1.081.09 1.52-3.007 3.312-7.845 4.182-11.65 1.985a9.092 9.092 0 01-3.999-4.783l-.998 1.728a1.08 1.08 0 01-1.478.385 1.08 1.08 0 01-.407-1.473l2.405-4.164c.28-.486.893-.67 1.406-.423z"/></defs><g fill="none" fill-rule="evenodd" transform="translate(6 8)"><use fill="#08A652" fill-rule="nonzero" xlink:href="#operations-reissue-card-a"/><use fill="#505A66" xlink:href="#operations-reissue-card-b"/></g></svg>