<svg xmlns="http://www.w3.org/2000/svg" width="64" height="64" viewBox="0 0 64 64"><g fill="none" fill-rule="evenodd"><path d="M0 0h64v64H0z"/><g stroke-width="2"><path d="M36 20.908c0-.501-.365-.908-.796-.908h-6.408c-.44 0-.796.405-.796.908v34.184c0 .501.365.908.796.908h6.408c.44 0 .796-.405.796-.908V20.908zM30.277 15l-.079-.133a26.188 26.188 0 00-2.805-3.819C25.13 8.504 22.781 7 20.521 7c-3.42 0-4.927 1.925-4.927 4.548 0 2.55.93 3.452 3.645 3.452h11.038zm3.446 0l.079-.133a26.188 26.188 0 012.805-3.819C38.87 8.504 41.219 7 43.479 7c3.42 0 4.927 1.925 4.927 4.548 0 2.55-.93 3.452-3.645 3.452H33.723z" stroke="#278433"/><path stroke="#4C6470" stroke-linecap="round" d="M24 56H11.57c-.867 0-1.57-.546-1.57-1.22V28m29.828 28H52.43c.867 0 1.57-.546 1.57-1.22V28m-13.958-8h15.411C56.308 20 57 21.023 57 22.286v3.428C57 26.977 56.308 28 55.453 28H40m-16.012 0H8.54C7.689 28 7 26.977 7 25.714v-3.428C7 21.023 7.69 20 8.54 20H24"/></g></g></svg>