<svg xmlns="http://www.w3.org/2000/svg" width="64" height="64" viewBox="0 0 64 64"><g fill="none" fill-rule="evenodd"><path d="M0 0h64v64H0z"/><g stroke-linecap="round" stroke-width="2"><g stroke="#4C6470"><path d="M29.546 10.282s.369 3.641 5.576 6.357c5.206 2.715 6.007 8.196 6.175 7.49.248-1.038.38-2.1.38-3.149 0-6.064-4.429-10.98-9.892-10.98-.77 0-1.52.098-2.239.282-4.385 1.126-7.654 5.489-7.654 10.698 0 7.144 4.43 12.55 9.893 12.55 1.17 0 2.294-.298 3.337-.826"/><path stroke-linejoin="round" d="M17 59h-5l1.866-12.565c.39-2.626 2.682-5.636 5.109-6.716L25.079 37s1.395 6.967 6.896 6.967c5.501 0 6.688-6.967 6.688-6.967l6.13 2.722c2.435 1.08 4.752 4.081 5.175 6.702L52 59h-5m-4 0H21"/></g><path stroke="#278433" stroke-linejoin="round" d="M45.968 26.75s2.376.216 3.144-.599c.767-.814 1.081-5.33.767-6.536-.314-1.206-1.469-1.567-3.003-1.615"/><path stroke="#4C6470" d="M22.882 17.843s2.986-.41 4.712-2.01c1.727-1.601 2.212-4.853 2.212-4.853"/><path stroke="#278433" d="M36 29c3.936 1.075 7.292 1.42 8.99-2.023C45.867 25.2 46 23.113 46 21c0-8.837-6.268-16-14-16s-14 7.163-14 16c0 1.98.315 3.875.89 5.625.04.123-3.072.498-3.98-.458-.908-.956-1.25-4.569-.92-6.536.19-1.134 2.252-1.619 4.01-1.619"/></g></g></svg>