<svg xmlns="http://www.w3.org/2000/svg" width="64" height="64" viewBox="0 0 64 64"><g fill="none" fill-rule="evenodd"><path d="M0 0h64v64H0z"/><g stroke-width="2"><g stroke="#278433"><path stroke-linecap="round" d="M21.003 45H7a2 2 0 01-2-2V11a2 2 0 012-2h46a2 2 0 012 2v28.002"/><path d="M5 16h50M5 21h50"/><path stroke-linecap="round" d="M12 36h10"/></g><g stroke="#4C6470"><path stroke-linecap="round" d="M46.051 43.838l-3.208-.469-3.418-6.97c-.366-.746-.484-.746-.85 0l-3.418 6.97-7.633 1.117c-.819.12-.863.253-.275.83l5.53 5.424-1.308 7.67c-.138.81-.036.883.7.493l6.83-3.613 3.34 1.767"/><path d="M46.377 58.924l4.517-2.375 4.518 2.375c.73.384.83.31.691-.503l-.863-5.03 3.655-3.563c.591-.576.553-.694-.264-.812l-5.05-.734-2.26-4.577c-.365-.74-.489-.74-.854 0l-2.259 4.577-5.05.734c-.817.118-.856.236-.265.812l3.655 3.563-.863 5.03c-.14.814-.039.887.692.503z"/></g></g></g></svg>