<svg xmlns="http://www.w3.org/2000/svg" width="64" height="64" viewBox="0 0 64 64"><g fill="none" fill-rule="evenodd"><path d="M0 0h64v64H0z"/><g stroke-width="2"><g stroke="#278433"><path stroke-linecap="round" d="M21.998 45H6.958c-.52 0-1.019-.21-1.386-.585A2.016 2.016 0 015 43V11c0-1.105.878-2 1.96-2h46.08c1.083 0 1.96.898 1.96 2.002v15.072"/><path d="M5 16h50"/><path stroke-linecap="round" d="M5.5 21h49M11 37h12"/></g><g stroke="#4C6470" transform="translate(27 27)"><circle cx="16" cy="16" r="16"/><circle cx="11.363" cy="11.59" r="2.59"/><path stroke-linecap="round" d="M22 10L10.007 21.993"/><circle cx="20.408" cy="20.635" r="2.59"/></g></g></g></svg>