<svg xmlns="http://www.w3.org/2000/svg" width="64" height="64" viewBox="0 0 64 64"><g fill="none" fill-rule="evenodd"><path d="M0 0h64v64H0z"/><g stroke-width="2"><g stroke="#4C6470" transform="translate(27 27)"><circle cx="16" cy="16" r="16"/><circle cx="11.5" cy="11.5" r="2.5"/><path stroke-linecap="round" d="M22 10L10 22"/><circle cx="20.5" cy="20.5" r="2.5"/></g><g stroke="#278433"><path stroke-linecap="round" d="M21 48H8a3 3 0 01-3-3V12a3 3 0 013-3h40a3 3 0 013 3v11"/><path d="M51 18H5"/><path stroke-linecap="round" d="M42 6v6M14 6v6m-3 12h2m-2 8h2m8-8h2m-2 8h2m9-8h2M11 39h2m5.77 6.22l2.83 2.829-2.83 2.828"/></g></g></g></svg>