<svg xmlns="http://www.w3.org/2000/svg" xmlns:xlink="http://www.w3.org/1999/xlink" width="64" height="64" viewBox="0 0 64 64"><defs><circle id="pics-simple-office-ic-pic-office-a" cx="9.25" cy="9.25" r="8.75"/></defs><g fill="none" fill-rule="evenodd"><path d="M0 0h64v64H0z"/><path stroke="#278433" stroke-width="2" d="M20.122 28.05A15.343 15.343 0 0118 20.235C18 11.821 24.716 5 33 5c8.284 0 15 6.82 15 15.234 0 2.845-.768 5.507-2.104 7.785-1.407 2.399-5.545 6.659-12.416 12.78a.676.676 0 01-.96 0c-6.857-6.11-10.99-10.36-12.398-12.748z"/><g transform="translate(24 11)"><mask id="pics-simple-office-ic-pic-office-b" fill="#fff"><use xlink:href="#pics-simple-office-ic-pic-office-a"/></mask><path d="M3.013 2.223L7.1 5.103 13.121.945M2.323 5.819l4.82 3.28 7.362-5.01a7.425 7.425 0 11-12.181 1.73z" stroke="#278433" stroke-width="2" xmask="url(#pics-simple-office-ic-pic-office-b)"/></g><g stroke="#4C6470" stroke-linecap="round" stroke-width="2"><path d="M50.212 27h2.08a2.73 2.73 0 011.916.784c.508.501.793 1.18.792 1.89v26.653a2.647 2.647 0 01-.79 1.89 2.726 2.726 0 01-1.916.783H30.006m-11.948 0h-6.352C10.21 59 9 57.804 9 56.327V29.673C9 28.197 10.21 27 11.709 27h4.29"/><path d="M23.903 58.911v-6.578C23.903 43.865 17.605 37 9 37m42 8l-27.097 9.333M42.193 59l-2.71-10"/></g></g></svg>