<svg xmlns="http://www.w3.org/2000/svg" width="64" height="64" viewBox="0 0 64 64"><g fill="none" fill-rule="evenodd"><path d="M0 0h64v64H0z" opacity=".425"/><g stroke-width="2"><g stroke="#278433"><path stroke-linecap="round" d="M20.98 44H6.997A1.995 1.995 0 015 42V10a2 2 0 012-2h47c1.105 0 2 .898 2 2.002v26.005"/><path d="M5 15h51"/><path stroke-linecap="round" d="M5 20h51M11 36h12"/></g><g stroke="#4C6470" stroke-linecap="round" stroke-linejoin="round"><path d="M49 47l-7.864 11.022c-.363.518-1.034 1.003-1.667 1.003h-1.596a.485.485 0 01-.455-.654L42 47"/><path d="M49 47c2.335.004 4.38.011 6.136.022 2 0 4-1.181 4-2.5 0-1.318-2-2.5-4-2.5L39 42h-3.16a6 6 0 00-1.648.23L31.5 43 30 41c-.21-.396-.552-.5-1-.5h-1c-.332 0-.46.356-.5.5-.04.144-.114.688 0 1l1 2.5-1 2.5c-.085.339-.055.88 0 1s.15.5.5.5h1c.505 0 .823-.027 1-.5l1.5-2 2.692.77a6 6 0 001.648.23H42m5-8.5l-5.864-7.478c-.451-.661-1.2-1-2-1h-1.158a.606.606 0 00-.569.812L40 38.5"/></g></g></g></svg>