<svg xmlns="http://www.w3.org/2000/svg" width="64" height="64" viewBox="0 0 64 64"><g fill="none" fill-rule="evenodd"><path d="M0 0h64v64H0z" opacity=".098"/><g fill-rule="nonzero"><path fill="#278433" d="M54 20v-3H6v3h48zm0 2H6v21.002c0 .27.103.526.286.713a.94.94 0 00.672.285h12.18l-1.102-1.103a1 1 0 111.414-1.414l3.535 3.535-3.535 3.536a1 1 0 01-1.414-1.414L19.175 46H6.959c-.79 0-1.547-.319-2.102-.886A3.014 3.014 0 014 43V11c0-1.652 1.321-3 2.96-3h46.08C54.678 8 56 9.35 56 11.002v14.072a1 1 0 11-2 0V22zm0-7v-3.998c0-.557-.435-1.002-.96-1.002H6.96c-.525 0-.96.443-.96 1v4h48z"/><g fill="#4C6470"><path d="M43 60c-9.389 0-17-7.611-17-17s7.611-17 17-17 17 7.611 17 17-7.611 17-17 17zm0-2c8.284 0 15-6.716 15-15 0-8.284-6.716-15-15-15-8.284 0-15 6.716-15 15 0 8.284 6.716 15 15 15z"/><path d="M39 47v-2h-2a1 1 0 010-2h2v-9a1 1 0 011-1h4c.118 0 .23.02.336.058a6.001 6.001 0 010 11.884A.998.998 0 0144 45h-3v2h6.077c.51 0 .923.448.923 1s-.413 1-.923 1H41v3a1 1 0 01-2 0v-3h-2.077c-.51 0-.923-.448-.923-1s.413-1 .923-1H39zm4.5-4a4 4 0 100-8H41v8h2.5z"/></g></g></g></svg>