<svg xmlns="http://www.w3.org/2000/svg" xmlns:xlink="http://www.w3.org/1999/xlink" width="64" height="64" viewBox="0 0 64 64"><defs><circle id="pics-simple-sbercredit-ic-pic-sbercredit-a" cx="9.25" cy="9.25" r="8.75"/></defs><g fill="none" fill-rule="evenodd"><path d="M0 0h64v64H0z"/><g transform="translate(10 6)"><path stroke="#278433" stroke-linecap="round" stroke-width="2" d="M29 42.315l3.232 3.081L37.944 39"/><g transform="translate(4.5 4.5)"><mask id="pics-simple-sbercredit-ic-pic-sbercredit-b" fill="#fff"><use xlink:href="#pics-simple-sbercredit-ic-pic-sbercredit-a"/></mask><path d="M3.013 2.223L7.1 5.103 13.121.945M2.323 5.819l4.82 3.28 7.362-5.01a7.425 7.425 0 11-12.181 1.73z" stroke="#278433" stroke-width="2" xmask="url(#pics-simple-sbercredit-ic-pic-sbercredit-b)"/></g><rect width="44" height="52" stroke="#4C6470" stroke-width="2" rx="2"/><path stroke="#4C6470" stroke-linecap="round" stroke-width="2" d="M29 21h9M6 30h32M6 35h18M6 40h10M29 6h9m-9 10h7m-7-5h7"/></g></g></svg>