<svg xmlns="http://www.w3.org/2000/svg" xmlns:xlink="http://www.w3.org/1999/xlink" width="64" height="64" viewBox="0 0 64 64"><defs><circle id="pics-simple-sbercard-ic-pic-sbercard-a" cx="17.5" cy="17.5" r="17.5"/></defs><g fill="none" fill-rule="evenodd"><path d="M0 0h64v64H0z"/><g stroke="#4C6470" stroke-width="2"><path stroke-linecap="round" d="M21.045 45H7a2 2 0 01-2-2V11a2 2 0 012-2h46.595a2 2 0 012 2v14.038"/><path d="M5 15.973h50.595M5 20.973h50.595"/></g><g transform="translate(26 26)"><mask id="pics-simple-sbercard-ic-pic-sbercard-b" fill="#fff"><use xlink:href="#pics-simple-sbercard-ic-pic-sbercard-a"/></mask><g stroke="#278433" stroke-width="2" xmask="url(#pics-simple-sbercard-ic-pic-sbercard-b)"><path d="M4.248 3.657l8.695 6.114L25.753.946"/><path d="M2.781 10.263l10.255 6.965L28.696 6.59a15.69 15.69 0 014.086 10.58c0 8.707-7.072 15.765-15.797 15.765-8.724 0-15.796-7.058-15.796-15.764 0-2.478.572-4.821 1.592-6.907z"/></g></g></g></svg>