<svg xmlns="http://www.w3.org/2000/svg" width="64" height="64" viewBox="0 0 64 64"><g fill="none" fill-rule="evenodd"><path d="M0 0h64v64H0z"/><g stroke="#278433" stroke-linecap="round" stroke-width="2"><path d="M13.704 26.102A23.935 23.935 0 0012 35c0 13.255 10.745 24 24 24s24-10.745 24-24c0-12.572-9.666-22.886-21.972-23.915-.334-.028-.67-.05-1.009-.064M36 55.5v-4M16 35h4"/><path d="M36.021 23.11V35h16.994"/></g><g transform="translate(5 5)"><path stroke="#4C6470" stroke-width="2" d="M4.65 15.083h18.892A2.466 2.466 0 0026 12.62V2.463C26 1.097 24.9 0 23.542 0H2.458A2.466 2.466 0 000 2.463V19l4.65-3.917z"/><circle cx="9" cy="9" r="1" fill="#4C6470"/><circle cx="13" cy="9" r="1" fill="#4C6470"/><circle cx="17" cy="9" r="1" fill="#4C6470"/></g></g></svg>