<svg xmlns="http://www.w3.org/2000/svg" width="64" height="64" viewBox="0 0 64 64"><g fill="none" fill-rule="evenodd"><path d="M0 0h64v64H0z" opacity=".098"/><path stroke="#278433" stroke-linecap="round" stroke-width="2" d="M37 44.09l3.75 3.41L47 40"/><path fill="#278433" fill-rule="nonzero" d="M29.867 31.351v11.166c0 7.3 5.19 13.622 12.133 15.535 6.816-1.879 12.133-8.092 12.133-14.621V31.35L42 27.956l-12.133 3.395zM42 26l14 3.917v13.514c0 7.513-6.055 14.505-13.767 16.509L42 60l-.233-.06C33.91 57.898 28 50.79 28 42.517v-12.6L42 26z"/><g stroke="#4C6470" stroke-linecap="round" stroke-width="2" transform="translate(20 10)"><circle cx="8" cy="8" r="8"/><path d="M0 8h16m-8 8c4-4.444 4-11.556 0-16m0 16C4 11.556 4 4.444 8 0"/></g><g fill="#4C6470" fill-rule="nonzero"><path d="M27.095 53.214c.526 0 .953.4.953.893s-.427.893-.953.893H10.857C9.28 55 8 53.8 8 52.321V7.94C8 6.459 9.28 5 10.857 5h34.286C46.72 5 48 6.46 48 7.939V22.73c0 .493-.426.893-.952.893s-.953-.4-.953-.893V7.939c0-.493-.426-.893-.952-.893H10.857c-.526 0-.952.4-.952.893V52.32c0 .494.426.893.952.893h16.238z"/><path d="M17 46a1 1 0 010-2h7a1 1 0 010 2h-7z"/></g></g></svg>