<svg width="24" height="24" viewBox="0 0 24 24" version="1.1" xmlns="http://www.w3.org/2000/svg"><defs><linearGradient x1="-.202%" y1="50%" x2="100.202%" y2="50%" id="resource-amexcard-amexacard-linearGradient-1"><stop stop-color="#9DD5F6" offset="0%"/><stop stop-color="#98D3F5" offset="7.11%"/><stop stop-color="#89CEF3" offset="15.75%"/><stop stop-color="#70C6EF" offset="25.16%"/><stop stop-color="#4EBBEA" offset="35.14%"/><stop stop-color="#23ADE3" offset="45.46%"/><stop stop-color="#0DA6E0" offset="50%"/><stop stop-color="#4B8ECD" offset="100%"/></linearGradient><linearGradient x1="19.685%" y1="48.964%" x2="251.931%" y2="48.964%" id="resource-amexcard-amexacard-linearGradient-2"><stop stop-color="#FFF" offset="0%"/><stop stop-color="#FFF" stop-opacity=".026" offset="100%"/><stop stop-color="#FFF" offset="100%"/></linearGradient><radialGradient cx="19.057%" cy="25.389%" fx="19.057%" fy="25.389%" r="54.773%" gradientTransform="matrix(.2284 0 0 1 .147 0)" id="resource-amexcard-amexacard-radialGradient-3"><stop stop-color="#9DD5F6" offset="0%"/><stop stop-color="#98D3F5" offset="7.11%"/><stop stop-color="#89CEF3" offset="15.75%"/><stop stop-color="#70C6EF" offset="25.16%"/><stop stop-color="#4EBBEA" offset="35.14%"/><stop stop-color="#23ADE3" offset="45.46%"/><stop stop-color="#0DA6E0" offset="50%"/><stop stop-color="#2E77BC" offset="100%"/></radialGradient></defs><g id="resource-amexcard-◆-[SL]-Symbols" stroke="none" stroke-width="1" fill="none" fill-rule="evenodd"><g id="resource-amexcard-CARD-/-AMEX"><g id="resource-amexcard-ic-logo-amex"><path id="resource-amexcard-bg" opacity=".3" d="M0 0h24v24H0z"/><g id="resource-amexcard-g4176-4" transform="translate(0 5)"><rect id="resource-amexcard-rect4130-5" fill="url(#resource-amexcard-amexacard-linearGradient-1)" x=".07" y=".009" width="23.935" height="14.154" rx="1.107"/><path id="resource-amexcard-rect4140-2" fill="url(#resource-amexcard-amexacard-linearGradient-2)" d="M.196 2.314h23.657v9.035H.196z"/><g id="resource-amexcard-g3030-9" transform="translate(1.171 3.823)"><path id="resource-amexcard-rect4052-6-9" fill="url(#resource-amexcard-amexacard-radialGradient-3)" d="M2.31.671h5.62l.895.944.945-.944h6.976l.75.48.364-.48h1.935l-1.148 2.266 1.148 1.991-1.956.014-.407-.393-.536.368L4.37 4.871l-.574-.294-.76.29-1.94-.008L2.31.671z"/><path d="M2.476.03L.043 5.68h2.913l.36-.9h.827l.36.9h3.206v-.687l.285.687h1.66l.284-.702v.702h6.667l.81-.878.76.878 3.423.008-2.44-2.818 2.44-2.84h-3.371l-.789.863-.735-.863H9.45l-.623 1.458L8.19.03H5.284v.664L4.96.03H2.476zm.563.802h1.419l1.614 3.833V.832h1.554L8.872 3.58 10.021.83h1.547v4.055h-.939l-.007-3.176-1.374 3.176h-.841L7.025 1.71v3.176H5.088l-.367-.908H2.739l-.368.908H1.335L3.039.832zm9.392 0h3.829l1.17 1.328L18.64.832h1.17L18.032 2.87l1.78 2.016h-1.224l-1.171-1.344L16.2 4.886h-3.77V.832zm-8.701.687l-.654 1.619h1.307l-.653-1.62zm9.647.153v.74h2.087v.825h-2.087v.81h2.342l1.089-1.192-1.044-1.183h-2.387z" id="resource-amexcard-path3902-0-8" fill="#FFF"/></g></g></g></g></g></svg>