<svg xmlns="http://www.w3.org/2000/svg" width="24" height="24" viewBox="0 0 24 24"><g fill="none" fill-rule="evenodd"><path d="M0 0h24v24H0z"/><path stroke="#4C6470" stroke-linecap="round" stroke-width="2" d="M20 16h2a1 1 0 001-1v-2.79a1 1 0 00-.686-.95l-3.471-1.147a1 1 0 01-.534-.42L16.294 6.47a1 1 0 00-.848-.47H4.566a1 1 0 00-.857.484l-2.566 4.264a1 1 0 00-.143.516V15a1 1 0 001 1h1.956"/><circle cx="6" cy="16" r="2" stroke="#4C6470" stroke-width="2"/><circle cx="18" cy="16" r="2" stroke="#4C6470" stroke-width="2"/><path stroke="#4C6470" stroke-linecap="round" stroke-width="2" d="M6.5 10h7"/><path stroke="#4C6470" stroke-linecap="square" stroke-width="2" d="M8.5 16h7"/></g></svg>