<svg xmlns="http://www.w3.org/2000/svg" width="24" height="24" viewBox="0 0 24 24"><g fill="none" fill-rule="evenodd"><path d="M0 0h24v24H0z"/><g stroke="#FFF" stroke-width="2"><path d="M11.95 15C14.908 15 18 10.648 18 6.91 18 3.65 15.296 1 11.95 1 8.623 1 6 3.612 6 6.89 6 10.662 9.013 15 11.95 15z"/><path stroke-linecap="round" d="M14 5s.667 1 .667 2S14 9 14 9"/><path d="M14.614 16c.261.317.386.671.386 1h1v-1h-1.386zm-5.057 0H8l.986 1.164c.04-.232.19-.653.498-1.07A2.87 2.87 0 019.557 16zm0 0c.509-.63 1.257-1 2.382-1 1.346 0 2.219.444 2.675 1H9.557z"/><path stroke-linecap="round" d="M11.99 18s-.49.14-.49 1 1 2.056 1 3-.51 1-.51 1"/></g></g></svg>