<svg xmlns="http://www.w3.org/2000/svg" width="24" height="24" viewBox="0 0 24 24"><g fill="none" fill-rule="evenodd"><path d="M0 0h24v24H0z"/><g transform="translate(1 1)"><circle cx="11" cy="11" r="10.75" stroke="#FFF" stroke-width=".5"/><path fill="#FFF" d="M12.863 7.877c-.917 3.208-1.86 4.38-2.777 6.672 4.882 1.384 9.355-.924 10.065-5.654.711-4.73-3.42-7.37-4.36-7.827C14.338.36 12.734 0 11 0 4.925 0 0 4.925 0 11c0 3.25 1.41 6.172 3.652 8.186-4.837-9.204 4.498-14.373 9.211-11.31z"/><circle cx="11" cy="11" r="3.667" fill="#D3D3D3"/><circle cx="3.667" cy="19.25" r="1.833" fill="#FFF"/></g></g></svg>