<svg xmlns="http://www.w3.org/2000/svg" xmlns:xlink="http://www.w3.org/1999/xlink" width="24" height="24" viewBox="0 0 24 24"><defs><circle id="resource-ueccard-ueccard-a" cx="11" cy="11" r="11"/></defs><g fill="none" fill-rule="evenodd"><path d="M0 0h24v24H0z"/><g transform="translate(1 1)"><use fill="#FFF" xlink:href="#resource-ueccard-ueccard-a"/><circle cx="11" cy="11" r="10.75" stroke="#AFC7D4" stroke-width=".5"/><path fill="#6090A9" d="M12.863 7.877c-.917 3.208-1.86 4.38-2.777 6.672 4.882 1.384 9.355-.924 10.065-5.654.711-4.73-3.42-7.37-4.36-7.827C14.338.36 12.734 0 11 0 4.925 0 0 4.925 0 11c0 3.25 1.41 6.172 3.652 8.186-4.837-9.204 4.498-14.373 9.211-11.31z"/><circle cx="11" cy="11" r="3.667" fill="#DA5E50"/><circle cx="3.667" cy="19.25" r="1.833" fill="#6090A9"/></g></g></svg>