<svg xmlns="http://www.w3.org/2000/svg" width="24" height="24" viewBox="0 0 24 24"><g fill="none" fill-rule="evenodd"><path d="M0 0h24v24H0z" opacity=".5"/><path fill="#3C5A99" d="M20.007 21a.994.994 0 00.993-.993V3.993A.993.993 0 0020.007 3H3.993A.993.993 0 003 3.993v16.014c0 .548.445.993.993.993h16.014z"/><path fill="#FFF" d="M15.42 21v-6.97h2.34l.35-2.717h-2.69V9.579c0-.787.218-1.323 1.346-1.323h1.439v-2.43a19.252 19.252 0 00-2.097-.107c-2.074 0-3.494 1.266-3.494 3.59v2.004H10.27v2.717h2.345V21h2.806z"/></g></svg>