<svg xmlns="http://www.w3.org/2000/svg" width="24" height="24" viewBox="0 0 24 24"><g fill="none" fill-rule="evenodd"><path d="M0 0h24v24H0z" opacity=".5"/><path fill="#A6A6A6" d="M7.95 12.312c-.613-.32-1.407-.14-1.77.405-.364.545-.159 1.25.455 1.572 1.044.55 2.07.94 3.083 1.168L6.81 18.039a1.059 1.059 0 000 1.624c.504.45 1.326.45 1.828 0l2.914-2.584 2.916 2.584c.504.45 1.324.45 1.83 0a1.06 1.06 0 000-1.624l-2.85-2.53a8.73 8.73 0 003.03-1.288c.571-.377.694-1.095.267-1.603-.425-.507-1.231-.614-1.805-.237-1.018.67-2.064 1.002-3.139 1.015a1.461 1.461 0 00-.104-.004l-.004.458h-.003l.003-.454c-1.156-.006-2.405-.377-3.743-1.084zm6.953-7.972a4.457 4.457 0 011.41 3.239c0 1.262-.54 2.407-1.41 3.236a4.934 4.934 0 01-3.403 1.339 4.926 4.926 0 01-3.403-1.339c-.87-.83-1.41-1.974-1.41-3.236 0-1.266.54-2.41 1.41-3.239A4.915 4.915 0 0111.5 3c1.33 0 2.53.51 3.403 1.34zM12.96 6.19a2.112 2.112 0 00-1.458-.575c-.57 0-1.085.22-1.458.574a1.907 1.907 0 00-.605 1.39c0 .54.23 1.03.605 1.386.373.353.888.573 1.458.573.568 0 1.084-.22 1.458-.573.372-.356.604-.847.604-1.387 0-.542-.232-1.034-.604-1.389z"/></g></svg>