<svg xmlns="http://www.w3.org/2000/svg" width="24" height="24" viewBox="0 0 24 24"><g fill="none" fill-rule="evenodd"><path d="M0 0h24v24H0z" opacity=".5"/><path fill="#4D6D8F" d="M5.774 3h12.452A2.774 2.774 0 0121 5.774v12.452A2.774 2.774 0 0118.226 21H5.774A2.774 2.774 0 013 18.226V5.774A2.774 2.774 0 015.774 3"/><path fill="#FFF" d="M16.077 12.15s1.556-2.194 1.71-2.915c.052-.258-.062-.402-.33-.402h-1.349c-.309 0-.422.134-.515.33 0 0-.73 1.554-1.617 2.534-.285.316-.43.412-.587.412-.127 0-.185-.106-.185-.392V9.214c0-.35-.042-.453-.33-.453h-2.163c-.165 0-.268.096-.268.227 0 .33.505.404.505 1.298v1.843c0 .371-.02.515-.196.515-.463 0-1.566-1.596-2.184-3.41-.123-.37-.257-.473-.607-.473H6.61c-.195 0-.34.134-.34.33 0 .36.423 2.029 2.081 4.264 1.113 1.504 2.575 2.318 3.894 2.318.803 0 .999-.134.999-.474v-1.154c0-.288.113-.412.278-.412.185 0 .512.06 1.277.814.907.865.968 1.226 1.463 1.226h1.514c.154 0 .299-.072.299-.33 0-.34-.443-.948-1.123-1.669-.278-.37-.731-.772-.876-.958-.206-.216-.144-.34 0-.566"/></g></svg>