<svg xmlns="http://www.w3.org/2000/svg" width="24" height="24" viewBox="0 0 24 24"><g fill="none" fill-rule="evenodd"><path d="M0 0h24v24H0z" opacity=".5"/><path fill="#FFF" d="M5 7h15v10H5z"/><path fill="#D3D3D3" d="M8.266 8l7.27 4.906.999-.548z"/><path fill="#E52D27" d="M12.005 4s5.038 0 8.397.243c.469.056 1.492.06 2.404 1.016.72.729.954 2.383.954 2.383s.24 1.942.24 3.884v1.82c0 1.943-.24 3.885-.24 3.885s-.234 1.654-.954 2.382c-.912.956-1.935.96-2.404 1.017-3.359.243-8.402.25-8.402.25s-6.24-.057-8.16-.241c-.534-.1-1.733-.07-2.646-1.026-.72-.728-.954-2.382-.954-2.382S0 15.289 0 13.347v-1.821c0-1.942.24-3.884.24-3.884s.234-1.654.954-2.383c.913-.956 1.935-.96 2.404-1.016C6.957 4 11.995 4 11.995 4h.01zM9.556 15.577l6.438-3.384L9.556 8.81v6.767z"/></g></svg>