<svg xmlns="http://www.w3.org/2000/svg" xmlns:xlink="http://www.w3.org/1999/xlink" width="36" height="36" viewBox="0 0 36 36">
    <defs>
        <radialGradient id="nihyit3raa" cx="108.503%" cy="104.182%" r="190.058%" fx="108.503%" fy="104.182%">
            <stop offset="0%" stop-color="#18FFF0"/>
            <stop offset="29.958%" stop-color="#57C4FF"/>
            <stop offset="100%" stop-color="#D8C2FF"/>
        </radialGradient>
        <linearGradient id="jyxrcr3g3c" x1="19.172%" x2="-18.285%" y1="-32.087%" y2="57.767%">
            <stop offset="0%" stop-color="#FFF"/>
            <stop offset="100%" stop-color="#FFF" stop-opacity=".01"/>
        </linearGradient>
        <path id="egf494jh7b" d="M9.333 0h9.334C23.82 0 28 4.179 28 9.333v9.334C28 23.82 23.821 28 18.667 28H9.333C4.18 28 0 23.821 0 18.667V9.333"/>
    </defs>
    <g fill="none" fill-rule="evenodd" transform="translate(4 4)">
        <rect width="28" height="28" fill="url(#nihyit3raa)" fill-rule="nonzero" rx="10"/>
        <mask id="ek8stc59sd" fill="#fff">
            <use xlink:href="#egf494jh7b"/>
        </mask>
        <path fill="url(#jyxrcr3g3c)" d="M25.667 -1.095L0.933 18.972 -2.8 -2.8z" mask="url(#ek8stc59sd)" opacity=".4"/>
        <path fill="#FFF" fill-rule="nonzero" d="M8.926 15.085v-.8h1.026c-.014-.178-.02-.362-.02-.554 0-.184.006-.355.02-.533H8.926v-.8h1.135c.458-2.249 2.106-3.596 4.375-3.596 2.167 0 3.753 1.32 4.013 3.083H16.76c-.266-.922-1.134-1.606-2.324-1.606-1.271 0-2.235.786-2.611 2.12h3.568v.799h-3.719c-.013.17-.02.349-.02.533 0 .192.007.376.027.554h3.712v.8h-3.568c.376 1.333 1.333 2.105 2.618 2.105 1.203 0 2.01-.567 2.304-1.415h1.702c-.383 1.757-1.887 2.892-4.013 2.892-2.276 0-3.917-1.333-4.375-3.582H8.926z"/>
    </g>
</svg>
