<svg xmlns="http://www.w3.org/2000/svg" xmlns:xlink="http://www.w3.org/1999/xlink" width="36" height="36" viewBox="0 0 36 36">
    <defs>
        <radialGradient id="h7b5j5914a" cx="-27.564%" cy="-31.283%" r="183.052%" fx="-27.564%" fy="-31.283%">
            <stop offset="0%" stop-color="#0ED45D"/>
            <stop offset="37.946%" stop-color="#12D35C"/>
            <stop offset="77.233%" stop-color="#2BDCD2"/>
            <stop offset="100%" stop-color="#E7FFFB"/>
        </radialGradient>
        <linearGradient id="kbvde3xn1c" x1="19.172%" x2="-18.285%" y1="-32.087%" y2="57.767%">
            <stop offset="0%" stop-color="#FFF"/>
            <stop offset="100%" stop-color="#FFF" stop-opacity=".01"/>
        </linearGradient>
        <path id="2sp07t2brb" d="M9.333 0h9.334C23.82 0 28 4.179 28 9.333v9.334C28 23.82 23.821 28 18.667 28H9.333C4.18 28 0 23.821 0 18.667V9.333"/>
    </defs>
    <g fill="none" fill-rule="evenodd" transform="translate(4 4)">
        <rect width="28" height="28" fill="url(#h7b5j5914a)" fill-rule="nonzero" rx="10"/>
        <mask id="kqruskk8vd" fill="#fff">
            <use xlink:href="#2sp07t2brb"/>
        </mask>
        <path fill="url(#kbvde3xn1c)" d="M25.667 -1.095L0.933 18.972 -2.8 -2.8z" mask="url(#kqruskk8vd)" opacity=".4"/>
        <path fill="#FFF" fill-rule="nonzero" d="M10.024 16.356v.8h1.326v1.45h1.723v-1.45h2.666v-.8h-2.666v-1.271h1.75c1.927 0 3.226-1.286 3.226-3.05 0-1.777-1.25-3.069-3.151-3.069H11.35v5.305h-1.326v.814h1.326v1.271h-1.326zm3.049-5.981h1.326c1.258 0 1.893.642 1.893 1.668 0 1.039-.642 1.681-1.9 1.681h-1.32v-3.35z"/>
    </g>
</svg>
