<svg xmlns="http://www.w3.org/2000/svg" width="36" height="36" viewBox="0 0 36 36">
    <g fill="none" fill-rule="evenodd">
        <circle cx="18" cy="18" r="5" stroke="#FFF" stroke-width="2"/>
        <path fill="#FFF" fill-rule="nonzero" d="M17 6v2c0 .552.448 1 1 1s1-.448 1-1V6c0-.552-.448-1-1-1s-1 .448-1 1zm0 22v2c0 .552.448 1 1 1s1-.448 1-1v-2c0-.552-.448-1-1-1s-1 .448-1 1zM8.513 9.927l1.42 1.42c.391.391 1.024.391 1.414 0 .39-.391.391-1.024 0-1.414l-1.42-1.42c-.391-.391-1.024-.391-1.414 0-.39.391-.391 1.024 0 1.414zm16.14 16.14l1.42 1.42c.391.391 1.024.391 1.414 0 .39-.391.391-1.024 0-1.414l-1.42-1.42c-.391-.391-1.024-.391-1.414 0-.39.391-.391 1.024 0 1.414zM6 19h2c.552 0 1-.448 1-1s-.448-1-1-1H6c-.552 0-1 .448-1 1s.448 1 1 1zm22 0h2c.552 0 1-.448 1-1s-.448-1-1-1h-2c-.552 0-1 .448-1 1s.448 1 1 1zM9.927 27.487l1.42-1.42c.391-.391.391-1.024 0-1.414-.391-.39-1.024-.391-1.414 0l-1.42 1.42c-.391.391-.391 1.024 0 1.414.391.39 1.024.391 1.414 0zm16.14-16.14l1.42-1.42c.391-.391.391-1.024 0-1.414-.391-.39-1.024-.391-1.414 0l-1.42 1.42c-.391.391-.391 1.024 0 1.414.391.39 1.024.391 1.414 0z"/>
    </g>
</svg>
