<?xml version="1.0" encoding="UTF-8"?>
<svg width="154px" height="24px" viewBox="0 0 154 24" version="1.1" xmlns="http://www.w3.org/2000/svg" xmlns:xlink="http://www.w3.org/1999/xlink">
    <title>Logo</title>
    <defs>
        <linearGradient x1="53.1839317%" y1="96.1746469%" x2="34.4763919%" y2="6.48835076%" id="linearGradient-1">
            <stop stop-color="#F2E913" offset="14.44%"></stop>
            <stop stop-color="#E7E518" offset="30.37%"></stop>
            <stop stop-color="#CADB26" offset="58.23%"></stop>
            <stop stop-color="#A3CD39" offset="89.1%"></stop>
        </linearGradient>
        <linearGradient x1="8.72117%" y1="53.0960071%" x2="87.794354%" y2="34.9273129%" id="linearGradient-2">
            <stop stop-color="#0FA8E0" offset="5.92%"></stop>
            <stop stop-color="#0099F9" offset="53.85%"></stop>
            <stop stop-color="#0291EB" offset="92.34%"></stop>
        </linearGradient>
        <linearGradient x1="-2.01360504%" y1="52.6058274%" x2="92.1481144%" y2="39.774688%" id="linearGradient-3">
            <stop stop-color="#A3CD39" offset="12.26%"></stop>
            <stop stop-color="#86C339" offset="28.46%"></stop>
            <stop stop-color="#21A038" offset="86.93%"></stop>
        </linearGradient>
        <linearGradient x1="-7.6948253%" y1="46.6639143%" x2="86.7324193%" y2="63.6028477%" id="linearGradient-4">
            <stop stop-color="#0291EB" offset="5.66%"></stop>
            <stop stop-color="#0C8ACB" offset="79%"></stop>
        </linearGradient>
        <linearGradient x1="7.81437653%" y1="45.6169792%" x2="93.7396282%" y2="66.5868698%" id="linearGradient-5">
            <stop stop-color="#F2E913" offset="13.24%"></stop>
            <stop stop-color="#EBE716" offset="29.77%"></stop>
            <stop stop-color="#D9E01F" offset="53.06%"></stop>
            <stop stop-color="#BBD62D" offset="80.23%"></stop>
            <stop stop-color="#A3CD39" offset="98.29%"></stop>
        </linearGradient>
        <linearGradient x1="44.2127844%" y1="103.772963%" x2="66.5790697%" y2="14.6963499%" id="linearGradient-6">
            <stop stop-color="#A3CD39" offset="6.98%"></stop>
            <stop stop-color="#81C55F" offset="25.99%"></stop>
            <stop stop-color="#0FA8E0" offset="92.16%"></stop>
        </linearGradient>
    </defs>
    <g id="Logo" stroke="none" stroke-width="1" fill="none" fill-rule="evenodd">
        <g id="New-logo-Copy-4" fill-rule="nonzero">
            <g id="logo-sign">
                <path d="M21.4964667,4.66260667 C22.0627999,5.39478667 22.5471334,6.19482 22.9344,7.0476 L12.0008,15.1064 L7.43246666,12.2426667 L7.43246666,8.79753334 L12.0008,11.6612667 L21.4964667,4.66260667 Z" id="Path" fill="#21A038"></path>
                <path d="M2.77228001,11.9996 C2.77228001,11.8450666 2.77606001,11.6914666 2.78359334,11.5388 L0.0150773333,11.4002667 C0.00565422667,11.5990666 0,11.7988666 0,11.9996 C0,15.3128 1.3428,18.3132 3.51482666,20.4852667 L5.47766666,18.5223333 C3.80788666,16.8506667 2.77228001,14.5438666 2.77228001,11.9996 Z" id="Path" fill="url(#linearGradient-1)"></path>
                <path d="M11.9996667,2.77137334 C12.1542667,2.77137334 12.3078,2.77702666 12.4604667,2.78456666 L12.5990667,0.0150774667 C12.4002667,0.00565428 12.2004667,0 11.9996667,0 C8.68660003,0 5.68622666,1.34280667 3.5142,3.51486667 L5.47703333,5.47771999 C7.14866666,3.80604667 9.45546669,2.77137334 11.9996667,2.77137334 Z" id="Path" fill="url(#linearGradient-2)"></path>
                <path d="M12.0001334,21.2277333 C11.8456,21.2277333 11.692,21.224 11.5393334,21.2164 L11.4008,23.9849333 C11.5996,23.9944001 11.7994,24 12.0001334,24 C15.3132667,24 18.3136,22.6572 20.4856666,20.4852 L18.5228,18.5223333 C16.8511334,20.1921333 14.5443333,21.2277333 12.0001334,21.2277333 Z" id="Path" fill="url(#linearGradient-3)"></path>
                <path d="M17.2035333,4.38180667 L19.5376666,2.66206001 C17.4777333,0.996973337 14.8562667,0 12.001,0 L12.001,2.77231999 C13.93,2.77137334 15.7212667,3.36691999 17.2035333,4.38180667 Z" id="Path" fill="url(#linearGradient-4)"></path>
                <path d="M24.0000667,11.9996 C24.0000667,11.2654666 23.9340667,10.5474 23.8078001,9.84919997 L21.2249333,11.7526666 C21.2268,11.8346667 21.2286667,11.9166 21.2286667,11.9986 C21.2286667,14.7078 20.0545334,17.1484 18.1887333,18.838 L20.0517333,20.897 C22.4763334,18.7023333 24.0000667,15.5285333 24.0000667,11.9996 Z" id="Path" fill="#21A038"></path>
                <path d="M12.001,21.2277333 C9.29186666,21.2277333 6.85120001,20.0536 5.16165334,18.1878 L3.10270001,20.0507333 C5.29828666,22.4763334 8.472,24 12.001,24 L12.001,21.2277333 Z" id="Path" fill="url(#linearGradient-5)"></path>
                <path d="M5.81218666,5.16017333 L3.94923334,3.10120001 C1.52372,5.29681334 0,8.47053334 0,11.9996 L2.77228001,11.9996 C2.77322666,9.28946666 3.94640666,6.84973334 5.81218666,5.16017333 Z" id="Path" fill="url(#linearGradient-6)"></path>
            </g>
        </g>
        <g id="Sberbank_logofullText_2" transform="translate(30.000000, 4.000000)" fill="#21A038">
            <g id="Group-2" transform="translate(0.966032, 0.635632)">
                <polygon id="Fill-1" points="37.4936216 2.55846486 40.7111351 0.187221622 29.9433514 0.187221622 29.9433514 14.4287351 40.7111351 14.4287351 40.7111351 12.0574919 33.0162162 12.0574919 33.0162162 8.41143784 39.5796757 8.41143784 39.5796757 6.04019459 33.0162162 6.04019459 33.0162162 2.55846486"></polygon>
                <path d="M21.4966919,12.0574054 L18.2921514,12.0574054 L18.2921514,8.10994595 L21.4966919,8.10994595 C23.4471784,8.10994595 24.3555027,8.77005405 24.3555027,10.0837838 C24.3555027,11.4256216 23.3935568,12.0574054 21.4966919,12.0574054 M22.0316108,5.73848649 L18.2921514,5.73848649 L18.2921514,2.55837838 L23.8292324,2.55837838 L27.0467459,0.187351351 L15.2192865,0.187351351 L15.2192865,14.4286486 L21.6355027,14.4286486 C25.2344216,14.4286486 27.2984216,12.7981622 27.2984216,9.95491892 C27.2984216,7.236 25.4279351,5.73848649 22.0316108,5.73848649" id="Fill-2"></path>
                <path d="M49.3691459,8.02339459 L46.6450378,8.02339459 L46.6450378,2.55852973 L49.3691459,2.55852973 C51.3380108,2.55852973 52.4223351,3.52890811 52.4223351,5.29085405 C52.4223351,7.05301622 51.3380108,8.02339459 49.3691459,8.02339459 M49.4348757,0.187502703 L43.572173,0.187502703 L43.572173,14.4288 L46.6450378,14.4288 L46.6450378,10.3946378 L49.4348757,10.3946378 C53.1760649,10.3946378 55.4999568,8.42771892 55.4999568,5.28393514 C55.4999568,2.14036757 53.1760649,0.187502703 49.4348757,0.187502703" id="Fill-6"></path>
                <path d="M10.3768649,11.3450811 C9.58875676,11.7798919 8.67135135,12.0097297 7.72389189,12.0097297 C4.95351351,12.0097297 2.9427027,10.0322162 2.9427027,7.30767568 C2.9427027,4.58335135 4.95351351,2.60562162 7.72389189,2.60562162 C8.77210811,2.60562162 9.71135135,2.90032432 10.5189189,3.48021622 L12.723027,1.856 L12.5775135,1.728 C11.2903784,0.597621622 9.57102703,5.32907052e-15 7.60518919,5.32907052e-15 C5.47243243,5.32907052e-15 3.53708108,0.719135135 2.15524324,2.02508108 C0.765405405,3.33859459 3.01092484e-13,5.18702703 3.01092484e-13,7.22918919 C3.01092484e-13,9.28108108 0.762594595,11.1563243 2.14745946,12.5102703 C3.53664865,13.8678919 5.46789189,14.6157838 7.58551351,14.6157838 C9.80064865,14.6157838 11.7351351,13.8434595 13.0464865,12.4382703 C12.0345946,11.6923243 11.0577297,10.9725405 11.0577297,10.9725405 L10.3768649,11.3450811 Z" id="Fill-8"></path>
            </g>
            <g id="Group" transform="translate(61.732605, 0.794919)">
                <path d="M6.27718919,11.8981189 L3.07286486,11.8981189 L3.07286486,7.95065946 L6.27718919,7.95065946 C8.22767568,7.95065946 9.13621622,8.61076757 9.13621622,9.9244973 C9.13621622,11.2663351 8.17427027,11.8981189 6.27718919,11.8981189 M6.81232432,5.5792 L3.07286486,5.5792 L3.07286486,2.39909189 L8.60972973,2.39909189 L11.8272432,0.0280648649 L-3.9346304e-13,0.0280648649 L-3.9346304e-13,14.2693622 L6.41621622,14.2693622 C10.0149189,14.2693622 12.0789189,12.6388757 12.0789189,9.79563243 C12.0789189,7.07671351 10.2086486,5.5792 6.81232432,5.5792" id="Fill-4"></path>
                <polygon id="Fill-16" points="49.6446054 14.243027 46.5295784 14.243027 46.5295784 6.21724894e-15 49.6446054 6.21724894e-15 49.6446054 5.98205405 51.3414703 5.98205405 55.9194162 6.21724894e-15 59.4517405 6.21724894e-15 54.0190919 6.77556757 60.3267676 14.243027 56.1918486 14.243027 51.5566054 8.64108108 49.6446054 8.64108108"></polygon>
                <path d="M22.7210378,8.89398919 L20.5002811,3.40274595 L18.2594162,8.89398919 L22.7210378,8.89398919 Z M23.7508757,11.4578811 L17.2096865,11.4578811 L16.0994162,14.2036108 L12.8086054,14.2036108 L18.9459027,0.0717189189 L22.2367135,0.0717189189 L28.2730378,14.2036108 L24.8609297,14.2036108 L23.7508757,11.4578811 Z" id="Fill-18"></path>
                <polygon id="Fill-20" points="33.1642378 0.0716756757 33.1642378 5.96681081 39.5640216 5.96681081 39.5640216 0.0716756757 42.7538595 0.0716756757 42.7538595 14.2035676 39.5640216 14.2035676 39.5640216 8.63145946 33.1642378 8.63145946 33.1642378 14.2035676 29.9744 14.2035676 29.9744 0.0716756757"></polygon>
            </g>
        </g>
    </g>
</svg>