<svg xmlns="http://www.w3.org/2000/svg" width="32" height="32" viewBox="0 0 32 32">
    <g fill="none" fill-rule="evenodd">
        <g>
            <g>
                <g>
                    <path d="M0 0H32V32H0z" opacity=".1" transform="translate(-359 -24) translate(23 16) translate(336 8) matrix(-1 0 0 1 32 0)"/>
                    <g fill="#000">
                        <path d="M10 0c5.523 0 10 4.477 10 10 0 2.408-.851 4.618-2.27 6.344.053.033.102.074.149.12L21.414 20c.39.39.39 1.024 0 1.414-.39.39-1.023.39-1.414 0l-3.536-3.535c-.046-.047-.087-.096-.122-.148C14.618 19.149 12.408 20 10 20 4.477 20 0 15.523 0 10S4.477 0 10 0zm0 2c-4.418 0-8 3.582-8 8s3.582 8 8 8 8-3.582 8-8-3.582-8-8-8z" transform="translate(-359 -24) translate(23 16) translate(336 8) translate(5 5)"/>
                    </g>
                </g>
            </g>
        </g>
    </g>
</svg>
