<?xml version="1.0" encoding="UTF-8"?>
<svg width="150px" height="34px" viewBox="0 0 150 34" version="1.1" xmlns="http://www.w3.org/2000/svg" xmlns:xlink="http://www.w3.org/1999/xlink">
    <title>Logo</title>
    <defs>
        <linearGradient x1="53.1839317%" y1="96.1746469%" x2="34.4763919%" y2="6.48835076%" id="linearGradient-1">
            <stop stop-color="#F2E913" offset="14.44%"></stop>
            <stop stop-color="#E7E518" offset="30.37%"></stop>
            <stop stop-color="#CADB26" offset="58.23%"></stop>
            <stop stop-color="#A3CD39" offset="89.1%"></stop>
        </linearGradient>
        <linearGradient x1="8.72117%" y1="53.0960071%" x2="87.794354%" y2="34.9273129%" id="linearGradient-2">
            <stop stop-color="#0FA8E0" offset="5.92%"></stop>
            <stop stop-color="#0099F9" offset="53.85%"></stop>
            <stop stop-color="#0291EB" offset="92.34%"></stop>
        </linearGradient>
        <linearGradient x1="-2.01360504%" y1="52.6058274%" x2="92.1481144%" y2="39.774688%" id="linearGradient-3">
            <stop stop-color="#A3CD39" offset="12.26%"></stop>
            <stop stop-color="#86C339" offset="28.46%"></stop>
            <stop stop-color="#21A038" offset="86.93%"></stop>
        </linearGradient>
        <linearGradient x1="-7.6948253%" y1="46.6639143%" x2="86.7324193%" y2="63.6028477%" id="linearGradient-4">
            <stop stop-color="#0291EB" offset="5.66%"></stop>
            <stop stop-color="#0C8ACB" offset="79%"></stop>
        </linearGradient>
        <linearGradient x1="7.81437653%" y1="45.6169792%" x2="93.7396282%" y2="66.5868698%" id="linearGradient-5">
            <stop stop-color="#F2E913" offset="13.24%"></stop>
            <stop stop-color="#EBE716" offset="29.77%"></stop>
            <stop stop-color="#D9E01F" offset="53.06%"></stop>
            <stop stop-color="#BBD62D" offset="80.23%"></stop>
            <stop stop-color="#A3CD39" offset="98.29%"></stop>
        </linearGradient>
        <linearGradient x1="44.2127844%" y1="103.772963%" x2="66.5790697%" y2="14.6963499%" id="linearGradient-6">
            <stop stop-color="#A3CD39" offset="6.98%"></stop>
            <stop stop-color="#81C55F" offset="25.99%"></stop>
            <stop stop-color="#0FA8E0" offset="92.16%"></stop>
        </linearGradient>
    </defs>
    <g id="Logo" stroke="none" stroke-width="1" fill="none" fill-rule="evenodd">
        <g id="New-logo-Copy-3" fill-rule="nonzero">
            <g id="Group" transform="translate(29.872877, 4.379210)" fill="#21A038">
                <polygon id="Path" points="37.023916 2.49701023 40.146228 0.195144497 29.6944566 0.195144497 29.6944566 14.0168305 40.146228 14.0168305 40.146228 11.7149648 32.6782789 11.7149648 32.6782789 8.17718392 39.0467041 8.17718392 39.0467041 5.87531819 32.6782789 5.87531819 32.6782789 2.49701023"></polygon>
                <path d="M21.8068419,5.58155228 L18.1788328,5.58155228 L18.1788328,2.4949119 L23.9723163,2.4949119 L27.0946283,0.186751185 L15.1971089,0.186751185 L15.1971089,14.0063389 L21.4228479,14.0063389 C24.9165639,14.0063389 26.9183687,12.4241996 26.9183687,9.66489842 C26.9183687,7.02730022 25.1033151,5.57315897 21.8068419,5.57315897 M21.2885549,11.7065715 L18.1788328,11.7065715 L18.1788328,7.88341801 L21.2885549,7.88341801 C23.17705,7.88341801 24.0625444,8.51291639 24.0625444,9.79919141 C24.0625444,11.0854664 23.1287885,11.7149648 21.2885549,11.7149648" id="Shape"></path>
                <path d="M48.6108828,0.195144497 L42.9223158,0.195144497 L42.9223158,14.0147322 L45.9145314,14.0147322 L45.9145314,10.1013506 L48.6213745,10.1013506 C52.2535801,10.1013506 54.5092826,8.19187222 54.5092826,5.14090342 C54.5092826,2.08993461 52.2535801,0.195144497 48.6213745,0.195144497 M48.5584246,7.7994849 L45.9145314,7.7994849 L45.9145314,2.4949119 L48.5584246,2.4949119 C50.4700014,2.4949119 51.5212637,3.43706114 51.5212637,5.1471984 C51.5212637,6.85733566 50.4720997,7.7994849 48.5584246,7.7994849" id="Shape"></path>
                <path d="M10.0771887,11.0225166 C9.28708095,11.4512968 8.40148406,11.6735982 7.50254036,11.6688016 C4.81458228,11.6688016 2.86313731,9.74883154 2.86313731,7.10493835 C2.86313731,4.46104517 4.81458228,2.54107512 7.50254036,2.54107512 C8.47337848,2.52371005 9.42423857,2.81786629 10.2156784,3.38040629 L12.3538745,1.80246369 L12.2132865,1.67866234 C10.9647814,0.581236835 9.2945124,1.19276133e-14 7.38713232,1.19276133e-14 C5.31818099,1.19276133e-14 3.44017749,0.698743199 2.09934595,1.96613327 C0.728455092,3.28496537 -0.0317643398,5.11481354 0.00101802279,7.01680858 C-0.0282871666,8.93677867 0.723772185,10.7862539 2.08465765,12.1409254 C3.43178418,13.4586753 5.30768935,14.1846968 7.36195239,14.1846968 C9.51273851,14.1846968 11.3886437,13.4355937 12.6623287,12.0716806 L10.731867,10.6490142 L10.0771887,11.0225166 Z" id="Path"></path>
            </g>
            <g id="Group-2" transform="translate(90.630980, 4.547077)" fill="#21A038">
                <path d="M6.60973296,5.41368605 L2.99221562,5.41368605 L2.99221562,2.32704567 L10.7917005,2.32704567 L10.7917005,0.0188849513 L-3.578284e-14,0.0188849513 L-3.578284e-14,13.8384727 L6.22573895,13.8384727 C9.71945495,13.8384727 11.7212598,12.2563334 11.7212598,9.49703219 C11.7212598,6.85943399 9.90620613,5.40529273 6.60973296,5.40529273 M6.09144597,11.5387053 L2.99221562,11.5387053 L2.99221562,7.71555178 L6.10193761,7.71555178 C7.99043274,7.71555178 8.87592712,8.34505016 8.87592712,9.63132518 C8.87592712,10.9176002 7.9421712,11.5470986 6.10193761,11.5470986" id="Shape"></path>
                <polygon id="Path" points="48.2888205 13.821686 45.26513 13.821686 45.26513 1.19276133e-14 48.2888205 1.19276133e-14 48.2888205 5.80607337 49.936008 5.80607337 54.3781682 1.19276133e-14 57.806836 1.19276133e-14 52.5337379 6.57615972 58.6545605 13.821686 54.6425575 13.821686 50.1437424 8.38701672 48.2888205 8.38701672"></polygon>
                <path d="M23.3690781,11.1190397 L17.0216361,11.1190397 L15.9430956,13.7839161 L12.7494405,13.7839161 L18.7065935,0.0692448215 L21.9002486,0.0692448215 L27.7524851,13.7839161 L24.4476187,13.7839161 L23.3690781,11.1190397 Z M22.370274,8.63042276 L20.2152912,3.30066983 L18.0393252,8.63042276 L22.370274,8.63042276 Z" id="Shape"></path>
                <polygon id="Path" points="32.9248635 0.0692448215 32.9248635 5.79138507 39.1359141 5.79138507 39.1359141 0.0692448215 42.2309478 0.0692448215 42.2309478 13.7839161 39.1359141 13.7839161 39.1359141 8.37652508 32.9248635 8.37652508 32.9248635 13.7839161 29.8277315 13.7839161 29.8277315 0.0692448215"></polygon>
            </g>
            <g id="Group-3" transform="translate(29.936845, 22.303128)" fill="#21A038">
                <path d="M5.37801447,0.564450212 C8.68288095,0.579138507 10.7560289,2.60612328 10.7560289,5.86902321 C10.7560289,8.90950037 8.72694584,11.1442196 5.37801447,11.1442196 C2.0290831,11.1442196 0,9.11513651 0,5.83964662 C0,2.79707112 2.02698478,0.564450212 5.37801447,0.564450212 M5.39270277,9.96915597 C7.84564811,9.96915597 9.37952582,8.32196855 9.37952582,5.85433491 C9.37952582,3.53358423 7.98413775,1.75420215 5.36962116,1.73951385 C2.89988919,1.75420215 1.3827981,3.39929124 1.3827981,5.85433491 C1.3827981,8.1750856 2.77818617,9.95446768 5.3948011,9.96915597" id="Shape"></path>
                <polygon id="Path" points="17.3552703 7.8225665 13.4754619 7.8225665 13.4754619 10.9973367 12.2563334 10.9973367 12.2563334 3.65109059 13.4754619 3.65109059 13.4754619 6.72094434 17.3552703 6.72094434 17.3552703 3.65109059 18.5743988 3.65109059 18.5743988 10.9973367 17.3552703 10.9973367"></polygon>
                <path d="M25.4967826,4.73802445 L22.6472533,4.73802445 L22.632565,5.29617968 C22.4416172,10.7770122 21.339995,11.0854664 20.2677494,11.0854664 C20.0687489,11.0884924 19.8702973,11.0637743 19.6781193,11.012025 L19.6781193,9.70266833 C19.79847,9.73114794 19.9216547,9.74593012 20.0453267,9.74673321 C20.7965281,9.74673321 21.3693716,9.53690042 21.5141562,4.66458298 L21.5435328,3.64899226 L26.7159111,3.64899226 L26.7159111,10.99314 L25.4967826,10.99314 L25.4967826,4.73802445 Z" id="Path"></path>
                <path d="M28.7932558,4.20924582 C29.2779695,3.84203843 30.1613656,3.50210931 31.2923643,3.50210931 C33.1808595,3.50210931 34.3034649,4.13160768 34.3034649,6.14810082 L34.3034649,10.9973367 L33.1430896,10.9973367 L33.1430896,9.7383399 C32.7611939,10.5482945 31.821143,11.1064497 30.6607676,11.1064497 C29.2045281,11.1064497 28.2351006,10.32797 28.2351006,8.82766558 C28.2351006,7.21195308 29.3807876,6.74192762 31.3364292,6.74192762 L33.0843364,6.74192762 L33.0843364,6.1543958 C33.0843364,4.89539905 32.3499216,4.5533716 31.2923643,4.5533716 C30.270686,4.52676581 29.3145679,5.05499894 28.7932558,5.93407137 L28.7932558,4.20924582 Z M33.0843364,8.51291639 L33.0843364,7.71974844 L31.3721008,7.71974844 C30.0501542,7.71974844 29.4836057,7.92958123 29.4836057,8.7689124 C29.4836057,9.48863888 29.985106,9.98804092 30.9692218,9.98804092 C32.467428,9.98804092 33.0108949,9.01861342 33.0843364,8.51921138" id="Shape"></path>
                <path d="M36.1625835,10.9973367 L36.1625835,3.65318892 L37.381712,3.65318892 L37.381712,9.10884152 L41.5238113,3.65318892 L42.5960569,3.65318892 L42.5960569,10.9973367 L41.3769284,10.9973367 L41.3769284,5.48712752 L37.3901053,10.8210771 L37.2579106,10.9973367 L36.1625835,10.9973367 Z M41.7000709,1.04366617e-14 C41.7000709,1.46882955 40.5984487,2.08573796 39.4674499,2.08573796 C38.1455033,2.08573796 37.0732578,1.46882955 37.0732578,1.04366617e-14 L38.2483214,1.04366617e-14 C38.2483214,0.719726478 38.6302171,1.13099875 39.4380733,1.13099875 C40.0843584,1.13099875 40.5396955,0.921165959 40.5396955,1.04366617e-14 L41.7000709,1.04366617e-14 Z" id="Shape"></path>
                <polygon id="Path" points="49.6212588 7.8225665 45.7414504 7.8225665 45.7414504 10.9973367 44.5223219 10.9973367 44.5223219 3.65109059 45.7414504 3.65109059 45.7414504 6.72094434 49.6212588 6.72094434 49.6212588 3.65109059 50.8403873 3.65109059 50.8403873 10.9973367 49.6212588 10.9973367"></polygon>
            </g>
            <g id="logo-sign">
                <path d="M20.4859306,4.44342033 C21.0256409,5.14118098 21.4872061,5.90360522 21.8562676,6.71629655 L11.4366496,14.3962572 L7.08307086,11.6671462 L7.08307086,8.38396657 L11.4366496,11.1130775 L20.4859306,4.44342033 Z" id="Path" fill="#21A038"></path>
                <path d="M2.64195679,11.435506 C2.64195679,11.2882372 2.64555909,11.1418578 2.65273829,10.9963679 L0.0143685569,10.864347 C0.00538842486,11.0538015 0,11.244209 0,11.435506 C0,14.5929544 1.27967578,17.4523074 3.34959677,19.5222666 L5.22016484,17.6516095 C3.62888019,16.0585269 2.64195679,13.8601682 2.64195679,11.435506 Z" id="Path" fill="url(#linearGradient-1)"></path>
                <path d="M11.4355695,2.64109274 C11.5829019,2.64109274 11.7292177,2.6464803 11.8747076,2.65366585 L12.0067921,0.014368684 C11.8173376,0.00538847569 11.6269301,0 11.4355695,0 C8.27824817,0 5.41892056,1.27968213 3.34899956,3.3496349 L5.21956127,5.22021566 C6.81261213,3.6271267 9.01097087,2.64109274 11.4355695,2.64109274 Z" id="Path" fill="url(#linearGradient-2)"></path>
                <path d="M11.4360143,20.2298303 C11.2887455,20.2298303 11.1423661,20.2262725 10.9968762,20.2190298 L10.8648552,22.8574159 C11.0543098,22.8664377 11.2447173,22.8717744 11.4360143,22.8717744 C14.5933992,22.8717744 17.4526887,21.5920986 19.5226477,19.522203 L17.6520542,17.6516095 C16.0589717,19.2429132 13.8606129,20.2298303 11.4360143,20.2298303 Z" id="Path" fill="url(#linearGradient-3)"></path>
                <path d="M16.3948055,4.17582057 L18.6192126,2.53691816 C16.6561156,0.950106217 14.1578825,0 11.4368402,0 L11.4368402,2.64199489 C13.2751591,2.64109274 14.9822194,3.2086431 16.3948055,4.17582057 Z" id="Path" fill="url(#linearGradient-4)"></path>
                <path d="M22.871838,11.435506 C22.871838,10.7358838 22.8089406,10.051573 22.6886097,9.38619498 L20.2271619,11.2001808 C20.2289409,11.2783261 20.2307198,11.3564078 20.2307198,11.434553 C20.2307198,14.0163951 19.1117818,16.342264 17.3336919,17.9524369 L19.1091134,19.9146445 C21.4197344,17.8231479 22.871838,14.7985463 22.871838,11.435506 Z" id="Path" fill="#21A038"></path>
                <path d="M11.4368402,20.2298303 C8.85506158,20.2298303 6.5291292,19.1108923 4.91900711,17.3328024 L2.95684394,19.1081603 C5.04921738,21.4197344 8.07373636,22.8717744 11.4368402,22.8717744 L11.4368402,20.2298303 Z" id="Path" fill="url(#linearGradient-5)"></path>
                <path d="M5.53895925,4.91759667 L3.76358224,2.95541445 C1.45209083,5.04781332 0,8.07233864 0,11.435506 L2.64195679,11.435506 C2.64285894,8.8527744 3.76088845,6.52773148 5.53895925,4.91759667 Z" id="Path" fill="url(#linearGradient-6)"></path>
            </g>
        </g>
    </g>
</svg>