<?xml version="1.0" encoding="UTF-8"?>
<svg width="36px" height="36px" viewBox="0 0 36 36" version="1.1" xmlns="http://www.w3.org/2000/svg" xmlns:xlink="http://www.w3.org/1999/xlink">
    <!-- Generator: Sketch 53.2 (72643) - https://sketchapp.com -->
    <title>icons/filled/depo</title>
    <desc>Created with Sketch.</desc>
    <defs>
        <rect id="path-1" x="0" y="0" width="22" height="28" rx="2"></rect>
        <path d="M1,2 C0.44771525,2 0,1.55228475 0,1 C0,0.44771525 0.44771525,0 1,0 L11,0 C11.5522847,0 12,0.44771525 12,1 C12,1.55228475 11.5522847,2 11,2 L1,2 Z M1,7 C0.44771525,7 0,6.55228475 0,6 C0,5.44771525 0.44771525,5 1,5 L11,5 C11.5522847,5 12,5.44771525 12,6 C12,6.55228475 11.5522847,7 11,7 L1,7 Z M1,12 C0.44771525,12 0,11.5522847 0,11 C0,10.4477153 0.44771525,10 1,10 L6,10 C6.55228475,10 7,10.4477153 7,11 C7,11.5522847 6.55228475,12 6,12 L1,12 Z" id="path-3"></path>
    </defs>
    <g id="icons/filled/depo" stroke="none" stroke-width="1" fill="none" fill-rule="evenodd">
        <g id="color/green-fill" transform="translate(7.000000, 4.000000)">
            <mask id="mask-2" fill="white">
                <use xlink:href="#path-1"></use>
            </mask>
            <use id="Mask" fill="#0DA94E" xlink:href="#path-1"></use>
            <g id="color/main/green-fill" mask="url(#mask-2)" fill="#0DA94E" fill-rule="nonzero">
                <g transform="translate(-7.000000, -4.000000)" id="Rectangle">
                    <rect x="0" y="0" width="36" height="36"></rect>
                </g>
            </g>
        </g>
        <g id="ic-insurance-list">
            <g id="Bounding">
                <rect id="bounding" x="0" y="0" width="36" height="36"></rect>
            </g>
            <g id="color/medium-blue-copy" transform="translate(12.000000, 10.000000)">
                <mask id="mask-4" fill="white">
                    <use xlink:href="#path-3"></use>
                </mask>
                <use id="Mask" fill="#FFFFFF" fill-rule="nonzero" xlink:href="#path-3"></use>
                <g id="color/main/white" mask="url(#mask-4)" fill="#FFFFFF" fill-rule="nonzero">
                    <g transform="translate(-12.000000, -10.000000)" id="Rectangle">
                        <rect x="0" y="0" width="36" height="36"></rect>
                    </g>
                </g>
            </g>
        </g>
    </g>
</svg>