<svg xmlns="http://www.w3.org/2000/svg" width="156" height="47" viewBox="0 0 156 47">
    <g fill="none" fill-rule="evenodd">
        <rect width="156" height="46.8" fill="#000" rx="6.5"/>
        <text fill="#FFF" font-family="OpenSans-SemiBold, Open Sans" font-size="9.1" font-weight="500">
            <tspan x="52.65" y="18.45">Загрузить в</tspan>
        </text>
        <text fill="#FFF" font-family="OpenSans-SemiBold, Open Sans" font-size="16.9" font-weight="500">
            <tspan x="52.65" y="34.9">App Store</tspan>
        </text>
        <path fill="#FFF" fill-rule="nonzero" d="M39.18 31.953c-1.065 1.545-2.167 3.081-3.908 3.113-1.713.032-2.262-1.006-4.216-1.006-1.957 0-2.569.974-4.186 1.038-1.68.063-2.958-1.669-4.033-3.207-2.195-3.146-3.87-8.894-1.617-12.773 1.116-1.927 3.115-3.146 5.282-3.178 1.65-.03 3.209 1.103 4.217 1.103 1.01 0 2.901-1.36 4.89-1.16.833.033 3.17.332 4.67 2.51-.118.077-2.789 1.617-2.756 4.827.032 3.835 3.388 5.11 3.427 5.126-.03.09-.536 1.82-1.77 3.607zM31.874 11.67c.921-1.07 2.478-1.867 3.762-1.92.165 1.487-.439 2.976-1.33 4.049-.892 1.07-2.354 1.905-3.788 1.794-.195-1.455.528-2.972 1.356-3.923z"/>
    </g>
</svg>
