<svg xmlns="http://www.w3.org/2000/svg" xmlns:xlink="http://www.w3.org/1999/xlink" width="227" height="34" viewBox="0 0 227 34">
    <defs>
        <path id="logo" d="M10.746 10.194L26.54 1.019C25.895.66 25.19.3 24.486 0l-13.74 7.915-6.107-3.538c-.411.48-.822 1.02-1.233 1.56l7.34 4.257zm19.083-6.656c-.47-.48-.998-.9-1.527-1.32L10.746 12.414 2.349 7.556c-.294.54-.587 1.139-.881 1.739l9.219 5.336L29.829 3.538zM10.746 16.85L.822 11.093c-.176.66-.352 1.26-.47 1.98l10.394 5.996L32.354 6.596a15.32 15.32 0 0 0-1.174-1.559L10.746 16.85zm24.485-.54c0 9.775-7.868 17.69-17.615 17.69C7.927 34 0 26.085 0 16.31c0-.42 0-.78.059-1.199l10.628 6.176L33.235 8.215a17.358 17.358 0 0 1 1.996 8.095z"/>
    </defs>
    <g fill="none" fill-rule="evenodd">
        <g fill="#000014" fill-rule="nonzero">
            <path d="M51 18.77c0-4.687 2.692-7.711 7.627-7.711 2.168 0 3.514.453 4.412.831l-.673 1.74c-1.197-.379-2.02-.681-3.74-.681-2.99 0-5.308 1.588-5.308 5.595 0 4.083 2.468 5.822 5.758 5.822 1.42 0 2.467-.227 3.44-.53l.523 1.74c-1.122.454-2.318.756-4.337.756C53.617 26.408 51 23.383 51 18.77zm21.983 1.74c0-1.815-.747-3.251-2.841-3.251-1.346 0-2.393.453-3.44.983l-.074 1.285c0 3.402 1.046 4.99 3.14 4.99 2.468 0 3.215-2.041 3.215-4.007zm-8.449-.756c0-2.344.449-6.05 1.795-7.259 1.121-1.058 4.262-1.815 7.85-2.495l.375 1.966c-3.216.53-6.057 1.058-6.73 1.739-.598.605-.897 1.966-1.047 2.949.972-.53 2.318-1.059 3.888-1.059 2.767 0 4.487 1.361 4.487 4.84 0 4.082-2.393 5.897-5.533 5.897-3.14 0-5.085-1.966-5.085-6.578zm19.965-.378c0-2.042-.748-3.327-2.393-3.327-1.496 0-2.617 1.134-2.767 3.327h5.16zm-7.478 1.21c0-4.537 2.318-6.2 5.234-6.2 3.216 0 4.562 2.04 4.562 5.746v.756h-7.553c0 3.024 1.72 3.63 3.74 3.63 1.12 0 2.018-.152 3.14-.53l.373 1.663c-1.046.379-2.392.605-3.888.605-3.44.152-5.608-1.21-5.608-5.67zM95.859 20.347c0-2.07-.71-3.986-2.766-3.986-1.135 0-1.986.537-2.554.843v7.358c.284.077 1.135.23 1.844.23 2.483 0 3.476-1.84 3.476-4.445zm-7.447-5.595h2.056v.92c.922-.69 1.774-1.227 3.121-1.227 2.554 0 4.327 1.916 4.327 5.748 0 4.752-2.625 6.362-5.603 6.362-.71 0-1.419-.077-1.916-.154V31h-2.056V14.752h.07zm19.363 5.901c0-1.84-.71-3.295-2.696-3.295-1.276 0-2.27.46-3.262.996l-.071 1.303c0 3.449.993 5.058 2.979 5.058 2.411 0 3.05-2.069 3.05-4.062zm-8.015-.766c0-2.376.425-6.132 1.702-7.358 1.064-1.073 4.043-1.84 7.447-2.529l.355 1.993c-3.05.536-5.745 1.073-6.383 1.762-.568.614-.851 1.993-.993 2.99.922-.537 2.198-1.073 3.688-1.073 2.624 0 4.256 1.38 4.256 4.905 0 4.138-2.27 5.978-5.25 5.978-2.978 0-4.822-1.993-4.822-6.668zm18.157 3.832v-2.683l-2.34.077c-1.49.077-2.341.69-2.341 1.916 0 1.15.78 1.686 1.844 1.686.993.077 2.057-.46 2.837-.996zm-6.738-.537c0-2.912 2.412-3.525 4.327-3.525l2.411-.077v-1.226c0-1.61-.78-1.993-2.34-1.993-1.135 0-2.128.23-3.05.537l-.426-1.686c.993-.46 2.27-.767 3.83-.767 2.625 0 4.043.997 4.043 3.373v5.978c0 .69.567.843 1.135.92l-.142 1.685-.426.077c-1.134 0-2.198-.383-2.411-1.38-.71.537-1.773 1.457-3.546 1.457-2.057 0-3.405-1.227-3.405-3.373zM123.395 14.742h2.225v4.849h5.34v-4.849h2.224v11.44h-2.225v-4.849h-5.34v4.849h-2.224v-11.44zm17.947 9.47l-3.263-3.94 4.523-5.605h2.448l-4.672 5.454 2.299 2.5c1.038 1.137 1.928 1.818 2.818 2.046l-.371 1.666c-.964 0-2.225-.227-3.782-2.12zm-5.488-9.47h2.225v11.516h-2.225V14.742zM164.72 19.692c0-3.219-1.525-5.633-4.711-5.633-3.326 0-4.78 2.414-4.78 5.56 0 3.073 1.385 5.706 4.641 5.706 3.464 0 4.85-2.487 4.85-5.633m-11.64-.073c0-4.536 2.633-7.316 6.998-7.316 4.572 0 6.72 3.146 6.72 7.39 0 4.462-2.494 7.388-7.067 7.388-4.364 0-6.65-3-6.65-7.462M169.084 15.633h2.057V20.3h5.178v-4.667h2.056v11.084h-2.056v-4.74h-5.178v4.74h-2.057V15.633zm10.639 9.625c.71-.291 1.631-.729 2.128-1.604.567-1.167.993-4.156 1.064-8.02h7.021v11.083h-2.056V17.31h-3.121c-.284 3.865-.71 6.198-1.419 7.584-.638 1.093-1.631 1.75-3.05 2.187l-.567-1.823zm18.867-1.02v-2.553l-2.341.073c-1.49.073-2.34.657-2.34 1.823 0 1.094.78 1.604 1.844 1.604.992 0 2.056-.437 2.837-.948zm-6.668-.511c0-2.77 2.412-3.354 4.327-3.354l2.412-.073v-1.167c0-1.531-.78-1.896-2.341-1.896-1.135 0-2.128.22-3.05.51l-.425-1.603c.992-.438 2.27-.73 3.83-.73 2.624 0 4.042.948 4.042 3.209v5.76c0 .657.568.802 1.135.875l-.142 1.604-.425.073c-1.135 0-2.199-.364-2.412-1.312-.709.51-1.773 1.385-3.546 1.385-2.128-.146-3.405-1.24-3.405-3.281zM205.846 11.832l.965-1.054c.816.978 1.633 1.28 2.449 1.28.816 0 1.707-.302 2.524-1.28l.89 1.054c-.742 1.204-2.004 1.957-3.414 1.957-1.41-.076-2.672-.753-3.414-1.957zm-1.708 3.838h2.227v7l-.074 1.506.965-1.581 4.899-6.925h2.227v11.441h-2.227v-6.925l.074-1.58-.965 1.58-4.899 6.925h-2.227v-11.44zm13.138 0h2.153v4.817h5.418V15.67H227v11.441h-2.153V22.22h-5.418v4.892h-2.153v-11.44z"/>
        </g>
        <mask id="logo_1" fill="#fff">
            <use xlink:href="#logo"/>
        </mask>
        <use fill="#16AD48" fill-rule="nonzero" xlink:href="#logo"/>
        <g fill="#0DA94E" fill-rule="nonzero" mask="url(#logo_1)">
            <path d="M0 0h35v34H0z"/>
        </g>
    </g>
</svg>
