<svg width="36" height="36"
  xmlns="http://www.w3.org/2000/svg">
  <defs>
    <path d="M22.027 15H10.973a4.5 4.5 0 0 0-8.946 0H2C.895 15 0 14.106 0 13.007v-5.52C0 7.32.02 7.158 0 7l.134-.233c.075-.196.18-.378.31-.54l2.58-4.497C3.57.775 4.914 0 6.005 0h13.669c1.099 0 2.53.71 3.2 1.588L25.69 5.28c.506.091.985.203 1.368.325l4.045 1.29C32.15 7.229 33 8.39 33 9.51v3.48c0 1.11-.891 2.01-2.007 2.01h-.02a4.5 4.5 0 0 0-8.946 0zM6 5c0 .556.45 1 1.007 1h11.986C19.55 6 20 5.552 20 5c0-.556-.45-1-1.007-1H7.007C6.45 4 6 4.448 6 5z" id="auto-a"/>
  </defs>
  <g fill="#CCC" fill-rule="evenodd">
    <g transform="translate(2 9)">
      <mask id="auto-b" fill="#fff">
        <use href="#auto-a"/>
      </mask>
      <use fill="#00F" href="#auto-a"/>
      <g mask="url(#auto-b)" fill="#66A">
        <path d="M-2-9h36v36H-2z"/>
      </g>
    </g>
    <circle fill="#ССС" cx="8.5" cy="24.5" r="2.5"/>
    <circle fill="#ССС" cx="28.5" cy="24.5" r="2.5"/>
  </g>
</svg>
