<svg xmlns="http://www.w3.org/2000/svg" xmlns:xlink="http://www.w3.org/1999/xlink" width="36" height="36" viewBox="0 0 36 36">
    <defs>
        <path id="ie6iwd1koa" d="M18 0C8.06 0 0 8.06 0 18s8.06 18 18 18 18-8.06 18-18S27.94 0 18 0z"/>
        <path id="ibckyzbb5c" d="M18 0C8.06 0 0 8.06 0 18s8.06 18 18 18 18-8.06 18-18S27.94 0 18 0z"/>
        <path id="fq888nni0e" d="M18 0C8.06 0 0 8.06 0 18s8.06 18 18 18 18-8.06 18-18S27.94 0 18 0z"/>
        <path id="rx9n1teabg" d="M18 0C8.06 0 0 8.06 0 18s8.06 18 18 18 18-8.06 18-18S27.94 0 18 0z"/>
    </defs>
    <g fill="none" fill-rule="evenodd">
        <mask id="woe95iontb" fill="#fff">
            <use xlink:href="#ie6iwd1koa"/>
        </mask>
        <path fill="#6CF" fill-rule="nonzero" d="M0 36L36 36 36 0 0 0z" mask="url(#woe95iontb)"/>
        <mask id="89jz09g0jd" fill="#fff">
            <use xlink:href="#ibckyzbb5c"/>
        </mask>
        <path fill="#F0F0F0" fill-rule="nonzero" d="M6 32.88L18 31.2 30 32.88 18 3.24z" mask="url(#89jz09g0jd)"/>
        <g>
            <mask id="pig7wf5n3f" fill="#fff">
                <use xlink:href="#fq888nni0e"/>
            </mask>
            <path fill="#3D3D3D" fill-rule="nonzero" d="M7.62 32.88L18 31.2 28.38 32.88 18 7.2z" mask="url(#pig7wf5n3f)"/>
        </g>
        <g>
            <mask id="kgfl8pr42h" fill="#fff">
                <use xlink:href="#rx9n1teabg"/>
            </mask>
            <path fill="#FCD116" fill-rule="nonzero" d="M6 32.88L30 32.88 18 18z" mask="url(#kgfl8pr42h)"/>
        </g>
    </g>
</svg>
