<svg xmlns="http://www.w3.org/2000/svg" width="36" height="36" viewBox="0 0 36 36">
    <g fill="none">
        <circle cx="18" cy="18" r="18" fill="#F0F0F0"/>
        <path fill="#FFDA44" d="M18 0C11.618 0 6.012 3.322 2.816 8.33l24.4 25.128C32.48 30.315 36 24.57 36 18c0-9.94-8.06-18-18-18z"/>
        <path fill="#0052B4" d="M36 18c.006-4.486-1.67-8.812-4.696-12.124v24.248C34.33 26.812 36.006 22.486 36 18zM22.485 33.882l1.885-.001.582-1.794.584 1.793h.946c.58-.3 1.14-.652 1.68-1.022L3.142 7.838c-.412.602-.788 1.23-1.126 1.88l.222.683h1.885L2.6 11.5l.584 1.793-1.526-1.107-.9.662C.26 14.487 0 16.213 0 18c0 9.94 8.06 18 18 18 2.042.002 4.069-.344 5.994-1.023l-1.5-1.095h-.009zM4.015 17.217l.58-1.794-1.526-1.107 1.885-.001.582-1.794.584 1.793 1.885-.001-1.525 1.1.584 1.793-1.526-1.107-1.525 1.1.002.018zm3.883 3.913l.58-1.794-1.526-1.107 1.885-.001.582-1.794.584 1.793 1.885-.001-1.525 1.1.584 1.793-1.526-1.107-1.525 1.1.002.018zm3.883 3.913l.58-1.794-1.526-1.107 1.885-.001.582-1.794.584 1.793h1.885l-1.525 1.1.584 1.793-1.526-1.107-1.525 1.1.002.017zm5.408 2.804l-1.525 1.1.58-1.794-1.526-1.107 1.885-.001.582-1.794.584 1.793 1.885-.001-1.525 1.1.584 1.793-1.526-1.107.002.018zm2.358 5.022l.58-1.794-1.526-1.107 1.885-.001.582-1.794.584 1.793 1.885-.001-1.525 1.1.584 1.793-1.526-1.107-1.525 1.1.002.018z"/>
    </g>
</svg>
