<svg xmlns="http://www.w3.org/2000/svg" width="36" height="36" viewBox="0 0 36 36">
    <g fill="none">
        <circle cx="18" cy="18" r="18" fill="#D80027"/>
        <path fill="#007E3A" d="M6.26 9.39L29.74 9.39 29.74 26.61 6.26 26.61z"/>
        <path fill="#F0F0F0" d="M20.9 23.087c-2.81-.001-5.086-2.278-5.088-5.087.002-2.809 2.278-5.085 5.087-5.087.876 0 1.7.22 2.42.61-1.168-1.146-2.74-1.787-4.376-1.785-3.458 0-6.26 2.803-6.26 6.26s2.803 6.26 6.26 6.26c1.636.002 3.208-.64 4.376-1.785-.743.403-1.575.613-2.42.612l.001.002z"/>
    </g>
</svg>
