<svg xmlns="http://www.w3.org/2000/svg" width="36" height="36" viewBox="0 0 36 36">
    <g fill="none">
        <circle cx="18" cy="18" r="18" fill="#F0F0F0"/>
        <path fill="#6DA544" d="M10.957 11.74H34.88C32.337 4.885 25.74 0 18 0 13.225-.006 8.645 1.892 5.273 5.273l5.684 6.467z"/>
        <path fill="#D80027" d="M10.957 24.26H34.88C32.337 31.115 25.74 36 18 36c-4.775.006-9.355-1.892-12.727-5.273l5.684-6.466v-.001z"/>
        <path fill="#0052B4" d="M5.272 5.272c-7.03 7.03-7.03 18.426 0 25.456L18 18 5.272 5.272z"/>
        <path fill="#DEDDE0" d="M21.13 14.87v3.913c0 2.396 3.13 3.13 3.13 3.13s3.13-.734 3.13-3.13V14.87h-6.26z"/>
        <path fill="#786145" d="M23.478 18.078L25.043 18.078 25.043 20.348 23.478 20.348z"/>
        <path fill="#6DA544" d="M25.826 17.217c0-.864-.7-1.565-1.565-1.565s-1.565.7-1.565 1.565c-.432 0-.783.35-.783.783 0 .433.35.783.783.783h3.13c.432 0 .783-.35.783-.783 0-.433-.35-.783-.783-.783z"/>
    </g>
</svg>
