<svg xmlns="http://www.w3.org/2000/svg" width="36" height="36" viewBox="0 0 36 36">
    <g fill="none">
        <circle cx="18" cy="18" r="18" fill="#D80027"/>
        <circle cx="18" cy="18" r="8.609" fill="#F0F0F0"/>
        <path fill="#D80027" d="M19.06 14.7l1.477 2.035 2.392-.776-1.48 2.033 1.477 2.035-2.4-.778-1.48 2.033.002-2.514-2.4-.778 2.392-.776.02-2.514zm.897 8.377c-2.805-.002-5.08-2.272-5.087-5.077.002-2.809 2.278-5.085 5.087-5.087.876 0 1.7.22 2.42.6-1.17-1.142-2.742-1.779-4.377-1.774-2.236 0-4.303 1.193-5.421 3.13-1.119 1.937-1.119 4.323 0 6.26 1.118 1.937 3.185 3.13 5.421 3.13 1.636.002 3.208-.64 4.376-1.785-.743.403-1.575.613-2.42.612l.001-.009z"/>
    </g>
</svg>
