<svg xmlns="http://www.w3.org/2000/svg" width="36" height="36" viewBox="0 0 36 36">
    <g fill="none">
        <path fill="#F0F0F0" d="M36 18c.002-2.137-.377-4.257-1.12-6.261L18 10.957l-16.88.783C.377 13.743-.002 15.863 0 18c-.002 2.137.377 4.257 1.12 6.261l16.88.783 16.88-.783c.743-2.004 1.122-4.124 1.12-6.261z"/>
        <path fill="#0052B4" d="M18 36c7.74 0 14.337-4.885 16.88-11.74H1.12C3.663 31.115 10.26 36 18 36z"/>
        <path fill="#D80027" d="M1.12 11.74h33.76C32.337 4.885 25.74 0 18 0 10.26 0 3.663 4.885 1.12 11.74z"/>
        <path fill="#338AF3" d="M22.696 12.522h-3.13l.522-3.913 2.087-1.565 2.087 1.565v3.13l-1.566.783zm-9.392 0h3.13l-.522-3.913-2.087-1.565-2.087 1.565v3.13l1.566.783z"/>
        <path fill="#0052B4" d="M20.087 12.522L15.913 12.522 15.913 8.61 18 7.043 20.087 8.608z"/>
        <path fill="#F0F0F0" d="M11.74 11.74v8.61c0 2.05 1 3.873 2.517 5.016l1.096-.274 1.383 1.39c.41.084.832.13 1.265.13.423 0 .845-.042 1.259-.127l1.578-1.314.906.193c1.527-1.143 2.517-2.964 2.517-5.013v-8.61H11.74v-.001z"/>
        <g fill="#D80027">
            <path d="M.74.74h2.504v2.504H.74V.74zm5.008 0h2.504v2.504H5.748V.74zM10.757.74h2.504v2.504h-2.504V.74zM3.244 3.244h2.504v2.504H3.244V3.244zM8.252 3.244h2.504v2.504H8.252V3.244zM.74 5.747h2.504v2.504H.74V5.747zM3.244 8.252L5.748 8.252 5.748 10.756 3.244 10.756zM5.748 5.747h2.504v2.504H5.748V5.747zm5.01 0h2.504v2.504h-2.504V5.747zM8.252 8.252L10.756 8.252 10.756 10.756 8.252 10.756zM5.748 10.756h2.504v2.504H5.748v-2.504zm-2.504 0H.9c.212.916.628 1.772 1.217 2.504h1.126v-2.504h.001zM10.757 13.26h1.126c.59-.732 1.005-1.588 1.217-2.504h-2.343v2.504zm-7.513 0v1.093c.74.557 1.596.943 2.504 1.13V13.26H3.244zM8.252 13.26v2.222c.925-.188 1.776-.582 2.504-1.13V13.26H8.252z" transform="translate(11 11)"/>
        </g>
    </g>
</svg>
