<svg xmlns="http://www.w3.org/2000/svg" width="36" height="36" viewBox="0 0 36 36">
    <g fill="none">
        <circle cx="18" cy="18" r="18" fill="#338AF3"/>
        <path fill="#FFDA44" d="M28.174 18.196H7.826c0 1.405 1.224 2.543 2.628 2.543h-.085c0 1.405 1.14 2.543 2.543 2.543 0 1.405 1.14 2.543 2.543 2.543h5.087c1.405 0 2.543-1.14 2.543-2.543 1.405 0 2.543-1.14 2.543-2.543h-.085c1.404 0 2.628-1.14 2.628-2.543h.003z"/>
        <path fill="#338AF3" d="M25.043 14.87c0 3.9-3.154 7.043-7.043 7.043-3.889 0-7.043-3.154-7.043-7.043"/>
        <path fill="#FFDA44" d="M23.38 14.87L21.182 15.904 22.352 18.034 19.965 17.577 19.663 19.987 18 18.214 16.337 19.988 16.035 17.578 13.648 18.035 14.818 15.905 12.62 14.871 14.818 13.837 13.648 11.707 16.035 12.164 16.338 9.754 18 11.525 19.663 9.751 19.965 12.161 22.352 11.704 21.182 13.834z"/>
    </g>
</svg>
