<svg xmlns="http://www.w3.org/2000/svg" width="36" height="36" viewBox="0 0 36 36">
    <g fill="none">
        <circle cx="18" cy="18" r="18" fill="#0F7562"/>
        <path fill="#F0F0F0" d="M21.13 17.25c-.441 0-.86.088-1.25.228.213-.476.356-1.005.356-1.57 0-2.236-2.236-3.913-2.236-3.913s-2.236 1.677-2.236 3.913c0 .565.143 1.094.357 1.57-.39-.14-.81-.229-1.251-.229-2.236 0-3.913 2.236-3.913 2.236s1.677 2.236 3.913 2.236c1.31 0 2.429-.768 3.13-1.404.702.636 1.82 1.404 3.13 1.404 2.237 0 3.914-2.236 3.914-2.236s-1.678-2.236-3.914-2.236z"/>
        <g fill="#FFDA44">
            <path d="M9.914.012L10.376 1.434 11.871 1.434 10.662 2.312 11.123 3.734 9.914 2.855 8.705 3.734 9.167 2.312 7.958 1.434 9.452 1.434zM4.23 2.498L5.119 3.298 6.155 2.701 5.668 3.793 6.557 4.593 5.368 4.468 4.881 5.56 4.633 4.391 3.444 4.266 4.479 3.668zM.07 6.659L1.239 6.908 1.837 5.872 1.962 7.061 3.132 7.31 2.04 7.796 2.165 8.985 1.364 8.097.272 8.583.87 7.548zM15.598 2.498L14.709 3.298 13.674 2.701 14.16 3.793 13.271 4.593 14.46 4.468 14.947 5.56 15.196 4.391 16.385 4.266 15.349 3.668zM19.758 6.659L18.589 6.908 17.991 5.872 17.866 7.061 16.696 7.31 17.789 7.796 17.664 8.985 18.464 8.097 19.556 8.583 18.958 7.548z" transform="translate(8.086 7.031)"/>
        </g>
        <g fill="#F0F0F0">
            <path d="M7.242 4.709c1.776 0 3.414-.593 4.727-1.59H2.516c1.313.997 2.95 1.59 4.726 1.59zM.068.013c.248.569.563 1.101.933 1.59h12.482c.37-.489.685-1.021.934-1.59H.068z" transform="translate(10.758 23.273)"/>
        </g>
    </g>
</svg>
