<svg xmlns="http://www.w3.org/2000/svg" width="36" height="36" viewBox="0 0 36 36">
    <g fill="none">
        <circle cx="18" cy="18" r="18" fill="#496E2D"/>
        <path fill="#D80027" d="M25.043 18H18v18c2.044.002 4.073-.345 6-1.026L25.043 18z"/>
        <path fill="#FF9811" d="M30 31.415C33.682 28.12 36 23.33 36 18h-7.043L30 31.415z"/>
        <path fill="#3D3D3D" d="M24 18v16.974c2.213-.783 4.251-1.993 6-3.559V18h-6z"/>
        <path fill="#FF9811" d="M33.26 11.74h-4.696c0-.864-.7-1.565-1.565-1.565s-1.565.7-1.565 1.565H20.74c0 .864.753 1.565 1.617 1.565h-.052c0 .864.7 1.565 1.565 1.565 0 .864.7 1.565 1.565 1.565h3.13c.864 0 1.565-.7 1.565-1.565.864 0 1.565-.7 1.565-1.565h-.052c.864 0 1.617-.7 1.617-1.565z"/>
    </g>
</svg>
