<svg xmlns="http://www.w3.org/2000/svg" width="36" height="36" viewBox="0 0 36 36">
    <g fill="none">
        <path fill="#0052B4" d="M36 18c0 9.94-8.06 18-18 18S0 27.94 0 18C0 18.004 18 .002 18 0c9.94 0 18 8.06 18 18z"/>
        <path fill="#F0F0F0" d="M18.056 9.5L18.053.07C8.083.074.003 8.156 0 18.126h9.42V12.82l5.305 5.305h3.282l.048-.048v-3.282L12.75 9.5h5.306z"/>
        <path fill="#D80027" d="M8.854 2.145c-2.798 1.594-5.116 3.912-6.71 6.71v8.828h4.66V6.806H17.68v-4.66H8.854v-.001zm8.828 13.34l-6.348-6.348H9.137l8.545 8.545v-2.197z"/>
        <g fill="#FFF">
            <path d="M4.468 13.88L5.475 15.968 7.75 15.448 6.73 17.53 8.56 18.968 6.283 19.478 6.289 21.792 4.469 20.344 2.649 21.792 2.655 19.478.378 18.968 2.208 17.53 1.188 15.448 3.463 15.968zM20.877 17.835L21.381 18.879 22.518 18.619 22.008 19.659 22.923 20.379 21.783 20.633 21.786 21.79 20.876 21.066 19.966 21.79 19.969 20.633 18.829 20.379 19.744 19.659 19.234 18.619 20.371 18.879z" transform="translate(6 7)"/>
            <path d="M2.877 0.835L3.381 1.879 4.518 1.619 4.008 2.659 4.923 3.379 3.783 3.633 3.786 4.79 2.876 4.066 1.966 4.79 1.969 3.633 0.829 3.379 1.744 2.659 1.234 1.619 2.371 1.879z" transform="translate(6 7) translate(13.315 5.925)"/>
            <path d="M20.877 0.434L21.381 1.478 22.518 1.218 22.008 2.258 22.922 2.978 21.782 3.232 21.785 4.389 20.875 3.665 19.965 4.389 19.968 3.232 18.828 2.978 19.742 2.258 19.232 1.218 20.369 1.478z" transform="translate(6 7)"/>
            <path d="M2.877 0.835L3.381 1.879 4.518 1.619 4.008 2.659 4.923 3.379 3.783 3.633 3.786 4.79 2.876 4.066 1.966 4.79 1.969 3.633 0.829 3.379 1.744 2.659 1.234 1.619 2.371 1.879z" transform="translate(6 7) translate(22.093 4.345)"/>
            <path d="M22.043 10.716L22.439 11.926 23.721 11.926 22.684 12.673 23.08 13.881 22.043 13.134 21.006 13.881 21.402 12.673 20.365 11.926 21.647 11.926z" transform="translate(6 7)"/>
        </g>
    </g>
</svg>
