<svg xmlns="http://www.w3.org/2000/svg" width="36" height="36" viewBox="0 0 36 36">
    <g fill="none" transform="translate(.014)">
        <ellipse cx="17.992" cy="17.965" fill="#F0F0F0" rx="17.992" ry="17.965"/>
        <path fill="#0052B4" d="M17.992 0C12.106 0 6.88 2.823 3.597 7.186h28.789C29.104 2.823 23.878 0 17.992 0zm0 35.93c5.886 0 11.112-2.823 14.395-7.186H3.597c3.282 4.363 8.508 7.186 14.395 7.186zM0 17.965c0 1.207.12 2.41.36 3.593h35.253c.24-1.183.361-2.386.361-3.593 0-1.23-.124-2.432-.36-3.593H.36C.12 15.555 0 16.758 0 17.965z"/>
        <path fill="#D80027" d="M5.27 5.262c-7.023 7.017-7.023 18.39 0 25.406l12.722-12.703L5.27 5.262z"/>
        <path fill="#F0F0F0" d="M7.281 13.28L8.446 16.86 12.216 16.86 9.167 19.07 10.332 22.65 7.281 20.44 4.232 22.65 5.397 19.07 2.348 16.857 6.117 16.857z"/>
    </g>
</svg>
