<svg xmlns="http://www.w3.org/2000/svg" width="36" height="36" viewBox="0 0 36 36">
    <g fill="none">
        <path fill="#D80027" d="M25.826 1.786C23.386.606 20.71-.004 18 0c-2.71-.004-5.386.607-7.826 1.786L8.61 18l1.565 16.214C12.615 35.393 15.29 36.004 18 36c2.71.004 5.386-.607 7.826-1.786L27.39 18 25.826 1.786z"/>
        <path fill="#3D3D3D" d="M10.174 1.787C4.153 4.698 0 10.864 0 18c0 7.136 4.153 13.302 10.174 16.213V1.787z"/>
        <path fill="#006C35" d="M25.826 1.787v32.427C31.847 31.302 36 25.136 36 18c0-7.136-4.153-13.302-10.174-16.213z"/>
        <path fill="#FFDA44" d="M18 11.74c-3.458 0-6.261 2.803-6.261 6.261s2.803 6.261 6.261 6.261 6.261-2.803 6.261-6.261S21.458 11.74 18 11.74zm0 10.174c-2.16 0-3.913-1.752-3.913-3.913 0-2.161 1.753-3.914 3.913-3.914S21.913 15.84 21.913 18 20.16 21.913 18 21.913v.001zm0-6.262c-.864 0-1.565.7-1.565 1.565v2.348h3.13v-2.348c0-.864-.7-1.565-1.565-1.565z"/>
    </g>
</svg>
