<svg xmlns="http://www.w3.org/2000/svg" xmlns:xlink="http://www.w3.org/1999/xlink" width="36" height="36" viewBox="0 0 36 36">
    <defs>
        <circle id="sitr02awna" cx="18" cy="18" r="18"/>
    </defs>
    <g fill="none" fill-rule="evenodd">
        <mask id="sdxenlhkqb" fill="#fff">
            <use xlink:href="#sitr02awna"/>
        </mask>
        <use fill="#D8D8D8" xlink:href="#sitr02awna"/>
        <g mask="url(#sdxenlhkqb)">
            <g>
                <path fill="#039" fill-rule="nonzero" d="M0 0H54V36H0z" transform="translate(-9)"/>
                <g>
                    <path fill="#FC0" fill-rule="nonzero" d="M13.933 0L13.487 1.38 12.033 1.38 13.207 2.233 12.76 3.62 13.933 2.767 15.107 3.62 14.66 2.233 15.833 1.38 14.38 1.38zM14.38 25.38L13.933 24 13.487 25.38 12.033 25.38 13.207 26.233 12.76 27.62 13.933 26.767 15.107 27.62 14.66 26.233 15.833 25.38zM1.933 14.767L3.107 15.62 2.66 14.233 3.833 13.38 2.38 13.38 1.933 12 1.487 13.38.033 13.38 1.207 14.233.76 15.62zM7.933 1.607L7.487 2.987 6.033 2.987 7.207 3.847 6.76 5.227 7.933 4.373 9.107 5.227 8.66 3.847 9.833 2.987 8.38 2.987zM3.54 6L3.093 7.38 1.64 7.38 2.813 8.233 2.367 9.62 3.54 8.767 4.713 9.62 4.267 8.233 5.44 7.38 3.993 7.38zM3.993 19.38L3.54 18 3.093 19.38 1.64 19.38 2.813 20.233 2.367 21.62 3.54 20.767 4.713 21.62 4.267 20.233 5.44 19.38zM8.38 23.773L7.933 22.393 7.487 23.773 6.033 23.773 7.207 24.627 6.76 26.013 7.933 25.153 9.107 26.013 8.66 24.627 9.833 23.773zM27.833 13.38L26.38 13.38 25.933 12 25.487 13.38 24.033 13.38 25.207 14.233 24.76 15.62 25.933 14.767 27.107 15.62 26.66 14.233zM19.933 1.607L19.487 2.987 18.033 2.987 19.207 3.847 18.76 5.227 19.933 4.373 21.107 5.227 20.66 3.847 21.833 2.987 20.38 2.987zM23.6 8.233L23.153 9.62 24.327 8.767 25.5 9.62 25.053 8.233 26.227 7.38 24.773 7.38 24.327 6 23.873 7.38 22.427 7.38zM24.773 19.38L24.327 18 23.873 19.38 22.427 19.38 23.6 20.233 23.153 21.62 24.327 20.767 25.5 21.62 25.053 20.233 26.227 19.38zM20.38 23.773L19.933 22.393 19.487 23.773 18.033 23.773 19.207 24.627 18.76 26.013 19.933 25.153 21.107 26.013 20.66 24.627 21.833 23.773z" transform="translate(-9) translate(13.067 4)"/>
                </g>
            </g>
        </g>
    </g>
</svg>
