<svg xmlns="http://www.w3.org/2000/svg" width="36" height="36" viewBox="0 0 36 36">
    <g fill="none">
        <circle cx="18" cy="18" r="18" fill="#0052B4"/>
        <g fill="#F0F0F0">
            <path d="M1.907 3.956L2.297 5.152 3.554 5.152 2.537 5.892 2.925 7.088 1.908 6.348 0.891 7.088 1.281 5.892 0.264 5.152 1.521 5.152z" transform="translate(6 7)"/>
            <path d="M1.907 0.956L2.297 2.152 3.554 2.152 2.537 2.892 2.925 4.088 1.908 3.348 0.891 4.088 1.281 2.892 0.264 2.152 1.521 2.152z" transform="translate(6 7) translate(3.913 1.827)"/>
            <path d="M1.907 0.956L2.297 2.152 3.554 2.152 2.537 2.892 2.925 4.088 1.908 3.348 0.891 4.088 1.281 2.892 0.264 2.152 1.521 2.152z" transform="translate(6 7) translate(7.826 .654)"/>
            <path d="M22.094 3.956l-.4 1.196h-1.257l1.017.74-.4 1.196 1.017-.74 1.017.74-.4-1.196 1.017-.74h-1.257l-.354-1.196zM18.18 2.783l-.4 1.196h-1.257l1.017.74-.4 1.196 1.017-.74 1.017.74-.4-1.196 1.017-.74h-1.25l-.361-1.196zM14.268 1.6l-.4 1.196H12.62l1.017.74-.388 1.196 1.017-.74 1.017.74-.4-1.196 1.017-.74h-1.257L14.268 1.6z" transform="translate(6 7)"/>
        </g>
        <path fill="#FFDA44" d="M21.13 18.783L18 14.87l-1.565.783v1.565l-2.348 1.565h-1.565v2.022c2.294.93 3.913 3.177 3.913 5.804H18v-1.565l1.565-1.565 1.565 1.565 1.565-1.565v-1.565l1.565-2.348-3.13-.783z"/>
    </g>
</svg>
