<svg xmlns="http://www.w3.org/2000/svg" width="36" height="36" viewBox="0 0 36 36">
    <g fill="none">
        <circle cx="18" cy="18" r="18" fill="#F0F0F0"/>
        <path fill="#74ACDF" d="M18 0C10.864 0 4.698 4.153 1.786 10.174h32.428C31.303 4.153 25.136 0 18 0zm0 36c7.136 0 13.302-4.153 16.214-10.174H1.786C4.698 31.847 10.864 36 18 36z"/>
        <path fill="#FFDA44" d="M23.38 18L21.182 19.034 22.352 21.164 19.965 20.707 19.663 23.117 18 21.344 16.337 23.118 16.035 20.708 13.648 21.165 14.818 19.035 12.62 18 14.818 16.966 13.648 14.836 16.035 15.293 16.338 12.883 18 14.656 19.663 12.882 19.965 15.292 22.352 14.835 21.182 16.965z"/>
    </g>
</svg>
