<svg xmlns="http://www.w3.org/2000/svg" width="36" height="36" viewBox="0 0 36 36">
    <g fill="none">
        <circle cx="18" cy="18" r="18" fill="#F0F0F0"/>
        <path fill="#D80027" d="M35.848 15.652h-15.5V.152c-1.559-.203-3.137-.203-4.696 0v15.5H.152c-.203 1.559-.203 3.137 0 4.696h15.5v15.5c1.559.203 3.137.203 4.696 0v-15.5h15.5c.203-1.559.203-3.137 0-4.696zM10.957 8.6V6.26H8.6V8.6H6.26v2.348H8.6v2.348h2.348v-2.348h2.348V8.6h-2.339zm16.433 0V6.26h-2.348V8.6h-2.348v2.348h2.348v2.348H27.4v-2.348h2.348V8.6H27.39zM10.957 25.043v-2.348H8.6v2.348H6.26v2.348H8.6v2.348h2.348V27.4h2.348v-2.348l-2.339-.009zm16.433 0v-2.348h-2.348v2.348h-2.348v2.348h2.348v2.348H27.4V27.4h2.348v-2.348l-2.358-.009z"/>
    </g>
</svg>
