<svg xmlns="http://www.w3.org/2000/svg" width="36" height="36" viewBox="0 0 36 36">
    <g fill="none" fill-rule="evenodd">
        <circle cx="18" cy="18" r="18" fill="#F0F0F0"/>
        <path fill="#3D3D3D" fill-rule="nonzero" d="M19.177 21.188v-.656c0-1.106.397-1.676 1.783-2.492 1.418-.849 2.256-2.02 2.256-3.685 0-2.298-1.912-3.985-4.748-3.985-3.115 0-4.78 1.848-4.877 4.286h2.223c.097-1.418 1.053-2.31 2.536-2.31 1.471 0 2.427.892 2.427 2.106 0 1.107-.462 1.73-1.761 2.514-1.472.88-2.127 1.847-2.074 3.362l.011.86h2.224zM18.08 26.16c.806 0 1.418-.601 1.418-1.386 0-.784-.612-1.385-1.418-1.385-.784 0-1.407.601-1.407 1.385 0 .785.623 1.386 1.407 1.386z"/>
    </g>
</svg>
