<svg xmlns="http://www.w3.org/2000/svg" width="36" height="36" viewBox="0 0 36 36">
    <g fill="none">
        <path fill="#0052B4" d="M18 36c9.94 0 18-8.06 18-18 .004-2.915-.703-5.787-2.06-8.367L17.98 18.02l8.388-15.96C23.788.703 20.915-.004 18 0 8.06 0 0 8.06 0 18c0 4.97 2.015 9.47 5.272 12.728C8.529 33.986 13.03 36 18 36z"/>
        <path fill="#F0F0F0" d="M33.92 9.652c-.824-1.568-1.895-3.04-3.214-4.36-1.319-1.32-2.79-2.4-4.36-3.214L5.25 30.75 33.92 9.652z"/>
        <path fill="#FF9811" d="M5.25 30.75L33.92 9.652c-.824-1.568-1.895-3.04-3.214-4.36L5.25 30.75z"/>
        <path fill="#F0F0F0" d="M15.63 10.555L13.432 11.589 14.602 13.719 12.215 13.262 11.913 15.672 10.25 13.9 8.587 15.674 8.285 13.264 5.898 13.721 7.068 11.591 4.87 10.557 7.07 9.52 5.9 7.392 8.287 7.849 8.59 5.439 10.25 7.21 11.913 5.436 12.215 7.846 14.602 7.389 13.432 9.519z"/>
    </g>
</svg>
