<svg xmlns="http://www.w3.org/2000/svg" width="36" height="36" viewBox="0 0 36 36">
    <g fill="none">
        <circle cx="18" cy="18" r="18" fill="#F0F0F0"/>
        <g fill="#D80027">
            <path d="M16.945 28.195c7.74 0 14.337-4.884 16.88-11.739H.066c2.543 6.855 9.14 11.74 16.88 11.74zM23.989 7.065L23.989 4.717 24.771 4.717 24.771 3.152 23.206 3.152 23.206 3.934 21.641 3.934 21.641 3.152 20.076 3.152 20.076 4.717 20.858 4.717 20.858 7.065 19.293 7.065 19.293 1.587 20.076 1.587 20.076.022 18.511.022 18.511.804 17.728.804 17.728.022 16.163.022 16.163.804 15.38.804 15.38.022 13.815.022 13.815 1.587 14.598 1.587 14.598 7.065 13.032 7.065 13.032 4.717 13.815 4.717 13.815 3.152 12.25 3.152 12.25 3.934 10.684 3.934 10.684 3.152 9.119 3.152 9.119 4.717 9.902 4.717 9.902 7.065 8.337 7.065 8.337 13.326 25.554 13.326 25.554 7.065z" transform="translate(1.055 7.805)"/>
        </g>
        <path fill="#FFDA44" d="M18 20.348c-1.297 0-2.348 1.051-2.348 2.348 0 1.022.654 1.891 1.565 2.213v3.265H14.87v3.13h3.913V24.91c.911-.322 1.565-1.191 1.565-2.213 0-1.297-1.051-2.348-2.348-2.348zm0 3.13c-.432 0-.783-.35-.783-.782 0-.433.35-.783.783-.783.432 0 .783.35.783.783 0 .432-.35.782-.783.782z"/>
    </g>
</svg>
