<svg xmlns="http://www.w3.org/2000/svg" width="36" height="36" viewBox="0 0 36 36">
    <g fill="none">
        <circle cx="18" cy="18" r="18" fill="#F0F0F0"/>
        <g fill="#6DA544">
            <path d="M30.455 5.143C27.208 1.962 22.763 0 17.859 0c-1.565 0-6.145 1.962-9.39 5.143h21.986zM17.86 15.429h17.816c-.26-1.816-.79-3.545-1.55-5.143h-17.05l.783 5.143zM1.593 25.714h32.533c.76-1.598 1.29-3.327 1.55-5.143H.043c.26 1.816.79 3.545 1.55 5.143zM5.264 30.857C8.51 34.038 12.955 36 17.859 36c4.904 0 9.35-1.962 12.596-5.143H5.264z" transform="translate(.14)"/>
        </g>
        <path fill="#D80027" d="M18 0C8.932 0 1.432 6.706.184 15.429H18V0z"/>
        <g fill="#F0F0F0">
            <path d="M5.133 8.738L4.35 7.172 4.35 4.042 6.307 2.477 8.263 4.042 8.263 6.39 9.046 5.607 9.046 7.172 7.481 8.738zM.924 3.938L1.131 4.575 1.801 4.575 1.259 4.969 1.466 5.607.924 5.213.381 5.607.588 4.969.046 4.575.716 4.575zM2.489 2.372L2.696 3.01 3.367 3.01 2.824 3.404 3.031 4.042 2.489 3.648 1.946 4.042 2.154 3.404 1.611 3.01 2.281 3.01zM4.054.807L4.261 1.445 4.932 1.445 4.389 1.839 4.596 2.477 4.054 2.083 3.511 2.477 3.719 1.839 3.176 1.445 3.847 1.445zM11.69 3.938L11.483 4.575 10.812 4.575 11.355 4.969 11.147 5.607 11.69 5.213 12.232 5.607 12.025 4.969 12.568 4.575 11.897 4.575zM10.125 2.372L9.917 3.01 9.247 3.01 9.789 3.404 9.582 4.042 10.125 3.648 10.667 4.042 10.46 3.404 11.002 3.01 10.332 3.01zM8.559.807L8.352 1.445 7.682 1.445 8.224 1.839 8.017 2.477 8.559 2.083 9.102 2.477 8.895 1.839 9.437 1.445 8.767 1.445zM6.307.024L6.099.662 5.429.662 5.971 1.056 5.764 1.694 6.307 1.3 6.849 1.694 6.642 1.056 7.184.662 6.514.662z" transform="translate(3.867 5.063)"/>
        </g>
    </g>
</svg>
