<svg xmlns="http://www.w3.org/2000/svg" width="36" height="36" viewBox="0 0 36 36">
    <g fill="none">
        <circle cx="18" cy="18" r="18" fill="#F0F0F0"/>
        <path fill="#D80027" d="M18 0C10.26 0 3.663 4.885 1.12 11.74h33.76C32.337 4.885 25.74 0 18 0z"/>
        <path fill="#3D3D3D" d="M18 36c7.74 0 14.337-4.885 16.88-11.74H1.12C3.663 31.115 10.26 36 18 36z"/>
        <path fill="#060" d="M10.755 13.696l.97 3h3.143l-2.543 1.848.97 3-2.543-1.847-2.543 1.847.97-3-2.543-1.848H9.78l.975-3zm14.49 0l.97 3h3.143l-2.543 1.848.97 3-2.543-1.847-2.543 1.847.97-3-2.543-1.848h3.143l.976-3z"/>
    </g>
</svg>
