<svg xmlns="http://www.w3.org/2000/svg" width="36" height="36" viewBox="0 0 36 36">
    <g fill="none">
        <circle cx="18" cy="18" r="18" fill="#F0F0F0"/>
        <g fill="#D80027">
            <path d="M0 16c0 6.823 3.796 12.76 9.39 15.81V.19C3.796 3.242 0 9.178 0 16z" transform="translate(0 2)"/>
            <path d="M34.88 22.26c.743-2.003 1.122-4.123 1.12-6.26.002-2.137-.377-4.257-1.12-6.261H1.12C.377 11.743-.002 13.863 0 16c-.002 2.137.377 4.257 1.12 6.261L18 23.826l16.88-1.565v-.001z" transform="translate(0 2)"/>
        </g>
        <path fill="#6DA544" d="M18 36c7.74 0 14.337-4.885 16.88-11.74H1.12C3.663 31.115 10.26 36 18 36z"/>
        <path fill="#D80027" d="M0 18c0 8.316 5.64 15.314 13.304 17.38V.62C5.64 2.686 0 9.684 0 18z"/>
        <path fill="#F0F0F0" d="M11.012 7.92L9.352 6.26 8.245 7.367 7.14 6.26 5.48 7.92 6.587 9.027 5.48 10.134 7.14 11.794 8.247 10.687 9.354 11.794 11.014 10.134 9.907 9.027z"/>
    </g>
</svg>
