<svg xmlns="http://www.w3.org/2000/svg" width="36" height="36" viewBox="0 0 36 36">
    <g fill="none">
        <circle cx="18" cy="18" r="18" fill="#F0F0F0"/>
        <path fill="#373737" d="M34.596 11.022C31.87 4.547 25.466 0 18 0 13.225-.006 8.645 1.892 5.273 5.273l4.508 5.75h24.815v-.001z"/>
        <path fill="#496E2D" d="M9.832 24.913l-4.56 5.814C8.644 34.109 13.225 36.007 18 36c7.492 0 13.913-4.577 16.624-11.087H9.832z"/>
        <path fill="#A2001D" d="M3.913 13.24v9.456H35.38c.413-1.531.621-3.11.62-4.696.001-1.608-.213-3.21-.637-4.761H3.913v.001z"/>
        <path fill="#0052B4" d="M5.272 5.272c-7.03 7.03-7.03 18.426 0 25.456L18 18 5.272 5.272z"/>
        <path fill="#FFDA44" d="M5.863 13.525L8.06 16.6 11.655 15.458 9.418 18.495 11.615 21.561 8.035 20.371 5.8 23.4 5.825 19.628 2.245 18.438 5.84 17.296z"/>
    </g>
</svg>
