<svg xmlns="http://www.w3.org/2000/svg" width="36" height="36" viewBox="0 0 36 36">
    <g fill="none">
        <circle cx="18" cy="18" r="18" fill="#FFDA44"/>
        <path fill="#000" d="M5.272 30.728c.755.755 1.56 1.428 2.406 2.021L32.749 7.678c-.593-.845-1.266-1.65-2.021-2.406-.755-.755-1.56-1.428-2.406-2.021L3.251 28.322c.593.845 1.266 1.65 2.021 2.406z"/>
        <path fill="#6DA544" d="M5.272 5.272c-5.679 5.679-6.769 14.207-3.273 20.981L26.253 2C19.48-1.497 10.951-.406 5.272 5.272z"/>
        <path fill="#338AF3" d="M30.728 30.728C36.406 25.049 37.497 16.521 34 9.747L9.747 34c6.774 3.496 15.302 2.406 20.98-3.273z"/>
    </g>
</svg>
