<svg xmlns="http://www.w3.org/2000/svg" width="36" height="36" viewBox="0 0 36 36">
    <g fill="none">
        <path fill="#D80027" d="M2.19 9.39L18 10.957 33.81 9.39C30.758 3.796 24.823 0 18 0S5.242 3.796 2.19 9.39z"/>
        <path fill="#FFDA44" d="M2.19 26.61L18 28.174l15.81-1.565c1.441-2.64 2.194-5.601 2.19-8.609l-18-1.565L0 18c-.004 3.008.748 5.969 2.189 8.609l.001.001z"/>
        <path fill="#0052B4" d="M2.19 9.39C.749 12.03-.004 14.992 0 18h36c.004-3.008-.748-5.969-2.189-8.609H2.19V9.39z"/>
        <path fill="#6DA544" d="M18 36c6.823 0 12.758-3.796 15.81-9.39H2.19C5.242 32.204 11.177 36 18 36z"/>
    </g>
</svg>
