<svg xmlns="http://www.w3.org/2000/svg" width="36" height="36" viewBox="0 0 36 36">
    <g fill="none">
        <circle cx="18" cy="18" r="18" fill="#F0F0F0"/>
        <path fill="#0052B4" d="M18 36c9.941 0 18-8.059 18-18 0-2.2-.4-4.3-1.12-6.26H1.12C.4 13.7 0 15.8 0 18c0 9.941 8.059 18 18 18z"/>
        <path fill="#D80027" d="M18 36c7.528.002 14.262-4.682 16.88-11.74H1.12C3.738 31.318 10.472 36.002 18 36z"/>
        <path fill="#F0F0F0" d="M4.65 10.17v8.98c0 5.1 6.67 6.67 6.67 6.67S18 24.26 18 19.15v-8.98H4.65z"/>
        <path fill="#D80027" d="M6.22 10.17v8.98c0 .6.13 1.17.4 1.7h9.42c.26-.53.4-1.1.4-1.7v-8.98H6.22z"/>
        <path fill="#F0F0F0" d="M14.46 16.43L12.1 16.43 12.1 14.86 13.67 14.86 13.67 13.3 12.1 13.3 12.1 11.73 10.53 11.73 10.53 13.3 8.98 13.3 8.98 14.87 10.55 14.87 10.55 16.44 8.2 16.44 8.2 18 10.55 18 10.55 19.57 12.12 19.57 12.12 18 14.47 18z"/>
        <path fill="#0052B4" d="M8.75 23.04c1 .63 2.04 1 2.58 1.17.53-.16 1.57-.53 2.58-1.17 1.02-.64 1.73-1.37 2.14-2.18-.45-.32-1-.5-1.58-.5-.2 0-.42.03-.62.07-.42-.96-1.4-1.64-2.5-1.64s-2.08.67-2.5 1.64c-.2-.05-.4-.07-.62-.07-.6 0-1.13.2-1.58.5.4.8 1.12 1.55 2.13 2.18h-.03z"/>
    </g>
</svg>
