<svg xmlns="http://www.w3.org/2000/svg" width="36" height="36" viewBox="0 0 36 36">
    <g fill="none">
        <circle cx="18" cy="18" r="18" fill="#F0F0F0"/>
        <path fill="#003893" d="M18 36c5.456 0 10.344-2.427 13.645-6.26h-27.3C7.656 33.573 12.544 36 18 36zM36 18c0-9.94-8.06-18-18-18S0 8.06 0 18c0 1.586.208 3.165.62 4.696h34.76c.403-1.497.62-3.07.62-4.696z"/>
        <path fill="#D80027" d="M1.43 25.043c.347.815.753 1.6 1.21 2.348h30.716c.46-.752.865-1.537 1.211-2.348H1.43z"/>
        <path fill="#FFDA44" d="M12.866 19.174l.3.897h.943l-.763.554.3.897-.763-.554-.763.554.3-.897-.763-.554h.943l.266-.897zm0 11.74l.3.897h.943l-.763.554.3.897-.763-.554-.763.554.3-.897-.763-.554h.943l.266-.897zm-5.464-3.97l.3.897h.943l-.763.554.3.897-.763-.554-.763.554.292-.897-.763-.554h.943l.274-.897zM9.5 20.348l.3.897h.943l-.763.554.3.897-.763-.554-.763.554.292-.897-.763-.554h.943l.274-.897zM6.168 24.04H7.1l.3-.897.3.897h.943l-.763.554.3.897-.763-.554-.763.554.3-.897-.786-.554zm2.558 7.876l.3-.897-.763-.554h.943l.3-.897.3.897h.943l-.763.554.3.897-.763-.554-.797.554zm9.604-4.973l-.3.897h-.943l.763.554-.3.897.763-.554.763.554-.3-.897.763-.554h-.943l-.266-.897zm-2.1-6.595l-.3.897h-.943l.763.554-.3.897.763-.554.763.554-.3-.897.763-.554h-.943l-.266-.897zm3.323 3.692h-.943l-.3-.897-.3.897h-.943l.763.554-.3.897.763-.554.763.554-.3-.897.797-.554zm-2.56 7.876l-.3-.897.763-.554h-.943l-.3-.897-.3.897h-.943l.763.554-.3.897.763-.554.797.554z"/>
    </g>
</svg>
