<svg xmlns="http://www.w3.org/2000/svg" width="36" height="36" viewBox="0 0 36 36">
    <g fill="none">
        <path fill="#D80027" d="M36 18c0 9.94-8.06 18-18 18S0 27.94 0 18L18 0c9.94 0 18 8.06 18 18z"/>
        <path fill="#0052B4" d="M18 18V0C8.06 0 0 8.06 0 18h18z"/>
        <path fill="#F0F0F0" d="M15.652 10.534L13.454 11.568 14.624 13.698 12.237 13.241 11.934 15.653 10.271 13.879 8.608 15.653 8.306 13.241 5.919 13.698 7.089 11.568 4.891 10.534 7.09 9.5 5.92 7.37 8.307 7.827 8.61 5.417 10.272 7.2 11.935 5.426 12.237 7.836 14.624 7.379 13.454 9.509z"/>
        <circle cx="10.273" cy="10.534" r="3.351" fill="#0052B4"/>
        <path fill="#F0F0F0" d="M10.272 12.32c-.985-.003-1.782-.8-1.785-1.785.003-.985.8-1.782 1.785-1.785.985.003 1.782.8 1.785 1.785-.003.985-.8 1.782-1.785 1.785z"/>
    </g>
</svg>
