<svg xmlns="http://www.w3.org/2000/svg" width="36" height="36" viewBox="0 0 36 36">
    <g fill="none">
        <circle cx="18" cy="18" r="18" fill="#F0F0F0"/>
        <path fill="#A2001D" d="M18 0C10.558 0 4.172 4.516 1.43 10.957h33.14C31.828 4.516 25.442 0 18 0z"/>
        <path fill="#496E2D" d="M18 36c7.442 0 13.828-4.516 16.57-10.957H1.43C4.172 31.484 10.558 36 18 36z"/>
        <path fill="#0052B4" d="M35.38 13.304H.62C.208 14.835 0 16.414 0 18c0 1.586.208 3.165.62 4.696h34.76c.412-1.531.62-3.11.62-4.696 0-1.586-.208-3.165-.62-4.696z"/>
    </g>
</svg>
