<svg xmlns="http://www.w3.org/2000/svg" xmlns:xlink="http://www.w3.org/1999/xlink" width="36" height="36" viewBox="0 0 36 36">
    <defs>
        <path id="41ltxui3ra" d="M0 0H36V36H0z"/>
    </defs>
    <g fill="none" fill-rule="evenodd">
        <mask id="rzd7gpaqhb" fill="#fff">
            <use xlink:href="#41ltxui3ra"/>
        </mask>
        <path fill="#000" fill-rule="nonzero" d="M35.93 17.965c0-.794-.052-1.576-.152-2.343H15.622L5.262 5.262c-7.016 7.016-7.016 18.39 0 25.406l10.36-10.36h20.156c.1-.767.152-1.549.152-2.343z" mask="url(#rzd7gpaqhb)"/>
        <g fill="#F0F0F0" fill-rule="nonzero" mask="url(#rzd7gpaqhb)">
            <path d="M35.95 16.007c.031.06.063.12.09.18-.027-.06-.06-.12-.09-.18z"/>
        </g>
        <path fill="#D21034" fill-rule="nonzero" d="M35.778 15.622l.022.185C34.734 6.903 27.156 0 17.965 0 13.004 0 8.513 2.01 5.262 5.262l10.36 10.36h20.156z" mask="url(#rzd7gpaqhb)"/>
        <path fill="#009543" fill-rule="nonzero" d="M35.778 20.308H15.62l-10.36 10.36c3.252 3.25 7.743 5.262 12.704 5.262 9.191 0 16.77-6.903 17.835-15.807l-.022.185z" mask="url(#rzd7gpaqhb)"/>
        <path fill="#F0F0F0" fill-rule="nonzero" d="M35.861 19.743l-.027.18.027-.18z" mask="url(#rzd7gpaqhb)"/>
        <path fill="#000" fill-rule="nonzero" d="M35.894 16.674c.01.096.019.192.026.289-.007-.097-.016-.193-.026-.29zM35.81 15.807c.012.066.023.133.033.2-.01-.067-.021-.134-.033-.2zM35.85 16.187c.017.112.03.224.043.336-.012-.112-.026-.224-.042-.336zM35.946 17.965c0 .137-.003.273-.007.408.004-.135.007-.271.007-.408zM35.92 18.967c-.007.097-.016.193-.026.29.01-.097.019-.193.026-.29zM35.893 19.407c-.012.112-.026.224-.042.336.016-.112.03-.224.042-.336zM35.843 19.923c-.01.067-.021.133-.033.2.012-.067.023-.133.033-.2zM35.939 17.556c.004.136.007.272.007.409 0-.137-.003-.273-.007-.409zM35.92 17.065c.008.129.015.258.02.387-.005-.13-.012-.258-.02-.387zM35.94 18.478c-.005.129-.012.258-.02.387.008-.13.015-.258.02-.387z" mask="url(#rzd7gpaqhb)"/>
        <g fill="#FFDA44" fill-rule="nonzero" mask="url(#rzd7gpaqhb)">
            <g>
                <path d="M33.597 10.791H12.646L1.884.031c-.348.367-.725.88-.958 1.244l10.292 10.297-10.3 10.301c.203.363.647.9.96 1.25l10.768-10.77h20.953c.012-.258.015-.519.015-.78 0-.351-.01-.61-.017-.782z" transform="translate(2.316 6.386)"/>
                <path d="M2.048 15.409v-1.505c1.502 0 2.723-1.222 2.723-2.723 0-1.063-.864-1.927-1.926-1.927-.724 0-1.313.589-1.313 1.313 0 .462.377.839.84.839.261 0 .474-.213.474-.475h1.505c0 1.092-.888 1.98-1.98 1.98-1.292 0-2.343-1.052-2.343-2.344 0-1.554 1.263-2.817 2.817-2.817 1.892 0 3.431 1.539 3.431 3.43 0 2.332-1.896 4.229-4.228 4.229z" transform="translate(2.316 6.386)"/>
            </g>
        </g>
    </g>
</svg>
