<svg xmlns="http://www.w3.org/2000/svg" width="36" height="36" viewBox="0 0 36 36">
    <g fill="none">
        <circle cx="18" cy="18" r="18" fill="#F0F0F0"/>
        <path fill="#A2001D" d="M18 0C10.26 0 3.663 4.885 1.12 11.74h33.76C32.337 4.885 25.74 0 18 0z"/>
        <path fill="#3D3D3D" d="M18 36c7.74 0 14.337-4.885 16.88-11.74H1.12C3.663 31.115 10.26 36 18 36z"/>
        <path fill="#496E2D" d="M13.696 16.826l-.03.001v-.001h-3.44c.174-.674.786-1.174 1.514-1.174v-2.348c-2.16.004-3.91 1.754-3.913 3.913v1.957h5.87c.104 0 .203.04.277.114.073.074.114.173.114.277v.783H6.26v2.348h10.174v-3.13c-.005-1.511-1.229-2.735-2.74-2.74h.002zm5.87 3.522v-7.043h-2.348v9.4h3.913v-2.348l-1.565-.009zm7.825 0v-7.044h-2.348v7.044h-.783V18h-2.35v4.696h7.043v-2.348h-1.562z"/>
    </g>
</svg>
