<svg xmlns="http://www.w3.org/2000/svg" width="36" height="36" viewBox="0 0 36 36">
    <g fill="none">
        <path fill="#F0F0F0" d="M1.8 11.17C.64 13.54 0 16.2 0 19s.64 5.46 1.8 7.83L18 28.4l16.2-1.57C35.36 24.46 36 21.8 36 19s-.64-5.46-1.8-7.83L18 9.6 1.8 11.17z" transform="translate(0 -1)"/>
        <path fill="#060" d="M1.8 26.83c3.001 6.227 9.303 10.185 16.215 10.185 6.912 0 13.214-3.958 16.215-10.185H1.8z" transform="translate(0 -1)"/>
        <path fill="#D80027" d="M1.8 11.17h32.4C31.199 4.943 24.897.985 17.985.985 11.073.985 4.771 4.943 1.77 11.17h.03z" transform="translate(0 -1)"/>
        <path fill="#FFDA44" d="M14.87 23.7h6.26v-2.66l-1.25.63L18 19.8l-1.88 1.88-1.25-.63v2.65zm-3.6-3.13l.3.9h.94l-.76.55.3.9-.76-.55-.76.55.3-.9-.76-.55H11l.27-.9zm.92-3.13l.3.9h.94l-.76.55.3.9-.76-.55-.76.55.3-.9-.76-.55h.94l.26-.9zm2.57-2.34l.3.9H16l-.76.55.3.9-.76-.55-.76.55.3-.9-.76-.55h.94l.26-.9zm9.93 5.47l-.3.9h-.94l.76.55-.3.9.76-.55.76.55-.3-.9.76-.55H25l-.31-.9zm-.9-3.13l-.3.9h-.94l.76.55-.3.9.76-.55.76.55-.3-.9.76-.55h-.94l-.26-.9zm-2.58-2.34l-.3.9H20l.76.55-.3.9.76-.55.76.55-.3-.9.76-.55h-.94l-.29-.9zM18 13.92l.3.9h.94l-.76.55.3.9-.76-.55-.76.55.3-.9-.76-.55h.94l.26-.9z" transform="translate(0 -1)"/>
    </g>
</svg>
