<svg xmlns="http://www.w3.org/2000/svg" width="36" height="36" viewBox="0 0 36 36">
    <g fill="none">
        <path fill="#496E2D" d="M30.728 30.728c6.75-6.75 7.017-17.53.802-24.6L18 18 6.13 31.53c7.07 6.215 17.848 5.948 24.6-.802h-.002z"/>
        <path fill="#0052B4" d="M5.272 5.272c6.75-6.75 17.53-7.017 24.6-.802L18 18 4.47 29.87c-6.215-7.07-5.948-17.848.802-24.6v.002z"/>
        <path fill="#FFDA44" d="M29.87 4.47L4.47 29.87 5.272 30.728 6.13 31.531 31.53 6.13 30.727 5.272 29.869 4.47z"/>
        <g fill="#F0F0F0">
            <path d="M2.584.26L2.974 1.456 4.23 1.456 3.213 2.196 3.6 3.39 2.583 2.65 1.566 3.39 1.956 2.194.939 1.454 2.196 1.454zM9.006.26L9.396 1.456 10.653 1.456 9.636 2.196 10.026 3.392 9.009 2.652 7.992 3.392 8.382 2.196 7.365 1.456 8.622 1.456zM2.584 6.522L2.974 7.718 4.23 7.718 3.213 8.458 3.601 9.654 2.584 8.914 1.567 9.654 1.957 8.458.94 7.718 2.197 7.718z" transform="translate(5 6)"/>
            <path d="M2.006 0.26L2.396 1.456 3.653 1.456 2.636 2.196 3.026 3.392 2.009 2.652 0.992 3.392 1.382 2.196 0.365 1.456 1.622 1.456z" transform="translate(5 6) translate(7 6.262)"/>
            <path d="M2.006 0.26L2.396 1.456 3.653 1.456 2.636 2.196 3.026 3.392 2.009 2.652 0.992 3.392 1.382 2.196 0.365 1.456 1.622 1.456z" transform="translate(5 6) translate(3.789 3.13)"/>
        </g>
    </g>
</svg>
