<svg xmlns="http://www.w3.org/2000/svg" width="36" height="36" viewBox="0 0 36 36">
    <g fill="none">
        <circle cx="18" cy="18" r="18" fill="#F0F0F0"/>
        <path fill="#3D3D3D" d="M5.272 30.728c-7.03-7.03-7.03-18.426 0-25.456L15.652 18 5.272 30.728z"/>
        <path fill="#FFDA44" d="M15.652 18L2.387 9.036c-.413.718-.776 1.464-1.086 2.233L8.017 18l-6.715 6.73c.31.772.674 1.517 1.085 2.232L15.652 18z"/>
        <path fill="#6DA544" d="M35.848 15.652H15.652L5.272 5.272C4.149 6.394 3.179 7.66 2.387 9.036L11.334 18l-8.947 8.963c.792 1.376 1.762 2.642 2.885 3.765l10.38-10.38h20.196c.203-1.559.203-3.137 0-4.696z"/>
        <path fill="#0052B4" d="M7.04 32.28C10.181 34.698 14.036 36.006 18 36c8.316 0 15.314-5.64 17.38-13.304H16.624L7.04 32.28z"/>
        <path fill="#D80027" d="M35.38 13.304C33.314 5.64 26.316 0 18 0c-3.964-.006-7.818 1.303-10.959 3.721l9.583 9.583H35.38z"/>
    </g>
</svg>
