<svg xmlns="http://www.w3.org/2000/svg" xmlns:xlink="http://www.w3.org/1999/xlink" width="36" height="36" viewBox="0 0 36 36">
    <defs>
        <path id="sen96497pa" d="M18 0C8.06 0 0 8.06 0 18s8.06 18 18 18 18-8.06 18-18S27.94 0 18 0z"/>
        <path id="m3g3pm5b9c" d="M18 0C8.06 0 0 8.06 0 18s8.06 18 18 18 18-8.06 18-18S27.94 0 18 0z"/>
        <path id="wfg1bs31pe" d="M18 0C8.06 0 0 8.06 0 18s8.06 18 18 18 18-8.06 18-18S27.94 0 18 0z"/>
    </defs>
    <g fill="none" fill-rule="evenodd">
        <mask id="qgi9h0socb" fill="#fff">
            <use xlink:href="#sen96497pa"/>
        </mask>
        <path fill="#D90012" fill-rule="nonzero" d="M0 36L36 36 36 0 0 0z" mask="url(#qgi9h0socb)"/>
        <g>
            <mask id="ag5xqg9bad" fill="#fff">
                <use xlink:href="#m3g3pm5b9c"/>
            </mask>
            <path fill="#0033A0" fill-rule="nonzero" d="M0 24L36 24 36 12 0 12z" mask="url(#ag5xqg9bad)"/>
        </g>
        <g>
            <mask id="1ny3r9capf" fill="#fff">
                <use xlink:href="#wfg1bs31pe"/>
            </mask>
            <path fill="#F2A800" fill-rule="nonzero" d="M0 36L36 36 36 24 0 24z" mask="url(#1ny3r9capf)"/>
        </g>
    </g>
</svg>
