<svg xmlns="http://www.w3.org/2000/svg" width="36" height="36" viewBox="0 0 36 36">
    <g fill="none">
        <path fill="#FFDA44" d="M0 18C0 8.06 8.06 0 18 0s18 8.06 18 18l-18 1.565L0 18z"/>
        <path fill="#D80027" d="M2.41 27c3.112 5.38 8.93 9 15.59 9s12.48-3.62 15.59-9L18 25.826 2.41 27z"/>
        <path fill="#0052B4" d="M33.59 27c1.532-2.648 2.41-5.72 2.41-9H0c0 3.28.877 6.352 2.41 9h31.18z"/>
        <circle cx="18" cy="18" r="6.261" fill="#FFDA44"/>
        <path fill="#338AF3" d="M18 21.913c-2.16-.004-3.91-1.754-3.913-3.913v-2.348c.004-2.16 1.754-3.91 3.913-3.913 2.16.004 3.91 1.754 3.913 3.913V18c-.004 2.16-1.754 3.91-3.913 3.913z"/>
        <path fill="#3D3D3D" d="M24.26 8.61h-4.696c0-.864-.7-1.565-1.565-1.565s-1.565.7-1.565 1.565H11.74c0 .864.753 1.565 1.617 1.565h-.052c0 .864.7 1.565 1.565 1.565 0 .864.7 1.565 1.565 1.565h3.13c.864 0 1.565-.7 1.565-1.565.864 0 1.565-.7 1.565-1.565h-.052c.864 0 1.617-.7 1.617-1.565z"/>
    </g>
</svg>
