<svg xmlns="http://www.w3.org/2000/svg" width="36" height="36" viewBox="0 0 36 36">
    <g fill="none">
        <circle cx="18" cy="18" r="18" fill="#F0F0F0"/>
        <path fill="#0052B4" d="M34.88 11.74H15.652V7.043H6.26v4.696H1.12C.377 13.743-.002 15.863 0 18c-.002 2.137.377 4.257 1.12 6.261L18 25.826l16.88-1.565c.743-2.004 1.122-4.124 1.12-6.261.002-2.137-.377-4.257-1.12-6.261v.001z"/>
        <path fill="#D80027" d="M18 36c7.74 0 14.337-4.885 16.88-11.74H1.12C3.663 31.115 10.26 36 18 36z"/>
        <path fill="#F0F0F0" d="M6.26 11.74v1.565C6.26 16.9 10.957 18 10.957 18s4.696-1.1 4.696-4.696V11.74l-1.565 1.565-3.13-2.348-3.13 2.348L6.26 11.74z"/>
    </g>
</svg>
