<svg xmlns="http://www.w3.org/2000/svg" width="36" height="36" viewBox="0 0 36 36">
    <g fill="none">
        <circle cx="18" cy="18" r="18" fill="#F0F0F0"/>
        <path fill="#3D3D3D" d="M10.957 11.74H34.88C32.337 4.885 25.74 0 18 0 13.225-.006 8.645 1.892 5.273 5.273l5.684 6.467z"/>
        <path fill="#6DA544" d="M10.957 24.26H34.88C32.337 31.115 25.74 36 18 36c-4.775.006-9.355-1.892-12.727-5.273l5.684-6.466v-.001z"/>
        <path fill="#D80027" d="M5.272 5.272c-7.03 7.03-7.03 18.426 0 25.456L18 18 5.272 5.272z"/>
        <path fill="#F0F0F0" d="M7.144 14.087L8.132 16.153 10.362 15.637 9.362 17.697 11.156 19.12 8.922 19.623 8.928 21.923 7.142 20.491 5.356 21.923 5.362 19.623 3.128 19.12 4.922 17.697 3.922 15.637 6.152 16.153z"/>
    </g>
</svg>
