<svg xmlns="http://www.w3.org/2000/svg" width="36" height="36" viewBox="0 0 36 36">
    <g fill="none">
        <circle cx="18" cy="18" r="18" fill="#F0F0F0"/>
        <path fill="#338AF3" d="M6.796 32.087h22.4c1.647-1.312 3.053-2.9 4.153-4.696H2.642c1.1 1.795 2.506 3.384 4.153 4.696h.001zM18 0v3.913h11.205C26.023 1.373 22.071-.007 18 0zm0 13.304h17.38c-.446-1.654-1.127-3.235-2.022-4.696H18v4.696zM0 18c0 1.586.208 3.165.62 4.696h34.76c.403-1.497.62-3.07.62-4.696H0z"/>
        <path fill="#FFDA44" d="M15.652 10.534L13.454 11.568 14.624 13.698 12.237 13.241 11.935 15.651 10.272 13.877 8.609 15.651 8.307 13.241 5.92 13.697 7.09 11.567 4.892 10.533 7.09 9.5 5.92 7.37 8.307 7.827 8.61 5.417 10.272 7.2 11.935 5.426 12.237 7.836 14.624 7.379 13.454 9.509z"/>
    </g>
</svg>
