<svg xmlns="http://www.w3.org/2000/svg" width="36" height="36" viewBox="0 0 36 36">
    <g fill="none">
        <circle cx="18" cy="18" r="18" fill="#F0F0F0"/>
        <path fill="#FFDA44" d="M9.73 25.043l-4.457 5.684C8.645 34.108 13.225 36.007 18 36c7.44 0 13.827-4.516 16.568-10.957H9.73z"/>
        <path fill="#006C35" d="M34.596 11.022C31.87 4.547 25.466 0 18 0 13.225-.006 8.645 1.892 5.273 5.273l4.508 5.75h24.815v-.001z"/>
        <path fill="#3D3D3D" d="M3.913 13.24v9.456H35.38c.413-1.531.621-3.11.62-4.696.001-1.608-.213-3.21-.637-4.761H3.913v.001z"/>
        <path fill="#A2001D" d="M5.272 5.272c-7.03 7.03-7.03 18.426 0 25.456L18 18 5.272 5.272z"/>
        <path fill="#FFDA44" d="M7.285 13.304L8.45 16.89 12.222 16.89 9.172 19.107 10.337 22.694 7.287 20.477 4.237 22.694 5.4 19.108 2.35 16.891 6.12 16.891z"/>
        <path fill="#F0F0F0" d="M3.875 18L10.697 18 10.697 21.13 3.875 21.13z"/>
        <path fill="#3D3D3D" d="M11.988 14.41L10.881 13.303 7.285 16.9 3.69 13.304 2.582 14.41 6.182 18.003 2.582 21.603 3.689 22.695 7.285 19.095 10.881 22.695 11.988 21.603 8.388 18.003z"/>
    </g>
</svg>
