<svg xmlns="http://www.w3.org/2000/svg" width="36" height="36" viewBox="0 0 36 36">
    <g fill="none">
        <path fill="#FFDA44" d="M0 18c-.002 2.137.377 4.257 1.12 6.261l16.88.783 16.88-.783c.743-2.004 1.122-4.124 1.12-6.261.002-2.137-.377-4.257-1.12-6.261L18 10.957l-16.88.783C.377 13.743-.002 15.863 0 18z"/>
        <path fill="#D80027" d="M18 0C10.26 0 3.663 4.885 1.12 11.74h33.76C32.337 4.885 25.74 0 18 0z"/>
        <path fill="#496E2D" d="M34.88 24.26H1.12C3.663 31.115 10.26 36 18 36c7.74 0 14.337-4.885 16.88-11.74z"/>
        <path fill="#000" d="M18 11.74L19.554 16.523 24.584 16.523 20.516 19.479 22.07 24.262 18 21.305 13.93 24.261 15.484 19.478 11.416 16.522 16.446 16.522z"/>
    </g>
</svg>
