<svg xmlns="http://www.w3.org/2000/svg" width="36" height="36" viewBox="0 0 36 36">
    <g fill="none">
        <path fill="#FFDA44" d="M10.174 34.214c2.44 1.18 5.116 1.79 7.826 1.786 2.71.004 5.386-.607 7.826-1.786L27.39 18 25.826 1.786C23.386.606 20.71-.004 18 0c-2.71-.004-5.386.607-7.826 1.786L8.61 18l1.565 16.214h-.001z"/>
        <path fill="#D80027" d="M25.826 34.213C31.847 31.302 36 25.136 36 18c0-7.136-4.153-13.302-10.174-16.213v32.427-.001z"/>
        <path fill="#0052B4" d="M10.174 34.213V1.787C4.153 4.698 0 10.864 0 18c0 7.136 4.153 13.302 10.174 16.213z"/>
        <g fill="#D80027">
            <path d="M5 11.26V5h4.696v2.348c0 .408-.783 1.902-2.714 3.13-.732.465-1.49.615-1.98.783L5 11.26zM.304.304L5 .304 5 5 .304 5z" transform="translate(13 13)"/>
        </g>
        <path fill="#FF9811" d="M20.348 11.74c0-.864-.7-1.565-1.565-1.565-.285 0-.552.078-.783.21-.23-.133-.497-.21-.783-.21-.864 0-1.565.7-1.565 1.565H11.74v7.826c0 2.913 2.314 4.598 4.128 5.472-.136.232-.215.5-.215.79 0 .864.7 1.565 1.565 1.565.285 0 .552-.078.783-.21.23.133.497.21.783.21.864 0 1.565-.7 1.565-1.565 0-.288-.08-.557-.215-.79 1.814-.873 4.128-2.558 4.128-5.472V11.74H20.348zm1.565 7.826c0 .408 0 1.65-1.932 2.877-.732.465-1.49.767-1.98.935-.492-.168-1.25-.47-1.98-.935-1.932-1.228-1.932-2.47-1.932-2.877v-5.478h7.826v5.478h-.002z"/>
    </g>
</svg>
