<svg xmlns="http://www.w3.org/2000/svg" width="36" height="36" viewBox="0 0 36 36">
    <g fill="none">
        <circle cx="18" cy="18" r="18" fill="#F0F0F0"/>
        <path fill="#FFDA44" d="M30.15 4.72C26.95 1.79 22.683 0 18 0c-.757 0-1.513.047-2.264.141L7.043 10.174.57 22.51c.414 1.601 1.047 3.137 1.883 4.564L18 18 30.15 4.72z"/>
        <path fill="#6DA544" d="M32.986 27.973l-25.184 4.86C10.7 34.83 14.214 36 18 36c6.252 0 11.76-3.188 14.986-8.027z"/>
        <path fill="#D80027" d="M30.153 4.723L2.462 27.09c.722 1.232 1.588 2.373 2.579 3.401L36 18c.006-5.051-2.117-9.871-5.847-13.277z"/>
        <path fill="#0052B4" d="M0 18c-.001 1.521.19 3.036.57 4.509L15.736.14C6.864 1.255 0 8.826 0 18z"/>
    </g>
</svg>
