<svg xmlns="http://www.w3.org/2000/svg" width="24" height="24" viewBox="0 0 24 24"><g fill="none" fill-rule="evenodd"><path fill="#D54738" d="M12 0C5.383 0 0 5.383 0 12s5.383 12 12 12 12-5.383 12-12S18.617 0 12 0"/><path fill="#FFF" d="M12 21.6c-5.293 0-9.6-4.307-9.6-9.6 0-5.293 4.307-9.6 9.6-9.6 5.293 0 9.6 4.307 9.6 9.6 0 5.293-4.307 9.6-9.6 9.6"/><path fill="#D54738" fill-rule="nonzero" d="M10.502 11.947l-2.179 2.065a1.103 1.103 0 001.56 1.56l2.222-2.106 2.222 2.106a1.103 1.103 0 001.56-1.56l-2.179-2.065 2.179-2.064a1.103 1.103 0 10-1.56-1.56l-2.222 2.105-2.222-2.105a1.103 1.103 0 00-1.56 1.56l2.179 2.064z"/></g></svg>