<svg xmlns="http://www.w3.org/2000/svg" width="24" height="24" viewBox="0 0 24 24"><g fill="none" fill-rule="evenodd"><path d="M0 0h24v24H0z"/><path fill="#F59624" d="M12 0C5.383 0 0 5.383 0 12s5.383 12 12 12 12-5.383 12-12S18.617 0 12 0"/><path fill="#FFF" d="M12 21.6c-5.293 0-9.6-4.307-9.6-9.6 0-5.293 4.307-9.6 9.6-9.6 5.293 0 9.6 4.307 9.6 9.6 0 5.293-4.307 9.6-9.6 9.6"/><path fill="#F59624" fill-rule="nonzero" d="M13.2 7a1.2 1.2 0 10-2.4 0v5a2.2 2.2 0 002.2 2.2h3a1.2 1.2 0 100-2.4h-2.8V7z"/></g></svg>