<svg xmlns="http://www.w3.org/2000/svg" width="414" height="338" viewBox="0 0 230 188"><g fill="none" fill-rule="evenodd"><path d="M0 0h230v188H0z"/><g transform="translate(28 1)"><ellipse cx="87.5" cy="183.5" fill="#EBEBEB" opacity=".5" rx="87.5" ry="3.5"/><g transform="translate(29 66)"><rect width="114" height="73" x="1" y="1" fill="#FFF" stroke="#CACACA" stroke-width="2" rx="3"/><path fill="#EBEBEB" d="M2 2.997C2 2.447 2.451 2 3.002 2h109.996c.553 0 1.002.453 1.002.997V10H2V2.997z"/><path fill="#CACACA" d="M.271 10h114.498v2H.271z"/><ellipse cx="6.293" cy="6" fill="#BABABA" rx="2.009" ry="2"/><ellipse cx="12.319" cy="6" fill="#BABABA" rx="2.009" ry="2"/><ellipse cx="18.345" cy="6" fill="#BABABA" rx="2.009" ry="2"/><path fill="#D8D8D8" stroke="#CACACA" stroke-width="2" d="M24.367 9H41.45V5.998c0-.548-.451-.998-1.006-.998H25.373a1 1 0 00-1.006.998V9z"/><path fill="#D8D8D8" stroke="#CACACA" stroke-width="2" d="M45.459 9H62.54V5.998c0-.548-.45-.998-1.006-.998h-15.07a1 1 0 00-1.006.998V9z" opacity=".7"/><path fill="#FFF" d="M25.376 6h15.066v6H25.376z"/><path fill="#EBEBEB" d="M46.467 6h15.066v4H46.467z"/><path fill="#D8D8D8" stroke="#CACACA" stroke-width="2" d="M66.55 9h17.083V5.998c0-.548-.451-.998-1.006-.998h-15.07a1 1 0 00-1.007.998V9z" opacity=".7"/><path fill="#EBEBEB" d="M67.559 6h15.066v4H67.559z"/><path fill="#EBEBEB" stroke="#CACACA" stroke-width="2" d="M87.642 9h17.083V5.998c0-.548-.451-.998-1.006-.998h-15.07a1 1 0 00-1.007.998V9z" opacity=".7"/><path fill="#EBEBEB" d="M88.651 6h15.066v4H88.651z"/><path fill="#D8D8D8" d="M2.275 71H113.76v2H2.275z" opacity=".2"/></g><g transform="translate(56 97)"><path stroke="#CACACA" stroke-linecap="round" stroke-linejoin="round" stroke-width="3" d="M17.074 23.91s4.984-3.473 13.56-3.473c8.574 0 13.558 3.472 13.558 3.472"/><ellipse cx="4.017" cy="4" fill="#CACACA" rx="4.017" ry="4"/><path fill="#CACACA" d="M57.249 8a4.009 4.009 0 004.017-4c0-2.21-1.798-4-4.017-4a4.009 4.009 0 00-4.018 4c0 2.21 1.8 4 4.018 4z"/></g><g transform="translate(71)"><circle cx="18" cy="49" r="2" fill="#CACACA" fill-rule="nonzero"/><path stroke="#CACACA" stroke-linecap="round" stroke-width="2" d="M19.115 54H3.765C1.685 54 0 52.21 0 50V37.065m0-24.023V4c0-2.21 1.686-4 3.765-4h24.47C30.315 0 32 1.79 32 4v27.074M19.088 44H0M13 6h5"/><path fill="#CACACA" d="M11.537 21.688c.088-2.217 1.602-3.897 4.434-3.897 2.578 0 4.316 1.533 4.316 3.623 0 1.514-.762 2.578-2.05 3.35-1.26.742-1.622 1.26-1.622 2.265v.596h-2.021l-.01-.781c-.049-1.377.547-2.256 1.885-3.057 1.181-.713 1.601-1.28 1.601-2.285 0-1.104-.869-1.914-2.207-1.914-1.347 0-2.217.81-2.304 2.1h-2.022zm4.082 10.458c-.713 0-1.28-.546-1.28-1.26 0-.712.567-1.259 1.28-1.259.733 0 1.29.547 1.29 1.26s-.557 1.26-1.29 1.26z"/></g><path fill="#CACACA" d="M51.682 51.666c-.956-1.667-.483-3.52 1.573-4.755 1.915-1.15 3.82-.846 4.738.68.607 1.012.54 2.009-.07 3.132-.58 1.05-.63 1.528-.237 2.184l.214.355-1.775 1.066-.247-.38c-.718-1-.712-1.823-.114-2.921.554-1.035.618-1.52.236-2.156-.382-.636-1.17-.792-1.932-.334-.77.463-.986 1.258-.571 2.039l-1.815 1.09zm7.277 5.316c-.602.362-1.369.194-1.723-.396-.354-.589-.143-1.345.46-1.707.61-.366 1.376-.198 1.73.392.354.589.143 1.345-.467 1.71z"/><g transform="translate(150 26)"><rect width="1.148" height="3.887" x="4.479" y="3.1" fill="#CACACA" rx=".574" transform="scale(-1 1) rotate(45 0 -7.154)"/><rect width="1.148" height="3.887" x="4.479" y="3.1" fill="#CACACA" rx=".574" transform="rotate(45 5.053 5.044)"/><path stroke="#CACACA" stroke-width="2" d="M5 9a4 4 0 100-8 4 4 0 000 8z"/></g><g fill="#CACACA" transform="translate(11 72)"><rect width="2.009" height="6.802" x="2.588" y=".175" rx="1.004" transform="scale(-1 1) rotate(45 0 -5.095)"/><rect width="2.009" height="6.802" x="2.588" y=".175" rx="1.004" transform="rotate(45 3.592 3.576)"/></g><path fill="#FFF" stroke="#CACACA" stroke-width="2" d="M102.392 55.429H134a1 1 0 001-1v-16.37a1 1 0 00-1-1H97a1 1 0 00-1 1V61l6.392-5.571zM70.1 29.857H41a1 1 0 01-1-1v-9.571a1 1 0 011-1h34a1 1 0 011 1V35l-5.9-5.143z"/><path stroke="#CACACA" stroke-width="2" d="M61 7a2 2 0 100-4 2 2 0 000 4z"/><path fill="#CACACA" d="M147.5 49a1.5 1.5 0 100-3 1.5 1.5 0 000 3z"/><path stroke="#CACACA" stroke-dasharray="5,3" stroke-linecap="round" stroke-linejoin="round" stroke-width="2" d="M112.748 26.596s5.083 4.542 7.655 1.128c2.572-3.413-3.439-8.514-1.429-11.182 2.01-2.667 8.503 1.896 11.49-1.184 2.986-3.08-5.844-8.122-2.652-12.358"/><path stroke="#979797" stroke-width="2" d="M42.764 54.72L32.236 40.418l-2.504 10.848-14.837-15.172" opacity=".5"/></g></g></svg>