<svg xmlns="http://www.w3.org/2000/svg" width="21" height="26" viewBox="0 0 21 26"><g fill="none" fill-rule="evenodd"><path d="M-6-6h36v36H-6z" opacity=".05"/><path fill="#08A652" fill-rule="nonzero" d="M3 11V3.006A3.001 3.001 0 015.993 0h12.014A3.005 3.005 0 0121 3.001V19a2.997 2.997 0 01-2.993 3H13v-2h5.007A.997.997 0 0019 18.999V3c0-.547-.453-1-.993-1H5.993C5.448 2 5 2.45 5 3.006V11H3zm0-7.994A3.001 3.001 0 015.993 0h12.014A3.005 3.005 0 0121 3.001V19a2.997 2.997 0 01-2.993 3H13v-2h5.007A.997.997 0 0019 18.999V3c0-.547-.453-1-.993-1H5.993C5.448 2 5 2.45 5 3.006V11H3V3.006z"/><path fill="#505A66" d="M5.034 13.11v8.584l1.12-1.12a1 1 0 111.415 1.414l-2.828 2.828a1.01 1.01 0 01-.125.106l-.063.042-.032.019a1.016 1.016 0 01-.064.033l-.01.004a.993.993 0 01-.023.01l-.024.01a.946.946 0 01-.216.058l-.065.008h-.015c-.01.002-.018.002-.027.002l-.043.001a.995.995 0 01-.204-.02l-.056-.014a1.048 1.048 0 01-.164-.06l.02.01a.993.993 0 01-.01-.005l-.01-.004a1.042 1.042 0 01-.168-.1l-.015-.012a.996.996 0 01-.006-.004l-.004-.004-.019-.015.008.006-.024-.02-.055-.05-2.829-2.829a1 1 0 111.414-1.414l1.121 1.12V13.11h2zM13.997 10a1 1 0 01.996.883L15 11c0 .552-.438 1-1.003 1H9.003A.999.999 0 018 11c0-.552.438-1 1.003-1h4.994zm1.006-4c.511 0 .933.383.99.883L16 7c0 .552-.453 1-.997 1H8.997A.996.996 0 018 7c0-.552.453-1 .997-1h6.006z"/></g></svg>