<svg xmlns="http://www.w3.org/2000/svg" xmlns:xlink="http://www.w3.org/1999/xlink" width="36" height="36" viewBox="0 0 36 36">
    <defs>
        <path id="082g22ui5a" d="M23 28v2h-2v-2h2zm-4 0v2h-2v-2h2zm-4 0v2h-2v-2h2zM26.01 6C27.108 6 28 6.897 28 8.005V30h-2l.002-22H9.991c.012 0 .009.003.009.005V30H8V8.005C8 6.898 8.898 6 9.99 6z"/>
        <path id="893ujtrexb" d="M18 20c.552 0 1 .448 1 1s-.448 1-1 1h-4c-.552 0-1-.448-1-1s.448-1 1-1h4zm4-4c.552 0 1 .448 1 1s-.448 1-1 1h-8c-.552 0-1-.448-1-1s.448-1 1-1h8zm0-4c.552 0 1 .448 1 1s-.448 1-1 1h-8c-.552 0-1-.448-1-1s.448-1 1-1h8z"/>
    </defs>
    <g fill="none" fill-rule="evenodd">
        <path d="M0 0H36V36H0z"/>
        <use fill="#000" xlink:href="#082g22ui5a"/>
        <use fill="#262626" xlink:href="#893ujtrexb"/>
    </g>
</svg>
