<svg xmlns="http://www.w3.org/2000/svg" width="24" height="24" viewBox="0 0 24 24"><g fill="none" fill-rule="evenodd"><path d="M0 0h24v24H0z"/><path fill="#D6DAE0" d="M7.167 3C6.525 3 6 3.506 6 4.125v15.75C6 20.494 6.525 21 7.167 21h11.666c.642 0 1.167-.506 1.167-1.125V8l-5-5H7.167z"/><path fill="#505A66" d="M16.25 8H20l-5-5v3.75c0 .688.563 1.25 1.25 1.25zm-7.277 6.564v-2.683H8V11h2.974v.88H10v2.684H8.973zm2.255 0l.962-1.833L11.304 11h1.192l.514 1.07.525-1.07h1.17l-.936 1.721 1.003 1.843h-1.217l-.59-1.135-.556 1.135h-1.18zm4.771 0v-2.683h-.973V11H18v.88h-.973v2.684H16z"/></g></svg>