<svg xmlns="http://www.w3.org/2000/svg" width="24" height="24" viewBox="0 0 24 24"><g fill="none" fill-rule="evenodd"><path d="M0 0h24v24H0z"/><g fill-rule="nonzero"><path fill="#4C63B6" d="M3 7.72v8.578L15 22V2z"/><path fill="#FFF" d="M6.456 15L5.28 9.4h1.136l.656 3.216c.072.36.104.632.16 1.008.096-.376.144-.648.24-1.008l.92-3.216h1.152l.904 3.184c.104.368.152.656.256 1.032.048-.376.088-.656.16-1.024l.624-3.192H12.6L11.432 15h-1.28l-1.2-4.168L7.744 15H6.456z"/></g><path fill="#D2DBE0" fill-rule="nonzero" d="M15 5h6v14h-6z"/></g></svg>