<svg xmlns="http://www.w3.org/2000/svg" width="24" height="24" viewBox="0 0 24 24"><g fill="none" fill-rule="evenodd"><path d="M0 0h24v24H0z"/><path stroke="#CB1906" stroke-width="1.5" d="M12.075 4.218c.377.152.293.382.169 1.464-.128 1.121-.553 3.163-1.374 5.167-.82 2.007-2.04 3.977-3.101 5.437-1.06 1.458-1.97 2.406-2.66 2.953-.696.547-1.176.692-1.49.742-.311.05-.453 0-.537-.145-.084-.146-.113-.39-.04-.68.07-.294.239-.635.718-1.07.484-.438 1.276-.973 2.38-1.473 1.106-.498 2.52-.96 3.682-1.275a27.891 27.891 0 012.86-.62 22.724 22.724 0 012.138-.279 12.8 12.8 0 013.754.265c.538.122.992.269 1.388.5.395.23.736.547.905.9.172.353.172.742.03 1.021-.142.28-.426.45-.75.546a1.986 1.986 0 01-1.133 0c-.44-.121-.951-.388-1.488-.742-.537-.352-1.104-.788-1.84-1.47a30.87 30.87 0 01-2.407-2.505c-.764-.9-1.39-1.775-1.815-2.516a8.995 8.995 0 01-.834-1.959c-.185-.607-.326-1.215-.382-1.762a5.749 5.749 0 01.027-1.42c.057-.391.144-.682.284-.876a.98.98 0 01.482-.341c.142-.05.227-.05.312-.06.084-.012.168-.037.297 0 .124.032.288.125.425.198z"/></g></svg>