<svg width="32" height="32" viewBox="0 0 32 32" version="1.1" xmlns="http://www.w3.org/2000/svg"><g id="common-status-waiting-◆-[SL]-Symbols" stroke="none" stroke-width="1" fill="none" fill-rule="evenodd"><g id="common-status-waiting-SERVICES-/-STATUSES-/-Waiting"><g id="common-status-waiting-Processing"><path id="common-status-waiting-Rectangle-3" d="M0 0h32v32H0z"/><path d="M16.263 18.827c-2.981 0-5.215 2.113-6.677 6.943H22.94c-1.462-4.83-3.696-6.943-6.677-6.943zm0-5.654c6.879 0 11.212 5.318 13.04 14.894a2.827 2.827 0 01-2.777 3.357H6a2.827 2.827 0 01-2.777-3.357c1.828-9.576 6.16-14.894 13.04-14.894zm0-.403c2.981 0 5.215-2.113 6.677-6.943H9.586c1.462 4.83 3.696 6.943 6.677 6.943zm0 5.654c-6.88 0-11.212-5.319-13.04-14.894A2.827 2.827 0 016 .173h20.526a2.827 2.827 0 012.777 3.357c-1.828 9.575-6.161 14.894-13.04 14.894z" id="common-status-waiting-Combined-Shape-Copy" fill="#F59624" fill-rule="nonzero"/></g></g></g></svg>