<svg class="icon" xmlns="http://www.w3.org/2000/svg" width="16" height="16" viewBox="0 0 16 16"><path fill-rule="evenodd" d="M1 1.999C1 1.447 1.443 1 1.999 1h1.002c.552 0 .999.443.999.999v1.002A.996.996 0 013.001 4H1.999A.996.996 0 011 3.001V1.999zm0 5C1 6.447 1.443 6 1.999 6h1.002c.552 0 .999.443.999.999v1.002A.996.996 0 013.001 9H1.999A.996.996 0 011 8.001V6.999zm0 5c0-.552.443-.999.999-.999h1.002c.552 0 .999.443.999.999v1.002a.996.996 0 01-.999.999H1.999A.996.996 0 011 13.001v-1.002zm5-10C6 1.447 6.446 1 6.998 1h7.004c.551 0 .998.443.998.999v1.002a.998.998 0 01-.998.999H6.998A.995.995 0 016 3.001V1.999zm0 5C6 6.447 6.446 6 6.998 6h7.004c.551 0 .998.443.998.999v1.002a.998.998 0 01-.998.999H6.998A.995.995 0 016 8.001V6.999zm0 5c0-.552.446-.999.998-.999h7.004c.551 0 .998.443.998.999v1.002a.998.998 0 01-.998.999H6.998A.995.995 0 016 13.001v-1.002z"/></svg>