<svg xmlns="http://www.w3.org/2000/svg" width="400" height="320" viewBox="105 45 20 180"><g fill="none" fill-rule="evenodd"><path d="M0 0h230v218H0z"/><g transform="translate(28)"><g transform="translate(29 96)"><rect width="114" height="73" x="1" y="1" fill="#FFF" stroke="#CACACA" stroke-width="2" rx="3"/><path fill="#EBEBEB" d="M2 2.997C2 2.447 2.451 2 3.002 2h109.996c.553 0 1.002.453 1.002.997V10H2V2.997z"/><path fill="#CACACA" d="M.271 10h114.498v2H.271z"/><ellipse cx="6.293" cy="6" fill="#BABABA" rx="2.009" ry="2"/><ellipse cx="12.319" cy="6" fill="#BABABA" rx="2.009" ry="2"/><ellipse cx="18.345" cy="6" fill="#BABABA" rx="2.009" ry="2"/><path fill="#D8D8D8" stroke="#CACACA" stroke-width="2" d="M24.367 9H41.45V5.998c0-.548-.451-.998-1.006-.998H25.373a1 1 0 00-1.006.998V9z"/><path fill="#D8D8D8" stroke="#CACACA" stroke-width="2" d="M45.459 9H62.54V5.998c0-.548-.45-.998-1.006-.998h-15.07a1 1 0 00-1.006.998V9z" opacity=".7"/><path fill="#FFF" d="M25.376 6h15.066v6H25.376z"/><path fill="#EBEBEB" d="M46.467 6h15.066v4H46.467z"/><path fill="#D8D8D8" stroke="#CACACA" stroke-width="2" d="M66.55 9h17.083V5.998c0-.548-.451-.998-1.006-.998h-15.07a1 1 0 00-1.007.998V9z" opacity=".7"/><path fill="#EBEBEB" d="M67.559 6h15.066v4H67.559z"/><path fill="#EBEBEB" stroke="#CACACA" stroke-width="2" d="M87.642 9h17.083V5.998c0-.548-.451-.998-1.006-.998h-15.07a1 1 0 00-1.007.998V9z" opacity=".7"/><path fill="#EBEBEB" d="M88.651 6h15.066v4H88.651z"/><path fill="#D8D8D8" d="M2.275 71H113.76v2H2.275z" opacity=".2"/></g><ellipse cx="87.5" cy="213.5" fill="#EBEBEB" opacity=".5" rx="87.5" ry="3.5"/><g transform="translate(56.384 127)"><ellipse cx="4.017" cy="4" fill="#CACACA" rx="4.017" ry="4"/><path fill="#CACACA" d="M57.249 8a4.009 4.009 0 004.017-4c0-2.21-1.798-4-4.017-4a4.009 4.009 0 00-4.018 4c0 2.21 1.8 4 4.018 4z"/><path stroke="#CACACA" stroke-linecap="round" stroke-linejoin="round" stroke-width="3" d="M17.074 20.437s4.984 3.472 13.56 3.472c8.574 0 13.558-3.472 13.558-3.472"/></g><path fill="#F7F7F7" d="M63.538 94c-.213-4.69-3.692-8.741-8.509-9.504-5.508-.873-10.68 2.885-11.553 8.393A10.21 10.21 0 0043.362 94h-7.909a18.17 18.17 0 01.973-5.389l-3.526-4.1a2 2 0 01-.06-2.536l3.523-4.508a2 2 0 012.474-.555l4.847 2.436a17.933 17.933 0 0110.102-2.878l2.817-4.631a2 2 0 012.392-.84l5.376 1.956a2 2 0 011.293 2.182l-.824 5.39a18.079 18.079 0 015.866 8.81l4.973 1.268a2 2 0 011.503 2.042L77.112 94H63.537z"/><path stroke="#D4D4D4" stroke-linecap="round" stroke-width="2" d="M35.503 93.071a18.248 18.248 0 01.923-4.46l-3.526-4.1a2 2 0 01-.06-2.536l3.523-4.508a2 2 0 012.474-.555l4.847 2.436a17.933 17.933 0 0110.102-2.878l2.817-4.631a2 2 0 012.392-.84l5.376 1.956a2 2 0 011.293 2.182l-.824 5.39a18.079 18.079 0 015.866 8.81l4.973 1.268a2 2 0 011.503 2.042l-.02.368"/><path stroke="#D4D4D4" stroke-linecap="round" stroke-width="2" d="M43.459 93l.017-.11c.872-5.509 6.045-9.267 11.553-8.394 4.471.708 7.79 4.25 8.414 8.504"/><path fill="#F7F7F7" d="M129.327 94H83.115a26.14 26.14 0 01-2.288-6.243l-5.952-1.343a2 2 0 01-1.555-2.09l.67-9.574a2 2 0 011.83-1.854l6.152-.507a26.339 26.339 0 012.686-5.105 26.3 26.3 0 014.263-4.895l-1.772-5.694a2 2 0 011.033-2.392l8.625-4.207a2 2 0 012.521.658l3.604 5.202a25.988 25.988 0 0111.027.904l4.443-4.813a2 2 0 012.588-.301l7.956 5.366a2 2 0 01.69 2.513l-2.845 6.024a26.012 26.012 0 014.835 9.99l6.905 1.558a2 2 0 011.555 2.09l-.67 9.574a2 2 0 01-1.83 1.854l-7.019.578c-.358.917-.771 1.82-1.24 2.707zm-28.199-4.529c4.19 2.826 9.885 1.708 12.722-2.497 2.836-4.205 1.739-9.905-2.45-12.73-4.19-2.827-9.886-1.709-12.723 2.496-2.836 4.205-1.739 9.905 2.451 12.731z"/><path stroke="#D4D4D4" stroke-linecap="round" stroke-width="2" d="M82.623 93a26.166 26.166 0 01-1.796-5.243l-5.952-1.343a2 2 0 01-1.555-2.09l.67-9.574a2 2 0 011.83-1.854l6.152-.507a26.339 26.339 0 012.686-5.105 26.3 26.3 0 014.263-4.895l-1.772-5.694a2 2 0 011.033-2.392l8.625-4.207a2 2 0 012.521.658l3.604 5.202a25.988 25.988 0 0111.027.904l4.443-4.813a2 2 0 012.588-.301l7.956 5.366a2 2 0 01.69 2.513l-2.845 6.024a26.012 26.012 0 014.835 9.99l6.905 1.558a2 2 0 011.555 2.09l-.67 9.574a2 2 0 01-1.83 1.854l-7.019.578c-.224.575-.47 1.144-.738 1.707"/><path stroke="#D4D4D4" stroke-width="2" d="M101.128 89.471c4.19 2.826 9.885 1.708 12.722-2.497 2.836-4.205 1.739-9.905-2.45-12.73-4.19-2.827-9.886-1.709-12.723 2.496-2.836 4.205-1.739 9.905 2.451 12.731z"/></g></g></svg>