<svg xmlns="http://www.w3.org/2000/svg" width="64" height="64" viewBox="0 0 64 64"><g fill="none" fill-rule="evenodd"><path d="M0 0h64v64H0z"/><g transform="translate(3 9)"><rect width="39" height="26" x="18" y="22" stroke="#278433" stroke-width="2" rx="2"/><circle cx="38" cy="35" r="8" stroke="#278433" stroke-width="2"/><path stroke="#4C6470" stroke-linecap="round" stroke-width="2" d="M43.937 14.844L41 11.906 43.906 9"/><path stroke="#4C6470" stroke-linecap="round" stroke-width="2" d="M53.014 18.008c0-.371-.031-.866-.094-1.484-.101-.988-.738-2.067-1.558-2.887-1.073-1.073-2.457-1.615-3.836-1.615H43"/><path stroke="#4C6470" stroke-linecap="round" stroke-linejoin="round" stroke-width="2" d="M19 0l17 12H2z"/><rect width="1" height="15" x="4.5" y="15.5" fill="#D8D8D8" stroke="#4C6470" rx=".5"/><rect width="1" height="15" x="11.5" y="15.5" fill="#D8D8D8" stroke="#4C6470" rx=".5"/><rect width="1" height="3" x="25.5" y="15.5" fill="#D8D8D8" stroke="#4C6470" rx=".5"/><rect width="1" height="3" x="18.5" y="15.5" fill="#D8D8D8" stroke="#4C6470" rx=".5"/><rect width="1" height="3" x="32.5" y="15.5" fill="#D8D8D8" stroke="#4C6470" rx=".5"/><rect width="13" height="2" y="29" fill="#4C6470" rx="1"/></g></g></svg>