<svg xmlns="http://www.w3.org/2000/svg" width="64" height="64" viewBox="0 0 64 64"><g fill="none" fill-rule="evenodd"><path d="M0 0h64v64H0z"/><g stroke-width="2" transform="translate(10 6)"><rect width="39" height="46" stroke="#4C6470" rx="4"/><path stroke="#4C6470" stroke-linecap="round" d="M43.03 4.36c.604.69.97 1.598.97 2.594v40.12C44 49.242 42.25 51 40.104 51H8.932c-.98 0-1.874-.362-2.559-.963M17 12h16M17 24h16"/><path stroke="#278433" stroke-linecap="round" d="M7 11.636L8.5 13l2.5-3M7 23.636L8.5 25l2.5-3M7 34.636L8.5 36l2.5-3"/><path stroke="#4C6470" stroke-linecap="round" d="M17 35h16"/></g></g></svg>