<svg xmlns="http://www.w3.org/2000/svg" width="64" height="64" viewBox="0 0 64 64"><g fill="none" fill-rule="evenodd"><path d="M0 0h64v64H0z"/><g stroke-width="2" transform="translate(4 8)"><rect width="39" height="26" x="17" y="23" stroke="#278433" rx="2"/><circle cx="37" cy="36" r="8" stroke="#278433"/><path stroke="#278433" stroke-linecap="round" d="M42.937 15.844L40 12.906 42.906 10"/><path stroke="#278433" stroke-linecap="round" d="M52.014 19.008c0-.371-.031-.866-.094-1.484-.101-.988-.738-2.067-1.558-2.887-1.073-1.073-2.457-1.615-3.836-1.615H42"/><g stroke="#4C6470"><path stroke-linecap="round" d="M11.057 31H2a2 2 0 01-2-2V2a2 2 0 012-2h40a2 2 0 012 2v2.06"/><path stroke-linecap="square" d="M6 8h28"/></g></g></g></svg>