<svg xmlns="http://www.w3.org/2000/svg" width="64" height="64" viewBox="0 0 64 64"><g fill="none" fill-rule="evenodd"><path d="M0 0h64v64H0z"/><g transform="translate(5 22)"><path stroke="#4C6470" stroke-linecap="round" stroke-linejoin="round" stroke-width="2" d="M7.991 0H2a2 2 0 00-2 2v4h36"/><path stroke="#4C6470" stroke-width="2" d="M0 6h36a2 2 0 012 2v23a2 2 0 01-2 2H2a2 2 0 01-2-2V6z"/><circle cx="33" cy="20" r="2" fill="#4C6470" fill-rule="nonzero"/></g><g stroke="#278433" stroke-linecap="round" stroke-width="2"><path d="M22 24.003V18a1 1 0 011-1h35a1 1 0 011 1v23a1 1 0 01-1 1H47.045"/><path d="M17 24.028V10a1 1 0 011-1h35a1 1 0 011 1v3.062m-7 20.183a7.5 7.5 0 00-11.614-9.23"/></g></g></svg>