<svg xmlns="http://www.w3.org/2000/svg" width="64" height="64" viewBox="0 0 64 64"><g fill="none" fill-rule="evenodd"><path d="M0 0h64v64H0z"/><g transform="translate(7 7)"><circle cx="25" cy="25" r="25" stroke="#278433" stroke-width="2"/><path fill="#4C6470" d="M19 24.78h1.732V17h4.463c.83 0 1.585.093 2.268.28.683.187 1.269.472 1.757.854.487.382.87.866 1.146 1.451.276.586.414 1.285.414 2.098s-.146 1.52-.439 2.122a4.254 4.254 0 01-1.195 1.5 5.091 5.091 0 01-1.78.89 8.051 8.051 0 01-2.22.293h-2.463v2.463h3.927v1.61h-3.927V34h-1.951v-3.439H19v-1.61h1.732v-2.463H19V24.78zm6.195 0c1.122 0 2.004-.256 2.646-.768.643-.512.964-1.288.964-2.33 0-1.04-.321-1.796-.964-2.267-.642-.472-1.524-.708-2.646-.708h-2.512v6.073h2.512z"/></g></g></svg>