<svg xmlns="http://www.w3.org/2000/svg" width="64" height="64" viewBox="0 0 64 64"><g fill="none" fill-rule="evenodd"><path d="M0 0h64v64H0z"/><g transform="translate(10 6)"><rect width="44" height="52" stroke="#4C6470" stroke-width="2" rx="2"/><path fill="#278433" d="M35.905 44.388h-1.94a42.755 42.755 0 01-.007-.51c0-.628.104-1.145.312-1.551.208-.406.624-.862 1.247-1.369.624-.507.996-.839 1.118-.996.188-.248.281-.522.281-.821 0-.416-.166-.772-.498-1.069-.332-.296-.78-.445-1.342-.445-.542 0-.996.155-1.361.464-.365.31-.616.781-.753 1.415L31 39.262c.056-.907.442-1.678 1.16-2.311.717-.634 1.659-.951 2.825-.951 1.227 0 2.203.32 2.928.962.725.641 1.087 1.388 1.087 2.24 0 .471-.133.917-.4 1.338-.265.42-.834.994-1.706 1.719-.452.375-.732.676-.84.904-.11.229-.16.637-.15 1.225zm-1.94 2.874v-2.137h2.138v2.137h-2.137z"/><path stroke="#4C6470" stroke-linecap="round" stroke-linejoin="round" stroke-width="2" d="M14.5 6L23 21H6z"/><path stroke="#4C6470" stroke-linecap="round" stroke-width="2" d="M29 21h9M6 30h32M6 35h18M6 40h10M29 6h9m-9 10h7m-7-5h7"/></g></g></svg>