<svg xmlns="http://www.w3.org/2000/svg" width="64" height="64" viewBox="0 0 64 64"><g fill="none" fill-rule="evenodd"><path d="M0 0h64v64H0z"/><g stroke-width="2"><path stroke="#278433" d="M38.266 58l4.077-5.757 7.022-.109.954-7.008 6.17-3.385-2.39-6.654L58 29.201l-5.187-4.773.74-7.036-6.794-1.798-2.591-6.573-6.842 1.586L32 6l-5.326 4.607-6.843-1.586-2.59 6.573-6.794 1.798.74 7.036L6 29.202l3.902 5.886-2.39 6.653 6.17 3.385.953 7.008 7.022.109L25.734 58 32 54.81z"/><g stroke="#4C6470" transform="translate(24 25)"><circle cx="3.471" cy="2.777" r="2.777"/><path stroke-linecap="round" d="M15.273 0L.69 14.583"/><circle cx="12.496" cy="11.802" r="2.777"/></g></g></g></svg>