<svg xmlns="http://www.w3.org/2000/svg" width="64" height="64" viewBox="0 0 64 64"><g fill="none" fill-rule="evenodd"><path d="M0 0h64v64H0z"/><g stroke="#278433" stroke-width="2"><path stroke-linecap="round" d="M17 23.987V11a2 2 0 012-2h38a2 2 0 012 2v26a2 2 0 01-2 2h-8.025"/><path d="M17 15h42m-42 4h42"/></g><g transform="translate(5 22)"><path stroke="#4C6470" stroke-linecap="round" stroke-linejoin="round" stroke-width="2" d="M8.017 0H2.056C.92 0 0 .895 0 2v4h37"/><path stroke="#4C6470" stroke-width="2" d="M0 6h36.947C38.081 6 39 6.895 39 8v23c0 1.105-.919 2-2.053 2H2.053C.919 33 0 32.105 0 31V6z"/><circle cx="34" cy="20" r="2" fill="#4C6470" fill-rule="nonzero"/></g></g></svg>