<svg xmlns="http://www.w3.org/2000/svg" width="64" height="64" viewBox="0 0 64 64"><g fill="none" fill-rule="evenodd"><path d="M0 0h64v64H0z"/><path stroke="#278433" stroke-linecap="round" stroke-linejoin="round" stroke-width="2" d="M38.507 59l4.234-5.979 7.292-.113.99-7.277 6.407-3.515-2.482-6.91L59 29.094l-5.386-4.957.768-7.307-7.056-1.867-2.69-6.826-7.105 1.647L32 5l-5.53 4.784-7.107-1.647-2.69 6.826-7.055 1.867.768 7.307L5 29.095l4.052 6.112-2.482 6.91 6.407 3.514.99 7.277 7.292.113L25.493 59 32 55.688z"/><g stroke="#4C6470" stroke-width="2" transform="translate(31 26)"><ellipse cx="3.037" cy="2.407" rx="2.43" ry="2.407"/><path stroke-linecap="round" d="M13.364 0L.604 12.638"/><ellipse cx="10.934" cy="10.228" rx="2.43" ry="2.407"/></g><path fill="#4C6470" stroke="#4C6470" stroke-width=".15" d="M28.065 33.576c0 2.256-.37 3.937-1.111 5.041-.747 1.113-1.915 1.669-3.496 1.669-1.56 0-2.721-.544-3.475-1.631-.749-1.08-1.135-2.687-1.161-4.82v-2.557c0-2.228.37-3.888 1.111-4.979.747-1.098 1.919-1.647 3.506-1.647 1.573 0 2.737.53 3.484 1.59.743 1.052 1.122 2.669 1.142 4.85v2.484zm-1.98-2.618c0-1.61-.216-2.78-.643-3.508-.422-.718-1.086-1.075-2.003-1.075-.911 0-1.569.355-1.984 1.07-.42.725-.64 1.848-.653 3.368v3.063c0 1.617.224 2.807.668 3.57.438.753 1.098 1.127 1.988 1.127.878 0 1.525-.352 1.95-1.06.43-.719.657-1.859.677-3.42v-3.135z"/></g></svg>