<svg xmlns="http://www.w3.org/2000/svg" width="32" height="32" viewBox="0 0 32 32"><g fill="#000" fill-rule="evenodd"><path d="M26.273 19.696a5.023 5.023 0 01-3.379-1.37c-.974.878-2.154 1.4-3.517 1.379a4.977 4.977 0 01-3.37-1.364 5.107 5.107 0 01-3.53 1.372 5.057 5.057 0 01-3.365-1.353c-.142.132-.31.27-.5.407a4.983 4.983 0 01-3.008.954 5.032 5.032 0 01-4.563-3.075 2.57 2.57 0 01-.516-.097 5.475 5.475 0 01-.322-1.924C.242 11.7 2.59 9.334 5.478 9.23c.08.118.166.263.24.44h.024a5.028 5.028 0 013.446 1.445l-.04-.71a5.46 5.46 0 013.205-1.18c.044.066.16.22.258.441 1.264.017 2.555.575 3.45 1.432l-.038-.675A5.377 5.377 0 0119.25 9.22c.08.116.162.261.238.439h.024c1.273.017 2.543.6 3.453 1.468l-.046-.715a5.475 5.475 0 013.228-1.206c.044.065.231.442.261.442 2.698.126 4.85 1.74 4.961 5.095.084 2.767-2.328 4.99-5.096 4.953m-3.386-9.514a5.619 5.619 0 00-3.366-1.169 5.612 5.612 0 00-3.531 1.179 5.633 5.633 0 00-3.371-1.17 5.646 5.646 0 00-3.516 1.163 5.651 5.651 0 00-3.353-1.16 5.687 5.687 0 00-5.749 5.597c-.042 3.123 2.471 5.701 5.595 5.744A5.623 5.623 0 009.113 19.2a5.637 5.637 0 003.357 1.162 5.633 5.633 0 003.533-1.18 5.6 5.6 0 003.365 1.17 5.639 5.639 0 003.531-1.175 5.661 5.661 0 003.366 1.169c3.125.039 5.706-2.47 5.75-5.593.042-3.125-2.473-5.706-5.597-5.752a5.639 5.639 0 00-3.53 1.182z"/><path d="M5.617 18.873a4.187 4.187 0 01-4.122-4.232 4.19 4.19 0 014.234-4.12c.857.011 1.65.282 2.308.734a5.646 5.646 0 00-1.165 3.362 5.621 5.621 0 001.165 3.511c-.51.336-1.374.757-2.42.745M7.4 16.546a5.32 5.32 0 01-.324-1.929A5.42 5.42 0 018.25 11.31c.279-.009.561-.013.723-.013a4.743 4.743 0 00-3.237-1.34 4.755 4.755 0 00-4.808 4.677 4.754 4.754 0 003.702 4.688c.072-.093.154-.193.234-.294a4.373 4.373 0 003.447-.817l.659.013a5.123 5.123 0 01-1.06-1.585 2.513 2.513 0 01-.511-.092"/><path d="M9.112 17.066a4.136 4.136 0 01-.744-2.429c.012-.86.283-1.656.74-2.315a4.17 4.17 0 01.004 4.744m.75-3.725c.09-.234.256-.36.256-.36-.153-.55-.598-1.128-1.003-1.543a4.827 4.827 0 00-1.313 3.19c-.022.838.3 2.164.937 2.903.122.142.218.3.384.445l.017-.602c.61-.728.925-1.665.937-2.615a4.405 4.405 0 00-.214-1.418m6.134 3.698a4.17 4.17 0 01-.004-4.7c.465.687.735 1.52.725 2.407a4.198 4.198 0 01-.72 2.293m.73-3.705c.09-.235.26-.361.26-.361-.134-.47-.61-1.155-.99-1.534a4.693 4.693 0 00-1.292 3.183 4.736 4.736 0 001.316 3.338l.015-.563c.51-.82.894-1.61.906-2.646a4.309 4.309 0 00-.215-1.417"/><path d="M19.388 18.856a4.163 4.163 0 01-2.329-.743 5.636 5.636 0 001.152-3.346 5.616 5.616 0 00-1.16-3.504 4.142 4.142 0 012.45-.755c.86.013 1.66.288 2.318.744a5.642 5.642 0 00-1.151 3.346 5.649 5.649 0 001.159 3.507c-.508.336-1.381.768-2.439.75m1.805-2.33a5.454 5.454 0 01.854-5.234l.71.004c-.885-.83-2.004-1.335-3.247-1.353a4.73 4.73 0 00-3.324 1.3 4.993 4.993 0 011.378 3.517 5.094 5.094 0 01-1.357 3.382 4.7 4.7 0 002.194 1.167c.073-.096.154-.196.235-.298.242.044.494.069.747.072 1.075.018 1.98-.376 2.748-.893l.605-.017a5.162 5.162 0 01-1.03-1.551 2.384 2.384 0 01-.513-.095m5.091 2.321a4.144 4.144 0 01-2.323-.742 5.63 5.63 0 001.156-3.346 5.652 5.652 0 00-1.164-3.507 4.154 4.154 0 012.444-.756 4.19 4.19 0 014.122 4.235 4.186 4.186 0 01-4.235 4.116m4.503-5.89c-.377-1.339-2.276-3.028-4.381-3.028a4.751 4.751 0 00-3.322 1.298 5.06 5.06 0 011.388 3.524c-.016 1.213-.507 2.514-1.371 3.384a4.804 4.804 0 002.198 1.162c.072-.093.153-.193.235-.299.243.048.493.074.746.076a4.414 4.414 0 004.466-4.339 4.397 4.397 0 00-.22-1.418c.09-.235.26-.36.26-.36"/><path d="M22.894 17.035a4.184 4.184 0 01-.009-4.708 4.144 4.144 0 01.009 4.708m.736-3.71a.894.894 0 01.259-.36c-.15-.541-.598-1.127-1.003-1.539a4.734 4.734 0 00.054 6.55l.007-.58c.607-.826.884-1.562.9-2.654a4.344 4.344 0 00-.217-1.417m-11.14 5.539a4.126 4.126 0 01-2.307-.73 5.63 5.63 0 001.164-3.358 5.668 5.668 0 00-1.171-3.521 4.177 4.177 0 014.752.008 5.65 5.65 0 00.004 6.847c-.507.337-1.384.772-2.442.754m1.81-2.327a5.487 5.487 0 01-.323-1.928 5.43 5.43 0 011.18-3.309l.679-.015c-.901-.833-1.964-1.318-3.23-1.334a4.683 4.683 0 00-3.296 1.291c.894.954 1.405 2.155 1.39 3.525a5.035 5.035 0 01-1.39 3.394 4.786 4.786 0 002.194 1.156 8.18 8.18 0 01.235-.301c.242.045.493.071.746.074.89.014 2.047-.286 2.724-.902l.638-.002a5.097 5.097 0 01-1.033-1.557 2.547 2.547 0 01-.514-.092"/></g></svg>