<svg xmlns="http://www.w3.org/2000/svg" width="32" height="32" viewBox="0 0 32 32"><g fill="none" fill-rule="evenodd"><path fill="#1A1919" d="M31.56 10.67a1.02 1.02 0 00-.725-.3l-1.7.005c-.082-.465-.316-.9-.69-1.274-.682-.68-1.736-1.072-2.89-1.072H6.19c-1.907 0-3.424 1.058-3.597 2.454H.887a.872.872 0 00-.871.872v10.17c0 .233.09.452.256.617a.865.865 0 00.615.255l1.708-.002c.066.5.306.97.705 1.369.683.68 1.736 1.072 2.89 1.072h19.365c1.154 0 2.208-.391 2.89-1.072.459-.459.708-1.008.722-1.593h1.668c.274 0 .532-.107.725-.3.194-.194.3-.45.3-.725v-9.752c0-.273-.106-.53-.3-.724"/><path fill="#D8232A" d="M15.213 11.617c.425.425.717.938.855 1.488 1.185-1.604 3.222-2.665 5.531-2.665 0 0 3.168-.01 5.797-.016a1.097 1.097 0 00-.098-.113c-.363-.363-1.023-.588-1.722-.588H6.212c-.698 0-1.358.225-1.722.588a.984.984 0 00-.166.216h8.168c1.035 0 2.027.397 2.72 1.09m-.486 7.48c0-.443-.188-.874-.528-1.213-.427-.427-1.048-.671-1.706-.671H4.25v3.79l8.241-.009c1.233 0 2.235-.85 2.235-1.897m-13.254 1.91l1.126-.001v-3.793H1.472v3.794m0-5.253l1.126-.002V11.96H1.472v3.794"/><path fill="#D8232A" d="M14.726 13.844c0-.443-.188-.874-.528-1.214-.427-.426-1.048-.67-1.706-.67H4.25v3.79l8.241-.01c1.233 0 2.235-.85 2.235-1.896m1.924 6.397a6.001 6.001 0 01-.537-.615 3.206 3.206 0 01-.907 1.71c-.694.693-1.683 1.091-2.713 1.091l-8.162.01c.046.08.105.15.159.204.364.363 1.024.588 1.722.588h19.364c1.082 0 1.9-.524 1.959-1.015H21.6c-1.89 0-3.695-.719-4.95-1.973m12.54.54h1.257v-8.933l-1.257.003v8.93"/><path fill="#D8232A" d="M17.678 13.428c-.813.812-1.261 1.846-1.261 2.912 0 1.058.443 2.084 1.248 2.888.988.987 2.423 1.553 3.936 1.553h5.937v-8.925l-5.935.017c-1.506 0-2.936.566-3.925 1.555"/></g></svg>