<svg xmlns="http://www.w3.org/2000/svg" width="32" height="32" viewBox="0 0 32 32"><g fill="#000" fill-rule="evenodd"><path fill-rule="nonzero" d="M18.326 19.889c1.37-.57 2.393-1.585 2.8-2.795l-.081-.026c-.399 1.186-1.404 2.184-2.752 2.744l.033.077zm.285-7.817a6.456 6.456 0 00-2.781-.614 6.48 6.48 0 00-2.668.561l.036.076a6.393 6.393 0 012.632-.553c.979 0 1.92.21 2.744.605l.037-.075zm-8.052 5.094c.423 1.18 1.434 2.166 2.776 2.723l.033-.076c-1.321-.549-2.314-1.519-2.729-2.675l-.08.028z"/><path fill-rule="nonzero" d="M18.426 20.208c1.5-.614 2.618-1.736 3.044-3.074l-.081-.025c-.419 1.313-1.518 2.417-2.996 3.022l.033.077zm.587-8.306a6.74 6.74 0 00-3.183-.777c-1.122 0-2.197.26-3.124.745l.04.073a6.667 6.667 0 013.084-.735c1.132 0 2.215.27 3.142.767l.041-.073zm-8.827 5.219c.42 1.338 1.533 2.462 3.03 3.08l.032-.077c-1.474-.61-2.568-1.715-2.981-3.028l-.081.025z"/><path d="M19.684 17.239c-.277-.739-.138-1.34-.138-2.489 0-1.149-.75-1.504-.972-1.696-.222-.191-.417-.355-.167-.848.345-.68 2.832-.547 3.415-.492a21.54 21.54 0 002.721.027c.944-.054 4.97.028 5.303.028.333 0 1.277-.137 1.527-.137s.472.219.472.492c0 .274-.472.465-.75.63.111.464-.417.82-.888.957 0 .328-.639.82-1.11.875.11.41-.806.766-1.333.766 0 .601-.917.683-1.444.683-.111.63-1 .575-1.61.493-.112.656-1.139.41-1.555.3-.194.52-.722.301-1.194.192-.278.356-.86.246-1.138.11-.195.437-.889.245-1.139.109zm11.272-5.333c-.86 0-2.86.054-3.248.054-.389 0-3.138.301-3.568.438-.194.055-.236.246 0 .26.236.013 3.068.054 3.485.054.416 0 3.268.04 3.65-.45.278-.356-.069-.343-.319-.356zm-7.519.62c-.27.006-.75.013-.758.143-.007.129.387.205.714.222.416.022.409-.366.044-.366zm-.05.42c-.22-.015-.868-.099-.868.03s.197.28.554.333c.357.053.466-.075.496-.151.029-.076.021-.174-.183-.212zm7.056.026c-.5.014-2.999.027-3.29.014-.292-.014-2.555-.137-2.819-.15-.263-.014-.513.054-.513.136 0 .082.055.15.36.219.306.069 3.124.383 5.262.342.402.014.944-.191 1.083-.383s-.014-.178-.083-.178zm-.972.903c-.347 0-4.442-.301-5.303-.479-.291-.027-.486-.04-.514.082-.028.123-.013.178.236.246.25.069 3.29.63 4.831.657.514-.014 1.11-.493.75-.506zm-1.041.847c-.486-.054-3.72-.56-4.595-.793-.347-.082-.514-.04-.556.055-.041.096-.041.26.209.342.25.082 3.11.738 3.637.766.527.027 1.152-.096 1.318-.22.167-.122-.013-.15-.013-.15zm-1.305.712c-.347-.069-3.165-.698-3.97-.999-.237-.068-.32 0-.361.082-.042.083-.056.206.097.274.152.068 2.318.957 3.345 1.012.375 0 .678-.136.847-.219.111-.055.07-.055.042-.15zm-4.595-.575c-.028.055-.285.233-.396.288.542.52 1.95.97 2.297 1.066.348.096.93.137 1.18.055.25-.082.14-.233-.069-.287-.75-.164-2.693-.971-3.012-1.122zm-.583.465c-.097.055-.278.164-.36.205.166.15.72.547 1.096.766.625.37 1.152.37 1.36.342.208-.027.306-.219.097-.287-.624-.192-1.985-.889-2.193-1.026zm-.639.37a2.954 2.954 0 01-.333.123c.528.752 1.194 1.011 1.555 1.039.36.027.264-.178.083-.301-.13-.089-.95-.622-1.305-.861zm-.624.205c-.09.04-.202.068-.299.095.125.424.604.848.868.971s.374-.15.222-.3c-.236-.192-.57-.547-.791-.766zm-.556.341l-.236.506c.25.493.458.383.57.342.11-.04.25-.178.138-.314-.11-.137-.291-.315-.472-.534zm2.908-2.865c-.379-.065-.743-.137-.78-.044-.036.094-.058.137.292.309s.663.13.714-.022c.041-.121-.087-.222-.226-.244zm-.656.222c-.043-.007-.21-.072-.284.05-.073.122-.043.302.489.438s.422-.172.284-.258a2.524 2.524 0 00-.489-.23zm.166.597c-.408-.215-.867-.323-.926-.187-.058.137.22.338.62.525.4.186.488-.23.306-.338zm-1.056.1c-.044-.02-.134-.054-.182.015-.11.158.328.452.408.503.08.05.277.157.379.028.204-.258-.416-.459-.605-.545zm.042.483c-.124-.065-.488-.359-.597-.23-.13.154.153.364.291.481.255.216.707 0 .306-.25zm-.635.102c-.11-.065-.379-.302-.503-.165-.124.136.211.466.299.56.087.093.204.23.393.1.225-.153-.065-.359-.189-.495zm-.848.053c-.131.129.08.402.117.495.036.093.204.187.298.144.095-.044.168-.137.073-.302-.094-.165-.357-.438-.488-.337zm5.465-3.081c-.36 0-1.582.082-2.026.082-.444 0-1.472-.028-1.847-.055-.374-.027-1.36-.04-1.749 0-.388.041-1.249.096-1.402.492-.152.397.181.616.389.766.208.15.847.52.875 1.477.166-.068.402-.11.236-.451-.097-.192-.57-.82-.458-1.108.11-.287.471-.52 1.29-.547.82-.027 1.972 0 2.374-.068.403-.069 1.958-.452 2.277-.493.139-.013.139-.081.041-.095zm-3.276.766c-.291 0-1.36-.028-1.665.027-.306.055-.687.141-.847.41-.14.233.097.602.208.752.11.15.43.452.555.561.111.082.32-.055.14-.26.235.137.527.11.388-.205.208.164.555.178.347-.246.138.11.527.096.277-.233.209.069.445-.054.292-.26.264.041.416-.15.139-.3.264.068.333-.233.166-.246zM12.16 17.239c.278-.739.14-1.34.14-2.489 0-1.149.749-1.504.97-1.696.223-.191.417-.355.167-.848-.345-.68-2.831-.547-3.415-.492a21.52 21.52 0 01-2.72.027c-.944-.054-4.97.028-5.303.028-.333 0-1.277-.137-1.527-.137a.489.489 0 00-.472.492c0 .274.472.465.75.63-.111.464.416.82.888.957 0 .328.639.82 1.11.875-.11.41.806.766 1.333.766 0 .601.916.683 1.444.683.11.63 1 .575 1.61.493.111.656 1.139.41 1.555.3.194.52.722.301 1.194.192.277.356.86.246 1.138.11.195.437.889.245 1.139.109zM.89 11.906c.86 0 2.86.054 3.248.054.389 0 3.137.301 3.568.438.194.055.236.246 0 .26-.236.013-3.068.054-3.485.054-.416 0-3.268.04-3.65-.45-.278-.356.069-.343.319-.356zm7.519.62c.27.006.75.013.757.143.008.129-.386.205-.714.222-.415.022-.408-.366-.043-.366zm.05.42c.22-.015.868-.099.868.03s-.197.28-.554.333c-.357.053-.466-.075-.496-.151-.029-.076-.022-.174.182-.212zm-7.056.026c.5.014 2.999.027 3.29.014.292-.014 2.554-.137 2.818-.15.264-.014.514.054.514.136 0 .082-.056.15-.361.219s-3.123.383-5.261.342c-.403.014-.944-.191-1.083-.383s.014-.178.083-.178zm.972.903c.347 0 4.442-.301 5.303-.479.291-.027.486-.04.513.082.028.123.014.178-.236.246-.25.069-3.29.63-4.83.657-.514-.014-1.11-.493-.75-.506zm1.041.847c.486-.054 3.72-.56 4.595-.793.347-.082.514-.04.555.055.042.096.042.26-.208.342-.25.082-3.11.738-3.637.766-.527.027-1.152-.096-1.319-.22-.166-.122.014-.15.014-.15zm1.305.712c.347-.069 3.165-.698 3.97-.999.236-.068.32 0 .361.082.042.083.056.206-.097.274-.153.068-2.318.957-3.345 1.012-.375 0-.678-.136-.847-.219-.111-.055-.07-.055-.042-.15zm4.595-.575c.028.055.284.233.396.288-.542.52-1.95.97-2.298 1.066-.347.096-.93.137-1.18.055-.25-.082-.139-.233.07-.287.75-.164 2.693-.971 3.012-1.122zm.583.465c.097.055.277.164.36.205-.166.15-.721.547-1.096.766-.625.37-1.152.37-1.36.342-.208-.027-.306-.219-.097-.287.624-.192 1.985-.889 2.193-1.026zm.638.37c.084.04.264.102.334.123-.528.752-1.194 1.011-1.555 1.039-.361.027-.264-.178-.084-.301.13-.089.95-.622 1.305-.861zm.625.205c.09.04.201.068.299.095-.125.424-.604.848-.868.971s-.375-.15-.222-.3c.236-.192.569-.547.791-.766zm.555.341l.236.506c-.25.493-.458.383-.569.342-.11-.04-.25-.178-.139-.314.111-.137.292-.315.472-.534zm-2.908-2.865c.38-.065.744-.137.78-.044.037.094.058.137-.291.309-.35.172-.663.13-.715-.022-.04-.121.088-.222.226-.244zm.656.222c.044-.007.212-.072.284.05.073.122.044.302-.488.438s-.422-.172-.284-.258c.138-.087.32-.173.488-.23zm-.165.597c.408-.215.867-.323.926-.187.058.137-.22.338-.62.525-.401.186-.488-.23-.306-.338zm1.056.1c.043-.02.134-.054.182.015.11.158-.328.452-.408.503-.08.05-.277.157-.38.028-.203-.258.416-.459.606-.545zm-.043.483c.124-.065.489-.359.598-.23.13.154-.153.364-.291.481-.255.216-.707 0-.307-.25zm.636.102c.11-.065.379-.302.503-.165.124.136-.212.466-.299.56-.087.093-.204.23-.394.1-.224-.153.066-.359.19-.495zm.848.053c.13.129-.08.402-.117.495-.036.093-.204.187-.299.144-.094-.044-.167-.137-.073-.302.095-.165.358-.438.489-.337zM6.33 11.85c.361 0 1.583.082 2.027.082.444 0 1.472-.028 1.846-.055.375-.027 1.36-.04 1.75 0 .388.041 1.249.096 1.401.492.153.397-.18.616-.388.766-.209.15-.847.52-.875 1.477-.167-.068-.402-.11-.236-.451.097-.192.57-.82.458-1.108-.111-.287-.472-.52-1.29-.547-.82-.027-1.972 0-2.375-.068-.402-.069-1.957-.452-2.276-.493-.139-.013-.139-.081-.042-.095zm3.276.766c.292 0 1.36-.028 1.666.027.306.055.686.141.847.41.139.233-.097.602-.208.752-.111.15-.43.452-.556.561-.11.082-.319-.055-.138-.26-.236.137-.528.11-.389-.205-.208.164-.555.178-.347-.246-.139.11-.527.096-.278-.233-.208.069-.444-.054-.291-.26-.264.041-.417-.15-.139-.3-.264.068-.333-.233-.167-.246z"/><path fill-rule="nonzero" d="M14.528 18.82c.074-.083.234-.116.332-.084.071.023.147.09.188.168a.37.37 0 01.283-.1.368.368 0 01.226.15.367.367 0 01.268-.143c.09 0 .21.061.269.144a.367.367 0 01.225-.15.371.371 0 01.283.098.363.363 0 01.188-.167c.098-.032.259.001.333.084a.362.362 0 01.165-.2c.11-.053.319-.028.379.084l.69 1.153c.17.287.108.528-.129.636-.195.088-.37.057-.499-.098-.012.16-.11.275-.272.324-.207.06-.377.005-.483-.168a.358.358 0 01-.332.317c-.204.025-.358-.049-.436-.22-.058.166-.191.255-.372.251-.194-.005-.33-.09-.389-.251-.078.171-.232.245-.437.22a.358.358 0 01-.332-.317c-.106.173-.276.229-.482.168-.164-.049-.26-.164-.273-.324-.129.155-.304.186-.499.097-.237-.107-.298-.348-.13-.635l.69-1.152c.062-.113.27-.138.38-.084a.363.363 0 01.166.199zm-.5 1.392c-.067.224.01.374.19.427.223.066.383-.026.453-.302l.32-1.303c.021-.072-.079-.194-.157-.219-.078-.025-.232.015-.259.087l-.448 1.062-.099.247zm.937-.715l-.192.822c-.063.278.04.441.246.466.23.029.373-.087.396-.37l.096-1.338c.008-.074-.111-.178-.192-.19-.08-.012-.22.05-.24.122a.152.152 0 01-.005.046l-.109.442zm.55.707l-.015.216-.002.014c-.004.254.118.376.338.382.197.004.32-.127.316-.382l-.002-.014-.015-.22-.091-1.146c-.003-.074-.137-.16-.219-.16-.082 0-.216.086-.219.162l-.09 1.148zm2.005-.246l-.446-1.058c-.026-.07-.18-.11-.258-.085-.078.025-.178.147-.157.22l.32 1.302c.07.276.23.368.453.302.18-.053.257-.203.19-.426v-.002l-.102-.253zm-.95-.948c-.017-.072-.159-.135-.239-.123-.08.012-.2.116-.192.191l.096 1.336c.024.284.166.4.397.371.206-.025.308-.188.246-.466l-.19-.813-.111-.449a.155.155 0 01-.006-.047zm1.622 1.407c.19-.086.237-.271.092-.518l-.691-1.155c-.036-.065-.194-.084-.268-.049-.074.036-.156.17-.124.24l.5 1.245c.109.264.28.333.491.237zm-4.734 0c.211.096.382.027.491-.236l.501-1.247c.03-.068-.051-.203-.125-.239-.074-.035-.232-.016-.269.05l-.69 1.154c-.145.247-.098.432.092.518z"/><g fill-rule="nonzero"><path d="M15.825 19.047c-2.342 0-4.24-1.385-4.24-3.094 0-1.709 1.898-3.094 4.24-3.094 2.342 0 4.24 1.385 4.24 3.094 0 1.71-1.898 3.094-4.24 3.094zm1.86-4.229c0-.451-.486-1.135-1.902-1.135-.833 0-1.527.205-1.943.588.097.082.208.205.208.342v2.503c-.014.15-.083.273-.194.41.389.3 1.055.588 2.082.56 1.027-.027 1.985-.355 1.985-1.285 0-.397-.375-.793-.791-.93-.11-.027-.094-.135-.007-.178.083-.04.57-.41.562-.875z"/><path d="M15.839 15.597c.358 0 .648-.312.648-.697 0-.384-.29-.696-.648-.696-.358 0-.648.312-.648.696 0 .385.29.697.648.697zm.083 1.925a.73.73 0 00.727-.735.73.73 0 00-.727-.734.73.73 0 00-.726.734.73.73 0 00.726.735z"/></g></g></svg>