<svg xmlns="http://www.w3.org/2000/svg" xmlns:xlink="http://www.w3.org/1999/xlink" width="32" height="32" viewBox="0 0 32 32"><defs><path id="cars-bmw-ic-bmw-a" d="M23.499.483v22.628H0V.483h23.499H0v22.628h23.5V.483z"/></defs><g fill="none" fill-rule="evenodd"><g transform="translate(4 4.406)"><mask id="cars-bmw-ic-bmw-b" fill="#fff"><use xlink:href="#cars-bmw-ic-bmw-a"/></mask><path fill="#000" d="M11.75 22.799c-6.3 0-11.425-4.935-11.425-11.002 0-6.067 5.125-11 11.425-11 6.3 0 11.424 4.933 11.424 11S18.05 22.8 11.75 22.8m0-22.316C5.27.483 0 5.56 0 11.797s5.27 11.314 11.75 11.314c6.478 0 11.75-5.076 11.75-11.314S18.228.483 11.75.483" xmask="url(#cars-bmw-ic-bmw-b)"/></g><path fill="#000" d="M9.053 11.761l.035.027.009-.009.688-.827c.083-.1.168-.2.25-.302a.34.34 0 00.051-.352.358.358 0 00-.332-.2.383.383 0 00-.285.153l-.304.366-.623.75.323.25c.064.047.127.095.188.144"/><path fill="#000" d="M22.43 12.712l-.402-.664 1.386-1.754-2.08.919-.585-.521 1.897-2.401.585.523-1.095 1.384 1.752-.774.512.615-1.168 1.477 1.642-.726.403.664-2.847 1.258zm-6.68 10.245c-3.874 0-7.013-3.024-7.013-6.754 0-3.73 3.14-6.753 7.013-6.753 3.873 0 7.012 3.023 7.012 6.753s-3.14 6.754-7.012 6.754zm-8.896-11.88a17.418 17.418 0 00-.283-.222 1.1 1.1 0 01.044-.051l.653-.788.763-.916c.049-.058.097-.118.147-.176A.775.775 0 019.3 8.857a.73.73 0 01.209.351.75.75 0 01-.019.406c.02-.015.037-.032.057-.046a.89.89 0 01.846-.09.831.831 0 01.5.652.814.814 0 01-.026.323c-.065.202-.214.356-.348.516-.26.315-.522.628-.783.941-.217.264-.436.524-.652.785l-.049.059c-.003.004-.022-.014-.026-.018l-.241-.186-.952-.734c-.32-.246-.64-.495-.962-.74zm7.084-5.004l1.051-.112.76 2.138.761-2.138 1.052.112.116 3.04L16.859 9l-.078-2.026L16.042 9h-.586l-.74-2.026L14.64 9l-.818.112.117-3.039zm1.812-.675c-6.198 0-11.22 4.838-11.22 10.805s5.022 10.805 11.22 10.805c6.197 0 11.22-4.838 11.22-10.805S21.948 5.398 15.75 5.398z"/><path fill="#000" d="M9.028 9.833a.334.334 0 00-.082-.311.365.365 0 00-.393-.085c-.099.04-.158.122-.221.201a208.34 208.34 0 00-.793.956l.15.115c.131.103.264.204.395.306.131-.156.26-.312.389-.468l.39-.466c.063-.078.136-.15.165-.248"/><path fill="#1894DB" d="M9.092 16.203h6.657v-6.41c-3.634.091-6.562 2.91-6.657 6.41m6.658 6.412c3.634-.092 6.562-2.913 6.658-6.412h-6.659v6.412z"/></g></svg>