<svg xmlns="http://www.w3.org/2000/svg" width="32" height="32" viewBox="0 0 32 32"><g fill="none" fill-rule="nonzero"><path fill="#BE0030" d="M15.996 23.798c-8.864 0-15.742-3.546-15.742-7.743 0-4.233 6.878-7.78 15.742-7.78 8.827 0 15.742 3.547 15.742 7.78 0 4.197-6.915 7.743-15.742 7.743z"/><path fill="#AAA" d="M.07 16.055c0-4.414 7.099-7.96 15.926-7.96s15.925 3.546 15.925 7.96c0 4.378-7.098 7.924-15.925 7.924C7.169 23.979.07 20.433.07 16.055zm15.926-6.513c-9.011 0-14.455 3.618-14.455 6.513 0 2.858 5.444 6.477 14.455 6.477 9.01 0 14.454-3.619 14.454-6.477 0-2.895-5.443-6.513-14.454-6.513zm-.846-.724a.366.366 0 00-.368-.361c-.22 0-.368.18-.368.398 0 .18.184.325.368.325.22 0 .368-.18.368-.362zm-1.214.037a.398.398 0 00-.404-.326.395.395 0 00-.331.398c0 .18.183.362.404.326.184 0 .331-.181.331-.398zm-1.214.108c-.036-.18-.22-.326-.404-.29a.33.33 0 00-.331.399c.037.18.22.325.404.29.221 0 .368-.182.331-.399zm-1.213.145c-.037-.181-.221-.326-.405-.29-.22.037-.33.217-.33.435a.38.38 0 00.44.289.376.376 0 00.295-.434zm-1.177.217c-.037-.181-.258-.326-.442-.29-.22.073-.33.254-.294.435.037.217.258.325.441.29.184-.037.331-.254.295-.435zm-1.214.253c-.037-.18-.22-.29-.441-.253-.184.072-.295.253-.258.434.074.217.258.326.442.253.22-.036.33-.217.257-.434zm-1.14.326c-.074-.181-.294-.29-.478-.217-.184.036-.295.253-.221.434.037.217.257.29.441.253.221-.072.295-.29.258-.47zm-1.177.398c-.074-.181-.258-.29-.442-.217-.22.072-.294.29-.22.47.073.181.294.29.478.217.184-.072.257-.29.184-.47zm-1.104.434c-.11-.18-.33-.253-.478-.145-.184.073-.257.29-.184.47.074.182.295.254.479.182.183-.109.257-.326.183-.507zm-1.103.543c-.074-.181-.331-.217-.478-.109-.184.109-.258.326-.147.47.11.182.33.254.515.145.184-.108.22-.325.11-.506zm-1.03.651c-.11-.18-.33-.217-.515-.108-.147.144-.184.361-.073.506.147.181.368.217.515.109.184-.145.22-.362.073-.507zm-.956.724a.36.36 0 00-.515 0 .346.346 0 000 .506.36.36 0 00.515 0 .346.346 0 000-.506zm-.81.868c-.183-.108-.404-.072-.514.072-.11.181-.074.398.073.507.184.109.405.072.515-.072.11-.181.074-.398-.073-.507zm-.661 1.013c-.184-.072-.405.036-.478.217-.074.181.036.398.22.47.22.037.405-.035.478-.253.074-.18-.036-.361-.22-.434zm15.227 8.72c0-.18-.184-.362-.368-.362a.366.366 0 00-.368.362c0 .217.147.362.368.362a.366.366 0 00.368-.362zm-1.214 0a.366.366 0 00-.368-.362c-.184 0-.368.145-.368.326 0 .217.147.398.368.398a.366.366 0 00.368-.362zm-1.214-.036c0-.217-.147-.398-.33-.398-.222 0-.405.145-.405.326 0 .217.147.362.33.398a.399.399 0 00.405-.326zm-1.214-.108c.037-.218-.11-.398-.33-.398-.185-.037-.368.108-.405.289-.037.217.11.398.33.434a.43.43 0 00.405-.325zm-1.213-.145a.376.376 0 00-.295-.434c-.22-.037-.404.108-.404.29-.037.216.073.397.294.433.184.036.368-.108.405-.29zm-1.177-.217c.036-.181-.11-.398-.295-.434-.183-.037-.404.072-.44.289a.366.366 0 00.293.434c.184.036.405-.108.442-.29zm-1.214-.254a.32.32 0 00-.257-.434c-.184-.072-.368.036-.442.254-.037.18.074.361.258.434.22.036.404-.073.441-.254zm-1.14-.325c.037-.181-.037-.398-.258-.47-.184-.037-.404.072-.441.253-.074.18.037.398.22.434.185.072.405-.036.479-.217zM6.8 21.772c.073-.181 0-.398-.184-.47-.184-.073-.405.036-.478.217-.074.18 0 .398.22.47.184.072.368-.036.442-.217zm-1.104-.434a.413.413 0 00-.183-.507c-.184-.072-.405 0-.479.18-.073.182 0 .399.184.471.147.109.368.037.478-.144zm-1.103-.543c.11-.181.074-.398-.11-.507-.184-.108-.405-.036-.515.145-.11.145-.037.398.147.47.147.109.404.073.478-.108zm-1.03-.651c.147-.145.11-.362-.073-.507-.147-.109-.368-.072-.515.109-.11.144-.074.361.073.506.184.109.405.072.515-.108zm-.956-.724a.346.346 0 000-.507.36.36 0 00-.515 0 .346.346 0 000 .507.36.36 0 00.515 0zm-.81-.868c.148-.109.185-.326.074-.507-.11-.145-.33-.181-.515-.072-.147.108-.183.325-.073.506.11.145.33.181.515.073zm-.661-1.014c.184-.036.294-.253.22-.434-.073-.217-.257-.29-.478-.253-.184.072-.294.29-.22.47.073.181.294.29.478.217zm-.331-1.121c.22-.036.368-.181.368-.398a.35.35 0 00-.405-.326c-.184 0-.331.145-.331.362 0 .18.184.362.368.362zm30.38-.724c-.184-.036-.368.145-.368.326 0 .217.147.362.368.398.184 0 .368-.181.368-.362 0-.217-.147-.362-.368-.362zm-.11 1.158c-.184-.036-.405.036-.442.253-.073.181.037.398.22.434.185.073.405-.036.479-.217.037-.18-.037-.398-.257-.47zm-.442 1.122c-.184-.109-.404-.073-.515.072-.147.18-.073.398.074.507.184.108.404.072.515-.073.11-.18.073-.398-.074-.506zm-.735.94a.405.405 0 00-.552 0 .429.429 0 000 .507.405.405 0 00.552 0 .429.429 0 000-.507zm-.92.833a.33.33 0 00-.478-.109c-.184.145-.22.362-.11.507.147.18.367.217.515.108.183-.145.22-.362.073-.506zm-.993.687c-.073-.18-.331-.253-.478-.145-.184.109-.258.326-.147.507.11.18.33.217.515.108.184-.072.22-.325.11-.47zm-1.03.579a.426.426 0 00-.515-.181c-.184.109-.257.326-.147.507.074.18.294.253.478.144.184-.072.258-.29.184-.47zm-1.103.507c-.074-.181-.294-.29-.478-.218-.184.073-.295.29-.221.47.074.182.294.29.478.218.184-.072.294-.29.22-.47zm-1.14.434a.423.423 0 00-.478-.254c-.184.073-.295.29-.221.47a.37.37 0 00.478.218c.184-.036.294-.253.22-.434zm-1.14.362c-.074-.218-.258-.326-.479-.254-.184.036-.294.254-.257.434a.4.4 0 00.441.254c.22-.073.331-.254.294-.434zm-1.177.289c-.074-.217-.258-.326-.442-.29a.366.366 0 00-.294.435c.037.18.22.325.441.29.184-.037.331-.254.295-.435zm-1.214.217c-.037-.18-.22-.326-.405-.29-.22.037-.33.218-.33.435.036.18.22.325.44.29a.376.376 0 00.295-.435zm-1.177.181a.381.381 0 00-.442-.29c-.183 0-.33.181-.294.399 0 .18.184.325.405.325.184-.036.33-.217.33-.434zm-1.214.145a.398.398 0 00-.404-.326.347.347 0 00-.332.398c0 .181.184.326.405.326a.395.395 0 00.331-.398zm-1.214.072c0-.18-.184-.326-.367-.326a.366.366 0 00-.368.362c0 .217.184.362.368.362.22 0 .367-.18.367-.398zm-1.949-14.4c0 .18.147.361.368.361.184 0 .368-.18.368-.362a.366.366 0 00-.368-.361c-.22 0-.368.144-.368.361zm1.214 0c0 .18.147.361.368.361.183 0 .367-.144.367-.325 0-.218-.147-.398-.367-.398a.366.366 0 00-.368.361zm1.213.036a.347.347 0 00.332.398c.22.036.367-.145.404-.326a.395.395 0 00-.33-.398c-.222 0-.406.145-.406.326zm1.214.108c-.037.217.11.398.294.398a.381.381 0 00.442-.29c0-.216-.147-.397-.331-.397-.22-.037-.405.108-.405.29zm1.177.145c0 .217.11.398.331.434.184.036.368-.108.405-.29a.376.376 0 00-.294-.434.381.381 0 00-.442.29zm1.214.217a.366.366 0 00.294.434c.184.036.368-.072.442-.29.036-.18-.11-.361-.295-.433a.381.381 0 00-.441.289zm1.177.253c-.037.217.073.398.257.434.221.073.405-.036.478-.253.037-.18-.073-.362-.294-.434a.4.4 0 00-.441.253zm1.177.326c-.074.18.037.398.22.47.221.036.405-.036.479-.253.073-.18-.037-.398-.221-.434a.37.37 0 00-.478.217zm1.14.398c-.074.18.037.398.22.47.185.073.405-.036.479-.217.073-.18-.037-.398-.22-.47-.185-.073-.405.036-.479.217zm1.14.434c-.11.181-.037.398.147.507.184.072.405 0 .515-.181.074-.181 0-.398-.184-.47-.184-.11-.404-.037-.478.144zm1.067.543c-.11.18-.037.398.147.506.147.109.405.037.478-.144.11-.145.074-.362-.11-.47-.184-.11-.405-.073-.515.108zm1.03.651c-.11.145-.074.362.11.507a.33.33 0 00.478-.109c.147-.145.11-.362-.073-.506-.148-.109-.368-.073-.515.108zm.956.724a.429.429 0 000 .506.405.405 0 00.552 0 .429.429 0 000-.506.405.405 0 00-.552 0zm.846.868c-.147.109-.22.326-.074.507.11.144.331.18.515.072.147-.108.184-.326.074-.506-.11-.145-.331-.181-.515-.073zm.662 1.013c-.184.073-.294.254-.22.434.036.218.257.29.44.254.221-.073.295-.29.258-.47-.074-.182-.294-.29-.478-.218z"/><path fill="#000" d="M17.54 15.585l-.367 1.483h-.478l.478-2.207c.037-.072.184-.072.22.036l.148.688zm.515 2.532h-1.103l-.184.833h-1.03l-.33-.326.146-.072h.773l.22-.869h1.398l.11.434zm.332.833l-.332-.326.11-.072h.773l-1.066-4.487.073-.073.331.326 1.14 4.632h-1.03zm1.949-3.8H19.6l-.33-.325.073-.073h.993v.398zm.22 3.836l-.33-.326.11-.108h.772v-3.8h.957v-.687l.11-.073.33.326v.832h-.992v3.836h-.956zm3.311-3.836h-.736l-.33-.325.11-.073h.956v.398zm.22 3.836l-.33-.326.11-.108h.772v-3.8h.956v-.687l.11-.073.332.326v.832h-.956v3.836h-.994zm2.685-.036l-.33-.326.11-.072h.772v-4.487l.074-.073.33.326v4.632zm-20.56-4.849a.97.97 0 01.331.217c.074.072.184.145.295.253.073.109.11.181.184.29.147.217.22.47.22.651 0 .326-.184.76-.441.977l.184.181c.22.217.368.507.368.94 0 .616-.479 1.34-1.214 1.34H4.447l-.331-.326.11-.072h1.582c.662 0 1.103-.688 1.103-1.267 0-.543-.257-.868-.551-1.013l-.148-.072.148-.109c.257-.145.44-.579.44-.868 0-.362-.183-.833-.624-1.05l.036-.072zm-.809.94v.87H5v-1.303h.441c.294 0 .515.18.589.506-.074-.072-.148-.072-.258-.072h-.368zm0 1.846v1.122H5v-1.556h.588c.22 0 .442.217.515.506-.037-.072-.11-.072-.184-.072h-.515zm3.384-2.822l.11-.073.331.326v3.329c0 .072 0 .18.037.217a.522.522 0 01-.478-.543v-3.256zm.92 4.993c-.368 0-.663-.108-.994-.362-.22-.18-.44-.47-.478-.543-.036 0-.073-.108-.11-.18l.037-.037a1.369 1.369 0 002.574-.615v-3.256l.074-.073.33.326v3.329c0 .796-.661 1.411-1.433 1.411zm4.928-2.786l.11-.072.331.325v1.122c0 .868-.478 1.411-1.47 1.411-.332 0-.626-.108-.957-.362-.22-.18-.478-.47-.515-.543 0-.036-.037-.108-.11-.217h.073c.22.398.699.724 1.214.724.92 0 1.324-.543 1.324-1.339v-1.049zm-.625.977h-.258l-.33-.326.073-.108h.515v.434zm-.037-2.099a.357.357 0 00-.331-.072c-.294 0-.515.253-.515.543v2.026a.41.41 0 00.11.29c-.33-.073-.515-.326-.515-.616v-2.026c0-.326.221-.615.589-.651.33-.036.625.18.662.506zm1.103.543h-.846l-.33-.326.11-.072h.625c0-.543-.184-.977-.625-1.194l.073-.072c.074.036.147.108.221.144.11.109.22.181.368.326.11.145.184.217.257.362.11.253.147.47.147.76v.072z"/><path fill="#FFF" d="M5.072 16.561v1.34h.515c.294 0 .478-.326.478-.688 0-.362-.257-.652-.478-.652h-.515zm0-1.845v1.086h.368c.331 0 .478-.181.478-.543 0-.362-.22-.543-.478-.543h-.368zM6.433 16.2c.331.144.589.506.589 1.085 0 .615-.479 1.339-1.214 1.339H4.116v-4.632h1.581c.846 0 1.214.724 1.214 1.23 0 .29-.184.797-.478.978zm3.421 1.121v-3.329h.956v3.33c0 .795-.662 1.41-1.435 1.41-.809 0-1.47-.615-1.47-1.41v-3.33h.992v3.33c0 .253.184.47.478.47a.46.46 0 00.479-.47zm4.046 0v-.398h-.479V16.2h1.324v1.121c0 .869-.441 1.411-1.434 1.411-.81 0-1.471-.615-1.471-1.41v-2.027c0-.796.662-1.411 1.47-1.411.994 0 1.435.543 1.435 1.411v.072H13.9v-.072c0-.326-.257-.579-.588-.543-.294 0-.515.254-.515.543v2.026c0 .254.22.507.515.543.33 0 .588-.217.588-.543zm3.824-.361l-.44-2.063-.479 2.062h.92zm-2.317 1.664l1.214-4.632h1.324l1.104 4.632h-.993l-.184-.832h-1.25l-.185.832h-1.03zm5.775.036h-.956v-3.835h-.957v-.833h2.906v.833h-.993zm3.568 0h-.994v-3.835H22.8v-.833h2.906v.833h-.957zm1.691-4.668h.957v4.632h-.957z"/><path fill="#000" d="M17.062 12.69c.221 0 .368-.181.368-.398a.366.366 0 00-.368-.362h-.772v.76h.772zm0-1.303a.327.327 0 00.332-.325.327.327 0 00-.332-.326h-.772v.651h.772zm-1.875.543v.181h-.478v-.904h.478v.18h.478v-.651h-1.14v.217h-.478v-.687h3.015c.442 0 .846.361.846.832a.73.73 0 01-.22.543c.147.18.257.398.257.615a.895.895 0 01-.883.904h-3.015v-.723h.478v.253h1.14v-.76h-.478z"/></g></svg>