<svg xmlns="http://www.w3.org/2000/svg" xmlns:xlink="http://www.w3.org/1999/xlink" width="32" height="32" viewBox="0 0 32 32"><defs><path id="cars-cadillac-ic-cadillac-a" d="M0 4.22V.84h1.061v3.38H0z"/></defs><g fill="none" fill-rule="evenodd"><path fill="#000" d="M10.593 4.02c1.036.086 2.35-.725 2.62-.975-.607-.153-1.84.062-2.62.974m-.272-.616c-.154-.063-1.784.469-1.966 1.56.826-.184 1.578-.798 1.966-1.56m.961 1.03c-1.404-.115-2.03.546-2.03.546 1.34.31 2.03-.54 2.03-.546m-3.435.117c-1.216.134-1.67 2.06-1.687 2.06.718-.526 1.477-1.168 1.687-2.06m-.552 1.646c1.134.085 2.031-.747 2.031-.747-1.696-.098-2.031.753-2.031.747m.471.537s-1.08-.28-2.068 1.115c.01 0 1.342-.196 2.068-1.115m-2.233-.409S4.05 7.403 4.451 8.922c.006 0 .91-.824 1.082-2.598M4.45 10.122c.007 0 1.339-.592 1.99-1.994.012 0-1.547.454-1.99 1.994m-.508-1.531c.006 0-1.145 1.328-.538 2.986 0 0 .862-1.17.538-2.986m-.264 4.332s1.45-1.701 1.45-2.468c0 .007-1.45.579-1.45 2.468m-.853-1.789s-1.08 1.789.099 3.077c.01 0 .561-1.535-.1-3.077M4.62 12.66s-1.216.717-1.15 2.634c0 0 .995-.984 1.15-2.635"/><g transform="translate(2 12.83)"><mask id="cars-cadillac-ic-cadillac-b" fill="#fff"><use xlink:href="#cars-cadillac-ic-cadillac-a"/></mask><path fill="#000" d="M1.061 4.22C1.071 1.944.053.84.044.84-.255 3.515 1.07 4.22 1.06 4.22" xmask="url(#cars-cadillac-ic-cadillac-b)"/></g><path fill="#000" d="M4.012 18.069s.445-1.077.198-2.911c0 0-1.23 1.253-.198 2.91m-1.876-1.333c.01.655.144 1.298.626 1.73.372.325.788.582 1.197.843-.266-1.038-1.08-1.85-1.823-2.573m3.17 3.854c.067-.899-.006-1.586-.667-2.912-.284 1.01.01 2.12.667 2.912m0 1.018c-.479-.974-1.374-1.535-2.292-2.173-.052-.033-.09-.083-.134-.125.334 1.155 1.284 2.009 2.426 2.298m.494-1.426c-.13 1.074.604 1.957 1.404 2.572-.264-.662-.317-1.447-1.287-2.562-.019-.017-.108-.01-.118-.01m-.401 2.799a5.743 5.743 0 002.015.516C6.52 22.7 5.472 22.1 4.3 21.803c.266.51.61.942 1.097 1.177m1.753 1.675c.725.17 1.44.055 2.157.196-1.07-.662-2.337-.927-3.591-1.08.382.463.87.774 1.433.884m.399-2.715c-.043-.037-.095-.065-.122-.115.135 1.125.984 2.142 2.081 2.478-.273-.37-.41-.807-.699-1.196-.352-.475-.769-.811-1.26-1.167m4.596 3.588a8.733 8.733 0 00-.917-1.25c-.462-.525-1.141-.782-1.786-1.053.527 1.108 1.524 1.978 2.703 2.303m-.67.267c-.028 0-.046.014-.072-.003-.828-.48-2.973-.581-3.717-.403 1.566.771 1.105.978 3.789.406m7.15-22.75c.274.251 1.587 1.06 2.62.974-.779-.91-2.013-1.127-2.62-.974m4.849 1.917c-.17-1.09-1.801-1.622-1.955-1.56.388.763 1.14 1.378 1.955 1.56m-2.926-.529c.012.007.698.855 2.032.546.007 0-.617-.66-2.032-.546m5.122 2.177c-.01 0-.461-1.926-1.687-2.06.218.892.98 1.534 1.687 2.06m-3.157-1.16s.899.831 2.035.746c0 .006-.34-.845-2.035-.747m1.56 1.284c.727.919 2.06 1.115 2.06 1.115-.98-1.395-2.06-1.115-2.06-1.115m3.309 2.188c.409-1.524-1.076-2.597-1.076-2.597.17 1.775 1.076 2.597 1.076 2.597m-2.075-.793c.664 1.403 1.993 1.994 1.993 1.994-.433-1.54-1.993-1.994-1.993-1.994m2.484.463c-.319 1.816.544 2.986.544 2.986.606-1.658-.544-2.986-.544-2.986m-1.27 1.863c0 .768 1.46 2.469 1.452 2.469.008-1.89-1.451-2.46-1.451-2.469m2.202 3.757c1.178-1.288.1-3.072.1-3.072-.661 1.537-.1 3.072-.1 3.072M26.93 12.66c.154 1.65 1.151 2.634 1.151 2.634.063-1.917-1.152-2.635-1.152-2.635m2.561 1.011c.013 0-1 1.104-1.01 3.38.01 0 1.321-.705 1.01-3.38m-1.953 4.399a2.36 2.36 0 00-.2-2.911c-.237 1.834.2 2.91.2 2.91m1.876-1.333c-.745.724-1.562 1.535-1.825 2.573.411-.261.826-.518 1.19-.842.5-.433.625-1.076.635-1.731m-3.209 3.854c.672-.792.95-1.902.672-2.912-.655 1.326-.726 2.013-.672 2.912m2.431-1.28c-.048.042-.085.091-.14.125-.907.638-1.802 1.2-2.29 2.173 1.14-.29 2.102-1.143 2.43-2.298m-2.975.872s-.09-.007-.107.01c-.97 1.115-1.029 1.9-1.298 2.562.804-.615 1.538-1.498 1.405-2.572m1.505 1.622c-1.17.296-2.223.897-3.108 1.694a5.559 5.559 0 002-.517c.5-.234.844-.668 1.108-1.177m-1.525 1.969c-1.241.153-2.509.417-3.589 1.079.725-.14 1.441-.026 2.156-.196a2.412 2.412 0 001.433-.883m-1.635-1.943c-.025.045-.075.073-.122.11-.489.356-.908.692-1.262 1.168-.278.39-.425.826-.695 1.196 1.104-.337 1.951-1.352 2.079-2.474m-4.791 3.699c1.186-.325 2.187-1.195 2.712-2.303-.652.271-1.324.528-1.796 1.054a10.4 10.4 0 00-.916 1.249m4.47-.138c-.742-.18-2.891-.078-3.726.401-.02.018-.046.005-.063.005 2.684.571 2.213.364 3.789-.406"/><path fill="#000" d="M19.778 28.552c.315.063.47 0 .47 0l.2-.26c-2.764 0-5.16-1.86-6.157-2.853-.986-.979-2.428-1.107-2.428-1.116.419.695 1.488 1.612 1.806 1.712.322.102.36.288.35.283-.497.005-.299-.128-1.349-.128-1.531 0-2.412.466-2.42.466.407 0 1.596.682 2.692.67 1.094.012.843-.19 2.078-.19 2.063 0 1.005.678 4.758 1.416"/><path fill="#000" d="M18.624 26.113c-.859.023-1.385.103-1.385.103s.952-.53 1.287-.882c.334-.332 1.044-1.179 1.044-1.179s-.4.279-.672.272c-.274.007-1.117.343-1.324.496-.198.181-1 1.09-1.387 1.437v.09c0 .015.161.106.372.312.219.22.85.506 1.593.506 1.268 0 2.368-.704 2.804-.704 0 0-.962-.47-2.332-.451m-7.915 2.179l.202.26h.473c.801 0 2.958-1.037 3.296-1.077-.035 0-.13 0-.425.034-.435.052-2.484.783-2.871.783h-.675z"/><path fill="#293392" d="M9.2 19h3.316v1H9.2z"/><path fill="#D8D8D8" d="M9.2 18.226h3.316v1H9.2z"/><path fill="#D51522" d="M9.2 15.573h3.316v2.432H9.2zm3.426 1.659h3.17v4.253l-3.17-.938z"/><path fill="#D8D8D8" d="M12.184 20.588v.023a8.827 8.827 0 00-.779-.044c-.937 0-1.754-.272-2.205-.793h2.984v.814z"/><path fill="#293392" d="M12.594 16.37l3.179.009-.05.699-3.12.092z"/><path fill="#D8D8D8" d="M12.584 15.578l-.01.718 3.001.017.06-.782z"/><path fill="#BE984D" d="M15.916 15.59l.002 1.894 6.556-.031-.04-1.87z"/><path fill="#D8D8D8" d="M15.935 17.698l.007.783 6.564-.014-.043-.727z"/><path fill="#BE984D" d="M15.965 18.661l6.544-.03v1.45s-1.295.464-1.904.556c-.609.093-2.918.232-2.918.232l-1.746.664.024-2.872zM9.103 13.52l6.634-.061-.043 1.87-6.512.119zm-2.321-3.076l9.133-.187-.1 2.37-6.945.094z"/><path fill="#D51522" d="M15.983 10.59l3.314-.023.002 2.447-3.35.032z"/><path fill="#D8D8D8" d="M19.474 10.62l.01.89h4.404l.862-.896z"/><path fill="#293392" d="M19.51 11.623l-.002.634 3.714.01.575-.622z"/><path fill="#D8D8D8" d="M19.503 12.384l.013.638h3.072l.488-.613zm-.126.888l.007 2.189 3.11-.065.025-2.184zm-3.447-.051l.025.666 3.207-.009-.003-.595z"/><path fill="#293392" d="M15.963 14.002l.003.643 3.215-.01-.019-.697z"/><path fill="#D8D8D8" d="M15.964 14.719l-.026.687 3.204-.008.049-.674z"/><path fill="#000" d="M24.391 10.807l-.515.528h-4.29v-.528h4.805zm-1.31 1.348h-3.495v-.49h3.928l-.432.49zm-.707.738h-2.788v-.45h3.226l-.438.45zm-2.851 2.396h2.838v-1.95h-2.838v1.95zm-3.515 2.078h6.353v-1.641h-6.353v1.64zm0 1.011h6.353v-.473h-6.353v.473zm6.353 1.189c0 .388-.523.604-.818.675a4.11 4.11 0 01-.986.116c-.8 0-1.413.108-2.724.255-1.033.118-1.564.441-1.825.663v-2.539h6.353v.83zm-6.32-6.674h3.022v-2.086H16.04v2.086zm0 .92h3.022v-.473H16.04v.473zm0 1.486h3.022v-.498H16.04v.498zm0-.752h3.022v-.486H16.04v.486zm-.483-2.105H8.924l-1.55-1.684h8.184v1.684zM9.235 15.3h6.323v-1.6H9.235v1.6zm3.4.975h2.86v-.548h-2.86v.548zm0 .806h2.86v-.565h-2.86v.565zm0 .809h2.86v-.559h-2.86v.559zm2.86 3.44c-.247-.228-.77-.569-1.57-.66-.532-.066-.931-.117-1.29-.16v-2.232h2.86v3.052zm-6.26-3.44h2.917v-2.163H9.235v2.163zm2.917.885H9.227l.008-.497h2.917v.497zm0 .793H9.294c-.032-.059-.048-.124-.067-.197v-.267h2.925v.464zm0 .883v.016a9.494 9.494 0 00-.691-.032c-.83 0-1.555-.198-1.955-.578h2.646v.594zm3.75-11.448L6.06 10.214l2.476 2.73v6.572c0 .918 1.11 1.424 2.496 1.424.797 0 1.42.102 2.721.255 1.312.15 2.044.917 2.035.917.009 0 .371-.706 2.045-.895 1.31-.153 1.924-.256 2.724-.256 1.392 0 2.547-.583 2.547-1.806v-6.21l2.642-2.736-9.843-1.207z"/></g></svg>