<svg xmlns="http://www.w3.org/2000/svg" width="32" height="32" viewBox="0 0 32 32"><g fill="none" fill-rule="evenodd"><path fill="#231F20" fill-rule="nonzero" d="M3.12 12.842v4.63c0 5.472 4.435 9.907 9.904 9.907h5.952c5.467 0 9.903-4.436 9.903-9.907v-4.63c0-4.008-3.255-7.261-7.267-7.261H10.388a7.264 7.264 0 00-7.267 7.261zm-1.32 0c0-4.74 2.743-7.812 8.588-8.582 0 0 3.721-.46 5.612-.46 1.89 0 5.612.46 5.612.46 5.311.676 8.588 3.845 8.588 8.582v4.63c0 6.201-5.028 11.228-11.224 11.228h-5.952C6.825 28.7 1.8 23.673 1.8 17.472v-4.63z"/><path fill="#A9AAAB" d="M3 12.996C3 8.58 6.588 5 10.995 5h10.01A7.996 7.996 0 0129 12.996v6.013C29 23.974 24.966 28 19.998 28h-7.996C7.03 28 3 23.967 3 19.009v-6.013z"/><path fill="#00416D" d="M6 15c0-4.418 3.583-8.038 8-8.084l4.169-.044a7.809 7.809 0 017.926 7.918l-.02 2.209C26.032 21.418 22.424 25 18.008 25H13.99C9.578 25 6 21.422 6 17v-2z"/><g fill="#ECEEF0"><path d="M16.05 17.041c.034-.004.1-.018.135-.06.046-.06.127-.248.127-.248l3.38-8.655s.17-.174.086-.429c-.085-.255-.22-.35-.22-.35s.75-.096 1.112 0c.363.095.856.517.856.517s-.344-.017-.449.097c-.105.115-.077.213-.076.253.001.106.202 6.748-.056 8.244-.245 1.425-3.287 6.468-4.35 8.334-.033.059-.023.094-.011.115.011.022.066.025.186.025s.19-.003.19-.003l-.096.493h-1.627l-.097-.493s.07.003.19.003.175-.003.187-.025c.011-.021.022-.056-.012-.115-1.062-1.866-4.105-6.909-4.35-8.334-.257-1.496-.057-8.138-.055-8.244 0-.04.055-.146-.058-.253-.114-.106-.483.107-.483.107l-.094-.37 2.084-.352s-.226.169-.226.351c0 .182.085.43.085.43l3.38 8.654s.081.189.128.247c.034.043.1.057.134.061z"/><path fill-rule="nonzero" d="M6.558 14.422v2.605a7.813 7.813 0 007.816 7.81h3.773a7.81 7.81 0 007.816-7.81v-2.605A7.162 7.162 0 0018.8 7.256h-5.08a7.166 7.166 0 00-7.162 7.166zm-.651 0c0-4.318 3.5-7.817 7.814-7.817h5.08a7.813 7.813 0 017.813 7.817v2.605a8.461 8.461 0 01-8.467 8.461h-3.773c-4.676 0-8.467-3.787-8.467-8.461v-2.605z"/><path fill-rule="nonzero" d="M3.302 12.914v4.564c0 5.394 4.372 9.766 9.764 9.766h5.868c5.39 0 9.764-4.373 9.764-9.766v-4.564c0-3.951-3.21-7.158-7.165-7.158H10.467a7.161 7.161 0 00-7.165 7.158zm-1.302 0c0-4.673 2.704-7.702 8.467-8.46 0 0 3.67-.454 5.533-.454 1.864 0 5.533.453 5.533.453C26.769 5.12 30 8.244 30 12.913v4.565c0 6.113-4.957 11.068-11.066 11.068h-5.868C6.955 28.546 2 23.591 2 17.478v-4.564z"/></g></g></svg>