<svg xmlns="http://www.w3.org/2000/svg" xmlns:xlink="http://www.w3.org/1999/xlink" width="32" height="32" viewBox="0 0 32 32"><defs><path id="cars-chrysler-ic-chrysler-a" d="M.042.058H16.09V3.93H.042z"/></defs><g fill="none" fill-rule="evenodd"><path fill="#D5D5D5" d="M16.048 17.617c-.375-.018-.991.048-1.175.132-.208.095-.272.158-.778.158-.507 0-1.505-.158-1.505-.158S1.989 15.87 1.7 15.757c-.287-.114-.642-.333-1.043-.614-.4-.28-.628-.535-.628-.719 0-.184.25-.228.25-.228l11.695-.085s.484-.023.645.024c.161.046.87.419 1.089.467.524.117 2.339.07 2.339.07"/><path fill="#C5C5C5" d="M14.095 17.942c-.503 0-1.5-.157-1.51-.159-.433-.076-10.607-1.879-10.893-1.992-.265-.105-.599-.302-1.05-.618C.35 14.968 0 14.672 0 14.424c0-.212.264-.26.275-.263l11.7-.085c.018 0 .489-.023.652.025.07.02.235.097.424.186.253.119.54.254.664.281.515.115 2.314.07 2.332.07l.002.07c-.075.002-1.824.045-2.346-.071-.129-.029-.419-.165-.674-.285-.18-.084-.35-.164-.416-.183-.156-.045-.632-.023-.637-.023L.28 14.231c.002 0-.22.041-.22.193 0 .165.224.417.614.69.447.313.777.507 1.037.61.282.112 10.777 1.971 10.883 1.99.01.001 1.002.157 1.5.157.442 0 .539-.046.7-.123l.068-.032c.184-.084.794-.153 1.187-.134l-.002.07c-.38-.018-.988.05-1.163.13a4.444 4.444 0 00-.068.031c-.161.078-.268.129-.721.129"/><path fill="#212121" d="M2 14.786l7.263.138s.229.013.384.063c.156.05.32.19.32.19h1.84s-.63.02-.682.05c-.052.03-.017.05-.017.05H9.786l.051.06.398.06.302.292h1.452s-.276.06-.328.11l-.052.05H10.52s.035.07.19.08c.156.01.173.05.242.07.07.02.38.331 1.011.542.631.21 1.755.43 1.755.43s-1.625-.04-2.334-.39c-.708-.351-1.668-1.163-1.884-1.263-.216-.1-.44-.07-.44-.07s-4.935-.231-5.496-.281a52.56 52.56 0 01-1.565-.18"/><path fill="#D5D5D5" d="M15.952 17.617c.375-.018.991.048 1.175.132.208.095.272.158.778.158.507 0 1.505-.158 1.505-.158s10.601-1.879 10.89-1.992c.287-.114.642-.333 1.043-.614.4-.28.628-.535.628-.719 0-.184-.25-.228-.25-.228l-11.695-.085s-.484-.023-.645.024c-.161.046-.87.419-1.089.467-.524.117-2.339.07-2.339.07"/><g transform="translate(15.91 14.012)"><mask id="cars-chrysler-ic-chrysler-b" fill="#fff"><use xlink:href="#cars-chrysler-ic-chrysler-a"/></mask><path fill="#C5C5C5" d="M1.996 3.93c-.453 0-.56-.051-.722-.129a4.445 4.445 0 00-.068-.032C1.032 3.69.423 3.622.044 3.64l-.002-.07c.392-.019 1.003.05 1.187.134l.068.033c.161.076.258.123.7.123.498 0 1.49-.156 1.5-.158.105-.019 10.601-1.878 10.883-1.99.26-.103.59-.297 1.037-.61.39-.273.613-.525.613-.69 0-.152-.221-.193-.224-.193L4.116.135c-.006 0-.483-.023-.638.022-.066.02-.236.099-.416.183-.256.12-.545.256-.674.285C1.866.741.116.698.042.695l.001-.07C.062.627 1.861.672 2.376.557c.123-.027.41-.162.663-.28.19-.09.354-.167.424-.187.164-.048.634-.026.654-.025L15.811.15c.016.003.28.051.28.263 0 .248-.35.544-.642.75-.452.316-.785.512-1.05.617-.286.114-10.46 1.916-10.894 1.993-.01.001-1.006.158-1.509.158" xmask="url(#cars-chrysler-ic-chrysler-b)"/></g><path fill="#212121" d="M30 14.786l-7.263.138s-.229.013-.384.063c-.156.05-.32.19-.32.19h-1.84s.63.02.682.05c.052.03.017.05.017.05h1.322l-.051.06-.398.06-.302.292H20.01s.276.06.328.11l.052.05h1.089s-.035.07-.19.08c-.156.01-.173.05-.242.07-.07.02-.38.331-1.011.542-.631.21-1.755.43-1.755.43s1.625-.04 2.334-.39c.708-.351 1.668-1.163 1.884-1.263.216-.1.44-.07.44-.07s4.935-.231 5.496-.281c.562-.05 1.565-.18 1.565-.18"/><path fill="#FFF" d="M16.049 16.313s-1.367-.006-2.237 0c-.87.006-1.055-.137-1.414-.488-.482-.47-.423-.687-.423-.687h4.074"/><path fill="#000747" d="M16.048 16.304s-1.346-.006-2.203 0c-.857.006-1.08-.17-1.396-.491-.467-.474-.414-.667-.414-.667h4.013"/><path fill="#FFF" d="M15.905 16.313s1.366-.006 2.236 0c.87.006 1.055-.137 1.414-.488.482-.47.423-.687.423-.687h-4.073"/><path fill="#000747" d="M15.905 16.304s1.346-.006 2.203 0c.857.006 1.08-.17 1.397-.491.467-.474.413-.667.413-.667h-4.134"/><path fill="#000" d="M16.038 17.564s-.403-.003-.711.049c-.575.096-.491.162-.794.25-.302.087-1.444-.08-1.444-.08S3.07 16.01 2.51 15.908c-.809-.15-.775-.124-1.406-.492-.847-.493-1.066-.93-1.066-.93s.151.088.363.246c1.073.803 1.168.763 1.376.854.597.26 9.89 1.813 9.89 1.813s2.102.438 2.45.28c.348-.157.546-.306.711-.35.59-.158 1.413-.108 1.413-.108"/><path fill="#000" d="M15.962 17.564s.403-.003.711.049c.575.096.491.162.794.25.302.087 1.444-.08 1.444-.08S28.93 16.01 29.49 15.908c.809-.15.77-.138 1.406-.492.877-.487 1.066-.93 1.066-.93s-.151.088-.363.246c-1.073.803-1.168.763-1.376.854-.597.26-9.89 1.813-9.89 1.813s-2.102.438-2.45.28c-.348-.157-.546-.306-.711-.35-.59-.158-1.369-.102-1.369-.102"/><path fill="#C2C2C2" d="M31.732 14.232c-.106-.017-11.922-.1-11.922-.1s-.291-.029-.53.088c-.16.08-.7.304-.872.364-.249.088-2.446.088-2.468.088-.581-.004-2.048-.024-2.247-.094-.172-.06-.847-.384-1.014-.445-.166-.062-.393 0-.393 0s-11.816.082-11.922.1c-.106.017-.214.101-.214.101s.736.143 1.076.173c3.534.316 11.189.16 11.468.205.28.043.477.28.847.28h5.014c.37 0 .567-.237.846-.28.28-.044 7.935.11 11.469-.205.34-.03 1.076-.173 1.076-.173s-.109-.084-.214-.102"/></g></svg>