<svg xmlns="http://www.w3.org/2000/svg" width="32" height="32" viewBox="0 0 32 32"><g fill="none" fill-rule="nonzero"><path fill="#231F20" d="M16 12.231c2.55 0 8.75 5.293 9.506 5.953a.29.29 0 00.256.088c.194 0 .194-.318.194-.318s.044-.66.044-1.345a2.778 2.778 0 00-.663-1.6S18.42 7.41 16 7.41c-2.419 0-9.338 7.597-9.338 7.597A2.778 2.778 0 006 16.603c0 .685.044 1.345.044 1.345s0 .299.194.317a.286.286 0 00.256-.056c.756-.685 6.956-5.978 9.506-5.978z"/><path fill="#231F20" d="M16 19.23c2.55 0 8.75 5.294 9.506 5.954a.29.29 0 00.256.087c.194 0 .194-.318.194-.318s.044-.66.044-1.345a2.778 2.778 0 00-.663-1.6S18.42 14.41 16 14.41c-2.419 0-9.338 7.59-9.338 7.59A2.778 2.778 0 006 23.603c0 .685.044 1.345.044 1.345s0 .3.194.318a.288.288 0 00.256-.087c.756-.68 6.956-5.947 9.506-5.947z"/><path fill="#A9AAAB" d="M8.975 13.85a38.774 38.774 0 00-2.85 2.603c0 .467.044 1.47.044 1.47s0 .361.256.13l.256-.236c2.781-2.54 5.625-4.776 7.944-5.76.169-.063.431-.131.3-.3-.131-.167-.344-.105-.513-.105-2.375.15-5.33 2.11-5.437 2.198zm14.05 0a38.774 38.774 0 012.85 2.603c0 .467-.044 1.47-.044 1.47s0 .361-.256.13l-.256-.236c-2.781-2.54-5.625-4.776-7.944-5.76-.169-.063-.431-.131-.3-.3.131-.167.344-.105.513-.105 2.374.15 5.33 2.11 5.437 2.198zm-14.05 7a38.774 38.774 0 00-2.85 2.603c0 .467.044 1.47.044 1.47s0 .36.256.13l.256-.237c2.781-2.54 5.625-4.776 7.944-5.76.169-.062.431-.13.3-.299-.131-.168-.344-.106-.513-.106-2.375.169-5.33 2.136-5.437 2.199zm14.05 0a38.774 38.774 0 012.85 2.603c0 .467-.044 1.47-.044 1.47s0 .36-.256.13l-.256-.237c-2.781-2.54-5.625-4.776-7.944-5.76-.169-.062-.431-.13-.3-.299.131-.168.344-.106.513-.106 2.374.169 5.33 2.136 5.437 2.199z"/><path fill="#ECEEF0" d="M25.25 15.096c-.087-.088-6.919-7.56-9.25-7.56-2.331 0-9.162 7.472-9.25 7.56-.333.396-.55.877-.625 1.388a36.824 36.824 0 012.85-2.634s.431-.361 1.05-.834c1.412-1.034 3.9-2.684 5.975-2.684 2.075 0 4.563 1.65 5.975 2.709.625.467 1.05.834 1.05.834a38.774 38.774 0 012.85 2.603 2.916 2.916 0 00-.625-1.382z"/><path fill="#ECEEF0" d="M25.25 22.089c-.087-.087-6.919-7.554-9.25-7.554-2.331 0-9.162 7.467-9.25 7.554-.333.396-.55.877-.625 1.389a36.826 36.826 0 012.85-2.603s.431-.362 1.05-.835c1.412-1.065 3.9-2.709 5.975-2.709 2.075 0 4.563 1.644 5.975 2.71.625.466 1.05.834 1.05.834a38.774 38.774 0 012.85 2.603 2.798 2.798 0 00-.625-1.39z"/><path fill="#BCBEC0" d="M25.375 15.581c-3.831-4.359-8.006-7.747-9.206-7.809A.168.168 0 0016 7.94c0 1.433.088 1.688 1.069 2.068.106.05 3.837 1.177 8.306 5.71l.063.063-.063-.2zm0 6.987c-3.831-4.359-8.006-7.746-9.206-7.809a.168.168 0 00-.169.168c0 1.433.088 1.688 1.069 2.068.131.043 3.856 1.17 8.306 5.698l.063.062-.063-.187z"/></g></svg>