<svg xmlns="http://www.w3.org/2000/svg" width="32" height="32" viewBox="0 0 32 32"><g fill="none" fill-rule="evenodd"><path fill="#939598" d="M27.746 15.223s-.489 2.226-.985 3.218c-.32.625-1.95 1.972-4.016 2.645-2.047.665-4.173.647-4.173.647.623-5.689 4.41-7.403 6.01-7.838 1.85-.503 2.828.263 2.828.263.298.198.468.47.336 1.065M9.331 21.086c-2.066-.673-3.696-2.02-4.016-2.645-.496-.992-.985-3.218-.985-3.218-.133-.596.038-.867.336-1.065 0 0 .977-.766 2.828-.263 1.599.435 5.387 2.15 6.01 7.838 0 0-2.126.018-4.173-.647m21.82-9.05s-3.256-2.039-7.727-3.08c0 0-.546-.132-.99 0-.516.12-.924.488-1.445 1.009-1.315 1.315-3.307 3.963-4.553 9.578 1.038-7.709 3.876-10.921 3.876-10.921s-1.306-1.359-4.192-1.496c0 0-.054-.006-.082-.005-.028 0-.082.005-.082.005-2.886.137-4.193 1.496-4.193 1.496s2.84 3.212 3.876 10.92c-1.245-5.614-3.237-8.262-4.552-9.577-.521-.52-.93-.889-1.445-1.01-.444-.131-.99 0-.99 0-4.47 1.042-7.727 3.08-7.727 3.08-.434.261-.998.565-.738 1.65 0 0 1.062 4.234 1.496 5.19.576 1.545 2.748 4.326 9.3 5.162 1.138.145 3.79.301 4.835.36h.44c1.045-.059 3.697-.215 4.834-.36 6.554-.836 8.725-3.617 9.301-5.163.434-.955 1.496-5.188 1.496-5.188.26-1.086-.304-1.39-.738-1.65"/><path stroke="#231F20" stroke-width=".5" d="M27.746 15.223s-.489 2.226-.985 3.218c-.32.625-1.95 1.972-4.016 2.645-2.047.665-4.173.647-4.173.647.623-5.689 4.41-7.403 6.01-7.838 1.85-.503 2.828.263 2.828.263.298.198.468.47.336 1.065zM9.331 21.086c-2.066-.673-3.696-2.02-4.016-2.645-.496-.992-.985-3.218-.985-3.218-.133-.596.038-.867.336-1.065 0 0 .977-.766 2.828-.263 1.599.435 5.387 2.15 6.01 7.838 0 0-2.126.018-4.173-.647zm21.82-9.05s-3.256-2.039-7.727-3.08c0 0-.546-.132-.99 0-.516.12-.924.488-1.445 1.009-1.315 1.315-3.307 3.963-4.553 9.578 1.038-7.709 3.876-10.921 3.876-10.921s-1.306-1.359-4.192-1.496c0 0-.054-.006-.082-.005-.028 0-.082.005-.082.005-2.886.137-4.193 1.496-4.193 1.496s2.84 3.212 3.876 10.92c-1.245-5.614-3.237-8.262-4.552-9.577-.521-.52-.93-.889-1.445-1.01-.444-.131-.99 0-.99 0-4.47 1.042-7.727 3.08-7.727 3.08-.434.261-.998.565-.738 1.65 0 0 1.062 4.234 1.496 5.19.576 1.545 2.748 4.326 9.3 5.162 1.138.145 3.79.301 4.835.36h.44c1.045-.059 3.697-.215 4.834-.36 6.554-.836 8.725-3.617 9.301-5.163.434-.955 1.496-5.188 1.496-5.188.26-1.086-.304-1.39-.738-1.65z"/><path fill="#A9AAAB" d="M27.746 15.223s-.489 2.226-.985 3.218c-.32.625-1.95 1.972-4.016 2.645-2.047.665-4.173.647-4.173.647.623-5.689 4.41-7.403 6.01-7.838 1.85-.503 2.828.263 2.828.263.298.198.468.47.336 1.065m.645-1.894s-1.204-.943-3.485-.323c-1.97.535-6.636 2.647-7.404 9.656 0 0 2.62.023 5.142-.798 2.545-.828 4.553-2.489 4.948-3.257.61-1.223 1.213-3.965 1.213-3.965.163-.734-.047-1.069-.414-1.313"/><path fill="#ECEEF0" d="M28.797 14.642s-.602 2.742-1.214 3.965c-.394.769-2.402 2.43-4.947 3.257-2.522.82-5.142.798-5.142.798.768-7.009 5.435-9.121 7.404-9.656 2.28-.62 3.485.323 3.485.323.367.244.577.579.414 1.313M9.44 21.864c-2.545-.828-4.553-2.488-4.947-3.257-.612-1.223-1.214-3.965-1.214-3.965-.163-.734.047-1.069.414-1.313 0 0 1.204-.943 3.485-.323 1.97.535 6.636 2.647 7.404 9.656 0 0-2.62.023-5.142-.798m21.71-9.828s-3.255-2.04-7.726-3.08c0 0-.546-.132-.99 0-.516.12-.924.488-1.445 1.01-1.315 1.314-3.307 3.961-4.553 9.576 1.038-7.708 3.876-10.92 3.876-10.92s-1.306-1.358-4.192-1.496c0 0-.054-.006-.082-.004-.028-.002-.082.004-.082.004-2.886.138-4.193 1.496-4.193 1.496s2.84 3.212 3.876 10.92c-1.245-5.615-3.237-8.262-4.552-9.577-.521-.52-.93-.889-1.445-1.01-.444-.131-.99 0-.99 0C4.182 9.997.925 12.036.925 12.036c-.434.26-.998.564-.738 1.65 0 0 1.062 4.234 1.495 5.188.576 1.546 2.749 4.328 9.302 5.163 1.137.145 3.789.302 4.834.36h.44c1.045-.058 3.697-.215 4.834-.36 6.554-.835 8.725-3.617 9.301-5.163.434-.954 1.496-5.189 1.496-5.189.26-1.085-.304-1.389-.738-1.649"/><path fill="#A9AAAB" d="M31.15 12.036s-3.255-2.04-7.727-3.08c0 0-.545-.132-.99 0-.515.12-.923.488-1.444 1.01-1.299 1.299-3.262 3.91-4.51 9.387 0 0 1.55-5.787 4.753-8.932.481-.473.851-.814 1.323-.925.407-.12.908 0 .908 0 4.096.954 7.079 2.823 7.079 2.823.397.238.915.516.676 1.51 0 0-.972 3.88-1.37 4.755-.527 1.416-2.437 4.345-8.445 5.088-1.584.197-4.546.415-5.365.415-.818 0-3.782-.218-5.366-.415C4.666 22.93 2.756 20 2.228 18.584 1.83 17.709.858 13.83.858 13.83c-.239-.995.278-1.273.676-1.511 0 0 2.983-1.869 7.08-2.823 0 0 .5-.12.907 0 .472.11.841.452 1.323.925 3.202 3.145 4.753 8.932 4.753 8.932-1.248-5.477-3.21-8.088-4.51-9.388-.52-.52-.93-.889-1.445-1.01-.444-.131-.99 0-.99 0C4.182 9.997.925 12.036.925 12.036c-.434.26-.998.564-.738 1.65 0 0 1.062 4.234 1.496 5.188.575 1.546 2.747 4.328 9.3 5.163 1.138.145 3.79.302 4.835.36h.44c1.045-.058 3.697-.215 4.834-.36 6.554-.835 8.726-3.617 9.302-5.163.433-.954 1.494-5.189 1.494-5.189.261-1.085-.303-1.389-.737-1.649"/><path fill="#A9AAAB" d="M4.666 14.157s.977-.765 2.829-.262c1.598.435 5.386 2.149 6.01 7.838 0 0-2.127.019-4.174-.648-2.066-.672-3.696-2.02-4.016-2.644-.497-.992-.985-3.218-.985-3.218-.133-.595.038-.867.336-1.066m-1.395.485s.602 2.742 1.214 3.965c.393.769 2.402 2.429 4.947 3.258 2.522.82 5.142.797 5.142.797-.768-7.009-5.434-9.12-7.404-9.656-2.281-.62-3.485.323-3.485.323-.367.244-.577.58-.414 1.313"/><path fill="#939598" d="M16.805 17.446c-.257 1.243-.368 2.096-.368 2.096s.155-.91.368-2.096"/><path fill="#A9AAAB" d="M16.038 7.121c-2.78 0-4.28 1.501-4.28 1.501s1.44 1.914 2.38 4.565c.534 1.51.905 3.065 1.144 4.26a146.93 146.93 0 00-.791-4.27c-.349-1.666-1.363-4.494-1.363-4.494s.71-1.022 2.91-1.02c2.095.026 2.91 1.02 2.91 1.02s-1.015 2.828-1.363 4.494a145.378 145.378 0 00-.791 4.27c.24-1.195.61-2.75 1.145-4.26.939-2.651 2.38-4.565 2.38-4.565s-1.517-1.501-4.28-1.501"/><path fill="#939598" d="M15.282 17.446c.213 1.187.368 2.096.368 2.096s-.11-.853-.368-2.096"/></g></svg>