<svg xmlns="http://www.w3.org/2000/svg" xmlns:xlink="http://www.w3.org/1999/xlink" width="32" height="32" viewBox="0 0 32 32"><defs><path id="cars-dongfeng-ic-dongfeng-a" d="M0 13.122V26h25.753V.245H0v12.877z"/></defs><g fill="none" fill-rule="evenodd"><g transform="translate(3 3.032)"><mask id="cars-dongfeng-ic-dongfeng-b" fill="#fff"><use xlink:href="#cars-dongfeng-ic-dongfeng-a"/></mask><path fill="#EC1D24" d="M12.873 26h.01c7.107-.003 12.87-5.767 12.87-12.878C25.753 6.01 19.988.245 12.878.245 5.767.245.003 6.008 0 13.118v.009C.003 20.236 5.765 25.997 12.873 26" xmask="url(#cars-dongfeng-ic-dongfeng-b)"/></g><path fill="#FEFEFE" d="M12.153 5.55c4.054-.029 10.24 2.394 10.743 10.418 1.232-.73 2.316-2.11 3.225-4.432a11.234 11.234 0 00-10.243-6.618c-1.306 0-2.56.223-3.725.632M19.6 26.758c-4.054.029-10.24-2.394-10.743-10.42-1.231.732-2.316 2.111-3.225 4.435a11.233 11.233 0 0010.246 6.616c1.303 0 2.557-.223 3.722-.63"/><path fill="#FEFEFE" d="M15.799 8.318c-7.158 9.062-.541 17.058 4.432 18.198 4.042-1.701 6.882-5.7 6.882-10.362 0-1.56-.319-3.047-.894-4.398.182 6.773-3.239 10.852-10.263 12.234 7.157-9.063.54-17.058-4.434-18.197a11.239 11.239 0 00-6.88 10.36c0 1.562.317 3.049.893 4.399-.183-6.773 3.238-10.85 10.264-12.234"/></g></svg>