<svg xmlns="http://www.w3.org/2000/svg" width="32" height="32" viewBox="0 0 32 32"><g fill="none" fill-rule="evenodd"><ellipse cx="16" cy="16" fill="#173E7E" rx="16" ry="6"/><ellipse cx="16" cy="16" stroke="#FFF" stroke-width=".4" rx="15" ry="5.3"/><path fill="#FFF" fill-rule="nonzero" d="M11.31 11.89H12a36.68 36.68 0 014.46.59 11 11 0 004-.15.2.2 0 01.26.23c-.02.24-.2.47-.64.72a3.17 3.17 0 01-1.58.37c-1.313-.122-2.452-.339-3.703-.756L14.64 13a6.18 6.18 0 00-1.75 1.88l1.06-.06c.06-.01.06-.07.06-.07a.9.9 0 01.27-.77.55.55 0 01.72-.08c.156.214.126.519.019.727-.108.208-.334.346-.559.413 0 .06.29.25.29.25a.13.13 0 010 .14.16.16 0 01-.13.06.26.26 0 01-.13 0 1.25 1.25 0 01-.36-.3H14c-.37.02-.97.08-1.37.13-.13.02-.13.07-.13.07a17.17 17.17 0 01-2.06 3 2.85 2.85 0 01-2.17 1.06 1.67 1.67 0 01-1.76-1.53 2 2 0 01.4-1.42A2 2 0 018 15.78a.4.4 0 01.43-.01.2.2 0 010 .32 1.85 1.85 0 00-.81.76 1 1 0 000 1c.35.56 1.35.57 2.27-.31a8.12 8.12 0 00.64-.67 14.86 14.86 0 001.08-1.42 1.62 1.62 0 00-1 .36.19.19 0 01-.27 0 .22.22 0 01.08-.3c.48-.292 1.57-.58 1.54-.6.23-.29.4-.56.64-.86.24-.286.504-.55.79-.79a3.54 3.54 0 01.76-.51c.13-.07.17-.035 0-.07-.467-.1-2.47-.4-3.68-.08-.81.32-1.18 1-1 1.45.12.32.53.37.92.18a2.11 2.11 0 00.83-.76c.12-.19.36-.05.23.27a2.26 2.26 0 01-1.85 1.55 1.09 1.09 0 01-1.15-1.15c.01-1.25 1.4-2.12 2.86-2.25zm3.01 2.77s0 .1.02.137c.07-.02.07-.037.07-.037a.632.632 0 00.33-.25c.051-.085.15-.22 0-.33a.18.18 0 00-.24 0 .56.56 0 00-.18.48z"/><path fill="#FFF" fill-rule="nonzero" d="M24.68 14.14c-.06 0-.09 0-.12.07-.09.19-1.24 2-1.46 2.29 0 .05-.08 0-.09 0a.73.73 0 00-.46-.55 1.15 1.15 0 00-.62-.07 2.17 2.17 0 00-1 .49c-.45.35-.83.8-1.33 1.13-.27.18-.64.34-.89.1a.79.79 0 01.14-1.06h.07a.47.47 0 00.13.45.48.48 0 00.55.06.74.74 0 00.4-.55.64.64 0 00-.58-.73 1.13 1.13 0 00-.83.31 1.6 1.6 0 00-.33.37h-.07c0-.48-.18-.75-.57-.76a1.42 1.42 0 00-.87.36 8.15 8.15 0 00-.77.81h-.07c0-.296-.08-.586-.23-.84a.19.19 0 00-.25-.06c-.102.05-.2.11-.29.18a.17.17 0 000 .19 2.27 2.27 0 01-.14 1.41 1.6 1.6 0 01-.9.92.58.58 0 01-.7-.19 1.25 1.25 0 01.21-1.36 2.58 2.58 0 011.17-.85.07.07 0 000-.1l-.08-.22c0-.11-.15-.13-.29-.11a2.41 2.41 0 00-.88.3 3.08 3.08 0 00-1.27 1.61 1.65 1.65 0 01-.23.44 4.27 4.27 0 01-.53.53.1.1 0 000 .11c.056.103.127.197.21.28a.12.12 0 00.11 0 2.79 2.79 0 00.52-.48h.1c.097.376.374.68.74.81a1.82 1.82 0 001.91-.69 7.83 7.83 0 00.59-.78 7.19 7.19 0 011.16-1.3c.19-.15.41-.26.52-.19.09.06.12.2 0 .47-.52 1-1.29 2.13-1.44 2.41v.09h.79a.09.09 0 00.08-.05c.4-.65.78-1.26 1.19-1.9.005.168.05.332.13.48a.7.7 0 00.61.35c.17 0 .337-.037.49-.11a1.71 1.71 0 00.41-.22h.07a1.23 1.23 0 00.52 1.37 1.48 1.48 0 001.62-.5h.08a.71.71 0 00.19.44c.31.32.95.2 1.59-.31A8.08 8.08 0 0025 17.84a.06.06 0 000-.08l-.2-.19a.07.07 0 00-.09 0c-.39.432-.814.83-1.27 1.19-.17.12-.45.23-.58.05a.29.29 0 010-.28c.15-.38 2.53-4.1 2.65-4.32v-.07h-.82m-3.79 4.57a.43.43 0 01-.17-.38 2 2 0 01.5-1.22c.39-.49.82-.75 1.11-.61.29.14.2.49.07.77a.08.08 0 000 .06s0 .06.08.07a3.6 3.6 0 01-.32.54 2 2 0 01-.41.45 1.14 1.14 0 01-.65.33.4.4 0 01-.2 0"/></g></svg>