<svg xmlns="http://www.w3.org/2000/svg" width="32" height="32" viewBox="0 0 32 32"><g fill="#004288" fill-rule="evenodd"><path d="M15.41 9.875c.012.025-.061.098-.073.123-.208-.062-.477-.123-.697-.013-.207.098-.66.11-1.002.184l-.06.06a.623.623 0 00-.098.355s.525.049.598.086c.074.048.257.134.306.28a.796.796 0 01-.196.27c-.5.378-1.258 1.062-1.417 1.307-.171.244-.379.55-.452.83-.073.294.012.44.061.624-.452.085-1.026.134-1.417.158l-.098.037c0 .183-.037.391 0 .55.415.318.953.55 1.307.794-.72.782-1.258 1.674-2.113 2.321-.306.184-.734.575-.856.697-.11.11-.097.208-.097.208.134.036.342.012.476.024.22-.012.428-.208.525-.427.147-.098.257-.294.428-.33.318-.16.428-.526.635-.77.22-.208.355-.464.6-.623.341-.208.488-.611.818-.868l.55.379c.28.11.586-.012.891 0l.135-.086c-.012-.17-.171-.305-.306-.39-.183-.135-.305.097-.488.073-.16-.061-.367-.037-.477-.196.293-.17.489-.415.807-.537l.476.097c.94-.17 2.053-.33 2.97-.207.231.06.402.305.524.5.355.55-.39.783-.586 1.186-.599.647-1.527 1.112-1.857 1.98-.012.11-.049.231 0 .341.208-.012.379-.11.562-.183.232-.085.122-.22.134-.354-.012-.22.135-.391.257-.538.208.086.293-.146.366-.269.44-.696 1.625-1.246 1.772-1.368.147-.122.22-.135.244-.257.025-.122-.195-.44-.146-.757.537.159 1.075.317 1.564.61.452.245.708.697.977 1.113.452.684.843 1.637 1.503 1.954.147.098.342.098.415.05-.048-.245-.183-.453-.195-.722-.073.037-.159.062-.232.037-.208-.012-.342-.244-.379-.39-.024-.135.012-.319.012-.319-.293-.097-.574-.403-.745-.647-.159-.232-.464-.855-.44-1.393-.745-.134-1.234-1.295-1.295-1.6-.049-.306.024-.465.073-.685-.293-.269-.647-.476-1.063-.537-.403-.061-1.942-.025-2.883.097-.208.025-.489.074-.648-.097-.085-.074-.122-.294-.073-.44.049-.147.33-.428.452-.611.134-.183.342-.587.5-.868.135.05.343.098.526.061.184-.036.416-.11.391-.244-.012-.122-.513-.232-.782-.159a.28.28 0 01-.293-.244c.012-.073.086-.11.134-.134.648.134 1.479.195 2.078.073.66-.122 1.442-.367 1.845-1.027a6.461 6.461 0 00-.685-.085c-.22.403-.77.77-1.295.819-.244.024-.354-.123-.488-.245-.343.306-1.1.318-1.479.232-.379-.097-1.234-.562-1.6-.904a3.418 3.418 0 00-.098.538c.305.208 1.197.476 1.197.476m7.734 9.213H8.85c-.88-3.446-1.332-4.9-3.25-7.832l2.126-2.884h16.543l2.126 2.884c-2.04 3.128-2.321 4.35-3.25 7.832"/><path d="M12.637 14.811c.097.16-.16.257-.208.38-.281-.147-.599-.282-.806-.563.366 0 .708.037 1.014.183"/><path d="M9.423 3.803l1.075-.501v3.64h-2.15v-3.64l1.075.5zM24.806 24.89l-8.81 4.448-8.809-4.448c-.317-5.522-1.148-9.37-4.484-13.647l3.825-5.205h1.417v1.32l2.957-.013v-3.42h.354v3.433h2.945V3.925h.317v3.446h2.945V3.925h.342v3.433h2.957V3.925h.317v3.433h2.957v-1.32h1.417l3.837 5.218c-2.517 3.189-4.142 6.647-4.484 13.635zM12.722 3.803l1.075-.501v3.64H11.66v-3.64l1.063.5zm3.262 0l1.076-.489v3.641h-2.14v-3.64l1.063.488zm3.3-.012l1.074-.49v3.642H18.22V3.302l1.063.489zm3.274.012l1.075-.501v3.64h-2.138v-3.64l1.063.5zm3.164 1.71h-1.686V2.031l-1.478.684-1.479-.684v.88h-.317v-.88l-1.479.684-1.478-.684v.88h-.342v-.868l-1.479.685-1.466-.685v.868h-.317v-.88l-1.479.684-1.466-.684v.88h-.354v-.88l-1.479.684-1.478-.684v3.482H6.259l-4.216 5.755c3.385 4.264 4.313 8.357 4.631 13.929l9.323 4.728 9.297-4.728c.33-7.074 2.09-10.74 4.631-13.929l-4.203-5.755z"/><path d="M21.458 23.083h-5.241l-.098-.293h-.965l-.086.293h-.648l.49-1.98h-1.834v1.98h-2.211v-2.798h6.537l.782 2.163h1.221l.013-.684h-.342l.232-.66h-1.222v-.807h3.287v.16l-.33.965h.415v1.661zm-12.536-3.47c.232.843.477 3.837.477 3.837l6.61 3.323 6.598-3.335s.17-2.432.464-3.825H8.922z"/><path d="M15.923 22.142l-.354-1.075-.269 1.075z"/></g></svg>