<svg xmlns="http://www.w3.org/2000/svg" width="32" height="32" viewBox="0 0 32 32"><g fill="none" fill-rule="evenodd"><path fill="#D4D9DE" d="M9.476 9.976c.319-.082.666-.086 1.002-.09.285-.004.349.135.179.362-.465.618-.95 1.211-1.406 1.831-1.646 2.238-3.071 4.59-4.017 7.211a3.133 3.133 0 01-.34.683c-.186.301-.397.353-.73.242-.401-.146-.721-.405-1.026-.69-.672-.653-1.275-1.36-1.586-2.26-.12-.352-.167-.73-.252-1.098.019-.009.035-.012.047-.015.012-.917.4-1.687.98-2.375.663-.796 1.495-1.393 2.384-1.907 1.493-.869 3.107-1.439 4.765-1.894m4.613.092c.583-.612 1.312-.873 2.147-.9 2.107-.074 4.18.19 6.223.698.55.133 1.1.31 1.646.482.174.057.337.143.489.24.188.133.2.302.047.47a1.581 1.581 0 01-.355.29c-2.143 1.324-4.402 2.423-6.793 3.224-.91.296-1.833.53-2.792.575-.413.021-.822-.026-1.21-.194-.618-.282-.81-.795-.795-1.566.1-1.156.472-2.349 1.393-3.319m12.728 3.058c.127-.249.253-.504.384-.754.17-.319.34-.397.66-.233 1.522.75 2.456 1.94 2.728 3.63.02.117 0 .25 0 .37.014.864-.302 1.603-.818 2.272-.691.907-1.597 1.56-2.584 2.107a17.033 17.033 0 01-5.398 1.875c-.08.011-.237-.01-.244-.049a.371.371 0 01.03-.298c.244-.348.505-.687.765-1.029.926-1.225 1.714-2.539 2.442-3.889.71-1.316 1.358-2.663 2.035-4.002m-7.434 6.141c-.217 1.315-.852 2.407-1.846 3.288-.372.326-.83.451-1.304.49-.336.028-.677.037-.88.047-1.23-.019-2.314-.136-3.403-.284-1.123-.152-2.242-.344-3.334-.653a13.357 13.357 0 01-1.106-.36c-.3-.124-.307-.304-.06-.502 2.36-1.88 5.04-3.084 7.966-3.756.762-.176 1.53-.317 2.323-.26.59.04 1.129.213 1.455.768.23.378.26.804.189 1.222M.826 13.654C.035 14.858-.226 16.155.21 17.56c.354 1.125 1.077 2.004 1.954 2.761 1.172 1.02 2.523 1.73 3.956 2.291 2.788 1.093 5.696 1.557 8.666 1.66a30.989 30.989 0 004.33-.16c1.49-.166 2.96-.422 4.399-.828 1.874-.523 3.668-1.233 5.282-2.338.996-.68 1.882-1.476 2.506-2.528.612-1.02.852-2.118.594-3.299-.21-.975-.718-1.783-1.382-2.505-1.007-1.084-2.237-1.855-3.564-2.483-1.585-.754-3.25-1.245-4.966-1.585a27.22 27.22 0 00-3.622-.476c-.28-.016-.551-.047-.825-.07h-2.666c-.043.007-.09.026-.133.031-.457.03-.91.047-1.361.091a27.16 27.16 0 00-4.248.71c-1.926.482-3.775 1.152-5.47 2.197-1.112.693-2.11 1.514-2.835 2.625"/><path fill="#93959A" d="M8.475 11.373c-.307.44-.627.862-.93 1.303-1.09 1.593-2.033 3.268-2.66 5.133a2.34 2.34 0 01-.224.486c-.124.215-.263.251-.483.173-.265-.104-.478-.289-.68-.492-.445-.464-.844-.968-1.05-1.609a4.633 4.633 0 01-.136-.79c.008-.654.266-1.203.648-1.692.44-.567.99-.992 1.579-1.358.989-.618 2.057-1.024 3.155-1.348.212-.058.44-.06.663-.065.189-.002.23.097.118.26m2.396-2.189a2.376 2.376 0 00-1.044.103c-1.72.534-3.408 1.148-4.962 2.12-.926.576-1.792 1.245-2.484 2.135-.602.771-1.107 1.652-1.107 2.702 0 .452.156.805.3 1.204.36.996.953 1.8 1.653 2.53.317.32.65.611 1.068.774.347.124.567.066.76-.272.144-.234.266-.492.355-.764.985-2.934 2.469-5.568 4.183-8.074.477-.694 1.044-1.273 1.528-1.965.176-.255.045-.466-.25-.493m12.855 11.611c.308-.44.628-.862.93-1.304 1.09-1.592 2.034-3.267 2.66-5.133.056-.172.134-.336.225-.485.123-.215.263-.252.483-.174.265.105.478.29.68.492.445.465.844.968 1.05 1.61.079.25.144.79.136.791-.008.653-.266 1.201-.648 1.691-.44.566-.991.991-1.58 1.358-.988.618-2.056 1.024-3.154 1.348-.212.058-.441.061-.663.064-.19.002-.231-.096-.12-.258m-2.394 2.187c.327.03.603.035 1.044-.102 1.719-.535 3.408-1.148 4.962-2.12.926-.576 1.792-1.245 2.484-2.136.602-.77 1.107-1.65 1.107-2.7 0-.454-.157-.806-.301-1.205-.36-.996-.952-1.8-1.652-2.53-.317-.32-.651-.61-1.07-.775-.345-.123-.565-.066-.758.272a3.61 3.61 0 00-.355.765c-.985 2.934-2.47 5.568-4.183 8.074-.477.694-1.044 1.273-1.528 1.965-.176.254-.045.465.25.492m2.867-11.717a1.344 1.344 0 01-.309.251c-1.857 1.145-3.814 2.094-5.886 2.787-.787.256-1.588.457-2.419.498a2.32 2.32 0 01-1.049-.169c-.534-.243-.7-.687-.69-1.353.088-1 .411-2.032 1.21-2.87.504-.529 1.135-.755 1.86-.779 1.825-.063 3.622.165 5.391.604.478.115.955.267 1.427.417.151.05.292.124.424.208.163.114.174.26.041.406m1.227-.658a2.532 2.532 0 00-.56-.275c-.624-.197-1.255-.398-1.886-.55-2.339-.58-4.714-.882-7.127-.799-.957.032-1.79.33-2.458 1.03-1.055 1.107-1.48 2.471-1.596 3.792-.016.88.204 1.467.911 1.79.444.191.912.245 1.385.221 1.1-.053 2.157-.32 3.197-.657 2.74-.916 5.326-2.17 7.78-3.684.152-.088.29-.204.407-.33.177-.194.161-.386-.053-.538M8.226 21.184c.09-.099.198-.189.317-.258 1.913-1.179 3.93-2.158 6.065-2.872.81-.263 1.636-.47 2.492-.513.369-.018.733.024 1.08.174.55.251.722.708.71 1.395-.09 1.03-.422 2.092-1.245 2.956-.521.545-1.17.777-1.915.802-1.882.065-3.733-.17-5.556-.622a21.559 21.559 0 01-1.47-.43 1.906 1.906 0 01-.436-.214c-.168-.118-.18-.268-.042-.418m-1.265.678c.18.114.373.216.578.283.643.204 1.292.41 1.942.567 2.409.598 4.856.91 7.343.823.985-.033 1.843-.34 2.53-1.06 1.089-1.142 1.527-2.547 1.646-3.908.016-.906-.211-1.51-.938-1.842-.458-.199-.94-.254-1.427-.23-1.133.055-2.222.33-3.294.678-2.822.943-5.486 2.236-8.014 3.794a1.834 1.834 0 00-.42.342c-.182.198-.166.396.054.553"/></g></svg>