<svg xmlns="http://www.w3.org/2000/svg" width="32" height="32" viewBox="0 0 32 32"><g fill="none" fill-rule="nonzero"><path fill="#747575" d="M16 7.81c-8.5 0-17.62 3.13-15.78 9.8C1.81 23.31 12 24.19 12 24.19l4-10 4 10s12-.86 12-8.12c0-5.6-7.85-8.25-16-8.26zm7 10.93l-7-8.18-7.06 8.18S4 17.88 4 15c0-2.72 4.78-5.25 12-5.31 6.57-.06 11.7 2.23 12 5.33.26 2.75-5 3.72-5 3.72z"/><path fill="#404041" d="M31.7 15.75c0-.65-1.26-7.3-15.84-7.74a28 28 0 00-10.2 1.85C2.37 11.24.14 14 .34 16c.63 6.25 9.8 7.08 10.35 7.09.32.003.628.128.86.35a1.83 1.83 0 010-.48s3-7.21 3.68-8.13c.68-.92 1.24-.93 2.17 1.11.93 2.04 3.1 7.17 3.1 7.17a1 1 0 010 .33.71.71 0 01.54-.27c.33 0 5-.59 7.61-2.43a6.68 6.68 0 003.05-4.99zm-2.17-.56c-.14 3.3-4.93 4.35-6.48 4.64l-7-8.45L9 19.84S2.81 19 2.52 15.25c-.29-3.75 6.06-6.7 13.58-6.72 7.52-.02 13.59 3.12 13.44 6.67l-.01-.01z"/><path fill="#D0D2D3" d="M16 8C3.56 7.87-1.48 14 1.3 18c2.23 3.25 9.89 5 9.89 5L16 12.42 20.74 23s2.93-.95 3.82-1.14c.89-.19 5.29-1.16 6.58-4.76C32.43 13.5 28.48 8.18 16 8zm13.5 7.16c-.14 3.3-4.93 4.35-6.48 4.64l-7-8.45L9 19.84S2.81 19 2.52 15.25c-.29-3.75 6.06-6.7 13.58-6.72 7.52-.02 13.59 3.12 13.44 6.67l-.04-.04z"/></g></svg>