<svg xmlns="http://www.w3.org/2000/svg" xmlns:xlink="http://www.w3.org/1999/xlink" width="32" height="32" viewBox="0 0 32 32"><defs><path id="cars-isuzu-ic-isuzu-a" d="M0 .003V28h31.807V.003H0z"/></defs><g fill="none" fill-rule="evenodd"><path fill="#000" d="M16.448 14.447c-.323.32-.429.493-.424.992v8.496c0 .282.23.515.514.515h4.184a.517.517 0 00.514-.515V9.636l-4.788 4.811"/><g transform="translate(0 2.997)"><mask id="cars-isuzu-ic-isuzu-b" fill="#fff"><use xlink:href="#cars-isuzu-ic-isuzu-a"/></mask><path fill="#000" d="M22.209 23.08c-6.709 4.66-14.971 4.373-18.453-.64C.273 17.424 2.889 9.581 9.598 4.922c6.71-4.66 14.971-4.373 18.454.641 3.482 5.014.867 12.856-5.843 17.516M9.083 4.181C1.15 9.691-2.226 18.553 1.541 23.977c3.767 5.424 13.251 5.354 21.184-.155 7.931-5.51 11.308-14.372 7.542-19.796-3.768-5.424-13.251-5.354-21.184.155" xmask="url(#cars-isuzu-ic-isuzu-b)"/></g><path fill="#000" d="M14.48 14.447c.323.32.43.493.423.992v8.496a.515.515 0 01-.513.515h-4.184a.517.517 0 01-.513-.515V9.636l4.787 4.811"/></g></svg>