<svg xmlns="http://www.w3.org/2000/svg" width="32" height="32" viewBox="0 0 32 32"><g fill="#485F2B" fill-rule="nonzero"><path d="M30.264 19.665a.838.838 0 000 1.674.836.836 0 100-1.673zm0 .21c.342 0 .618.283.618.627a.62.62 0 11-1.24 0c0-.344.278-.626.622-.626zm-2.19-7.453c-.791 0-1.44.343-1.873.988l-.014.022h-.109v-.808h-2.064v9.213h2.173v-3.091h.105l.017.02c.459.62 1.113.936 1.942.936 1.988 0 2.88-1.752 2.88-3.486 0-1.75-.803-3.794-3.057-3.794zm-.522 1.645c1.035 0 1.406.992 1.406 1.921 0 1.001-.374 2.07-1.42 2.07-.963 0-1.431-.677-1.431-2.07 0-1.417.746-1.92 1.445-1.92zm-22.56 2.285c0 .9-.294 1.303-.949 1.303-.649 0-1.018-.377-1.018-1.035v-.835H.785v.364c0 2.424 1.048 3.553 3.297 3.553 2.218 0 3.295-1.044 3.295-3.19v-6.51H4.992v6.35zm14.74-3.93c-2.075 0-3.7 1.59-3.7 3.62 0 2.258 1.436 3.66 3.751 3.66 1.737 0 2.992-.825 3.382-2.208h-2.027c-.216.471-.717.765-1.326.765-.963 0-1.566-.611-1.608-1.636v-.054h5.106c.003-.078.006-.154.006-.228 0-1.19-.36-2.217-1.02-2.914-.628-.658-1.513-1.005-2.564-1.005zm0 1.443c.757 0 1.36.632 1.403 1.474l.003.057h-2.943l.009-.062c.144-.907.73-1.469 1.528-1.469zm-7.92-1.443c-2.075 0-3.7 1.59-3.7 3.62 0 2.258 1.436 3.66 3.751 3.66 1.737 0 2.992-.825 3.381-2.208h-2.027c-.215.471-.716.765-1.325.765-.963 0-1.566-.611-1.608-1.636v-.054h5.106c.003-.078.006-.154.006-.228 0-1.19-.36-2.217-1.021-2.914-.627-.658-1.512-1.005-2.563-1.005zm0 1.443c.757 0 1.36.632 1.403 1.474l.002.057h-2.942l.009-.062c.144-.907.73-1.469 1.528-1.469z"/><path d="M29.927 20.07v.859h.203v-.342h.142l.131.342h.226l-.163-.379a.272.272 0 00.051-.028c.063-.04.1-.114.1-.196a.265.265 0 00-.088-.2c-.055-.04-.114-.057-.225-.057h-.377zm.203.15h.117c.12 0 .165.031.165.108 0 .08-.048.114-.16.114h-.122v-.222z"/></g></svg>