<svg xmlns="http://www.w3.org/2000/svg" width="32" height="32" viewBox="0 0 32 32"><g fill="none" fill-rule="evenodd"><path fill="#ECBB45" d="M4.965 3.95l-.72.25-.017.757s-.053 2.601-.053 3.223c0 10.138 4.013 17.544 11.303 20.846l.625.237.526-.194C23.91 25.163 28 17.346 28 7.532c0-.534-.031-2.567-.031-2.567l-.009-.735-.688-.267C27.068 3.883 22.199 2 16.55 2 10.574 2 5.19 3.87 4.965 3.949z"/><path fill="#000" d="M16.555 3.1c5.505 0 10.319 1.894 10.319 1.894s.03 2.022.03 2.36v.198c0 8.246-3.105 16.515-10.632 20.563l-.167.088-.168-.075C7.762 24.41 5.278 15.992 5.278 8.203c0-.62.053-3.209.053-3.209S10.696 3.1 16.555 3.1"/><path fill="#DEA727" d="M18.64 7.794c-.176.21-.11.347-.763.562.909-.022 3.185.488 2.634 1.79-.34 1.23 1.05 1.217.648 4.821-.185 1.644 1.266 1.222 1.5 1.24-.318.875-1.032.747-1.712.66.56.905-.004.782.402 2.54.097.475.123.782.115 1.064-.362.04-.698.083-.825.013-.071-1.372.11-2.3-.433-2.677-.357-.229-1.182.66-1.248 1.842-.014.193-.049.338-.199.483-.406.004-1.059.312-1.601.062-.203-.427-.525-1.095-.583-1.359-.03-.017-.15.4-.225.607-.145.426-.159.66-.309.848-.348.176-.82-.158-1.005-.061l-.102.36c-.053.405-.062 1.077-.247 1.209-.18.114-1.032.119-1.098-.062.075-.712.908-2.065 1.133-3.063.075-.145-.511-.501-.622-1.064-.52.338-.684 1.93-1.248 2.567-.627.545-.428.51-.512 1.037-.066.449-.163.756-.26.853-.291.281-1.041.114-1.139-.171.093-.167.503-.818.645-1.038.401-.615.494-.883.507-.95l.12-.258c.087-.22.445-1.556.515-2.269.247-1.956.83-5.696 2.877-6.887 2.395-1.39 3.053-.07 3.882-.242 1.178-.246.375-1.28-.913-1.332-1.452-.075-3.287-.053-3.349-.65-.026-.216.097-.528.358-.62.847-.3 2.192-.383 3.057.145"/><path fill="#FFE8B1" d="M17.98 8.613h-.74c2.369.277 2.903.4 2.986 1.288 0 .211-.145.585-.352.585-2.012-.026-1.677-1.156-4.227.294-1.959 1.205-2.651 5.411-2.859 7.398l.04.211c.044-.105.168-1.358.291-1.415l.172-.835c.168-.207.283-.163.534.1.653-.153.609-.535.816-.588.252-.053.26.277.534.303.128.106.904-.352 1.354-.277.292 0 .384.356.177.462-.207.105-.291.47-.42.628-.44.677.195 1.253.64 2.383.287.703.437 1.002.384.351.12-.052.239.053.344 0-.225-.197-.207-.312-.33-.523-.084-.154.163-.044.202-.15-.123-.417.053-1.015.01-1.067-.124-.159-.252.532-.667.571.084-.334.088-.167.172-.387.172-.395-.18-.685.15-.927.163-.106.181-.198.309-.303.088-.313.199-.625.115-.677-.124-.053-.146.096-.314-.01-.295-.157-.282-.346-.388-.637.247-.017.344-.1.75.066.124.106.137.211.137.475 0 .207.243.404.45.51.291.158 1.02.224 1.354.171-.569-.171-.997-.364-1.164-.725.234-.299.463-.558.375.057.128 0 .34.01.542.01-.498-.212-.233-.744.292-.22.719-.093 1.54.54.727.575-.211-.053 1.549.826 2.021.092-.176-.087-1.403.176-1.835-.914-.044-.101-.313-.03-.441-.189-.331-.365-.225-.22-.433-.483-.6-.69-.798-1.956-.882-2.269-.07-.61-.102-.79-.366-1.613.388.752.454 1.06.586 1.231.239.018.296-.013.353-.092.168.202.243 0 .433.044-.203-.19-.247-.466-.133-.923-.18-.18-.33-.356-.194-.422.102-.049.384-.25.622.088 0-.264.344-.427.344-1.055 0-.734-1.036-1.231-2.47-1.192"/><path fill="#DEA727" d="M19.097 14.327c.088.206.136.44.33.646l-.11.053c-.022.04-.957.013-1.182-.356-.08-.11-.07-.11-.08-.203.225.132.398.049.574.15.04-.106-.013-.281-.062-.321l-.11-.14c-.057-.093-.168-.089-.23-.089-.026.066.053-.083.018-.092-.084-.017-.141.101-.22.075l-.252-.088.163-.114c.283-.203.367-.277.618-.044.022-.04.088-.137.12-.194.1.066.193.185.3.431l.123.286zm-.806-1.016c-.075-.07-.088-.149-.274-.184-.123-.08-.052-.18-.44-.158-.12-.014-.3-.07-.539-.172-.044-.026-.013-.075-.004-.092.286-.216.6-.387.922-.4.053.026.075.105.097.114.084.04.022.163.084.229.057.066.176.123.128.22-.062.118.083.316.026.443m-2.711 1.917l-.202.031c-.022 0-.084.022-.194.062-.203.074-.344.1-.428.079-.15-.04-.282-.255-.278-.273l.172-.07v-.066c-.084.004-.141-.062-.172-.202-.044-.198.053-.37.278-.514l.203-.132h.07l-.013.013-.004.022c-.049.184.022.356.203.514l.216.19c.15.127.198.24.15.346m2.959.069c-.039.114-.18.092-.326.154-.176.07-.251.215-.322.228.013-.171.066-.312.243-.356l.212-.03.128-.027.066.03z"/><path fill="#FFE8B1" d="M17.158 8.351c-.049 0-.22-.035-.34-.057-.344-.052-.591-.15-.812.044.146.04.613.062 1.152.013m-5.847 13.277c.044-.145.15-.202.327-.184l.207.026c.203.026.27-.15.19-.22l-.137-.14c-.035-.044-.34.004-.357.035l-.397.584c.03.093.075.066.114-.022l.053-.079zm2.581-.259a.985.985 0 00.19-.031l.432-.062c.053.01.11-.035.172-.123-.115-.158-.128-.312-.04-.457-.022-.022-.282-.154-.41-.15-.088.005-.287.515-.344.823m7.032-3.639l.022-.325c.004-.114-.075-.206-.115-.307l-.075-.22a1.192 1.192 0 00-.168-.185c-.216.392-.388.7-.304.862.115.242.08-.035.163-.176.15-.171.066-.312.282-.123l.04.123.031.11c0 .075.022.145.124.242m-4.955 1.927l.013-.026c.004-.009.013-.013.022-.018.044-.017.057-.035.057-.04l-.026-.131.026-.136c.014-.106-.008-.19-.075-.238-.084.15-.132.233-.159.25l-.114.084c-.199.154.15.352.256.255m-.354.532c.084.036.177.075.314-.008l.048-.198-.26.013-.102.194zm5.102-.096c.053.017.11.03.15.07.083.119.123.172.167.084l.022-.044c.027-.053-.044-.08-.084-.093l-.202-.07c-.036-.013-.089.018-.053.053m-8.031-.594c.062 0 .097-.084.11-.247.005-.035.009-.083.018-.131.022-.163.026-.247 0-.26l-.168-.079-.132.374c-.053.145-.009.347.172.343m2.201.233l.044-.083c.049-.106-.119-.611-.163-.466l-.092.29.008.084.031.136a.373.373 0 01-.035.136l-.066.136.207-.074.066-.159zm3.322-1.949l.093-.083.092-.132.018-.026-.066-.027-.027.04c-.066-.044-.309.136-.198.189l.088.04zm-4.071 4.025h.216l.049-.326c-.102.053-.287.176-.265.326m5.635-5.645l.146.075.079.009.009-.022-.075-.062-.066-.03h-.106c.013.008.017.017.013.03"/><path fill="#ECBB45" d="M11.871 6.97c0 .061 0 .061-.061.066l-.415.053h-.026v-1.31h-.01c-.158.532-.321 1.063-.489 1.608-.163-.5-.326-.984-.485-1.472l-.005.171c0 .37-.004.739 0 1.108 0 .04-.009.057-.053.062l-.44.079v-.049c0-.905 0-1.815-.005-2.725 0-.035.009-.053.053-.061.14-.022.278-.049.419-.08h.044c.159.48.318.959.476 1.442a.386.386 0 00.022-.066c.089-.303.173-.602.265-.9.058-.199.12-.396.181-.594.009-.031.027-.04.057-.044.137-.018.274-.04.41-.057.018-.005.04-.005.062-.005V6.97zm12.547-1.943c.167.048.326.097.485.145.013.004.022.03.022.044.004.154.004 2.765.004 2.765v.053a2.6 2.6 0 00-.198-.07c-.062-.023-.132-.045-.199-.071a.103.103 0 01-.048-.048c-.19-.47-.38-.941-.574-1.411-.048-.12-.097-.233-.145-.352v1.591c-.137-.035-.265-.066-.389-.1-.04-.01-.092-.01-.114-.036-.022-.026-.01-.075-.01-.119V4.715c.133.03.248.066.372.083.097.018.145.066.176.159.194.488.397.971.596 1.455a.096.096 0 00.022.035v-1.42zm-11.612.18c.093-.009.177-.017.27-.03.127-.018.22-.088.255-.216a.571.571 0 00.01-.193c-.018-.132-.085-.194-.217-.203-.04 0-.252.022-.318.031v.611zm0 .484v.751a5.71 5.71 0 00.274-.017c.176-.022.26-.092.295-.25a.792.792 0 00.01-.251c-.018-.145-.089-.224-.23-.242-.11-.013-.234.004-.349.009zm.82-.312c.186.118.261.299.283.514a1 1 0 01-.136.637.729.729 0 01-.521.356c-.159.031-.318.04-.477.058l-.49.043V4.183c0-.04.014-.044.045-.044.242-.022.49-.053.737-.066.225-.013.445.031.613.198a.61.61 0 01.168.356.832.832 0 01-.133.65c-.026.036-.062.067-.088.102zm3.123-.234c.128-.005.256 0 .375-.013.145-.018.216-.084.242-.229.01-.053.005-.11.005-.163a.275.275 0 00-.243-.268 4.218 4.218 0 00-.38-.017v.69zm0 1.657h-.516V3.949h.167c.225.005.441.005.662.009.216.009.415.057.578.207.15.14.238.312.256.514a1.24 1.24 0 01-.018.382.668.668 0 01-.393.488c.15.431.3.862.455 1.288l-.53-.004c-.026 0-.04-.013-.048-.04-.137-.373-.265-.751-.397-1.125-.009-.03-.022-.04-.053-.04-.053.005-.106 0-.163 0v1.174zm3.446-2.625l.331.04c.049.008.097.017.141.021.035.005.04.018.04.044V5.33l.648.092V4.34c.172.026.336.057.503.083v2.835l-.503-.096v-1.24l-.648-.092v1.248c-.172-.018-.344-.04-.512-.062v-2.84zm-5.461 1.89s.075.18.16.242c.07.057.176.062.25.005a.468.468 0 00.142-.18c.075-.176.08-.37.101-.554a2.136 2.136 0 00-.009-.475 1.695 1.695 0 00-.057-.308c-.026-.119-.066-.233-.168-.312a.203.203 0 00-.269-.004.428.428 0 00-.15.241c-.075.22-.08.449-.084.629.005.273.014.497.084.716zm-.516-1.393c.066-.229.159-.444.353-.593.327-.246.847-.242 1.112.233.106.184.163.382.194.593.03.198.04.396.035.593-.013.269-.044.537-.145.787-.08.19-.186.356-.367.462a.731.731 0 01-.626.08.725.725 0 01-.454-.397 1.584 1.584 0 01-.164-.567c-.013-.145-.022-.29-.035-.435 0-.26.03-.514.097-.756zm4.775.713l.834.066s.005.44 0 .641a1.101 1.101 0 01-.062.396c-.097.25-.273.409-.538.448-.278.044-.53-.009-.737-.206-.119-.11-.185-.247-.251-.387a1.503 1.503 0 01-.12-.475 5.91 5.91 0 01-.026-.558c0-.233.031-.462.106-.686.07-.189.16-.36.331-.479a.65.65 0 01.499-.123c.097.018.198.04.29.08.252.105.376.32.45.57a2.2 2.2 0 01.045.198c-.176.027-.344.057-.52.084a1.898 1.898 0 01-.031-.154c-.027-.092-.062-.185-.155-.229-.119-.061-.238-.052-.322.062a.9.9 0 00-.128.343 2.415 2.415 0 00-.03.734c.017.176.039.352.123.505.017.04.044.075.07.11.08.106.217.128.318.101.097-.026.132-.105.146-.189.013-.1.008-.202.013-.303 0-.03-.022-.03-.04-.03a5.015 5.015 0 00-.265-.018v-.501zM8.572 6.43c.093-.021.186-.048.265-.07-.014-.069-.104-.451-.132-.576-.049.22-.093.431-.133.647zm1.094.954c-.185.044-.366.08-.551.123-.057-.224-.11-.448-.163-.68-.075.017-.15.034-.216.052a2.6 2.6 0 00-.256.066.053.053 0 00-.031.03c-.031.168-.062.335-.097.497-.013.075-.031.145-.044.22-.005.013-.018.022-.031.026-.172.053-.344.102-.516.15-.005 0-.005 0-.014-.004.014-.066.031-.128.044-.194l.318-1.367c.115-.479.225-.958.335-1.433.005-.013.018-.035.027-.04a21.6 21.6 0 00.485-.123c.234.902.71 2.677.71 2.677zm-2.848.3c.291-.1.587-.198.882-.299v.493c-.459.171-.926.338-1.39.505v-.057s-.004-2.708 0-2.774c0-.013.014-.035.023-.04.154-.056.313-.118.467-.17.005-.005.009 0 .018 0v2.342zm15.997-.247s-.34-.07-.512-.101V4.51c.172.035.34.07.512.1v2.827zm2.55-2.107c.168.061.322.123.481.18.031.008.031.026.031.048v2.791c0 .009-.004.022-.004.04l-.036-.013a18.122 18.122 0 01-.436-.176c-.027-.009-.036-.022-.036-.049V5.33z"/></g></svg>