<svg xmlns="http://www.w3.org/2000/svg" width="32" height="32" viewBox="0 0 32 32"><g fill="none" fill-rule="evenodd"><path fill="#ECEEF0" d="M17.697 14.617L15.918 4.252c6.203.168 11.342 5.17 11.342 11.351 0 1.993-.603 4.075-1.515 5.704l-8.048-6.69zm-3.835-.093l-8.129 6.774c-.892-1.62-1.514-3.699-1.514-5.676A11.32 11.32 0 0115.515 4.255l-1.653 10.27zm1.878 3.358l9.78 3.743c-2.015 3.286-5.65 5.388-9.81 5.388-4.17 0-7.746-2.1-9.762-5.392l9.792-3.739zM15.742 3C8.707 2.997 3 8.642 3 15.603c0 6.96 5.703 12.606 12.742 12.608 7.04 0 12.747-5.646 12.747-12.608C28.49 8.644 22.786 3 15.742 3z"/><path fill="#231F20" d="M27.947 13.467c-.028-.033-.047-.085-.069-.144-.932-2.873-1.725-4.002-3.254-5.68-2.015-2.211-5.306-3.917-8.804-3.922-6.689 0-12.118 5.429-12.118 12.118 0 1.989.433 3.706.782 4.568.41 1.002 1.116 2.349 1.151 2.41.033.07.036.1.04.16-.052-.038-.073-.07-.116-.133-.203-.294-1.034-1.791-1.294-2.445-.563-1.423-.978-2.977-.978-4.606 0-6.895 5.58-12.488 12.48-12.488 6.162 0 11.131 4.28 12.18 10.012.004.054.02.1 0 .15zM5.291 21.65c-.422-.874-.866-2.105-1.05-3.08-.004-.056-.014-.102.006-.153.03.039.046.083.07.15.29.893.541 1.697 1.2 2.905l-.226.178zm.23-.112l8.93-6.418-.764-.435-7.954 6.613c-.892-1.62-1.514-3.698-1.514-5.676A11.32 11.32 0 0115.515 4.255L13.887 14.38l.76.44 1.024-10.565c.018-.134.108-.134.108 0l.06 11.142 1.812-1.064-1.733-10.081c6.203.168 11.342 5.169 11.342 11.35 0 1.995-.603 4.076-1.515 5.706l-7.946-6.62-.766.437 8.541 6.195c.205.146.143.212-.076.09l-9.593-5.531v2.073l9.615 3.673c-2.015 3.286-5.65 5.388-9.81 5.388-4.17 0-7.746-2.1-9.762-5.392l9.632-3.675v-2.074l-9.975 5.762c-.236.13-.3.058-.084-.096zm10.221 6.193c-4.788 0-8.545-2.49-10.334-5.91l.274-.101c.465.758 1.073 1.425 1.89 2.325 1.005 1.107 4.185 3.239 8.165 3.239a11.788 11.788 0 0010.05-5.554c.16-.045.211-.115.158-.254.956-1.687 1.606-3.804 1.606-5.873 0-1.303-.19-2.364-.495-3.311a13.05 13.05 0 00-.683-1.705.302.302 0 01-.045-.162.366.366 0 01.113.138c.186.338.6 1.165.794 1.703.263.72.731 1.715.731 3.337 0 6.634-5.43 12.132-12.224 12.128zm0-24.731C8.707 2.997 3 8.643 3 15.603S8.703 28.209 15.742 28.21c7.04 0 12.747-5.645 12.747-12.608C28.49 8.645 22.786 3 15.742 3z"/></g></svg>