<svg xmlns="http://www.w3.org/2000/svg" xmlns:xlink="http://www.w3.org/1999/xlink" width="32" height="32" viewBox="0 0 32 32"><defs><path id="cars-nissan-ic-nissan-a" d="M.016 0h31.999v21.778h-32V0z"/><path id="cars-nissan-ic-nissan-c" d="M32 0H0v21.778h32V0z"/></defs><g fill="none" fill-rule="evenodd" transform="translate(0 6)"><mask id="cars-nissan-ic-nissan-b" fill="#fff"><use xlink:href="#cars-nissan-ic-nissan-a"/></mask><path fill="#D1D3D4" d="M8.208 6.615c1.173-3.573 4.402-4.976 7.849-4.977 3.626.047 6.673 1.404 7.85 4.977.034.101.028.165.014.184-.005.008-.025.011-.041.011H8.233c-.016 0-.036-.003-.04-.011-.013-.019-.021-.083.015-.184m15.217 8.341c-1.107 3.138-4.554 4.317-7.41 4.371-2.857-.054-6.3-1.233-7.411-4.371-.032-.088-.026-.145-.012-.162.004-.006.022-.009.038-.009H23.4c.018 0 .036.003.038.009.014.017.02.074-.013.162m7.578-8.883h-3.79c-.493 0-.934-.418-1.161-.774C24.042 2.032 20.197 0 16.016 0 11.683 0 7.773 2.139 5.81 5.581l-.016.033c-.034.139-.171.459-.66.459h-4.11c-.554 0-1.008.453-1.008 1.01v6.773a1.01 1.01 0 001.008 1.009h3.429c.26 0 .497.152.707.451.049.071.123.174.214.289.159.21.356.474.485.676 2.083 3.392 5.99 5.498 10.197 5.498 4.07 0 7.748-1.771 9.843-4.74.055-.084.127-.188.213-.305.269-.38.637-.9.926-1.48.185-.329.305-.389.558-.389h3.407a1.01 1.01 0 001.013-1.009V7.083c0-.557-.454-1.01-1.013-1.01" xmask="url(#cars-nissan-ic-nissan-b)"/><mask id="cars-nissan-ic-nissan-d" fill="#fff"><use xlink:href="#cars-nissan-ic-nissan-c"/></mask><path fill="#333" d="M30.466 7.881v4.613a.319.319 0 01-.32.32H1.85a.32.32 0 01-.32-.32V7.881a.32.32 0 01.32-.317h28.296c.177 0 .32.143.32.317zm-7.056 7.075c-1.108 3.138-4.555 4.317-7.41 4.371-2.857-.054-6.3-1.233-7.412-4.37-.03-.089-.024-.146-.012-.163.005-.006.024-.009.038-.009h14.773c.015 0 .032.003.035.01.014.016.023.073-.012.161zm-15.338 3.54c-.295-.22-.644-.593-.991-1.014a19.717 19.717 0 01-.733-.958c-.24-.336-.46-.656-.633-.917-.202-.312-.341-.54-.372-.603-.123-.24-.242-.542-.04-.823.2-.282.721-.602 1.045-.712l1.984 1.163-.093.151-1.693-.944c1.311 3.738 5.067 6.435 9.495 6.435 4.345 0 7.808-2.644 9.181-6.278l-1.484.777-.044-.074a.25.25 0 00-.037-.07c-.003-.003-.006-.006-.006-.009l2.043-1.18 1.303 1.042c-.412 1.057-1.584 2.87-3.175 2.684-2.102 2.331-4.53 3.448-7.781 3.448-3.232 0-6.127-1.306-8.085-3.368l-.967-.316a6.868 6.868 0 001.08 1.56l.002.005zM5.334 6.357V6.34a.872.872 0 00.72-.635C7.966 2.363 11.776.286 16 .286c4.081 0 7.835 1.978 9.794 5.163.28.44.793.91 1.404.91h3.79c.159 0 .3.05.419.134l-.94.875a.599.599 0 00-.32-.092H1.85a.59.59 0 00-.327.097L.76 6.405a.743.743 0 01.25-.047h4.325zm25.654-.286h-3.79c-.495 0-.934-.417-1.163-.774C24.026 2.032 20.181 0 16 0 11.668 0 7.758 2.14 5.794 5.581l-.014.033c-.037.14-.173.458-.663.458H1.008C.454 6.072 0 6.526 0 7.083v6.773a1.01 1.01 0 001.008 1.01h3.43c.259 0 .497.151.708.45.048.071.122.174.213.29.159.21.356.473.484.675 2.083 3.392 5.992 5.497 10.198 5.497 4.07 0 7.747-1.77 9.843-4.739.055-.084.128-.188.212-.305.268-.38.637-.9.927-1.48.183-.33.303-.389.556-.389h3.409A1.01 1.01 0 0032 13.856V7.083c0-.557-.454-1.01-1.012-1.01z" xmask="url(#cars-nissan-ic-nissan-d)"/><path fill="#333" d="M8.712 6.255C9.979 2.967 12.838 1.854 16 1.854c3.27 0 6.58 1.07 7.626 4.402l.015.076c-.001-.013-.007-.035-.015-.076.04.2.022.282-.201.282H8.955c-.14 0-.34-.04-.243-.283m-.04.804h14.955c.52 0 .302-.442.18-.682a2.94 2.94 0 011.456.693c-1.313-4.023-4.946-5.963-9.225-5.963-4.333 0-7.906 2.353-9.213 6.066.322-.25.946-.595 1.407-.675-.02.259.1.56.44.56M6.87 11.117L5.659 8.099h-1.81v3.975h1.107v-3.15l1.276 3.15h1.755V8.099H6.87zm2.01.957h1.142V8.1H8.88zM20.293 8.1l-1.423 3.974h1.145l.252-.717h1.65l-.303-.879h-1.04l.518-1.489 1.092 3.085h1.14L21.919 8.1zM13.07 9.635h-1.185v-.646h2.235v-.89h-2.287c-.6 0-1.091.293-1.091 1.143 0 .399.066 1.283 1.345 1.283h1.208v.645h-2.434v.904h2.476c.583 0 1.14-.466 1.14-1.235 0-.772-.411-1.204-1.407-1.204m13.686 1.482l-1.21-3.018H23.74v3.975h1.102v-3.15l1.28 3.15h1.753V8.099h-1.119zm-9.483-1.482h-1.185v-.646h2.235v-.89h-2.287c-.599 0-1.093.293-1.093 1.143 0 .399.068 1.283 1.345 1.283H17.5v.645h-2.437v.904h2.477c.583 0 1.144-.466 1.144-1.235 0-.772-.414-1.204-1.41-1.204" xmask="url(#cars-nissan-ic-nissan-d)"/></g></svg>