<svg xmlns="http://www.w3.org/2000/svg" xmlns:xlink="http://www.w3.org/1999/xlink" width="32" height="32" viewBox="0 0 32 32"><defs><path id="cars-peugeot-ic-peugeot-a" d="M.39 3.362c0-.039.004-.08.012-.13.05-.323.426-1.14.426-1.14.181-.415.455-.536.907-.706.62-.232 1.802-.47 2.978-.572C5.864.714 6.245.727 6.027.507l.067-.052c.49.48-.127.744-2.639.871C.66 1.468.513 3.603.468 3.603c-.001 0-.002 0-.003-.002a.42.42 0 01-.076-.24z"/></defs><g fill="none" fill-rule="evenodd"><path fill="#231F20" d="M23.109 17.647c-.367.12-.604.017-.782-.153-.18-.17-1.632-1.92-2.1-2.454-.235-.27-.411-.885.298-1.148.581-.211 1.623-.546 1.913-.698.29-.153.442-.31.47-.607a12.3 12.3 0 00.026-.744c.002-.112.148-.202.223-.07.05.093.312.602.63 1.19.475.885 1.076 1.99 1.271 2.465.184.454.094.8-.187 1.148-.382.472-1.495.984-1.762 1.071m5.533 10.146c-.497-1.48-2.496-5.192-4.068-7.283-.34-.455-.213-.689-.031-.836a13.1 13.1 0 001.458-1.445c.7-.8.868-1.703.374-3.01-.493-1.297-2.118-4.375-2.46-5.396-.391-1.176-.43-1.7-.195-2.341.28-.755.685-.787.99-.782.163.004.287.176.288.256.008.332.025.743.35 1.603.518 1.369 1.847 2.263 2.266 2.443.292.127.345-.1.32-.21l-.786-3.079c-.339-1.336-.51-1.626-.811-1.908-.482-.458-1.214-.702-1.833-.679-1.38.055-1.99 1.389-2.066 1.512-.066.11-.092.189-.232.092-.395-.276-1.548-1.24-1.654-1.842-.062-.357-.124-.406-.48-.544-1.386-.541-2.586-1.017-3.914-1.251-.534-.094-.562-.14-1.183-.024-1.056.197-1.704.44-2.496.856-.437.231-.488.387-.573.497-.066.086-.137.19-.295.241-.263.086-1.242.45-1.579.646-.21.121-.324.25-.216.486.188.418.752 1.289.997 1.507.15.132.525.224.613.243.09.02.152.047.185-.02.037-.072.05-.179.226-.301.263-.185.751-.312 1.012-.336.199-.017.32-.022.423.05.103.076.338.328.42.58.081.253.03.347-.11.407-.143.06-.567.156-1.06.195-.49.04-.63-.095-.664-.126-.025-.027-.09-.07-.14-.004-.083.116-.206.19-.399.285-.108.053-.166.168-.063.348.312.54.724 1.148 1.106 1.264.304.093.467-.005.808-.25.306-.22.505-.22.589-.157.092.069.277.225.229.38-.082.271-.628.918-.732 1.051-.1.126-.193.193-.37.11-.258-.125-4.181-2.16-4.705-2.364-.572-.22-.946-.273-1.51-.299a7.375 7.375 0 00-1.44.093c-.277.05-.435.182-.694.42-.355.33-.73.749-.765 1.1-.026.251.255.764.286.8.03.039.082.11.234.093.155-.016.543-.22 1.007-.138.42.072.461.403.483.655a.171.171 0 00.175.14c.167-.003.429.003.73.148.373.176 1.11.747 1.224.873.091.104.085.197-.09.214-.936.083-2.36.36-3.018.577-.468.152-1.019.363-1.213.701-.222.384-.502 1-.58 1.44-.081.437.387.98.512 1.1.084.083.141.134.291.052.23-.131.783-.473 1.312-.504.321-.018.45.285.528.395.077.11.152.034.44-.043.51-.138 3.357-.086 4.36-.039.461.02 1.1.088 1.57.348.468.257 1.315 1.057 1.315 1.057s-1.125 1.885-1.73 3.003c-.562 1.033-.97 1.809-1.172 2.258-.186.411-.338.993-.305 1.452.052.673.068 1.017.06 1.321-.008.268-.257.297-.61.384-.489.124-1.46.213-2.25.407-.715.179-.982.348-1.113.902-.1.43-.247 1.502-.265 1.998-.008.2-.012.298.242.245a11.11 11.11 0 011.105-.127c.665-.052 1.385-.041 1.94-.042 1.025-.007 4.047.17 4.25.19.259.026.31-.006.294-.187a27.535 27.535 0 01-.08-1.45c-.012-.455-.081-.915.33-1.357.407-.443 3.487-3.878 3.658-4.054.149-.15.249-.31.477-.1.232.214 2.768 2.041 3.283 2.415.515.374.994.5 1.58.51.419.007.536.737.18.805-.365.07-.922.185-1.31.273-.6.14-.785.336-.965.741-.155.34-.325 2.02-.33 2.165-.005.104-.011.255.153.22.741-.15 1.914-.192 3.17-.153 1.44.045 2.838.164 3.034.175.213.015.233-.016.34-.182.181-.285.723-.911 1.195-1.298.236-.192.24-.272.143-.561"/><path fill="#9C9A9B" d="M24.595 5.399c-1.135-.005-2.283 1.31-2.064 3.268.135 1.202.32 1.748.675 2.523.177.383 2.112 4.07 2.202 4.46.12.558.013.906-.415 1.297-.474.428-1.257.914-1.786 1.096-.125.043-.24.065-.344.065-.12 0-.419-.041-.986-.739l2.502 3.337c-.32-.426-.485-.749-.427-1.031.058-.28.514-.583 1.038-.997.525-.406 1.106-.922 1.373-1.62a1.69 1.69 0 00.111-.619c0-.665-.323-1.42-.71-2.237-.501-1.06-1.92-3.372-2.35-4.994a4.243 4.243 0 01-.153-1.074c0-.92.392-1.501.87-1.7.23-.092.435-.124.605-.124.264 0 .447.074.521.112.134.077.155.237.155.363v.028a3.718 3.718 0 00-.004.198c0 .377.05 1.209.49 2.015.558 1.025 1.49 1.597 1.859 1.75.031.014-.861-3.288-1.02-3.91-.185-.726-.696-1.453-2.128-1.467h-.014"/><g transform="translate(3 12.226)"><mask id="cars-peugeot-ic-peugeot-b" fill="#fff"><use xlink:href="#cars-peugeot-ic-peugeot-a"/></mask><path d="M6.027.507c.218.22-.163.208-1.314.307-1.176.103-2.359.34-2.978.572-.452.17-.726.29-.907.706 0 0-.377.817-.426 1.14-.025.154-.017.241.063.37.044.068.151-2.132 2.99-2.276 2.512-.127 3.13-.39 2.64-.871l-.068.052z" xmask="url(#cars-peugeot-ic-peugeot-b)"/></g><path fill="#736C6E" d="M9.125 12.83c.086.231-.253.176-1.406.277-1.175.102-2.359.33-2.979.562-.453.171-.726.29-.907.707 0 0-.376.818-.427 1.14-.024.153.013.242.095.37.12.19.196.23.372.13.143-.082.77-.438 1.181-.445.377-.009.541.22.595.415.034.122.2.06.229.052.165-.042.325-.091.911-.134.698-.05 3.419-.027 4.417-.004.898.021 4.436 2.795 4.488 2.81l.178-.36c-1.202-.992-5.666-4.532-6.745-5.588l-.002.068z"/><path fill="#9C9A9B" d="M5.553 8.725c-.221.028-.372.039-.606.257-.23.213-.63.504-.783.8-.06.112-.09.189-.074.29a.89.89 0 00.129.344c.043.05.099.074.217.041.237-.064.66-.119.917-.112.183.003.445.05.566.187.161.188.15.343.155.423 0 .036.014.104.09.115.162.023.335.023.522.065.521.114 1.224.56 1.88 1.162 1.269 1.173 2.848 2.927 4.362 4.135.767.61 2.022 1.373 2.437 1.788.077.077-.09.135-.215.07-.057-.027-.771-.587-.926-.627-.133-.032-.27 0-.406.19-1.188 1.64-2.554 4.394-3.11 5.699-.132.31-.244.7-.227 1.05.017.354.054 1.057.06 1.387.004.324-.075.454-.46.516-.705.109-2.272.39-2.672.488-.3.073-.552.21-.669.559a8.645 8.645 0 00-.314 1.472c-.008.117.034.198.17.164.575-.144 1.463-.262 2.687-.236 1.225.026 3.408.241 3.69.267.098.008.216.01.214-.103-.002-.13-.033-.721-.043-1.476-.008-.753.648-1.306 1.558-2.249.912-.946 3.11-3.113 3.194-3.19.053-.054.113-.107.002-.215a63.753 63.753 0 01-.935-.954c-.04-.045-.13-.157-.096-.196.033-.04.118.025.226.114.425.346 5.073 4.088 5.396 4.234.332.144.533.187.83.24.223.04.418.37.45.616.032.245.017.57-.325.655-.342.085-1.185.242-1.483.324-.299.082-.5.217-.627.559-.128.344-.295 1.279-.298 1.36-.003.206.051.222.21.183.195-.046.426-.112 1.314-.142 1.496-.053 3.771.14 4.065.164.1.009.182-.093.217-.155.317-.548.228-.687.653-1.034.221-.177.327-.212.188-.527-1.39-3.164-2.711-5.311-4.851-8.053a201.137 201.137 0 00-3.515-4.352l-6.459-3.694c-.382-.182-3.37-1.711-3.884-1.967-.515-.253-.93-.462-1.458-.581a4.857 4.857 0 00-1.076-.113c-.325 0-.626.026-.887.058m7.201-3.029c-.929.25-2.117.734-2.16.758-.025.016-.022.04-.009.068.011.026.135.24.135.24s.063.146.243.247c.178.1.352.143.397.153.047.01.068-.01.084-.034.014-.02.188-.356.832-.523a2.74 2.74 0 01.676-.098c.168.004.427.086.572.228.235.231.441.615.476.799.038.179.008.4-.17.493-.177.09-.697.214-1.024.246-.337.034-.665.017-.861-.095-.03-.018-.052-.02-.081.003-.074.062-.12.112-.264.198-.032.019-.053.06-.022.121.032.062.44.74.687.92.244.185.375.102.67-.061.295-.163.495-.361.8-.352.31.008.573.271.62.578.06.373-.18.615-.325.845-.142.225-.433.56-.583.748-.19.24-.554.167-.554.167s1.72.874 2.71 1.372c.392.198 1.009.014 1.426-.768a39.01 39.01 0 00.87-1.881c.156-.389.376-.821.023-1.564-.355-.74-1.454-2.109-1.892-2.634-.229-.274-.499-.443-1.08-.474a4.147 4.147 0 00-.231-.006c-.53 0-1.171.092-1.965.306"/><path d="M10.493 14.73c-.195 0-1.644.13-1.76.136-.415.024-1.394.113-1.674.177-.27.065-.72.43-.779.493-.102.108-.1.197-.024.227.064.025.206.003.322-.006.342-.03 1.276-.059 2.332-.06.549 0 1.145.005 1.617.011.49.008.844.014.868.011-.407-.444-.753-.981-.89-.989h-.012z"/><path fill="#E3E2E2" d="M12.577 4.275c-.366.22-.381.493-.637.642-.254.148-.84.282-1.454.556-.34.152-.342.177-.261.368.032.08.253.482.366.482.11.003.244-.054.38-.109.182-.072 1.394-.541 2.357-.747 1.074-.23 2.226-.249 2.635.184.624.66 1.717 2.138 2.048 2.778.327.635.294.943.077 1.593-.2.602-.955 2.165-1.178 2.489-.224.324-.494.504-1.14.24-.694-.286-3.247-1.596-3.803-1.877-.376-.188-1.954-.989-3.149-1.587-.44-.222-.803-.382-1.2-.483-.879-.224-1.822-.123-2.258-.05-.198.032-.322.351-.314.481.008.106.213.093.462.08.13-.008.27-.016.4-.007.311.022 1.376.137 1.99.386.649.263 3.896 2.012 4.716 2.453 6.248 3.4 8.923 5.588 13.75 13.703.216.363.32.807-.02.909-.496.144-2.555.536-3.178.74-.524.173-.594.214-.67.473-.085.295-.219.882-.186 1 .012.048-.029.112.077.112.58 0 2.658.001 4.258.152.194.021.205.016.326-.168.14-.215.694-.85 1.059-1.12.153-.112.05-.324.025-.393-.458-1.152-1.75-3.652-3.52-6.252-1.738-2.558-4.683-6.021-5.09-6.597-.398-.564-.555-1.199.276-1.46.542-.173 1.847-.443 2.38-.592.52-.143.558-.311.601-.713.044-.434-.074-2.544-.335-3.802-.055-.26-.23-.478-.44-.627-.186-.128-.902-.754-1.298-1.206-.455-.52-.662-1.01-.736-1.387 0 0-.014-.08-.103-.165a.439.439 0 00-.115-.084c-.78-.481-3.54-1.235-4.102-1.284a1.326 1.326 0 00-.108-.003c-.489 0-1.74.201-2.888.892"/><path fill="#9C9A9B" d="M5.188 9.349c.193 0 .644-.015.946.018.581.065 1.316.226 1.778.403.654.255 3.731 2.09 4.527 2.534 2.397 1.359 4.22 2.608 5.928 3.985 2.615 2.106 4.87 4.547 7.7 9.502.111.192.172.34.172.52.009.276-.228.375-.31.397-.486.147-2.483.597-3.075.801-.502.177-.595.289-.666.52-.027.098-.112.57-.21.695-.1.129-.33.155-.575.155-.151 0-.227.009-.21-.159.014-.167.113-.62.17-.88.056-.262.165-.458.403-.601.238-.146 1.065-.28 1.532-.393.464-.114.49-.33.482-.682 0 .372-.13.463-.598.568-.473.104-1.271.208-1.533.387a.988.988 0 00-.4.606c-.16.662-.268 1.147-.25 1.31.015.145.073.165.235.146.16-.018.562-.074 1.164-.097.178 0 .166-.217.165-.456 0-.086.004-.345.047-.47a.45.45 0 01.294-.288c.334-.105 2.19-.606 3.133-.887.413-.123.586-.254.548-.63-.033-.33-.335-.82-.872-1.661-.541-.847-1.22-2.005-2.125-3.285-1.606-2.273-3.186-4.047-5.15-5.601-1.451-1.147-2.973-2.067-4.089-2.72-1.116-.654-5.829-3.233-6.56-3.462A7.908 7.908 0 006.124 9.3c-.322-.033-.59-.009-.876-.009-.27 0-.175-.22-.136-.306-.029.062-.19.364.076.364"/><path fill="#DEDEDE" d="M13.776 17.849c-.18.218-1.104 1.686-1.855 3.058-.542.994-1.192 2.402-1.318 2.743-.116.31-.137.597-.127.946.012.349.07.915.09 1.321.02.39-.079.562-.484.635-.344.062-2.172.369-2.622.478-.451.11-.593.333-.68.664-.09.33-.219.955-.224 1.099-.003.139.013.166.144.149.13-.019.406-.043.519-.05.117-.009.094-.096.129-.22.032-.111.056-.297.124-.584.067-.287.158-.51.554-.627.398-.118 2.195-.406 2.5-.49.302-.085.498-.215.53-.52.035-.3-.027-.945-.036-1.469-.008-.55-.015-.794.294-1.388.596-1.14 2.45-3.838 3.701-5.399L14.75 18c-.185-.135-.419-.303-.547-.344a.398.398 0 00-.111-.017c-.117 0-.201.07-.315.21"/><path fill="#444041" d="M13.545 25.73c-.337.742-.434 1.165-.434 1.532 0 .32.033.433.033.433-.016-.324.104-.62.31-.917.276-.397.703-.802 1.226-1.347.918-.95 3.154-3.14 3.235-3.219.05-.05.11-.121-.014-.241-.221-.212-.338-.349-.687-.699-.213-.214-.361-.343-.353-.417-.008 0-2.5 2.803-3.316 4.876"/><path fill="#DEDEDE" d="M5.22 9.349l20.667 17.373c.21-.047.34-.2.35-.348a.862.862 0 00-.135-.52c-2.875-5.024-5.029-7.37-7.65-9.487a43.171 43.171 0 00-1.391-1.088c-1.327-.984-2.785-1.93-4.55-2.933-.505-.284-1.932-1.125-3.075-1.771-.66-.372-1.224-.68-1.463-.779-.458-.192-1.185-.348-1.778-.421a4.898 4.898 0 00-.597-.029l-.378.003M24.602 5.37c-1.036.024-1.734.904-1.937 1.727.21-.736.88-1.605 1.942-1.605 1.35 0 1.913.511 2.103 1.272-.236-1.048-1.133-1.395-2.027-1.395h-.081"/><path fill="#231F20" d="M13.86 4.424c.091-.016.136-.007.14.043a.401.401 0 01-.002.104c-.006.027-.016.043-.062.06a33.21 33.21 0 00-.832.304c-.132.056-.198.024-.21-.03a.327.327 0 01.032-.185.182.182 0 01.107-.082c.107-.038.66-.183.828-.214m.888.862c-1.688.044-3.158.758-3.983 1.096.588-.202 2.018-.787 3.614-.883.875-.054 1.227.021 1.548.38.466.515 1.552 1.973 1.938 2.712.153.294.22.556.2.781-.031.34-.153.59-.248.813-.169.386-.79 1.648-.897 1.83-.452.784-.886.757-1.347.65.024.013.236.113.43.191.536.22.876-.085 1.183-.66.099-.181.759-1.574.917-1.977.101-.251.217-.501.217-.822 0-.21-.059-.531-.201-.83-.364-.766-1.512-2.22-1.97-2.768-.356-.42-.68-.515-1.241-.515l-.16.002"/></g></svg>