<svg xmlns="http://www.w3.org/2000/svg" width="32" height="32" viewBox="0 0 32 32"><g fill="none" fill-rule="evenodd"><path fill="#000952" d="M3.508 9.684C3.192 6.68 4.336 6.001 5.349 5.1c2.429-1.332 6.399-2.909 8.708-3.372 2.703-.544 4.064-.151 4.957.11 2.698.788 4.974 1.392 8.224 3.006 2.053 1.058 2.218 2.777 2.012 4.626-2.762 11.568-6.802 15.506-10.022 19.618-1.6 1.547-3.317 2.303-5.483 0-2.94-3.368-5.892-6.473-8.61-14.05-.496-1.438-.917-2.316-1.627-5.354"/><path stroke="#FFBD00" d="M3.508 9.684C3.192 6.68 4.336 6.001 5.349 5.1c2.429-1.332 6.399-2.909 8.708-3.372 2.703-.544 4.064-.151 4.957.11 2.698.788 4.974 1.392 8.224 3.006 2.053 1.058 2.218 2.777 2.012 4.626-2.762 11.568-6.802 15.506-10.022 19.618-1.6 1.547-3.317 2.303-5.483 0-2.94-3.368-5.892-6.473-8.61-14.05-.496-1.438-.917-2.316-1.627-5.354z"/><path fill="#0C6E0D" d="M16.428 8.761c-2.671-.099-7.319 1.897-7.367 7.367.247 3.7 2.524 7.159 7.282 7.368 3.514.015 7.028-1.83 7.624-7.025.29-5.153-4.213-7.962-7.539-7.71"/><path stroke="#FFBD00" d="M16.428 8.761c-2.671-.099-7.319 1.897-7.367 7.367.247 3.7 2.524 7.159 7.282 7.368 3.514.015 7.028-1.83 7.624-7.025.29-5.153-4.213-7.962-7.539-7.71z"/><path fill="#FFBD00" d="M5.55 7.434l.685 1.97.599-.214-.256-.772-.387-.814 1.628-.513c.473-.122.491.313.257.428l-1.627.6.129.343 1.798-.6c.579-.66.182-1.298-.557-1.2l-2.27.772zm3.544-1.179l.45 1.981.567-.106-.343-1.628 1.392-.311c.694-.065.469.532.172.524l-1.457.3.065.354 1.167-.15.824.59.729-.258-1.028-.556c.456-.162.822-1.054-.044-1.275l-2.494.535zm3.726-.117l.525.01c.042.307-.185.849.437.85.166 0 .52-.013.762.039h.643c.536.014.476-.286.493-.546v-.375c-.06-.18-.118-.36-.483-.375h-1.371c-.213.026-.428.048-.503.408l-.449-.011c-.07-.387.576-.768.77-.793h1.821c.72.176.697.648.707.567v.761c-.068.377-.273.664-.825.728l-1.692.022c-.55-.054-.68-.312-.814-.579l-.02-.706zm3.823-.793v.429l1.2-.011.01 1.723h.525l-.011-1.712 1.338.01v-.396zm3.404.889l.515.103c-.011.309-.33.803.281.912.165.029.516.079.744.172l.634.112c.526.108.519-.199.58-.452l.065-.369c-.026-.188-.052-.376-.409-.452l-1.35-.24c-.215-.012-.43-.029-.566.312l-.44-.089c-.002-.392.701-.654.897-.645l1.793.318c.678.298.571.76.596.682l-.134.749c-.131.359-.384.606-.938.573l-1.67-.275c-.53-.148-.615-.425-.7-.71l.102-.7zm3.578 1.971l.546.192.482-1.339 1.714 2.238.427.108.685-1.97-.492-.182-.536 1.455-1.692-2.312-.48-.119zm-12.207 3.598c1.718-2.041 3.357-2.11 4.997-2.18-1.032.554-1.58 1.11-1.97 1.665 1.02-.264 2.04-.513 3.06-.303 2.493.762 3.742 2.29 5.24 3.665a7.367 7.367 0 00-1.817-.12c.782.523 1.523 1.038 1.908 1.483-.771 1.725-1.315 1.628-1.938 2.18l.302-1c-.298-.24-.65-.374-1.03-.453-.232-.204-.464-.08-.697.03-2.782.78-2.51 1.478-2.393 2.18.343.465.71.93 1.212 1.395.145.105.292.203.516.15l.665-.393c-.337 1.157-.963 2.196-3.058 2.634-1.087-3.745-4.112-4.636-6.634-6.269 1.53-.284 3.005-.037 4.453.485-.994-1.307-2.508-2.168-4.058-2.998 1.484.042 2.967.105 4.452.938-.68-1.264-1.723-2.31-3.21-3.09"/><path fill="#0C6E0D" d="M19.02 13.666c-.801-.442-1.626-.765-2.484-.921 1.395-.305 2.327-.014 3.34.17-.598.009-1.234.004-1.67.065.386.2.657.429.814.686"/><path stroke="#0C6E0D" d="M19.02 13.666c-.801-.442-1.626-.765-2.484-.921 1.395-.305 2.327-.014 3.34.17-.598.009-1.234.004-1.67.065.386.2.657.429.814.686z"/><path fill="#0C6E0D" d="M15.251 15.829c.533.569.773 1.694.792 3.234.075-.61.202-.244.172-2.784l2.398-.022c-.98-.304-1.99-.574-3.362-.428"/><path stroke="#0C6E0D" d="M15.251 15.829c.533.569.773 1.694.792 3.234.075-.61.202-.244.172-2.784l2.398-.022c-.98-.304-1.99-.574-3.362-.428z"/></g></svg>