<svg xmlns="http://www.w3.org/2000/svg" width="32" height="32" viewBox="0 0 32 32"><g fill="#0053A0" fill-rule="evenodd"><path d="M6.433 20.64C8.076 24.38 11.88 27 16.309 27c5.634 0 10.255-4.238 10.708-9.63a35.24 35.24 0 01-2.236 1.767c-1.142 3.509-4.503 6.05-8.472 6.05-3.26 0-6.11-1.715-7.657-4.273a21.045 21.045 0 01-2.22-.274zm-.807-3.018a10.345 10.345 0 01-.051-.676 17.027 17.027 0 011.853-.8 8.639 8.639 0 00.075 1.545 11.634 11.634 0 01-1.877-.07zm.182-3.352C6.854 9.544 11.158 6 16.309 6c3.528 0 6.658 1.661 8.617 4.227-.744.008-1.554.033-2.39.074a8.967 8.967 0 00-6.227-2.488c-3.787 0-7.022 2.315-8.302 5.576-.84.328-1.6.635-2.2.882z"/><path d="M28.528 15.593c1.76-1.586 3.07-3.046 3.438-3.813-.213-.351-3.055-1.005-8.76-1.128-5.917-.128-17.28 2.325-23.152 7.745.474.623 7.328 2.391 9.708 2.278-.577-.647-2.068-2.14-2.638-2.6-.974 0-2.954-.013-3.498-.477 2.873-2.018 11.569-5.037 18.407-4.08 0 .326-.543 1.043-1.31 1.909 2.557-.036 5.493-.017 7.805.166zM16.96 22.102c-.884.007-1.389-.353-1.173-1.22.07-.28.742-1.03 1.622-1.955 1.825-.04 4.144 0 6.49.282-2.454 1.638-5.005 2.877-6.939 2.893z"/><path d="M19.486 16.762c.073-.077-8.176.076-7.983.124.193.048-1.776-.594-.57-.702 2.543-.227 8.226-.31 9.316-.284 2.398.059 5.103.15 7.539.343a42.313 42.313 0 01-2.993 2.348c-2.071-.199-4.598-.265-6.78-.297.407-.422 1.05-1.093 1.47-1.532z"/></g></svg>