<svg xmlns="http://www.w3.org/2000/svg" width="32" height="32" viewBox="0 0 32 32"><g fill="none" fill-rule="evenodd"><path fill="#E3E3E3" d="M11.903 2h6.36l8.027 13.558-8.082 13.794H12.19L4 15.558 11.903 2zm3.127 7.371l-4.097 6.465 4.097 5.806 4.437-6.34-4.437-5.93z"/><path fill="#333" d="M15.07 10.224l3.788 5.574-3.787 5.69-3.949-5.69 3.949-5.574zm4.712 5.261l-4.22-6.651 2.232-5.562-7.682 12.155 4.924 7.131 4.746-7.073z"/><path fill="#333" d="M11.917 2l-.133.223-7.64 13.099-.144.237.143.238 7.93 13.336.131.222h6.017l.125-.228 7.817-13.33.139-.243-.139-.234-7.756-13.102L18.275 2h-6.358zM5.041 15.55l7.375-12.634h5.361l7.49 12.643-.013.018H20.54l-6.769 10.106.906-2.273-5.3-7.833h-4.32l-.017-.026z"/></g></svg>