<svg xmlns="http://www.w3.org/2000/svg" width="32" height="32" viewBox="0 0 32 32"><g fill="#000" fill-rule="evenodd"><path d="M23.524 29.511a1.663 1.663 0 01-1.04.332c-1.222-.003-2.446-.003-3.669-.003-3.076 0-6.153.003-9.23 0-.824 0-1.484-.513-1.68-1.31a2.24 2.24 0 01-.048-.521V3.756c.01-.869.57-1.54 1.422-1.7.113-.018.23-.022.347-.022 4.266-.003 8.529 0 12.794-.003.65 0 1.167.239 1.532.785.175.26.264.556.266.873v12.254c0 4.05-.002 8.098.002 12.14 0 .597-.223 1.076-.696 1.428m1.49-26.27A2.53 2.53 0 0022.5 1.18c-4.31 0-8.626-.003-12.938 0-.238 0-.482.035-.71.098a2.494 2.494 0 00-1.846 2.39c-.008 4.091-.004 8.178-.004 12.27 0 4.07 0 8.14.002 12.209a2.532 2.532 0 002.527 2.547c4.324.006 8.645.006 12.97 0 .184 0 .372-.017.551-.056a2.533 2.533 0 002.015-2.504V3.725c0-.162-.02-.33-.051-.485"/><path d="M19.777 23.504a2.47 2.47 0 01.071-.09c.26-.292.388-.643.43-1.03.058-.563-.064-1.11-.202-1.644a8.582 8.582 0 00-1.034-2.433c-.163-.263-.36-.505-.54-.761-.037-.047-.075-.06-.132-.04-.068.03-.144.044-.216.066l-.446-.922c.088-.035.178-.068.265-.103.57-.226 1.083-.532 1.486-1 .386-.444.605-.957.664-1.536a2.788 2.788 0 00-.24-1.528 2.218 2.218 0 00-.587-.753.127.127 0 01-.053-.084 3.855 3.855 0 00-.342-1.27c-.004-.007-.001-.016-.001-.025.009-.003.02-.01.032-.007.52.115 1.018.281 1.454.599.743.542 1.217 1.272 1.35 2.181.208 1.425-.338 2.554-1.445 3.433a4.081 4.081 0 01-.335.24c-.111.074-.23.142-.338.209.187.247.382.483.562.735.515.73.899 1.528 1.21 2.364.237.642.42 1.3.566 1.967.116.525.336.993.73 1.373.012.012.023.028.05.06h-2.959zm-3.322-1.732c.056-.066.104-.12.148-.183.311-.438.404-.931.353-1.449a8.417 8.417 0 00-1.43-3.94c-.076-.11-.145-.263-.252-.311-.1-.042-.252.036-.38.06a12.07 12.07 0 01-2.283.28c-.171.007-.342 0-.529 0v.114l.001 3.788c0 .3.045.598.16.875.126.311.354.531.626.71.022.012.041.028.08.056H9.601c.064-.044.112-.08.161-.112.42-.27.62-.673.677-1.158a4.01 4.01 0 00.027-.483c.001-3.265.003-6.526-.002-9.786 0-.22-.018-.442-.059-.658-.078-.457-.332-.8-.726-1.042-.02-.011-.036-.027-.074-.05.04-.006.063-.013.084-.013 1.688.005 3.376-.005 5.062.007.704.006 1.398.097 2.057.367.834.337 1.43.923 1.796 1.743.59 1.317.253 2.95-.91 4.005a4.712 4.712 0 01-1.225.817.05.05 0 00-.02.014c.155.21.315.412.463.625.42.602.741 1.254 1.013 1.935.319.802.545 1.632.733 2.476.11.493.337.93.715 1.272.009.01.015.02.03.041h-2.949zm-1.476.088c0 .378.062.742.258 1.072.132.23.327.391.544.534.014.012.031.02.07.05h-3.355c.048-.036.075-.059.106-.075.467-.292.691-.725.74-1.26a5.15 5.15 0 00.022-.515c0-1.67.002-3.339-.002-5.012 0-.1.028-.125.125-.142.468-.064.936-.146 1.402-.22.024-.007.05-.009.09-.016v.796c.205-.014.4-.018.597-.037.055-.004.081.012.103.06.12.26.244.522.366.784.003.01.003.026.011.056-.358.015-.71.035-1.078.055v.133l.001 3.737zm-6.397 2.698h14.922V7.322H8.582v17.236zm13.709 3.616c-.015.084-.002.203-.054.248-.048.044-.164.02-.251.02H20.38c-.028 0-.057-.003-.096-.003.154-.196.172-.418.17-.645-.003-.417 0-.84-.001-1.265a.87.87 0 00-.17-.547h1.947v.53c-.393-.202-.82-.084-1.24-.126v.6h.99c-.017.128-.03.243-.054.354-.002.016-.051.031-.079.031-.249.003-.5 0-.75 0h-.115v.638c.008.005.013.012.018.012.31-.002.622.006.933-.007.175-.005.24-.047.403-.174l-.045.334zm-2.517.155a.093.093 0 01-.056.048c-.56.17-1.108.188-1.602-.181-.338-.253-.453-.616-.441-1.021.011-.488.227-.86.66-1.097.34-.18.708-.188 1.08-.126.1.019.2.054.298.089.023.006.055.04.056.064.007.162.005.323.005.508a.767.767 0 00-.486-.244c-.43-.061-.75.011-.94.38a.991.991 0 00-.084.673c.093.454.426.682.887.63.252-.025.493-.073.705-.262-.03.196-.053.366-.082.539zm-3.88.093c.216-.272.163-.589.167-.898.001-.026-.016-.054-.032-.08-.284-.396-.563-.796-.852-1.196-.074-.1-.171-.179-.255-.266h.936c-.111.114-.064.216.006.317.167.24.332.486.503.744.17-.245.334-.475.49-.709.09-.136.095-.238.022-.347h.846c-.429.438-.734.975-1.103 1.462-.016.02-.032.047-.032.068 0 .24-.03.485.058.714.025.066.067.125.102.19h-.857zm-2.218.076c-.749 0-1.283-.537-1.282-1.288.001-.762.528-1.293 1.285-1.291.755 0 1.284.529 1.285 1.285 0 .763-.532 1.298-1.288 1.294zm-1.513-.057c-.2-.002-.401-.002-.603-.01a.162.162 0 01-.112-.067 12.222 12.222 0 01-.303-.6c-.101-.214-.26-.32-.5-.307-.098.01-.195.004-.302.004.012.333-.06.67.173.978H9.64c.181-.235.175-.5.175-.766-.002-.373 0-.747 0-1.12 0-.247-.057-.433-.183-.574h.17c.47 0 .94 0 1.41.003.174 0 .347.015.49.129.22.174.288.409.256.677-.033.272-.205.436-.463.517a.618.618 0 01-.075.021c.192.123.272.313.366.491.064.122.118.24.19.353.062.093.144.173.22.263-.007 0-.02.008-.033.008zm11.345-3.16H8.579c-.002.036-.004.07-.004.101-.001.928-.005 1.857.002 2.786 0 .12.024.244.074.356.17.393.483.602.915.602.902.008 1.803.003 2.705.003h10.245a.98.98 0 00.993-.994l-.001-2.746v-.108zM22.04 5.834c-.213.129-.45.166-.693.168a2.47 2.47 0 01-.906-.15c-.067-.022-.091-.061-.088-.134.006-.167.002-.338.002-.528.287.294.622.404.995.392.128-.006.26-.05.377-.103.123-.055.168-.176.153-.31-.016-.13-.1-.2-.211-.226-.174-.042-.35-.068-.523-.106-.137-.035-.28-.07-.404-.133a.673.673 0 01-.129-1.102c.19-.17.418-.245.666-.264.3-.021.594.019.877.13.057.022.085.053.084.118-.005.157-.001.31-.001.48-.263-.269-.582-.306-.916-.298a.673.673 0 00-.24.058c-.085.033-.145.097-.142.203.004.104.06.17.153.204.134.044.274.073.41.109.14.034.28.06.416.104.287.099.507.26.529.596.021.345-.107.614-.409.792zm-2.228.132h-1.91c.194-.221.19-.49.19-.758 0-.4.007-.8-.005-1.2-.004-.158-.052-.314-.089-.472-.011-.054-.06-.1-.096-.159h.919c-.202.237-.194.514-.193.792v1.367c.436-.041.891.104 1.286-.24l-.102.67zM17.53 5.74c-.03.223-.032.22-.258.22-.544 0-1.09 0-1.634.003h-.073c.172-.187.197-.394.197-.612-.002-.46 0-.923-.002-1.382 0-.209-.035-.412-.189-.59h.92c-.182.243-.172.52-.172.79v1.363c.431-.032.878.09 1.269-.229-.02.15-.036.291-.058.437zm-3.654.288c-.793.005-1.349-.55-1.352-1.342-.006-.822.533-1.367 1.34-1.37.798 0 1.35.534 1.355 1.316.003.843-.524 1.394-1.343 1.396zm-1.813-.065c-.135 0-.273-.004-.408 0-.059 0-.098-.012-.125-.068-.093-.188-.19-.376-.286-.566a1.036 1.036 0 01-.05-.094c-.097-.214-.26-.308-.496-.29-.106.006-.213 0-.33 0 .023.348-.07.701.185 1.008h-.927c.164-.177.185-.386.188-.602.002-.442 0-.884 0-1.324 0-.23-.019-.456-.19-.647.037-.003.061-.006.085-.006h1.411c.15.003.3.014.445.045.321.081.498.344.5.702.002.338-.168.555-.51.657-.017.006-.035.008-.066.018.23.157.33.394.443.62.098.198.205.388.387.547h-.256zM22.516 2.75H9.518a.963.963 0 00-.943.958c-.003.935-.002 1.875 0 2.816 0 .024.005.044.007.072h14.927V3.743a.976.976 0 00-.993-.992z"/><path d="M14.979 11.122v.203c0 1.016-.001 2.033.002 3.054.001.095-.024.134-.114.167-.476.176-.969.28-1.469.355-.007 0-.015-.003-.033-.006v-.102c0-.988.001-1.975-.002-2.97-.003-.367-.066-.724-.258-1.043-.132-.218-.32-.373-.53-.507a2.688 2.688 0 00-.059-.043l.008-.022h.16c1.103 0 2.206 0 3.31-.002a.26.26 0 01.192.072c.253.21.443.462.562.766.008.02.014.046.025.078h-1.794zm2.239.406c-.11-.797-.5-1.407-1.217-1.79-.479-.264-1.002-.357-1.538-.365-.765-.013-1.532-.004-2.297-.004-.026 0-.048.004-.079.004v5.97c.068 0 .125.002.183 0 .513-.052 1.028-.078 1.536-.159.72-.11 1.407-.333 2.027-.728.542-.346.957-.8 1.201-1.403a2.917 2.917 0 00.184-1.525zm-6.056 14.896c-.268-.03-.541-.033-.815-.042v.67c.226 0 .443.003.666 0 .054-.005.109-.01.162-.028.157-.043.242-.16.237-.31-.006-.152-.09-.274-.25-.29m2.588-.056c-.342-.04-.664.128-.753.492-.03.115-.038.234-.054.333.013.109.02.202.036.295.055.322.317.546.658.57.32.023.634-.171.715-.477.043-.172.052-.357.042-.534-.02-.399-.245-.638-.643-.679m-2.559-22.54c-.218-.024-.438-.018-.658-.026h-.165c0 .236 0 .448.002.668 0 .012.001.024.006.048h.23c.187-.005.375-.002.562-.018.229-.026.338-.162.324-.37a.312.312 0 00-.3-.302m2.891-.024c-.304-.07-.581-.018-.793.233-.154.185-.182.41-.186.643.009.088.014.182.027.271.061.34.327.582.655.6.406.023.706-.167.813-.52.061-.199.067-.408.027-.614-.062-.307-.227-.536-.543-.613"/></g></svg>