<svg xmlns="http://www.w3.org/2000/svg" width="32" height="32" viewBox="0 0 32 32"><g fill="none" fill-rule="evenodd"><path fill="#BCBEC0" d="M16.11 1.006c2.655-.01 5.342-.032 6.92.173.426.053.874.107 1.31.193.48.087 1.024.216 1.547.463 1.172.57 2.036 1.658 2.036 3.402 0 3.682-.619 15.039-5.672 24.232-.512.936-1.183 1.464-1.812 1.733a2.825 2.825 0 01-1.109.259 41.36 41.36 0 01-3.177.204c-1.343 0-3.134-.162-3.55-.204a2.83 2.83 0 01-1.12-.259c-.617-.269-1.3-.797-1.812-1.733C4.63 20.276 4 8.919 4 5.237c0-1.744.864-2.831 2.047-3.402.512-.247 1.066-.376 1.535-.463.437-.086.895-.14 1.311-.193 1.632-.216 4.446-.173 7.175-.173.032 0-.01-.01.043 0"/><path fill="#020203" d="M16.11 30.255c1.386-.022 3.156-.216 3.156-.216s1.056.043 1.76-1.26c4.871-8.87 5.49-19.925 5.49-23.542 0-2.325-2.08-2.433-3.668-2.648-1.535-.205-4.2-.172-6.78-.172-2.665 0-5.405-.033-6.993.172-1.589.215-3.668.323-3.668 2.648 0 3.617.63 14.673 5.49 23.543.715 1.302 1.76 1.26 1.76 1.26s2.036.215 3.454.215"/><path fill="#ECEEF0" d="M7.657 4.763l.01.183.011.291.021.27c-.074-.012-.128-.012-.17-.012-.032.011-.054.011-.075.011-.021 0-.043.011-.053.011V4.58l-.022-.527-.01-.065c0-.064 0-.129-.01-.193h.18l.512-.022c.192-.01.352.01.48.065.117.053.181.15.192.301a.416.416 0 01-.15.312c-.106.076-.266.14-.469.183l.011.01.224.216.213.205.235.226c.053.043.085.075.106.097.022.01.054.032.086.064v.011c-.032-.01-.064-.01-.096-.01h-.096c-.032 0-.054.01-.075.01-.021 0-.053 0-.096.01l-.021-.02c-.053-.054-.15-.14-.277-.28-.128-.14-.224-.237-.288-.302-.064-.065-.15-.13-.245-.204h-.128v.096zm.789-.602a.243.243 0 00-.139-.226.743.743 0 00-.373-.076c-.043 0-.085.011-.139.011a.828.828 0 00-.149.021l-.01.022v.183l.02.474c.011 0 .033.01.054.01.021 0 .032 0 .053-.01.203 0 .373-.033.501-.097.128-.054.192-.162.182-.312zm4.968.333c.01.248-.107.463-.32.646-.224.172-.501.259-.843.27-.362 0-.64-.076-.852-.227a.775.775 0 01-.32-.656c-.01-.259.096-.474.32-.646.213-.173.49-.27.831-.27.373-.01.661.065.874.216.203.15.31.377.31.667zm-1.163.83c.256 0 .459-.076.619-.238a.76.76 0 00.234-.581.864.864 0 00-.085-.409.583.583 0 00-.277-.28.845.845 0 00-.512-.118.86.86 0 00-.618.226.79.79 0 00-.224.592c0 .172.032.312.085.409a.75.75 0 00.288.29.895.895 0 00.49.108zm4.606-.84l-.288.549h-.021l-.118-.227-.128-.258-.351-.743-.086-.204-.01-.022c-.01 0-.032 0-.053.011h-.086c-.064 0-.128 0-.181-.01l.298.591.139.27.299.602c.01.011.031.054.063.119a.733.733 0 01.064.14c.043-.011.075-.011.107-.011l.096.01.128-.29.16-.29.139-.27.138-.269.33-.603c-.053.011-.085.011-.106.011-.01 0-.032 0-.064-.01h-.064a1.499 1.499 0 01-.15.376c-.074.162-.16.334-.255.528zm3.976-.85h-.607l-.49-.012.01.57-.01.28v.291l-.022.291c0 .097-.01.194-.021.29h.607l.523.012c0-.033-.011-.054-.011-.065 0-.01 0-.022.01-.043v-.043c-.074.01-.18.021-.32.021h-.532l.01-.204v-.528h.214c.213 0 .394.011.543.033v-.108c.011-.01.011-.032.011-.043-.107 0-.192.01-.256.01h-.32l-.085-.01h-.096v-.172l.021-.453.576.011c.053 0 .085.011.117 0h.128c0-.021-.01-.043-.01-.064 0-.011.01-.022.01-.033v-.032zm2.559 1.033v.473l.01.27c-.074-.011-.138-.011-.18-.011h-.118l.043-.926v-.786h.085a.25.25 0 00.096.01h.512c.191 0 .352.033.469.087a.327.327 0 01.18.312.372.372 0 01-.17.301c-.106.076-.266.13-.48.162l.022.021.213.226.192.216.235.237.095.097c.022.021.043.043.075.064v.01c-.032 0-.064-.01-.085-.01h-.277l-.011-.01c-.053-.054-.139-.162-.267-.302a5.995 5.995 0 00-.277-.312c-.053-.065-.138-.14-.234-.226h-.118l-.01.097zm.82-.56a.27.27 0 00-.127-.237.71.71 0 00-.373-.086c-.043-.011-.086 0-.128 0-.053 0-.107 0-.16.01l-.01.022V4l-.012.474c.011 0 .033.01.054.01h.053c.203 0 .373-.021.501-.075.139-.043.203-.15.203-.301zM15.961 19.16c1.03 0 3.173.66 5.288 1.999 2.155-4.043 3.074-10.786 3.4-14.576-2.437-.417-8.688-.323-8.688-.323s-6.25-.094-8.688.323c.327 3.79 1.245 10.533 3.4 14.576 2.116-1.34 4.259-2 5.288-2"/><path fill="#E42620" d="M21.121 20.588c1.343-2.573 2.676-8.547 3.102-13.672-1.641-.236-6.567-.258-8.155-.258-1.226 0-6.631 0-8.369.258.427 5.125 1.77 11.099 3.113 13.672 1.397-.904 3.987-1.84 5.31-1.84 1.364.107 3.677.99 5 1.84"/><path fill="#D8D5D3" d="M9.895 6.863c.043 2.583.555 5.996 1.024 8.16.469 2.152.917 3.67.917 3.67l-.182.054s-.458-1.518-.927-3.681c-.47-2.175-.992-5.598-1.034-8.203h.202zm2.122-.14c.256 6.103 1.28 11.357 1.28 11.357l-.193.043s-1.034-5.264-1.28-11.39l.193-.01zm2.153 0c.054 3.897.48 10.786.48 10.786l-.192.01s-.437-6.889-.49-10.796h.202zm7.975.14c-.043 2.583-.566 5.996-1.024 8.16-.469 2.152-.927 3.67-.927 3.67l.191.054s.459-1.518.928-3.681c.47-2.175.991-5.598 1.034-8.203h-.202zm-2.133-.14c-.245 6.103-1.268 11.357-1.268 11.357l.192.043s1.023-5.264 1.279-11.39l-.203-.01zm-2.142 0c-.054 3.897-.49 10.786-.49 10.786l.202.01s.437-6.889.49-10.796h-.202z"/><path fill="#ECEEF0" d="M20.581 27.727h-.001c-.032-.034-.105-.039-.204-.015-.719.17-1.668-.309-2.317-.36-.445-.037-.753.096-1.078.386-.221.197-.59.634-.967.635-.377 0-.746-.438-.968-.635-.325-.29-.633-.423-1.077-.387-.65.052-1.598.531-2.317.36-.1-.023-.172-.018-.204.016s-.024.096.036.185c.235.349.442.677.854.871.393.185.79.208 1.205.232.821.046 1.642.029 2.465.029h.013c.824 0 1.644.017 2.465-.03.416-.023.813-.046 1.205-.23.413-.195.62-.523.854-.872.06-.089.068-.15.036-.185"/><path fill="#ECEEF0" d="M16.015 28.087c-1.283-.994-2.705-2.581-3.787-4.378 1.247-.931 1.823-1.563 2.296-2.481.483-.938.704-1.906.854-2.934.268-1.844.28-4.278.263-6.128-.002-.238.002-.46-.12-.685-.118-.218-.08-.315-.027-.536.132-.539.327-1.042.52-1.545.194.503.39 1.006.522 1.545.053.221.09.318-.028.536-.122.224-.117.447-.12.685-.015 1.85-.005 4.284.264 6.128.15 1.028.37 1.996.853 2.934.473.918 1.05 1.55 2.297 2.481-1.082 1.797-2.506 3.384-3.787 4.378"/></g></svg>