<svg xmlns="http://www.w3.org/2000/svg" width="32" height="32" viewBox="0 0 32 32"><g fill="none" fill-rule="evenodd"><path fill="#E9E9E9" d="M28.997 20.836c.012-.523-.013-8.232-.069-9.79-.01-.215-.15-4.34-.169-4.738-.01-.4-.01-.518-.288-.563-.278-.042-7.415-.626-8.558-.655-1.141-.032-4.186-.244-10.697.124-4.014.218-5.696 2.274-6.053 3.914-.115.515-.166 1.876-.163 2.395.032 2.098.073 6.918.112 8.37 0 0 .172 6.14.172 6.531 0 .395.013.519.289.57.275.042 7.414.622 8.554.652 1.143.024 4.194.286 10.694-.126 6.188-.342 6-3.637 6.063-3.912.06-.277.108-2.255.113-2.772z"/><path fill="#333" fill-opacity=".852" d="M12.424 26.79c-1.057-.03-7.652-.563-7.908-.606-.255-.043-.274-.15-.274-.519 0-.367-.153-6.038-.153-6.038s-.042-.268.266-.228c.672.09 11.257 1.074 12.243 1.083.981.016.712-.302.69-.354-.032-.071-.306-.317-.849-.443-.538-.131-3.53-.902-5.558-1.353-2.023-.451-6.736-1.51-6.736-1.51s-.124.01-.132-.158c0-.492-.011-1.122-.011-1.122s-.045-.257.15-.235c.56.113 9.955 1.967 10.906 2.154.955.18 12.85 2.84 12.85 2.84s.113.005.11.197c0 .48-.05 2.307-.11 2.565-.056.251.12 3.295-5.598 3.614-6.011.378-8.832.142-9.886.112M4.137 9.671c.331-1.516 1.883-3.403 5.596-3.616 6.016-.335 8.836-.142 9.888-.112 1.053.028 7.651.563 7.906.606.257.044.257.156.267.52.02.365.151 4.18.16 4.382.003.197-.107.262-.254.262-.773 0-10.176-.778-12.168-.745-.496.011-.522.274-.415.429.085.112.267.134.267.134s12.37 1.997 12.567 2.076c.031.019.105.025.105.25v1.811s.074.284-.416.143c-8.095-1.83-23.528-3.837-23.528-3.837-.099-.013-.121-.022-.121-.077 0-.478.039-1.75.146-2.226m23.902 7.69l-.005 1.63s.03.199-.28.113c-.79-.224-15.717-3.533-23.652-4.672-.085-.014-.064-.163-.064-.17v-1.197s-.017-.149.086-.135c3.067.462 10.769 1.698 12.661 2.027 1.898.296 10.414 1.884 11.13 2.032.145.026.124.372.124.372m.845 6.247c.06-.277.108-2.255.113-2.772.012-.523-.013-8.232-.069-9.79-.01-.215-.15-4.34-.169-4.738-.01-.4-.01-.518-.288-.563-.278-.042-7.415-.626-8.558-.655-1.141-.032-4.186-.244-10.697.124-4.014.218-5.696 2.274-6.053 3.914-.115.515-.166 1.876-.163 2.395.032 2.098.073 6.918.112 8.37 0 0 .172 6.14.172 6.531 0 .395.013.519.289.57.275.042 7.414.622 8.554.652 1.143.024 4.194.286 10.694-.126 6.188-.342 6-3.637 6.063-3.912"/></g></svg>