<svg xmlns="http://www.w3.org/2000/svg" xmlns:xlink="http://www.w3.org/1999/xlink" width="32" height="32" viewBox="0 0 32 32"><defs><path id="cars-subaru-ic-subaru-a" d="M0 .07h31.968v17.093H0V.07z"/></defs><g fill="none" fill-rule="evenodd"><g transform="translate(0 7.04)"><mask id="cars-subaru-ic-subaru-b" fill="#fff"><use xlink:href="#cars-subaru-ic-subaru-a"/></mask><path fill="#DFE0E1" d="M31.968 8.616c0 4.72-7.157 8.547-15.984 8.547C7.156 17.163 0 13.336 0 8.616 0 3.896 7.156.07 15.984.07c8.827 0 15.984 3.826 15.984 8.546" xmask="url(#cars-subaru-ic-subaru-b)"/></g><path fill="#144576" d="M30.635 15.657c0 4.18-6.559 7.57-14.651 7.57-8.092 0-14.652-3.39-14.652-7.57s6.56-7.57 14.652-7.57c8.092 0 14.651 3.39 14.651 7.57"/><path fill="#DFE0E1" d="M28.265 13.87l-.004-.007a.085.085 0 00-.019-.024.153.153 0 00-.026-.02.237.237 0 00-.022-.011l-.01-.005a.359.359 0 00-.03-.012l-.005-.002a1.164 1.164 0 00-.279-.041l-1.704-.276s-.043-.003-.11-.015a1.443 1.443 0 01-.036-.007l-.033-.007c-.216-.047-.563-.17-.681-.472-.175-.451-.36-.944-.36-.944s-.033-.2-.133-.2-.15.241-.15.241-.201.694-.36.92c-.158.225-.35.45-1.194.534a25.72 25.72 0 00-.931.11l-.093.013-.027.004-.063.008-.042.005-.051.007a3.773 3.773 0 00-.037.004l-.052.007-.032.003-.05.006-.03.003a4.644 4.644 0 01-.048.004l-.026.002-.052.004h-.019a12.261 12.261 0 01-1.647-.056c-.55-.065-4.118-.5-4.118-.5l-.369-.044c-.455-.058-1.205-.163-1.51-.265-.451-.15-1.111-.175-1.62-1.771-.51-1.595-.543-1.712-.543-1.712s-.043-.293-.185-.293c-.141 0-.183.326-.183.326s-.568 1.846-.836 2.398c-.267.55-.46 1.069-2.69 1.32-1.98.258-3.019.421-3.019.421l-1.83.25s-.325.013-.325.139c0 .125.276.125.376.138a484.444 484.444 0 005.475.752c.187.03.581.086.94.2v.001l.038.013.063.021.028.011a2.157 2.157 0 01.27.125 1.163 1.163 0 01.078.05l.02.013a.874.874 0 01.067.054c.363.326.677 1.027.902 2.067.225 1.04.463 1.93.463 1.93s.038.313.163.313c.126 0 .163-.326.163-.326s.614-2.443.765-2.869c.087-.247.196-.654.539-.994.247-.247.616-.458 1.19-.547 1.365-.213 3.909-.501 3.909-.501s1.271-.154 2.306-.224a9.498 9.498 0 011.028-.027c.851.05 1.804.176 2.042.213.185.03.458.062.649.27a.73.73 0 01.14.227c.167.418.35 1.203.35 1.203s.06.242.151.242c.092 0 .15-.225.15-.225s.276-.953.377-1.195a.67.67 0 01.125-.2l.027-.03c.145-.14.398-.252.892-.313.743-.092 1.528-.259 1.528-.259h.01a.828.828 0 00.299-.062l.004-.002a.215.215 0 00.017-.011l.008-.006a.131.131 0 00.015-.014l.005-.006a.081.081 0 00.01-.017l.003-.006a.072.072 0 00-.001-.053"/><path fill="#DFE0E1" d="M25.794 20.037a.076.076 0 00-.017-.028v-.001a.135.135 0 00-.026-.02c-.003 0-.006-.002-.009-.004a.31.31 0 00-.038-.017l-.008-.002a.654.654 0 00-.045-.014l-.025-.006-.01-.002a3.575 3.575 0 00-.285-.047c-.313-.043-1.152-.134-1.75-.238l-.082-.014a7.546 7.546 0 01-.207-.041c-.576-.125-.61-.584-.693-.81-.083-.225-.142-.585-.276-.585-.134 0-.166.242-.192.318-.025.075-.158.55-.258.71-.1.158-.176.334-.568.41-.393.074-1.128.233-1.821.25l-.145.002h-.256c-.463-.008-.8-.05-1.228-.103-.543-.067-1.044-.092-1.42-.259a.649.649 0 01-.068-.035l-.005-.004c-.329-.201-.502-.701-.596-1.013-.071-.238-.125-.386-.172-.452l-.003-.004a.13.13 0 00-.018-.02L15.565 18a.044.044 0 00-.025-.009c-.006 0-.014.004-.022.01l-.003.003a.162.162 0 00-.03.036l-.003.004a1.86 1.86 0 00-.175.415c-.067.217-.243.86-.501 1.02-.26.158-.694.25-1.47.325 0 0-.014 0-.037.003h-.003l-.04.003h-.006a14.007 14.007 0 00-.298.029h-.008l-.192.022-.01.001-.204.025-.01.002-.2.03-.011.001a4.83 4.83 0 00-.18.033l-.012.003a2.09 2.09 0 00-.08.018h-.001c-.139.034-.231.072-.229.114.002.042.085.082.21.118h.002c.368.106 1.103.18 1.258.199.13.016.499.057.814.107h.003c.123.02.238.04.328.061l.01.002.047.013a.725.725 0 01.06.018c.233.083.392.15.484.41.092.258.317 1.026.317 1.026s.05.192.11.318l.002.006a.635.635 0 00.017.032l.008.013.015.022.007.009.015.014.006.005a.04.04 0 00.021.007.039.039 0 00.02-.007l.008-.006a.123.123 0 00.014-.015l.007-.009a.314.314 0 00.018-.028l.002-.004a.56.56 0 00.02-.04l.002-.004c.06-.134.11-.338.11-.338s.225-.96.392-1.136c.167-.175.192-.242.936-.359.487-.077.97-.16 1.404-.209l.079-.008a5.075 5.075 0 01.555-.033c.56 0 .668.008 1.01.05.343.041 1.078.134 1.37.225.293.092.393.3.468.493.076.192.243.702.243.702s.041.209.142.209a.066.066 0 00.033-.01l.003-.001c.084-.049.133-.263.147-.334.08-.242.262-.757.376-.858.151-.134.26-.26 1.003-.351.743-.092 1.186-.184 1.445-.2l.082-.007.034-.003a1.787 1.787 0 00.08-.01.109.109 0 00.026-.004l.04-.006c.077-.015.132-.035.16-.062.003-.004.008-.007.01-.011.007-.01.01-.02.01-.031a.081.081 0 00-.004-.026"/><path fill="#DFE0E1" d="M29.494 16.95l-.003-.008a.088.088 0 00-.014-.022l-.004-.005a.14.14 0 00-.034-.025.292.292 0 00-.051-.022.651.651 0 00-.056-.017h-.004c-.02-.006-.04-.01-.064-.015h-.002a4.435 4.435 0 00-.247-.04c-.334-.045-.95-.187-1.398-.288l-.039-.008-.092-.021c-.452-.1-.585-.676-.585-.676s-.184-.593-.3-.585c-.118.008-.276.543-.435.91-.158.368-.66.451-.927.493-.267.042-.693.159-1.378.175a7.06 7.06 0 01-1.333-.108l-.003.006c-.54-.067-1.038-.093-1.413-.261a.587.587 0 01-.064-.034l-.026-.017c-.319-.212-.489-.707-.581-1.018-.071-.242-.126-.392-.173-.46l-.002-.001a.134.134 0 00-.02-.023l-.007-.007a.043.043 0 00-.024-.01c-.007 0-.015.004-.023.01l-.003.003a.166.166 0 00-.03.036l-.004.005a1.894 1.894 0 00-.175.421c-.068.221-.243.874-.504 1.035-.26.162-.697.255-1.477.331l-.091.008h-.004c-.218.02-.76.071-1.112.145-.087.018-.16.037-.216.058a.577.577 0 00-.065.03.136.136 0 00-.02.014l-.002.001c-.012.011-.018.022-.017.033 0 .005.002.01.005.016l.002.003a.07.07 0 00.01.014c.002 0 .003.002.005.003.004.005.01.009.016.013l.005.003a.295.295 0 00.021.013c.003 0 .005.002.007.003a.455.455 0 00.066.028l.007.002.037.013.008.002.04.012.006.001c.377.105 1.089.177 1.242.196.183.022.832.096 1.15.171l.007.001.053.014.01.003a.79.79 0 01.047.015c.235.084.394.152.487.415.092.263.318 1.044.318 1.044s.05.194.11.322v.001l.002.005a.401.401 0 00.042.07l.004.006a.114.114 0 00.017.017l.006.004a.04.04 0 00.02.008.04.04 0 00.021-.008l.007-.006a.12.12 0 00.015-.015l.007-.009a.325.325 0 00.017-.027l.004-.006a.617.617 0 00.018-.037l.004-.008c.06-.136.11-.342.11-.342s.225-.976.393-1.154c.168-.178.193-.246.94-.365.579-.092 1.152-.194 1.643-.236v-.006a4.83 4.83 0 01.388-.019c.398.001.714.033 1.458.141.594.087.793.196.926.5a1.129 1.129 0 01.041.105l.013.039.015.044.024.08c.11.378.206.68.279.815l.002.004.015.026.005.007a.226.226 0 00.018.024l.012.01.005.004a.03.03 0 00.015.005c.075 0 .092-.109.167-.343.053-.236.103-.419.152-.563l.003-.008a2.145 2.145 0 01.047-.123.894.894 0 01.425-.492c.267-.167 1.596-.317 1.596-.317s.108-.012.223-.034h.001l.018-.003a.208.208 0 01.01-.002l.032-.007.021-.005.022-.006.026-.007.017-.005a.548.548 0 00.025-.009l.015-.005.021-.01.012-.005.017-.01.01-.006a.075.075 0 00.01-.012l.006-.006a.035.035 0 00.006-.018.1.1 0 00-.005-.032"/></g></svg>