<svg xmlns="http://www.w3.org/2000/svg" width="32" height="32" viewBox="0 0 32 32"><path fill="#007A38" fill-rule="evenodd" d="M7.056 18.394C9.325 19.44 12.494 20.09 16 20.09c3.506 0 6.675-.65 8.944-1.697H7.056zm-.366-.176l8.904-9.367c-6.711.097-12.086 2.575-12.086 5.619 0 1.44 1.203 2.753 3.182 3.748zm9.716-9.367l8.904 9.367c1.979-.995 3.182-2.308 3.182-3.748 0-3.044-5.375-5.522-12.086-5.619zM16 22c-7.732 0-14-3.134-14-7s6.268-7 14-7 14 3.134 14 7-6.268 7-14 7zm-5.94-6.371l11.755 2.111-4.648-7.026-7.108 4.915z"/></svg>