<svg xmlns="http://www.w3.org/2000/svg" width="32" height="32" viewBox="0 0 32 32"><g fill="none" fill-rule="evenodd"><path fill="#231F20" d="M17.997 22.488c1.11-1.335 1.782-3.808 1.782-6.672 0 0-.005-.212-.007-.38 2.937-.566 5.015-1.784 5.571-3.247 1.194 1.098 1.831 2.363 1.831 3.68 0 3.27-3.908 6.05-9.177 6.62m-1.96-6.71c.555 0 1.104-.026 1.644-.066-.032 2.672-.864 4.457-1.644 4.457-.78 0-1.614-1.785-1.644-4.457.539.04 1.09.066 1.644.066m-9.307-3.59c.556 1.463 2.634 2.681 5.572 3.248l-.007.38c0 2.863.672 5.336 1.781 6.671C8.808 21.92 4.9 19.138 4.9 15.87c0-1.317.636-2.582 1.83-3.68m9.306 1.128c-.482 0-.96-.02-1.43-.05.288-1.403.837-2.302 1.431-2.302.593 0 1.141.899 1.43 2.301-.469.031-.947.05-1.43.05m6.828-1.806c-.366.628-1.606 1.183-3.33 1.505-.303-1.694-.884-3.088-1.64-3.954 2.652.246 4.728 1.01 5.033 1.88a.615.615 0 01.039.217.71.71 0 01-.102.352m-13.758-.352a.64.64 0 01.038-.217c.306-.872 2.382-1.634 5.036-1.88-.757.866-1.34 2.26-1.643 3.954-1.724-.322-2.964-.877-3.328-1.505a.693.693 0 01-.103-.352M16.037 7C8.415 7 2.214 10.922 2.214 15.743c0 4.82 6.2 8.742 13.823 8.742 7.622 0 13.823-3.922 13.823-8.742C29.86 10.922 23.659 7 16.037 7"/><path fill="#BCBEC0" d="M25.182 10.656a1.652 1.652 0 01.011 1.11c1.38 1.149 2.193 2.567 2.193 4.104 0 3.835-5.082 6.945-11.349 6.945S4.69 19.705 4.69 15.87c0-1.536.814-2.955 2.192-4.105a1.658 1.658 0 01-.04-.944 1.07 1.07 0 01.066-.177C5.025 12 3.883 13.776 3.883 15.722c0 4.248 5.442 7.692 12.154 7.692s12.154-3.444 12.154-7.692c0-1.942-1.137-3.714-3.01-5.066"/><path fill="#BCBEC0" d="M16.037 13.53c-.589 0-1.153-.022-1.688-.062h.004c.296-1.664.939-2.704 1.684-2.704.746 0 1.388 1.04 1.685 2.704h.005l.288.21-.29-.21c-.535.04-1.1.062-1.688.062m0-3.41c-.943 0-1.744 1.405-2.036 3.602l.346-.254-.35.257a23.215 23.215 0 004.08 0l-.004-.004c-.292-2.196-1.093-3.6-2.036-3.6"/><path fill="#BCBEC0" d="M12.709 13.272l-.004-.005c-2.58-.444-4.114-1.39-3.76-2.397.376-1.07 2.817-1.883 5.805-2.066-.95.77-1.7 2.374-2.041 4.468m11.225-2.5c-.427-1.425-3.944-2.471-7.897-2.471-3.952 0-7.469 1.046-7.896 2.472-.37 1.236 1.651 2.38 4.84 2.834l.001.002h.004c.294-2.203 1.007-3.989 1.918-4.814.37-.02.749-.03 1.133-.03 3.549 0 6.663.884 7.092 2.105.353 1.006-1.18 1.953-3.76 2.397l-.276.34c3.188-.453 5.21-1.598 4.84-2.834"/><path fill="#B4B4B4" d="M19.088 13.609h.003l.274-.337c-.485-2.974-1.794-4.971-3.328-4.971 1.432 0 2.644 2.254 3.051 5.308"/><path fill="#ECEEF0" d="M16.037 23.414c-6.712 0-12.154-3.444-12.154-7.692 0-1.945 1.142-3.719 3.021-5.074a1.036 1.036 0 00-.063.173c-.446 1.785 2.09 3.432 6.03 4.018-.02.333-.031.673-.031 1.018 0 4.173 1.431 7.557 3.197 7.557s3.198-3.384 3.198-7.557c0-.345-.01-.685-.03-1.019 3.937-.585 6.474-2.232 6.028-4.017a1.83 1.83 0 00-.05-.163c1.871 1.354 3.008 3.124 3.008 5.064 0 4.248-5.442 7.692-12.154 7.692m0-15.113c-1.431 0-2.643 2.253-3.05 5.307-3.192-.453-5.216-1.598-4.846-2.835.427-1.426 3.944-2.472 7.896-2.472 3.953 0 7.47 1.046 7.897 2.472.37 1.237-1.654 2.381-4.845 2.835-.408-3.054-1.62-5.307-3.052-5.307m-2.036 5.424c.291-2.199 1.093-3.604 2.036-3.604.944 0 1.745 1.405 2.037 3.604a23.162 23.162 0 01-4.073-.001m2.036 1.34c.744 0 1.46-.035 2.142-.1.009.207.013.418.013.635 0 3.125-.965 5.493-2.155 5.493s-2.154-2.368-2.154-5.493c0-.217.004-.428.013-.635.682.065 1.398.1 2.141.1m0-7.849c-7.517 0-13.61 3.819-13.61 8.528 0 4.71 6.093 8.527 13.61 8.527 7.517 0 13.61-3.817 13.61-8.527 0-4.71-6.093-8.528-13.61-8.528"/><path fill="#BCBEC0" d="M16.037 15.565c.642 0 1.261-.03 1.86-.082l-.001.001.001.116c0 2.758-.834 4.85-1.86 4.85-1.027 0-1.86-2.092-1.86-4.85l.002-.127.006.011c.595.052 1.213.081 1.852.081m0 5.527c1.19 0 2.155-2.368 2.155-5.495 0-.214-.005-.422-.013-.628l.002-.005.002-.002a22.442 22.442 0 01-4.292 0l.003.002.001.003c-.008.207-.012.416-.012.63 0 3.127.964 5.495 2.154 5.495"/><path fill="#BCBEC0" d="M12.84 15.857c0-.344.011-.684.03-1.017h-.003v-.001c-3.58-.532-6-1.943-6.074-3.536-.083 1.76 2.222 3.322 5.724 3.958l.002-.002a17.24 17.24 0 00-.012.598c0 4.419 1.55 7.557 3.53 7.557-1.765 0-3.197-3.384-3.197-7.557m12.441-4.554c-.073 1.593-2.495 3.004-6.075 3.535l.001.002h-.003c.02.334.031.673.031 1.017 0 4.173-1.432 7.557-3.198 7.557 1.98 0 3.53-3.138 3.53-7.557 0-.202-.005-.4-.012-.597l.002.001c3.503-.636 5.807-2.2 5.724-3.958"/></g></svg>