<svg xmlns="http://www.w3.org/2000/svg" xmlns:xlink="http://www.w3.org/1999/xlink" width="32" height="32" viewBox="0 0 32 32"><defs><path id="cars-venturi-ic-venturi-a" d="M0 7.436V.873h32V14H0V7.436z"/></defs><g fill="none" fill-rule="evenodd"><g transform="translate(0 9.127)"><mask id="cars-venturi-ic-venturi-b" fill="#fff"><use xlink:href="#cars-venturi-ic-venturi-a"/></mask><path fill="#000" d="M16.001 13.78C7.284 13.78.217 10.94.217 7.438c0-3.504 7.067-6.345 15.784-6.345 8.716 0 15.782 2.84 15.782 6.345 0 3.503-7.066 6.344-15.782 6.344M27.242 2.748C24.236 1.54 20.243.873 16.001.873c-4.245 0-8.234.667-11.242 1.875C1.691 3.982 0 5.647 0 7.437s1.687 3.455 4.759 4.69C7.767 13.334 11.756 14 16.001 14c4.242 0 8.235-.666 11.241-1.873C30.31 10.892 32 9.227 32 7.437c0-1.79-1.69-3.455-4.758-4.69" xmask="url(#cars-venturi-ic-venturi-b)"/></g><path fill="#BB1E27" d="M23.664 11.306c-.09 0-1.485 3.88-2.815 5.943-1.324 2.054-2.615 3.827-4.103 5.35 8.313-.062 14.322-2.701 14.322-6.032 0-2.241-2.897-4.2-7.404-5.261m-15.269.05c-.072 0-7.508 1.618-7.508 5.21 0 3.347 6.072 5.997 14.441 6.033-1.489-1.523-2.768-3.285-4.093-5.339-1.333-2.065-2.125-3.983-2.84-5.904"/><path fill="#0C3693" d="M16.396 19.198a1.9 1.9 0 01.165-.014c.02.026.038.056.058.089a1.25 1.25 0 00-.233.016c.02-.02.03-.05.01-.091m-.256.15a.388.388 0 00-.032-.081c.072-.024.142-.045.212-.06l.02-.001a.056.056 0 01.012.022.094.094 0 01-.015.072 1.529 1.529 0 00-.197.049m-.067-.148l.008-.003c.07-.031.108-.075.195-.036.003 0 .003 0 .005.002a3.17 3.17 0 00-.203.047c0-.004-.003-.006-.005-.01m.503-.105a.016.016 0 01.008-.003c.07-.033.108-.074.201-.037a.51.51 0 01.046.028c.014.012.02.026.026.038.002.01.002.02.002.029-.02 0-.032-.004-.047-.005l-.015-.002a1.788 1.788 0 00-.194-.008H16.6c-.009-.013-.015-.03-.023-.04m-.687-.546c.195-.148.209-.176.381-.11l.02.009c.015.128.044.216.08.306.012.039.031.079.05.122.02.049.044.1.065.16l-.026.002a.374.374 0 00-.119.047c-.014.007-.026.016-.044.024.02-.007.038-.01.055-.013.075-.014.133-.006.166.028l.006.012a1.46 1.46 0 00-.145.012l-.012.002a.205.205 0 00-.11-.054.456.456 0 00-.148.007.67.67 0 00-.096.025s-.012-.025-.033-.077a1.85 1.85 0 01-.09-.502m1.413-3.638c.038.068-.055.043-.104.012-.049-.031.017-.106.017-.106s.052.026.087.094m.393.088c.139-.018.148.326.148.326s-.09-.156-.165-.153c-.047.002-.024-.17.017-.173m1.348-.532c.075.099-.793.623-.793.623.146.109.744.024.744.024-.223.259-.497.524-.768.524l.57-.018c-.098.276-.57.368-.57.368l-.302.075c.027.175.473.099.473.099 0 .1-.473.25-.67.25-.197 0 0 .05.122.175 0 0-.299.05-.495.074-.201.025.026-.4.099-.5.078-.098-.078-.804.05-.846.044-.015.131-.27.346.073.069.109.102-.697-.596-.648-.127.009 1.319-1.114 1.915-.973 0 0-.473.358-.896.899-.074.098.77-.2.77-.2m-3.63 3.144s.227-.35.326-.824c0 0-.862-.067-1.011-.15 0 0 .512-.031.649-.066.13-.034-.833-.183-.965-.25l.773-.201c-.233 0-1.074-.14-1.171-.348 0 0 .745.1.863-.065.117-.166-.728-.042-1.111-.5l.862-.016c.1-.233-.813-.083-1.01-.633l.91.067s-.753-.257-.977-.614c0 0 1.043-.268 2.619 1.496l.38.066-.166.283.482-.315.183.298.055-.298c.3.922-.547 1.895-1.69 2.07m2.675 2.477c.031-.33-.16-.535-.393-.63.06.045.116.093.166.145l.08.047-.03.005a.634.634 0 01.151.388c-.009 0-.015 0-.023.002v.004c-.793 0-1.508.392-2.212.55l-.296-.334.175.359c-.05.01-.1.017-.154.023-.396.1-.794-.598-1.104-1.096l1.14.006c.158-.121.312-.21.464-.271.02.022.037.047.052.076-.174.06-.362.152-.573.279l-.947-.007c.314.497.646.947 1.005.897l-.232-.432.45.394c.646-.147 1.184-.504 1.915-.551.052-.004.1-.01.159-.01-.093-.102-.207-.13-.34-.13-.229.002-.503.094-.756.03.032-.25.154-.343.299-.363.207-.028.459.096.595.164a4.117 4.117 0 00-.444-.22 1.732 1.732 0 00-.576-.14l-.034-.09a2.1 2.1 0 01.209.016.098.098 0 01-.021.023s.023-.006.05-.02c.213.036.425.106.64.206a.883.883 0 01.192.05c-.21-.15-.49-.257-.787-.3.008-.025.006-.056-.027-.1v-.003a.186.186 0 00-.125-.066.434.434 0 00-.143.006c-.056.01-.096.028-.096.028s-.017-.031-.043-.096a1.81 1.81 0 01-.088-.44c.015.008.03.015.047.02.166.07.375-1.197.448-1.395.076-.201 1.117-.051 1.665-.326l-.058-.054c-.046-.048-.104-.116-.108-.163-.005-.034.017-.058.091-.058.248 0 .4-.223.4-.223.196-.026.867-.375 1.117-.4l-.145-.043c-.221-.063-.633-.174-.776-.156-.047.006.006-.018.119-.061.328-.128 1.163-.426 1.273-.613 0 0-.053.015-.137.034-.31.07-1.04.223-1.078.066a.05.05 0 010-.032c.064-.176.989-.265 1.366-.642l-.134.02c-.282.038-.93.115-1.084.03-.041-.022-.046-.045-.03-.07.093-.134.973-.314 1.373-.703l-.09-.016a5.85 5.85 0 01-.756-.182c-.049-.018-.055-.041-.029-.07.09-.102.584-.305.971-.78l-.128.049c-.436.16-1.869.708-2.654 1.198-1.532.957-1.866 1.523-1.866 1.523.032-.044.035-.095.032-.147a.288.288 0 00-.035-.102c-.224-.467-1.473-1.097-1.787-1.223-.366-.146-2.454-.823-2.716-1.036l-.016-.012c-.201-.2.569.798 1.194.997.035.013.063.024.09.032.367.145-.671.036-1.17-.001l-.066-.004a5.084 5.084 0 001.12.67c.14.059-.825.012-.993.003l-.029-.002c.146.224.604.452.947.568.133.046.247.075.322.08.26.026-1.014-.055-1.155-.063l-.011-.002c.035.18.697.449 1.166.562.14.033.264.054.348.054.375 0-.695.025-.966.025-.01 0-.014 0-.02.002-.184.022.586.338.827.369.014 0 .027.003.034.003.194 0-.117.114-.23.167a.093.093 0 00-.017.008c-.098.049.597.308.771.149.133-.12.747.774 1.466.5l.046-.017c.53-.177-1.527 1.124-1.57 1.468a.07.07 0 00.008.046c.172.232.92.423 1.17.349.25-.075.444-.35.47-.7.008-.091.022-.094.046-.05.03.057.074.206.122.332.048.127.104.23.155.192a.237.237 0 00.048-.034l.012-.006c.017.098.04.17.072.247.01.027.024.054.034.084.026.057.052.117.08.195l-.026.002a.32.32 0 00-.163.042s-.038.007-.12.219c.024-.095.15-.178.15-.178.1-.03.15-.04.186.003.003 0 .003.002.003.002-.167.06-.32.145-.455.263l-1.196-.013c.27.569.753 1.334 1.16 1.222.813-.11 1.65-.613 2.566-.615a32.256 32.256 0 01-2.04 2.365 32.159 32.159 0 01-4.067-5.273c-1.264-2.051-2.236-4.038-2.896-5.904 2.135-.414 4.537-.632 6.957-.632 2.428 0 4.835.219 6.977.635-.663 1.86-1.631 3.842-2.895 5.888a31.493 31.493 0 01-2.035 2.919"/><path fill="#FFF" d="M16.947 19.75c.145.036.331.005.51-.018-.126-.106-.243-.19-.342-.188-.064.026-.124.088-.168.205"/><path fill="#000" d="M15.24 16.106l-.057.014c.046 0 .067-.005.056-.014"/><path fill="#FFF" d="M17.222 13.591h-.186l-.001.001a.835.835 0 01-.04.213l-.011.021.174.071-.014.041-.177-.07v.011a.723.723 0 01-.115.164l-.012.012.13.128-.031.033-.131-.127a1.14 1.14 0 01-.19.131l-.014.013.073.174-.052.025-.074-.188h-.01a.879.879 0 01-.203.048h-.012v.182h-.037l.003-1.824h.034v.184a.84.84 0 01.206.036l.03.011.072-.17.042.013-.072.17h.003c.062.03.129.076.18.12l.02.022.135-.13.033.031-.135.132a.73.73 0 01.124.178l.01.02.179-.069.017.042-.172.07-.01.011c.018.061.045.156.047.222h.187v.048zm-.18-.27l.18-.073-.04-.09-.178.074a.611.611 0 00-.118-.176l.143-.14-.072-.068-.14.14a.754.754 0 00-.174-.117l.073-.179-.091-.036-.075.178v.001a.683.683 0 00-.203-.038v-.195h-.096v.195a.812.812 0 00-.204.041h-.003l-.07-.172-.093.037.072.174h.002a.89.89 0 00-.165.11l-.002.001-.14-.14-.068.068.142.14a.694.694 0 00-.118.174v.002l-.182-.074-.037.09.182.073a.807.807 0 00-.041.201h.003-.2v.096h.2s-.003 0-.003-.002l.003.002c.004.07.016.138.04.201l-.184.076.037.09.188-.076c.028.06.067.116.112.165l-.138.136.069.068.135-.136a.856.856 0 00.167.112l-.076.18.093.036.075-.178a.697.697 0 00.204.04v.196h.096v-.194a.767.767 0 00.203-.039l.077.186.092-.036-.08-.186h.004a.749.749 0 00.177-.118h-.002l.139.136.069-.068-.14-.136a.685.685 0 00.113-.164l.184.074.039-.088-.184-.074v-.002a.672.672 0 00.04-.2h.201v-.097h-.2a.68.68 0 00-.036-.2zm-6.044-1.256l-.471-.722-.668.097.37.28.544.752.01.016.548-.08.366-1.236-.453.066zm1.656-.135l-.005-.073.85-.052-.024-.34-.844.051-.005-.072 1.011-.062-.018-.342-1.815.112.417.3.052.843 1.416-.086-.018-.34zm2.879.24l-.032-1.137v-.031l-.406.01.02.662-.555-.646-.877.025.41.313.023.845.402-.011-.019-.676.572.66zm.027-1.14l.42.34.487-.002v.83l.405-.003-.002-.827.507-.003v-.34zm3.27.753c-.003.037-.009.15-.264.15h-.05a.55.55 0 01-.223-.049c-.052-.033-.074-.074-.07-.134l.03-.659-.8-.042.38.343-.02.4a.375.375 0 00.2.361c.113.07.278.11.484.121.032.002.064.002.094.002.397 0 .624-.145.638-.41l.038-.724-.406-.02-.03.661zm1.287-.295l.47.046c.032.003.135.032.129.12-.012.084-.106.09-.134.09h-.013l-.471-.047.019-.209zm1.003.146c.019-.174-.16-.324-.414-.35l-1.362-.139.363.363-.082.846.402.038.043-.413.47.048c.075.006.132.06.127.118l-.032.308.403.039.037-.369c.008-.107-.05-.191-.165-.239.117-.044.2-.137.21-.25zm.103-.314l.352.374-.11.84.402.053.15-1.162z"/></g></svg>