<svg xmlns="http://www.w3.org/2000/svg" xmlns:xlink="http://www.w3.org/1999/xlink" width="29px"
     height="29px" viewBox="0 0 29 29" version="1.1">
    <title>vk</title>
    <g stroke="none" stroke-width="1" fill="none" fill-rule="evenodd">
        <g transform="translate(-1544.000000, -1947.000000)">
            <g transform="translate(572.000000, 1765.000000)">
                <g transform="translate(810.000000, 39.000000)">
                    <g transform="translate(114.000000, 106.000000)">
                        <g transform="translate(0.000000, 37.000000)">
                            <g transform="translate(48.043478, 0.000000)">
                                <path d="M13.7699411,20.7111327 L14.8931381,20.7111327 C14.8931381,20.7111327 15.2324186,20.6736637 15.4056302,20.4858053 C15.5650666,20.3133451 15.5599646,19.989469 15.5599646,19.989469 C15.5599646,19.989469 15.5380262,18.4732566 16.2375052,18.2499823 C16.9270354,18.0300442 17.812481,19.7153805 18.7509869,20.3633894 C19.4606699,20.853823 19.9999473,20.746292 19.9999473,20.746292 L22.5093474,20.7111327 C22.5093474,20.7111327 23.8220823,20.6297788 23.1996429,19.5914248 C23.1486233,19.5064779 22.8371485,18.8233097 21.3338553,17.4195044 C19.7604102,15.9502566 19.9711212,16.1879027 21.8665002,13.6464248 C23.0208192,12.098646 23.4822917,11.153708 23.3381612,10.7489912 C23.2006633,10.3635221 22.3516968,10.4654071 22.3516968,10.4654071 L19.5262301,10.483115 C19.5262301,10.483115 19.3167945,10.4543717 19.1614398,10.5477876 C19.0096564,10.6394071 18.9119538,10.8529292 18.9119538,10.8529292 C18.9119538,10.8529292 18.4647668,12.0506549 17.8683474,13.0692478 C16.6102035,15.2185841 16.1071501,15.3320177 15.901541,15.1985664 C15.423232,14.8875221 15.5426179,13.949 15.5426179,13.2822566 C15.5426179,11.1993894 15.8566437,10.3309292 14.9311477,10.106115 C14.6240096,10.0314336 14.3979927,9.98215929 13.6125456,9.97420354 C12.6043978,9.96368142 11.7510947,9.97728319 11.2679388,10.2154425 C10.9465152,10.3737876 10.6985598,10.7266637 10.8495779,10.7469381 C11.0363097,10.7720885 11.4592624,10.8616549 11.6834937,11.1688496 C11.97303,11.5650973 11.9628261,12.455115 11.9628261,12.455115 C11.9628261,12.455115 12.1291501,14.9070265 11.5743117,15.2116549 C11.1934502,15.4205575 10.6710092,14.9940265 9.54934282,13.0440973 C8.97460677,12.0452655 8.54068488,10.9412124 8.54068488,10.9412124 C8.54068488,10.9412124 8.4570127,10.7348761 8.3077803,10.6245221 C8.12666064,10.4908142 7.87360331,10.4482124 7.87360331,10.4482124 L5.18869565,10.4659204 C5.18869565,10.4659204 4.78564063,10.4772124 4.63768372,10.6535221 C4.5060531,10.8103274 4.6272247,11.1347168 4.6272247,11.1347168 C4.6272247,11.1347168 6.72923317,16.0821681 9.10929858,18.5753982 C11.2916629,20.8612655 13.7699411,20.7111327 13.7699411,20.7111327 L13.7699411,20.7111327 Z"
                                      fill="#FFFFFF"/>
                            </g>
                        </g>
                    </g>
                </g>
            </g>
        </g>
    </g>
</svg>
