<svg xmlns="http://www.w3.org/2000/svg" width="32" height="32" viewBox="0 0 32 32">
    <g fill="none" fill-rule="evenodd">
        <circle cx="16" cy="16" r="15.5" fill="#FFF" stroke="#D3D3D3"/>
        <path fill="#278433" d="M13.776 19.193h-.002v-1.077h-1.056a.675.675 0 0 1-.718-.675.675.675 0 0 1 .69-.676v-.002h1.084v-.998H12.75a.7.7 0 0 1-.751-.7.7.7 0 0 1 .69-.703v-.002h1.084v-3.995c.002-.243.104-.365.305-.365h2.123c.584 0 1.08.081 1.49.243.408.162.741.376.998.643s.444.578.562.933c.117.354.176.72.176 1.096 0 .386-.059.749-.176 1.09a2.399 2.399 0 0 1-.562.907c-.257.262-.59.47-.999.623-.409.154-.905.23-1.489.23h-.73v.998h2.297v.002a.675.675 0 0 1 .664.676.675.675 0 0 1-.718.675h-2.244v.981a.852.852 0 0 1-.845.937.852.852 0 0 1-.85-.841zm2.257-4.833c.235 0 .455-.02.66-.059.204-.04.384-.112.541-.217.157-.105.279-.251.366-.44.087-.188.13-.43.13-.729 0-.297-.043-.547-.13-.748a1.164 1.164 0 0 0-.366-.48 1.434 1.434 0 0 0-.542-.249 2.873 2.873 0 0 0-.66-.072h-.56v2.994h.56z"/>
        <rect width="20" height="2" x="6" y="24" fill="#4C6470" rx="1"/>
        <path stroke="#278433" stroke-linecap="round" stroke-linejoin="round" stroke-width="2" d="M22.031 21.031a8.5 8.5 0 1 0-12.02 0"/>
    </g>
</svg>
