<svg xmlns="http://www.w3.org/2000/svg" width="32" height="32" viewBox="0 0 32 32">
    <g fill="none" fill-rule="evenodd">
        <circle cx="16" cy="16" r="15.5" fill="#FFF" stroke="#D3D3D3"/>
        <g transform="translate(8 6)">
            <rect width="16" height="11" y="7" stroke="#278433" stroke-linecap="round" stroke-linejoin="round" stroke-width="2" rx="2"/>
            <path fill="#FFF" d="M6 13h11v8H6z"/>
            <path stroke="#278433" stroke-linecap="round" stroke-linejoin="round" stroke-width="2" d="M13 7H3V5a5 5 0 1 1 10 0v2z"/>
        </g>
        <path fill="#4C6470" d="M21.575 23l-.295-.306a1 1 0 1 1 1.44-1.388l1.908 1.978a1 1 0 0 1 .01 1.377L22.73 26.7a1 1 0 1 1-1.46-1.367l.312-.333H16v-2h5.575z"/>
    </g>
</svg>
