<svg xmlns="http://www.w3.org/2000/svg" width="32" height="32" viewBox="0 0 32 32">
    <g fill="none" fill-rule="evenodd">
        <circle cx="16" cy="16" r="15.5" fill="#FFF" stroke="#D3D3D3"/>
        <g stroke="#278433" stroke-linecap="round" stroke-linejoin="round" stroke-width="2" transform="translate(8 6)">
            <rect width="16" height="11" y="7" rx="2"/>
            <path d="M13 7H3V5a5 5 0 1 1 10 0v2z"/>
        </g>
        <path fill="#FFF" d="M15 14h10v11H15z"/>
        <g transform="translate(16 16)">
            <circle cx="5" cy="5" r="3" stroke="#4C6470" stroke-width="2"/>
            <path fill="#FFF" d="M.122 5L.9 1.213l4.696-.89L5.987 5 3.781 4l-.5 1z"/>
            <rect width="5" height="2" x="4" fill="#4C6470" rx="1"/>
            <rect width="2" height="5" x="4" fill="#4C6470" rx="1"/>
            <path fill="#4C6470" d="M2 6a1 1 0 1 0 0-2 1 1 0 0 0 0 2z"/>
        </g>
    </g>
</svg>
