<svg xmlns="http://www.w3.org/2000/svg" width="32" height="32" viewBox="0 0 32 32">
    <g fill="none" fill-rule="evenodd">
        <circle cx="16" cy="16" r="15.5" fill="#FFF" stroke="#D3D3D3"/>
        <g transform="translate(7 9)">
            <rect width="18" height="14" stroke="#278433" stroke-linecap="round" stroke-linejoin="round" stroke-width="2" rx="2"/>
            <rect width="8" height="2" x="3" y="4" fill="#278433" rx="1"/>
        </g>
        <path fill="#FFF" d="M20.414 13H27v11H16v-4.671z"/>
        <g transform="translate(17 15)">
            <circle cx="5" cy="5" r="3" stroke="#4C6470" stroke-width="2"/>
            <path fill="#FFF" d="M.122 5L.9 1.213l4.696-.89L5.987 5 3.781 4l-.5 1z"/>
            <rect width="5" height="2" x="4" fill="#4C6470" rx="1"/>
            <rect width="2" height="5" x="4" fill="#4C6470" rx="1"/>
            <path fill="#4C6470" d="M2 6a1 1 0 1 0 0-2 1 1 0 0 0 0 2z"/>
        </g>
    </g>
</svg>
