<svg xmlns="http://www.w3.org/2000/svg" width="48" height="48" viewBox="0 0 48 48">
    <g fill="none" fill-rule="evenodd">
        <circle cx="24" cy="24" r="23" fill="#FFF" stroke="#D3D3D3"/>
        <path stroke-width=".5" stroke="#278433" transform="translate(12, 8)" fill="#278433" d="M3 7a1 1 0 0 0-1 1v20a1 1 0 0 0 1 1h14a1 1 0 0 0 1-1V8a1 1 0 0 0-1-1H3zm0-2h14a3 3 0 0 1 3 3v20a3 3 0 0 1-3 3H3a3 3 0 0 1-3-3V8a3 3 0 0 1 3-3zm17.836-2C10.1 3.008 4.489 3.014 4 3.018A3.001 3.001 0 0 1 6.836 1h14a3 3 0 0 1 3 3v24h-2V4a1 1 0 0 0-1-1z"/>
        <path stroke-width="1" stroke="#4C6470" transform="translate(12, 16)" fill="#4C6470" d="M6 13a1 1 0 0 1 0-2h8a1 1 0 0 1 0 2H6zm0 5a1 1 0 0 1 0-2h4a1 1 0 0 1 0 2H6z"/>
    </g>
</svg>
