<svg xmlns="http://www.w3.org/2000/svg" width="36" height="36" viewBox="0 0 36 36">
    <g fill="none">
        <circle cx="18" cy="18" r="18" fill="#F0F0F0"/>
        <path fill="#0052B4" d="M3.72 7.042c-1.414 1.84-2.48 3.96-3.1 6.263h9.364L3.72 7.042zm31.66 6.263c-.613-2.27-1.666-4.399-3.1-6.263l-6.263 6.263h9.364-.001zM.62 22.696C1.24 25 2.308 27.12 3.72 28.96l6.263-6.263H.62v-.001zM28.96 3.722C27.12 2.308 25 1.24 22.696.62v9.364L28.96 3.72v.002zM7.042 32.28c1.84 1.414 3.96 2.48 6.263 3.1v-9.364L7.042 32.28zM13.305.62c-2.27.613-4.399 1.666-6.263 3.1l6.263 6.263V.62zm9.39 34.76c2.27-.613 4.399-1.666 6.263-3.1l-6.263-6.263v9.364-.001zm3.32-12.684l6.263 6.263c1.414-1.84 2.48-3.96 3.1-6.263h-9.364.001z"/>
        <path fill="#D80027" d="M35.848 15.652h-15.5V.152c-1.559-.203-3.137-.203-4.696 0v15.5H.152c-.203 1.559-.203 3.137 0 4.696h15.5v15.5c1.559.203 3.137.203 4.696 0v-15.5h15.5c.203-1.559.203-3.137 0-4.696zm-13.152 7.044l8.032 8.032 1.058-1.156-6.877-6.877h-2.214l.001.001zm-9.392 0l-8.032 8.032 1.156 1.058 6.877-6.877v-2.213h-.001zm0-9.392L5.272 5.272 4.214 6.428l6.877 6.877h2.214l-.001-.001zm9.392 0l8.032-8.032-1.156-1.058-6.877 6.877v2.214l.001-.001z"/>
    </g>
</svg>
