<svg xmlns="http://www.w3.org/2000/svg" width="36" height="36" viewBox="0 0 36 36">
    <g fill="none">
        <circle cx="18" cy="18" r="18" fill="#F0F0F0"/>
        <path fill="#338AF3" d="M36 18c0-7.136-4.153-13.302-10.174-16.214v32.428C31.847 31.303 36 25.136 36 18zM0 18c0 7.136 4.153 13.302 10.174 16.214V1.786C4.153 4.698 0 10.864 0 18z"/>
        <path fill="#ACABB1" d="M22.704 21.044L19.66 18 22.557 15.103 22.427 13.573 21.597 12.743 18 16.34 14.403 12.743 13.573 13.573 13.443 15.103 16.34 18 13.296 21.044 14.956 22.704 18 19.66 21.044 22.703z"/>
        <path fill="#6DA544" d="M22.427 13.573l-1.66 1.66c.735.733 1.147 1.729 1.146 2.767 0 2.16-1.752 3.913-3.913 3.913-2.161 0-3.913-1.753-3.913-3.913-.001-1.038.411-2.034 1.146-2.767l-1.66-1.66c-1.176 1.173-1.836 2.766-1.834 4.427 0 2.237 1.193 4.304 3.13 5.422 1.938 1.119 4.324 1.119 6.262 0 1.937-1.118 3.13-3.185 3.13-5.422.002-1.66-.658-3.254-1.834-4.427z"/>
    </g>
</svg>
