<svg xmlns="http://www.w3.org/2000/svg" width="36" height="36" viewBox="0 0 36 36">
    <g fill="none">
        <circle cx="18" cy="18" r="18" fill="#D80027"/>
        <path fill="#FFDA44" d="M21.072 22.95l.098 1.884 1.83.486-1.765.675.105 1.884-1.188-1.463-1.758.682 1.02-1.582-1.188-1.47 1.82.485 1.027-1.582-.001.001zm4.092-4.078l.612 1.786 1.884-.02-1.512 1.125.605 1.786-1.54-1.1-1.512 1.132.563-1.8-1.54-1.1 1.884-.028.555-1.8.001.019zM9.85 10.955l1.554 4.78h5.027l-4.064 2.96 1.554 4.78-4.07-2.953-4.07 2.953 1.56-4.78-4.07-2.96h5.027l1.554-4.78H9.85zm14.02 1.82l1.35 1.315 1.666-.88-.83 1.695 1.35 1.315-1.863-.267-.83 1.688-.323-1.856-1.87-.267 1.673-.88-.323-1.863zM21.39 8.08l-.14 1.877 1.75.7-1.835.45L21.03 13l-.99-1.603-1.835.45 1.216-1.44-.998-1.596 1.75.7 1.216-1.44.001.009z"/>
    </g>
</svg>
