<svg xmlns="http://www.w3.org/2000/svg" width="36" height="36" viewBox="0 0 36 36">
    <g fill="none">
        <path fill="#FFDA44" d="M0 18c-.004 3.008.748 5.969 2.189 8.609L18 28.174l15.81-1.565c1.441-2.64 2.194-5.601 2.19-8.609l-18-1.565L0 18z"/>
        <path fill="#338AF3" d="M33.81 9.39C30.758 3.796 24.823 0 18 0S5.242 3.796 2.19 9.39C.749 12.03-.004 14.992 0 18h36c.004-3.008-.748-5.969-2.189-8.609l-.001-.001z"/>
        <path fill="#496E2D" d="M18 36c6.823 0 12.758-3.796 15.81-9.39H2.19C5.242 32.204 11.177 36 18 36z"/>
        <path fill="#FFDA44" d="M20.348 10.534L22.546 11.568 21.376 13.698 23.763 13.241 24.065 15.651 25.728 13.877 27.391 15.651 27.693 13.241 30.08 13.697 28.91 11.567 31.108 10.533 28.91 9.5 30.08 7.37 27.693 7.827 27.39 5.417 25.728 7.2 24.065 5.426 23.763 7.836 21.376 7.379 22.546 9.509z"/>
    </g>
</svg>
