<svg xmlns="http://www.w3.org/2000/svg" width="36" height="36" viewBox="0 0 36 36">
    <g fill="none">
        <path fill="#F0F0F0" d="M1.786 10.174C.606 12.614-.004 15.29 0 18c-.004 2.71.607 5.386 1.786 7.826L18 27.39l16.214-1.565C35.393 23.385 36.004 20.71 36 18c.004-2.71-.607-5.386-1.786-7.826L18 8.61 1.786 10.174z"/>
        <path fill="#3D3D3D" d="M1.787 25.826C4.698 31.847 10.864 36 18 36c7.136 0 13.302-4.153 16.213-10.174H1.787z"/>
        <path fill="#D80027" d="M1.787 10.174h32.427C31.302 4.153 25.136 0 18 0 10.864 0 4.698 4.153 1.787 10.174z"/>
        <path fill="#496E2D" d="M5.272 5.272c-7.03 7.03-7.03 18.426 0 25.456L18 18 5.272 5.272z"/>
    </g>
</svg>
