<svg xmlns="http://www.w3.org/2000/svg" width="36" height="36" viewBox="0 0 36 36">
    <g fill="none">
        <circle cx="18" cy="18" r="18" fill="#FFDA44"/>
        <path fill="#A2001D" d="M36 18c0-6.178-3.113-11.628-7.855-14.87h-20.3C3.113 6.372 0 11.822 0 18c0 6.178 3.113 11.628 7.855 14.87h20.3C32.887 29.628 36 24.178 36 18z"/>
        <path fill="#FFDA44" d="M14.087 13.304h7.826v-3.13l-1.565.783L18 8.6l-2.348 2.348-1.565-.783v3.139zM25.043 18H21.13c.153-.265.243-.572.243-.9 0-.998-.8-1.806-1.806-1.806-.7 0-1.288.386-1.592.954-.305-.567-.903-.954-1.592-.954-.997.002-1.804.81-1.806 1.806 0 .33.1.636.243.9h-3.864c0 1.197 1.043 2.167 2.24 2.167h-.072c0 .958.63 1.802 1.548 2.077l-1.76 1.76 1.66 1.66 2.355-2.355c.093.034.189.06.286.08L15.8 26.6c1.416.577 3.001.577 4.417 0l-1.423-3.213c.1-.018.194-.046.286-.08l2.355 2.355 1.66-1.66-1.76-1.76c.918-.275 1.547-1.119 1.548-2.077H22.8c1.197 0 2.24-.97 2.24-2.167l.003.002z"/>
        <path fill="#6DA544" d="M18 19.174L15.457 20.348 15.457 22.696 18 24.26 20.543 22.695 20.543 20.347z"/>
        <path fill="#0052B4" d="M15.457 18L20.544 18 20.544 21.13 15.457 21.13z"/>
    </g>
</svg>
