<svg xmlns="http://www.w3.org/2000/svg" width="36" height="36" viewBox="0 0 36 36">
    <g fill="none">
        <path fill="#3D3D3D" d="M29.9 29.9c-6.841 6.84-17.932 6.84-24.772 0-6.841-6.841-6.841-17.932 0-24.772 6.84-6.84 16.861-5.76 23.691 1.08 6.83 6.84 7.92 16.851 1.07 23.691h.01z"/>
        <path fill="#A2001D" d="M5.128 5.128c6.84-6.841 17.93-6.841 24.771 0 6.841 6.84 6.841 17.93 0 24.771"/>
        <path fill="#F0F0F0" d="M13.388 23.604l.292.876h.915l-.74.535.292.876-.74-.535-.739.535.292-.876-.74-.535h.915l.253-.876zm-2.335-8.367l.486 1.46h1.528l-1.236.894.487 1.46-1.236-.895-1.236.895.487-1.46-1.236-.895h1.528l.428-1.46zm0 10.654l.486 1.46h1.528l-1.236.894.487 1.46-1.236-.895-1.236.895.487-1.46-1.236-.895h1.528l.428-1.46zm4.476-6.84l.486 1.46h1.499l-1.236.894.486 1.46-1.235-.895-1.236.895.486-1.46-1.235-.895h1.527l.458-1.46zm-8.952 0l.487 1.46h1.498l-1.236.894.487 1.46-1.236-.895-1.235.895.496-1.46-1.236-.895H6.13l.447-1.46z"/>
        <path fill="#FFDA44" d="M29.316 12.97c-.779-.779-1.8-1.246-2.89-1.324l3.27-2.549c-1.305-1.313-3.037-1.897-4.749-1.76-.195-.73-.584-1.431-1.168-2.005L22.476 7.91c-.098-.155-.195-.292-.321-.428-.74-.74-1.946-.74-2.696 0-.749.74-.739 1.946 0 2.695.127.127.273.234.429.321l-2.589 1.294c.584.584 1.265.973 2.005 1.168-.127 1.703.467 3.454 1.751 4.768l2.86-3.678c.215-.214.487-.331.799-.331.31 0 .583.117.807.33.224.215.33.507.33.808 0 .302-.116.584-.33.808l1.07 1.07c.506-.506.779-1.167.779-1.887 0-.584-.195-1.139-.526-1.596.516.137.986.41 1.362.788 1.188 1.187 1.188 3.114 0 4.31l1.07 1.07c.876-.875 1.343-2.014 1.343-3.23 0-1.216-.486-2.364-1.342-3.23l.039.01z"/>
    </g>
</svg>
