<svg xmlns="http://www.w3.org/2000/svg" width="36" height="36" viewBox="0 0 36 36">
    <g fill="none">
        <circle cx="18" cy="18" r="18" fill="#FFDA44"/>
        <g fill="#D80027">
            <path d="M20.738 35.793c2.928-.447 5.622-1.6 7.907-3.278L18 18l2.737 17.793h.001zM15.263.207c-2.927.447-5.622 1.6-7.907 3.278L18 18 15.263.207zM7.356 32.516c2.285 1.678 4.98 2.83 7.907 3.278L18 18 7.356 32.516zM3.485 7.356C1.807 9.64.654 12.335.207 15.263L18 18 3.485 7.356zM.207 20.738c.447 2.928 1.6 5.622 3.278 7.907L18 18 .207 20.738zM35.793 15.263c-.447-2.927-1.6-5.622-3.278-7.907L18 18l17.793-2.737zM28.645 3.485C26.36 1.807 23.665.654 20.738.207L18 18 28.645 3.485zM32.516 28.645c1.678-2.285 2.83-4.98 3.278-7.907L18 18l14.515 10.645h.001z"/>
            <circle cx="18" cy="18" r="6.261"/>
        </g>
        <circle cx="18" cy="18" r="4.696" fill="#FFDA44"/>
    </g>
</svg>
