<svg xmlns="http://www.w3.org/2000/svg" width="36" height="36" viewBox="0 0 36 36">
    <g fill="none">
        <circle cx="18" cy="18" r="18" fill="#F0F0F0"/>
        <path fill="#0052B4" d="M24.778 14.087H20.26L18 10.174l-2.26 3.913h-4.52L13.482 18l-2.26 3.913h4.52L18 25.826l2.26-3.913h4.518L22.52 18l2.26-3.913h-.002zM20.776 18l-1.388 2.404h-2.776L15.225 18l1.388-2.404h2.776L20.776 18zM18 13.192l.517.895h-1.033l.516-.895zm-4.163 2.404h1.033l-.517.895-.517-.895h.001zm0 4.808l.517-.895.517.895H13.837zM18 22.808l-.516-.895h1.033l-.517.895zm4.163-2.404H21.13l.517-.895.516.895zm-1.033-4.808h1.033l-.517.895-.517-.895h.001zm8.075-11.683h-22.4c-1.647 1.312-3.053 2.9-4.153 4.696H33.36c-1.1-1.795-2.506-3.384-4.153-4.696h-.002zM6.796 32.087h22.4c1.647-1.312 3.053-2.9 4.153-4.696H2.642c1.1 1.795 2.506 3.384 4.153 4.696h.001z"/>
    </g>
</svg>
