<svg xmlns="http://www.w3.org/2000/svg" width="36" height="36" viewBox="0 0 36 36">
    <g fill="none">
        <circle cx="18" cy="18" r="18" fill="#FFDA44"/>
        <path fill="#D80027" d="M18 0C13.593 0 9.557 1.585 6.428 4.214L25.826 18 6.428 31.786C9.557 34.415 13.593 36 18 36c9.94 0 18-8.06 18-18S27.94 0 18 0z"/>
        <path fill="#3D3D3D" d="M5.272 5.272c-7.03 7.03-7.03 18.426 0 25.456L18 18 5.272 5.272z"/>
        <path fill="#F0F0F0" d="M4.99 13.877L7.73 16.47 11.042 14.666 9.422 18.073 12.162 20.666 8.422 20.179 6.802 23.586 6.11 19.878 2.37 19.391 5.682 17.587z"/>
    </g>
</svg>
