<svg xmlns="http://www.w3.org/2000/svg" width="36" height="36" viewBox="0 0 36 36">
    <g fill="none">
        <circle cx="18" cy="18" r="18" fill="#F0F0F0"/>
        <path fill="#D80027" d="M0 18C0 8.06 8.06 0 18 0s18 8.06 18 18"/>
        <path fill="#F0F0F0" d="M10.956 9.4c0-2.573 1.791-4.799 4.304-5.351-.386-.084-.78-.127-1.174-.127-3.021.001-5.471 2.447-5.478 5.468.001 3.025 2.453 5.477 5.478 5.478.403 0 .796-.045 1.174-.127-2.513-.552-4.303-2.778-4.304-5.351v.01zM18 4.304l.4 1.196h1.257l-1.017.74.4 1.196-1.02-.74-1.017.74.4-1.196-1.017-.74h1.257L18 4.304zm-3.05 2.348l.388 1.196h1.257l-1.017.74.4 1.196-1.017-.74-1.017.74.4-1.196-1.017-.74h1.257l.366-1.196zm6.1 0l.4 1.196h1.257l-1.017.74.4 1.196-1.017-.74-1.017.74.4-1.196-1.017-.74h1.257l.354-1.196zm-1.174 3.522l.4 1.196h1.257l-1.017.74.4 1.196-1.017-.74-1.017.74.4-1.196-1.017-.74h1.257l.354-1.196zm-3.752 0l.388 1.196h1.257l-1.017.74.4 1.196-1.017-.74-1.017.74.4-1.196-1.017-.74h1.257l.366-1.196z"/>
    </g>
</svg>
