<svg xmlns="http://www.w3.org/2000/svg" width="36" height="36" viewBox="0 0 36 36">
    <g fill="none">
        <path fill="#D80027" d="M0 18c-.004 3.008.748 5.969 2.189 8.609L18 28.174l15.81-1.565c1.441-2.64 2.194-5.601 2.19-8.609.004-3.008-.748-5.969-2.189-8.609L18 7.826 2.19 9.39C.749 12.03-.004 14.992 0 18z"/>
        <path fill="#0052B4" d="M2.2 9.4h31.623C30.76 3.796 24.823 0 18 0S5.242 3.796 2.2 9.4zM18 36c6.823 0 12.758-3.796 15.8-9.4H2.2C5.242 32.204 11.178 36 18 36z"/>
        <path fill="#F0F0F0" d="M24.26 21.522L24.26 19.174 22.695 19.174 22.695 16.044 21.13 14.479 19.565 16.044 19.565 12.914 18 11.348 16.435 12.913 16.435 16.043 14.87 14.478 13.305 16.043 13.305 19.173 11.74 19.173 11.74 21.521 10.175 21.521 10.175 23.869 25.827 23.869 25.827 21.521z"/>
    </g>
</svg>
