<svg xmlns="http://www.w3.org/2000/svg" width="36" height="36" viewBox="0 0 36 36">
    <g fill="none">
        <circle cx="18" cy="18" r="18" fill="#496E2D"/>
        <path fill="#FFDA44" d="M18 20.795c-2.997 0-5.5-2.106-6.115-4.92-.097.44-.146.89-.146 1.342 0 2.237 1.193 4.304 3.13 5.422 1.938 1.119 4.324 1.119 6.262 0 1.937-1.118 3.13-3.185 3.13-5.422 0-.46-.05-.9-.146-1.342-.614 2.813-3.118 4.92-6.115 4.92zm0-8.273l.583 1.794h1.886l-1.526 1.108.583 1.794L18 16.1l-1.526 1.1.583-1.794-1.526-1.108h1.886L18 12.522z"/>
    </g>
</svg>
