<svg xmlns="http://www.w3.org/2000/svg" width="36" height="36" viewBox="0 0 36 36">
    <g fill="none">
        <g fill="#F0F0F0">
            <circle cx="18" cy="18" r="18"/>
            <path d="M0 18c0 6.823 3.796 12.758 9.39 15.81V2.19C3.796 5.242 0 11.177 0 18z"/>
        </g>
        <path fill="#496E2D" d="M18 0c-3.008-.004-5.969.748-8.609 2.189V33.81c2.64 1.441 5.601 2.194 8.609 2.19 9.94 0 18-8.06 18-18S27.94 0 18 0z"/>
        <path fill="#F0F0F0" d="M25.696 20.977c-2.278 1.643-5.456 1.131-7.102-1.144-1.643-2.278-1.131-5.456 1.144-7.102.684-.497 1.481-.815 2.32-.922-1.618-.245-3.268.156-4.593 1.116-2.803 2.025-3.433 5.94-1.408 8.742.972 1.346 2.44 2.25 4.08 2.515 1.639.264 3.316-.134 4.662-1.107 1.328-.957 2.226-2.397 2.502-4.01-.367.761-.918 1.419-1.603 1.913l-.002-.001zm-.098-9.237l1.283 1.382 1.7-.793-.918 1.647 1.283 1.383-1.85-.365-.918 1.647-.225-1.872-1.85-.365 1.7-.793-.205-1.871z"/>
    </g>
</svg>
