<svg xmlns="http://www.w3.org/2000/svg" width="36" height="36" viewBox="0 0 36 36">
    <g fill="none">
        <circle cx="18" cy="18" r="18" fill="#F0F0F0"/>
        <g fill="#338AF3">
            <path d="M18 13.304h17.38c-.446-1.654-1.127-3.235-2.022-4.696H18v4.696zM6.795 32.087h22.4c1.647-1.312 3.053-2.9 4.153-4.696H2.642c1.1 1.795 2.506 3.384 4.153 4.696zM6.26 4.355C4.84 5.577 3.62 7.012 2.641 8.609h3.62V4.355H6.26zM18 18v-4.696h-7.043V18H6.26v-4.696H.62C.208 14.835 0 16.414 0 18c0 1.586.208 3.165.62 4.696h34.76c.403-1.497.62-3.07.62-4.696H18zm0-18c-2.5 0-4.88.5-7.043 1.43V8.6H18V3.913h11.205C26.13 1.464 22.236 0 18 0z"/>
        </g>
    </g>
</svg>
