<svg xmlns="http://www.w3.org/2000/svg" width="36" height="36" viewBox="0 0 36 36">
    <g fill="none">
        <circle cx="18" cy="18" r="18" fill="#F0F0F0"/>
        <g fill="#D80027">
            <path d="M.009 9.391h31.623C28.579 3.796 22.643 0 15.82 0 8.998 0 3.062 3.796.01 9.391zM15.82 36c6.823 0 12.759-3.796 15.812-9.391H.009C3.062 32.204 8.998 36 15.82 36z" transform="translate(2.18)"/>
        </g>
        <path fill="#FFDA44" d="M24.26 18c0 3.458-2.802 5.478-6.26 5.478-3.458 0-6.26-2.02-6.26-5.478 0-3.458 2.802-6.26 6.26-6.26 3.458 0 6.26 2.802 6.26 6.26z"/>
        <path fill="#0052B4" d="M24.26 18c0 3.458-2.802 6.26-6.26 6.26-3.458 0-6.26-2.802-6.26-6.26"/>
        <g fill="#D80027">
            <path d="M.024 2.372H1.589V5.502H.024zM6.285 2.372H7.85V5.502H6.285zM3.155.024H4.72V5.502H3.155z" transform="translate(14.063 14.063)"/>
        </g>
    </g>
</svg>
