<svg xmlns="http://www.w3.org/2000/svg" width="36" height="36" viewBox="0 0 36 36">
    <g fill="none">
        <path fill="#003F87" d="M36 18c0-6.178-3.113-11.628-7.855-14.87L18 2.348 7.855 3.13C3.113 6.372 0 11.822 0 18c0 6.178 3.113 11.628 7.855 14.87L18 33.652l10.145-.783C32.887 29.628 36 24.178 36 18z"/>
        <path fill="#A2001D" d="M28.145 3.13C25.257 1.156 21.764 0 18 0c-3.62-.005-7.157 1.086-10.145 3.13h20.3-.01zm-20.3 29.74C10.835 34.916 14.376 36.007 18 36c3.62.005 7.157-1.086 10.145-3.13h-20.3z"/>
        <circle cx="18" cy="18" r="8.609" fill="#F0F0F0"/>
        <circle cx="18" cy="18" r="7.043" fill="#6DA544"/>
        <circle cx="18" cy="18" r="4.696" fill="#F0F0F0"/>
        <path fill="#0052B4" d="M18 16.826L15.457 18 15.457 19.957 18 21.522 20.543 19.957 20.543 18z"/>
        <path fill="#FFDA44" d="M15.457 15.652L20.544 15.652 20.544 18 15.457 18z"/>
    </g>
</svg>
