<svg xmlns="http://www.w3.org/2000/svg" width="36" height="36" viewBox="0 0 36 36">
    <g fill="none">
        <path fill="#D80027" d="M36 18c0 9.94-8.06 18-18 18S0 27.94 0 18L18 0c9.94 0 18 8.06 18 18z"/>
        <path fill="#0052B4" d="M18 18V0C8.06 0 0 8.06 0 18h18z"/>
        <path fill="#F0F0F0" d="M14.418 11.74l.3.897h.943l-.763.554.3.897-.763-.554-.763.554.3-.897-.763-.554h.943l.266-.897zM9.682 4.696l.486 1.495h1.572l-1.272.924.486 1.495-1.272-.924-1.27.924.486-1.495-1.27-.924h1.57l.484-1.495zm4.696 1.564l.486 1.495h1.572l-1.27.924.486 1.495-1.27-.924-1.27.924.486-1.495-1.27-.924h1.57l.48-1.495zm-3.712 6.262l.486 1.495h1.57l-1.27.924.486 1.495-1.27-.924-1.27.924.486-1.495-1.27-.924h1.572l.48-1.495zM6.552 8.6l.486 1.495H8.6l-1.272.924.486 1.495-1.27-.924-1.27.924.486-1.495-1.27-.924h1.57L6.552 8.6z"/>
    </g>
</svg>
