<svg xmlns="http://www.w3.org/2000/svg" width="36" height="36" viewBox="0 0 36 36">
    <g fill="none">
        <path fill="#0052B4" d="M0 18c0 1.233.124 2.437.36 3.6L18 22.696 35.64 21.6c.24-1.185.36-2.391.36-3.6 0-1.233-.124-2.437-.36-3.6L18 13.304.36 14.4C.124 15.563 0 16.767 0 18z"/>
        <path fill="#F0F0F0" d="M35.64 21.6H.36C2.028 29.816 9.292 36 18 36s15.972-6.184 17.64-14.4z"/>
        <path fill="#3D3D3D" d="M.36 14.4h35.28C33.972 6.184 26.708 0 18 0S2.028 6.184.36 14.4z"/>
        <path fill="#FFDA44" d="M25.826 14.4L10.174 14.4 13.372 12.896 11.67 9.8 15.142 10.464 15.582 6.956 18 9.535 20.42 6.955 20.86 10.463 24.33 9.8 22.627 12.897z"/>
        <g fill="#A2001D">
            <path d="M0 11c0 9.94 8.06 18 18 18L3.6.2C1.258 3.313-.006 7.104 0 11zM18 29c9.94 0 18-8.06 18-18 .006-3.896-1.258-7.688-3.6-10.801L18 29z" transform="translate(0 7)"/>
        </g>
    </g>
</svg>
