<svg xmlns="http://www.w3.org/2000/svg" width="36" height="36" viewBox="0 0 36 36">
    <g fill="none" fill-rule="evenodd">
        <path fill="#D80027" fill-rule="nonzero" d="M36 18c0 9.94-8.06 18-18 18S0 27.94 0 18c.783 0 18-2.348 18-2.348L36 18z"/>
        <path fill="#0052B4" fill-rule="nonzero" d="M0 18C0 8.06 8.06 0 18 0s18 8.06 18 18"/>
        <path fill="#FFDA44" fill-rule="nonzero" d="M13.304 12.522c-.001-1.296-1.052-2.347-2.348-2.348-.578 0-1.135.212-1.565.598V9.39h.783V7.826H9.39v-.783H7.826v.783h-.783V9.39h.783v1.38c-.43-.386-.987-.599-1.565-.598-1.296.001-2.347 1.052-2.348 2.348 0 .668.284 1.305.783 1.75v1.38h7.826v-1.38c.499-.445.784-1.082.783-1.75l-.001.002z"/>
        <path stroke="#000" d="M13.39 12.478c-.001-1.296-1.052-2.347-2.348-2.348-.578 0-1.135.212-1.565.598v-1.38h.783V7.783h-.783V7H7.913v.783H7.13v1.565h.783v1.38c-.43-.386-.987-.599-1.565-.598-1.296.001-2.347 1.052-2.348 2.348 0 .668.284 1.305.783 1.75v1.38h7.826v-1.38c.499-.445.784-1.082.783-1.75h-.002z"/>
    </g>
</svg>
