<svg xmlns="http://www.w3.org/2000/svg" width="36" height="36" viewBox="0 0 36 36">
    <g fill="none">
        <path fill="#FFDA44" d="M18 0c-1.586 0-3.165.208-4.696.62L11.74 18l1.565 17.38c1.53.412 3.11.62 4.695.62 9.94 0 18-8.06 18-18S27.94 0 18 0z"/>
        <path fill="#6DA544" d="M11.74 18l1.565 17.38c1.53.412 3.11.62 4.695.62 9.94 0 18-8.06 18-18H11.74z"/>
        <g fill="#D80027">
            <path d="M0 18c0 6.823 3.796 12.76 9.39 15.81V2.19C3.796 5.242 0 11.178 0 18z"/>
            <path d="M0 18c0 8.316 5.64 15.314 13.304 17.38V.62C5.64 2.686 0 9.684 0 18z"/>
        </g>
        <path fill="#3D3D3D" d="M6.802 13.304L7.967 16.891 11.739 16.891 8.689 19.108 9.854 22.695 6.804 20.478 3.754 22.695 4.92 19.108 1.87 16.891 5.642 16.891z"/>
    </g>
</svg>
