<svg xmlns="http://www.w3.org/2000/svg" width="36" height="36" viewBox="0 0 36 36">
    <g fill="none">
        <path fill="#28AE66" d="M18 0c-1.34 0-2.65.15-3.9.43L13.3 18l.78 17.57c1.28.285 2.588.43 3.9.43 9.941 0 18-8.059 18-18s-8.059-18-18-18H18zM4.7 5.88C1.67 9.188-.007 13.514 0 18c-.007 4.486 1.67 8.812 4.7 12.12L5.48 18 4.7 5.88z"/>
        <g fill="#F0F0F0">
            <path d="M11.33 7.58c.861-2.421-.069-5.116-2.24-6.49.392.052.778.146 1.15.28 2.842 1.03 4.32 4.16 3.31 7.01-1.03 2.842-4.16 4.32-7.01 3.31-.371-.135-.726-.31-1.06-.52 2.55.322 4.983-1.164 5.86-3.58l-.01-.01zM6.42.4L5.65 1.4 4.47.98 5.17 2.02 4.4 3.02 5.6 2.67 6.3 3.71 6.34 2.45 7.54 2.1 6.36 1.68z" transform="translate(15 6)"/>
            <path d="M2.42 0.4L1.65 1.4 0.47 0.98 1.17 2.02 0.4 3.02 1.6 2.67 2.3 3.71 2.34 2.45 3.54 2.1 2.36 1.68z" transform="translate(15 6) translate(6.08 3.25)"/>
            <path d="M2.42 0.4L1.65 1.4 0.47 0.98 1.17 2.02 0.4 3.02 1.6 2.67 2.3 3.71 2.34 2.45 3.54 2.1 2.36 1.68z" transform="translate(15 6) translate(.33 1.2)"/>
            <path d="M2.42 0.4L1.65 1.4 0.47 0.98 1.17 2.02 0.4 3.02 1.6 2.67 2.3 3.71 2.34 2.45 3.54 2.1 2.36 1.68z" transform="translate(15 6) translate(.25 4.9)"/>
            <path d="M2.42 0.4L1.65 1.4 0.47 0.98 1.17 2.02 0.4 3.02 1.6 2.67 2.3 3.71 2.34 2.45 3.54 2.1 2.36 1.68z" transform="translate(15 6) translate(3.78 6.17)"/>
        </g>
        <path fill="#D80027" d="M4.7 5.88v24.25c2.494 2.74 5.774 4.643 9.39 5.45V.43c-3.616.807-6.896 2.71-9.39 5.45z"/>
        <path fill="#F0F0F0" d="M8.28 9.48L6.7 8.3 6.7 6.65 8.27 5.48 10.49 5.48 12.06 6.65 12.06 8.3 10.5 9.48z"/>
        <g fill="#FF9811">
            <path d="M3.4.47L2.3.47.7 1.65.7 2.45 3.4 2.45zM3.4 4.47L4.5 4.47 6.07 3.3 6.07 2.46 3.4 2.46z" transform="translate(6 5)"/>
        </g>
        <path fill="#F0F0F0" d="M8.28 30.52L6.7 29.35 6.7 27.7 8.27 26.53 10.49 26.53 12.06 27.7 12.06 29.36 10.49 30.53z"/>
        <path fill="#FF9811" d="M9.4 26.52H8.3L6.7 27.7v.8h2.7v-1.98zm0 4h1.1l1.57-1.17v-.84H9.4v2.01z"/>
        <g fill="#496E2D">
            <path d="M2.28 10L.7 8.83.7 7.17 2.28 6 4.5 6 6.07 7.17 6.07 8.83 4.5 10zM6.13 12.58L5.45 12.58 5.45 11.9 4.25 11.9 3.4 11.05 2.55 11.9 1.35 11.9 1.35 12.58.67 12.58.67 13.95 1.35 13.95 1.35 14.63 2.55 14.63 3.4 15.48 4.25 14.63 5.45 14.63 5.45 13.95 6.13 13.95z" transform="translate(6 10)"/>
            <path d="M6.13 1.58L5.45 1.58 5.45 0.9 4.25 0.9 3.4 0.05 2.55 0.9 1.35 0.9 1.35 1.58 0.67 1.58 0.67 2.95 1.35 2.95 1.35 3.63 2.55 3.63 3.4 4.48 4.25 3.63 5.45 3.63 5.45 2.95 6.13 2.95z" transform="translate(6 10) translate(0 .48)"/>
        </g>
        <g fill="#D80027" transform="translate(8 11)">
            <path d="M0.6 6.2L2.17 6.2 2.17 7.77 0.6 7.77z"/>
            <circle cx="1.39" cy="1.74" r="1"/>
            <circle cx="1.39" cy="12.26" r="1"/>
        </g>
    </g>
</svg>
