<svg xmlns="http://www.w3.org/2000/svg" width="36" height="36" viewBox="0 0 36 36">
    <g fill="none">
        <path fill="#F0F0F0" d="M0 18c0 2.805.642 5.46 1.786 7.826L18 26.61l16.214-.783c1.18-2.44 1.79-5.117 1.786-7.827 0-2.805-.642-5.46-1.786-7.826L18 9.39l-16.214.783C.606 12.613-.004 15.29 0 18z"/>
        <path fill="#6DA544" d="M18 36c7.136 0 13.302-4.153 16.214-10.174H1.786C4.698 31.847 10.864 36 18 36z"/>
        <path fill="#0052B4" d="M18 0C10.864 0 4.698 4.153 1.786 10.174h32.428C31.302 4.153 25.136 0 18 0z"/>
        <path fill="#3D3D3D" d="M19.174 17.61v-4.304h-2.348v4.304L14 20.444c.825 1.35 2.312 2.25 4 2.25 1.688 0 3.185-.9 4-2.25l-2.836-2.836.01.002z"/>
    </g>
</svg>
