<svg xmlns="http://www.w3.org/2000/svg" width="36" height="36" viewBox="0 0 36 36">
    <g fill="none">
        <circle cx="18" cy="18" r="18" fill="#F0F0F0"/>
        <path fill="#D80027" d="M.62 22.696C1.66 26.56 3.957 29.9 7.043 32.28v-9.585H.62v.001zm15.815 13.236L18 36c8.316 0 15.314-5.64 17.38-13.304H16.435v13.236zM35.38 13.304C33.315 5.64 26.317 0 18 0c-.522 0-1.045.023-1.565.068v13.236H35.38zM7.044 3.72C3.91 6.124 1.652 9.491.62 13.304h6.423V3.72h.001z"/>
        <path fill="#0052B4" d="M35.848 15.652h-21.76V.428c-1.663.37-3.24.967-4.696 1.76v13.464H.152C.052 16.42 0 17.204 0 18c0 .796.052 1.58.152 2.348h9.24V33.81c1.455.794 3.032 1.392 4.696 1.76V20.348h21.76c.203-1.559.203-3.137 0-4.696z"/>
    </g>
</svg>
