<svg xmlns="http://www.w3.org/2000/svg" width="36" height="36" viewBox="0 0 36 36">
    <g fill="none">
        <circle cx="18" cy="18" r="18" fill="#F0F0F0"/>
        <path fill="#0052B4" d="M0 18c0 9.94 8.06 18 18 18V18H0z"/>
        <path fill="#D80027" d="M18 0c9.94 0 18 8.06 18 18H18V0z"/>
        <path fill="#0052B4" d="M10.715 6.26L11.881 9.847 15.653 9.847 12.603 12.064 13.768 15.651 10.718 13.434 7.668 15.651 8.834 12.064 5.784 9.847 9.55 9.847z"/>
        <path fill="#D80027" d="M25.285 20.348L26.451 23.935 30.223 23.935 27.173 26.152 28.339 29.739 25.289 27.522 22.239 29.739 23.404 26.152 20.354 23.935 24.126 23.935z"/>
    </g>
</svg>
