<svg xmlns="http://www.w3.org/2000/svg" width="36" height="36" viewBox="0 0 36 36">
    <g fill="none">
        <path fill="#338AF3" d="M36 18c0 9.941-8.059 18-18 18S0 27.941 0 18L18 0c9.941 0 18 8.059 18 18z"/>
        <path fill="#0052B4" d="M8 18h5.812l-5.046-6.01-.747 2.253L8 18zm9-3.182L11.006 9H17v5.818z"/>
        <path fill="#F0F0F0" d="M18.979 9.912V0C8.497 0 0 8.507 0 19h9.911v-5.594L15.5 19h3.448l.053-.053v-3.451L13.412 9.9h5.567v.01z"/>
        <path fill="#D80027" d="M9.043 3.018C6.523 4.452 4.436 6.538 3 9.054V17h4.202V7.196H17V3H9.043v.018zM17 14.953L11.047 9H9l8 8v-2.047z"/>
        <g fill="#FFDA44">
            <path d="M1.742 19.8L2.164 21 3.494 21 2.417 21.74 2.839 22.94 1.763 22.2.686 22.94 1.108 21.74 0 21 1.33 21zM12.308 12L12.73 13.2 14.06 13.2 12.983 13.94 13.406 15.14 12.329 14.4 11.252 15.14 11.674 13.94 10.598 13.2 11.928 13.2z" transform="translate(17 10)"/>
            <path d="M1.752 0L2.174 1.2 3.504 1.2 2.428 1.94 2.85 3.14 1.773 2.4 0.697 3.14 1.119 1.94 0.042 1.2 1.372 1.2z" transform="translate(17 10) translate(13.205 .25)"/>
            <path d="M1.752 0L2.174 1.2 3.504 1.2 2.428 1.94 2.85 3.14 1.773 2.4 0.697 3.14 1.119 1.94 0.042 1.2 1.372 1.2z" transform="translate(17 10) translate(13.87 8.86)"/>
            <path d="M3.642 17L4.824 17.57 5.774 16.67 5.563 17.91 6.745 18.48 5.436 18.68 5.225 19.92 4.623 18.8 3.314 19 4.264 18.1z" transform="translate(17 10)"/>
            <path d="M0.475 1L1.657 1.57 2.607 0.67 2.396 1.91 3.578 2.48 2.269 2.68 2.058 3.92 1.457 2.8 0.148 3 1.098 2.1z" transform="translate(17 10) translate(3.167 11.3)"/>
            <path d="M0.475 1L1.657 1.57 2.607 0.67 2.396 1.91 3.578 2.48 2.269 2.68 2.058 3.92 1.457 2.8 0.148 3 1.098 2.1z" transform="translate(17 10) translate(7.294 14.32)"/>
            <path d="M0.475 1L1.657 1.57 2.607 0.67 2.396 1.91 3.578 2.48 2.269 2.68 2.058 3.92 1.457 2.8 0.148 3 1.098 2.1z" transform="translate(17 10) translate(7.294 4.26)"/>
            <path d="M0.475 1L1.657 1.57 2.607 0.67 2.396 1.91 3.578 2.48 2.269 2.68 2.058 3.92 1.457 2.8 0.148 3 1.098 2.1z" transform="translate(17 10) translate(11.294 4.14)"/>
        </g>
    </g>
</svg>
