<svg xmlns="http://www.w3.org/2000/svg" width="36" height="36" viewBox="0 0 36 36">
    <g fill="none">
        <path fill="#D80027" d="M36 18c.002-2.137-.377-4.257-1.12-6.261L18 10.957l-16.88.783C.377 13.743-.002 15.863 0 18c-.002 2.137.377 4.257 1.12 6.261l16.88.783 16.88-.783c.743-2.004 1.122-4.124 1.12-6.261z"/>
        <path fill="#6DA544" d="M18 36c7.74 0 14.337-4.885 16.88-11.74H1.12C3.663 31.115 10.26 36 18 36z"/>
        <path fill="#338AF3" d="M1.12 11.74h33.76C32.337 4.885 25.74 0 18 0 10.26 0 3.663 4.885 1.12 11.74z"/>
        <path fill="#FFF" d="M18.4 23.087c-1.35.002-2.646-.534-3.602-1.488S13.305 19.35 13.304 18c.002-2.809 2.278-5.085 5.087-5.087.876 0 1.7.22 2.42.6-1.168-1.146-2.74-1.787-4.376-1.785-3.458 0-6.261 2.803-6.261 6.261s2.803 6.261 6.261 6.261c1.636.002 3.208-.64 4.376-1.785-.743.403-1.575.613-2.42.612l.009.01zm3.914-8.61l.674 1.895 1.816-.864-.864 1.816 1.895.674-1.895.674.864 1.816-1.816-.864-.674 1.895-.674-1.895-1.817.864.864-1.816L18.783 18l1.895-.674-.864-1.816 1.817.864.683-1.897z"/>
    </g>
</svg>
