<svg xmlns="http://www.w3.org/2000/svg" width="36" height="36" viewBox="0 0 36 36">
    <g fill="none">
        <path fill="#0052B4" d="M34.214 25.826C35.358 23.46 36 20.805 36 18c0-2.805-.642-5.46-1.786-7.826L18 8.61 1.786 10.174C.642 12.54 0 15.195 0 18c0 2.805.642 5.46 1.786 7.826L18 27.39l16.214-1.565v.001z"/>
        <path fill="#D80027" d="M18 36c7.136 0 13.302-4.153 16.214-10.174H1.786C4.698 31.847 10.864 36 18 36z"/>
        <path fill="#F0F0F0" d="M31.174 21.534l-.95.743.413 1.134-1-.675-.95.743.332-1.16-1-.675 1.206-.042.333-1.16.413 1.134 1.203-.042zm-2.434-4.217l-.64 1.023.776.924-1.17-.292-.64 1.023-.084-1.204-1.17-.292 1.12-.452-.084-1.204.775.924 1.117-.45zM25 14.187l-.25 1.18 1.045.603-1.2.126-.25 1.18-.5-1.102-1.2.126.897-.807-.5-1.102 1.045.603.913-.807zm-4.576-1.665l.168 1.195 1.188.2-1.084.53.168 1.195-.838-.868-1.085.53.567-1.065-.838-.868 1.188.2.566-1.049zm-4.87 0l.567 1.065 1.188-.2-.838.868.566 1.065-1.084-.53-.838.868.168-1.195-1.084-.53 1.188-.2.167-1.211zM11 14.187l.897.807 1.045-.603-.5 1.102.897.807-1.2-.126-.5 1.102-.25-1.18-1.2-.126 1.045-.603-.234-1.18zm-3.74 3.13l1.12.452.775-.924-.084 1.204 1.12.452-1.17.292-.084 1.203-.64-1.023-1.17.292.776-.924-.643-1.024zm-2.434 4.217l1.206.042.412-1.134.333 1.16 1.206.042-1 .675.332 1.16-.95-.743-1 .675.413-1.134-.952-.743z"/>
        <path fill="#FFDA44" d="M34.214 10.174C31.302 4.153 25.136 0 18 0 10.864 0 4.698 4.153 1.786 10.174h32.428z"/>
    </g>
</svg>
