<svg xmlns="http://www.w3.org/2000/svg" width="36" height="36" viewBox="0 0 36 36">
    <g fill="none">
        <path fill="#0052B4" d="M18 36c2.137.002 4.257-.377 6.261-1.12L25.043 18 24.26 1.12C22.257.377 20.137-.002 18 0c-2.137-.002-4.257.377-6.261 1.12L10.957 18l.783 16.88c2.003.743 4.123 1.122 6.26 1.12z"/>
        <path fill="#A2001D" d="M0 18c0 7.74 4.885 14.337 11.74 16.88V1.12C4.885 3.663 0 10.26 0 18zM24.26 1.12v33.76C31.115 32.337 36 25.74 36 18c0-7.74-4.885-14.337-11.74-16.88z"/>
        <g fill="#FFDA44" transform="translate(2 9)">
            <path d="M6.608 9h1.565v6.26H6.608V9zM.348 9h1.565v6.26H.347L.348 9z"/>
            <circle cx="4.261" cy="11.348" r="1.565"/>
            <circle cx="4.261" cy="5.87" r="1"/>
            <path d="M2.695 13.696h3.13v1.565h-3.13v-1.565zm0-6.26h3.13V9h-3.13V7.436zM4.26.392l.554 1.706h1.794l-1.45 1.054.554 1.706-1.45-1.054-1.45 1.054.554-1.706-1.45-1.054H3.7L4.26.392z"/>
        </g>
    </g>
</svg>
