<svg xmlns="http://www.w3.org/2000/svg" width="36" height="36" viewBox="0 0 36 36">
    <g fill="none">
        <circle cx="18" cy="18" r="18" fill="#F0F0F0"/>
        <path fill="#6DA544" d="M28.174 15.652h-2.348c-.002 4.321-3.505 7.824-7.826 7.826-4.321-.002-7.824-3.505-7.826-7.826H7.826c0 4.55 3.02 8.546 7.396 9.79-.468.89-.397 2.008.272 2.843l2.558-2.05 2.558 2.05c.675-.843.742-1.976.258-2.87 4.222-1.24 7.305-5.14 7.305-9.763h.001z"/>
        <path fill="#FFDA44" d="M11.74 14.87s0 3.913 3.913 3.913l.783.783H18s.783-2.348 2.348-2.348c0 0 0-1.565 1.565-1.565h2.348s-.783-3.13 3.13-5.478l-1.565-.783s-5.478 3.913-9.39 3.13v1.565H14.87l-.783-.783-2.348 1.565.001.001z"/>
    </g>
</svg>
