<svg xmlns="http://www.w3.org/2000/svg" width="36" height="36" viewBox="0 0 36 36">
    <g fill="none">
        <circle cx="18" cy="18" r="18" fill="#F0F0F0"/>
        <path fill="#0052B4" d="M35.884 19.956L16.154.093c-.88.09-1.752.244-2.609.462C5.758 2.538 0 18 0 18s25.2 16.863 28.075 14.918c.574-.389 1.126-.81 1.652-1.262l-11.7-11.7h17.866-.009z"/>
        <path fill="#D80027" d="M31.304 18L13.798.494C5.884 2.387 0 9.506 0 18c0 9.94 8.06 18 18 18 3.77 0 7.27-1.16 10.162-3.142L13.304 18h18z"/>
        <path fill="#F0F0F0" d="M17.12 26.578l-2.198-1.034 1.17-2.13-2.387.457-.302-2.412-1.663 1.774-1.663-1.774-.303 2.412-2.387-.457 1.17 2.13-2.198 1.034 2.198 1.034-1.17 2.13 2.387-.457.302 2.4 1.663-1.774 1.663 1.774.302-2.4 2.387.457-1.17-2.13 2.199-1.034zM15.652 9.983l-1.6-.752.85-1.548-1.736.332-.22-1.754-1.2 1.3-1.2-1.3-.22 1.754-1.736-.332.85 1.548-1.6.752 3.913.783 3.899-.783zm.783 0c0 2.593-2.102 4.696-4.696 4.696s-4.696-2.102-4.696-4.696"/>
    </g>
</svg>
