<svg xmlns="http://www.w3.org/2000/svg" width="36" height="36" viewBox="0 0 36 36">
    <g fill="none">
        <circle cx="18" cy="18" r="18" fill="#D80027"/>
        <g fill="#F0F0F0">
            <path d="M10.507 4.899c-.41 1.701-1.136 1.377-1.493 2.86-2.1-.505-3.395-2.618-2.89-4.719C6.63.939 8.742-.355 10.844.15c-.714 2.968.029 3.227-.337 4.749zM5.055 6.16c1.491.914.958 1.505 2.259 2.303-1.13 1.842-3.539 2.42-5.381 1.29C.09 8.623-.487 6.214.643 4.372c2.601 1.595 3.077.97 4.412 1.787zM4.569 11.735c1.33-1.137 1.728-.447 2.889-1.437 1.403 1.643 1.208 4.113-.436 5.516-1.644 1.403-4.114 1.208-5.516-.436 2.32-1.981 1.872-2.627 3.063-3.643zM9.721 13.92c-.67-1.618.11-1.782-.474-3.192 1.997-.827 4.285.122 5.112 2.119.826 1.997-.123 4.285-2.12 5.112-1.166-2.82-1.92-2.593-2.518-4.04zM13.391 9.694c-1.745.137-1.66-.654-3.182-.535-.17-2.154 1.44-4.038 3.595-4.207 2.154-.169 4.038 1.44 4.207 3.595-3.043.239-3.06 1.025-4.62 1.147z" transform="translate(9.352 8.719)"/>
        </g>
    </g>
</svg>
