<svg xmlns="http://www.w3.org/2000/svg" width="36" height="36" viewBox="0 0 36 36">
    <g fill="none">
        <circle cx="18" cy="18" r="17.997" fill="#F0F0F0"/>
        <path fill="#3D3D3D" d="M2.414 9c-.794 1.373-1.403 2.844-1.811 4.376L30.7 30.754c1.098-1.095 2.072-2.35 2.884-3.756L2.414 9z"/>
        <path fill="#FFDA44" d="M26.998 2.414c-7.2-4.158-16.08-2.772-21.7 2.83L35.396 22.62C37.44 14.954 34.2 6.57 26.998 2.414zM9 33.585c7.2 4.158 16.08 2.772 21.7-2.83L.603 13.377C-1.44 21.046 1.8 29.428 9 33.585z"/>
        <g fill="#D80027">
            <path d="M13.085 6.043c0 2.81-2.277 5.086-5.086 5.086S2.913 8.852 2.913 6.043c-.001-.845.209-1.676.611-2.419C2.378 4.792 1.737 6.364 1.739 8c0 3.457 2.803 6.26 6.26 6.26s6.26-2.803 6.26-6.26c.002-1.636-.64-3.208-1.785-4.376.4.72.61 1.544.61 2.42l.001-.001z" transform="translate(10 10)"/>
            <path d="M6.826 0.175L9.173 0.175 9.173 11.912 6.826 11.912z" transform="translate(10 10)"/>
            <path d="M11.912 2.522H4.087c0 .54.47.978 1 .978h-.033c.001.54.438.977.978.978.001.54.438.977.978.978h1.956c.54-.001.977-.438.978-.978.54-.001.977-.438.978-.978H10.9c.54 0 1-.438 1-.978h.012zm-9.4 10.173h10.955v2.347H2.522l-.01-2.347z" transform="translate(10 10)"/>
            <path d="M10.347 13.477h4.695v2.347h-4.695v-2.347zm-9.4 0h4.695v2.347H.947v-2.347z" transform="translate(10 10)"/>
        </g>
    </g>
</svg>
