<svg xmlns="http://www.w3.org/2000/svg" width="36" height="36" viewBox="0 0 36 36">
    <g fill="none">
        <path fill="#338AF3" d="M36 18c0 9.941-8.059 18-18 18S0 27.941 0 18c.78 0 18-2.35 18-2.35L36 18z"/>
        <path fill="#F0F0F0" d="M0 18C0 8.059 8.059 0 18 0s18 8.059 18 18"/>
        <path fill="#6DA544" d="M25.14 12.42L18 19.57l-7.14-7.14c-.92 1.37-1.46 3.02-1.46 4.8v2.35c0 3.77 2.44 6.98 5.82 8.14-.465.912-.351 2.012.29 2.81l2.56-2.05 2.56 2.05c.648-.808.754-1.924.27-2.84 3.33-1.2 5.73-4.38 5.73-8.1v-2.35c0-1.77-.54-3.43-1.46-4.8l-.03-.02z"/>
        <path fill="#FFDA44" d="M18 25.83c-3.45 0-6.26-2.8-6.26-6.26v-2.35c0-3.45 2.8-6.26 6.26-6.26s6.26 2.8 6.26 6.26v2.35c0 3.45-2.8 6.26-6.26 6.26z"/>
        <path fill="#338AF3" d="M21.9 19.57v-2.35c0-2.162-1.753-3.915-3.915-3.915s-3.915 1.753-3.915 3.915v2.35l3.9.78 3.9-.78h.03z"/>
        <path fill="#6DA544" d="M14.1 19.57c0 2.162 1.753 3.915 3.915 3.915s3.915-1.753 3.915-3.915H14.1z"/>
        <path fill="#FFDA44" d="M22.7 10.96c0-1.3-1.05-2.35-2.35-2.35-.6 0-1.15.23-1.57.6V7.83h.78V6.26h-.78v-.78h-1.57v.78h-.78v1.57h.78V9.2c-.42-.37-.96-.6-1.57-.6-1.3 0-2.35 1.05-2.35 2.35 0 .7.3 1.32.78 1.75v1.38h7.83V12.7c.48-.43.78-1.05.78-1.75l.02.01z"/>
    </g>
</svg>
