<?xml version="1.0" encoding="UTF-8" standalone="no"?>
<svg width="149px" height="42px" viewBox="0 0 149 42" version="1.1" xmlns="http://www.w3.org/2000/svg" xmlns:xlink="http://www.w3.org/1999/xlink">
    <!-- Generator: sketchtool 39.1 (31720) - http://www.bohemiancoding.com/sketch -->
    <title>BC5F260E-727F-4C74-9AFF-D00AD899313D</title>
    <desc>Created with sketchtool.</desc>
    <defs></defs>
    <g id="Page-1" stroke="none" stroke-width="1" fill="none" fill-rule="evenodd">
        <g id="900-states" transform="translate(-203.000000, -106.000000)">
            <g id="logo" transform="translate(203.000000, 106.000000)">
                <path d="M54.14,11.23 C54.14,6.67 56.82,3.71 61.62,3.71 C63.1153351,3.65133453 64.6040174,3.9388042 65.97,4.55 L65.33,6.22 C64.1538443,5.79350368 62.9110574,5.58016424 61.66,5.59 C58.73,5.57 56.42,7.16 56.42,11.03 C56.42,14.98 58.81,16.69 62.06,16.69 C63.2166509,16.7038136 64.368003,16.5316173 65.47,16.18 L65.99,17.9 C64.6210359,18.4189445 63.1633749,18.6635869 61.7,18.62 C56.72,18.62 54.14,15.67 54.14,11.23 L54.14,11.23 Z M67.29,12.23 C67.29,9.94 67.73,6.34 69.03,5.13 C70.17,4.07 73.21,3.35 76.75,2.7 L77.1,4.62 C73.95,5.15 71.16,5.64 70.48,6.3 C69.8794171,7.13777208 69.532302,8.13052131 69.48,9.16 C70.6609964,8.5136825 71.9837546,8.17010896 73.33,8.16 C76.04,8.16 77.76,9.49 77.76,12.88 C77.76,16.87 75.42,18.65 72.3,18.65 C69.2,18.65 67.29,16.73 67.29,12.23 L67.29,12.23 Z M75.59,12.96 C75.59,11.19 74.82,9.82 72.77,9.82 C71.591795,9.86227449 70.4417704,10.1918338 69.42,10.78 C69.4,11.14 69.38,11.68 69.38,12.04 C69.38,15.38 70.39,16.93 72.46,16.93 C74.91,16.93 75.59,14.89 75.59,12.96 L75.59,12.96 Z M79.54,13.09 C79.54,8.67 81.81,7.01 84.65,7.01 C87.81,7.01 89.14,9 89.14,12.64 L89.14,13.39 L81.71,13.39 C81.73,16.34 83.43,16.93 85.41,16.93 C86.4655409,16.9256226 87.5142492,16.7603921 88.52,16.44 L88.89,18.1 C87.6643643,18.5202616 86.3755798,18.7266025 85.08,18.71 C81.71,18.71 79.54,17.4 79.54,13.09 L79.54,13.09 Z M86.9,11.9 C86.9,9.92 86.18,8.63 84.52,8.63 C83.03,8.63 81.92,9.71 81.77,11.9 L86.9,11.9 L86.9,11.9 Z M91.41,7.36 L93.66,7.36 L93.66,8.18 C94.5058705,7.44332746 95.5883243,7.03518918 96.71,7.03 C99.38,7.03 101.2,8.88 101.2,12.6 C101.2,17.16 98.47,18.59 95.43,18.59 C94.8393395,18.6036026 94.2483835,18.5835702 93.66,18.53 L93.66,22.65 L91.41,22.65 L91.41,7.36 L91.41,7.36 Z M99.01,12.7 C99.01,10.67 98.29,8.85 96.11,8.85 C95.2305837,8.89399935 94.3814087,9.18514507 93.66,9.69 L93.66,16.77 C94.2297193,16.8870612 94.8085992,16.9539837 95.39,16.97 C97.98,16.97 99.01,15.19 99.01,12.7 L99.01,12.7 Z M103.07,12.23 C103.07,9.94 103.51,6.34 104.81,5.13 C105.95,4.07 108.99,3.35 112.53,2.7 L112.88,4.62 C109.73,5.15 106.94,5.64 106.26,6.3 C105.659417,7.13777208 105.312302,8.13052131 105.26,9.16 C106.440996,8.5136825 107.763755,8.17010896 109.11,8.16 C111.82,8.16 113.54,9.49 113.54,12.88 C113.54,16.87 111.2,18.65 108.08,18.65 C104.96,18.65 103.07,16.73 103.07,12.23 L103.07,12.23 Z M111.37,12.96 C111.37,11.19 110.6,9.82 108.55,9.82 C107.371795,9.86227449 106.22177,10.1918338 105.2,10.78 C105.18,11.14 105.16,11.68 105.16,12.04 C105.16,15.38 106.17,16.93 108.24,16.93 C110.69,16.93 111.37,14.89 111.37,12.96 L111.37,12.96 Z M114.93,15.46 C114.93,12.64 117.46,12.06 119.42,12.04 L121.88,12 L121.88,10.8 C121.88,9.26 121.1,8.85 119.44,8.85 C118.363623,8.84899071 117.294961,9.03161013 116.28,9.39 L115.82,7.77 C117.079593,7.25506989 118.429283,6.99669081 119.79,7.01 C122.5,7.01 123.99,7.95 123.99,10.22 L123.99,16.05 C124.012906,16.3294848 124.156375,16.5851429 124.382996,16.7503074 C124.609617,16.9154719 124.896925,16.9737702 125.17,16.91 L125,18.55 C124.85782,18.5736944 124.714111,18.5870627 124.57,18.59 C123.41,18.59 122.28,18.24 122.07,17.24 C121.051193,18.1214912 119.756886,18.6201177 118.41,18.65 C116.32,18.65 114.93,17.52 114.93,15.46 L114.93,15.46 Z M121.88,15.95 L121.88,13.37 L119.48,13.48 C117.93,13.52 117.04,14.17 117.04,15.32 C117.04,16.44 117.87,16.83 118.97,16.83 C120.001669,16.8048287 121.007263,16.5007313 121.88,15.95 L121.88,15.95 Z M127.02,7.36 L129.19,7.36 L129.19,12.02 L134.51,12.02 L134.51,7.36 L136.68,7.36 L136.68,18.56 L134.51,18.56 L134.51,13.72 L129.19,13.72 L129.19,18.56 L127.02,18.56 L127.02,7.36 L127.02,7.36 Z M139.35,7.36 L141.52,7.36 L141.52,18.56 L139.35,18.56 L139.35,7.36 L139.35,7.36 Z M144.81,16.54 L141.6,12.74 L146.1,7.36 L148.54,7.36 L143.94,12.58 L146.18,15.03 C146.898477,15.9641521 147.875621,16.6665829 148.99,17.05 L148.62,18.68 C147.085599,18.6004357 145.676374,17.8089025 144.81,16.54 L144.81,16.54 Z M44.34,20.1 C44.1771088,32.2252751 34.3013692,41.969235 22.175,41.969235 C10.0486308,41.969235 0.172891163,32.2252751 0.01,20.1 C0.01,19.61 0.03,19.12 0.06,18.64 L13.48,26.27 L41.9,10.11 C43.5080075,13.194147 44.3452009,16.6218362 44.34,20.1 L44.34,20.1 Z M13.48,20.71 L0.99,13.61 C0.738437143,14.3996103 0.538021832,15.2046118 0.39,16.02 L13.48,23.46 L40.68,8 C40.2338405,7.32956051 39.7497173,6.68517586 39.23,6.07 L13.48,20.71 Z M37.55,4.27 C36.9302521,3.68521342 36.2792995,3.13440742 35.6,2.62 L13.48,15.2 L2.92,9.19 C2.52035712,9.88262572 2.15979326,10.5970763 1.84,11.33 L13.48,17.95 L37.55,4.27 Z M13.48,12.58 L33.36,1.28 C32.5263605,0.795711113 31.6610718,0.368078096 30.77,0 L13.48,9.82 L5.78,5.45 C5.23116253,6.04595203 4.71379262,6.67013379 4.23,7.32 L13.48,12.58 Z" id="Shape" fill="#299D37"></path>
                <path d="M54.21,31.41 C54.21,26.85 57.02,23.98 61.67,23.98 C66.56,23.98 68.83,27.18 68.83,31.45 C68.83,35.94 66.19,38.93 61.33,38.93 C56.6,38.93 54.21,35.9 54.21,31.41 L54.21,31.41 Z M66.57,31.43 C66.57,28.21 64.96,25.77 61.54,25.77 C57.97,25.77 56.45,28.21 56.45,31.39 C56.45,34.48 57.91,37.13 61.4,37.13 C65.11,37.13 66.57,34.65 66.57,31.43 L66.57,31.43 Z M71.08,27.71 L73.16,27.71 L73.16,32.45 L78.3,32.45 L78.3,27.71 L80.48,27.71 L80.48,38.91 L78.3,38.91 L78.3,34.15 L73.16,34.15 L73.16,38.91 L71.08,38.91 L71.08,27.71 L71.08,27.71 Z M82.14,37.45 C83.0408941,37.1845753 83.8152624,36.602023 84.32,35.81 C84.94,34.66 85.34,31.57 85.46,27.71 L92.71,27.71 L92.71,38.91 L90.65,38.91 L90.65,29.39 L87.37,29.39 C87.06,33.29 86.67,35.67 85.92,37.04 C85.2213472,38.1742669 84.0914693,38.97565 82.79,39.26 L82.14,37.45 Z M94.78,35.89 C94.78,33.06 97.32,32.49 99.29,32.47 L101.76,32.43 L101.76,31.22 C101.76,29.68 100.97,29.27 99.31,29.27 C98.2280892,29.2708602 97.1537081,29.4499237 96.13,29.8 L95.68,28.18 C96.9424932,27.6630575 98.2958584,27.404626 99.66,27.42 C102.38,27.42 103.87,28.37 103.87,30.64 L103.87,36.49 C103.892906,36.7694848 104.036375,37.0251429 104.262996,37.1903074 C104.489617,37.3554719 104.776925,37.4137702 105.05,37.35 L104.88,38.99 C104.73782,39.0136944 104.594111,39.0270627 104.45,39.03 C103.29,39.03 102.15,38.68 101.94,37.68 C100.917168,38.5613297 99.6198195,39.0597662 98.27,39.09 C96.17,39.09 94.78,37.97 94.78,35.89 L94.78,35.89 Z M101.76,36.39 L101.76,33.8 L99.35,33.9 C97.79,33.95 96.9,34.6 96.9,35.75 C96.8969316,36.2386444 97.1102217,36.7036065 97.482594,37.0200265 C97.8549664,37.3364465 98.3482574,37.4718954 98.83,37.39 C99.8782031,37.3230897 100.889609,36.9778999 101.76,36.39 L101.76,36.39 Z M107.12,27.71 L109.17,27.71 L109.17,34.56 L109.11,36.06 L110.09,34.54 L114.92,27.71 L117.1,27.71 L117.1,38.91 L114.92,38.91 L114.92,32.1 L114.98,30.56 L114.01,32.12 L109.17,38.91 L107.12,38.91 L107.12,27.71 L107.12,27.71 Z M108.68,23.8 L109.61,22.78 C110.19492,23.5439117 111.097955,23.9972724 112.06,24.01 C113.027806,23.9980466 113.93727,23.5451556 114.53,22.78 L115.44,23.8 C114.71832,24.9745932 113.438583,25.6902985 112.06,25.6902985 C110.681417,25.6902985 109.40168,24.9745932 108.68,23.8 L108.68,23.8 Z M119.97,27.71 L122.15,27.71 L122.15,32.45 L127.48,32.45 L127.48,27.71 L129.66,27.71 L129.66,38.91 L127.48,38.91 L127.48,34.15 L122.15,34.15 L122.15,38.91 L119.97,38.91 L119.97,27.71 L119.97,27.71 Z" id="Shape" fill="#F59726"></path>
            </g>
        </g>
    </g>
</svg>