<svg xmlns="http://www.w3.org/2000/svg" width="32" height="32" viewBox="0 0 32 32">
    <g fill="none" fill-rule="evenodd">
        <circle cx="16" cy="16" r="15.5" fill="#FFF" stroke="#D3D3D3"/>
        <g transform="translate(7 9)">
            <rect width="18" height="14" fill="#FFF" stroke="#F59624" stroke-width="2" rx="2"/>
            <rect width="7" height="2" x="3" y="4" fill="#F59624" rx="1"/>
        </g>
        <path fill="#FFF" d="M15 19l5.333-7H26v12H15z"/>
        <path fill="#4C6470" d="M23 18h-2v-1h-2v1a1 1 0 0 0-1 1v4a1 1 0 0 0 1 1h6a1 1 0 0 0 1-1v-4a1 1 0 0 0-1-1v-1h-2v1zM21 17a1 1 0 1 1 2 0h2a3 3 0 1 0-6 0h2z"/>
        <path fill="#FFF" d="M22 20a1 1 0 1 1 0 2 1 1 0 0 1 0-2z"/>
    </g>
</svg>
