<svg xmlns="http://www.w3.org/2000/svg" width="32" height="32" viewBox="0 0 32 32">
    <g fill="none" fill-rule="evenodd">
        <circle cx="16" cy="16" r="15.5" fill="#FFF" stroke="#D3D3D3"/>
        <path fill="#278433" d="M10 9a1 1 0 0 0-1 1v12a1 1 0 0 0 1 1h12a1 1 0 0 0 1-1V10a1 1 0 0 0-1-1H10zm9 16h-6v1a1 1 0 0 1-1 1h-1a1 1 0 0 1-1-1v-1a3 3 0 0 1-3-3V10a3 3 0 0 1 3-3h12a3 3 0 0 1 3 3v12a3 3 0 0 1-3 3v1a1 1 0 0 1-1 1h-1a1 1 0 0 1-1-1v-1z"/>
        <path fill="#4C6470" d="M17.414 16l1.297 1.302a1 1 0 1 1-1.414 1.414L16 17.414l-1.285 1.302a1 1 0 1 1-1.415-1.414L14.586 16 13.3 14.719a1 1 0 1 1 1.415-1.415L16 14.586l1.297-1.282a1 1 0 0 1 1.414 1.415L17.414 16z"/>
    </g>
</svg>
