<svg xmlns="http://www.w3.org/2000/svg" width="32" height="32" viewBox="0 0 32 32">
    <g fill="none" fill-rule="evenodd">
        <circle cx="16" cy="16" r="15.5" fill="#FFF" stroke="#D3D3D3"/>
        <g transform="translate(6 7)">
            <path fill="#278433" d="M2.65 5.882c-.451 0-.817.353-.817.788v8.66c0 .435.366.788.817.788h14.7c.451 0 .817-.353.817-.788V6.67c0-.435-.366-.788-.817-.788H2.65zM2.5 4h15C18.88 4 20 5.106 20 6.47v9.06c0 1.364-1.12 2.47-2.5 2.47h-15C1.12 18 0 16.894 0 15.53V6.47C0 5.107 1.12 4 2.5 4z"/>
            <path fill="#278433" d="M2.857 2C2.431 2 2 2.503 2 3.035V4h12v-.965C14 2.503 13.74 2 13.314 2H2.857zM2.4 0h11.2C14.925 0 16 1.296 16 2.894v2.893H1.6v.965H0v-1.93-1.928C0 1.296 1.075 0 2.4 0z"/>
            <circle cx="14" cy="11" r="2" fill="#4C6470"/>
        </g>
    </g>
</svg>
