<svg xmlns="http://www.w3.org/2000/svg" width="32" height="32" viewBox="0 0 32 32">
    <g fill="none" fill-rule="evenodd">
        <path fill="#FFF" d="M16 32C7.163 32 0 24.837 0 16S7.163 0 16 0s16 7.163 16 16-7.163 16-16 16z"/>
        <path fill="#D3D3D3" fill-rule="nonzero" d="M16 31c8.284 0 15-6.716 15-15 0-8.284-6.716-15-15-15C7.716 1 1 7.716 1 16c0 8.284 6.716 15 15 15zm0 1C7.163 32 0 24.837 0 16S7.163 0 16 0s16 7.163 16 16-7.163 16-16 16z"/>
        <path fill="#278433" fill-rule="nonzero" d="M9.125 14.292a2.125 2.125 0 0 0 2.125-2.125v-1h2.25v1c0 1.146 1.095 2.125 2.5 2.125 1.404 0 2.5-.979 2.5-2.125v-1h2.25v1a2.125 2.125 0 0 0 4.228.304L22.375 9H9.625l-2.603 3.471a2.125 2.125 0 0 0 2.103 1.82v.001zm0 2A4.125 4.125 0 0 1 5 12.167v-.334L8.625 7h14.75l.3.4 3.064 4.09.057.07c.028.036.028.036.092.147.052.092.053.093.109.46a.042.042 0 0 1 .003.019 4.125 4.125 0 0 1-7.412 2.474c-.826.996-2.133 1.632-3.588 1.632s-2.763-.636-3.588-1.632a4.118 4.118 0 0 1-3.287 1.632zM23 19a1 1 0 0 1 2 0v6h-8v-4.002a.998.998 0 1 0-1.995 0V25H7v-6a1 1 0 0 1 2 0v4h4.005v-2.002a2.998 2.998 0 0 1 5.995 0V23h4v-4z"/>
    </g>
</svg>
