<svg xmlns="http://www.w3.org/2000/svg" width="32" height="32" viewBox="0 0 32 32">
    <g fill="none" fill-rule="evenodd">
        <circle cx="16" cy="16" r="15.5" fill="#FFF" stroke="#D3D3D3"/>
        <g stroke-width="2">
            <path stroke="#278433" d="M15.936 13c-2.42.005-4.133 1.211-5.322 3.29-.431.756-.76 1.573-.995 2.39-.14.488-.218.86-.246 1.054l-.038.164c-.453 1.394.343 2.93 1.706 3.361l.192.084c.09.051.382.165.91.29.95.228 2.202.367 3.792.367 1.59 0 2.873-.143 3.875-.378.565-.133.895-.256 1.014-.318l.19-.075c1.327-.38 2.084-1.882 1.646-3.325l-.03-.13a8.973 8.973 0 0 0-.265-1.06 11.245 11.245 0 0 0-1.035-2.402c-1.229-2.1-2.97-3.317-5.394-3.312z"/>
            <path stroke="#4C6470" stroke-linecap="round" stroke-linejoin="round" d="M19 20c0-1.333-.667-2.333-2-3"/>
            <path stroke="#278433" stroke-linecap="round" stroke-linejoin="round" d="M16 13c3.728 0 5.411-1.846 5-5.086-.136-1.07-1.607.012-5 0-3.393.012-4.832-1.076-5 0C10.495 11.154 12.27 13 16 13z"/>
        </g>
    </g>
</svg>
