<svg xmlns="http://www.w3.org/2000/svg" width="32" height="32" viewBox="0 0 32 32">
    <g fill="none" fill-rule="evenodd">
        <circle cx="16" cy="16" r="15.5" fill="#FFF" stroke="#D3D3D3"/>
        <path fill="#278433" fill-rule="nonzero" d="M8 15.974a8 8 0 1 0 14.292-4.942l-8.519 5.885-5.275-3.729c-.33.892-.5 1.835-.498 2.786zM22.583 8.4l.59.607A9.969 9.969 0 0 1 26 15.974c0 5.523-4.477 10-10 10s-10-4.477-10-10a9.96 9.96 0 0 1 1.213-4.777l.538-.987 6.035 4.267L22.583 8.4zm-1.53-1.057l-7.296 5.04L8.824 9.01a10.05 10.05 0 0 1 1.593-1.333l3.334 2.28L18.898 6.4c.76.23 1.483.548 2.155.942v.001z"/>
    </g>
</svg>
