<svg xmlns="http://www.w3.org/2000/svg" width="32" height="32" viewBox="0 0 32 32">
    <g fill="none" fill-rule="evenodd">
        <circle cx="16" cy="16" r="15.5" fill="#FFF" stroke="#D3D3D3"/>
        <path stroke="#278433" stroke-linecap="round" stroke-linejoin="round" stroke-width="2" d="M19.133 21.274l.014.01.183-.246.01-.311.001-.02v-.095a9.722 9.722 0 0 0-.728-.092c.28.026.57.417.52.754zm2.168.68c.007 0 .013-.002.02-.003a.107.107 0 0 1-.038 0l.018.004zm-.018-.003a.178.178 0 0 1-.018-.004l.018.004zm-.018-.004c-.133-.037-.34-.238-.34-.4a.456.456 0 0 1-.216.275l.556.125zm-.34-.4v-.005a.111.111 0 0 1-.002.019zm-2.312-1.027zm-5.954.092a1.807 1.807 0 0 0 0 .115l.01.31.184.247.014-.01c-.05-.337.24-.729.52-.754a9.726 9.726 0 0 0-.728.092zm-1.96 1.343l.017-.004a.106.106 0 0 1-.037 0l.02.004zm.017-.004l.02-.005a.178.178 0 0 1-.02.005zm.02-.005l.555-.124c-.123-.065-.214-.21-.216-.28.004.161-.205.367-.34.404zm9.21-2.57c.22.184.43.336.62.445.22.128.363.169.37.167 1.154-.225 2.019.53 1.988 1.61-.022.794-.523 1.593-1.283 1.993l-.754.397-.503-.668c-.436.975-1.107 1.679-1.938 2.126a4.612 4.612 0 0 1-2.446.548 4.612 4.612 0 0 1-2.446-.548c-.83-.447-1.502-1.151-1.938-2.127l-.503.67-.754-.398c-.76-.4-1.261-1.2-1.284-1.993-.03-1.08.835-1.835 1.988-1.61.008.002.15-.039.371-.167a4.57 4.57 0 0 0 .62-.446 7.625 7.625 0 0 1-2.194-.328c-1.43-.44-2.559-1.326-3.21-2.735-1.19-2.572-.65-5.78.829-7.887l1.033-1.47.705 1.652c.046.107.157.327.339.62.258.42.571.84.94 1.24.747-1.755 2.545-2.759 4.522-1.64.367.207.672.464.924.765.252-.301.558-.558.925-.765 2.008-1.137 3.833-.082 4.558 1.724a8.165 8.165 0 0 0 1.02-1.323c.18-.294.292-.514.338-.62l.705-1.653 1.033 1.47c1.479 2.107 2.018 5.315.83 7.887-.652 1.41-1.78 2.295-3.21 2.735a7.625 7.625 0 0 1-2.196.328z"/>
    </g>
</svg>
