<svg xmlns="http://www.w3.org/2000/svg" width="64" height="42" viewBox="0 0 64 42"><g fill="none" fill-rule="evenodd"><path fill="#D3D3D3" d="M4.004 0A4.008 4.008 0 000 4.008v33.983A4.004 4.004 0 004.004 42h55.993A4.009 4.009 0 0064 37.991V4.008A4.004 4.004 0 0059.997 0H4.004z"/><path d="M55.075 27.113c0-.474-.089-.768-.268-1.015-.035-.046-.066-.093-.118-.134-.282-.297-.745-.419-1.438-.436l-.687-.019c-.212 0-.355-.014-.489-.062a.408.408 0 01-.277-.403c0-.172.051-.302.185-.39.13-.09.282-.098.513-.098h2.311v-1.154H52.28c-1.33 0-1.819.828-1.819 1.614 0 1.716 1.485 1.637 2.676 1.678.22 0 .355.038.447.12a.45.45 0 01.155.359c0 .148-.062.27-.15.354-.102.101-.272.134-.514.134h-2.438v1.162h2.448c.813 0 1.413-.233 1.721-.693.18-.265.268-.603.268-1.017zm-4.947 0c0-.558-.132-.888-.379-1.149-.287-.297-.76-.419-1.448-.436l-.682-.019c-.216 0-.36-.014-.494-.061a.414.414 0 01-.277-.404c0-.172.051-.302.19-.39.128-.089.278-.098.508-.098h2.326v-1.154H47.33c-1.329 0-1.813.828-1.813 1.614 0 1.716 1.485 1.637 2.671 1.678.221 0 .355.038.452.12a.47.47 0 01.154.359c0 .148-.062.27-.15.354-.106.101-.277.134-.517.134h-2.46v1.162h2.47c1.278 0 1.991-.544 1.991-1.71zm-5.221-3.711h-4.231v5.421h4.231v-1.125l-2.969-.005v-1.078h2.897v-1.106h-2.897v-.986h2.97zm-5.833 2.902c.334-.136.898-.577.898-1.442 0-.618-.251-.957-.651-1.204-.417-.227-.884-.256-1.526-.256h-2.927v5.421h1.274v-1.98h1.355c.462 0 .745.046.93.24.236.253.205.736.205 1.062v.678h1.273v-1.075c-.005-.477-.031-.724-.21-.989-.108-.158-.339-.349-.621-.455zm-4.802-1.116c0-1.501-1.13-1.786-2.136-1.786h-4.052l-1.613 1.777-1.56-1.777h-5.1v5.421h5.023l1.622-1.794 1.562 1.794h2.464v-1.818h1.582c1.109 0 2.208-.311 2.208-1.817zm-14.029-5.694l1.838-4.244.005 4.244h1.3v-5.42h-2.111l-1.525 3.677-1.66-3.676h-2.069v5.13l-2.156-5.13h-1.884l-2.27 5.419h1.377l.492-1.209h2.64l.487 1.209h2.579v-4.248l1.843 4.248zm4.087 0h4.236v-1.12H25.6V17.29h2.896v-1.11H25.6v-.977h2.967v-1.128h-4.235zm5.115 0h1.268v-1.971h1.361c.457 0 .74.041.924.232.231.26.2.73.2 1.056l.005.683h1.28v-1.065c0-.484-.032-.724-.21-.994-.113-.158-.35-.348-.628-.456.33-.134.894-.58.894-1.445 0-.604-.24-.958-.642-1.2-.41-.242-.888-.26-1.535-.26h-2.917v5.42zm5.829 0h1.294v-5.42h-1.294zm1.915-2.668c0 .985.232 1.608.677 2.069.442.46 1.222.599 1.839.599h1.483l.48-1.209H44.3l.494 1.209h2.582v-4.068l2.403 4.068h1.797v-5.42h-1.299v3.775l-2.229-3.774h-1.93V19.2l-2.147-5.126h-1.9l-1.787 4.262h-.57c-.333 0-.688-.065-.883-.28-.236-.273-.348-.692-.348-1.273 0-.568.148-.999.364-1.227.252-.25.513-.321.976-.321h1.201v-1.161h-1.227c-.874 0-1.516.199-1.926.632-.545.58-.683 1.315-.683 2.119z" fill="#FFF"/><path fill="#00A1DF" d="M29.22 28.33v-4.346l-1.947 2.138 1.946 2.208zm-8.145-3.807v.986h2.783v1.106h-2.783v1.078h3.117l1.448-1.59-1.387-1.58h-3.178zm17.233.098c-.153-.093-.38-.097-.605-.097h-1.561v1.217h1.54c.247 0 .456-.009.626-.112.164-.101.262-.288.262-.52 0-.232-.098-.4-.262-.488zm16.767 2.492c0-.474-.089-.768-.268-1.015-.035-.046-.066-.093-.118-.134-.282-.297-.745-.419-1.438-.436l-.687-.019c-.212 0-.355-.014-.489-.062a.408.408 0 01-.277-.403c0-.172.051-.302.185-.39.13-.09.282-.098.513-.098h2.311v-1.154H52.28c-1.33 0-1.819.828-1.819 1.614 0 1.716 1.485 1.637 2.676 1.678.22 0 .355.038.447.12a.45.45 0 01.155.359c0 .148-.062.27-.15.354-.102.101-.272.134-.514.134h-2.438v1.162h2.448c.813 0 1.413-.233 1.721-.693.18-.265.268-.603.268-1.017zm-4.947 0c0-.558-.132-.888-.379-1.149-.287-.297-.76-.419-1.448-.436l-.682-.019c-.216 0-.36-.014-.494-.061a.414.414 0 01-.277-.404c0-.172.051-.302.19-.39.128-.089.278-.098.508-.098h2.326v-1.154H47.33c-1.329 0-1.813.828-1.813 1.614 0 1.716 1.485 1.637 2.671 1.678.221 0 .355.038.452.12a.47.47 0 01.154.359c0 .148-.062.27-.15.354-.106.101-.277.134-.517.134h-2.46v1.162h2.47c1.278 0 1.991-.544 1.991-1.71zm-5.22-3.71h-4.232v5.42h4.231v-1.125l-2.969-.005v-1.078h2.897v-1.106h-2.897v-.986h2.97v-1.12zm-5.834 2.9c.334-.135.898-.576.898-1.441 0-.618-.251-.957-.651-1.204-.417-.227-.884-.256-1.526-.256h-2.927v5.421h1.274v-1.98h1.355c.462 0 .745.046.93.24.236.253.205.736.205 1.062v.678h1.273v-1.075c-.005-.477-.031-.724-.21-.989-.108-.158-.339-.349-.621-.455zm-4.802-1.115c0-1.501-1.13-1.786-2.136-1.786h-4.052l-1.613 1.777-1.56-1.777h-5.1v5.421h5.023l1.622-1.794 1.562 1.794h2.464v-1.818h1.582c1.109 0 2.208-.311 2.208-1.817zm21.602-2.862v5.257c0 1.485-1.067 1.956-1.067 1.956-.508.25-1.176.348-1.86.348h-3.285v-.484c-.38.312-1.068.484-1.725.484H37.579V28.14c0-.214-.02-.223-.23-.223h-.165v1.971h-3.41v-2.04c-.57.251-1.218.274-1.766.265h-.406v1.78l-4.134-.004-1.016-1.176-1.08 1.176h-6.705v-7.564H25.5l.981 1.158 1.047-1.158h4.576c.529 0 1.396.057 1.787.443v-.443h4.088c.384 0 1.216.079 1.71.443v-.443h6.198v.443c.308-.302.96-.443 1.515-.443h3.47v.443c.365-.27.88-.443 1.587-.443l3.414.002zm-23.738 2.198h-1.654v1.38h1.639c.487 0 .79-.247.79-.716 0-.474-.318-.664-.775-.664zm.744-8.229c.165-.088.262-.278.262-.515 0-.232-.102-.4-.266-.48-.15-.087-.38-.097-.602-.097h-1.561v1.204h1.54c.247 0 .453-.004.627-.112zm-12.637 3.199l1.838-4.244.005 4.244h1.3v-5.42h-2.111l-1.525 3.677-1.66-3.676h-2.069v5.13l-2.156-5.13h-1.884l-2.27 5.419h1.377l.492-1.209h2.64l.487 1.209h2.579v-4.248l1.843 4.248h1.114zm4.088 0h4.235v-1.12H25.6V17.29h2.896v-1.11H25.6v-.977h2.967v-1.128h-4.235v5.419zm5.114 0h1.268v-1.971h1.361c.457 0 .74.041.924.232.231.26.2.73.2 1.056l.005.683h1.28v-1.065c0-.484-.032-.724-.21-.994-.113-.158-.35-.348-.628-.456.33-.134.894-.58.894-1.445 0-.604-.24-.958-.642-1.2-.41-.242-.888-.26-1.535-.26h-2.917v5.42zm5.829 0h1.294v-5.42h-1.294v5.42zm1.915-2.668c0 .985.232 1.608.677 2.069.442.46 1.222.599 1.839.599h1.483l.48-1.209H44.3l.494 1.209h2.582v-4.068l2.403 4.068h1.797v-5.42h-1.299v3.775l-2.229-3.774h-1.93V19.2l-2.147-5.126h-1.9l-1.787 4.262h-.57c-.333 0-.688-.065-.883-.28-.236-.273-.348-.692-.348-1.273 0-.568.148-.999.364-1.227.252-.25.513-.321.976-.321h1.201v-1.161h-1.227c-.874 0-1.516.199-1.926.632-.545.58-.683 1.315-.683 2.119zm-16.402 3.736h-2.212l-.38-.924v.92h-4.263l-.488-1.203h-1.093l-.489 1.203L8 20.562 11.231 13h3.307l.426.893V13h3.877l.848 1.952.826-1.952h12.31c.559 0 1.062.107 1.431.441V13h3.37v.441c.58-.324 1.298-.441 2.115-.441h4.883l.453.893V13h3.614l.494.893V13h3.522v7.558h-3.56l-.672-1.143v1.143h-4.442l-.482-1.203h-1.094l-.493 1.203H39.66c-.904 0-1.592-.218-2.034-.46v.46h-5.478v-1.715c0-.242-.042-.256-.186-.26h-.205l.005 1.975H21.168v-.934l-.38.938zm22.205-5.567l-.873 2.16h1.75l-.877-2.16zm-30.098 0l.868 2.16h-1.73l.862-2.16z"/></g></svg>