<svg xmlns="http://www.w3.org/2000/svg" width="32" height="24" viewBox="0 0 32 24"><g fill="none" fill-rule="evenodd"><path fill="#FFF" d="M0 2.991A2.989 2.989 0 012.996 0h26.007A2.995 2.995 0 0132 2.991v18.018A2.989 2.989 0 0129.003 24H2.996A2.995 2.995 0 010 21.009V2.991z" opacity=".8"/><path fill="#212121" d="M15.125 14.64a1.809 1.809 0 00-.875 1.56c0 .994.784 1.8 1.75 1.8s1.75-.806 1.75-1.8c0-.666-.352-1.248-.875-1.56v-1.165a.875.875 0 10-1.75 0v1.166zm5.25-4.44H21a2 2 0 012 2V19a2 2 0 01-2 2H11a2 2 0 01-2-2v-6.8a2 2 0 012-2h.625V7.5C11.625 5.015 13.584 3 16 3s4.375 2.015 4.375 4.5v2.7zm-1.75 0V7.5c0-1.491-1.175-2.7-2.625-2.7s-2.625 1.209-2.625 2.7v2.7h5.25z"/></g></svg>