<svg xmlns="http://www.w3.org/2000/svg" width="64" height="42" viewBox="0 0 64 42"><g fill="none" fill-rule="evenodd"><path fill="#FFF" fill-rule="nonzero" d="M0 4.008A4.008 4.008 0 014.003 0h55.994A4.004 4.004 0 0164 4.008v33.984A4.008 4.008 0 0159.997 42H4.003A4.004 4.004 0 010 37.992V4.008z" opacity=".8"/><path fill="#212121" d="M30.5 25.401a3 3 0 103 0V23.5a1.5 1.5 0 00-3 0v1.901zm9-7.401H42a2 2 0 012 2v14a2 2 0 01-2 2H22a2 2 0 01-2-2V20a2 2 0 012-2h2.5v-4.5a7.5 7.5 0 0115 0V18zm-3 0v-4.5a4.5 4.5 0 10-9 0V18h9z"/></g></svg>