<svg xmlns="http://www.w3.org/2000/svg" width="64" height="42" viewBox="0 0 64 42"><g fill="none" fill-rule="evenodd"><path fill="#00A1DF" d="M4.004 0A4.008 4.008 0 000 4.008v33.983A4.004 4.004 0 004.004 42h55.993A4.009 4.009 0 0064 37.991V4.008A4.004 4.004 0 0059.997 0H4.004zM2 37.991V4.008C2 2.9 2.899 2 4.004 2h55.993C61.104 2 62 2.897 62 4.008v33.983a2.007 2.007 0 01-2.003 2.008H4.004A2.003 2.003 0 012 37.991z"/><path fill="#000" fill-rule="nonzero" d="M24.757 35.843V33.96a1.114 1.114 0 00-1.178-1.19 1.162 1.162 0 00-1.055.534 1.102 1.102 0 00-.992-.534.992.992 0 00-.879.446v-.37H20v2.997h.66v-1.66a.7.7 0 01.734-.798c.433 0 .653.283.653.791v1.667h.66v-1.66a.706.706 0 01.734-.798c.446 0 .66.283.66.791v1.667h.656zm3.673-1.497v-1.497h-.66v.364a1.137 1.137 0 00-.941-.44 1.57 1.57 0 100 3.14c.366.013.717-.15.942-.44v.364h.653l.006-1.491zm-2.427 0a.907.907 0 11.91.96.898.898 0 01-.916-.96h.006zm16.38-1.57c.215 0 .428.04.628.12a1.523 1.523 0 01.851.832c.164.402.164.853 0 1.255a1.516 1.516 0 01-.34.5 1.57 1.57 0 01-.511.332c-.414.16-.873.16-1.287 0a1.532 1.532 0 01-.845-.832 1.666 1.666 0 010-1.255 1.532 1.532 0 01.845-.832 1.69 1.69 0 01.653-.129l.006.01zm0 .628a.974.974 0 00-.374.07.882.882 0 00-.298.197.92.92 0 00-.198.314c-.096.25-.096.528 0 .778a.88.88 0 00.496.512 1.02 1.02 0 001.059-.198.91.91 0 00.197-.314c.096-.25.096-.527 0-.778a.91.91 0 00-.197-.314.898.898 0 00-.314-.198.974.974 0 00-.377-.088l.006.02zm-10.405.942c0-.942-.584-1.57-1.422-1.57a1.57 1.57 0 10.044 3.14c.447.014.884-.135 1.227-.421l-.314-.484c-.248.199-.555.31-.872.314a.832.832 0 01-.898-.734h2.226c.009-.079.009-.157.009-.245zm-2.232-.264a.772.772 0 01.788-.725.744.744 0 01.76.728l-1.548-.003zm4.98-.47a1.931 1.931 0 00-.943-.258c-.358 0-.571.132-.571.352 0 .22.226.257.509.295l.314.044c.653.094 1.048.37 1.048.897 0 .528-.502.98-1.366.98a2.164 2.164 0 01-1.296-.39l.314-.508c.288.214.64.324.998.314.446 0 .685-.132.685-.364 0-.17-.17-.264-.528-.314l-.314-.044c-.672-.094-1.036-.396-1.036-.885 0-.597.49-.96 1.256-.96.429-.015.853.094 1.221.313l-.292.527zm3.139-.17h-1.064v1.353c0 .314.106.502.433.502.204-.007.402-.065.578-.17l.188.56a1.533 1.533 0 01-.816.231c-.773 0-1.043-.414-1.043-1.11v-1.366h-.609v-.596h.61v-.91h.659v.91h1.064v.596zm2.257-.672c.159 0 .316.028.465.082l-.2.628a1.062 1.062 0 00-.409-.076c-.427 0-.628.276-.628.772v1.68h-.653v-2.998h.647v.364a.885.885 0 01.791-.44l-.013-.012z"/><g fill-rule="nonzero"><path fill="#7673C0" d="M27.12 9.409h9.692v17.418H27.12z"/><path fill="#EB001B" d="M27.735 18.12a11.058 11.058 0 014.231-8.71 11.077 11.077 0 100 17.418 11.058 11.058 0 01-4.23-8.708z"/><path fill="#00A1DF" d="M49.886 18.12a11.077 11.077 0 01-17.92 8.708 11.077 11.077 0 000-17.419 11.077 11.077 0 0117.923 8.708l-.003.003z"/></g></g></svg>