<svg xmlns="http://www.w3.org/2000/svg" width="64" height="42" viewBox="0 0 64 42"><g fill="none" fill-rule="evenodd"><path fill="#D0301E" d="M4.004 0A4.008 4.008 0 000 4.008v33.983A4.004 4.004 0 004.004 42h55.993A4.009 4.009 0 0064 37.991V4.008A4.004 4.004 0 0059.997 0H4.004zM2 37.991V4.008C2 2.9 2.899 2 4.004 2h55.993C61.104 2 62 2.897 62 4.008v33.983a2.007 2.007 0 01-2.003 2.008H4.004A2.003 2.003 0 012 37.991z"/><path fill="#636363" d="M23 31.114h1.176l1.317 3.736 1.297-3.736h1.163v4.772h-.795v-3.683l-1.337 3.683h-.689l-1.323-3.683-.014 3.683H23v-4.772zm7.747 0h.889l1.838 4.772h-.896l-.447-1.263h-1.906l-.447 1.263h-.863l1.832-4.772zm-.294 2.874h1.457l-.715-2.052h-.02l-.722 2.052zm4.538.307c0 .183.031.34.094.468.062.13.149.235.26.318.112.082.24.142.385.18.144.038.302.057.47.057.184 0 .34-.021.469-.063a.947.947 0 00.314-.164.592.592 0 00.174-.23.69.69 0 00.053-.265c0-.182-.041-.317-.123-.404a.706.706 0 00-.271-.184 5.661 5.661 0 00-.592-.177 41.5 41.5 0 01-.832-.217 1.784 1.784 0 01-.511-.21 1.22 1.22 0 01-.325-.292 1.021 1.021 0 01-.17-.34 1.367 1.367 0 01-.05-.368 1.242 1.242 0 01.548-1.063 1.75 1.75 0 01.561-.257 2.46 2.46 0 01.636-.084c.25 0 .484.032.705.097.22.065.414.161.581.29.167.13.3.29.398.479.098.189.147.409.147.658h-.835c-.023-.307-.127-.525-.315-.652-.187-.127-.425-.19-.715-.19-.098 0-.198.01-.3.03a.956.956 0 00-.281.1.616.616 0 00-.211.19.515.515 0 00-.084.301c0 .17.053.302.158.398.104.096.241.168.41.217l.211.057a57.372 57.372 0 00.856.228c.145.037.248.065.31.083.157.05.293.116.408.2.116.085.213.182.291.291a1.2 1.2 0 01.174.351c.038.125.057.25.057.375 0 .267-.055.495-.164.685a1.39 1.39 0 01-.431.464c-.178.12-.381.209-.608.264a2.91 2.91 0 01-.696.084 2.86 2.86 0 01-.768-.1 1.8 1.8 0 01-.629-.308 1.505 1.505 0 01-.427-.531 1.77 1.77 0 01-.168-.766h.836zm4.846 0c0 .183.03.34.093.468.063.13.15.235.261.318.111.082.24.142.384.18.145.038.302.057.472.057.182 0 .338-.021.468-.063a.947.947 0 00.314-.164.592.592 0 00.173-.23.69.69 0 00.054-.265c0-.182-.041-.317-.124-.404a.706.706 0 00-.27-.184 5.661 5.661 0 00-.592-.177 41.5 41.5 0 01-.832-.217 1.784 1.784 0 01-.512-.21 1.22 1.22 0 01-.324-.292 1.021 1.021 0 01-.17-.34 1.367 1.367 0 01-.05-.368 1.242 1.242 0 01.548-1.063 1.75 1.75 0 01.561-.257 2.46 2.46 0 01.635-.084c.25 0 .485.032.705.097.221.065.415.161.582.29.167.13.3.29.398.479.098.189.147.409.147.658h-.836c-.022-.307-.127-.525-.314-.652s-.425-.19-.715-.19c-.098 0-.198.01-.301.03a.956.956 0 00-.28.1.616.616 0 00-.211.19.515.515 0 00-.084.301c0 .17.053.302.157.398.105.096.242.168.411.217l.21.057a57.372 57.372 0 00.857.228c.144.037.248.065.31.083.156.05.292.116.408.2.116.085.213.182.29.291a1.2 1.2 0 01.175.351c.038.125.057.25.057.375 0 .267-.055.495-.164.685a1.39 1.39 0 01-.431.464 1.87 1.87 0 01-.609.264 2.91 2.91 0 01-.695.084 2.86 2.86 0 01-.769-.1 1.8 1.8 0 01-.628-.308 1.505 1.505 0 01-.428-.531 1.77 1.77 0 01-.167-.766h.836z"/><g fill-rule="nonzero"><path fill="#FF5F00" d="M27 8h10v17H27z"/><path fill="#EB001B" d="M27.75 17.002A10.937 10.937 0 0132 8.352c-4.562-3.545-11.112-3.029-15.048 1.185a10.909 10.909 0 000 14.926c3.936 4.214 10.486 4.73 15.048 1.186a10.937 10.937 0 01-4.25-8.647z"/><path fill="#F79E1B" d="M50 17.002c0 4.21-2.432 8.052-6.263 9.892A11.229 11.229 0 0132 25.648 10.954 10.954 0 0036.25 17c0-3.375-1.566-6.562-4.25-8.648a11.229 11.229 0 0111.737-1.246C47.567 8.946 50 12.787 50 16.998v.004z"/></g></g></svg>