<svg xmlns="http://www.w3.org/2000/svg" width="64" height="42" viewBox="0 0 64 42"><g fill="none" fill-rule="evenodd"><path fill="#97CC00" d="M4.004 0A4.008 4.008 0 000 4.008v33.983A4.004 4.004 0 004.004 42h55.993A4.009 4.009 0 0064 37.991V4.008A4.004 4.004 0 0059.997 0H4.004zM2 37.991V4.008C2 2.9 2.899 2 4.004 2h55.993C61.104 2 62 2.897 62 4.008v33.983a2.007 2.007 0 01-2.003 2.008H4.004A2.003 2.003 0 012 37.991z"/><g fill-rule="nonzero"><path fill="#FF5F00" d="M27.091 8.455h9.818v17.182h-9.818z"/><path fill="#EB001B" d="M27.75 17.047A10.998 10.998 0 0132 8.361c-4.562-3.559-11.112-3.04-15.048 1.191a10.987 10.987 0 000 14.987c3.936 4.231 10.486 4.75 15.048 1.19a10.998 10.998 0 01-4.25-8.682z"/><path fill="#F79E1B" d="M50 17.047c0 4.228-2.432 8.086-6.263 9.933A11.19 11.19 0 0132 25.73a11.015 11.015 0 004.25-8.684c0-3.388-1.566-6.59-4.25-8.683A11.19 11.19 0 0143.737 7.11 11.037 11.037 0 0150 17.044v.003z"/></g><path fill="#7A7A7A" d="M29.908 30.089c-.664 1.204-1.445 2.523-2.19 3.793-.23.395-.462.929-.792 1.189-.286.226-.855.277-1.32.189.012-.208.08-.36.094-.566.094-.008.203.056.32.056.506.002.792-.468.982-.83-.222-1.263-.462-2.507-.68-3.775-.022-.024-.007-.03 0-.056h.736c.155.971.346 1.906.491 2.887.55-.947 1.064-1.93 1.604-2.887h.755zm-6.096 3.17c-.267-.003-.603-.175-.622-.471-.05-.745.996-.848 1.83-.793-.112.63-.47 1.273-1.208 1.264zm2.058-2.17c-.084-1.15-1.533-1.239-2.605-.906-.035.23-.077.451-.113.68.598-.387 2.327-.568 2 .622-1.073-.03-2.153.008-2.566.66-.159.25-.174.573-.151.774.066.592.715.964 1.434.887.493-.052.837-.388 1.038-.679a8.582 8.582 0 00-.113.604h.66c.057-.454.147-.872.227-1.302.08-.43.222-.88.189-1.34zm-4.794 1.755c-.302.375-1.011.593-1.472.189-.699-.614-.102-2.046.51-2.36.098-.05.196-.071.377-.094.255-.03.545.024.717.17.518.443.214 1.665-.132 2.095zm-.019-2.83c-.757-.078-1.235.193-1.547.603 0-.019.015-.022.019-.038.022-.172.061-.328.094-.49h-.68c-.209 1.804-.68 3.446-.943 5.133h.698c.11-.5.203-1.034.302-1.529.034-.17.067-.338.132-.49.173.395.543.57 1.02.603 1.462.105 2.17-1.099 2.094-2.434-.04-.694-.442-1.282-1.189-1.359z"/><path fill="#97CC00" d="M43.846 33.225c.01.289.526.443.773.547.492.208.958.433 1.02 1 .06.556-.171.994-.491 1.303-.304.292-.747.49-1.246.528-.691.053-1.355-.073-1.963-.226.06-.393.192-.714.265-1.095.277.087.55.218.887.245.466.038 1.102.008 1.094-.396-.009-.441-.912-.531-1.264-.811-.38-.303-.627-1.044-.32-1.642.472-.925 2.19-1.133 3.358-.642-.087.366-.197.71-.302 1.057-.343-.136-.787-.31-1.359-.246-.228.026-.461.138-.452.378m-2.322 2.83c-.275.279-.776.51-1.302.548-.68.05-1.383-.077-1.963-.226.078-.382.182-.738.284-1.095.387.151.822.3 1.415.245.278-.026.59-.125.547-.453-.035-.265-.432-.367-.736-.49-.562-.228-.981-.522-.981-1.284 0-1.545 2.164-1.807 3.491-1.264-.068.378-.205.688-.283 1.057-.36-.129-.797-.314-1.378-.246-.224.027-.459.146-.453.378.008.283.433.38.699.49.367.154.8.36.981.68.305.542.005 1.332-.32 1.66m-5.964-.528a.487.487 0 01-.34-.604c.1-.334.587-.483 1.038-.49.125-.002.357-.012.51.019-.05.544-.518 1.218-1.208 1.075m2.736-2.359c-.082-1.064-.935-1.475-2.17-1.396-.437.028-.8.132-1.17.264-.063.371-.089.78-.151 1.151.314-.18 1.013-.413 1.547-.34.357.05.655.324.548.755-1.07-.115-2.114.035-2.661.604-.475.494-.57 1.637 0 2.114.525.44 1.597.344 2.076-.095.141-.129.22-.296.34-.414-.038.214-.036.467-.076.679.353.043.785.007 1.17.019.095-.544.181-1.094.302-1.642.122-.555.288-1.141.245-1.699m-6.567 2c-.227.187-.728.307-1 .076-.437-.368-.326-1.3.018-1.793.158-.225.358-.391.68-.434.549-.072.783.367.792.887.01.566-.194 1.021-.49 1.265m.604-3.397c-.883-.083-1.296.428-1.68.811.026-.238.083-.445.094-.698a9.268 9.268 0 00-1.32 0c-.125 1.126-.388 2.188-.605 3.246-.22 1.075-.41 2.141-.641 3.227h1.472c.155-.883.358-1.718.51-2.604.32.527.718.914 1.566.849 1.351-.104 2.093-1.617 1.981-3.152-.065-.892-.539-1.601-1.377-1.68"/></g></svg>