<svg xmlns="http://www.w3.org/2000/svg" width="64" height="42" viewBox="0 0 64 42"><g fill="none" fill-rule="evenodd"><path fill="#F6A039" d="M4.004 0A4.008 4.008 0 000 4.008v33.983A4.004 4.004 0 004.004 42h55.993A4.009 4.009 0 0064 37.991V4.008A4.004 4.004 0 0059.997 0H4.004zM2 37.991V4.008C2 2.9 2.899 2 4.004 2h55.993C61.104 2 62 2.897 62 4.008v33.983a2.007 2.007 0 01-2.003 2.008H4.004A2.003 2.003 0 012 37.991z"/><path fill="#636363" d="M13.836 34.295c0 .183.03.34.093.468.063.13.15.235.26.318.112.082.24.142.385.18.145.038.302.057.471.057.183 0 .34-.021.468-.063a.947.947 0 00.315-.164.592.592 0 00.173-.23.69.69 0 00.054-.265c0-.182-.041-.317-.124-.404a.706.706 0 00-.27-.184 5.661 5.661 0 00-.592-.177 41.5 41.5 0 01-.832-.217 1.784 1.784 0 01-.512-.21 1.22 1.22 0 01-.324-.292 1.021 1.021 0 01-.17-.34 1.367 1.367 0 01-.05-.368 1.242 1.242 0 01.548-1.063 1.75 1.75 0 01.561-.257 2.46 2.46 0 01.635-.084c.25 0 .485.032.705.097.22.065.415.161.582.29.167.13.3.29.398.479.098.189.147.409.147.658h-.836c-.022-.307-.127-.525-.314-.652s-.426-.19-.715-.19c-.098 0-.199.01-.301.03a.956.956 0 00-.28.1.616.616 0 00-.211.19.515.515 0 00-.084.301c0 .17.052.302.157.398.105.096.242.168.411.217l.21.057a57.37 57.37 0 00.856.228c.145.037.249.065.311.083.156.05.292.116.408.2.116.085.213.182.29.291a1.2 1.2 0 01.175.351c.037.125.056.25.056.375 0 .267-.054.495-.163.685a1.39 1.39 0 01-.432.464c-.178.12-.38.209-.608.264a2.91 2.91 0 01-.695.084 2.86 2.86 0 01-.769-.1 1.8 1.8 0 01-.628-.308 1.505 1.505 0 01-.428-.531 1.77 1.77 0 01-.167-.766h.836zm3.843-3.181h3.863v.722h-1.517v4.05h-.836v-4.05h-1.51v-.722zm5.594 0h.89L26 35.886h-.895l-.448-1.263h-1.905l-.448 1.263h-.863l1.832-4.772zm-.294 2.874h1.457l-.715-2.052h-.02l-.722 2.052zm3.957-2.874h.882l2.18 3.516h.012v-3.516h.796v4.772h-.882l-2.173-3.509h-.02v3.51h-.795v-4.773zm5.373 0h1.98c.364 0 .68.062.948.187.268.125.486.295.655.511.17.216.296.47.378.759.082.29.124.6.124.929 0 .33-.042.64-.124.93a2.168 2.168 0 01-.378.758 1.759 1.759 0 01-.655.511 2.227 2.227 0 01-.949.187H32.31v-4.772zm.836 4.09h.822c.326 0 .592-.043.799-.13.207-.087.37-.207.488-.36a1.31 1.31 0 00.24-.542c.043-.207.064-.431.064-.672 0-.24-.021-.465-.063-.672a1.303 1.303 0 00-.241-.541 1.169 1.169 0 00-.488-.361c-.207-.087-.473-.13-.799-.13h-.822v3.409zm5.782-4.09h.889l1.838 4.772h-.896l-.448-1.263h-1.905l-.448 1.263h-.862l1.832-4.772zm-.295 2.874h1.458l-.716-2.052h-.02l-.722 2.052zm3.99-2.874h2.28c.526 0 .92.113 1.183.34.263.228.395.544.395.95 0 .227-.034.415-.1.565a1.24 1.24 0 01-.235.36.914.914 0 01-.264.198c-.087.04-.15.067-.19.08.071.022.148.045.23.08a.68.68 0 01.231.17.95.95 0 01.177.305c.047.125.07.28.07.468 0 .28.021.536.064.765.042.23.108.393.197.491h-.896a.78.78 0 01-.11-.34 4.062 4.062 0 01-.017-.362 3.44 3.44 0 00-.04-.564.985.985 0 00-.147-.395.622.622 0 00-.29-.23 1.283 1.283 0 00-.472-.074h-1.23v1.965h-.835v-4.772zm.836 2.172h1.37c.268 0 .47-.063.609-.19.138-.127.207-.318.207-.572a.884.884 0 00-.067-.37.54.54 0 00-.184-.225.676.676 0 00-.267-.107 1.773 1.773 0 00-.31-.027h-1.358v1.491zm4.385-2.172h1.978c.366 0 .682.062.95.187.267.125.485.295.655.511.169.216.295.47.377.759.083.29.124.6.124.929 0 .33-.041.64-.124.93a2.183 2.183 0 01-.377.758 1.77 1.77 0 01-.656.511 2.227 2.227 0 01-.949.187h-1.978v-4.772zm.835 4.09h.822c.326 0 .592-.043.8-.13.206-.087.37-.207.487-.36a1.31 1.31 0 00.24-.542c.043-.207.064-.431.064-.672 0-.24-.02-.465-.063-.672a1.303 1.303 0 00-.24-.541 1.169 1.169 0 00-.489-.361c-.207-.087-.473-.13-.799-.13h-.822v3.409z"/><g fill-rule="nonzero"><path fill="#FF5F00" d="M27.091 8.455h9.818v17.182h-9.818z"/><path fill="#EB001B" d="M27.75 17.047A10.998 10.998 0 0132 8.361c-4.562-3.559-11.112-3.04-15.048 1.191a10.987 10.987 0 000 14.987c3.936 4.231 10.486 4.75 15.048 1.19a10.998 10.998 0 01-4.25-8.682z"/><path fill="#F79E1B" d="M50 17.047c0 4.228-2.432 8.086-6.263 9.933A11.19 11.19 0 0132 25.73a11.015 11.015 0 004.25-8.684c0-3.388-1.566-6.59-4.25-8.683A11.19 11.19 0 0143.737 7.11 11.037 11.037 0 0150 17.044v.003z"/></g></g></svg>