<svg xmlns="http://www.w3.org/2000/svg" width="64" height="42" viewBox="0 0 64 42"><g fill="none" fill-rule="evenodd"><path fill="#29AB4F" d="M4.004 0A4.008 4.008 0 000 4.008v33.983A4.004 4.004 0 004.004 42h55.993A4.009 4.009 0 0064 37.991V4.008A4.004 4.004 0 0059.997 0H4.004zM2 37.991V4.008C2 2.9 2.899 2 4.004 2h55.993C61.104 2 62 2.897 62 4.008v33.983a2.007 2.007 0 01-2.003 2.008H4.004A2.003 2.003 0 012 37.991z"/><path fill="#29AB4F" d="M19.974 17.692l-2.082 5.515-1.944-5.515c-.322-.914-1.323-1.655-2.257-1.686L13.63 16H10v11h3.691v-6.77L16.644 27h2.584l2.768-6v6h3.692V16h-1.385s-.16.006-1.732.006c-1.571 0-2.298.892-2.597 1.686zM36.3 16l-.462.053c-.882.181-1.76.844-2.094 1.64l-2.52 6.007V16h-3.69v11h3.229l.461-.053c.883-.181 1.761-.844 2.094-1.64l2.52-6.007V27h3.691V16H36.3zm5.129 5v6h4.19v-3.438h5.238C53.477 23.563 54 21 54 21H41.429z"/><path fill="#00A8E3" d="M48.042 16H41c0 2.025 2.206 4 5.01 4H54c0-2.5-2.167-4-5.417-4h-.541z"/></g></svg>