<svg xmlns="http://www.w3.org/2000/svg" width="32" height="24" viewBox="0 0 32 24"><g fill="none" fill-rule="evenodd"><path fill="#2D8C29" d="M0 2.991A2.989 2.989 0 012.996 0h26.007A2.995 2.995 0 0132 2.991v18.018A2.989 2.989 0 0129.003 24H2.996A2.995 2.995 0 010 21.009V2.991zm2 0v18.018c0 .545.446.991.996.991h26.007a.99.99 0 00.997-.991V2.991A.996.996 0 0029.003 2H2.996A.989.989 0 002 2.991z"/><path fill="#CB5227" d="M5.986 6h5.257l-.986 5.257H5L5.986 6zm5.585 0h5.257l-.985 5.257h-5.257L11.57 6zm5.586 0h5.257l-.986 5.257h-5.257L17.157 6zM7.018 7.171l-.589 3.1h.534l.506-2.645H8.66l-.506 2.645h.538l.59-3.1H7.017zm5.308 3.1h.53l.22-1.173c.083.01.18.023.29.023.368 0 .722-.096.97-.294.226-.18.396-.474.396-.842 0-.276-.101-.478-.285-.616-.198-.161-.506-.221-.791-.221-.28 0-.561.028-.75.074l-.58 3.05zm7.231-3.15c-.418 0-.81.16-1.09.432-.372.359-.58.938-.58 1.49 0 .695.42 1.279 1.22 1.279.45 0 .828-.161 1.108-.437.364-.359.561-.93.561-1.481 0-.709-.39-1.284-1.219-1.284zm-6.196.487a1.14 1.14 0 01.295-.028c.303 0 .538.12.538.447 0 .368-.3.657-.754.657a1.26 1.26 0 01-.281-.027l.202-1.049zm6.132-.037c.57 0 .713.442.713.851 0 .391-.152.92-.419 1.187a.844.844 0 01-.602.262c-.52 0-.732-.386-.732-.855 0-.4.157-.907.428-1.178a.853.853 0 01.612-.267z"/><path fill="#2D8C29" d="M10.586 11.586h5.257l-.986 5.257H9.6l.986-5.257zm5.585 0h5.257l-.985 5.257h-5.257l.985-5.257zm5.586 0h5.257l-.986 5.257h-5.257l.986-5.257zm-9.349 4.271h.52l.566-2.99h-.446l-.764.354.032.419.552-.258h.01l-.47 2.475zm5.97-3.04c-.864 0-1.361 1.071-1.361 2.037 0 .589.225 1.054.814 1.054.893 0 1.353-1.15 1.353-2.107 0-.497-.198-.985-.805-.985zm5.586 0c-.865 0-1.361 1.071-1.361 2.037 0 .589.225 1.054.814 1.054.892 0 1.352-1.15 1.352-2.107 0-.497-.198-.985-.805-.985zm-5.65.427c.304 0 .336.354.336.575 0 .483-.248 1.66-.75 1.66-.303 0-.354-.34-.354-.606 0-.566.294-1.629.768-1.629zm5.586 0c.303 0 .336.354.336.575 0 .483-.249 1.66-.75 1.66-.304 0-.354-.34-.354-.606 0-.566.294-1.629.768-1.629z"/></g></svg>