<svg xmlns="http://www.w3.org/2000/svg" width="64" height="42" viewBox="0 0 64 42"><g fill="none" fill-rule="evenodd"><path fill="#225680" d="M4.004 0A4.008 4.008 0 000 4.008v33.983A4.004 4.004 0 004.004 42h55.993A4.009 4.009 0 0064 37.991V4.008A4.004 4.004 0 0059.997 0H4.004zM2 37.991V4.008C2 2.9 2.899 2 4.004 2h55.993C61.104 2 62 2.897 62 4.008v33.983a2.007 2.007 0 01-2.003 2.008H4.004A2.003 2.003 0 012 37.991z"/><path fill="#F35E3C" d="M21.008 21.49a3.518 3.518 0 11-7.036 0 3.518 3.518 0 017.036 0"/><path fill="#D7DBE4" d="M26.98 21.49c0-.164-.004-.325-.012-.486-.003-.067-.01-.134-.015-.2-.007-.094-.012-.187-.021-.28-.009-.087-.022-.173-.033-.259-.01-.07-.016-.142-.027-.213-.015-.1-.034-.198-.053-.296-.01-.056-.018-.113-.03-.168a9.463 9.463 0 00-.074-.326l-.03-.13a8.982 8.982 0 00-.1-.352l-.026-.095a9.246 9.246 0 00-.124-.368l-.023-.07a9.386 9.386 0 00-.15-.383c-.007-.014-.012-.03-.018-.044a9.636 9.636 0 00-.177-.394l-.01-.022a9.335 9.335 0 00-.206-.406 9.525 9.525 0 00-1.611-2.177c2.417 4.05 1.101 6.477.217 7.754-3.337 4.823-8.395 2.13-8.399 2.128a3.518 3.518 0 012.863-6.427c-.05-.026-5.076-2.672-8.398 2.13-.884 1.276-2.2 3.704.218 7.754a9.527 9.527 0 002.192 1.656l.004.002c.13.071.263.14.397.205l.015.008c.13.063.26.122.393.18l.03.013c.128.054.257.105.387.154l.048.019c.125.046.251.088.378.129l.066.022c.122.038.245.072.368.106.03.007.057.016.086.024.119.03.239.057.359.083l.103.024c.116.024.232.044.35.063.04.007.08.016.12.022.113.017.226.03.34.043.046.006.092.013.139.018.115.012.233.02.35.027.045.003.089.008.134.01.162.008.326.013.49.013 4.423 0 8.138-3.025 9.192-7.119a9.438 9.438 0 00.298-2.372z"/><path fill="#225680" d="M8 21.491c0 .163.004.325.012.486.004.067.01.133.015.2.007.093.012.187.022.28.009.086.021.172.032.259.01.07.017.142.027.212.016.1.035.198.053.297l.03.168c.022.11.049.218.075.326.01.043.019.087.03.13.03.118.064.235.099.351.01.032.017.064.027.095.038.125.08.247.124.37l.023.068c.047.13.098.257.15.384l.017.043c.056.133.115.264.177.394l.01.023c.065.135.132.268.203.399l.004.007a9.528 9.528 0 001.61 2.177h.001c-2.417-4.05-1.102-6.478-.218-7.755 3.338-4.823 8.396-2.13 8.4-2.128a3.518 3.518 0 01-2.864 6.427c.05.027 5.076 2.672 8.398-2.129.884-1.277 2.446-4.486-.218-7.755a9.527 9.527 0 00-2.192-1.655l-.003-.002a9.381 9.381 0 00-.397-.206l-.015-.007a9.263 9.263 0 00-.394-.18l-.03-.014a9.492 9.492 0 00-.387-.153l-.048-.02a9.547 9.547 0 00-.378-.128l-.066-.023a9.56 9.56 0 00-.368-.105c-.029-.008-.057-.017-.086-.024a9.431 9.431 0 00-.358-.084c-.035-.007-.07-.017-.104-.024-.115-.024-.232-.043-.349-.063-.04-.006-.08-.015-.121-.021-.112-.017-.226-.03-.34-.044-.046-.005-.091-.013-.138-.017a8.115 8.115 0 00-.35-.027c-.045-.003-.09-.008-.134-.01a9.561 9.561 0 00-.49-.013c-4.423 0-8.139 3.025-9.192 7.119A9.435 9.435 0 008 21.49v.001"/><path fill="#225680" d="M13.297 29.402a1.578 1.578 0 11-3.157 0 1.578 1.578 0 013.157 0"/><path fill="#00264C" d="M45.049 17.503c-1.185-1.141-2.61-1.644-4.25-1.469a5.241 5.241 0 00-.17.02l-.023.044-1.293 2.418c.854-.603 1.81-.805 2.867-.54 1.24.31 2.05 1.108 2.45 2.355h-4.107v1.64h4.095c-.285.95-.846 1.658-1.718 2.07-1.442.682-2.77.454-3.974-.577v2.177a4.95 4.95 0 001.818.604c.165.023.33.04.495.06h.244c.05-.01.098-.024.148-.026a5.002 5.002 0 001.498-.295c2.267-.797 3.754-3.089 3.41-5.538a4.938 4.938 0 00-1.49-2.943m-5.176-1.27c-.067-.004-.112-.009-.156-.009-.639 0-1.278.002-1.917-.003-.106 0-.16.034-.21.127-.593 1.142-1.19 2.282-1.787 3.423l-.365.692c-.032-.056-.055-.095-.076-.135-.693-1.325-1.387-2.65-2.076-3.976-.052-.1-.109-.132-.22-.131-.63.006-1.258.003-1.887.003H31c.034.07.054.116.078.16 1.049 1.99 2.098 3.98 3.151 5.97.056.103.05.179-.003.276-.27.499-.536 1-.803 1.502l-1.025 1.928c.706 0 1.386-.003 2.065.004.119 0 .176-.036.232-.14 1.603-3.005 3.21-6.007 4.816-9.01.119-.222.236-.444.362-.682M55 26.043c-.048.008-.079.017-.11.017-.71 0-1.42.004-2.13-.005-.071 0-.16-.055-.21-.112-1.06-1.223-2.117-2.45-3.174-3.676l-.44-.506v4.29H47.08v-9.817h1.846v4.005l.032.02c.048-.052.097-.103.143-.157 1.079-1.26 2.156-2.523 3.238-3.782.04-.046.113-.092.17-.092.72-.006 1.441-.004 2.161-.004.024 0 .048.004.104.009l-4.2 4.69L55 26.043"/></g></svg>