<svg xmlns="http://www.w3.org/2000/svg" width="64" height="42" viewBox="0 0 64 42"><g fill="none" fill-rule="evenodd"><path fill="#6F9BB1" fill-rule="nonzero" d="M2 4.008v33.984C2 39.103 2.896 40 4.003 40h55.994C61.1 40 62 39.1 62 37.992V4.008A2.004 2.004 0 0059.997 2H4.003C2.9 2 2 2.9 2 4.008zm-2 0A4.008 4.008 0 014.003 0h55.994A4.004 4.004 0 0164 4.008v33.984A4.008 4.008 0 0159.997 42H4.003A4.004 4.004 0 010 37.992V4.008z"/><path fill="#152E8B" d="M29.69 23.784L32 11h-3.692L26 23.784h3.69zm6.642-9.128c0-.517.662-1.068 2.096-1.068a7.21 7.21 0 012.745.474l.333.143.494-2.682c-.724-.252-1.865-.523-3.289-.523-3.62 0-6.173 1.683-6.195 4.086-.022 1.783 1.82 2.774 3.211 3.365 1.43.608 1.908.996 1.902 1.537-.01.828-1.14 1.213-2.195 1.213-1.466 0-2.244-.19-3.45-.654l-.474-.195-.51 2.773c.852.346 2.44.644 4.08.66 3.853 0 6.36-1.66 6.387-4.23.017-1.411-.963-2.483-3.081-3.365-1.279-.573-2.065-.956-2.054-1.534zM48.27 11c-.863 0-1.513.228-1.893 1.065L41 23.785h3.803s.617-1.458.758-1.806c.419 0 4.11-.05 4.635-.05.113.445.444 1.855.444 1.855H54L51.07 11h-2.8zm.166 4.801c-.02.03.3-.671.483-1.148l.24 1s.697 3.565.841 3.565h-3c.294-.907 1.436-3.417 1.436-3.417zM18.868 19.84l-.368-1.71-1.224-5.966C17.064 11.356 16.447 11 15.69 11h-5.643l-.047.382c.928.223 1.776.586 2.57.935.266.182 1.184.824 1.64 2.348l2.579 9.12h3.703L26 11h-3.707l-3.425 8.839z"/><path fill="#636363" d="M19.476 30.631a1.692 1.692 0 00-.147-.381 1.054 1.054 0 00-.585-.498 1.364 1.364 0 00-.458-.07 1.33 1.33 0 00-.658.154c-.185.102-.336.24-.452.41a1.855 1.855 0 00-.257.586 2.694 2.694 0 000 1.336c.056.219.142.414.257.585.116.172.267.309.452.411.185.103.404.154.658.154a1.101 1.101 0 00.862-.364c.103-.114.183-.246.241-.398.058-.151.096-.314.114-.488h.815a2.26 2.26 0 01-.184.782 1.875 1.875 0 01-1.053 1.01c-.24.093-.505.14-.795.14a2.25 2.25 0 01-.96-.197 2.11 2.11 0 01-.718-.538 2.407 2.407 0 01-.45-.796A2.947 2.947 0 0116 31.5c0-.339.052-.66.157-.963.105-.303.255-.568.451-.795A2.148 2.148 0 0118.286 29c.267 0 .52.037.755.11.237.074.445.18.625.321.18.14.327.311.438.512.112.2.18.43.207.688h-.835zm2.118-1.517h.836v4.05h2.426v.722h-3.262v-4.772zm5.628 0h.89l1.838 4.772h-.896l-.448-1.263H26.7l-.448 1.263h-.862l1.831-4.772zm-.294 2.874h1.457l-.715-2.052h-.02l-.722 2.052zm4.538.307c0 .183.032.34.094.468.062.13.15.235.26.318.112.082.24.142.385.18.145.038.302.057.471.057.183 0 .339-.021.468-.063a.947.947 0 00.314-.164.592.592 0 00.174-.23.69.69 0 00.054-.265c0-.182-.042-.317-.124-.404a.706.706 0 00-.27-.184 5.661 5.661 0 00-.592-.177 41.5 41.5 0 01-.833-.217 1.784 1.784 0 01-.51-.21 1.22 1.22 0 01-.325-.292 1.021 1.021 0 01-.17-.34 1.367 1.367 0 01-.05-.368 1.242 1.242 0 01.547-1.063 1.75 1.75 0 01.562-.257 2.46 2.46 0 01.635-.084c.25 0 .485.032.705.097.22.065.415.161.582.29.167.13.3.29.397.479.098.189.147.409.147.658h-.835c-.022-.307-.127-.525-.314-.652s-.426-.19-.715-.19c-.099 0-.199.01-.301.03a.956.956 0 00-.281.1.616.616 0 00-.21.19.515.515 0 00-.084.301c0 .17.052.302.157.398.105.096.242.168.411.217l.21.057a57.37 57.37 0 00.856.228c.145.037.249.065.311.083.156.05.292.116.408.2.116.085.213.182.29.291a1.2 1.2 0 01.174.351c.038.125.057.25.057.375 0 .267-.054.495-.164.685a1.39 1.39 0 01-.43.464 1.88 1.88 0 01-.609.264 2.91 2.91 0 01-.695.084 2.86 2.86 0 01-.769-.1 1.8 1.8 0 01-.628-.308 1.505 1.505 0 01-.428-.531 1.77 1.77 0 01-.167-.766h.835zm4.846 0c0 .183.031.34.094.468.062.13.149.235.26.318.112.082.24.142.385.18.145.038.302.057.471.057.183 0 .339-.021.468-.063a.947.947 0 00.314-.164.592.592 0 00.174-.23.69.69 0 00.053-.265c0-.182-.04-.317-.123-.404a.706.706 0 00-.271-.184 5.661 5.661 0 00-.592-.177 41.5 41.5 0 01-.832-.217 1.784 1.784 0 01-.511-.21 1.22 1.22 0 01-.324-.292 1.021 1.021 0 01-.17-.34 1.367 1.367 0 01-.051-.368 1.242 1.242 0 01.548-1.063 1.75 1.75 0 01.562-.257 2.46 2.46 0 01.635-.084c.25 0 .484.032.705.097.22.065.414.161.581.29.168.13.3.29.398.479.098.189.147.409.147.658h-.835c-.023-.307-.127-.525-.314-.652-.188-.127-.426-.19-.716-.19-.098 0-.198.01-.3.03a.956.956 0 00-.281.1.616.616 0 00-.21.19.515.515 0 00-.084.301c0 .17.052.302.157.398.104.096.241.168.41.217l.211.057a57.37 57.37 0 00.856.228c.145.037.248.065.31.083a1.312 1.312 0 01.699.491 1.2 1.2 0 01.174.351c.038.125.057.25.057.375 0 .267-.055.495-.164.685a1.39 1.39 0 01-.431.464c-.178.12-.381.209-.608.264a2.91 2.91 0 01-.695.084 2.86 2.86 0 01-.77-.1 1.8 1.8 0 01-.628-.308 1.505 1.505 0 01-.427-.531 1.77 1.77 0 01-.167-.766h.835zm4.298-3.181h.835v4.772h-.835v-4.772zm5.594 1.517a1.692 1.692 0 00-.147-.381 1.054 1.054 0 00-.585-.498 1.364 1.364 0 00-.458-.07 1.33 1.33 0 00-.658.154c-.185.102-.335.24-.451.41a1.855 1.855 0 00-.258.586 2.694 2.694 0 000 1.336c.056.219.142.414.258.585.116.172.266.309.45.411.186.103.405.154.66.154a1.101 1.101 0 00.862-.364c.102-.114.182-.246.24-.398.058-.151.096-.314.114-.488h.815a2.259 2.259 0 01-.183.782 1.875 1.875 0 01-1.053 1.01c-.24.093-.506.14-.796.14a2.25 2.25 0 01-.959-.197 2.11 2.11 0 01-.719-.538 2.407 2.407 0 01-.45-.796 2.947 2.947 0 01-.158-.969c0-.339.053-.66.157-.963.105-.303.255-.568.451-.795A2.148 2.148 0 0145.014 29c.268 0 .52.037.756.11.236.074.444.18.625.321.18.14.326.311.437.512.112.2.181.43.208.688h-.836z"/></g></svg>