<svg xmlns="http://www.w3.org/2000/svg" width="32" height="24" viewBox="0 0 32 24"><g fill="#152E8B" fill-rule="evenodd"><path d="M0 2.991A2.989 2.989 0 012.996 0h26.007A2.995 2.995 0 0132 2.991v18.018A2.989 2.989 0 0129.003 24H2.996A2.995 2.995 0 010 21.009V2.991zm2 0v18.018c0 .545.446.991.996.991h26.007a.99.99 0 00.997-.991V2.991A.996.996 0 0029.003 2H2.996A.989.989 0 002 2.991z"/><path d="M14.272 15.67L15.477 9h-1.926l-1.204 6.67h1.925zm3.465-4.763c0-.27.345-.557 1.093-.557.627-.01 1.08.116 1.433.247l.173.075.258-1.4A5.296 5.296 0 0018.978 9c-1.888 0-3.22.878-3.232 2.132-.012.93.95 1.447 1.675 1.755.746.317.996.52.992.802-.005.432-.595.633-1.145.633-.765 0-1.17-.1-1.8-.341l-.246-.102-.267 1.447c.445.18 1.273.336 2.13.343 2.009 0 3.316-.865 3.33-2.206.01-.736-.501-1.295-1.607-1.755-.667-.3-1.077-.5-1.071-.801zM23.965 9c-.45 0-.79.12-.988.555l-2.805 6.114h1.984s.322-.76.395-.941c.219 0 2.144-.026 2.418-.026.06.232.232.967.232.967h1.753L25.426 9h-1.461zm.087 2.505c-.011.015.156-.35.251-.6l.126.522s.363 1.86.438 1.86h-1.565c.153-.473.75-1.782.75-1.782zM8.626 13.61l-.192-.892-.638-3.112C7.686 9.186 7.363 9 6.968 9H4.024L4 9.2c.484.116.926.305 1.34.487.14.095.618.43.857 1.225l1.345 4.757h1.931L12.347 9h-1.934l-1.787 4.61z"/></g></svg>