<svg xmlns="http://www.w3.org/2000/svg" width="64" height="42" viewBox="0 0 64 42"><g fill="none" fill-rule="evenodd"><path fill="#16AD86" fill-rule="nonzero" d="M0 4.008A4.008 4.008 0 014.003 0h55.994A4.004 4.004 0 0164 4.008v33.984A4.008 4.008 0 0159.997 42H4.003A4.004 4.004 0 010 37.992V4.008z"/><path fill="#1592BB" fill-rule="nonzero" d="M64 26.25v11.742A4.008 4.008 0 0159.997 42H40l24-15.75z"/><path fill="#6AB528" fill-rule="nonzero" d="M4.003 0H54L0 35.438V4.008A4.008 4.008 0 014.003 0z"/><path fill="#FFF" d="M29.69 23.784L32 11h-3.692L26 23.784h3.69zm6.642-9.128c0-.517.662-1.068 2.096-1.068a7.21 7.21 0 012.745.474l.333.143.494-2.682c-.724-.252-1.865-.523-3.289-.523-3.62 0-6.173 1.683-6.195 4.086-.022 1.783 1.82 2.774 3.211 3.365 1.43.608 1.908.996 1.902 1.537-.01.828-1.14 1.213-2.195 1.213-1.466 0-2.244-.19-3.45-.654l-.474-.195-.51 2.773c.852.346 2.44.644 4.08.66 3.853 0 6.36-1.66 6.387-4.23.017-1.411-.963-2.483-3.081-3.365-1.279-.573-2.065-.956-2.054-1.534zM48.27 11c-.863 0-1.513.228-1.893 1.065L41 23.785h3.803s.617-1.458.758-1.806c.419 0 4.11-.05 4.635-.05.113.445.444 1.855.444 1.855H54L51.07 11h-2.8zm.166 4.801c-.02.03.3-.671.483-1.148l.24 1s.697 3.565.841 3.565h-3c.294-.907 1.436-3.417 1.436-3.417zM18.868 19.84l-.368-1.71-1.224-5.966C17.064 11.356 16.447 11 15.69 11h-5.643l-.047.382c.928.223 1.776.586 2.57.935.266.182 1.184.824 1.64 2.348l2.579 9.12h3.703L26 11h-3.707l-3.425 8.839zM17 29.114h1.979c.365 0 .681.062.949.187.267.125.486.295.655.511.17.216.295.47.378.759.082.29.123.6.123.929 0 .33-.041.64-.123.93a2.203 2.203 0 01-.378.758c-.17.216-.388.386-.655.511a2.227 2.227 0 01-.95.187H17v-4.772zm.836 4.09h.822c.325 0 .591-.043.799-.13.207-.087.37-.207.488-.36a1.31 1.31 0 00.24-.542c.042-.207.064-.431.064-.672 0-.24-.022-.465-.064-.672a1.303 1.303 0 00-.24-.541 1.169 1.169 0 00-.488-.361c-.208-.087-.474-.13-.8-.13h-.821v3.409zm4.468-4.09h.835v4.772h-.835v-4.772zm6.5 4.772h-.535l-.127-.561c-.223.254-.446.43-.668.528-.223.098-.48.147-.77.147a2.25 2.25 0 01-.958-.197 2.11 2.11 0 01-.719-.538 2.407 2.407 0 01-.451-.796 2.947 2.947 0 01-.157-.969c0-.339.052-.66.157-.963.105-.303.255-.568.451-.795A2.148 2.148 0 0126.705 29c.258 0 .505.035.739.104.234.069.442.171.625.307.182.136.334.306.454.511a1.8 1.8 0 01.227.709h-.815a1.049 1.049 0 00-.144-.411 1.04 1.04 0 00-.277-.298 1.215 1.215 0 00-.375-.18 1.55 1.55 0 00-.434-.06c-.254 0-.474.051-.658.154-.185.102-.336.24-.452.41a1.855 1.855 0 00-.257.586 2.694 2.694 0 000 1.336c.056.219.141.414.257.585.116.172.267.309.452.411.184.103.404.154.658.154.214.005.403-.023.568-.083a1.08 1.08 0 00.675-.679c.058-.165.09-.347.094-.548h-1.27v-.635h2.032v2.513zm1.386-4.772h.836v4.772h-.836v-4.772zm1.882 0h3.863v.722h-1.517v4.05h-.836v-4.05h-1.51v-.722zm5.557 0h.89l1.838 4.772h-.896l-.448-1.263h-1.905l-.448 1.263h-.862l1.831-4.772zm-.294 2.874h1.457l-.715-2.052h-.02l-.722 2.052zm3.954-2.874h.835v4.05h2.427v.722h-3.262v-4.772z"/></g></svg>