<svg xmlns="http://www.w3.org/2000/svg" width="32" height="24" viewBox="0 0 32 24"><g fill="none" fill-rule="evenodd"><path fill="#6F9BB1" d="M0 2.991A2.989 2.989 0 012.996 0h26.007A2.995 2.995 0 0132 2.991v18.018A2.989 2.989 0 0129.003 24H2.996A2.995 2.995 0 010 21.009V2.991zm2 0v18.018c0 .545.446.991.996.991h26.007a.99.99 0 00.997-.991V2.991A.996.996 0 0029.003 2H2.996A.989.989 0 002 2.991z"/><path fill="#152E8B" d="M14.293 15.683L15.5 9h-1.93l-1.206 6.683h1.929zm3.471-4.772c0-.27.346-.558 1.096-.558a3.769 3.769 0 011.435.248l.174.075.258-1.403A5.306 5.306 0 0019.008 9c-1.892 0-3.227.88-3.238 2.136-.012.932.952 1.45 1.678 1.759.748.317.998.52.994.803-.005.433-.596.634-1.147.634-.766 0-1.173-.099-1.804-.341l-.247-.103-.267 1.45c.446.181 1.276.337 2.133.345 2.014 0 3.324-.867 3.339-2.21.009-.739-.504-1.299-1.61-1.76-.67-.3-1.08-.5-1.075-.802zM24.004 9c-.45 0-.79.12-.989.557l-2.81 6.126h1.988s.322-.762.395-.944c.22 0 2.149-.026 2.423-.026.06.233.233.97.233.97H27L25.469 9h-1.464zm.088 2.51c-.011.015.156-.351.252-.6l.126.522s.364 1.864.44 1.864h-1.57c.154-.474.752-1.786.752-1.786zM8.636 13.62l-.193-.894-.64-3.118C7.693 9.186 7.37 9 6.974 9h-2.95L4 9.2c.485.116.928.306 1.343.488.14.095.62.431.858 1.228l1.348 4.767h1.935L12.364 9h-1.938l-1.79 4.62z"/></g></svg>