<svg xmlns="http://www.w3.org/2000/svg" width="64" height="42" viewBox="0 0 64 42"><g fill="#152E8B" fill-rule="evenodd"><path fill-rule="nonzero" d="M2 4.008v33.984C2 39.103 2.896 40 4.003 40h55.994C61.1 40 62 39.1 62 37.992V4.008A2.004 2.004 0 0059.997 2H4.003C2.9 2 2 2.9 2 4.008zm-2 0A4.008 4.008 0 014.003 0h55.994A4.004 4.004 0 0164 4.008v33.984A4.008 4.008 0 0159.997 42H4.003A4.004 4.004 0 010 37.992V4.008z"/><path d="M18.185 32.176c0 .423-.055.788-.166 1.102a2.19 2.19 0 01-.44.764 1.74 1.74 0 01-.632.443c-.24.097-.49.149-.755.149a3.086 3.086 0 01-1.06-.18v1.719l-1.132.17v-6.321h.963l.102.623c.166-.183.36-.349.584-.496.223-.149.496-.22.816-.22.24 0 .462.044.672.134.207.093.39.23.547.418.159.183.28.417.367.698.09.28.134.613.134.997m-1.144.068c0 .501-.097.874-.293 1.118a.904.904 0 01-.735.364c-.197 0-.358-.016-.483-.049a1.822 1.822 0 01-.398-.152V31.57c.151-.194.31-.35.478-.466a.952.952 0 01.552-.175c.26 0 .47.108.634.327.164.217.245.546.245.989zm4.726 2.34l-.095-.593a2.435 2.435 0 01-.643.49 1.838 1.838 0 01-.879.2c-.39 0-.705-.112-.94-.336-.237-.225-.354-.535-.354-.932 0-.555.226-.964.678-1.232.457-.269 1.145-.448 2.072-.534v-.132c0-.246-.07-.42-.204-.523-.136-.104-.33-.158-.579-.158-.267 0-.526.036-.778.104a5.515 5.515 0 00-.745.265l-.144-.908c.265-.108.543-.195.835-.264.286-.07.615-.103.982-.103.591 0 1.033.118 1.326.354.292.235.442.628.442 1.176v3.126h-.974zm-.16-2.276a4.278 4.278 0 00-.811.16c-.21.07-.375.146-.496.232a.782.782 0 00-.25.28.724.724 0 00-.07.312c0 .162.05.292.146.386.097.096.235.142.41.142.196 0 .382-.04.563-.128.18-.084.347-.205.507-.363v-1.02zm4.41 2.522c-.1.284-.21.521-.33.71-.12.187-.253.34-.397.452a1.309 1.309 0 01-.481.242c-.177.047-.376.07-.596.07a1.617 1.617 0 01-.417-.047l-.15-.932c.076.014.156.033.24.043.085.014.183.022.288.022a.756.756 0 00.738-.484l.103-.301-1.653-4.498 1.182-.151 1.057 3.25 1.021-3.184h1.124l-1.729 4.808zm8.837-.246h-1.19l-1.445-4.743-1.445 4.743H29.59l-1.823-6.349L29.073 28l1.228 4.668 1.362-4.602h1.255l1.361 4.602 1.19-4.602h1.256l-1.87 6.518zm4.838 0l-.094-.593a2.441 2.441 0 01-.643.49 1.833 1.833 0 01-.878.2c-.39 0-.704-.112-.941-.336-.235-.225-.352-.535-.352-.932 0-.555.224-.964.68-1.232.452-.269 1.143-.448 2.066-.534v-.132c0-.246-.066-.42-.2-.523-.137-.104-.332-.158-.582-.158a2.97 2.97 0 00-.775.104c-.25.068-.5.158-.746.265l-.144-.908c.267-.108.544-.195.833-.264.29-.07.619-.103.983-.103.593 0 1.035.118 1.327.354.293.235.44.628.44 1.176v3.126h-.974zm-.162-2.276a4.272 4.272 0 00-.806.16c-.211.07-.377.146-.496.232a.743.743 0 00-.25.28.732.732 0 00-.071.312c0 .162.048.292.145.386.1.096.236.142.412.142.196 0 .381-.04.561-.128.182-.084.35-.205.505-.363v-1.02zm4.452 2.297h-1.105l-1.598-4.5 1.191-.15 1.02 3.241.983-3.174h1.125l-1.616 4.583zM50 32.25c0 .052-.002.101-.005.151l-.003.123h-2.93c.03.45.158.773.373.975.218.201.504.302.856.302.295 0 .568-.05.816-.15.249-.1.5-.241.75-.417l.135.89a3.21 3.21 0 01-.818.404 3.09 3.09 0 01-1.007.152c-.32 0-.617-.046-.889-.142a1.908 1.908 0 01-.702-.43 1.967 1.967 0 01-.467-.738c-.115-.298-.171-.652-.171-1.062 0-.371.051-.703.154-.995.106-.294.251-.544.435-.748.187-.207.406-.362.662-.473a2.1 2.1 0 01.828-.165c.34 0 .636.061.887.18.253.118.458.284.619.497.16.21.283.457.357.742.08.28.12.584.12.904zm-1.38-1.254c-.144-.19-.355-.283-.632-.283a.782.782 0 00-.591.266c-.167.18-.273.457-.316.838h1.815c-.038-.358-.13-.633-.275-.82zm-18.93-7.212L32 11h-3.692L26 23.784h3.69zm6.642-9.128c0-.517.662-1.068 2.096-1.068a7.21 7.21 0 012.745.474l.333.143.494-2.682c-.724-.252-1.865-.523-3.289-.523-3.62 0-6.173 1.683-6.195 4.086-.022 1.783 1.82 2.774 3.211 3.365 1.43.608 1.908.996 1.902 1.537-.01.828-1.14 1.213-2.195 1.213-1.466 0-2.244-.19-3.45-.654l-.474-.195-.51 2.773c.852.346 2.44.644 4.08.66 3.853 0 6.36-1.66 6.387-4.23.017-1.411-.963-2.483-3.081-3.365-1.279-.573-2.065-.956-2.054-1.534zM48.27 11c-.863 0-1.513.228-1.893 1.065L41 23.785h3.803s.617-1.458.758-1.806c.419 0 4.11-.05 4.635-.05.113.445.444 1.855.444 1.855H54L51.07 11h-2.8zm.166 4.801c-.02.03.3-.671.483-1.148l.24 1s.697 3.565.841 3.565h-3c.294-.907 1.436-3.417 1.436-3.417zM18.868 19.84l-.368-1.71-1.224-5.966C17.064 11.356 16.447 11 15.69 11h-5.643l-.047.382c.928.223 1.776.586 2.57.935.266.182 1.184.824 1.64 2.348l2.579 9.12h3.703L26 11h-3.707l-3.425 8.839z"/></g></svg>