<svg xmlns="http://www.w3.org/2000/svg" width="64" height="42" viewBox="0 0 64 42"><g fill="none" fill-rule="evenodd"><path fill="#636363" fill-rule="nonzero" d="M0 4.008A4.008 4.008 0 014.003 0h55.994A4.004 4.004 0 0164 4.008v33.984A4.008 4.008 0 0159.997 42H4.003A4.004 4.004 0 010 37.992V4.008z"/><path fill="#212121" fill-rule="nonzero" d="M62.571.938L1.43 41.062A4 4 0 010 37.992V4.008A4.008 4.008 0 014.003 0h55.994c.98 0 1.878.352 2.574.938z"/><path fill="#FFF" d="M29.69 23.784L32 11h-3.692L26 23.784h3.69zm6.642-9.128c0-.517.662-1.068 2.096-1.068a7.21 7.21 0 012.745.474l.333.143.494-2.682c-.724-.252-1.865-.523-3.289-.523-3.62 0-6.173 1.683-6.195 4.086-.022 1.783 1.82 2.774 3.211 3.365 1.43.608 1.908.996 1.902 1.537-.01.828-1.14 1.213-2.195 1.213-1.466 0-2.244-.19-3.45-.654l-.474-.195-.51 2.773c.852.346 2.44.644 4.08.66 3.853 0 6.36-1.66 6.387-4.23.017-1.411-.963-2.483-3.081-3.365-1.279-.573-2.065-.956-2.054-1.534zM48.27 11c-.863 0-1.513.228-1.893 1.065L41 23.785h3.803s.617-1.458.758-1.806c.419 0 4.11-.05 4.635-.05.113.445.444 1.855.444 1.855H54L51.07 11h-2.8zm.166 4.801c-.02.03.3-.671.483-1.148l.24 1s.697 3.565.841 3.565h-3c.294-.907 1.436-3.417 1.436-3.417zM18.868 19.84l-.368-1.71-1.224-5.966C17.064 11.356 16.447 11 15.69 11h-5.643l-.047.382c.928.223 1.776.586 2.57.935.266.182 1.184.824 1.64 2.348l2.579 9.12h3.703L26 11h-3.707l-3.425 8.839zM14 29.114h2.28c.525 0 .92.113 1.183.34.262.228.394.544.394.95 0 .227-.033.415-.1.565-.067.149-.145.27-.234.36a.914.914 0 01-.264.198c-.087.04-.15.067-.19.08v.013a.853.853 0 01.23.067.68.68 0 01.23.17c.072.079.13.18.178.305.046.125.07.28.07.468 0 .28.02.536.063.765.043.23.108.393.197.491h-.895a.78.78 0 01-.11-.34 4.062 4.062 0 01-.017-.362 3.44 3.44 0 00-.04-.564.985.985 0 00-.147-.395.622.622 0 00-.291-.23 1.283 1.283 0 00-.471-.074h-1.23v1.965H14v-4.772zm.836 2.172h1.37c.267 0 .47-.063.608-.19s.207-.318.207-.572a.884.884 0 00-.066-.37.54.54 0 00-.184-.225.676.676 0 00-.268-.107 1.773 1.773 0 00-.31-.027h-1.357v1.491zm4.443-2.172h3.436v.722h-2.6v1.25h2.406v.681h-2.407v1.397h2.647v.722H19.28v-4.772zm4.316 0h.849l.862 3.65h.014l.962-3.65h.856l.936 3.65h.013l.89-3.65h.848l-1.317 4.772h-.849l-.956-3.65h-.013l-.976 3.65h-.862l-1.257-4.772zm8.46 0h.89l1.838 4.772h-.896l-.448-1.263h-1.905l-.447 1.263h-.863l1.832-4.772zm-.293 2.874h1.457l-.715-2.052h-.02l-.722 2.052zm4.049-2.874h2.279c.526 0 .92.113 1.183.34.263.228.394.544.394.95 0 .227-.033.415-.1.565-.067.149-.145.27-.234.36a.914.914 0 01-.264.198c-.087.04-.15.067-.19.08v.013a.853.853 0 01.23.067.68.68 0 01.231.17.95.95 0 01.177.305c.047.125.07.28.07.468 0 .28.021.536.064.765.042.23.108.393.197.491h-.896a.78.78 0 01-.11-.34 4.062 4.062 0 01-.017-.362 3.44 3.44 0 00-.04-.564.985.985 0 00-.147-.395.622.622 0 00-.29-.23 1.283 1.283 0 00-.472-.074h-1.23v1.965h-.835v-4.772zm.835 2.172h1.37c.268 0 .47-.063.609-.19.138-.127.207-.318.207-.572a.884.884 0 00-.067-.37.54.54 0 00-.184-.225.676.676 0 00-.267-.107 1.773 1.773 0 00-.31-.027h-1.358v1.491zm4.443-2.172h1.979c.365 0 .682.062.95.187.267.125.485.295.654.511.17.216.296.47.378.759.082.29.124.6.124.929 0 .33-.042.64-.124.93a2.168 2.168 0 01-.378.758c-.17.216-.387.386-.655.511a2.227 2.227 0 01-.949.187h-1.979v-4.772zm.836 4.09h.822c.325 0 .592-.043.799-.13.207-.087.37-.207.488-.36a1.31 1.31 0 00.24-.542c.043-.207.064-.431.064-.672 0-.24-.021-.465-.063-.672a1.303 1.303 0 00-.241-.541 1.169 1.169 0 00-.488-.361c-.207-.087-.474-.13-.799-.13h-.822v3.409zm5.112-.909c0 .183.03.34.093.468.063.13.15.235.26.318.112.082.24.142.385.18.145.038.302.057.472.057.182 0 .338-.021.467-.063a.947.947 0 00.315-.164.592.592 0 00.173-.23.69.69 0 00.054-.265c0-.182-.041-.317-.124-.404a.706.706 0 00-.27-.184 5.661 5.661 0 00-.592-.177 41.5 41.5 0 01-.832-.217 1.784 1.784 0 01-.512-.21 1.22 1.22 0 01-.324-.292 1.021 1.021 0 01-.17-.34 1.367 1.367 0 01-.05-.368 1.242 1.242 0 01.548-1.063 1.75 1.75 0 01.561-.257 2.46 2.46 0 01.635-.084c.25 0 .485.032.705.097.221.065.415.161.582.29.167.13.3.29.398.479.098.189.147.409.147.658h-.836c-.022-.307-.127-.525-.314-.652s-.426-.19-.715-.19c-.098 0-.198.01-.301.03a.956.956 0 00-.28.1.616.616 0 00-.211.19.515.515 0 00-.084.301c0 .17.053.302.157.398.105.096.242.168.411.217l.21.057a57.372 57.372 0 00.857.228c.144.037.248.065.31.083.156.05.292.116.408.2.116.085.213.182.29.291a1.2 1.2 0 01.175.351c.038.125.056.25.056.375 0 .267-.054.495-.163.685a1.39 1.39 0 01-.431.464 1.87 1.87 0 01-.609.264 2.91 2.91 0 01-.695.084 2.86 2.86 0 01-.769-.1 1.8 1.8 0 01-.628-.308 1.505 1.505 0 01-.428-.531 1.77 1.77 0 01-.167-.766h.836z"/></g></svg>