<svg xmlns="http://www.w3.org/2000/svg" width="32" height="24" viewBox="0 0 32 24"><g fill="none" fill-rule="evenodd"><path fill="#D3D3D3" d="M0 2.991A2.989 2.989 0 012.996 0h26.007A2.995 2.995 0 0132 2.991v18.018A2.989 2.989 0 0129.003 24H2.996A2.995 2.995 0 010 21.009V2.991z"/><path fill="#909090" d="M14.293 16.17L15.5 9.5h-1.93l-1.206 6.67h1.929zm3.471-4.763c0-.27.346-.557 1.096-.557a3.775 3.775 0 011.435.247l.174.075.258-1.4a5.316 5.316 0 00-1.719-.272c-1.892 0-3.227.878-3.238 2.132-.012.93.952 1.447 1.678 1.755.748.317.998.52.994.802-.005.432-.596.633-1.147.633-.766 0-1.173-.1-1.804-.341l-.247-.102-.267 1.447c.446.18 1.276.336 2.133.343 2.014 0 3.324-.865 3.339-2.206.009-.736-.504-1.295-1.61-1.755-.67-.3-1.08-.5-1.075-.801zm6.24-1.907c-.45 0-.79.12-.989.555l-2.81 6.114h1.988s.322-.76.395-.941c.22 0 2.149-.026 2.423-.026.06.232.233.967.233.967H27L25.469 9.5h-1.464zm.088 2.505c-.011.015.156-.35.252-.6l.126.522s.364 1.86.44 1.86h-1.57c.154-.473.752-1.782.752-1.782zM8.636 14.11l-.193-.892-.64-3.112c-.11-.421-.433-.607-.829-.607h-2.95L4 9.7c.485.116.928.305 1.343.487.14.095.62.43.858 1.225l1.348 4.757h1.935l2.88-6.669h-1.938l-1.79 4.61z"/><path fill="#FFF" d="M14.293 15.67L15.5 9h-1.93l-1.206 6.67h1.929zm3.471-4.763c0-.27.346-.557 1.096-.557a3.775 3.775 0 011.435.247l.174.075.258-1.4A5.316 5.316 0 0019.008 9c-1.892 0-3.227.878-3.238 2.132-.012.93.952 1.447 1.678 1.755.748.317.998.52.994.802-.005.432-.596.633-1.147.633-.766 0-1.173-.1-1.804-.341l-.247-.102-.267 1.447c.446.18 1.276.336 2.133.343 2.014 0 3.324-.865 3.339-2.206.009-.736-.504-1.295-1.61-1.755-.67-.3-1.08-.5-1.075-.801zM24.004 9c-.45 0-.79.12-.989.555l-2.81 6.114h1.988s.322-.76.395-.941c.22 0 2.149-.026 2.423-.026.06.232.233.967.233.967H27L25.469 9h-1.464zm.088 2.505c-.011.015.156-.35.252-.6l.126.522s.364 1.86.44 1.86h-1.57c.154-.473.752-1.782.752-1.782zM8.636 13.61l-.193-.892-.64-3.112C7.693 9.186 7.37 9 6.974 9h-2.95L4 9.2c.485.116.928.305 1.343.487.14.095.62.43.858 1.225l1.348 4.757h1.935L12.364 9h-1.938l-1.79 4.61z"/></g></svg>