<svg xmlns="http://www.w3.org/2000/svg" width="36" height="36"><g fill="none" fill-rule="evenodd"><path d="M0 0h36v36H0z"/><path d="M0 0h36v36H0z"/><g transform="translate(5 6)"><circle cx="8" cy="22" r="2" fill="#666672"/><circle cx="21" cy="22" r="2" fill="#666672"/><path fill="#666672" fill-rule="nonzero" d="M0 2V0h4.809l1.878 8.788-1.955.418L3.192 2z"/><path fill="#9156E6" d="M6 4h17.386a2 2 0 011.943 2.474L22.97 16.15a2 2 0 01-1.944 1.526H8.01a2 2 0 01-1.959-1.593L4.042 6.406A2 2 0 016 4z"/></g></g></svg>