<?xml version="1.0" encoding="UTF-8"?>
<svg width="30px" height="24px" viewBox="0 0 30 24" version="1.1" xmlns="http://www.w3.org/2000/svg" xmlns:xlink="http://www.w3.org/1999/xlink">
    <title>Icon</title>
    <defs>
        <path d="M28,20.9688687 L28,25.1111111 C28,25.1111111 27.2837082,26.6934238 25.2323399,28.0576725 C23.6779005,29.091442 21.3568652,30 18,30 C10.2131348,30 8,25.1111111 8,25.1111111 L8,20.9688687 L15.1926737,24.7767548 C16.8689449,25.6641925 18.8608151,25.7045306 20.5657771,24.897769 L20.8073263,24.7767548 L28,20.9688687 Z M19.8715509,6.99082106 L32.0785899,13.4533711 C32.9327695,13.9055838 33.258628,14.964624 32.8064153,15.8188035 C32.6422532,16.1288874 32.3886738,16.3824668 32.0785899,16.5466289 L19.8715509,23.0091789 C18.7008217,23.6289767 17.2991783,23.6289767 16.1284491,23.0091789 L3.92141006,16.5466289 C3.06723053,16.0944162 2.74137202,15.035376 3.19358471,14.1811965 C3.35774677,13.8711126 3.61132618,13.6175332 3.92141006,13.4533711 L16.1284491,6.99082106 C17.2991783,6.37102328 18.7008217,6.37102328 19.8715509,6.99082106 Z" id="path-1"></path>
        <rect id="path-3" x="30" y="19" width="2" height="5" rx="1"></rect>
    </defs>
    <g id="Page-1" stroke="none" stroke-width="1" fill="none" fill-rule="evenodd">
        <g id="elements/left-bar/item-copy-36" transform="translate(-15.000000, -24.000000)">
            <g id="x/Icons/filled/ic_education" transform="translate(12.000000, 18.000000)">
                <mask id="mask-2" fill="white">
                    <use xlink:href="#path-1"></use>
                </mask>
                <use id="Mask" fill="#5B5BAD" fill-rule="evenodd" xlink:href="#path-1"></use>
                <mask id="mask-4" fill="white">
                    <use xlink:href="#path-3"></use>
                </mask>
                <use id="Mask" fill="#808B95" fill-rule="evenodd" xlink:href="#path-3"></use>
            </g>
        </g>
    </g>
</svg>