<svg xmlns="http://www.w3.org/2000/svg" width="36" height="36" viewBox="0 0 36 36"><g fill="none" fill-rule="evenodd"><path d="M0 0h36v36H0z"/><path fill="#17B897" fill-rule="nonzero" d="M18.208 23.335c-5.44 0-9.708-7.547-9.708-12.987 0-5.439 4.269-9.82 9.708-9.82 5.44 0 9.849 4.41 9.849 9.848 0 5.44-4.41 12.959-9.849 12.959zm1.91-14.864c.061.115.167.345.273.645.174.488.276.967.276 1.384 0 .417-.102.896-.276 1.384-.106.3-.212.53-.273.645a1 1 0 101.764.942c.105-.197.25-.514.394-.917.243-.685.391-1.377.391-2.054 0-.677-.148-1.37-.391-2.054a7.042 7.042 0 00-.394-.917 1 1 0 10-1.764.942z"/><path fill="#7D8894" d="M14.174 25.271s.819-3.313 3.808-3.313 3.967 2.36 3.967 3.313h-2c0-.523-.688-1.313-1.967-1.313-.588 0-1.009.263-1.385.802a3.7 3.7 0 00-.298.511h-2.125zm3.24 1.036a1 1 0 011.157 1.631 1.533 1.533 0 00-.265.28c-.18.24-.283.5-.283.783 0 .08.118.243.54.628l.123.111c.934.848 1.32 1.375 1.32 2.309 0 .805-.269 1.507-.708 2.09a3.29 3.29 0 01-.742.734 1 1 0 11-1.127-1.652c.043-.03.154-.13.271-.285.194-.256.305-.549.305-.887 0-.16-.142-.355-.663-.828l-.126-.114c-.828-.755-1.193-1.26-1.193-2.106 0-.758.262-1.425.687-1.988.25-.332.505-.565.704-.706z"/></g></svg>