<svg xmlns="http://www.w3.org/2000/svg" width="36" height="36" viewBox="0 0 36 36"><g fill="none" fill-rule="evenodd"><path d="M0 0h36v36H0z"/><path fill="#17B897" d="M7 16.009L18 10l11 6.009v11.533A3.456 3.456 0 0125.55 31h-15.1A3.454 3.454 0 017 27.542V16.009zm7 1.988v6.006c0 .544.446.997.997.997h6.006c.544 0 .997-.446.997-.997v-6.006c0-.544-.446-.997-.997-.997h-6.006c-.544 0-.997.446-.997.997zM16 19h4v4h-4v-4z"/><path fill="#7D8894" d="M18 7.158L6.504 13.864a1 1 0 01-1.008-1.728l12-7a1 1 0 011.008 0l12.002 7a1 1 0 11-1.007 1.728L18 7.158z"/></g></svg>