<svg xmlns="http://www.w3.org/2000/svg" width="36" height="36" viewBox="0 0 36 36"><g fill="none" fill-rule="evenodd"><path fill="#17B897" d="M24.027 24H12.973a4.5 4.5 0 00-8.946 0H4c-1.105 0-2-.894-2-1.993v-5.52c0-.167.02-.33 0-.487l.134-.233c.075-.196.18-.378.31-.54l2.58-4.497C5.57 9.775 6.914 9 8.005 9h13.669c1.099 0 2.53.71 3.2 1.588l2.814 3.692c.506.091.985.203 1.368.325l4.045 1.29C34.15 16.229 35 17.39 35 18.51v3.48c0 1.11-.891 2.01-2.007 2.01h-.02a4.5 4.5 0 00-8.946 0zM8 14a1 1 0 001.007 1h11.986a1 1 0 100-2H9.007C8.45 13 8 13.448 8 14z"/><path fill="#7D8894" d="M8.5 27a2.5 2.5 0 110-5 2.5 2.5 0 010 5zm20 0a2.5 2.5 0 110-5 2.5 2.5 0 010 5z"/></g></svg>