<svg xmlns="http://www.w3.org/2000/svg" width="36" height="36" viewBox="0 0 36 36"><g fill="none" fill-rule="evenodd"><path fill="#7D8894" d="M19 32a1 1 0 01-2 0v-2a1 1 0 012 0v2zM4.994 23.277a1 1 0 01-.618-1.902l1.902-.618a1 1 0 01.618 1.902l-1.902.618zM8.962 7.262a1 1 0 011.618-1.176l1.176 1.618a1 1 0 01-1.618 1.176L8.962 7.262zM25.42 6.086a1 1 0 011.618 1.176L25.862 8.88a1 1 0 01-1.618-1.176l1.176-1.618zm6.204 15.29a1 1 0 01-.618 1.901l-1.902-.618a1 1 0 01.618-1.902l1.902.618z"/><path fill="#17B897" fill-rule="nonzero" d="M18 26l-6.436 3.383a1 1 0 01-1.45-1.054l1.229-7.166-5.207-5.075a1 1 0 01.554-1.706l7.196-1.045 3.217-6.52a1 1 0 011.794 0l3.217 6.52 7.196 1.045a1 1 0 01.554 1.706l-5.207 5.075 1.23 7.166a1 1 0 01-1.451 1.054L18 26z"/></g></svg>