<svg xmlns="http://www.w3.org/2000/svg" width="17" height="17" viewBox="0 0 17 17">
    <path class="repaint" fill="#2bb0ed" fill-rule="nonzero"
          d="M13.547 6.1c-1.47-3.95-6.056-4.645-9.145-2.054a6.743 6.743 0 00-2.311 3.896c-.342 1.793.096 3.596 1.243 4.964 2.158 2.571 6.146 2.805 8.91.486a.9.9 0 111.157 1.38c-3.508 2.943-8.633 2.642-11.446-.71C.453 12.273-.119 9.92.323 7.606a8.543 8.543 0 012.922-4.937C7.134-.595 13.036.22 15.1 5.13V2.56a.9.9 0 111.8 0V7a.9.9 0 01-.9.9h-5a.9.9 0 110-1.8h2.547z"/>
</svg>