<svg xmlns="http://www.w3.org/2000/svg" width="104" height="104" viewBox="0 0 104 104"><g fill="none" fill-rule="evenodd"><path d="M0 0h104v104H0z"/><g transform="translate(2 14)"><circle class="icon__background" cx="58" cy="40" r="40" fill="#DFE9EE"/><path class="icon__shadow" fill="#BFD3DD" d="M27.37 40.796h-5.265a2.105 2.105 0 01-1.724-3.313l8.414-11.586A2.105 2.105 0 0130.52 25h1.997L27.37 40.796z"/><g transform="translate(0 19)"><path stroke="#4C6470" stroke-linecap="round" stroke-linejoin="round" stroke-width="2" d="M73.344 35.726a10.597 10.597 0 00-3.546.003m-3.978 1.564a10.517 10.517 0 00-4.767 8.784H34.737a10.5 10.5 0 00-3.462-7.775M27.4 36.07a10.52 10.52 0 00-3.188-.492c-.924 0-1.82.119-2.673.342m-3.557 1.698a10.512 10.512 0 00-4.297 8.458H3.158m.279 0H.875l.03-3.427h2.253m0-3.416v-15.28a2 2 0 01.44-1.252L20.859 1.18c.4-.479.992-.756 1.616-.756h38.77c.67 0 1.3.32 1.697.86l13.794 18.894c.307.418.757.708 1.265.815l18.22 5.819a2.105 2.105 0 011.674 2.06v10.694m0 3.084h2.043v3.427H82.105a10.486 10.486 0 00-2.636-6.94"/><circle cx="71.5" cy="46.5" r="2.5" fill="#4C6470"/><circle cx="71.5" cy="46.5" r="6.5" stroke="#4C6470" stroke-linecap="round" stroke-linejoin="round" stroke-width="2"/><circle cx="24.5" cy="46.5" r="2.5" fill="#4C6470"/><circle cx="24.5" cy="46.5" r="6.5" stroke="#4C6470" stroke-linecap="round" stroke-linejoin="round" stroke-width="2"/><path stroke="#4C6470" stroke-linecap="round" stroke-linejoin="round" stroke-width="2" d="M48.421 6.263h10.817c.705 0 1.363.353 1.753.94l6.998 11.526A2.105 2.105 0 0166.235 22H48.421M33.253 6.263h-2.68c-.687 0-1.331.335-1.725.898l-8.414 11.585a2.105 2.105 0 001.724 3.313h18.048a2.105 2.105 0 002.105-2.105V9.368"/><path stroke="#4C6470" stroke-linecap="round" stroke-width="2" d="M94.553 32.557h-.974a2 2 0 01-2-2v-2.241m-43.053-1.737h4.21"/><path stroke="#4C6470" stroke-linecap="round" stroke-linejoin="round" stroke-width="2" d="M6 27h2.202a1.984 1.984 0 110 3.968H6.004"/><path stroke="#4C6470" stroke-linecap="round" stroke-width="2" d="M7.5 8.5H2M13 2H5M3.5 15.5H0M45 24v8"/></g></g></g></svg>