<svg xmlns="http://www.w3.org/2000/svg" width="104" height="104" viewBox="0 0 104 104"><g fill="none" fill-rule="evenodd"><path d="M0 0h104v104H0z"/><g transform="translate(8 4)"><circle class="icon__background" cx="52" cy="43" r="40" fill="#D4E6D6"/><path class="icon__shadow" fill="#A9CEAD" d="M33.992 61a39.452 39.452 0 01-3.212-.465A4.026 4.026 0 0129 57.187V28.023C29 25.8 30.788 24 32.994 24H65v5.028H37.992a4 4 0 00-4 4V61z"/><path stroke="#4C6470" stroke-linecap="round" stroke-linejoin="round" stroke-width="2" d="M60.143 71.158C52.65 83.778 36.94 91 32.493 91 26.812 91 2.69 78.938.922 59.488.139 50.838-.146 36.342.07 16h64.844c.039 3.662.063 6.353.072 8.073"/><g stroke="#4C6470" stroke-width="2"><path stroke-linecap="round" d="M36.88 65c-.5 0-.978-.204-1.331-.57A1.973 1.973 0 0135 63.057V31.944c0-1.073.843-1.944 1.882-1.944h44.236c1.04 0 1.882.873 1.882 1.946V63a2 2 0 01-2 2H36.88z"/><path d="M34.49 37h49.02"/><path stroke-linecap="round" d="M35 42h48M41 58h11"/></g><g transform="translate(71)"><path fill="#4C6470" d="M1.091 21.304l3.685.004a.772.772 0 01.002 1.544l-3.685-.005a.772.772 0 01-.002-1.543z"/><path fill="#4C6470" d="M2.16 20.234a.772.772 0 111.544.002l.005 3.685a.772.772 0 01-1.544-.002l-.004-3.685z"/><path stroke="#4C6470" stroke-width="2" d="M16.5 14a2.5 2.5 0 100-5 2.5 2.5 0 000 5z"/><circle cx="12" cy="1" r="1" fill="#4C6470"/></g></g></g></svg>