<svg xmlns="http://www.w3.org/2000/svg" width="104" height="104" viewBox="0 0 104 104"><g fill="none" fill-rule="evenodd"><path d="M0 0h104v104H0z"/><g transform="translate(7 12)"><circle class="icon__background" cx="40" cy="40" r="40" fill="#F9E8E6"/><path class="icon__shadow" fill="#F5D1CD" d="M28.124 20.094h2.786c3.51 0 4.333 3.626 4.333 9.925v46.769H49.71c.387-34.916.387-53.814 0-56.694C49.13 15.774 49.128 9 38.81 9c-6.88 0-10.442 3.698-10.686 11.094z"/><g transform="translate(1 8)"><path stroke="#4C6470" stroke-linecap="round" stroke-width="2" d="M55 17.32h25"/><path stroke="#4D6571" stroke-linecap="round" stroke-linejoin="round" stroke-width="2" d="M26.664 54c0 8.151-6.488 14.76-14.64 14.76-.344 0-.685-.012-1.024-.036l35.793.035M35.16 1C30.978 2.72 27 6.973 27 13.781v35.756M7.782 67.044A14.802 14.802 0 010 54h22.468m65.329 2.647v15.706H49.66V14.439C49.64 8.06 45.26 2.406 39.174.602M45.975.03C58.905.018 66.603.008 73.068 0L45.975.03zm42 53.31V14C87.678 7.46 82.567 1.535 75.748.255"/><path stroke="#4C6470" stroke-linecap="round" stroke-width="2" d="M9 61.32h10.62m35.38 0h11M55 8.214h24M62 27h20"/><circle cx="56" cy="27" r="2" fill="#4C6470"/><path stroke="#4C6470" stroke-linecap="round" stroke-width="2" d="M62 37h20"/><circle cx="56" cy="37" r="2" fill="#4C6470"/><path stroke="#4C6470" stroke-linecap="round" stroke-width="2" d="M62 47h20"/><circle cx="56" cy="47" r="2" fill="#4C6470"/><path stroke="#4C6470" stroke-linecap="round" stroke-width="2" d="M73 60l2.944 3 6.136-6"/></g></g></g></svg>