<svg xmlns="http://www.w3.org/2000/svg" width="104" height="104" viewBox="0 0 104 104"><g fill="none" fill-rule="evenodd"><path d="M0 0h104v104H0z"/><g transform="translate(4 5)"><ellipse class="icon__background" cx="55.905" cy="40" fill="#FFF3D0" rx="39.905" ry="40"/><path class="icon__shadow" fill="#FFE7A2" d="M60 79.792V44a4 4 0 00-4-4H16c0-1.693.105-3.362.309-5H61a4 4 0 014 4v37c0 1.39-.708 2.613-1.783 3.33a39.782 39.782 0 01-3.217.462z"/><g stroke="#4C6470" stroke-width="2"><path stroke-linecap="round" d="M46.058 83H3.31a2.272 2.272 0 01-1.635-.7A2.423 2.423 0 011 80.612V42.39C1 41.069 2.036 40 3.314 40h54.372C58.965 40 60 41.073 60 42.391V70"/><path d="M.598 48.5h59.804"/><path stroke-linecap="round" d="M2 54.5h58M9 74h14"/></g><path stroke="#4C6470" stroke-linecap="round" stroke-linejoin="round" stroke-width="2" d="M65 81.957L50 65v22.826l5.146-3.702 3.3 8.899 3.608-1.338-3.3-8.899z"/><g transform="translate(39 14)"><path fill="#4C6470" d="M9.091 14.304l3.685.004a.772.772 0 01.002 1.544l-3.685-.005a.772.772 0 01-.002-1.543z"/><path fill="#4C6470" d="M10.16 13.234a.772.772 0 111.544.002l.005 3.685a.772.772 0 01-1.544-.002l-.004-3.685zM24.664 8.87l1.735 1.739a.515.515 0 01-.727.728l-1.735-1.739a.515.515 0 01.727-.728z"/><path fill="#4C6470" d="M25.672 8.87a.515.515 0 01.727.729l-1.735 1.738a.515.515 0 01-.727-.729l1.735-1.738z"/><path stroke="#4C6470" stroke-width="2" d="M25.008 14a4.004 4.004 0 004.008-4c0-2.21-1.795-4-4.008-4A4.004 4.004 0 0021 10c0 2.21 1.794 4 4.008 4zM2.505 5A2.502 2.502 0 005.01 2.5C5.01 1.12 3.888 0 2.505 0A2.502 2.502 0 000 2.5C0 3.88 1.122 5 2.505 5z"/><circle cx="38" cy="37" r="1" fill="#4C6470"/></g></g></g></svg>