<svg xmlns="http://www.w3.org/2000/svg" width="104" height="104" viewBox="0 0 104 104"><g fill="none" fill-rule="evenodd"><path d="M0 0h104v104H0z"/><g transform="translate(1 7)"><circle class="icon__background" cx="61" cy="44" r="40" fill="#FCDFBD"/><path class="icon__shadow" fill="#F8B565" d="M68 39.772a16.246 16.246 0 0012.063 5.344c8.996 0 16.289-7.293 16.289-16.289 0-2.053-.38-4.018-1.074-5.827a16.229 16.229 0 014.225 10.945c0 8.996-7.292 16.288-16.288 16.288-6.943 0-12.87-4.343-15.215-10.46z"/><g stroke="#4C6470" stroke-width="2" transform="translate(62)"><path stroke-linecap="round" stroke-linejoin="round" d="M24.717 17.949C16.128 15.647 7.3 20.744 4.999 29.333 2.697 37.922 7.794 46.75 16.383 49.051c8.589 2.302 17.417-2.795 19.718-11.384 1.766-6.588-.822-13.316-5.999-17.133"/><path stroke-linecap="round" stroke-linejoin="round" d="M20.337 21.045c-2.342.44-5.003 1.64-7.13 3.426-2.337 1.96-4.3 4.937-4.984 7.184m8.944-4.338c-1.84 1.416-3.662 3.792-4.434 5.766m18.545.055s-.348-3.077-1.423-5.033c-.992-1.803-2.123-3.18-3.392-4.13m.099 11.522c-.077-1.236-.633-3.73-1.227-4.937-1.59-3.23-3.152-4.448-3.152-4.448M7.9 36.306c3.507 2.583 7.75 4.094 12.32 4.094 4.86 0 9.35-1.71 12.98-4.6"/><circle cx="9.05" cy="5.9" r="3.45"/><path stroke-linecap="round" d="M12.5 15.1l-1.15-3.45"/><circle cx="32.905" cy="5.905" r="4" transform="rotate(135 32.905 5.905)"/><path stroke-linecap="round" d="M30 13l-3.241 8.052M19.55 31.35c-.303.224-.686.683-1.15 1.378a13.816 13.816 0 00-1.15 2.072"/><path stroke-linecap="round" stroke-linejoin="round" d="M13 43.328A18.165 18.165 0 0020.666 45c3.032 0 5.876-.727 8.334-2"/></g><g transform="translate(9 44)"><path stroke="#4C6470" stroke-linecap="round" stroke-width="2" d="M14.266 41h7.927C24.295 41 26 42.573 26 44.514V45H0v-.486C0 42.574 1.705 41 3.807 41h5.216m8.509-8h3.319c1 0 1.838-.742 1.934-1.715.347-3.494.274-8.169-.218-14.026C21.989 10.384 18.503 4.631 12.11 0v5.65l-7.956 4.994a2.422 2.422 0 00-.952 3.027c.487 1.113 1.702 1.745 2.92 1.519l8.703-1.617c-3.524 2.714-6.263 5.75-8.217 9.106-1.554 2.67-2.524 5.392-2.91 8.167-.145 1.04.6 1.996 1.664 2.137.087.011.175.017.262.017h6.272m8.149 4v3M7 40v-3"/><path stroke="#4C6470" stroke-linecap="round" stroke-width="2" d="M4 32l2.26 4h13.82L22 32.375M19.225 29v-6"/><circle cx="13" cy="10" r="1" fill="#4C6470"/></g><g stroke="#4C6470" stroke-linecap="round" stroke-width="2"><path stroke-linejoin="round" d="M0 83v7h100v-7"/><path stroke-linejoin="round" d="M6.777 85H3V30h39.017C46.426 30 50 33.556 50 37.943v39.114C50 81.444 46.426 85 42.017 85h-3.645M97 47.685V85H60.328C54.624 85 50 80.703 50 75.402V39.598C50 34.298 54.624 30 60.328 30h2.167"/><path d="M50 80c0-3.866 2.937-7 6.56-7H92M10 37.15h31.839m15.57 17H91m-33.591-9H66m-35.591 0H42m-7 9h7m-5 9h5m-32-18h5M57.818 62H79.6M9.5 74.5H6M36 73h7.28c3.712 0 6.72 3.134 6.72 7"/></g></g></g></svg>