<svg xmlns="http://www.w3.org/2000/svg" width="104" height="104" viewBox="0 0 104 104"><g fill="none" fill-rule="evenodd"><path d="M0 0h104v104H0z"/><g transform="translate(0 9)"><ellipse class="icon__background" cx="40.292" cy="46" fill="#CFDDE5" rx="40.292" ry="40"/><g stroke="#4C6470" stroke-width="2" transform="translate(17)"><path stroke-linecap="round" d="M8.255 5.97H.324C.564 2.456 2.369.7 5.739.7c3.371 0 5.332 1.756 5.884 5.268v34.843m0 30.328v10.942c.55 3.648 2.675 5.471 6.374 5.471 3.698 0 5.633-1.823 5.805-5.47H86c0 3.647-1.66 5.47-4.98 5.47H25.692M12.788.701h54.469c3.699.141 5.522 1.895 5.468 5.261-.053 3.366-.08 27.768-.08 73.205M30.817 45.924h34.669M33.233 56.107h32.253M19.631 35.142H65.16M16.206 74.376H45.38m20.514-46.841H31.698m34.196-4.612h-13.71"/><rect width="10.86" height="10.782" x="55.229" y="7.29" rx="2"/></g><path class="icon__shadow" fill="#8FB1C2" d="M26 60.34A8.504 8.504 0 0037.34 49a8.472 8.472 0 012.34 1.66A8.5 8.5 0 1126 60.34z"/><g stroke="#4C6470" stroke-width="2" transform="translate(3 38)"><circle cx="30.385" cy="18.385" r="13" transform="rotate(45 30.385 18.385)"/><circle cx="30.021" cy="18.531" r="8.139" transform="rotate(45 30.02 18.531)"/><path stroke-linecap="round" d="M19.566 29.384l-4.648 4.65"/><rect width="5.309" height="15.778" x="4.825" y="33.582" rx="2" transform="rotate(45 7.48 41.47)"/><path stroke-linecap="round" d="M27.296 15.8c.517-1.016 1.652-1.733 2.98-1.756 1.33-.023 2.488.654 3.04 1.652"/></g></g></g></svg>