<svg xmlns="http://www.w3.org/2000/svg" xmlns:xlink="http://www.w3.org/1999/xlink" width="17" height="17" viewBox="0 0 17 17">
     <path d="M15.1 5.13V2.56c0-.498.403-.9.9-.9s.9.402.9.9V7c0 .497-.403.9-.9.9h-5c-.497 0-.9-.403-.9-.9s.403-.9.9-.9h2.547c-1.47-3.95-6.056-4.645-9.145-2.054C3.18 5.072 2.375 6.45 2.091 7.942c-.342 1.793.096 3.596 1.243 4.964 2.158 2.571 6.146 2.805 8.91.486.381-.32.949-.27 1.268.111.32.38.27.949-.11 1.268-3.509 2.944-8.634 2.643-11.447-.708C.453 12.272-.119 9.919.323 7.605.684 5.707 1.705 3.96 3.245 2.668 7.134-.595 13.035.22 15.1 5.13z"/>
</svg>
