<svg xmlns="http://www.w3.org/2000/svg" width="96" height="28" viewBox="0 0 96 28">
    <g fill="#000" fill-rule="nonzero">
        <path d="M95.43 3.5v21c0 1.62-1.34 2.94-2.986 2.94H3.556C1.909 27.44.57 26.12.57 24.5v-21C.57 1.88 1.91.56 3.556.56h88.888c1.647 0 2.986 1.32 2.986 2.94zM3.556 0C1.6 0 0 1.576 0 3.5v21C0 26.424 1.6 28 3.556 28h88.888C94.4 28 96 26.424 96 24.5v-21C96 1.576 94.4 0 92.444 0H3.556z"/>
        <path d="M31.571 4.664c-.629 0-1.173.216-1.615.642-.443.426-.666.96-.666 1.589 0 .628.223 1.161.665 1.59h.001c.442.423.986.64 1.615.64.657 0 1.203-.213 1.618-.633.364-.358.548-.84.548-1.43v-.036l-.005-.003a1.42 1.42 0 0 0-.029-.288l-.012-.055H31.5v.636h1.515c-.042.299-.129.55-.305.72-.302.294-.68.442-1.14.442a1.59 1.59 0 0 1-1.115-.439c-.312-.294-.467-.673-.467-1.145 0-.473.155-.847.467-1.142a1.575 1.575 0 0 1 1.115-.438c.481 0 .844.152 1.116.463l.05.057.47-.461-.041-.049a1.803 1.803 0 0 0-.693-.48 2.364 2.364 0 0 0-.902-.18zM34.382 4.758V9.03h2.627v-.646h-1.937V7.213h1.746v-.637h-1.746V5.405h1.937v-.647zM37.44 4.758v.647h1.189V9.03h.69V5.405h1.188v-.647zM42.484 4.758V9.03h.688V4.758zM43.721 4.758v.647h1.193V9.03h.686V5.405h1.192v-.647zM50.701 4.664c-.64 0-1.181.217-1.614.647-.43.43-.648.962-.648 1.584 0 .621.218 1.154.648 1.583.433.43.974.647 1.614.647.637 0 1.179-.217 1.61-.647.432-.43.649-.962.649-1.583 0-.618-.218-1.148-.652-1.58-.432-.434-.974-.651-1.607-.651zm0 .646c.438 0 .805.147 1.105.445.302.296.454.673.454 1.14 0 .466-.152.842-.454 1.139-.3.297-.667.444-1.105.444-.441 0-.804-.147-1.108-.445-.301-.296-.454-.672-.454-1.138 0-.467.153-.843.454-1.14a1.512 1.512 0 0 1 1.108-.445zM53.588 4.758V9.03h.685V6.385l-.018-.585 2.076 3.23h.681V4.758h-.688v2.49l.017.583-1.978-3.073zM48.375 14.997c-1.667 0-3.03 1.232-3.03 2.932 0 1.687 1.363 2.932 3.03 2.932 1.672 0 3.034-1.245 3.034-2.932 0-1.7-1.362-2.932-3.034-2.932zm0 4.71c-.915 0-1.702-.734-1.702-1.778 0-1.057.787-1.778 1.702-1.778.915 0 1.706.72 1.706 1.778 0 1.044-.79 1.777-1.706 1.777zm-6.61-4.71c-1.672 0-3.03 1.232-3.03 2.932 0 1.687 1.358 2.932 3.03 2.932 1.67 0 3.03-1.245 3.03-2.932 0-1.7-1.36-2.932-3.03-2.932zm0 4.71c-.916 0-1.706-.734-1.706-1.778 0-1.057.79-1.778 1.705-1.778s1.703.72 1.703 1.778c0 1.044-.788 1.777-1.703 1.777zm-7.867-3.812v1.247h3.064c-.09.696-.329 1.208-.696 1.565-.448.43-1.144.909-2.368.909-1.886 0-3.363-1.478-3.363-3.31 0-1.83 1.477-3.309 3.363-3.309 1.02 0 1.761.387 2.309.889l.904-.878c-.766-.71-1.784-1.256-3.213-1.256-2.586 0-4.76 2.043-4.76 4.555 0 2.51 2.174 4.554 4.76 4.554 1.398 0 2.447-.445 3.273-1.279.846-.821 1.11-1.976 1.11-2.908 0-.29-.025-.556-.07-.779h-4.313zm32.168.967c-.25-.656-1.02-1.865-2.586-1.865-1.554 0-2.847 1.188-2.847 2.932 0 1.643 1.28 2.932 2.996 2.932a3.014 3.014 0 0 0 2.517-1.3l-1.03-.666c-.343.488-.811.811-1.487.811-.672 0-1.154-.299-1.463-.888l4.04-1.623-.14-.333zm-4.118.976a1.63 1.63 0 0 1 1.577-1.71c.527 0 .974.256 1.123.622l-2.7 1.088zm-3.283 2.845h1.328v-8.618h-1.328v8.618zM56.49 15.65h-.045c-.298-.343-.867-.653-1.588-.653-1.512 0-2.895 1.289-2.895 2.942 0 1.643 1.383 2.922 2.895 2.922.721 0 1.29-.313 1.588-.666h.045v.42c0 1.122-.617 1.724-1.612 1.724-.811 0-1.314-.569-1.522-1.047l-1.155.468a2.88 2.88 0 0 0 2.677 1.734c1.557 0 2.87-.89 2.87-3.054v-5.265h-1.258v.475zm-1.519 4.056c-.915 0-1.68-.743-1.68-1.767 0-1.034.765-1.788 1.68-1.788.902 0 1.613.754 1.613 1.788 0 1.024-.711 1.767-1.613 1.767zm17.31-7.641h-3.176v8.618h1.324v-3.266h1.852c1.47 0 2.912-1.033 2.912-2.676 0-1.643-1.445-2.676-2.912-2.676zm.034 4.154H70.43v-2.955h1.886c.989 0 1.553.797 1.553 1.477 0 .667-.564 1.478-1.553 1.478zm8.186-1.239c-.957 0-1.952.41-2.361 1.32l1.175.478c.253-.478.718-.633 1.21-.633.686 0 1.383.4 1.394 1.108v.09a2.978 2.978 0 0 0-1.384-.333c-1.265 0-2.555.676-2.555 1.939 0 1.154 1.037 1.898 2.202 1.898.891 0 1.383-.39 1.692-.844h.045v.666h1.279v-3.306c0-1.528-1.175-2.383-2.697-2.383zm-.16 4.723c-.433 0-1.037-.209-1.037-.73 0-.667.753-.923 1.404-.923.583 0 .857.125 1.21.29-.103.797-.81 1.363-1.577 1.363zm7.516-4.534l-1.522 3.736h-.045l-1.574-3.736H83.29l2.364 5.22-1.349 2.906h1.384l3.643-8.126h-1.473zm-11.936 5.514h1.328v-8.618h-1.328v8.618zM7.409 5.197c-.209.212-.33.542-.33.97v15.246c0 .428.121.758.33.97l.051.046 8.799-8.54v-.201L7.46 5.148l-.051.05z"/>
        <path d="M7.457 22.54l8.907-8.76-8.9-8.743c-.237.136-.384.45-.384.864v15.784c.003.413.144.705.377.856zM16.683 13.539l2.653-2.61L8.532 5.103a1.211 1.211 0 0 0-.6-.16l8.75 8.595zM16.683 14.024l-8.777 8.632c.22.004.437-.053.627-.163l10.825-5.843-2.675-2.626zM23.25 13.044L19.654 11.1l-2.725 2.68 2.746 2.698 3.574-1.937c.76-.411.76-1.089 0-1.498z"/>
    </g>
</svg>
