<svg xmlns="http://www.w3.org/2000/svg" xmlns:xlink="http://www.w3.org/1999/xlink" width="36" height="36" viewBox="0 0 36 36">
    <defs>
        <linearGradient id="905pqn3etb" x1="29.968%" x2="100%" y1="50%" y2="50%">
            <stop offset="0%" stop-color="#19B7EB"/>
            <stop offset="100%" stop-color="#000014"/>
        </linearGradient>
        <linearGradient id="vi175dbxod" x1="25.396%" x2="100%" y1="50%" y2="50%">
            <stop offset="0%" stop-color="#99CA1A"/>
            <stop offset="100%" stop-color="#000014"/>
        </linearGradient>
        <linearGradient id="47ih1kxx7e" x1="0%" x2="100%" y1="50%" y2="50%">
            <stop offset="0%" stop-color="#C442EE"/>
            <stop offset="100%" stop-color="#000014"/>
        </linearGradient>
        <linearGradient id="zqnjcaf8nf" x1="0%" x2="100%" y1="50%" y2="50%">
            <stop offset="0%" stop-color="#C442EE"/>
            <stop offset="100%" stop-color="#000014"/>
        </linearGradient>
        <linearGradient id="ocuozcribg" x1="29.968%" x2="100%" y1="50%" y2="50%">
            <stop offset="0%" stop-color="#1967EB"/>
            <stop offset="100%" stop-color="#000014"/>
        </linearGradient>
        <linearGradient id="0oqxn6e85h" x1="25.396%" x2="100%" y1="50%" y2="50%">
            <stop offset="0%" stop-color="#CA1A91"/>
            <stop offset="100%" stop-color="#000014"/>
        </linearGradient>
        <linearGradient id="0ydaz4n14i" x1="0%" x2="100%" y1="50%" y2="50%">
            <stop offset="0%" stop-color="#14D133"/>
            <stop offset="100%" stop-color="#000014"/>
        </linearGradient>
        <linearGradient id="5qmqo86y0j" x1="29.968%" x2="100%" y1="50%" y2="50%">
            <stop offset="0%" stop-color="#1967EB"/>
            <stop offset="100%" stop-color="#000014"/>
        </linearGradient>
        <linearGradient id="z13mydx0sk" x1="21.946%" x2="100%" y1="50%" y2="50%">
            <stop offset="0%" stop-color="#CFDE18"/>
            <stop offset="100%" stop-color="#000014"/>
        </linearGradient>
        <rect id="j5o4k0g8ma" width="28" height="20" x="4" y="8" rx="2.5"/>
    </defs>
    <g fill="none" fill-rule="evenodd">
        <mask id="4lgq1njoec" fill="#fff">
            <use xlink:href="#j5o4k0g8ma"/>
        </mask>
        <use fill="#000014" xlink:href="#j5o4k0g8ma"/>
        <rect width="13" height="5" x="9" y="24" fill="url(#905pqn3etb)" mask="url(#4lgq1njoec)" rx="2"/>
        <path fill="url(#vi175dbxod)" d="M14 20h10c1.105 0 2 .895 2 2v1c0 1.105-.895 2-2 2H14c-1.105 0-2-.895-2-2v-1c0-1.105.895-2 2-2z" mask="url(#4lgq1njoec)"/>
        <rect width="15" height="5" x="19" y="23" fill="url(#47ih1kxx7e)" mask="url(#4lgq1njoec)" rx="2"/>
        <path fill="url(#zqnjcaf8nf)" d="M19 8h10c1.105 0 2 .895 2 2v1c0 1.105-.895 2-2 2H19c-1.105 0-2-.895-2-2v-1c0-1.105.895-2 2-2z" mask="url(#4lgq1njoec)"/>
        <path fill="url(#ocuozcribg)" d="M18 17h5c1.105 0 2 .895 2 2v1c0 1.105-.895 2-2 2h-5c-1.105 0-2-.895-2-2v-1c0-1.105.895-2 2-2z" mask="url(#4lgq1njoec)"/>
        <rect width="15" height="5" x="19" y="15" fill="url(#0oqxn6e85h)" mask="url(#4lgq1njoec)" rx="2"/>
        <rect width="12" height="5" x="22" y="19" fill="url(#0ydaz4n14i)" mask="url(#4lgq1njoec)" rx="2"/>
        <rect width="13" height="5" x="21" y="11" fill="url(#5qmqo86y0j)" mask="url(#4lgq1njoec)" rx="2"/>
        <rect width="10" height="5" x="24" y="7" fill="url(#z13mydx0sk)" mask="url(#4lgq1njoec)" rx="2"/>
        <circle cx="9.5" cy="13.5" r="2.5" fill="#FFF" fill-opacity=".5" fill-rule="nonzero" mask="url(#4lgq1njoec)"/>
    </g>
</svg>
