<svg width="24" height="24" viewBox="0 0 24 24" version="1.1" xmlns="http://www.w3.org/2000/svg"><g id="resource-amexcard-white-◆-[SL]-Symbols" stroke="none" stroke-width="1" fill="none" fill-rule="evenodd"><g id="resource-amexcard-white-CARD-/-AMEX-WHITE"><path id="resource-amexcard-white-bg" opacity=".3" d="M0 0h24v24H0z"/><path d="M3.647 8.853l-2.432 5.65h2.913l.36-.9h.826l.36.9H8.88v-.687l.285.687h1.66l.285-.702v.702h6.666l.811-.878.758.878 3.424.008-2.44-2.818 2.44-2.84h-3.371l-.788.863-.736-.863h-7.252l-.623 1.458-.639-1.458H6.455v.664l-.323-.664H3.647zm.563.802h1.42l1.613 3.833V9.655h1.554l1.247 2.748 1.148-2.748h1.547v4.054H11.8l-.007-3.176-1.374 3.176h-.84l-1.382-3.176v3.176H6.26l-.368-.909H3.91l-.368.91H2.506L4.21 9.654zm9.392 0h3.83l1.17 1.328 1.209-1.328h1.171l-1.78 2.038 1.78 2.016h-1.224l-1.17-1.344-1.217 1.344h-3.769V9.655zm-8.701.687l-.653 1.619h1.306l-.653-1.62zm9.647.152v.741h2.087v.825h-2.087v.81h2.343l1.088-1.192-1.043-1.184h-2.388z" id="resource-amexcard-white-path3902-0-8" fill="#FFF"/></g></g></svg>