<svg width="24" height="24" viewBox="0 0 24 24" version="1.1" xmlns="http://www.w3.org/2000/svg"><g id="resource-box-◆-[SL]-Symbols" stroke="none" stroke-width="1" fill="none" fill-rule="evenodd"><g id="resource-box-ICON-/-BOX"><path id="resource-box-Rectangle-6" d="M0 0h24v24H0z"/><path d="M6 5a1 1 0 00-1 1v12a1 1 0 001 1h12a1 1 0 001-1V6a1 1 0 00-1-1H6zm9 16H9v1a1 1 0 01-1 1H7a1 1 0 01-1-1v-1a3 3 0 01-3-3V6a3 3 0 013-3h12a3 3 0 013 3v12a3 3 0 01-3 3v1a1 1 0 01-1 1h-1a1 1 0 01-1-1v-1z" id="resource-box-Combined-Shape" fill="#4C6470" fill-rule="nonzero"/><circle id="resource-box-Oval-8-Copy" stroke="#4C6470" stroke-width="2" cx="12" cy="12" r="2"/></g></g></svg>