<svg xmlns="http://www.w3.org/2000/svg" xmlns:xlink="http://www.w3.org/1999/xlink" width="36" height="36" viewBox="0 0 36 36">
    <defs>
        <radialGradient id="f77ajidwna" cx="108.503%" cy="104.182%" r="190.058%" fx="108.503%" fy="104.182%">
            <stop offset="0%" stop-color="#18FFF0"/>
            <stop offset="29.958%" stop-color="#57C4FF"/>
            <stop offset="100%" stop-color="#D8C2FF"/>
        </radialGradient>
        <linearGradient id="1oi7tzxbtc" x1="19.172%" x2="-18.285%" y1="-32.087%" y2="57.767%">
            <stop offset="0%" stop-color="#FFF"/>
            <stop offset="100%" stop-color="#FFF" stop-opacity=".01"/>
        </linearGradient>
        <path id="kxxey55qtb" d="M9.333 0h9.334C23.82 0 28 4.179 28 9.333v9.334C28 23.82 23.821 28 18.667 28H9.333C4.18 28 0 23.821 0 18.667V9.333"/>
    </defs>
    <g fill="none" fill-rule="evenodd" transform="translate(4 4)">
        <rect width="28" height="28" fill="url(#f77ajidwna)" fill-rule="nonzero" rx="10"/>
        <mask id="16v7dlrx4d" fill="#fff">
            <use xlink:href="#kxxey55qtb"/>
        </mask>
        <path fill="url(#1oi7tzxbtc)" d="M25.667 -1.095L0.933 18.972 -2.8 -2.8z" mask="url(#16v7dlrx4d)" opacity=".4"/>
        <path fill="#FFF" fill-rule="nonzero" d="M13.695 19.644h.8v-1.12c1.825-.13 3.192-1.115 3.192-2.81 0-1.418-.901-2.155-2.594-2.587l-.599-.141V10.32c.828.116 1.388.581 1.484 1.388h1.593c-.062-1.573-1.292-2.618-3.077-2.755V7.81h-.8v1.135c-1.784.13-3.062 1.155-3.062 2.728 0 1.371.888 2.157 2.508 2.574l.555.133v2.768c-1.019-.11-1.525-.65-1.641-1.401h-1.593c.048 1.66 1.422 2.652 3.234 2.775v1.121zm-1.409-8.107c0-.595.486-1.108 1.409-1.217v2.481c-1.012-.266-1.409-.676-1.409-1.264zm3.753 4.347c0 .677-.478 1.176-1.545 1.272v-2.59c1.176.293 1.545.662 1.545 1.318z"/>
    </g>
</svg>
