<svg xmlns="http://www.w3.org/2000/svg" width="24" height="24" viewBox="0 0 24 24"><g fill="none" fill-rule="evenodd"><path d="M0 0h24v24H0z"/><rect width="2" height="4" x="21" y="13" fill="#FFF" rx="1"/><path fill="#FFF" fill-rule="nonzero" d="M12.194 5.49a1.97 1.97 0 00-1.761 0L2 9.314l8.38 4.089a1.97 1.97 0 001.868 0L21 9.313 12.194 5.49zM19 12.42v4.055a3 3 0 01-1.342 2.5C15.633 20.317 13.576 21 11.5 21c-2.076 0-4.133-.683-6.158-2.026A3 3 0 014 16.474v-3.995l-2.934-1.431a1.97 1.97 0 01.053-3.496l8.433-3.824a3.94 3.94 0 013.523 0l8.806 3.824a1.97 1.97 0 01.053 3.496L19 12.418zm-2 .934l-3.819 1.784a3.94 3.94 0 01-3.735 0L6 13.455v3.019a1 1 0 00.447.833C8.16 18.443 9.838 19 11.5 19s3.341-.557 5.053-1.693a1 1 0 00.447-.833v-3.12z"/></g></svg>