<svg width="24" height="24" viewBox="0 0 24 24" version="1.1" xmlns="http://www.w3.org/2000/svg"><g id="resource-mastercard-◆-[SL]-Symbols" stroke="none" stroke-width="1" fill="none" fill-rule="evenodd"><g id="resource-mastercard-CARD-/-MASTERCARD"><g id="resource-mastercard-MasterCard" transform="translate(0 5)"><path id="resource-mastercard-Fill-2" fill="#E15D29" d="M8.743 13.507h6.48V1.622h-6.48z"/><path d="M9.167 7.506A7.518 7.518 0 0112 1.609 7.332 7.332 0 007.416.006C3.32.006 0 3.364 0 7.506c0 4.142 3.32 7.5 7.416 7.5 1.73 0 3.322-.6 4.584-1.604a7.518 7.518 0 01-2.833-5.896" id="resource-mastercard-Fill-3" fill="#D3222B"/><path d="M23.984 7.506c0 4.142-3.32 7.5-7.417 7.5a7.33 7.33 0 01-4.583-1.604 7.517 7.517 0 002.832-5.896 7.518 7.518 0 00-2.832-5.897A7.333 7.333 0 0116.567.006c4.096 0 7.417 3.357 7.417 7.5z" id="resource-mastercard-Fill-4" fill="#ED972D"/></g></g></g></svg>