<svg width="24" height="24" viewBox="0 0 24 24" version="1.1" xmlns="http://www.w3.org/2000/svg"><g id="resource-mastercard-mir-◆-[SL]-Symbols" stroke="none" stroke-width="1" fill="none" fill-rule="evenodd"><g id="resource-mastercard-mir-CARD-/-MASTERCARD-|-MIR"><path id="resource-mastercard-mir-Rectangle-5" d="M0 0h24v24H0z"/><g id="resource-mastercard-mir-Group-6" transform="translate(0 1)"><g id="resource-mastercard-mir-МИР-Copy" transform="translate(0 16)"><path d="M5.44.923L4.305 3.931 3.245.923C3.069.424 2.523.02 2.013.003L1.98 0H0v6h2.013V2.308L3.624 6h1.41l1.51-3.273V6h2.013V0h-.755s-.088.003-.945.003S5.604.49 5.44.923zM14.345 0l-.251.03c-.482.098-.96.46-1.142.893L11.577 4.2V0H9.564v6h1.761l.252-.03c.481-.098.96-.46 1.142-.893L14.094 1.8V6h2.013V0h-1.762zm2.798 2.727V6h2.286V4.125h2.857C23.714 4.125 24 2.727 24 2.727h-6.857z" id="resource-mastercard-mir-Fill-1" fill="#29AB4F"/><path d="M20.857 0h-3.714c0 1.104 1.164 2.182 2.643 2.182H24C24 .818 22.857 0 21.143 0h-.286z" id="resource-mastercard-mir-Fill-3" fill="#00A8E3"/></g><g id="resource-mastercard-mir-MasterCard" transform="translate(2)"><path id="resource-mastercard-mir-Fill-2" fill="#E15D29" d="M7.286 10.975h5.4V1.318h-5.4z"/><path d="M7.64 6.098c0-1.943.923-3.674 2.36-4.79A6.21 6.21 0 006.18.005C2.767.005 0 2.733 0 6.098c0 3.366 2.767 6.094 6.18 6.094A6.21 6.21 0 0010 10.89 6.053 6.053 0 017.64 6.1" id="resource-mastercard-mir-Fill-3" fill="#D3222B"/><path d="M19.987 6.098c0 3.366-2.768 6.094-6.181 6.094a6.207 6.207 0 01-3.82-1.303 6.052 6.052 0 002.36-4.79 6.053 6.053 0 00-2.36-4.792 6.21 6.21 0 013.82-1.302c3.413 0 6.18 2.728 6.18 6.093z" id="resource-mastercard-mir-Fill-4" fill="#ED972D"/></g></g></g></g></svg>