<svg width="24" height="24" viewBox="0 0 24 24" version="1.1" xmlns="http://www.w3.org/2000/svg"><g id="resource-mircard-white-◆-[SL]-Symbols" stroke="none" stroke-width="1" fill="none" fill-rule="evenodd"><g id="resource-mircard-white-CARD-/-MIR-CARD-WHITE" fill="#FFF"><g id="resource-mircard-white-CARD-/-MIR-CARD-MINI"><g id="resource-mircard-white-МИР" transform="translate(0 9)"><path d="M5.44.923L4.305 3.931 3.245.923C3.069.424 2.523.02 2.013.003L1.98 0H0v6h2.013V2.308L3.624 6h1.41l1.51-3.273V6h2.013V0h-.755s-.088.003-.945.003S5.604.49 5.44.923zM14.345 0l-.251.03c-.482.098-.96.46-1.142.893L11.577 4.2V0H9.564v6h1.761l.252-.03c.481-.098.96-.46 1.142-.893L14.094 1.8V6h2.013V0h-1.762zm2.798 2.727V6h2.286V4.125h2.857C23.714 4.125 24 2.727 24 2.727h-6.857z" id="resource-mircard-white-Fill-1"/><path d="M20.857 0h-3.714c0 1.104 1.164 2.182 2.643 2.182H24C24 .818 22.857 0 21.143 0h-.286z" id="resource-mircard-white-Fill-3"/></g></g></g></g></svg>