<svg xmlns="http://www.w3.org/2000/svg" width="24" height="24" viewBox="0 0 24 24"><g fill="none" fill-rule="evenodd"><path d="M0 0h24v24H0z"/><g fill="#4C6470" transform="translate(4 1)"><path fill-rule="nonzero" d="M2 9h12v3.586A2 2 0 0113.414 14l-1.121 1.121a1 1 0 00-.293.707V21a2 2 0 01-2 2H6a2 2 0 01-2-2v-5.172a1 1 0 00-.293-.707L2.586 14A2 2 0 012 12.586V9zm2 2v1.586l1.121 1.121A3 3 0 016 15.828V21h4v-5.172a3 3 0 01.879-2.12L12 12.585V11H4z"/><path fill-rule="nonzero" d="M3.802 9h8.396l1.555-7H2.247l1.555 7zM.294 2.434A2 2 0 012.247 0h11.506a2 2 0 011.953 2.434L13.802 11H2.198L.294 2.434z"/><rect width="2" height="2" x="7" y="18" rx="1"/><rect width="2" height="6" x="5" y="1" rx="1"/><rect width="2" height="4" x="8" y="1" rx="1"/></g></g></svg>