<svg width="24" height="24" viewBox="0 0 24 24" version="1.1" xmlns="http://www.w3.org/2000/svg"><g id="resource-visacard-white-◆-[SL]-Symbols" stroke="none" stroke-width="1" fill="none" fill-rule="evenodd"><g id="resource-visacard-white-CARD-/-VISA-CARD-WHITE" fill="#FFF"><path d="M8.727 16h2.013L12 8H9.986l-1.259 8zm6.756-4.752c-.697-.359-1.126-.598-1.12-.96 0-.324.36-.669 1.143-.669.656-.012 1.13.14 1.498.297l.181.09.27-1.679A4.899 4.899 0 0015.66 8c-1.975 0-3.368 1.053-3.38 2.557-.012 1.115.994 1.736 1.752 2.106.78.38 1.04.623 1.037.961-.005.519-.622.76-1.197.76-.8 0-1.224-.12-1.882-.41l-.258-.122-.278 1.736c.464.216 1.33.403 2.225.412 2.102 0 3.469-1.038 3.484-2.646.01-.884-.525-1.554-1.68-2.106zM22.402 8h-1.527c-.471 0-.826.143-1.033.666L16.909 16h2.075s.336-.912.413-1.13c.228 0 2.242-.03 2.528-.03.062.278.242 1.16.242 1.16H24l-1.598-8zm-2.22 5.143c.16-.568.783-2.138.783-2.138-.011.018.164-.42.263-.72l.132.626s.38 2.232.458 2.232h-1.636zM6.705 8l-1.868 5.53-.2-1.07-.668-3.732C3.853 8.223 3.517 8 3.103 8H.026L0 8.239c.506.14.969.367 1.402.585.145.114.645.516.895 1.47L3.703 16h2.02l3.004-8H6.705z" id="resource-visacard-white-VISA"/></g></g></svg>