<svg width="24" height="24" viewBox="0 0 24 24" version="1.1" xmlns="http://www.w3.org/2000/svg"><g id="resource-wallet-white-◆-[SL]-Symbols" stroke="none" stroke-width="1" fill="none" fill-rule="evenodd"><g id="resource-wallet-white-ICON-/-WALLET-WHITE"><path id="resource-wallet-white-Rectangle-11" d="M0 0h24v24H0z"/><path d="M3.75 7.882a.93.93 0 00-.917.942v10.352c0 .52.41.942.917.942h16.5a.93.93 0 00.917-.942V8.824a.93.93 0 00-.917-.942H3.75zM3.75 6h16.5C21.769 6 23 7.264 23 8.824v10.352C23 20.736 21.769 22 20.25 22H3.75C2.231 22 1 20.736 1 19.176V8.824C1 7.264 2.231 6 3.75 6z" id="resource-wallet-white-Rectangle-14" fill="#FFF" fill-rule="nonzero"/><path d="M4 4c-.497 0-1 .503-1 1.035V6h14v-.965C17 4.503 16.697 4 16.2 4H4zm-.3-2h12.6C17.791 2 19 3.296 19 4.894v2.893H2.8v.965H1V4.894C1 3.296 2.209 2 3.7 2z" id="resource-wallet-white-Rectangle-14" fill="#FFF" fill-rule="nonzero"/><circle id="resource-wallet-white-Oval-3" fill="#FFF" cx="17.5" cy="14.5" r="1.5"/></g></g></svg>