<svg xmlns="http://www.w3.org/2000/svg" width="24" height="24" viewBox="0 0 24 24"><g fill="none" fill-rule="evenodd"><path d="M0 0h24v24H0z" opacity=".5"/><path fill="#A6A6A6" fill-rule="nonzero" d="M8.29 21c7.547 0 11.675-6.54 11.675-12.213 0-.186 0-.37-.012-.555A8.573 8.573 0 0022 6.01a7.91 7.91 0 01-2.357.675 4.279 4.279 0 001.804-2.374c-.805.5-1.686.853-2.605 1.042-1.272-1.415-3.293-1.76-4.93-.844-1.637.916-2.483 2.867-2.063 4.759-3.3-.173-6.373-1.803-8.457-4.485-1.09 1.962-.533 4.47 1.27 5.73A3.937 3.937 0 012.8 9.976v.054c0 2.044 1.377 3.804 3.292 4.208a3.922 3.922 0 01-1.853.074c.538 1.748 2.078 2.946 3.834 2.98a8.006 8.006 0 01-5.096 1.842A7.99 7.99 0 012 19.072a11.247 11.247 0 006.29 1.925"/></g></svg>