<svg xmlns="http://www.w3.org/2000/svg" width="18" height="18" viewBox="0 0 18 18"><path fill="#FFF" fill-rule="evenodd" d="M7.283 0a.46.46 0 00-.422.332L6.493 2.27a7.555 7.555 0 00-2.21 1.19l-1.921-.71a.453.453 0 00-.516.166L.06 5.708a.409.409 0 00.08.518l1.533 1.297C1.567 8 1.498 8.493 1.498 9c0 .506.07.994.174 1.47L.14 11.768a.409.409 0 00-.08.518l1.787 2.793a.455.455 0 00.516.166l1.921-.71a7.569 7.569 0 002.21 1.19l.368 1.936a.437.437 0 00.422.339h3.428c.2 0 .387-.151.421-.339l.369-1.93a7.574 7.574 0 002.216-1.19l1.914.704a.454.454 0 00.523-.166l1.787-2.793a.409.409 0 00-.08-.518l-1.527-1.304A6.88 6.88 0 0016.495 9a6.94 6.94 0 00-.16-1.47l1.526-1.304a.409.409 0 00.08-.518l-1.787-2.793a.454.454 0 00-.523-.166l-1.914.703A7.56 7.56 0 0011.5 2.269L11.132.332A.438.438 0 0010.711 0H7.283zm1.795 5.953a3.277 3.277 0 00-3.273 3.272 3.277 3.277 0 003.273 3.273 3.277 3.277 0 003.272-3.273 3.277 3.277 0 00-3.272-3.272z"/></svg>