<svg width="18" height="18" viewBox="0 0 18 18" version="1.1" xmlns="http://www.w3.org/2000/svg"><path class="repaint" fill="#C0C9CD" d="M9,0.5 C13.6944204,0.5 17.5,4.30557963 17.5,9 C17.5,13.6944204 13.6944204,17.5 9,17.5 C4.30557963,17.5 0.5,13.6944204 0.5,9 C0.5,4.30557963 4.30557963,0.5 9,0.5 Z M9,2.5 C5.41014913,2.5 2.5,5.41014913 2.5,9 C2.5,12.5898509 5.41014913,15.5 9,15.5 C12.5898509,15.5 15.5,12.5898509 15.5,9 C15.5,5.41014913 12.5898509,2.5 9,2.5 Z M10,11.5013051 L10,13.5013051 L8,13.5013051 L8,11.5013051 L10,11.5013051 Z M9.03433923,4 C10.8199792,4 12,5.10967099 12,6.70089731 C12,7.75473579 11.5442248,8.48753739 10.6638918,9.0667996 C9.83350676,9.60418744 9.83878875,9.9244792 9.83878875,10.6084274 L9.83878875,10.6084274 L8.1791725,10.6084274 C8.09800705,9.5127145 8.19771072,8.87138584 9.05931322,8.30608175 C9.86472425,7.76869392 10.1082206,7.42671984 10.1082206,6.76370887 C10.1082206,6.10069791 9.63371488,5.61914257 8.9219563,5.61914257 C8.20395421,5.61914257 7.73244323,6.21538039 7.69498225,7.00401449 L7.69498225,7.00401449 L6.00299473,7.00401449 C6.03421222,5.28716504 7.11758585,4 9.03433923,4 Z"/></svg>