<?xml version="1.0" encoding="UTF-8"?>
<svg width="4px" height="22px" viewBox="0 0 4 22" version="1.1" xmlns="http://www.w3.org/2000/svg">
    <g stroke="none" stroke-width="1" fill="none" fill-rule="evenodd">
        <g transform="translate(-22.000000, -12.000000)">
            <path d="M24,0 C37.254834,0 48,10.745166 48,24 C48,37.254834 37.254834,48 24,48 C10.745166,48 0,37.254834 0,24 C0,10.745166 10.745166,0 24,0 Z"></path>
            <path fill="#FFFFFF" d="M24,20 C25.1045695,20 26,20.8757627 26,22.0058587 L26,31.9941413 C26,33.1019465 25.1122704,34 24,34 C22.8954305,34 22,33.1242373 22,31.9941413 L22,22.0058587 C22,20.8980535 22.8877296,20 24,20 Z M26,12 L26,16 L22,16 L22,12 L26,12 Z"></path>
        </g>
    </g>
</svg>
