<svg xmlns="http://www.w3.org/2000/svg" width="24" height="24" viewBox="0 0 24 24">
    <path fill-rule="evenodd" d="M20.436 4c.892 0 1.215.093 1.54.267.327.174.583.43.757.756.174.326.267.65.267 1.54v10.873c0 .892-.093 1.215-.267 1.54-.174.327-.43.583-.756.757-.326.174-.65.267-1.54.267H3.563c-.892 0-1.215-.093-1.54-.267-.327-.174-.583-.43-.757-.756-.174-.326-.267-.65-.267-1.54V6.563c0-.892.093-1.215.267-1.54.174-.327.43-.583.756-.757.326-.174.65-.267 1.54-.267h16.873zm-6.972 4.464c-.39.391-.39 1.024 0 1.415L14.586 11H7c-.552 0-1 .448-1 1 0 .513.386.936.883.993L7 13h7.585l-1.12 1.121c-.361.36-.389.928-.084 1.32l.083.095c.361.36.928.388 1.32.083l.095-.083 2.828-2.829.073-.082.004-.004.02-.026c.018-.024.034-.049.05-.074l.021-.037c.011-.02.022-.04.031-.06l.006-.014.007-.015.01-.024.021-.06.014-.045.016-.065.009-.053c.003-.02.006-.04.007-.062.002-.018.003-.035.003-.053L18 12l-.001-.033-.001-.027v-.015c-.003-.025-.005-.05-.009-.074l-.01-.052c-.004-.022-.009-.043-.015-.065l-.014-.046-.021-.06-.01-.023-.007-.015-.006-.013-.03-.061-.022-.037c-.016-.025-.032-.05-.05-.074l-.014-.018-.011-.013-.072-.081-2.828-2.829c-.39-.39-1.024-.39-1.415 0z"/>
</svg>
