<svg xmlns="http://www.w3.org/2000/svg" width="24" height="24" viewBox="0 0 24 24">
    <path fill-rule="evenodd" d="M10 13c.552 0 1 .448 1 1v5c0 .552-.448 1-1 1H5c-.552 0-1-.448-1-1v-5c0-.552.448-1 1-1h5zm9 0c.552 0 1 .448 1 1v5c0 .552-.448 1-1 1h-5c-.552 0-1-.448-1-1v-5c0-.552.448-1 1-1h5zm-9.8 1.8H5.8v3.4h3.4v-3.4zm9 0h-3.4v3.4h3.4v-3.4zM10 4c.552 0 1 .448 1 1v5c0 .552-.448 1-1 1H5c-.552 0-1-.448-1-1V5c0-.552.448-1 1-1h5zm9 0c.552 0 1 .448 1 1v5c0 .552-.448 1-1 1h-5c-.552 0-1-.448-1-1V5c0-.552.448-1 1-1h5zM9.2 5.8H5.8v3.4h3.4V5.8zm9 0h-3.4v3.4h3.4V5.8z"/>
</svg>
