<svg xmlns="http://www.w3.org/2000/svg" width="24" height="24" viewBox="0 0 24 24">
    <path fill-rule="evenodd" d="M17.83 11c.61 0 1.1.54 1 1.14-.475 2.914-2.754 5.215-5.652 5.738l-.257.042V20c0 .55-.45 1-1 1-.51 0-.935-.388-.993-.884L10.92 20v-2.08c-.859-.122-1.667-.4-2.396-.803l1.493-1.493c.587.242 1.23.376 1.903.376 2.47 0 4.52-1.8 4.93-4.15.08-.49.49-.85.98-.85zm2.866-9.213c.267.266.29.683.073.976l-.073.085-17.674 17.65c-.293.292-.768.292-1.061 0-.266-.267-.29-.684-.073-.977l.073-.084 4.31-4.303c-.638-.867-1.08-1.886-1.26-2.994-.09-.6.39-1.14 1-1.14.49 0 .9.36.98.85.117.669.366 1.293.72 1.844l1.47-1.467c-.144-.324-.234-.678-.255-1.05L8.921 11V5c0-1.66 1.34-3 3-3 1.6 0 2.904 1.246 2.995 2.823L14.92 5v1.495l4.715-4.708c.293-.293.767-.293 1.06 0zM14.92 10.72V11c0 1.66-1.34 3-3 3-.09 0-.178-.004-.266-.012l3.266-3.268z"/>
</svg>
