<svg xmlns="http://www.w3.org/2000/svg" width="24" height="24" viewBox="0 0 24 24">
    <path fill-rule="evenodd" d="M6 16c1.105 0 2 .895 2 2s-.895 2-2 2-2-.895-2-2 .895-2 2-2zm13.392 1c.335.028.6.464.608 1-.009.546-.284.986-.625 1h-8.75c-.341-.014-.616-.454-.625-1 .009-.557.294-1 .642-1h8.75zM6 10c1.105 0 2 .895 2 2s-.895 2-2 2-2-.895-2-2 .895-2 2-2zm13.392 1c.335.028.6.464.608 1-.009.546-.284.986-.625 1h-8.75c-.341-.014-.616-.454-.625-1 .009-.557.294-1 .642-1h8.75zM6 4c1.105 0 2 .895 2 2s-.895 2-2 2-2-.895-2-2 .895-2 2-2zm13.392 1c.335.028.6.464.608 1-.009.546-.284.986-.625 1h-8.75c-.341-.014-.616-.454-.625-1 .009-.557.294-1 .642-1h8.75z"/>
</svg>
