<svg xmlns="http://www.w3.org/2000/svg" width="24" height="24" viewBox="0 0 24 24">
    <path fill-rule="evenodd" d="M12.84 2.034c4.538.37 8.342 3.889 9.038 8.388.223 1.44.133 2.837-.208 4.13-.535 2.026-.55 4.15-.005 6.17l.005.017c.151.56-.361 1.072-.92.921-2.047-.552-4.193-.508-6.246.023-1.027.267-2.12.372-3.251.29-4.786-.345-8.748-4.208-9.206-8.984C1.448 6.729 6.61 1.526 12.84 2.034zM12 10.5c-.828 0-1.5.672-1.5 1.5s.672 1.5 1.5 1.5 1.5-.672 1.5-1.5-.672-1.5-1.5-1.5zm-5 0c-.828 0-1.5.672-1.5 1.5s.672 1.5 1.5 1.5 1.5-.672 1.5-1.5-.672-1.5-1.5-1.5zm10 0c-.828 0-1.5.672-1.5 1.5s.672 1.5 1.5 1.5 1.5-.672 1.5-1.5-.672-1.5-1.5-1.5z"/>
</svg>
