<svg xmlns="http://www.w3.org/2000/svg" width="24" height="24" viewBox="0 0 24 24">
    <path fill-rule="evenodd" d="M14 4c.552 0 1 .448 1 1s-.448 1-1 1H7c-.552 0-1 .448-1 1v10c0 .552.448 1 1 1h7c.552 0 1 .448 1 1s-.448 1-1 1H7c-1.657 0-3-1.343-3-3V7c0-1.657 1.343-3 3-3h7zm4.462 4.026l3.242 3.242c.163.163.258.368.285.58l.004.035L22 12c0 .043-.003.086-.008.128-.011.197-.08.393-.209.558l-.084.095-3.242 3.241c-.387.388-1.023.391-1.414 0-.363-.362-.388-.928-.083-1.32l.083-.094L18.651 13h-5.656c-.55 0-.995-.444-.995-1 0-.552.456-1 .995-1h5.612l-1.56-1.56c-.39-.39-.393-1.02 0-1.414.391-.39 1.028-.387 1.415 0z"/>
</svg>
