<svg xmlns="http://www.w3.org/2000/svg" width="24" height="24" viewBox="0 0 24 24">
    <path fill-rule="evenodd" d="M11.069 2.552L9.744 4.974c-1.102 2.014-2.757 3.67-4.771 4.77l-2.421 1.324c-.736.403-.736 1.46 0 1.863l2.421 1.325c2.014 1.102 3.669 2.757 4.771 4.77l1.325 2.422c.2.368.565.552.93.552.366 0 .731-.184.933-.552l1.325-2.422c1.1-2.013 2.756-3.668 4.77-4.77l2.421-1.325c.736-.402.736-1.46 0-1.863l-2.421-1.324c-2.014-1.1-3.67-2.756-4.77-4.77l-1.325-2.422C12.73 2.184 12.365 2 11.999 2c-.365 0-.729.183-.93.55zm-3.726 8.093c1.279-.564 2.322-1.556 2.947-2.806l1.075-2.148-.11 2.953c-.059 1.612-1.384 2.889-2.998 2.889H5.328l2.015-.888z"/>
</svg>
