<svg xmlns="http://www.w3.org/2000/svg" width="24" height="24" viewBox="0 0 24 24">
    <path fill-rule="evenodd" d="M12 3C9.79 3 8 4.79 8 7v.75c0 2.21 1.79 4 4 4l.205-.006C14.344 11.621 16 9.872 16 7.75V7c0-2.21-1.79-4-4-4zm2 10c3.313 0 6 2.687 6 6 0 1.656-1.344 3-3 3H7c-1.656 0-3-1.344-3-3 0-3.313 2.687-6 6-6zm0 2h-4c-2.209 0-4 1.791-4 4 0 .552.448 1 1 1h10c.552 0 1-.448 1-1 0-2.209-1.791-4-4-4zM12 5c1.105 0 2 .895 2 2v.75c0 1.06-.828 1.936-1.882 1.997l-.147.003c-1.076 0-1.971-.895-1.971-2V7c0-1.105.895-2 2-2z"/>
</svg>
