<svg xmlns="http://www.w3.org/2000/svg" width="24" height="24" viewBox="0 0 24 24">
    <path fill-rule="evenodd" d="M16.83 13.634c.48.276.643.888.366 1.366-.185.32-.52.5-.867.5-.17 0-.342-.043-.499-.134L13 13.733V17c0 .553-.448 1-1 1s-1-.447-1-1v-3.267l-2.83 1.633c-.157.09-.33.134-.499.134-.346 0-.682-.18-.867-.5-.276-.478-.113-1.09.366-1.366L10 12l-2.83-1.634c-.479-.276-.642-.887-.366-1.366.276-.478.885-.643 1.366-.366L11 10.268V7c0-.552.448-1 1-1s1 .448 1 1v3.268l2.83-1.634c.477-.277 1.09-.113 1.366.366.277.479.113 1.09-.366 1.366L14 12l2.83 1.634zM12 3c-4.97 0-9 4.03-9 9s4.03 9 9 9c4.971 0 9-4.03 9-9s-4.029-9-9-9z"/>
</svg>
