<svg xmlns="http://www.w3.org/2000/svg" width="24" height="24" viewBox="0 0 24 24">
    <path fill-rule="evenodd" d="M5.379 20.273c-.04.023-.084.035-.129.035-.138 0-.25-.111-.25-.25V5c0-1.105.895-2 2-2h10c1.105 0 2 .895 2 2v15.058c0 .139-.112.25-.25.25-.045 0-.09-.012-.129-.035L16.5 19l-1.695 1.13c-.336.224-.774.224-1.11 0L12 19l-1.695 1.13c-.336.224-.774.224-1.11 0L7.5 19zM12.5 14h-4c-.552 0-1 .448-1 1 0 .513.386.936.883.993L8.5 16h4c.552 0 1-.448 1-1s-.448-1-1-1zm3-4h-7c-.552 0-1 .448-1 1 0 .513.386.936.883.993L8.5 12h7c.552 0 1-.448 1-1s-.448-1-1-1zm0-4h-7c-.552 0-1 .448-1 1 0 .513.386.936.883.993L8.5 8h7c.552 0 1-.448 1-1s-.448-1-1-1z"/>
</svg>
