<svg xmlns="http://www.w3.org/2000/svg" width="24" height="24" viewBox="0 0 24 24">
    <path fill-rule="evenodd" d="M20 2c.513 0 .935.385.993.883L21 3v16c0 .514-.386.936-.883.993L20 20h-1v1c0 .78-.594 1.42-1.355 1.493l-.145.007c-.829 0-1.5-.672-1.5-1.5v-1H8v1c0 .78-.594 1.42-1.355 1.493L6.5 22.5c-.829 0-1.5-.672-1.5-1.5v-1H4c-.513 0-.935-.385-.993-.883L3 19V3c0-.514.386-.936.883-.993L4 2h16zm-8 4c-2.757 0-5 2.243-5 5s2.243 5 5 5 5-2.243 5-5-2.243-5-5-5zm0 2c1.657 0 3 1.343 3 3s-1.343 3-3 3-3-1.343-3-3 1.343-3 3-3z"/>
</svg>
