<svg xmlns="http://www.w3.org/2000/svg" width="24" height="24" viewBox="0 0 24 24">
    <path fill-rule="evenodd" d="M19.09 4.621c.415-.233.937-.141 1.248.22C22.044 6.82 23 9.336 23 12c0 6.075-4.925 11-11 11S1 18.075 1 12c0-1.04.149-2.066.438-3.058.174-.598.846-.893 1.404-.616l5.129 2.543zm.232 2.163L8.49 12.872c-.288.162-.638.17-.934.024l-4.457-2.211-.033.23c-.029.24-.049.48-.059.722L3 12c0 4.97 4.03 9 9 9s9-4.03 9-9c0-1.834-.553-3.58-1.563-5.055l-.115-.161zm-1.458-4.788c.258.443.138 1.003-.263 1.303l-.097.065-9 5.25c-.268.156-.592.178-.875.065l-.12-.057-4-2.25c-.48-.271-.651-.88-.38-1.362.25-.447.795-.626 1.256-.433l.105.051 3.501 1.969 8.505-4.96c.477-.28 1.09-.118 1.368.36z"/>
</svg>
