<svg xmlns="http://www.w3.org/2000/svg" width="24" height="24" viewBox="0 0 24 24">
    <path fill-rule="evenodd" d="M17.726 14.459l-.803 1.926c-.16.384-.531.615-.923.615-.128 0-.258-.024-.384-.077-.51-.213-.751-.798-.538-1.308l.8-1.923-1.452-2.324c-.342-.546-.4-1.229-.151-1.827l.803-1.926c.212-.51.8-.75 1.307-.538.51.213.75.798.538 1.308l-.801 1.923 1.453 2.324c.34.546.399 1.229.15 1.827m-4 0l-.802 1.926c-.16.384-.531.615-.923.615-.128 0-.258-.024-.384-.077-.51-.213-.751-.798-.538-1.308l.8-1.923-1.452-2.324c-.342-.546-.4-1.229-.151-1.827l.803-1.926c.212-.51.799-.75 1.307-.538.51.213.75.798.538 1.308l-.801 1.923 1.453 2.324c.34.546.399 1.229.15 1.827m-4 0l-.802 1.926c-.16.384-.531.615-.923.615-.128 0-.258-.024-.384-.077-.51-.213-.751-.798-.538-1.308l.8-1.923-1.452-2.324c-.342-.546-.4-1.229-.151-1.827l.803-1.926c.213-.51.799-.75 1.307-.538.51.213.75.798.538 1.308l-.801 1.923 1.453 2.324c.34.546.399 1.229.15 1.827M12 3c-4.97 0-9 4.029-9 9s4.03 9 9 9 9-4.029 9-9-4.03-9-9-9"/>
</svg>
