<svg xmlns="http://www.w3.org/2000/svg" width="24" height="24" viewBox="0 0 24 24">
    <path fill-rule="evenodd" d="M12.003 2c3.008 0 5.46 2.38 5.575 5.36l.004.22v2.287c1.303.527 2.175 1.873 2.014 3.366l-.637 5.868c-.18 1.65-1.572 2.9-3.232 2.9h-7.45c-1.659 0-3.052-1.25-3.23-2.9l-.638-5.868c-.161-1.493.71-2.839 2.014-3.365V7.58C6.423 4.498 8.92 2 12.003 2zm0 12.212c-.553 0-1 .448-1 1v1.526l.006.117c.058.497.48.883.993.883.553 0 1-.448 1-1v-1.526l-.006-.117c-.058-.497-.48-.883-.994-.883zm0-10.212c-1.914 0-3.477 1.5-3.575 3.39l-.005.19-.001 2.052h7.159V7.58c0-1.978-1.601-3.58-3.578-3.58z"/>
</svg>
