<svg xmlns="http://www.w3.org/2000/svg" width="24" height="24" viewBox="0 0 24 24">
    <path fill-rule="evenodd" d="M13.376 2.414l8.21 8.21c.78.78.78 2.047 0 2.828l-8.134 8.134-.127.117c-.786.662-1.961.623-2.701-.117l-8.21-8.21c-.78-.78-.78-2.047 0-2.828l8.134-8.134.127-.117c.786-.662 1.961-.623 2.701.117zm-1.123 5.163c-.825 0-1.562.12-2.193.357-2.008.757-2.256 2.81-2.256 4.294 0 1.748.285 3.477 2.241 4.289.575.238 1.301.36 2.15.36.399 0 .81-.027 1.226-.08.793-.102 1.827-.457 1.837-.46.022-.008.034-.03.03-.053l-.335-1.621c-.003-.012-.011-.024-.022-.03-.012-.007-.025-.008-.038-.004-.001 0-.15.049-.243.073-.183.047-1.182.298-2.05.27-.313-.009-1.882-.119-2.058-1.456-.053-.394-.082-.79-.092-1.246l.002-.194c.006-.337.014-.72.09-1.14.186-1.039 1.225-1.435 2.058-1.459l.112-.001c.842 0 1.762.227 1.938.273.093.024.254.073.256.074.012.004.025.002.037-.005.01-.006.019-.017.021-.03l.323-1.62c.005-.023-.008-.045-.03-.053-.01-.003-1.046-.359-1.838-.461-.393-.05-.786-.077-1.166-.077z"/>
</svg>
