<svg xmlns="http://www.w3.org/2000/svg" width="24" height="24" viewBox="0 0 24 24">
    <path fill-rule="evenodd" d="M13 18.668V21c0 .553-.447 1-1 1-.553 0-1-.447-1-1v-2.332c.327.049.659.082 1 .082.341 0 .673-.033 1-.082zm5.275-4.2l2.225 1.285c.479.276.643.888.366 1.366-.185.32-.521.5-.867.5-.17 0-.342-.043-.499-.134L17.274 16.2c.415-.52.753-1.102 1.001-1.731zm-12.55 0c.248.63.586 1.212 1 1.732L4.5 17.486c-.157.09-.33.133-.5.133-.344 0-.68-.178-.866-.5-.276-.478-.112-1.09.366-1.366zM12 6.75c2.895 0 5.25 2.355 5.25 5.25s-2.355 5.25-5.25 5.25S6.75 14.895 6.75 12 9.105 6.75 12 6.75zm7.5-.235c.476-.276 1.09-.112 1.366.367.276.478.112 1.089-.366 1.366l-2.224 1.284c-.248-.63-.586-1.211-1.002-1.732zm-16.366.367c.277-.48.887-.643 1.366-.366L6.726 7.8c-.416.52-.754 1.103-1.002 1.732L3.5 8.248c-.479-.276-.643-.888-.366-1.366zM12 2c.553 0 1 .448 1 1v2.333c-.327-.049-.659-.083-1-.083-.341 0-.673.034-1 .083V3c0-.552.447-1 1-1z"/>
</svg>
