<svg xmlns="http://www.w3.org/2000/svg" width="24" height="24" viewBox="0 0 24 24">
    <path fill-rule="evenodd" d="M12.03 3c1.218 0 2.404.243 3.504.708 1.07.453 2.04 1.108 2.86 1.928.187.187.365.381.534.583V5c0-.513.386-.936.883-.993L19.928 4c.513 0 .935.386.993.883l.007.117v3.793c0 .513-.386.936-.884.993l-.116.007H16.03c-.552 0-1-.448-1-1 0-.513.386-.936.883-.993l.117-.007h1.595c-.197-.262-.413-.51-.645-.743-.638-.638-1.394-1.148-2.226-1.5C13.901 5.189 12.98 5 12.03 5c-.95 0-1.87.189-2.724.55-.833.352-1.588.862-2.226 1.5-.638.639-1.149 1.395-1.5 2.226-.361.853-.55 1.775-.55 2.724 0 .949.189 1.87.55 2.724.351.831.862 1.587 1.5 2.226.638.638 1.393 1.148 2.226 1.5.853.361 1.774.55 2.724.55.949 0 1.87-.189 2.724-.55.832-.352 1.588-.862 2.226-1.5.638-.639 1.15-1.395 1.5-2.226.216-.508.803-.746 1.312-.53.508.214.746.801.53 1.31-.452 1.069-1.108 2.04-1.928 2.86-.82.82-1.79 1.475-2.86 1.928-1.1.465-2.286.708-3.504.708-1.219 0-2.404-.243-3.504-.708-1.07-.453-2.04-1.108-2.86-1.928-.82-.82-1.476-1.792-1.928-2.86-.465-1.1-.708-2.286-.708-3.504s.243-2.405.708-3.504c.452-1.068 1.108-2.04 1.928-2.86.82-.82 1.79-1.475 2.86-1.928C9.626 3.243 10.811 3 12.03 3z"/>
</svg>
