<svg xmlns="http://www.w3.org/2000/svg" width="24" height="24" viewBox="0 0 24 24">
    <path fill-rule="evenodd" d="M11.98 4.394c4.317 0 8.262 2.67 10.845 7.102.182.311.182.696 0 1.007-2.583 4.433-6.528 7.104-10.845 7.104-4.316 0-8.26-2.67-10.843-7.104-.182-.311-.182-.696 0-1.007C3.72 7.063 7.665 4.394 11.98 4.394zm-.08 2.612c-2.759 0-5 2.225-5 4.972 0 2.747 2.241 4.971 5 4.971 2.76 0 5-2.224 5-4.971s-2.24-4.972-5-4.972zm-.956 2.155c-.08.234-.123.485-.123.746 0 1.29 1.053 2.334 2.352 2.334.665 0 1.265-.274 1.693-.715.023.146.035.298.035.452 0 1.64-1.342 2.971-3 2.971s-3-1.332-3-2.971c0-1.288.828-2.387 1.988-2.799z"/>
</svg>
