<svg xmlns="http://www.w3.org/2000/svg" width="24" height="24" viewBox="0 0 24 24">
    <path fill-rule="evenodd" d="M12 2c5.523 0 10 4.477 10 10s-4.477 10-10 10S2 17.523 2 12 6.477 2 12 2zm3.292 4.596l-2.591 2.591c-.057.057-.144.069-.214.031L7.902 6.704c-.14-.077-.315-.053-.428.06l-.962.963c-.15.15-.139.398.026.533l3.583 2.947c.164.136.176.384.026.534L8.518 13.37c-.097.096-.24.13-.369.087l-1.011-.338c-.13-.042-.272-.009-.369.088l-1.116 1.116c-.082.082-.066.218.032.28l2.094 1.302c.046.03.086.069.116.116l1.302 2.094c.061.098.198.114.28.032l1.116-1.116c.097-.097.13-.24.087-.369l-.337-1.011c-.043-.13-.01-.273.087-.37l1.629-1.628c.15-.15.398-.138.533.026l2.947 3.583c.136.164.384.176.534.025l.962-.962c.113-.113.138-.288.061-.428l-2.514-4.584c-.039-.07-.026-.157.03-.214l2.592-2.591c.528-.528.528-1.384 0-1.912s-1.384-.528-1.912 0z"/>
</svg>
