<svg xmlns="http://www.w3.org/2000/svg" width="24" height="24" viewBox="0 0 24 24">
    <path fill-rule="evenodd" d="M12 2c2.964 0 5.388 2.312 5.568 5.231l3.289-3.29c.293-.293.768-.293 1.06 0 .267.266.291.683.073.976l-.072.085-4.34 4.338v.005l-5.03 5.03h-.002L11 15.92v.004l-5.072 5.073-.002-.002L4.022 22.9c-.293.292-.768.292-1.061 0-.266-.267-.29-.683-.073-.977l.073-.084 2.19-2.19c-.05-.176-.087-.36-.108-.547l-.636-5.868c-.162-1.493.71-2.84 2.014-3.366V7.58C6.42 4.498 8.918 2 12 2zm-.536 15.582c.155.099.339.156.536.156.552 0 1-.448 1-1v-.692l5.559-5.56c.689.633 1.101 1.557 1.049 2.562l-.015.185-.637 5.868c-.18 1.65-1.572 2.899-3.23 2.899H8.275c-.368 0-.723-.061-1.054-.175zM12 4c-1.913 0-3.475 1.5-3.574 3.39l-.005.19v2.052h6.744l.413-.413v-1.64C15.579 5.603 13.978 4 12 4z"/>
</svg>
