<svg xmlns="http://www.w3.org/2000/svg" width="24" height="24" viewBox="0 0 24 24">
    <path fill-rule="evenodd" d="M19 6c.552 0 1 .448 1 1 0 .513-.386.936-.883.993L19 8v11c0 1.597-1.25 2.904-2.824 2.995L16 22H8c-1.597 0-2.904-1.25-2.995-2.824L5 19V8c-.552 0-1-.448-1-1 0-.513.386-.936.883-.993L5 6h14zm-2 2H7v11c0 .512.387.935.883.993L8 20h8c.512 0 .935-.387.993-.883L17 19V8zm-7 1.5c.513 0 .936.386.993.883L11 10.5v7c0 .552-.448 1-1 1-.513 0-.936-.386-.993-.883L9 17.5v-7c0-.552.448-1 1-1zm4 0c.513 0 .936.386.993.883L15 10.5v7c0 .552-.448 1-1 1-.513 0-.936-.386-.993-.883L13 17.5v-7c0-.552.448-1 1-1zm.5-6.5c.552 0 1 .448 1 1 0 .513-.386.936-.883.993L14.5 5h-5c-.552 0-1-.448-1-1 0-.513.386-.936.883-.993L9.5 3h5z"/>
</svg>
