<svg xmlns="http://www.w3.org/2000/svg" width="24" height="24" viewBox="0 0 24 24">
    <path fill-rule="evenodd" d="M20.89 7.23C21.6 8.62 22 10.2 22 11.872 22 17.465 17.523 22 12 22S2 17.465 2 11.872c0-.233.008-.464.023-.692l6.062 3.537zm-1.207-1.842c.236.287.458.589.663.902l-12.26 7.136-5.912-3.444c.07-.382.163-.756.275-1.12l5.636 3.281zm-1.639-1.586c.31.239.606.495.886.768L8.085 10.889 2.83 7.827c.148-.342.313-.674.495-.995l4.761 2.774zM15.93 2.555c.4.174.788.374 1.16.597L8.086 8.418 3.877 5.963c.217-.306.451-.6.7-.878l3.508 2.042z"/>
</svg>
