<svg xmlns="http://www.w3.org/2000/svg" width="24" height="24" viewBox="0 0 24 24">
    <path fill-rule="evenodd" d="M3.546 9.524c-.351-.949-.598-1.918-.537-2.95.042-.64.289-1.176.764-1.63.495-.475.99-.99 1.485-1.465.64-.639 1.465-.639 2.105 0l1.196 1.197c.392.392.784.763 1.156 1.155.68.681.68 1.485 0 2.167-.475.495-1.895 1.895-2.391 2.37-.123.123-.144.226-.082.391.33.784.784 1.465 1.32 2.125 1.053 1.3 2.27 2.455 3.693 3.363.31.186.64.33.97.495.165.082.268.062.413-.083.474-.495 1.895-1.915 2.39-2.41.64-.64 1.465-.64 2.104 0 .784.784 1.589 1.567 2.373 2.372.66.66.66 1.486 0 2.146-.454.454-.882.932-1.341 1.361-.726.68-1.382.908-2.27.867-1.28-.062-2.475-.495-3.61-1.052-2.538-1.238-4.725-2.95-6.54-5.117-1.362-1.588-2.476-3.342-3.198-5.302"/>
</svg>
