<svg xmlns="http://www.w3.org/2000/svg" width="36" height="36" viewBox="0 0 36 36">
    <path fill-rule="evenodd" d="M18.486 30.874c-.302.168-.67.168-.971 0l-4.886-2.714C9.772 26.573 8 23.561 8 20.293V8c0-.552.448-1 1-1h18c.553 0 1 .448 1 1v12.293c0 3.268-1.772 6.28-4.63 7.867l-4.884 2.714zm3.914-4.462l.235-.137C24.719 25.01 26 22.745 26 20.293V9H10v11.293c0 2.542 1.378 4.884 3.6 6.119l4.4 2.444 4.4-2.444zm-4.9-7.826l-1.793-1.793c-.39-.39-1.024-.39-1.414 0-.39.39-.39 1.024 0 1.414l2.5 2.5c.39.39 1.024.39 1.414 0l5-5c.39-.39.39-1.024 0-1.414-.39-.39-1.024-.39-1.414 0L17.5 18.586z"/>
</svg>
