<svg xmlns="http://www.w3.org/2000/svg" width="36" height="36" viewBox="0 0 36 36">
    <path fill-rule="evenodd" d="M14.113 21.879c1.171 1.171 1.171 3.07 0 4.242-1.172 1.171-3.07 1.171-4.244 0-1.17-1.172-1.17-3.07.001-4.243 1.173-1.17 3.071-1.17 4.243 0zm-1.414 1.414c-.39-.39-1.024-.39-1.415 0-.39.39-.39 1.024 0 1.413.391.391 1.024.391 1.415 0 .39-.39.39-1.023 0-1.413zm3.893-9.534c-3.64-1.258-7.746-.115-10.206 3.053-2.543 3.269-2.51 7.987.073 11.227 3.428 4.296 9.767 4.632 13.61.79 2.512-2.512 3.301-6.201 2.154-9.469l1.275-1.49V15.5h1c1.105 0 2-.895 2-2l.001-1h2.415l1.586-1.586V7.5c0-1.105-.896-2-2-2h-3.407l-8.5 8.26zM28.5 10.086l-.414.414h-1.587c-1.105 0-2 .895-2 2v1h-1.001c-1.105 0-2 .895-2 2v1.63l-1.589 1.859.247.572c1.146 2.66.579 5.773-1.501 7.853-3.002 3.001-7.95 2.739-10.632-.622-2.008-2.518-2.033-6.213-.058-8.753 2.039-2.625 5.509-3.471 8.47-2.197l.613.263L25.905 7.5H28.5v2.586z"/>
</svg>
