<svg xmlns="http://www.w3.org/2000/svg" width="36" height="36" viewBox="0 0 36 36">
    <path fill-rule="evenodd" d="M17.553 8.106c.281-.141.613-.141.894 0l13 6.5c.737.368.737 1.42 0 1.788L27 18.618V24c0 2.807-4.018 4.914-8.712 4.997L18 29c-4.816 0-9-2.136-9-5v-5.382l-4.447-2.224c-.698-.349-.735-1.311-.11-1.725l.11-.063zM25 19.618l-6.553 3.276c-.281.141-.613.141-.894 0L11 19.618V24c0 1.36 2.993 2.922 6.72 2.997L18 27c3.855 0 7-1.606 7-3v-4.382zM29 20v5c0 .552.448 1 1 1s1-.448 1-1v-5c0-.552-.448-1-1-1s-1 .448-1 1zm-11-9.882L28.764 15.5 18 20.882 7.236 15.5 18 10.118z"/>
</svg>
