<svg xmlns="http://www.w3.org/2000/svg" width="36" height="36" viewBox="0 0 36 36">
    <path fill-rule="evenodd" d="M26.718 9.782c1.556 1.558 1.556 4.082 0 5.64-.247.246-.52.455-.815.625l-.096.05.053.092c2.616 4.57 2.79 7.108-.13 10.134l-.182.186-3.78 3.78c-.391.39-1.024.39-1.415 0-.36-.361-.388-.929-.083-1.32l.083-.095 3.78-3.779c2.5-2.499 2.22-4.304-.667-9.023-.355-.58-.04-1.323.596-1.489l.116-.023c.434-.062.823-.25 1.125-.552.776-.776.776-2.036 0-2.812-.776-.776-2.035-.776-2.81 0-.26.26-.435.582-.518.942l-.034.184c-.102.712-.9 1.088-1.513.712-4.62-2.828-6.448-3.154-8.867-.82l-3.935 3.932c-.39.39-1.024.39-1.415 0-.36-.36-.388-.928-.083-1.32l.083-.094 3.78-3.78c3.044-3.044 5.551-2.986 10.032-.476l.379.216.052-.095c.127-.22.276-.43.446-.625l.178-.19c1.557-1.558 4.082-1.558 5.64 0zm-4.243 12.729c.36.36.388.928.083 1.32l-.083.094-3.535 3.535c-.391.39-1.024.39-1.415 0-.36-.36-.388-.928-.083-1.32l.083-.094 3.535-3.535c.39-.39 1.024-.39 1.415 0zm-2.829-2.83c.36.361.389.928.084 1.32l-.084.095-3.536 3.536c-.39.39-1.023.39-1.414 0-.36-.36-.388-.928-.083-1.32l.083-.094 3.536-3.536c.39-.39 1.024-.39 1.414 0zm-2.828-2.827c.36.36.389.927.083 1.32l-.083.094-3.536 3.536c-.39.39-1.023.39-1.414 0-.36-.36-.388-.928-.083-1.32l.083-.094 3.536-3.536c.39-.39 1.024-.39 1.414 0zm-2.829-2.829c.36.361.388.928.083 1.32l-.083.095-3.535 3.535c-.39.39-1.023.39-1.414 0-.36-.36-.388-.928-.083-1.32l.083-.095 3.535-3.535c.39-.39 1.024-.39 1.414 0z"/>
</svg>
