<svg xmlns="http://www.w3.org/2000/svg" width="36" height="36" viewBox="0 0 36 36">
    <path fill-rule="evenodd" d="M36 18c0 9.941-8.059 18-18 18S0 27.941 0 18 8.059 0 18 0s18 8.059 18 18M18.666 6.894l5.292 4.719V8.919h2v4.477l2.084 1.858c.685.611.253 1.746-.666 1.746H26v10c0 .553-.448 1-1 1H11c-.552 0-1-.447-1-1v-9.8l2-1.2H9.264c-.95.002-1.497.003-1.642.005-.004-.267.1-.54.336-.751l9.376-8.36c.38-.338.952-.338 1.332 0zm1.584 11.938c-1.243 0-2.25-.934-2.25-2.084v-2.085s-3 2.209-3 5.582C15 21.767 16.343 23 18 23s3-1.233 3-2.755v-1.413h-.75z"/>
</svg>
