<svg xmlns="http://www.w3.org/2000/svg" width="36" height="36" viewBox="0 0 36 36">
    <path fill-rule="evenodd" d="M18 11c-3.329 0-6 2.85-6 6.333v1.334C12 22.151 14.671 25 18 25l.234-.005C21.475 24.852 24 22.051 24 18.667v-1.334C24 13.849 21.329 11 18 11zM6 23c.513 0 .936.386.993.883L7 24v5h5c.552 0 1 .448 1 1 0 .513-.386.936-.883.993L12 31H7c-1.055 0-1.918-.816-1.995-1.85L5 29v-5c0-.552.448-1 1-1zm24 0c.513 0 .936.386.993.883L31 24v5c0 1.054-.815 1.918-1.85 1.995L29 31h-5c-.552 0-1-.448-1-1 0-.513.386-.936.883-.993L24 29h5v-5c0-.552.448-1 1-1zM18 13c2.194 0 4 1.926 4 4.333v1.334c0 2.339-1.71 4.235-3.833 4.33l-.19.003C15.807 23 14 21.074 14 18.667v-1.334C14 14.926 15.806 13 18 13zm11-8c1.055 0 1.918.816 1.995 1.85L31 7v5c0 .552-.448 1-1 1-.513 0-.936-.386-.993-.883L29 12V7h-5c-.552 0-1-.448-1-1 0-.513.386-.936.883-.993L24 5h5zM12 5c.552 0 1 .448 1 1 0 .513-.386.936-.883.993L12 7H7v5c0 .552-.448 1-1 1-.513 0-.936-.386-.993-.883L5 12V7c0-1.054.815-1.918 1.85-1.995L7 5h5z"/>
</svg>
