<svg xmlns="http://www.w3.org/2000/svg" width="36" height="36" viewBox="0 0 36 36">
    <path fill-rule="evenodd" d="M12.342 5.816c1.172-1.172 3.07-1.172 4.242 0L18 7.23l1.415-1.414c1.173-1.171 3.072-1.171 4.243 0 1.172 1.172 1.172 3.072 0 4.242l-.88.88H27c1.597 0 2.904 1.249 2.995 2.823l.005.177v1c0 1.305-.835 2.417-2 2.829v10.17c0 1.657-1.344 3-3 3H11c-1.656 0-3-1.343-3-3v-10.17c-1.165-.412-2-1.524-2-2.83v-1c0-1.656 1.344-3 3-3h4.221l-.878-.878c-1.127-1.124-1.172-2.92-.136-4.099zM15.17 7.23c-.39-.39-1.023-.39-1.414 0-.391.391-.391 1.024 0 1.414l2.121 2.122c.053.053.1.11.138.171h3.97c.04-.06.085-.118.138-.17l2.121-2.123c.39-.39.39-1.023 0-1.414-.39-.39-1.024-.39-1.415 0l-2.122 2.121c-.39.39-1.023.39-1.414 0zM17 28.937h-6c-.552 0-1-.448-1-1V17.94h3.423c.55 0 .997-.447.997-.997 0-.551-.447-.998-.997-.998H9.117L9 15.937c-.552 0-1-.448-1-1v-1c0-.551.448-1 1-1h8.003l-.004 16zm2-11h7v10c0 .552-.448 1-1 1h-6.001l.001-11zm-.002-5H27c.552 0 1 .449 1 1v1c0 .552-.448 1-1 1h-8l-.002-3z"/>
</svg>
