<svg xmlns="http://www.w3.org/2000/svg" width="36" height="36" viewBox="0 0 36 36">
    <path fill-rule="evenodd" d="M17.665 7.213l.093.083 4.942 4.99c.028.027.055.057.08.089l-.07-.079c.037.037.07.075.099.116.015.02.03.042.043.064.01.015.018.03.026.046.012.02.022.042.032.064l.016.035.023.063.018.06.013.055.009.05c.003.022.006.044.007.066l.003.052L23 13v.034l-.004.05L23 13c0 .051-.004.102-.011.151l-.01.05-.01.049-.02.066-.023.063-.016.035c-.01.023-.022.046-.034.068l-.022.038c-.043.071-.095.137-.154.195l-4.942 4.989c-.388.392-1.021.395-1.414.007-.362-.36-.392-.926-.09-1.32l.083-.095L19.602 14H12c-1.598 0-2.904 1.249-2.995 2.824L9 17v6c0 1.598 1.249 2.904 2.824 2.995L12 26h13c.552 0 1 .448 1 1 0 .513-.386.936-.883.993L25 28H12c-2.689 0-4.882-2.122-4.995-4.783L7 23v-6c0-2.689 2.122-4.882 4.783-4.995L12 12h7.602l-3.265-3.296c-.358-.363-.383-.93-.076-1.32l.083-.095c.362-.358.93-.383 1.32-.076zm4.95-.026l.094.083 5 5.024c.358.36.386.926.083 1.317l-.083.094-5 5.024c-.39.392-1.023.393-1.414.004-.362-.36-.39-.927-.087-1.32l.083-.095L25.59 13l-4.298-4.319c-.36-.361-.386-.928-.08-1.32l.084-.094c.36-.36.928-.386 1.32-.08z"/>
</svg>
