<svg xmlns="http://www.w3.org/2000/svg" width="36" height="36" viewBox="0 0 36 36">
    <path fill-rule="evenodd" d="M18 5c.552 0 1 .448 1 1v1.041C25.16 7.55 30 12.71 30 19c0 .552-.448 1-1 1h-9.987L19 29c0 1.597-1.25 2.904-2.824 2.995L16 32c-1.656 0-3-1.344-3-3 0-.552.448-1 1-1s1 .448 1 1l.007.117c.058.496.48.883.993.883.552 0 1-.448 1-1l.013-9H7c-.552 0-1-.448-1-1 0-6.29 4.84-11.451 11-11.959V6c0-.552.448-1 1-1zm9.92 12.808c-.626-4.92-4.83-8.725-9.92-8.725-5.185 0-9.449 3.947-9.95 9h19.9l-.03-.275zm-9.054-4.956c2.19 0 3.89 1.366 3.89 2.93 0 .552.447 1 1 1 .552 0 1-.448 1-1 0-2.777-2.68-4.93-5.89-4.93-.553 0-1 .448-1 1 0 .553.447 1 1 1z"/>
</svg>
