<svg xmlns="http://www.w3.org/2000/svg" width="36" height="36" viewBox="0 0 36 36">
    <path fill-rule="evenodd" d="M26 11c1.881 0 3.646.746 4.95 2.05C32.254 14.354 33 16.12 33 18c0 1.88-.746 3.646-2.05 4.95C29.646 24.254 27.88 25 26 25c-2.45 0-4.64-1.26-6.553-3.32-.376-.404-.353-1.037.052-1.413.405-.376 1.037-.352 1.413.053C22.482 22.01 24.202 23 26 23c1.345 0 2.603-.532 3.535-1.464C30.468 20.603 31 19.345 31 18c0-1.345-.532-2.603-1.465-3.536C28.603 13.532 27.345 13 26 13c-2.097 0-3.632 1.193-6.526 4.738l-.773.96C14.98 23.378 13.098 25 10.001 25c-1.883 0-3.648-.746-4.95-2.05C3.746 21.646 3 19.881 3 18c0-1.881.746-3.646 2.05-4.95C6.352 11.746 8.117 11 10 11c2.45 0 4.64 1.26 6.552 3.32.376.404.353 1.037-.052 1.413-.405.376-1.037.352-1.413-.053C13.518 13.99 11.798 13 10 13c-1.347 0-2.605.532-3.536 1.464C5.532 15.396 5 16.654 5 18s.532 2.604 1.465 3.536C7.396 22.468 8.654 23 10 23c2.11 0 3.66-1.246 6.65-4.942l1.05-1.309C21.146 12.486 23.002 11 26 11z"/>
</svg>
