<svg xmlns="http://www.w3.org/2000/svg" width="36" height="36" viewBox="0 0 36 36">
    <path fill-rule="evenodd" d="M18 6c6.526 0 11.834 5.208 11.996 11.695L30 18v3.466l-.001.017V25c0 2.142-1.683 3.891-3.8 3.995L26 29h-2c-.552 0-1-.448-1-1v-8c0-.552.448-1 1-1H28v-1c0-5.523-4.477-10-10-10-5.43 0-9.848 4.326-9.996 9.72L8 18v1h4c.513 0 .936.386.994.883L13 20v8c0 .552-.448 1-1 1h-2c-2.21 0-4-1.79-4-4L6 18c0-6.628 5.372-12 12-12zm-7 15H8v4c0 1.055.816 1.918 1.851 1.995l.15.005H11v-6zm16.999 0h-3v6h1c1.055 0 1.919-.816 1.995-1.85L28 25l-.001-4z"/>
</svg>
