<svg xmlns="http://www.w3.org/2000/svg" width="36" height="36" viewBox="0 0 36 36">
    <path fill-rule="evenodd" d="M16 8c.709 0 1.361.245 1.875.654l.125.105.125-.105c.47-.375 1.058-.612 1.699-.649L20 8h9c1.595 0 2.903 1.238 2.995 2.804l.005.175v14.052c0 1.589-1.252 2.884-2.824 2.975L29 28.01l-7.854-.001-3.146.934-3.147-.934H7c-1.595 0-2.903-1.238-2.995-2.803L4 25.03V10.98C4 9.39 5.251 8.096 6.824 8.005L7 8h9zm0 2H7c-.515 0-.936.38-.993.866L6 10.979v14.052c0 .5.385.916.883.973l.117.007h8.145l1.855.55V10.979c0-.5-.384-.915-.883-.972L16 10zm13 0h-9c-.515 0-.936.38-.993.866l-.007.113V26.56l1.855-.55H29c.514 0 .936-.38.993-.865l.007-.114V10.98c0-.5-.384-.915-.883-.972L29 10zM14 21v2H8v-2h6zm14 0v2h-6v-2h6zm-14-4v2H8v-2h6zm14 0v2h-6v-2h6zm-14-4v2H8v-2h6zm14 0v2h-6v-2h6z"/>
</svg>
