<svg xmlns="http://www.w3.org/2000/svg" width="36" height="36" viewBox="0 0 36 36">
    <path fill-rule="evenodd" d="M29.939 26c.552 0 1 .448 1 1 0 .513-.386.936-.883.993l-.117.007H6c-.552 0-1-.448-1-1 0-.513.386-.936.883-.993L6 26h23.939zM30 8c.552 0 1 .448 1 1v14c0 .552-.448 1-1 1H6c-.552 0-1-.448-1-1V9c0-.552.448-1 1-1zm-1 2H7v12h22V10zm-11 2c2.21 0 4 1.79 4 4s-1.79 4-4 4-4-1.79-4-4 1.79-4 4-4zm0 2c-1.105 0-2 .895-2 2s.895 2 2 2 2-.895 2-2-.895-2-2-2zm8 0v4h-2v-4h2zm-14 0v4h-2v-4h2z"/>
</svg>
