<svg xmlns="http://www.w3.org/2000/svg" width="36" height="36" viewBox="0 0 36 36">
    <path fill-rule="evenodd" d="M6 23c.552 0 1 .448 1 1v5h5c.552 0 1 .448 1 1s-.448 1-1 1H7c-1.105 0-2-.896-2-2v-5c0-.552.448-1 1-1zm24 0c.552 0 1 .448 1 1v5c0 1.104-.895 2-2 2h-5c-.552 0-1-.448-1-1s.448-1 1-1h5v-5c0-.552.448-1 1-1zm-6-11c1.105 0 2 .896 2 2v8c0 1.104-.895 2-2 2H12c-1.105 0-2-.896-2-2v-8c0-1.104.895-2 2-2h12zm0 6H12v4h12v-4zm0-4H12v2h12v-2zm5-9c1.105 0 2 .896 2 2v5c0 .552-.448 1-1 1s-1-.448-1-1V7h-5c-.552 0-1-.448-1-1s.448-1 1-1zM12 5c.552 0 1 .448 1 1s-.448 1-1 1H7v5c0 .552-.448 1-1 1s-1-.448-1-1V7c0-1.104.895-2 2-2z"/>
</svg>
