<svg xmlns="http://www.w3.org/2000/svg" width="36" height="36" viewBox="0 0 36 36">
    <path fill-rule="evenodd" d="M18 5C10.8 5 5 10.8 5 18s5.8 13 13 13 13-5.8 13-13S25.2 5 18 5zm0 2c5.8 0 10.4 4.4 10.9 10h-4.2c-1.4 0-2.8-.6-3.7-1.6-.7-.8-1.8-1.4-3-1.4s-2.3.5-3 1.4c-.9 1.1-2.3 1.6-3.7 1.6H7.1C7.6 11.4 12.2 7 18 7zm-2 11c0-1.1.9-2 2-2s2 .9 2 2-.9 2-2 2-2-.9-2-2zm-8.9 1h3.8c1.6 0 3.1.6 4.2 1.8l.1.1c1.1 1.1 1.8 2.6 1.8 4.2v3.8c-5.3-.4-9.5-4.6-9.9-9.9zM19 28.9v-3.8c0-1.6.6-3.1 1.8-4.2l.1-.1c1.1-1.1 2.6-1.8 4.2-1.8h3.8c-.4 5.3-4.6 9.5-9.9 9.9z"/>
</svg>
