<svg xmlns="http://www.w3.org/2000/svg" width="36" height="36" viewBox="0 0 36 36">
    <path fill-rule="evenodd" d="M18 7c6.35 0 11.5 5.132 11.5 11.465 0 .618-.049 1.229-.146 1.83 1.253.812 2.048 2.22 2.048 3.773 0 2.487-2.013 4.5-4.5 4.5-2.485 0-4.5-2.014-4.5-4.5 0-2.485 2.015-4.5 4.5-4.5.178 0 .354.01.528.031.048-.373.07-.752.07-1.134C27.5 13.238 23.247 9 18 9s-9.5 4.238-9.5 9.465c0 .853.113 1.69.334 2.495l1.735-1.002c.667-.385 1.5.096 1.5.866v6.638c0 .77-.833 1.25-1.5.866l-5.749-3.32c-.666-.384-.666-1.346 0-1.731l2.234-1.29-.079-.252c-.314-1.052-.475-2.15-.475-3.27C6.5 12.132 11.65 7 18 7zm8.902 14.568c-1.38 0-2.5 1.12-2.5 2.5 0 1.382 1.12 2.5 2.5 2.5 1.382 0 2.5-1.118 2.5-2.5 0-1.024-.62-1.932-1.553-2.314-.297-.122-.617-.186-.947-.186zm-16.833.987l-1.292.747-.019.01-1.438.83 2.749 1.587v-3.174z"/>
</svg>
