<svg xmlns="http://www.w3.org/2000/svg" width="36" height="36" viewBox="0 0 36 36">
    <path fill-rule="evenodd" d="M25 9c1.656 0 3 1.344 3 3v1h1c1.597 0 2.904 1.25 2.995 2.824L32 16v10c0 1.656-1.344 3-3 3H11c-1.656 0-3-1.344-3-3v-1H7c-1.656 0-3-1.344-3-3V12c0-1.656 1.344-3 3-3h18zm3 13c0 1.656-1.344 3-3 3H10v1c0 .512.387.935.883.993L11 27h18c.552 0 1-.448 1-1V16c0-.552-.448-1-1-1h-1v7zm-3-11H7c-.552 0-1 .448-1 1v10c0 .552.448 1 1 1h18c.552 0 1-.448 1-1V12c0-.552-.448-1-1-1zM8 15h16v-2H8v2z"/>
</svg>
