<svg xmlns="http://www.w3.org/2000/svg" width="36" height="36" viewBox="0 0 36 36">
    <path fill-rule="evenodd" d="M36 18c0-9.941-8.059-18-18-18S0 8.059 0 18s8.059 18 18 18 18-8.059 18-18M18.099 5.709c-6.627 0-12 5.373-12 12 0 6.589 5.312 11.932 11.886 11.994V33l.016-.017L18 33c5.913-1.352 11.308-6.952 12.009-13.539.085-.574.09-1.153.09-1.752 0-6.627-5.373-12-12-12M18 26.482c4.971 0 9-4.029 9-9 0-2.515-1.035-4.787-2.698-6.42l-10.064 5.884-4.503-2.612c-.044-.026-.094-.028-.141-.044-.378.993-.594 2.066-.594 3.192 0 4.971 4.029 9 9 9m4.964-16.504c-.472-.313-.975-.583-1.504-.804l-7.221 4.207-3.05-1.772c-.325.378-.617.784-.877 1.212.016.011 3.92 2.296 3.92 2.296s8.68-5.079 8.732-5.139"/>
</svg>
