<svg xmlns="http://www.w3.org/2000/svg" width="36" height="36" viewBox="0 0 36 36">
    <path fill-rule="evenodd" d="M15.962 7.142c.15.531-.159 1.084-.69 1.234C11.003 9.584 8 13.496 8 18c0 5.523 4.477 10 10 10 4.51 0 8.426-3.011 9.628-7.288.15-.531.702-.841 1.233-.692.532.15.842.702.692 1.233C28.111 26.387 23.411 30 18 30c-6.627 0-12-5.373-12-12C6 12.596 9.603 7.9 14.728 6.452c.531-.15 1.084.158 1.234.69zM19 6c6.075 0 11 4.925 11 11 0 .552-.448 1-1 1H19c-.552 0-1-.448-1-1V7c0-.552.448-1 1-1zm1 2.055V16h7.944l-.04-.318c-.587-4.005-3.812-7.152-7.854-7.621L20 8.055z"/>
</svg>
