<svg xmlns="http://www.w3.org/2000/svg" width="36" height="36" viewBox="0 0 36 36">
    <path fill-rule="evenodd" d="M14 19.262V10c0-2.21 1.79-4 4-4 1.863 0 3.429 1.274 3.873 2.998h1.124c.552 0 1 .447 1 .999 0 .551-.448.999-1 .999H22V12h.996c.553 0 1 .447 1 1 0 .552-.447 1-1 1H22v1h.996c.553 0 1 .448 1 1s-.447 1-1 1H22v2.262c2.167 1.508 3.338 4.122 2.913 6.852-.473 3.05-3 5.476-6.07 5.837C14.64 32.443 11 29.183 11 25c0-2.23 1.055-4.276 2.78-5.58l.22-.158zM18 8c-1.105 0-2 .895-2 2v9.81c0 .357-.19.687-.5.866-1.535.889-2.5 2.522-2.5 4.324 0 2.989 2.6 5.317 5.61 4.965 2.178-.256 3.991-1.997 4.327-4.158.328-2.107-.66-4.102-2.438-5.132-.309-.178-.499-.508-.499-.865V10c0-1.105-.895-2-2-2zm.117 18.824L18 26.817c-1.105 0-2-.895-2-2 0-.552-.448-1-1-1s-1 .448-1 1c0 2.21 1.79 4 4 4 .552 0 1-.447 1-1 0-.512-.386-.935-.883-.993z"/>
</svg>
