<svg xmlns="http://www.w3.org/2000/svg" width="36" height="36" viewBox="0 0 36 36">
    <path fill-rule="evenodd" d="M17 20c3.314 0 6 2.686 6 6 0 1.656-1.344 3-3 3H10c-1.656 0-3-1.344-3-3 0-3.313 2.687-6 6-6h4zm0 2h-4c-2.209 0-4 1.791-4 4 0 .552.448 1 1 1h10c.552 0 1-.448 1-1 0-2.21-1.79-4-4-4zM15 9.25c2.209 0 4 1.791 4 4V14c0 2.122-1.657 3.871-3.795 3.994L15 18c-2.209 0-4-1.791-4-4v-.75c0-2.209 1.791-4 4-4zm7.038.871c.39-.39 1.024-.39 1.414 0l2.293 2.293 2.293-2.293c.36-.36.928-.388 1.32-.083l.094.083c.39.391.39 1.024 0 1.415l-2.293 2.292 2.293 2.293c.36.361.388.928.083 1.32l-.083.095c-.39.39-1.024.39-1.414 0l-2.293-2.293-2.293 2.293c-.36.36-.928.388-1.32.083l-.094-.083c-.39-.39-.39-1.024 0-1.415l2.292-2.293-2.292-2.292c-.36-.36-.388-.928-.083-1.32zM15 11.25c-1.104 0-2 .896-2 2V14c0 1.104.896 2 1.971 2l.147-.003C16.171 15.936 17 15.06 17 14v-.75c0-1.104-.896-2-2-2z"/>
</svg>
