<svg xmlns="http://www.w3.org/2000/svg" width="36" height="36" viewBox="0 0 36 36">
    <path fill-rule="evenodd" d="M8 29c-.552 0-1-.448-1-1 0-.513.386-.936.883-.993L8 27h9V9h-7c-.552 0-1-.448-1-1 0-.513.386-.936.883-.993L10 7h16c.552 0 1 .448 1 1 0 .513-.386.936-.883.993L26 9h-7v18h9c.552 0 1 .448 1 1 0 .513-.386.936-.883.993L28 29H8zm.584-16.9c.35-.8 1.483-.8 1.832 0l3.5 8c.29.66-.195 1.4-.916 1.4H6c-.721 0-1.205-.74-.916-1.4zm17 0c.35-.8 1.483-.8 1.832 0l3.5 8c.29.66-.195 1.4-.916 1.4h-7c-.721 0-1.205-.74-.916-1.4zM9.5 14.994L7.529 19.5h3.941L9.5 14.995zm17 0L24.529 19.5h3.941l-1.97-4.505z"/>
</svg>
