<svg xmlns="http://www.w3.org/2000/svg" width="36" height="36" viewBox="0 0 36 36">
    <path fill-rule="evenodd" d="M18.887 13.224c1.074-1.074 2.815-1.074 3.89 0l.128.138c.942 1.08.9 2.721-.128 3.75L9.695 30.194c-1.005 1.005-2.605 1.077-3.73.147l-.16-.147c-1.074-1.074-1.074-2.814 0-3.889zm-3.092 5.92L7.22 27.719c-.294.294-.294.768-.035 1.028l.09.083c.295.244.731.224 1.006-.05l8.575-8.575-1.061-1.061zm10.734-1.841l.09.078 2 2c.341.342.341.896 0 1.238-.314.313-.805.34-1.148.078l-.09-.078-2-2c-.341-.342-.341-.896 0-1.238.314-.313.805-.34 1.148-.078zm-5.166-2.665c-.294-.293-.769-.293-1.062 0L17.21 17.73l1.06 1.06 3.092-3.091c.266-.266.29-.684.073-.977zM29 13.125c.483 0 .875.392.875.875 0 .446-.334.814-.765.868l-.11.007h-2c-.483 0-.875-.392-.875-.875 0-.446.334-.814.765-.868l.11-.007h2zm-.381-5.744c.313.314.34.805.078 1.148l-.078.09-2 2c-.342.341-.896.341-1.238 0-.313-.314-.34-.805-.078-1.148l.078-.09 2-2c.342-.341.896-.341 1.238 0zm-12.09-.078l.09.078 2 2c.341.342.341.896 0 1.238-.314.313-.805.34-1.148.078l-.09-.078-2-2c-.341-.342-.341-.896 0-1.238.314-.313.805-.34 1.148-.078zM22 6.125c.446 0 .814.334.868.765l.007.11v2c0 .483-.392.875-.875.875-.446 0-.814-.334-.868-.765L21.125 9V7c0-.483.392-.875.875-.875z"/>
</svg>
