<svg xmlns="http://www.w3.org/2000/svg" width="36" height="36" viewBox="0 0 36 36">
    <path fill-rule="evenodd" d="M18 5c7.18 0 13 5.82 13 13s-5.82 13-13 13S5 25.18 5 18 10.82 5 18 5zm0 2C11.925 7 7 11.925 7 18s4.925 11 11 11 11-4.925 11-11S24.075 7 18 7zm5.675 16c.552 0 1 .448 1 1 0 .513-.386.936-.883.993l-.117.007H18c-.552 0-1-.448-1-1 0-.513.386-.936.883-.993L18 23h5.675zm2-4c.552 0 1 .448 1 1 0 .513-.386.936-.883.993l-.117.007H18c-.552 0-1-.448-1-1 0-.513.386-.936.883-.993L18 19h7.675zm0-4c.552 0 1 .448 1 1 0 .513-.386.936-.883.993l-.117.007H18c-.552 0-1-.448-1-1 0-.513.386-.936.883-.993L18 15h7.675zm-2-4c.552 0 1 .448 1 1 0 .513-.386.936-.883.993l-.117.007H18c-.552 0-1-.448-1-1 0-.513.386-.936.883-.993L18 11h5.675z"/>
</svg>
