<svg xmlns="http://www.w3.org/2000/svg" width="36" height="36" viewBox="0 0 36 36">
    <path fill-rule="evenodd" d="M27.704 29.956c.745.23 1.455-.442 1.266-1.198l-1.407-5.628c2.35-4.592 1.61-9.927-2.077-13.616-4.687-4.685-12.285-4.685-16.971 0-4.608 4.609-4.685 12.032-.23 16.735l.23.237c3.706 3.705 9.698 4.537 14.315 2.2l.287-.15 4.587 1.42zM9.929 10.928c3.905-3.904 10.237-3.904 14.143 0 3.142 3.144 3.703 7.687 1.552 11.59-.122.22-.156.48-.094.725l1.069 4.277-3.304-1.023c-.27-.084-.563-.049-.806.095-3.83 2.274-9.084 1.741-12.341-1.309l-.22-.212c-3.904-3.905-3.904-10.237 0-14.143zm8.066 9.176c.056-.539.124-.685.354-.9l.19-.168.265-.223c1.272-1.085 1.884-2.067 1.884-3.394 0-2.137-1.59-3.919-3.688-3.919-2.179 0-4 1.41-4 3.5 0 .552.448 1 1 1 .513 0 .936-.386.993-.883L15 15c0-.857.83-1.5 2-1.5.94 0 1.688.84 1.688 1.919 0 .63-.311 1.13-1.18 1.871l-.262.22c-.107.09-.188.162-.265.235-.593.556-.871 1.15-.976 2.151-.057.55.342 1.041.891 1.099.55.057 1.041-.342 1.099-.891zM18.15 24v-.5c0-.635-.515-1.15-1.15-1.15-.635 0-1.15.515-1.15 1.15v.5c0 .635.515 1.15 1.15 1.15.635 0 1.15-.515 1.15-1.15z"/>
</svg>
