<svg xmlns="http://www.w3.org/2000/svg" width="36" height="36" viewBox="0 0 36 36">
    <path fill-rule="evenodd" d="M30.728 5.271c7.029 7.03 7.029 18.427 0 25.456-7.03 7.03-18.426 7.03-25.456 0-7.029-7.029-7.029-18.425 0-25.456 7.03-7.029 18.426-7.029 25.456 0zm-5.658 9.902l-5.656 5.655c-.872.872-1.095 2.149-.668 3.227l.082.189-3.656 3.655c-.39.39-.39 1.024 0 1.414.39.39 1.024.39 1.414 0L27.9 18c.782-.781.782-2.048 0-2.829-.78-.78-2.048-.78-2.829.002zM18 6.686l-2.828 2.828c-1.319 1.318-1.525 3.328-.619 4.861L8.1 20.828c-.39.391-.39 1.024 0 1.415.391.39 1.024.39 1.415 0l6.453-6.453c1.534.906 3.543.7 4.86-.619l2.829-2.828c.39-.39.39-1.023 0-1.414-.39-.39-1.024-.39-1.414 0l-2.83 2.828c-.523.524-1.264.696-1.93.518l4.053-4.053c.39-.39.39-1.024 0-1.415-.39-.39-1.024-.39-1.415 0l-4.053 4.054c-.179-.667-.006-1.409.518-1.933L19.414 8.1c.39-.39.39-1.023 0-1.414-.39-.39-1.024-.39-1.414 0z"/>
</svg>
