<svg xmlns="http://www.w3.org/2000/svg" width="36" height="36" viewBox="0 0 36 36">
    <path fill-rule="evenodd" d="M18.303 6.717c6.263 6.086 6.263 16.48 0 22.566-.396.385-.405 1.018-.02 1.414.385.396 1.018.405 1.414.02 7.071-6.872 7.071-18.562 0-25.434-.396-.385-1.029-.376-1.414.02s-.376 1.03.02 1.414zm-4.022 3.978c3.625 3.754 3.625 9.856 0 13.61-.384.398-.373 1.03.024 1.414.398.384 1.03.373 1.414-.024 4.375-4.53 4.375-11.86 0-16.39-.383-.397-1.016-.408-1.414-.024-.397.383-.408 1.016-.024 1.414zm-4.06 4.932c1.039 1.29 1.039 3.455 0 4.746-.346.43-.278 1.06.152 1.406.43.346 1.06.278 1.406-.152 1.628-2.023 1.628-5.23 0-7.254-.346-.43-.975-.498-1.406-.152-.43.346-.498.975-.152 1.406z"/>
</svg>
