<svg xmlns="http://www.w3.org/2000/svg" width="36" height="36" viewBox="0 0 36 36">
    <path fill-rule="evenodd" d="M20 4.125c.446 0 .814.334.868.765l.007.11v2.5c0 1.792-1.016 3.67-3.059 6.212l-.555.678-.326.387-1.857 2.168c-2.503 2.95-3.203 4.045-3.203 5.077 0 .908.465 1.263 2.125 1.719l.38.1c2.41.635 3.424 1.249 3.491 2.97l.004.189v3c0 .483-.392.875-.875.875-.446 0-.814-.334-.868-.765l-.007-.11v-3c0-.696-.396-.978-1.97-1.406l-.378-.101c-2.55-.673-3.652-1.424-3.652-3.471 0-1.628.685-2.76 3.56-6.143l1.74-2.027c.236-.277.443-.523.64-.762l.147-.179c1.882-2.299 2.835-3.954 2.908-5.25l.005-.161V5c0-.483.392-.875.875-.875zM24.5 20.5c.552 0 1 .448 1 1 0 1.933-1.567 3.5-3.5 3.5-1.23 0-1.931-.328-2.807-1.106l-.222-.204c-.55-.51-.804-.665-1.323-.687L17.5 23H16c-.552 0-1-.448-1-1 0-.513.386-.936.883-.993L16 21h1.5c1.15 0 1.808.311 2.65 1.06l.228.208c.627.583.91.732 1.622.732.78 0 1.42-.595 1.493-1.355l.007-.145c0-.552.448-1 1-1z"/>
</svg>
