<svg xmlns="http://www.w3.org/2000/svg" width="36" height="36" viewBox="0 0 36 36">
    <path fill-rule="evenodd" d="M20 7c1.656 0 3 1.344 3 3v3h3c1.656 0 3 1.344 3 3v10c0 1.656-1.344 3-3 3H16c-1.656 0-3-1.344-3-3v-3h-3c-1.656 0-3-1.344-3-3V10c0-1.656 1.344-3 3-3h10zm6 8h-3v5c0 1.656-1.344 3-3 3h-5v3c0 .552.448 1 1 1h10c.552 0 1-.448 1-1V16c0-.552-.448-1-1-1zm-6-6H10c-.552 0-1 .448-1 1v10c0 .552.448 1 1 1h3v-5c0-1.656 1.344-3 3-3h5v-3c0-.552-.448-1-1-1zm1 6h-5c-.552 0-1 .448-1 1v5h5c.552 0 1-.448 1-1v-5z"/>
</svg>
