<svg xmlns="http://www.w3.org/2000/svg" width="36" height="36" viewBox="0 0 36 36">
    <path fill-rule="evenodd" d="M25.5 7c.765 0 1.247.824.872 1.49l-3.008 5.346 4.133 4.214c1.284 1.308 2.003 3.068 2.003 4.902V24c0 3.865-3.135 7-7 7h-9c-3.866 0-7-3.134-7-7v-1.048c0-1.834.719-3.594 2.003-4.902l4.134-4.214L9.63 8.49C9.253 7.824 9.735 7 10.5 7h15zm-1.71 2H12.21l2.538 4.51c.219.387.154.873-.157 1.19l-4.66 4.75c-.918.935-1.431 2.192-1.431 3.502V24c0 2.761 2.239 5 5 5h9c2.76 0 5-2.24 5-5v-1.048c0-1.31-.513-2.567-1.43-3.502L21.703 15h-3.827c-.513 0-.936-.386-.993-.883L16.877 14c0-.552.448-1 1-1h3.661l2.252-4zM11 22.5c.552 0 1 .448 1 1 0 1.105.895 2 2 2l.116.007c.498.057.884.48.884.993 0 .552-.448 1-1 1-2.21 0-4-1.79-4-4 0-.552.448-1 1-1z"/>
</svg>
