<svg xmlns="http://www.w3.org/2000/svg" width="36" height="36" viewBox="0 0 36 36">
    <path fill-rule="evenodd" d="M36 18c0 9.941-8.059 18-18 18S0 27.941 0 18 8.059 0 18 0s18 8.059 18 18m-14.71-4H14.71c-3.024 0-5.356 2.663-4.956 5.661L11 29h14l1.245-9.339c.4-2.998-1.932-5.661-4.956-5.661M20 12h-4c-.552 0-1-.447-1-1V8c0-1.104.896-2 2-2h2c1.104 0 2 .896 2 2v3c0 .553-.448 1-1 1m-1-3c0 .553-.448 1-1 1s-1-.447-1-1c0-.553.448-1 1-1s1 .447 1 1m-2 7.334c-.653.161-1.252.371-1.796.663-.53.315-1.047.636-1.451 1.09-.413.435-.791.912-1.057 1.464-.304.536-.507 1.133-.696 1.783-.488-.658-.589-1.484-.441-2.254.156-.771.561-1.501 1.145-2.042.575-.545 1.299-.944 2.071-1.074.764-.14 1.567-.053 2.225.37"/>
</svg>
