<svg xmlns="http://www.w3.org/2000/svg" width="36" height="36" viewBox="0 0 36 36">
    <path fill-rule="evenodd" d="M29.551 7.261c1.403 1.402 1.712 3.947.354 5.304l-3.801 3.801 2.299 10.546c.144.666-.06 1.36-.541 1.839l-1.735 1.735c-.781.781-2.05.781-2.829 0-.09-.09-.17-.189-.25-.305l-4.303-6.455-2.979 2.977.236 2.256c.062.6-.15 1.194-.575 1.62l-2.048 2.049c-.462.462-1.236.364-1.568-.198l-2.76-4.667-4.668-2.76c-.562-.333-.66-1.107-.197-1.569l2.047-2.045c.426-.428 1.022-.639 1.623-.577l2.254.235 2.978-2.978-6.448-4.3c-.113-.073-.217-.159-.313-.254-.78-.78-.78-2.046 0-2.828L8.064 8.95c.481-.48 1.173-.683 1.838-.538l10.545 2.298 3.801-3.8c1.356-1.36 3.902-1.05 5.303.351zm-3.888 1.062l-4.189 4.188c-.24.24-.587.342-.92.27L9.477 10.366 7.742 12.1l7.47 4.982c.525.35.599 1.093.152 1.539l-4.177 4.177c-.213.213-.51.319-.81.287l-2.727-.284-1.138 1.137 3.777 2.234c.145.086.266.207.352.352l2.235 3.778 1.136-1.137-.284-2.728c-.032-.3.074-.598.287-.812l3.825-3.823.015-.015 6.44-6.44.008-.008 4.189-4.189c.49-.49.332-1.788-.355-2.475-.685-.685-1.984-.843-2.474-.352zm-1.24 9.723l-4.237 4.236 4.527 6.79 1.736-1.737-2.026-9.289z"/>
</svg>
