<svg xmlns="http://www.w3.org/2000/svg" width="36" height="36" viewBox="0 0 36 36">
    <path fill-rule="evenodd" d="M23.366 9.498l.057.117 7.5 18c.212.51-.029 1.096-.538 1.308-.474.197-1.012.004-1.257-.433l-.051-.105L27.25 24h-9.5l-1.827 4.385c-.197.473-.716.715-1.197.577l-.11-.039c-.474-.197-.716-.716-.578-1.197l.039-.11 7.5-18c.325-.78 1.39-.82 1.789-.118zM22.5 12.6L18.583 22h7.834L22.5 12.6zM10.64 9.61l.052.102 4 9.6c.16.382-.021.821-.404.98-.35.146-.748.007-.935-.312l-.045-.091-.892-2.139H7.583l-.89 2.139c-.147.35-.528.531-.885.436l-.096-.033c-.35-.146-.532-.527-.437-.884l.033-.096 4-9.6c.241-.58 1.027-.614 1.333-.103zM10 11.95l-1.792 4.3h3.584L10 11.95z"/>
</svg>
