<svg xmlns="http://www.w3.org/2000/svg" width="36" height="36" viewBox="0 0 36 36">
    <path fill-rule="evenodd" d="M18 0c9.941 0 18 8.059 18 18s-8.059 18-18 18S0 27.941 0 18 8.059 0 18 0zm7.779 10.221c-4.297-4.294-11.262-4.294-15.557 0-4.296 4.297-4.296 11.262 0 15.557 4.295 4.296 11.26 4.296 15.557 0 4.219-4.22 4.293-11.017.222-15.328zm-.746 2.161c2.829 3.534 2.606 8.707-.668 11.982-3.277 3.276-8.45 3.498-11.983.669zm-13.397-.747c3.275-3.274 8.448-3.497 11.982-.668l-12.65 12.65c-2.83-3.533-2.607-8.705.668-11.982z"/>
</svg>
