<svg xmlns="http://www.w3.org/2000/svg" width="36" height="36" viewBox="0 0 36 36">
    <path fill-rule="evenodd" d="M14.553 7.106C15.218 6.773 16 7.256 16 8l.001 6.134c.298.173.499.496.499.866v8h.5c.513 0 .936.386.993.883L18 24v5c0 .552-.448 1-1 1H9c-.552 0-1-.448-1-1v-5c0-.552.448-1 1-1h.5v-8c0-.37.201-.693.5-.866V10c0-.379.214-.725.553-.894zm6.878.098c1.028-.273 4.11-.273 5.138 0l.126.034c1.263.333 2.047 1.592 1.79 2.872l-.037.134L27 14.373V27c0 1.657-1.343 3-3 3-1.597 0-2.904-1.25-2.995-2.824L21 27V14.376l-1.448-4.132-.036-.134c-.258-1.28.526-2.54 1.785-2.871zM16 25h-6v3h6v-3zm9-9.795h-2V27c0 .552.448 1 1 1 .513 0 .935-.386.993-.884L25 27V15.205zM14.5 16h-3v7h3v-7zM14 9.618l-2 1V14h2V9.618zm11.914-.511c-.863-.153-3.32-.143-3.968.03l-.131.035c-.239.063-.387.301-.339.545l-.005-.043 1.238 3.531h2.581l1.238-3.531.005-.038c.005-.187-.103-.36-.274-.438l-.078-.027-.127-.034z"/>
</svg>
