<svg xmlns="http://www.w3.org/2000/svg" width="36" height="36" viewBox="0 0 36 36">
    <path fill-rule="evenodd" d="M10.93 25.072c-.914-.914-1.643-1.994-2.144-3.18-.215-.509-.802-.747-1.31-.532-.51.215-.747.802-.532 1.31.601 1.425 1.476 2.72 2.57 3.815.39.39 1.024.391 1.414 0 .391-.39.391-1.023.001-1.413zM29 17c.552 0 1 .448 1 1 0 1.624-.323 3.205-.943 4.672-.603 1.425-1.478 2.72-2.572 3.813-1.094 1.094-2.389 1.969-3.815 2.572-1.465.62-3.046.943-4.67.943h-.022c-1.617-.003-3.19-.326-4.648-.943-.51-.215-.747-.802-.532-1.31.215-.51.802-.747 1.31-.532 1.22.516 2.537.785 3.892.785h.012c1.351-.002 2.664-.27 3.88-.785 1.187-.502 2.267-1.232 3.179-2.144.912-.912 1.642-1.992 2.144-3.178C27.73 20.672 28 19.355 28 18c0-.552.448-1 1-1zm-3.93-6.072c.914.914 1.643 1.994 2.144 3.18.215.509.802.747 1.31.532.51-.215.747-.802.532-1.31-.601-1.425-1.476-2.72-2.57-3.815-.39-.39-1.024-.391-1.414 0-.391.39-.391 1.023-.001 1.413zM18 8c1.355 0 2.672.27 3.892.785.508.215 1.095-.023 1.31-.532.215-.508-.023-1.095-.532-1.31C21.205 6.323 19.624 6 18 6c-.552 0-1 .448-1 1s.448 1 1 1zM8 18c0-1.355.27-2.672.785-3.893.502-1.186 1.232-2.266 2.144-3.178.912-.912 1.992-1.642 3.18-2.144.508-.215.746-.802.531-1.31-.215-.51-.802-.747-1.31-.532-1.426.603-2.721 1.478-3.815 2.572-1.094 1.093-1.969 2.388-2.572 3.813C6.323 14.795 6 16.376 6 18c0 .552.448 1 1 1s1-.448 1-1zm10-7c3.865 0 7 3.135 7 7s-3.135 7-7 7-7-3.135-7-7 3.135-7 7-7zm0 2c-2.76 0-5 2.24-5 5s2.24 5 5 5 5-2.24 5-5-2.24-5-5-5z"/>
</svg>
