<svg xmlns="http://www.w3.org/2000/svg" width="36" height="36" viewBox="0 0 36 36">
    <path fill-rule="evenodd" d="M18 0c9.941 0 18 8.06 18 18s-8.059 18-18 18S0 27.94 0 18 8.059 0 18 0zm9.949 24.971H8v2h19.949v-2zM18.003 8.968c-4.968 0-8.997 4.027-8.997 8.997 0 1.853.562 3.574 1.522 5.006h14.95C26.438 21.54 27 19.818 27 17.965c0-4.97-4.028-8.997-8.997-8.997zm6.812 10.268c-.104-2.646-4.447-7.096-7.479-7.48.98-.155 2.02-.067 2.987.268.983.307 1.88.877 2.627 1.598.756.712 1.377 1.59 1.706 2.582.327.985.415 2.05.16 3.032"/>
</svg>
