<svg xmlns="http://www.w3.org/2000/svg" width="36" height="36" viewBox="0 0 36 36">
    <path fill-rule="evenodd" d="M18.217 7.56c3.143-2.318 7.59-2.052 10.432.798 3.135 3.143 3.135 8.237 0 11.38l-9.94 9.969c-.391.391-1.026.391-1.417 0L7.35 19.739c-3.134-3.144-3.134-8.238 0-11.38 2.844-2.851 7.29-3.117 10.433-.798l.217.166.217-.166zm9.016 10.766c2.356-2.362 2.356-6.194 0-8.555-2.354-2.36-6.17-2.36-8.525 0-.39.391-1.025.391-1.415 0-2.356-2.36-6.172-2.36-8.527 0-2.355 2.361-2.355 6.193 0 8.555L18 27.584l9.233-9.258zm-5.525 3.38l4.68-4.692c.39-.39.39-1.024-.002-1.414-.39-.39-1.024-.39-1.414.002l-4.68 4.692c-.39.39-.39 1.024.002 1.414.39.39 1.024.39 1.414-.002z"/>
</svg>
