<svg xmlns="http://www.w3.org/2000/svg" width="36" height="36" viewBox="0 0 36 36">
    <path fill-rule="evenodd" d="M10.205 23.79c4.304 4.28 11.286 4.28 15.59 0 .392-.389 1.025-.387 1.414.005.39.392.388 1.025-.004 1.414-5.084 5.055-13.326 5.055-18.41 0-.392-.39-.394-1.022-.004-1.414.39-.392 1.022-.394 1.414-.004zM18 11c3.865 0 7 3.135 7 7s-3.135 7-7 7-7-3.135-7-7 3.135-7 7-7zm0 2c-2.76 0-5 2.24-5 5s2.24 5 5 5 5-2.24 5-5-2.24-5-5-5zm0 2c.421 0 .82.088 1.184.244-.412.268-.684.73-.684 1.256 0 .828.672 1.5 1.5 1.5.369 0 .702-.139.964-.359.015.119.036.236.036.359 0 1.657-1.343 3-3 3s-3-1.343-3-3 1.343-3 3-3zm0-8c5.502 0 10.545 3.371 13.861 8.992.28.476.123 1.089-.353 1.37-.476.28-1.089.122-1.37-.354C27.16 11.958 22.736 9 18 9s-9.159 2.958-12.139 8.008c-.28.476-.893.634-1.37.353-.475-.28-.633-.893-.352-1.37C7.455 10.372 12.498 7 18 7z"/>
</svg>
