<svg xmlns="http://www.w3.org/2000/svg" width="36" height="36" viewBox="0 0 36 36">
    <path fill-rule="evenodd" d="M20 6c4.97 0 9 4.03 9 9v1c0 4.418-3.582 8-8 8h-4c-4.08 0-7.445-3.053-7.938-6.999L7 17c-.552 0-1-.448-1-1s.448-1 1-1h12V7c0-.513.386-.936.883-.993zm1 2.07V15h6c0-3.444-2.488-6.308-5.765-6.891L21 8.07zM13 25c1.656 0 3 1.344 3 3s-1.344 3-3 3-3-1.344-3-3 1.344-3 3-3zm13.917-8c-.476 2.838-2.944 5-5.917 5h-4c-2.89 0-5.303-2.044-5.873-4.765L11.083 17zM13 27c-.552 0-1 .448-1 1s.448 1 1 1 1-.448 1-1-.448-1-1-1zm12-2c1.656 0 3 1.344 3 3s-1.344 3-3 3-3-1.344-3-3 1.344-3 3-3zm0 2c-.552 0-1 .448-1 1s.448 1 1 1 1-.448 1-1-.448-1-1-1z"/>
</svg>
