<svg xmlns="http://www.w3.org/2000/svg" width="36" height="36" viewBox="0 0 36 36">
    <path fill-rule="evenodd" d="M18 0c9.941 0 18 8.059 18 18s-8.059 18-18 18S0 27.941 0 18 8.059 0 18 0zm6 8H12l2.377 5-4.66 4.75C8.617 18.872 8 20.38 8 21.952V23c0 3.314 2.686 6 6 6h8c3.313 0 6-2.686 6-6v-1.048c0-1.572-.616-3.08-1.717-4.202L22.31 13.7l-3.932-.7 3.547-.631L24 8zM10.5 21.5c.161.653.371 1.252.663 1.796.315.53.636 1.047 1.091 1.451.434.413.911.791 1.463 1.058.536.303 1.133.506 1.783.695-.658.488-1.484.589-2.254.441-.771-.156-1.501-.561-2.042-1.145-.545-.575-.944-1.299-1.074-2.071-.14-.764-.053-1.567.37-2.225z"/>
</svg>
