<svg xmlns="http://www.w3.org/2000/svg" width="36" height="36" viewBox="0 0 36 36">
    <path fill-rule="evenodd" d="M30 8c.552 0 1 .448 1 1v18c0 .552-.448 1-1 1H6c-.552 0-1-.448-1-1V9c0-.552.448-1 1-1h24zm-1 2H7v16h22V10zm-12.285 4.3l.085.1 6 8c.331.442.242 1.069-.2 1.4-.408.306-.973.253-1.319-.104L21.2 23.6 16 16.667 10.8 23.6c-.331.442-.958.531-1.4.2-.408-.306-.516-.863-.269-1.295L9.2 22.4l6-8c.373-.498 1.095-.531 1.515-.1zm5.504 2.004l.081.096 4.5 6c.331.442.242 1.069-.2 1.4-.408.306-.973.253-1.319-.104L25.2 23.6l-4.5-6c-.331-.442-.242-1.069.2-1.4.408-.306.973-.253 1.319.104zM26 13c.553 0 1 .448 1 1s-.447 1-1 1c-.553 0-1-.448-1-1s.447-1 1-1z"/>
</svg>
