<svg xmlns="http://www.w3.org/2000/svg" width="36" height="36" viewBox="0 0 36 36">
    <path fill-rule="evenodd" d="M13.434 5.293c.39-.39 1.024-.39 1.414 0 6.87 6.87 6.87 18.545 0 25.414-.39.39-1.023.39-1.414 0-.39-.39-.39-1.024 0-1.414 6.088-6.089 6.088-16.497 0-22.586-.39-.39-.39-1.024 0-1.414zM9.446 9.28c.398-.384 1.03-.373 1.414.024 4.375 4.53 4.375 11.86 0 16.39-.383.397-1.016.408-1.414.024-.397-.383-.408-1.016-.024-1.414 3.626-3.754 3.626-9.856 0-13.61-.384-.398-.373-1.03.024-1.414zm-3.932 4.94c.43-.346 1.06-.278 1.406.152 1.628 2.023 1.628 5.23 0 7.254-.346.43-.975.498-1.406.152-.43-.346-.498-.975-.152-1.406 1.038-1.29 1.038-3.455 0-4.746-.346-.43-.278-1.06.152-1.406zm17.607-.1c.39-.39 1.024-.39 1.414 0l2.293 2.293 2.293-2.293c.36-.36.928-.388 1.32-.083l.094.083c.39.391.39 1.024 0 1.415l-2.293 2.292 2.293 2.293c.36.361.388.928.083 1.32l-.083.095c-.39.39-1.023.39-1.414 0l-2.293-2.293-2.293 2.293c-.36.36-.928.388-1.32.083l-.094-.083c-.39-.39-.39-1.024 0-1.415l2.292-2.293-2.292-2.292c-.36-.36-.388-.928-.083-1.32z"/>
</svg>
