<svg xmlns="http://www.w3.org/2000/svg" width="36" height="36" viewBox="0 0 36 36">
    <path fill-rule="evenodd" d="M20.28 5.544l.224.12 6.995 4.015c1.48.85 2.417 2.388 2.496 4.076l.005.231v8.028c0 1.7-.873 3.276-2.303 4.187l-.198.12-6.996 4.015c-1.471.843-3.267.883-4.769.12l-.223-.12-6.9-3.96c-.037-.015-.074-.034-.11-.055-.883-.506-1.584-1.265-2.017-2.173-.238-.498-.027-1.095.471-1.333.463-.221 1.01-.055 1.277.369l.057.102c.249.522.647.963 1.147 1.266l.076.035 6.995 4.014c.866.496 1.921.53 2.813.1l.188-.1 6.995-4.014c.87-.499 1.425-1.392 1.49-2.375l.007-.198v-8.028c0-.994-.5-1.918-1.327-2.468l-.17-.105L19.51 7.4c-.867-.497-1.923-.53-2.814-.1l-.188.1-6.995 4.013c-.48.275-1.09.11-1.365-.37-.255-.444-.13-1.003.272-1.3l.097-.064 6.996-4.014c1.47-.844 3.266-.884 4.769-.12zM14 18c.552 0 1 .448 1 1 0 .513-.386.936-.883.993L14 20H7c-.552 0-1-.448-1-1 0-.513.386-.936.883-.993L7 18h7zm4-4c.552 0 1 .448 1 1 0 .513-.386.936-.883.993L18 16H7c-.552 0-1-.448-1-1 0-.513.386-.936.883-.993L7 14h11z"/>
</svg>
