<svg xmlns="http://www.w3.org/2000/svg" width="36" height="36" viewBox="0 0 36 36">
    <path fill-rule="evenodd" d="M14 19c3.314 0 6 2.686 6 6 0 1.656-1.344 3-3 3H7c-1.656 0-3-1.344-3-3 0-3.313 2.687-6 6-6h4zm11-2c3.314 0 6 2.686 6 6 0 1.656-1.344 3-3 3h-4c-.552 0-1-.448-1-1s.448-1 1-1h4c.552 0 1-.448 1-1 0-2.21-1.79-4-4-4h-4c-.552 0-1-.448-1-1s.448-1 1-1zm-11 4h-4c-2.209 0-4 1.791-4 4 0 .552.448 1 1 1h10c.552 0 1-.448 1-1 0-2.21-1.79-4-4-4zM12 8.25c2.209 0 4 1.791 4 4V13c0 2.122-1.657 3.871-3.795 3.994L12 17c-2.209 0-4-1.791-4-4v-.75c0-2.209 1.791-4 4-4zm0 2c-1.104 0-2 .896-2 2V13c0 1.104.896 2 1.971 2l.147-.003C13.171 14.936 14 14.06 14 13v-.75c0-1.104-.896-2-2-2zm11-4c2.209 0 4 1.791 4 4V11c0 2.122-1.657 3.871-3.795 3.994L23 15c-2.209 0-4-1.791-4-4v-.75c0-2.209 1.791-4 4-4zm0 2c-1.104 0-2 .896-2 2V11c0 1.104.896 2 1.971 2l.147-.003C24.171 12.936 25 12.06 25 11v-.75c0-1.104-.896-2-2-2z"/>
</svg>
