<svg xmlns="http://www.w3.org/2000/svg" width="36" height="36" viewBox="0 0 36 36">
    <path fill-rule="evenodd" d="M28 9c1.656 0 3 1.344 3 3v13c0 1.656-1.344 3-3 3H8c-1.656 0-3-1.344-3-3V12c0-1.656 1.344-3 3-3h20zm0 2H8c-.552 0-1 .448-1 1v13c0 .552.448 1 1 1h20c.552 0 1-.448 1-1V12c0-.552-.448-1-1-1zm-4 6.5c.552 0 1 .448 1 1V20h1.5c.513 0 .936.386.993.883L27.5 21c0 .552-.448 1-1 1H25v1.5c0 .513-.386.936-.883.993L24 24.5c-.552 0-1-.448-1-1V22h-1.5c-.513 0-.936-.386-.993-.883L20.5 21c0-.552.448-1 1-1H23v-1.5c0-.513.386-.936.883-.993zm3-3.5v2H9v-2h18z"/>
</svg>
