<svg xmlns="http://www.w3.org/2000/svg" width="36" height="36" viewBox="0 0 36 36">
    <path fill-rule="evenodd" d="M22 6c.405 0 .8.081 1.166.235.357.15.681.37.955.644.273.273.49.595.643.954.155.366.236.762.236 1.167v2.75c0 .552-.448 1-1 1s-1-.448-1-1V9c0-.136-.027-.267-.077-.387-.051-.12-.125-.228-.216-.32-.093-.092-.2-.165-.318-.215C22.267 8.027 22.136 8 22 8h-1.443c-.013.817-.68 1.475-1.5 1.475h-4c-.828 0-1.5-.671-1.5-1.5l.001.025H12c-.09 0-.18.012-.265.035l-.125.044c-.117.049-.224.122-.317.214-.091.092-.165.2-.215.318-.051.122-.078.253-.078.389v19c0 .136.027.267.077.387.051.12.125.228.216.32.093.092.2.165.318.215.122.051.253.078.389.078h10c.136 0 .267-.027.39-.079.117-.049.224-.122.317-.214.091-.092.165-.2.215-.318.051-.122.078-.253.078-.389v-2.75c0-.552.448-1 1-1s1 .448 1 1V28c0 .405-.081.8-.237 1.17-.151.356-.37.678-.642.951-.274.274-.598.493-.954.643-.366.155-.762.236-1.167.236H12c-.405 0-.8-.081-1.166-.235-.357-.15-.681-.37-.955-.644-.273-.273-.49-.595-.643-.954C9.08 28.801 9 28.405 9 28V9c0-.405.081-.8.237-1.17.151-.356.37-.678.642-.951.274-.274.598-.493.954-.643C11.199 6.08 11.595 6 12 6zm-3.942 18.975c.552 0 1 .448 1 1s-.448 1-1 1h-1.883c-.552 0-1-.448-1-1s.448-1 1-1zm7.19-11.38c.39-.39 1.024-.39 1.414.001 2.708 2.709 2.708 7.1 0 9.808-.39.39-1.023.39-1.414 0-.39-.39-.39-1.023 0-1.414 1.927-1.927 1.927-5.052 0-6.98-.39-.39-.39-1.024 0-1.414zm-2.906 2.841c.39-.39 1.023-.39 1.414 0 1.171 1.172 1.171 3.071 0 4.243-.39.39-1.024.39-1.414 0-.39-.39-.39-1.024 0-1.415l.083-.094c.305-.392.277-.959-.083-1.32l-.083-.094c-.306-.392-.278-.959.083-1.32z"/>
</svg>
