<svg xmlns="http://www.w3.org/2000/svg" width="36" height="36" viewBox="0 0 36 36">
    <g fill="none" fill-rule="evenodd">
        <path d="M0 0H36V36H0z"/>
        <path fill="#000" d="M18 5c7.18 0 13 5.82 13 13s-5.82 13-13 13S5 25.18 5 18 10.82 5 18 5zm0 2C11.925 7 7 11.925 7 18s4.925 11 11 11 11-4.925 11-11S24.075 7 18 7zm5.46 13.112c.49.255.682.859.428 1.349C22.676 23.794 20.666 25 18 25s-4.676-1.206-5.888-3.54c-.254-.49-.063-1.093.427-1.348.49-.254 1.094-.063 1.349.427C14.753 22.206 16.076 23 18 23s3.247-.794 4.112-2.46c.255-.49.859-.682 1.349-.428zM13.5 14c.828 0 1.5.672 1.5 1.5s-.672 1.5-1.5 1.5-1.5-.672-1.5-1.5.672-1.5 1.5-1.5zm9 0c.828 0 1.5.672 1.5 1.5s-.672 1.5-1.5 1.5-1.5-.672-1.5-1.5.672-1.5 1.5-1.5z"/>
    </g>
</svg>
