<svg xmlns="http://www.w3.org/2000/svg" width="36" height="36" viewBox="0 0 36 36">
    <path fill-rule="evenodd" d="M27.378 6.27c.392-.313.966-.288 1.33.075.39.39.39 1.024 0 1.415l-20 20c-.391.39-1.025.39-1.415 0-.39-.39-.39-1.024 0-1.415l.058-.058c.048-.11.117-.213.207-.303l2.597-2.595c-1.945-1.447-3.653-3.418-5.02-5.783-.18-.31-.18-.692 0-1.002 3.07-5.309 7.751-8.5 12.865-8.5 2.056 0 4.058.516 5.93 1.505l.003.001 3.125-3.126c.09-.09.194-.16.304-.208zm-1.368 5.919c.382-.399 1.015-.412 1.414-.03 1.299 1.247 2.458 2.745 3.442 4.445.18.31.18.692 0 1.002-3.073 5.31-7.752 8.5-12.866 8.5-1.174 0-2.333-.169-3.461-.499-.53-.155-.835-.71-.68-1.24.155-.53.71-.835 1.24-.68.949.277 1.918.418 2.901.418 4.18 0 8.104-2.573 10.835-7l-.278-.438c-.755-1.155-1.6-2.184-2.518-3.064-.399-.383-.412-1.016-.03-1.414zM22 16.105c.552 0 1 .448 1 1 0 2.761-2.239 5-5 5-.552 0-1-.448-1-1s.448-1 1-1c1.657 0 3-1.343 3-3l.007-.116c.057-.498.48-.884.993-.884zm-4-6c-4.18 0-8.105 2.573-10.835 7l.253.4c1.199 1.844 2.627 3.365 4.207 4.48l-.04-.03 2.185-2.183c-.452-.716-.716-1.535-.763-2.392L13 17.106c0-2.762 2.238-5 5-5 .99 0 1.938.287 2.746.82l-.08-.05 1.774-1.774c-1.31-.605-2.675-.94-4.071-.99zm0 4c-1.657 0-3 1.343-3 3 0 .417.084.82.245 1.19l3.946-3.945c-.37-.16-.773-.245-1.191-.245z"/>
</svg>
