<svg xmlns="http://www.w3.org/2000/svg" width="36" height="36" viewBox="0 0 36 36">
    <path fill-rule="evenodd" d="M15.879 4.89c1.171-1.172 3.07-1.172 4.242 0L31.11 15.878c1.173 1.171 1.173 3.07 0 4.242l-10.989 10.99c-1.172 1.17-3.07 1.17-4.242 0L4.889 20.12c-1.172-1.172-1.172-3.07 0-4.242zm2.828 1.413c-.39-.39-1.024-.39-1.414 0l-10.99 10.99c-.39.391-.39 1.023.001 1.414l10.989 10.99c.39.39 1.023.39 1.414 0l10.989-10.99c.391-.391.391-1.023 0-1.414zm-3.993 6.543l3.385 6.329 3.357-6.33h2.108v10.31h-1.74v-6.033c0-.636.041-1.402.098-2.152l-1.062 2.166-2.095 3.95H17.29l-2.08-3.935c-.284-.552-.723-1.431-1.162-2.251.085.763.114 1.543.114 2.194v6.06h-1.728V12.847h2.28z"/>
</svg>
