<svg xmlns="http://www.w3.org/2000/svg" width="36" height="36" viewBox="0 0 36 36">
    <path fill-rule="evenodd" d="M18 0c9.941 0 18 8.059 18 18 0 9.94-8.059 18-18 18S0 27.94 0 18C0 8.059 8.059 0 18 0zm1.594 9.163L18 10.756l-1.594-1.593c-1.236-1.236-3.24-1.236-4.478 0-.966.966-1.178 2.4-.635 3.572H10c-1.104 0-2 .895-2 2v1c0 1.103.896 2 2 2l5.438-.001L10 20v6.563c0 .647.521 1.17 1.164 1.17h13.672c.643 0 1.164-.523 1.164-1.17v-8.829c1.104 0 2-.896 2-2v-1c0-1.104-.896-2-2-2l-1.292.001c.543-1.172.331-2.606-.636-3.572-1.236-1.236-3.24-1.236-4.478 0zm-4.602 1.414l2.159 2.157h-3.304l-.505-.506c-.456-.456-.456-1.195 0-1.65.456-.456 1.195-.456 1.65 0zm7.666 0c.457.456.457 1.195 0 1.651l-.506.506h-3.303l2.158-2.156c.457-.456 1.196-.456 1.651 0z"/>
</svg>
