<svg xmlns="http://www.w3.org/2000/svg" width="36" height="36" viewBox="0 0 36 36">
    <path fill-rule="evenodd" d="M18 36C8.059 36 0 27.941 0 18S8.059 0 18 0s18 8.059 18 18-8.059 18-18 18zm8-27c.552 0 1 .448 1 1v16c0 .552-.448 1-1 1h-1v1c0 .552-.447 1-1 1-.552 0-1-.448-1-1v-1H13v1c0 .552-.448 1-1 1s-1-.448-1-1v-1h-1c-.552 0-1-.448-1-1V10c0-.552.448-1 1-1h16zm-5.714 5.307c.39-.39 1.024-.39 1.414 0 .39.39.39 1.023 0 1.414l-4.264 4.263 3.232.016c.513.002.934.39.99.888l.006.117c-.003.552-.453.998-1.005.995l-5.63-.027c-.549-.003-.993-.447-.995-.995l-.027-5.63c-.003-.552.443-1.002.995-1.005.552-.003 1.002.443 1.005.995l.014 3.233z"/>
</svg>
