<svg xmlns="http://www.w3.org/2000/svg" width="36" height="36" viewBox="0 0 36 36">
    <path fill-rule="evenodd" d="M21 7.996c1.656 0 3 1.343 3 3v14c0 1.656-1.344 3-3 3h-6c-1.656 0-3-1.344-3-3v-14c0-1.657 1.344-3 3-3h6zm0 2h-.997c0 .552-.448 1-1 1H17c-.552 0-1-.448-1-1h-1c-.552 0-1 .448-1 1v14c0 .551.448 1 1 1h6c.552 0 1-.449 1-1v-14c0-.552-.448-1-1-1zM17.5 24.5h1c.552 0 1-.448 1-1s-.448-1-1-1h-1c-.552 0-1 .448-1 1s.448 1 1 1zm13.061-2.443c.585-.589.585-1.536 0-2.122l-1.94-1.939 1.94-1.94c.585-.588.585-1.535 0-2.12l-1.94-1.94.88-.88c.39-.39.39-1.024-.001-1.414-.39-.39-1.024-.39-1.414 0l-1.232 1.234c-.587.583-.587 1.534 0 2.12l1.94 1.94-1.94 1.94c-.587.583-.587 1.534 0 2.12l1.94 1.94-1.94 1.94c-.587.583-.587 1.534 0 2.12l1.232 1.233c.39.39 1.024.39 1.414 0 .39-.39.39-1.024 0-1.415l-.878-.878 1.94-1.94zM5.44 13.935c-.585.588-.585 1.536 0 2.12l1.94 1.94-1.94 1.94c-.585.588-.585 1.536 0 2.12l1.94 1.94-.88.88c-.39.39-.39 1.024.001 1.414.39.39 1.024.39 1.414 0l1.232-1.233c.587-.584.587-1.535 0-2.121l-1.94-1.94 1.94-1.94c.587-.583.587-1.534 0-2.12l-1.94-1.94 1.94-1.94c.587-.583.587-1.534 0-2.12L7.914 9.703c-.39-.39-1.024-.39-1.414 0-.39.39-.39 1.023 0 1.414l.878.878-1.94 1.94z"/>
</svg>
