<svg xmlns="http://www.w3.org/2000/svg" width="36" height="36" viewBox="0 0 36 36">
    <path fill-rule="evenodd" d="M25.996 5c1.597 0 2.904 1.249 2.995 2.824l.005.176v20c0 1.597-1.25 2.904-2.824 2.995l-.176.005h-7.3v-2h7.3c.512 0 .936-.387.993-.883l.007-.117V8c0-.513-.386-.936-.883-.993L25.996 7h-16c-.513 0-.935.386-.993.883L8.996 8v10.467h-2V8c0-1.598 1.25-2.904 2.824-2.995L9.996 5h16zM8.29 22.319c1.757-1.758 4.606-1.758 6.364 0 1.757 1.758 1.757 4.607 0 6.364-1.506 1.505-3.814 1.72-5.55.646l-1.377 1.377c-.39.39-1.024.39-1.414 0-.36-.36-.388-.928-.083-1.32l.083-.094 1.366-1.367c-1.114-1.742-.91-4.083.61-5.606zm4.95 1.414c-.977-.976-2.56-.976-3.536 0s-.976 2.56 0 3.536 2.56.976 3.536 0 .976-2.56 0-3.536zm10.784-2.706v2h-5v-2h5zM23.996 16v2h-12v-2h12zm0-5v2h-12v-2h12z"/>
</svg>
