<svg xmlns="http://www.w3.org/2000/svg" width="36" height="36" viewBox="0 0 36 36">
    <path fill-rule="evenodd" d="M18 6c2.21 0 4 1.79 4 4 0 .617-.141 1.213-.401 1.748C24.826 13.153 27 16.364 27 20c0 .042-.002.084-.008.125C28.722 20.565 30 22.133 30 24v2c0 2.21-1.79 4-4 4H10c-2.21 0-4-1.79-4-4v-2c0-1.867 1.278-3.434 3.007-3.876C9.003 20.084 9 20.042 9 20c0-3.638 2.177-6.847 5.402-8.252C14.144 11.22 14 10.628 14 10c0-2.21 1.79-4 4-4zm8 16H10c-1.105 0-2 .895-2 2v2c0 1.105.895 2 2 2h16c1.105 0 2-.895 2-2v-2c0-1.105-.895-2-2-2zm-5.814-8.652l-.122.08C19.45 13.797 18.74 14 18 14c-.807 0-1.559-.24-2.187-.65C12.973 14.28 11 16.946 11 20h14c0-3.053-1.97-5.72-4.814-6.652zM18 8c-1.105 0-2 .895-2 2s.895 2 2 2c.495 0 .959-.178 1.32-.498.43-.379.68-.92.68-1.502 0-1.105-.895-2-2-2z"/>
</svg>
