<svg xmlns="http://www.w3.org/2000/svg" width="36" height="36" viewBox="0 0 36 36">
    <path fill-rule="evenodd" d="M19.83 8.388c2.35.18 4.5.7 6.456 1.603 1.205.554 2.104 1.153 2.842 1.985.597.68.891 1.49.87 2.403l-.004.313-.004 1.358-.011.604c-.079 1.38-1.095 2.34-2.509 2.34l-.008-.001.221.299.056.084C28.546 20.734 29 22.512 29 24.173V27c0 1.657-1.344 3-3 3H10c-1.656 0-3-1.343-3-3v-2.827c0-1.708.486-3.38 1.401-4.822l.227-.357h-.066c-1.442 0-2.46-.96-2.539-2.367l-.005-.178.01-1.28c-.002-.093-.003-.178-.006-.26l-.018-.357c-.056-1.2.414-2.202 1.337-3.044.907-.821 1.985-1.42 3.329-1.913l.373-.132.503-.166c2.69-.853 5.464-1.157 8.284-.909zM14.5 14.63c-.064.016-.13.035-.203.057l-.323.107.007 1.686c0 1.414-.96 2.43-2.34 2.51l-.174.004-.512.002c-.026.082-.062.162-.11.238l-.755 1.19C9.378 21.542 9 22.844 9 24.172V27c0 .552.448 1 1 1h16c.552 0 1-.448 1-1v-2.827c0-1.295-.355-2.7-.956-3.735l-.848-1.146c-.068-.092-.118-.192-.15-.295l-.277.001-.391-.01c-1.372-.074-2.298-1-2.373-2.352l-.01-.55v-.576l.01-.72c-.43-.12-.992-.22-1.665-.305l-.603-.068c-1.717-.18-3.795-.106-5.237.212zm-2.807-3.274l-.345.122c-1.114.41-1.973.887-2.661 1.511-.504.46-.712.902-.686 1.447l.017.315c.009.209.011.427.01.724l-.005.43-.001.648c.025.32.18.441.553.441l.718.006 2.174-.006c.368 0 .514-.145.514-.514l-.002-1.067-.013-1.055c0-.577.274-1.032.788-1.254l.133-.05.739-.252c.14-.045.27-.082.415-.118 1.694-.375 3.986-.457 5.904-.255 1.391.143 2.44.327 3.258.662.52.235.812.679.812 1.274l-.021 1.357v.29l.009.525c.02.315.14.435.476.455l.4.008 2.591-.006c.368 0 .514-.146.514-.535l.005-.312.004-1.36.006-.451c.01-.414-.107-.736-.371-1.036-.523-.59-1.203-1.043-2.18-1.492-1.73-.798-3.647-1.261-5.783-1.426-2.728-.24-5.392.085-7.972.974zM18 18c2.21 0 4 1.79 4 4s-1.79 4-4 4-4-1.79-4-4 1.79-4 4-4zm0 2c-1.105 0-2 .895-2 2s.895 2 2 2 2-.895 2-2-.895-2-2-2z"/>
</svg>
