<svg xmlns="http://www.w3.org/2000/svg" width="36" height="36" viewBox="0 0 36 36">
    <path fill-rule="evenodd" d="M30 23c.513 0 .936.386.993.883L31 24v5c0 1.054-.816 1.918-1.85 1.995L29 31H7c-1.054 0-1.918-.816-1.995-1.85L5 29v-5c0-.552.448-1 1-1 .513 0 .936.386.993.883L7 24v5h22v-5c0-.552.448-1 1-1zM18.036 4.857c.513 0 .936.386.993.883l.007.117v14.975l3.95-3.949c.363-.362.934-.388 1.327-.077l.087.077c.363.363.389.935.078 1.327l-.078.088-5.657 5.656c-.362.363-.934.389-1.327.078l-.087-.078-5.657-5.656c-.39-.39-.39-1.024 0-1.415.363-.362.935-.388 1.327-.077l.087.077 3.95 3.949V5.857c0-.552.448-1 1-1z"/>
</svg>
