<svg xmlns="http://www.w3.org/2000/svg" width="36" height="36" viewBox="0 0 36 36">
    <path fill-rule="evenodd" d="M27 24c.552 0 1 .448 1 1 0 .513-.386.936-.883.993L27 26H14c-.552 0-1-.448-1-1 0-.513.386-.936.883-.993L14 24h13zm-16 0v2H9v-2h2zm16-6c.552 0 1 .448 1 1 0 .513-.386.936-.883.993L27 20H14c-.552 0-1-.448-1-1 0-.513.386-.936.883-.993L14 18h13zm-16 0v2H9v-2h2zm16-5.943c.552 0 1 .448 1 1 0 .513-.386.936-.883.993l-.117.007H17c-.552 0-1-.448-1-1 0-.513.386-.935.883-.993l.117-.007h10zM13.64 9.232c.392.326.47.889.203 1.307l-.075.101-2.5 3c-.35.42-.963.476-1.382.15l-.093-.083-1.5-1.5c-.39-.39-.39-1.024 0-1.414.36-.36.928-.388 1.32-.083l.094.083.725.724 1.8-2.157c.353-.424.984-.482 1.408-.128z"/>
</svg>
