<svg xmlns="http://www.w3.org/2000/svg" width="36" height="36" viewBox="0 0 36 36">
    <path fill-rule="evenodd" d="M10.923 7C13.113 7 15 8.823 15 11c0 2.183-1.817 4-4 4H8.99l.002 1.149L11 16.15c.433 0 .79.324.843.743l.007.107c0 .47-.38.85-.85.85H8.997L9 18.997c.001.513-.383.937-.88.996L8.002 20c-.553.002-1.001-.445-1.003-.997l-.003-1.153H6c-.433 0-.79-.324-.843-.743L5.15 17c0-.47.38-.85.85-.85l.992-.001L6.989 15H6c-.552 0-1-.448-1-1s.448-1 1-1h.984L6.97 8.003C6.968 7.449 7.417 7 7.97 7zM26 16.5c.552 0 1 .448 1 1v.5h1c.513 0 .936.386.993.883L29 19c0 .552-.448 1-1 1h-2.958c-.543 0-1.042.485-1.042 1 0 .544.443 1 .957 1h2.086C28.675 22 30 23.365 30 25s-1.325 3-2.957 3H27v.5c0 .513-.386.936-.883.993L26 29.5c-.552 0-1-.448-1-1V28h-.957c-.513 0-.936-.386-.993-.883L23.043 27c0-.552.448-1 1-1h3c.514 0 .957-.456.957-1s-.443-1-.957-1h-2.086C23.325 24 22 22.635 22 21c0-1.632 1.407-3 3.042-3l-.042.001V17.5c0-.513.386-.936.883-.993zm-3.817-7.077c.319-.45.942-.558 1.394-.24.45.319.558.942.24 1.394l-12 17c-.319.45-.942.558-1.394.24-.45-.319-.558-.942-.24-1.394zM10.923 9c1.1 0 2.077.943 2.077 2 0 1.079-.921 2-2 2H8.984l-.011-4h1.95z"/>
</svg>
