<svg xmlns="http://www.w3.org/2000/svg" width="36" height="36" viewBox="0 0 36 36">
    <path fill-rule="evenodd" d="M30 27c.552 0 1 .448 1 1s-.448 1-1 1H6c-.552 0-1-.448-1-1s.448-1 1-1zm-4.028-12c.74 0 1.386.402 1.732 1h2.268c.552 0 1 .448 1 1v7c0 .552-.448 1-1 1h-24c-.553 0-1-.448-1-1v-3c0-.552.447-1 1-1 .552 0 1 .448 1 1v2h22v-5l-1.269.001c-.346.597-.992.999-1.731.999-1.104 0-2-.896-2-2s.896-2 2-2zm-8-2c2.209 0 4 1.79 4 4s-1.791 4-4 4c-2.21 0-4-1.79-4-4s1.79-4 4-4zm12-4c.552 0 1 .448 1 1v3c0 .552-.448 1-1 1-.553 0-1-.448-1-1v-2h-22v5H8.24c.346-.598.992-1 1.732-1 1.104 0 2 .896 2 2s-.896 2-2 2c-.74 0-1.386-.402-1.732-.999L5.972 18c-.553 0-1-.448-1-1v-7c0-.552.447-1 1-1zm-12 6c-1.105 0-2 .895-2 2s.895 2 2 2c1.104 0 2-.895 2-2s-.896-2-2-2z"/>
</svg>
