<svg xmlns="http://www.w3.org/2000/svg" width="36" height="36" viewBox="0 0 36 36">
    <path fill-rule="evenodd" d="M18 36C8.059 36 0 27.941 0 18S8.059 0 18 0s18 8.059 18 18-8.059 18-18 18zm6-28c1.656 0 3 1.344 3 3v14c0 .552-.448 1-1 1h-1v1.5c0 .552-.448 1-1 1s-1-.448-1-1V26H13v1.5c0 .552-.448 1-1 1s-1-.448-1-1V26h-1c-.552 0-1-.448-1-1V11c0-1.656 1.344-3 3-3h12zm1 8v-5.571c0-.237-.448-.429-1-.429H12c-.552 0-1 .192-1 .429V16h14zm3.5-1v2c0 .552.448 1 1 1s1-.448 1-1v-2c0-.552-.448-1-1-1s-1 .448-1 1zm-23 0v2c0 .552.448 1 1 1s1-.448 1-1v-2c0-.552-.448-1-1-1s-1 .448-1 1zm8.5 6c0 .552-.448 1-1 1s-1-.448-1-1 .448-1 1-1 1 .448 1 1m10 0c0 .552-.448 1-1 1s-1-.448-1-1 .448-1 1-1 1 .448 1 1m-12-6.5V11h4l-2.586 1.414L12 14.5z"/>
</svg>
