<svg xmlns="http://www.w3.org/2000/svg" width="36" height="36" viewBox="0 0 36 36">
    <path fill-rule="evenodd" d="M25 27v2h-2v-2h2zm6 0v2h-2v-2h2zM28 8c1.597 0 2.904 1.25 2.995 2.824L31 11v8h-2v-8c0-.512-.387-.935-.883-.993L28 10H8c-.512 0-.935.387-.993.883L7 11v13c0 .512.387.935.883.993L8 25h3v-2h2v2h2v2H8c-1.597 0-2.904-1.25-2.995-2.824L5 24V11c0-1.597 1.25-2.904 2.824-2.995L8 8h20zM17 21v2h2v2h2v2h-4v-2h-2v-4h2zm6 2v2h-2v-2h2zm4 0v2h-2v-2h2zm6-2v2h-2v-2h2zm-12 0v2h-2v-2h2zm4-2v2h-2v-2h2zm2-6v2H9v-2h18z"/>
</svg>
