<svg xmlns="http://www.w3.org/2000/svg" width="36" height="36" viewBox="0 0 36 36">
    <path fill-rule="evenodd" d="M24 7c.513 0 .936.386.993.883L25 8v1h3c1.054 0 1.918.816 1.995 1.85L30 11v16c0 1.104-.896 2-2 2H8c-1.104 0-2-.896-2-2V11c0-1.104.896-2 2-2h3V8c0-.552.448-1 1-1 .513 0 .936.386.993.883L13 8v1h10V8c0-.552.448-1 1-1zm4 10.144H8V27h20v-9.856zm-4.344 1.853c.352.369.366.936.052 1.321l-.085.092-4.46 4.25c-.345.33-.868.365-1.253.103l-.1-.08-2.107-1.871-2.106 1.872c-.381.339-.95.333-1.323.005l-.089-.088c-.339-.381-.333-.95-.005-1.323l.088-.09 2.771-2.461c.348-.309.856-.334 1.23-.077l.099.077 2.081 1.85 3.794-3.614c.4-.381 1.032-.366 1.413.034zM11 11H8v4.144h20V11h-3v1c0 .552-.448 1-1 1-.513 0-.936-.386-.993-.883L23 12v-1H13v1c0 .552-.448 1-1 1-.513 0-.936-.386-.993-.883L11 12v-1z"/>
</svg>
