<svg xmlns="http://www.w3.org/2000/svg" width="36" height="36" viewBox="0 0 36 36">
    <path fill-rule="evenodd" d="M18 0c9.941 0 18 8.059 18 18s-8.059 18-18 18S0 27.941 0 18 8.059 0 18 0zm8 10H10c-1.104 0-2 .896-2 2v12c0 1.104.896 2 2 2h16c1.104 0 2-.896 2-2V12c0-1.104-.896-2-2-2zm-2.13 12.549l-2.16-3.74c-.372-.644-1.303-.644-1.675 0l-.927 1.606-2.27-3.931c-.372-.645-1.303-.645-1.675 0l-3.502 6.065c-.372.646.093 1.45.838 1.45h10.532c.745 0 1.21-.804.838-1.45M24.5 15c0 .828-.671 1.5-1.5 1.5s-1.5-.672-1.5-1.5.671-1.5 1.5-1.5 1.5.672 1.5 1.5"/>
</svg>
