<svg xmlns="http://www.w3.org/2000/svg" width="36" height="36" viewBox="0 0 36 36">
    <path fill-rule="evenodd" d="M18 0c9.941 0 18 8.059 18 18s-8.059 18-18 18S0 27.941 0 18 8.059 0 18 0zm7 7H11c-1.104 0-2 .896-2 2v18c0 1.104.896 2 2 2h14c1.104 0 2-.896 2-2V9c0-1.104-.896-2-2-2zm-7 14c.552 0 1 .448 1 1 0 .513-.386.936-.883.993L18 23h-5c-.552 0-1-.448-1-1 0-.513.386-.936.883-.993L13 21h5zm5-5c.552 0 1 .448 1 1 0 .513-.386.936-.883.993L23 18H13c-.552 0-1-.448-1-1 0-.513.386-.936.883-.993L13 16h10zm0-5c.552 0 1 .448 1 1 0 .513-.386.936-.883.993L23 13H13c-.552 0-1-.448-1-1 0-.513.386-.936.883-.993L13 11h10z"/>
</svg>
