<svg xmlns="http://www.w3.org/2000/svg" width="36" height="36" viewBox="0 0 36 36">
    <path fill-rule="evenodd" d="M18 0c9.941 0 18 8.059 18 18s-8.059 18-18 18S0 27.941 0 18 8.059 0 18 0zm0 19.588c-2.67 0-8 1.242-8 3.706v1.853l.007.152C10.09 26.251 10.95 27 12 27h12l.164-.006c1.028-.077 1.836-.875 1.836-1.847v-1.853l-.008-.166c-.233-2.354-5.383-3.54-7.992-3.54zM18 9c-2.062 0-3.733 1.686-3.733 3.765v.94c0 2.08 1.671 3.766 3.733 3.766l.198-.006c1.97-.104 3.535-1.747 3.535-3.76v-.94C21.733 10.685 20.062 9 18 9z"/>
</svg>
