<svg xmlns="http://www.w3.org/2000/svg" width="36" height="36" viewBox="0 0 36 36">
    <path fill-rule="evenodd" d="M30.501 12.635c.478.276.641.888.364 1.366-.739 1.277-1.578 2.442-2.503 3.473-.221.246-.447.485-.677.715l1.409 1.407c.39.391.39 1.024 0 1.415-.36.36-.928.388-1.32.083l-.095-.083-1.49-1.49c-.282.222-.57.433-.862.633-.48.327-.973.622-1.475.883l.891 1.895c.235.5.021 1.095-.479 1.33-.464.219-1.01.05-1.275-.376l-.055-.103-.921-1.955-.176.059c-.926.302-1.874.494-2.836.572L19 24.5c0 .552-.448 1-1 1-.513 0-.936-.386-.993-.883L17 24.5v-2.04c-.962-.08-1.91-.271-2.837-.573l-.221-.077-.929 1.973c-.235.5-.83.715-1.33.48-.464-.219-.682-.748-.523-1.223l.044-.108.903-1.916c-.488-.256-.967-.544-1.434-.863-.302-.206-.6-.424-.891-.655l-1.515 1.513c-.39.39-1.024.39-1.414 0-.36-.361-.388-.928-.083-1.32l.083-.095 1.436-1.433c-.222-.222-.439-.452-.651-.69-.925-1.03-1.764-2.195-2.503-3.472-.277-.478-.114-1.09.364-1.366.478-.277 1.09-.114 1.366.364.672 1.16 1.43 2.213 2.262 3.14.828.923 1.725 1.716 2.672 2.362.954.65 1.954 1.148 2.984 1.484 1.047.341 2.123.515 3.217.515 1.094 0 2.17-.174 3.216-.515 1.03-.336 2.03-.834 2.985-1.484.945-.645 1.842-1.437 2.673-2.363.83-.926 1.59-1.98 2.26-3.139.277-.478.889-.641 1.367-.364z"/>
</svg>
