<svg xmlns="http://www.w3.org/2000/svg" width="36" height="36" viewBox="0 0 36 36">
    <path fill-rule="evenodd" d="M24.639 6.406l5.657 5.658c.525.526.314 1.421-.391 1.656l-3.323 1.107c.526 1.713.11 3.652-1.244 5.007l-5.657 5.657c-1.355 1.354-3.294 1.77-5.006 1.244l-1.108 3.323c-.235.705-1.13.916-1.656.39l-5.657-5.656c-.526-.526-.314-1.421.391-1.656l3.312-1.105c-.534-1.717-.121-3.666 1.238-5.027l5.658-5.656c1.36-1.36 3.309-1.772 5.027-1.237l1.103-3.314c.235-.705 1.13-.916 1.656-.39zm-2.13 6.357l-.143-.135c-1.18-1.035-2.974-.99-4.1.135l-5.657 5.655c-1.17 1.173-1.17 3.072 0 4.244l1.416 1.415c1.17 1.17 3.07 1.17 4.242 0l5.657-5.658c1.171-1.171 1.171-3.07 0-4.242l-1.414-1.414zM8.814 24.522l3.368 3.368.707-2.121-1.954-1.954-2.121.707zm14.849-13.436l1.954 1.955 2.121-.707-3.368-3.37-.707 2.122zm-7.955 10.121l5-5c.39-.39.39-1.024 0-1.414-.39-.39-1.024-.39-1.414 0l-5 5c-.39.39-.39 1.024 0 1.414.39.39 1.024.39 1.414 0z"/>
</svg>
