<svg xmlns="http://www.w3.org/2000/svg" width="36" height="36" viewBox="0 0 36 36">
    <path fill-rule="evenodd" d="M24 9c1.656 0 3 1.344 3 3v9c0 1.656-1.344 3-3 3H10c-1.656 0-3-1.344-3-3v-9c0-1.656 1.344-3 3-3h14zm0 2H10c-.552 0-1 .448-1 1v9c0 .552.448 1 1 1h14c.552 0 1-.448 1-1v-9c0-.552-.448-1-1-1zm5 5v1c0 .552.448 1 1 1s1-.448 1-1v-1c0-.552-.448-1-1-1s-1 .448-1 1zm0 4.59v1.797c0 .552.448 1 1 1s1-.448 1-1V20.59c0-.552-.448-1-1-1s-1 .448-1 1zm-.119 4.883c-.13.243-.356.421-.62.492l-.115.024c-.546.08-.925.587-.845 1.134.08.546.587.925 1.133.845.943-.137 1.76-.715 2.207-1.545.263-.486.081-1.092-.405-1.355-.451-.243-1.006-.104-1.293.306l-.062.1zM24.696 26H22.9c-.552 0-1 .448-1 1s.448 1 1 1h1.796c.553 0 1-.448 1-1s-.447-1-1-1zm-5.387 0h-1.796c-.552 0-1 .448-1 1s.448 1 1 1h1.796c.553 0 1-.448 1-1s-.447-1-1-1zM14 26h-1c-.552 0-1 .448-1 1s.448 1 1 1h1c.552 0 1-.448 1-1s-.448-1-1-1z"/>
</svg>
