<svg xmlns="http://www.w3.org/2000/svg" width="36" height="36" viewBox="0 0 36 36">
    <path fill-rule="evenodd" d="M19 20c3.313 0 6 2.687 6 6v1c0 1.656-1.344 3-3 3H8c-1.656 0-3-1.344-3-3v-1c0-3.313 2.687-6 6-6zm0 2h-8c-2.209 0-4 1.791-4 4v1c0 .552.448 1 1 1h14c.552 0 1-.448 1-1v-1c0-2.209-1.791-4-4-4zM15 7c2.761 0 5 2.239 5 5v1c0 2.668-2.096 4.863-4.776 4.995L15 18c-2.761 0-5-2.239-5-5v-1c0-2.761 2.239-5 5-5zm0 2c-1.657 0-3 1.343-3 3v1c0 1.657 1.343 3 2.975 3l.176-.004C16.742 15.918 18 14.601 18 13v-1c0-1.657-1.343-3-3-3zm12-1c.513 0 .936.386.993.883L28 9v2h2c.552 0 1 .448 1 1 0 .513-.386.936-.883.993L30 13h-2v2c0 .552-.448 1-1 1-.513 0-.936-.386-.993-.883L26 15v-2h-2c-.552 0-1-.448-1-1 0-.513.386-.936.883-.993L24 11h2V9c0-.552.448-1 1-1z"/>
</svg>
