<svg xmlns="http://www.w3.org/2000/svg" width="36" height="36" viewBox="0 0 36 36">
    <path fill-rule="evenodd" d="M21.031 15.052c.392.389.394 1.022.005 1.414-.39.392-1.023.394-1.414.004-1.522-1.511-3.96-1.561-5.542-.15l-.16.15-4.743 4.711c-1.57 1.56-1.57 4.087 0 5.647 1.522 1.511 3.96 1.561 5.542.15l.16-.15 1.42-1.41c.391-.39 1.024-.388 1.414.004.36.362.385.93.079 1.32l-.084.094-1.419 1.41c-2.354 2.339-6.167 2.339-8.522 0-2.296-2.282-2.354-5.947-.176-8.3l.177-.183 4.742-4.711c2.354-2.339 6.167-2.339 8.521 0zm7.202-7.298c2.296 2.282 2.354 5.947.176 8.3l-.177.183-4.742 4.711c-2.354 2.339-6.167 2.339-8.521 0-.392-.389-.394-1.022-.005-1.414.39-.392 1.023-.394 1.414-.004 1.522 1.511 3.96 1.561 5.542.15l.16-.15 4.743-4.711c1.57-1.56 1.57-4.087 0-5.647-1.522-1.511-3.96-1.561-5.542-.15l-.16.15-1.42 1.41c-.391.39-1.024.388-1.414-.004-.36-.362-.385-.93-.079-1.32l.084-.094 1.419-1.41c2.354-2.339 6.167-2.339 8.522 0z"/>
</svg>
