<svg xmlns="http://www.w3.org/2000/svg" width="36" height="36" viewBox="0 0 36 36">
    <path fill-rule="evenodd" d="M27 7c.552 0 1 .448 1 1v18c0 .552-.448 1-1 1h-1.003v1.003c0 .552-.447.998-.998.998-.551 0-.998-.446-.998-.998V27H12.002v1.001c0 .553-.447 1-1 1-.556 0-1.003-.447-1.003-1V27H9c-.552 0-1-.448-1-1V8c0-.552.448-1 1-1h18zm-1 2H10v16h16V9zm-7.707 10.707c.39.39 1.021.39 1.412.002l4-3.975c.392-.389.394-1.022.004-1.414-.389-.392-1.022-.394-1.414-.004l-3.293 3.272-2.295-2.295c-.39-.39-1.024-.39-1.414 0l-3 3c-.39.39-.39 1.024 0 1.414.39.39 1.024.39 1.414 0L16 17.414l2.293 2.293z"/>
</svg>
