<svg xmlns="http://www.w3.org/2000/svg" width="36" height="36" viewBox="0 0 36 36">
    <path fill-rule="evenodd" d="M22 9c1.657 0 3 1.343 3 3v12c0 1.657-1.343 3-3 3H8c-1.657 0-3-1.343-3-3V12c0-1.657 1.343-3 3-3h14zm10.942 2.668c.038.108.058.222.058.336v12c0 .552-.448 1-1 1-.114 0-.228-.02-.336-.058l-4-1.426c-.398-.142-.664-.52-.664-.942V13.43c0-.423.266-.8.664-.942l4-1.426c.52-.185 1.092.086 1.278.606zM22 11H8c-.513 0-.936.386-.993.883L7 12v12c0 .513.386.936.883.993L8 25h14c.513 0 .936-.386.993-.883L23 24V12c0-.552-.448-1-1-1zm9 2.526l-2 .723v7.51l2 .736v-8.969zM14 14v2H9v-2h5z"/>
</svg>
