<svg xmlns="http://www.w3.org/2000/svg" width="36" height="36" viewBox="0 0 36 36">
    <path fill-rule="evenodd" d="M36 18c0 9.941-8.059 18-18 18S0 27.941 0 18 8.059 0 18 0s18 8.059 18 18M19 8.91c4.655.462 8.37 4.115 8.927 8.74H26c-.552 0-1 .449-1 1 0 .553.448 1 1 1l1.969.001c-.197 2.486-1.314 4.706-2.997 6.349-1.842-1.455-4.284-2.349-6.972-2.349-2.688 0-5.13.894-6.972 2.349-1.684-1.643-2.8-3.863-2.997-6.349H10c.552 0 1-.448 1-1s-.448-1-1-1l-1.928-.001c.558-4.626 4.274-8.279 8.929-8.74L17 10.65c0 .553.448 1 1 1s1-.447 1-1zm-1 5.24s-1.753 4.785-1.753 5.75c0 .967.785 1.75 1.753 1.75.968 0 1.753-.783 1.753-1.75 0-.965-1.753-5.75-1.753-5.75z"/>
</svg>
