<svg xmlns="http://www.w3.org/2000/svg" width="36" height="36" viewBox="0 0 36 36">
    <path fill-rule="evenodd" d="M23 6c.405 0 .8.081 1.166.235.357.15.681.37.955.644.273.273.49.595.643.954.155.366.236.762.236 1.167v3h-2V9c0-.136-.027-.267-.077-.387-.051-.12-.125-.228-.216-.32-.093-.092-.2-.165-.318-.215C23.267 8.027 23.136 8 23 8h-1.443c-.013.817-.68 1.475-1.5 1.475h-4c-.828 0-1.5-.671-1.5-1.5l.001.025H13c-.09 0-.18.012-.265.035l-.125.044c-.117.049-.224.122-.317.214-.091.092-.165.2-.215.318-.051.122-.078.253-.078.389v19c0 .136.027.267.077.387.051.12.125.228.216.32.093.092.2.165.318.215.122.051.253.078.389.078h10c.136 0 .267-.027.39-.079.117-.049.224-.122.317-.214.091-.092.165-.2.215-.318.051-.122.078-.253.078-.389v-4h2v4c0 .405-.081.8-.237 1.17-.151.356-.37.678-.642.951-.274.274-.598.493-.954.643-.366.155-.762.236-1.167.236H13c-.405 0-.8-.081-1.166-.235-.357-.15-.681-.37-.955-.644-.273-.273-.49-.595-.643-.954C10.08 28.801 10 28.405 10 28V9c0-.405.081-.8.237-1.17.151-.356.37-.678.642-.951.274-.274.598-.493.954-.643C12.199 6.08 12.595 6 13 6zm-3.942 18.975c.552 0 1 .448 1 1s-.448 1-1 1h-1.883c-.552 0-1-.448-1-1s.448-1 1-1zM26 14v3.024h3v2h-3V22h-2v-2.976h-3v-2h3V14h2z"/>
</svg>
