<svg xmlns="http://www.w3.org/2000/svg" width="36" height="36" viewBox="0 0 36 36">
    <path fill-rule="evenodd" d="M17.997 30c.553 0 1 .448 1 1v.67c0 .551-.447 1-1 1-.552 0-1-.449-1-1V31c0-.552.448-1 1-1zm1.969-22.677l2.096 5.139c.018.043.059.073.107.076l5.532.406c1.901.138 2.673 2.513 1.218 3.744l-4.239 3.58c-.036.031-.052.08-.041.127l1.325 5.388c.455 1.85-1.565 3.319-3.185 2.314l-4.717-2.926c-.04-.024-.09-.024-.13.001l-4.716 2.925c-1.618 1.005-3.64-.464-3.185-2.314l1.325-5.388c.011-.046-.005-.096-.041-.127l-4.24-3.58c-1.454-1.231-.682-3.606 1.218-3.744l5.534-.406c.047-.003.088-.033.106-.077l2.096-5.138c.72-1.764 3.217-1.764 3.937 0zm-2.085.755l-2.096 5.137c-.304.749-1.007 1.26-1.813 1.318l-5.534.406c-.112.008-.158.149-.072.222l4.239 3.58c.617.52.886 1.347.693 2.131l-1.325 5.388c-.027.11.093.197.189.138l4.714-2.925c.688-.427 1.557-.427 2.242 0l4.715 2.925c.096.06.216-.028.189-.138l-1.325-5.388c-.193-.784.076-1.61.693-2.131l4.238-3.58c.087-.073.041-.214-.072-.222l-5.532-.406c-.807-.059-1.51-.57-1.814-1.317l-2.096-5.138-.03-.043c-.059-.058-.168-.044-.203.043zm11.195 14c.215-.51.801-.749 1.31-.534l.617.26c.509.214.748.8.533 1.31-.214.509-.8.747-1.31.533l-.617-.26c-.509-.215-.747-.801-.533-1.31zM5.61 21.543c.509-.215 1.095.024 1.31.533.214.509-.024 1.095-.533 1.31l-.617.26c-.51.214-1.096-.024-1.31-.533-.215-.51.024-1.096.533-1.31zm20.84-14.445c.357-.422.987-.476 1.41-.12.422.357.475.987.119 1.41l-.432.512c-.356.422-.987.475-1.41.119-.421-.356-.475-.987-.119-1.41zm-18.313-.12c.422-.356 1.053-.302 1.41.12l.432.512c.356.422.302 1.053-.12 1.409-.422.356-1.053.303-1.409-.12l-.432-.511c-.356-.423-.303-1.053.12-1.41z"/>
</svg>
