<svg xmlns="http://www.w3.org/2000/svg" width="36" height="36" viewBox="0 0 36 36">
    <path fill-rule="evenodd" d="M18 0c9.941 0 18 8.059 18 18s-8.059 18-18 18S0 27.941 0 18 8.059 0 18 0zm8 9H12l-.176.005C10.249 9.096 9 10.402 9 12v12c0 1.105.895 2 2 2h15c1.105 0 2-.895 2-2v-9c0-1.105-.895-2-2-2H11v-1l.007-.117c.057-.497.48-.883.993-.883h14l.117-.007c.497-.057.883-.48.883-.993 0-.552-.448-1-1-1zm-4.707 7.293c.39-.39 1.024-.39 1.414 0 .39.39.39 1.024 0 1.414l-4 4c-.39.39-1.024.39-1.414 0l-2-2c-.39-.39-.39-1.024 0-1.414.39-.39 1.024-.39 1.414 0L18 19.586z"/>
</svg>
