<svg xmlns="http://www.w3.org/2000/svg" width="36" height="36" viewBox="0 0 36 36">
    <path fill-rule="evenodd" d="M20.398 23c.121 0 .238.044.33.124.207.182.228.498.046.705l-2.398 2.74c-.014.018-.03.034-.047.048-.207.182-.523.16-.705-.047l-2.399-2.741c-.08-.091-.124-.208-.124-.33 0-.275.224-.5.5-.5zm-7.407-8c.557 0 1.009.443 1.009 1.01v1.98c0 .558-.443 1.01-1.009 1.01h-1.982C10.452 19 10 18.556 10 17.99v-1.98c0-.558.443-1.01 1.009-1.01h1.982zm6 0c.557 0 1.009.443 1.009 1.01v1.98c0 .558-.443 1.01-1.009 1.01h-1.982C16.452 19 16 18.556 16 17.99v-1.98c0-.558.443-1.01 1.009-1.01h1.982zm6 0c.557 0 1.009.443 1.009 1.01v1.98c0 .558-.443 1.01-1.009 1.01h-1.982C22.452 19 22 18.556 22 17.99v-1.98c0-.558.443-1.01 1.009-1.01h1.982zm-12-6C13.548 9 14 9.443 14 10.01v1.98c0 .558-.443 1.01-1.009 1.01h-1.982C10.452 13 10 12.556 10 11.99v-1.98c0-.558.443-1.01 1.009-1.01h1.982zm6 0C19.548 9 20 9.443 20 10.01v1.98c0 .558-.443 1.01-1.009 1.01h-1.982C16.452 13 16 12.556 16 11.99v-1.98c0-.558.443-1.01 1.009-1.01h1.982zm6 0C25.548 9 26 9.443 26 10.01v1.98c0 .558-.443 1.01-1.009 1.01h-1.982C22.452 13 22 12.556 22 11.99v-1.98c0-.558.443-1.01 1.009-1.01h1.982z"/>
</svg>
