<svg xmlns="http://www.w3.org/2000/svg" width="36" height="36" viewBox="0 0 36 36">
    <path fill-rule="evenodd" d="M36 18c0 9.941-8.059 18-18 18S0 27.941 0 18 8.059 0 18 0s18 8.059 18 18m-7-6v4h-9.5c.24.679.5 1.739.5 2.5 0 3.59-2.91 6.5-6.5 6.5-3.25 0-5.942-2.384-6.423-5.5H6c-.553 0-1-.448-1-1s.447-1 1-1h1.076C7.557 14.385 10.25 12 13.5 12H29zm-11.5 8c-.161-.651-.376-1.246-.672-1.787-.318-.526-.642-1.041-1.097-1.444-.435-.414-.909-.794-1.458-1.065-.532-.308-1.124-.515-1.773-.704.657-.489 1.488-.582 2.254-.429.768.162 1.49.569 2.026 1.149.541.571.943 1.287 1.078 2.056.145.76.066 1.567-.358 2.224"/>
</svg>
