<svg xmlns="http://www.w3.org/2000/svg" width="36" height="36" viewBox="0 0 36 36">
    <path fill-rule="evenodd" d="M22.871 9c1.656 0 3.274.445 4.7 1.287 1.435.84 2.667 2.05 3.592 3.535.485.78.767 1.654.825 2.547.006.044.01.09.01.137l-.001.11.003.104-.001.05-.002 12.312c0 .552-.448 1-1 1s-1-.448-1-1V16.64l-.006-.16c-.034-.478-.17-.95-.402-1.386l-.124-.215c-.754-1.212-1.752-2.192-2.908-2.868-1.121-.662-2.389-1.01-3.686-1.01-.6 0-1.193.076-1.777.224-.577.157-1.142.385-1.693.68l-.22.113c-.523.246-1.101.372-1.686.372-.657 0-1.313-.164-1.9-.482-.536-.292-1.11-.523-1.675-.679-.595-.152-1.198-.229-1.801-.229-1.293 0-2.553.347-3.69 1.013-1.152.675-2.15 1.655-2.904 2.865C5.18 15.436 5 16.07 5 16.72c0 .647.177 1.272.525 1.832.754 1.21 1.752 2.19 2.905 2.865 1.145.672 2.406 1.023 3.689 1.023.61 0 1.208-.079 1.797-.238.568-.147 1.138-.375 1.681-.672.59-.318 1.247-.49 1.898-.49.662 0 1.323.173 1.895.489l.34.173c.452.218.903.385 1.364.503.582.157 1.17.235 1.777.235 1.248 0 2.482-.334 3.601-.97.48-.272 1.091-.104 1.364.377.272.48.104 1.09-.376 1.363-1.417.804-2.99 1.23-4.589 1.23-.783 0-1.547-.101-2.286-.301-.726-.186-1.436-.47-2.152-.854-.288-.16-.616-.245-.938-.245-.313 0-.644.087-.943.248-.682.372-1.405.66-2.124.848-.75.202-1.524.304-2.309.304-1.644 0-3.253-.449-4.7-1.297-1.435-.84-2.668-2.05-3.592-3.535C3.28 18.73 3 17.74 3 16.72c0-1.02.282-2.021.827-2.898.924-1.484 2.157-2.695 3.591-3.535C8.86 9.443 10.468 9 12.12 9c.772 0 1.54.099 2.313.296.732.201 1.45.49 2.117.854.29.158.62.24.946.24.335 0 .66-.081.95-.241.692-.372 1.399-.657 2.14-.858.758-.193 1.516-.29 2.286-.29zm-10.75 4.44c.086 0 .168.004.251.015.098.012.19.036.272.071 1.57.179 2.972 1.157 3.91 2.663.203.324.203.734 0 1.058-.937 1.505-2.338 2.483-3.908 2.662-.083.035-.175.06-.274.072-.082.01-.166.016-.25.016-.085 0-.169-.006-.25-.016-.1-.012-.19-.037-.274-.072-1.57-.178-2.971-1.156-3.91-2.662-.201-.324-.201-.734 0-1.058.939-1.506 2.34-2.484 3.912-2.662.082-.036.173-.06.271-.072.083-.01.165-.015.25-.015zm10.753 0c.086 0 .17.004.253.015.097.012.187.037.27.071 1.57.179 2.973 1.158 3.91 2.664.201.323.201.733 0 1.056-.937 1.506-2.34 2.485-3.91 2.664-.082.034-.172.058-.27.07-.082.011-.167.017-.252.017-.084 0-.167-.006-.249-.016-.1-.012-.192-.037-.276-.072-1.57-.179-2.972-1.157-3.909-2.663-.201-.323-.201-.733 0-1.056.937-1.506 2.34-2.485 3.911-2.663.082-.036.173-.06.271-.072.083-.01.165-.015.251-.015zm-10.556 2.065l-.018.004c-.12.022-.245.021-.365-.002l.187-.01c-.864 0-1.698.435-2.355 1.221.609.729 1.37 1.155 2.165 1.214.125-.026.254-.026.38-.002l-.19.01c.797 0 1.569-.371 2.2-1.047l.154-.175-.155-.175c-.578-.62-1.276-.983-2.003-1.038zm10.754 0l-.016.003c-.125.023-.254.022-.379-.003-.793.06-1.551.487-2.157 1.213.606.726 1.364 1.153 2.157 1.214.126-.027.255-.028.381-.004l-.184.011c.802 0 1.579-.375 2.211-1.058l.143-.163-.143-.163c-.58-.626-1.282-.994-2.013-1.05z"/>
</svg>
