<svg xmlns="http://www.w3.org/2000/svg" width="36" height="36" viewBox="0 0 36 36">
    <path fill-rule="evenodd" d="M21.11 14.5c1.669 0 3.063 1.267 3.167 2.902L25.006 28H28v2H8.007v-2h2.986l.73-10.592c.1-1.583 1.4-2.817 2.99-2.903l.178-.005zm0 2H14.89c-.628 0-1.136.461-1.172 1.04L12.997 28h10.005l-.72-10.466c-.035-.535-.48-.972-1.049-1.028l-.124-.006zM7.292 9.293c.39-.39 1.024-.39 1.414 0l2 2c.39.39.39 1.024 0 1.414-.39.39-1.024.39-1.414 0l-2-2c-.39-.39-.39-1.024 0-1.414zm20 0c.39-.39 1.024-.39 1.414 0 .39.39.39 1.024 0 1.414l-2 2c-.39.39-1.024.39-1.414 0-.39-.39-.39-1.024 0-1.414zM18 6c.552 0 1 .448 1 1v4c0 .552-.448 1-1 1s-1-.448-1-1V7c0-.552.448-1 1-1z"/>
</svg>
