<svg xmlns="http://www.w3.org/2000/svg" width="36" height="36" viewBox="0 0 36 36">
    <path fill-rule="evenodd" d="M25 6c1.656 0 3 1.344 3 3v21c0 .552-.448 1-1 1s-1-.448-1-1v-5h-1c-1.656 0-3-1.344-3-3V9c0-1.656 1.344-3 3-3zm-8 0c.552 0 1 .448 1 1v5c0 2.418-1.717 4.436-3.999 4.9L14 30c0 .552-.448 1-1 1s-1-.448-1-1V16.9c-2.282-.463-4-2.481-4-4.9V7c0-.552.448-1 1-1s1 .448 1 1v5c0 1.306.835 2.417 2 2.83V7c0-.552.448-1 1-1s1 .448 1 1v7.829c1.166-.412 2-1.523 2-2.829V7c0-.552.448-1 1-1zm8 2c-.552 0-1 .448-1 1v13c0 .552.448 1 1 1h1V9c0-.552-.448-1-1-1z"/>
</svg>
