<svg xmlns="http://www.w3.org/2000/svg" width="36" height="36" viewBox="0 0 36 36">
    <path fill-rule="evenodd" d="M21.975 9.923l6.631-2.842C29.266 6.798 30 7.282 30 8v18c0 .4-.238.762-.606.92l-7 3c-.27.115-.578.106-.841-.026l-7.522-3.76-6.535 3.734C6.83 30.25 6 29.768 6 29V11c0-.4.238-.762.606-.92l7-3c.237-.1.504-.107.745-.016l7.624 2.859zm.419 1.996c-.237.102-.504.108-.745.017l-7.624-2.859L8 11.66v15.618l5.504-3.145c.29-.166.644-.176.943-.026l7.585 3.792L28 25.341V9.517l-5.606 2.402zM13 13v8c0 .552.448 1 1 1s1-.448 1-1v-8c0-.552-.448-1-1-1s-1 .448-1 1zm8 3v8c0 .552.448 1 1 1s1-.448 1-1v-8c0-.552-.448-1-1-1s-1 .448-1 1z"/>
</svg>
