<svg xmlns="http://www.w3.org/2000/svg" width="36" height="36" viewBox="0 0 36 36">
    <path fill-rule="evenodd" d="M22.438 8c3.027 0 5.566 2.25 5.95 5.228l.026.23 1.285 14.18c.2 2.201-1.422 4.146-3.622 4.346l-.18.012-.181.004H10.284c-2.209 0-4-1.79-4-4l.004-.18.013-.181 1.285-14.18c.273-3.015 2.744-5.34 5.744-5.455L13.562 8h8.876zm4.576 12.16c-.48.38-1.04.652-1.652.773-.15.03-.302.05-.454.06l-.227.007h-2.949c-.319.552-.894.937-1.563.993L20 22h-4c-.74 0-1.387-.402-1.732-1h-2.949c-.86 0-1.67-.315-2.332-.84l-.695 7.66c-.005.06-.008.12-.008.18 0 1.054.816 1.918 1.851 1.995l.15.005h15.43c.061 0 .121-.003.181-.008 1.05-.095 1.837-.986 1.82-2.023l-.008-.15-.694-7.66zM22 24c.552 0 1 .448 1 1 0 .513-.386.936-.883.993L22 26h-8c-.552 0-1-.448-1-1 0-.513.386-.936.883-.993L14 24h8zm-2-5h-4v1h4v-1zm2.438-9h-8.876c-2 0-3.682 1.475-3.96 3.434l-.024.205-.13 1.445-.12 1.457c-.01.12-.009.243.003.367.102 1.107.946 2.003 1.852 2.086l.136.006L14 18.999c0-1.054.816-1.917 1.85-1.994L16 17h4c1.054 0 1.918.816 1.995 1.85l.004.149 2.682.001c.096 0 .194-.01.292-.03.992-.195 1.784-1.297 1.7-2.423l-.12-1.465-.131-1.443c-.18-1.992-1.801-3.533-3.778-3.634L22.438 10zm-4.437-6c1.128 0 2.17.531 2.808 1.41.325.447.225 1.072-.221 1.397-.413.3-.977.238-1.317-.125l-.08-.097C18.929 6.225 18.489 6 18 6c-.434 0-.83.178-1.097.471l-.094.116c-.324.447-.95.547-1.397.223-.447-.324-.547-.95-.223-1.397C15.828 4.533 16.871 4 18 4z"/>
</svg>
