<svg xmlns="http://www.w3.org/2000/svg" width="36" height="36" viewBox="0 0 36 36">
    <path fill-rule="evenodd" d="M13.9 19.2l-8.093 6.073C4.247 26.524 5.117 29 7.085 29h21.83c2.07 0 2.872-2.693 1.14-3.826l-10.01-6.512c-.563-.431-.612-1.4-.055-1.875 1.849-1.574 2.991-3.149 2.991-4.775 0-2.671-2.165-5.012-4.79-5.012-2.616 0-4.691 2.317-4.691 5 0 .552.448 1 1 1s1-.448 1-1c0-1.625 1.232-3 2.691-3 1.484 0 2.79 1.412 2.79 3.012 0 .853-.857 2.034-2.287 3.253-1.548 1.318-1.42 3.8.201 5.031l10.068 6.553c.066.044.034.151-.048.151H7.085c-.079 0-.113-.098-.052-.147L15.1 20.8c.442-.332.531-.958.2-1.4-.332-.442-.958-.531-1.4-.2z"/>
</svg>
