<svg xmlns="http://www.w3.org/2000/svg" width="36" height="36" viewBox="0 0 36 36">
    <path fill-rule="evenodd" d="M18 0c9.941 0 18 8.059 18 18s-8.059 18-18 18S0 27.941 0 18 8.059 0 18 0zm0 27c-.553 0-1 .448-1 1v1c0 .552.447 1 1 1l.117-.006c.498-.058.883-.481.883-.994v-1c0-.552-.447-1-1-1zm.928-18.382c-.34-.824-1.517-.824-1.855 0l-1.865 4.529c-.143.349-.474.587-.854.615l-4.924.357c-.895.065-1.26 1.174-.573 1.748l3.77 3.156c.292.243.418.629.327.995l-1.177 4.75c-.215.864.737 1.549 1.5 1.08l4.195-2.578c.324-.199.732-.199 1.057 0l4.195 2.578c.763.469 1.715-.216 1.5-1.08l-1.178-4.75c-.091-.366.035-.752.326-.995l3.772-3.156c.685-.574.32-1.683-.573-1.748l-4.924-.357c-.38-.028-.711-.266-.855-.615zM9.44 20.781c-.17-.526-.735-.812-1.26-.642l-.95.31c-.526.17-.814.733-.643 1.26l.043.108c.208.456.73.692 1.217.533l.951-.309c.525-.17.813-.734.642-1.26zm18.38-.642c-.525-.17-1.09.116-1.26.642-.171.526.117 1.09.642 1.26l.95.31c.526.17 1.09-.117 1.261-.643l.03-.113c.099-.491-.185-.988-.672-1.147zM12.343 8.513c-.324-.447-.95-.546-1.397-.221l-.097.08c-.363.34-.423.904-.124 1.316l.588.81c.324.446.95.546 1.397.22.447-.324.545-.95.221-1.396zm12.604-.289c-.435-.24-.99-.123-1.29.289l-.588.809c-.324.446-.226 1.072.221 1.397.448.325 1.073.225 1.397-.222l.588-.809c.324-.446.226-1.071-.221-1.396z"/>
</svg>
