<svg xmlns="http://www.w3.org/2000/svg" width="36" height="36" viewBox="0 0 36 36">
    <path fill-rule="evenodd" d="M8.752 9.284c4.701-4.454 12.125-4.377 16.733.23 3.629 3.63 4.404 8.852 2.19 13.393l-.112.221 1.407 5.63c.18.72-.455 1.364-1.16 1.224l-.106-.026-4.589-1.422-.164.09c-4.539 2.364-10.452 1.63-14.204-1.913l-.232-.226c-4.687-4.686-4.687-12.284 0-16.97zm15.32 1.644c-3.906-3.904-10.238-3.904-14.143 0-3.905 3.906-3.905 10.238 0 14.143 3.236 3.236 8.644 3.847 12.56 1.521.244-.144.537-.179.807-.095l3.302 1.023-1.068-4.277c-.051-.204-.036-.418.04-.612l.054-.113c2.151-3.902 1.59-8.446-1.553-11.59zm-10.46 2.282l.095.083L17 16.585l3.293-3.292c.39-.39 1.024-.39 1.414 0 .36.36.388.928.083 1.32l-.083.094L18.415 18l3.292 3.293c.39.39.39 1.024 0 1.414-.36.36-.928.388-1.32.083l-.094-.083L17 19.415l-3.293 3.292c-.39.39-1.024.39-1.414 0-.36-.36-.388-.928-.083-1.32l.083-.094L15.585 18l-3.292-3.293c-.39-.39-.39-1.024 0-1.414.36-.36.928-.388 1.32-.083z"/>
</svg>
