<svg xmlns="http://www.w3.org/2000/svg" width="36" height="36" viewBox="0 0 36 36">
    <path fill-rule="evenodd" d="M36 18c0 9.941-8.059 18-18 18S0 27.941 0 18 8.059 0 18 0s18 8.059 18 18m-18 8.5c-.552 0-1-.448-1-1 0-.553.448-1 1-1s1 .447 1 1c0 .552-.448 1-1 1M23 8H13c-1.104 0-2 .896-2 2v16c0 1.104.896 2 2 2h10c1.104 0 2-.896 2-2V10c0-1.104-.896-2-2-2m-1 15h-8c-1.104 0-2-.896-2-2V11c0-1.104.896-2 2-2h8c1.104 0 2 .896 2 2v10c0 1.104-.896 2-2 2m-8-8.038V11h4.767l-3.178 1.585L14 14.962z"/>
</svg>
