<svg xmlns="http://www.w3.org/2000/svg" width="36" height="36" viewBox="0 0 36 36">
    <path fill-rule="evenodd" d="M36 18c0 9.941-8.059 18-18 18S0 27.941 0 18 8.059 0 18 0s18 8.059 18 18M25 7c1.104 0 2 .896 2 2v18c0 1.104-.896 2-2 2H11c-1.104 0-2-.896-2-2V9c0-1.104.896-2 2-2h14zm-2.707 13.293L19 23.586l-2.293-2.293c-.39-.39-1.024-.39-1.414 0l-3 3c-.39.39-.39 1.024 0 1.414.39.39 1.024.39 1.414 0L16 23.414l2.293 2.293c.39.39 1.024.39 1.414 0l4-4c.39-.39.39-1.024 0-1.414-.39-.39-1.024-.39-1.414 0zM17 16h-4c-.552 0-1 .448-1 1s.448 1 1 1h4c.552 0 1-.448 1-1s-.448-1-1-1zm6-5H13c-.552 0-1 .448-1 1s.448 1 1 1h10c.552 0 1-.448 1-1s-.448-1-1-1z"/>
</svg>
