<svg xmlns="http://www.w3.org/2000/svg" width="36" height="36" viewBox="0 0 36 36">
    <path fill-rule="evenodd" d="M36 18c0 9.941-8.059 18-18 18S0 27.941 0 18 8.059 0 18 0s18 8.059 18 18M8 28h16c.552 0 1-.448 1-1s-.448-1-1-1H8c-.552 0-1 .448-1 1s.448 1 1 1zm4-4h8c.552 0 1-.448 1-1s-.448-1-1-1h-8c-.552 0-1 .448-1 1s.448 1 1 1zm4.586-6l-2.83-2.829c-.39-.39-.39-1.023 0-1.414l7.073-7.07c.39-.391 1.023-.391 1.414 0l2.828 2.828c.39.39.39 1.024 0 1.414L18 18c-.391.391-1.024.391-1.414 0m4.83-2.242l5.776 5.778c.391.39 1.024.39 1.415 0 .39-.391.39-1.024 0-1.415l-6.364-6.364-.828 2.001z"/>
</svg>
