<svg xmlns="http://www.w3.org/2000/svg" width="36" height="36" viewBox="0 0 36 36">
    <path fill-rule="evenodd" d="M18.636 7.148c2.016-1.347 4.654-1.517 6.871-.469.626.296.77 1.122.28 1.611l-2.662 2.662c-.39.39-.39 1.024 0 1.414.39.39 1.024.39 1.415 0l2.67-2.67c.488-.488 1.312-.346 1.61.277 1.267 2.656.748 5.85-1.364 7.962-1.643 1.643-3.952 2.335-6.18 1.937l-7.963 7.963c-1.772 1.772-4.723 1.507-6.157-.607-1.075-1.586-.797-3.751.579-5.129l7.884-7.884c-.45-2.51.486-5.091 2.56-6.734l.227-.172.23-.16zm4.562.903l-.254-.03c-1.186-.11-2.392.196-3.358.903l-.187.143c-1.587 1.27-2.228 3.297-1.719 5.21.092.345-.007.712-.259.964L9.15 23.513c-.717.718-.858 1.824-.337 2.593.725 1.07 2.2 1.203 3.087.315l8.35-8.35c.253-.253.62-.352.965-.26 1.717.457 3.553-.015 4.828-1.29 1.138-1.138 1.628-2.717 1.41-4.239l-1.498 1.499c-1.173 1.17-3.072 1.17-4.243 0-1.172-1.172-1.172-3.071 0-4.243l1.487-1.487z"/>
</svg>
