<svg xmlns="http://www.w3.org/2000/svg" width="36" height="36" viewBox="0 0 36 36">
    <path fill-rule="evenodd" d="M17.444 22.528c.56 0 1.034.054 1.422.162.388.108.702.278.942.51.24.232.414.534.522.906.108.372.162.826.162 1.362 0 1.096-.244 1.898-.732 2.406-.488.508-1.268.762-2.34.762-.128 0-.24-.002-.336-.006l-.213-.01-.123-.008V31h-1.836v-8.376l.238-.009c.152-.006.29-.013.416-.021l.558-.036c.184-.012.38-.02.588-.024.208-.004.452-.006.732-.006zm7.716.072l2.388 8.4h-1.86l-.468-1.776h-2.4L22.364 31h-1.812l2.4-8.4h2.208zm3.732 0l1.248 3.24 1.212-3.24h2.088l-2.4 5.364V31h-1.836v-3.024l-2.4-5.376h2.088zM27.854 9.54C29.883 11.896 31 14.9 31 18c0 .632-.046 1.267-.136 1.888l-.026.145-.027.145h-2.033c.039-.192.078-.384.106-.579.077-.525.116-1.063.116-1.599 0-2.222-.68-4.386-1.932-6.208l-.214-.3-13.363 7.814c-.271.16-.6.18-.887.061l-.12-.059-5.336-3.096C7.05 16.802 7 17.4 7 18c0 4.235 2.406 7.919 5.923 9.756l-.007 2.208C8.266 27.981 5 23.364 5 18c0-1.224.175-2.44.519-3.614.086-.295.303-.534.588-.648.245-.098.517-.095.756.006l.117.058 6.004 3.484 13.607-7.957c.418-.245.948-.155 1.263.211zM24.02 24.604l-.78 3.012h1.56l-.78-3.012zm-6.624-.468c-.128 0-.236.004-.324.012-.059.005-.126.012-.203.021l-.121.015v2.82l.128.014c.08.008.15.013.208.016.088.004.2.006.336.006.456 0 .77-.12.942-.36.172-.24.258-.608.258-1.104 0-.24-.018-.45-.054-.63-.036-.18-.1-.33-.192-.45s-.216-.21-.372-.27c-.156-.06-.358-.09-.606-.09zm7.342-17.295c.258.443.138 1.003-.262 1.303l-.098.065-10.888 6.344c-.156.09-.33.137-.504.137-.13 0-.26-.025-.382-.076l-.12-.06-4.678-2.718c-.478-.278-.64-.89-.362-1.367.257-.443.804-.615 1.263-.415l.104.053 4.175 2.425L23.371 6.48c.477-.28 1.09-.117 1.367.36z"/>
</svg>
