<svg xmlns="http://www.w3.org/2000/svg" width="36" height="36" viewBox="0 0 36 36">
    <path fill-rule="evenodd" d="M18 0c9.941 0 18 8.059 18 18s-8.059 18-18 18S0 27.941 0 18 8.059 0 18 0zM8.006 17.651c-.193 5.519 4.126 10.15 9.645 10.343.922.032 1.692-.686 1.724-1.608.015-.433-.132-.827-.394-1.13-.25-.304-.393-.693-.378-1.12.032-.922.802-1.64 1.724-1.608l1.96.069c3.064.107 5.639-2.294 5.746-5.358.171-4.909-4.165-9.04-9.684-9.233-5.519-.193-10.15 4.126-10.343 9.645zM11 18.5c.83 0 1.5.67 1.5 1.5s-.67 1.5-1.5 1.5-1.5-.67-1.5-1.5.67-1.5 1.5-1.5zM25 14c.83 0 1.5.67 1.5 1.5S25.83 17 25 17s-1.5-.67-1.5-1.5.67-1.5 1.5-1.5zm-13-1c.83 0 1.5.67 1.5 1.5S12.83 16 12 16s-1.5-.67-1.5-1.5.67-1.5 1.5-1.5zm9.5-3c.83 0 1.5.67 1.5 1.5s-.67 1.5-1.5 1.5-1.5-.67-1.5-1.5.67-1.5 1.5-1.5zM16 9.5c.83 0 1.5.67 1.5 1.5s-.67 1.5-1.5 1.5-1.5-.67-1.5-1.5.67-1.5 1.5-1.5z"/>
</svg>
