<svg xmlns="http://www.w3.org/2000/svg" width="36" height="36" viewBox="0 0 36 36">
    <path fill-rule="evenodd" d="M27 12c1.656 0 3 1.344 3 3v12c0 1.656-1.344 3-3 3H9c-1.656 0-3-1.344-3-3V15c0-1.656 1.344-3 3-3h18zm0 2H9c-.552 0-1 .448-1 1v12c0 .552.448 1 1 1h18c.552 0 1-.448 1-1V15c0-.552-.448-1-1-1zm-13-3.5V9c0-.552.448-1 1-1h6c.552 0 1 .448 1 1v1.5h2V9c0-1.656-1.344-3-3-3h-6c-1.656 0-3 1.344-3 3v1.5h2zm4.293 13.207c.393.393 1.03.39 1.42-.005l3.939-4c.387-.394.382-1.027-.011-1.415-.394-.387-1.027-.382-1.415.011l-3.231 3.282-2.288-2.287c-.39-.39-1.024-.39-1.414 0l-3 3c-.39.39-.39 1.024 0 1.414.39.39 1.024.39 1.414 0L16 21.414l2.293 2.293z"/>
</svg>
