<svg xmlns="http://www.w3.org/2000/svg" width="36" height="36" viewBox="0 0 36 36">
    <path fill-rule="evenodd" d="M6 23c.552 0 1 .448 1 1v5h5c.552 0 1 .448 1 1s-.448 1-1 1H7c-1.105 0-2-.896-2-2v-5c0-.552.448-1 1-1zm24 0c.552 0 1 .448 1 1v5c0 1.104-.895 2-2 2h-5c-.552 0-1-.448-1-1s.448-1 1-1h5v-5c0-.552.448-1 1-1zm-16.71-.343c.388-.392 1.02-.395 1.413-.007 1.82 1.8 4.774 1.8 6.594 0 .392-.388 1.025-.385 1.414.007.388.393.385 1.026-.008 1.415-2.598 2.571-6.808 2.571-9.406 0-.393-.389-.396-1.022-.008-1.415zM19 13c.552 0 1 .448 1 1v5c0 1.104-.895 2-2 2h-1c-.552 0-1-.448-1-1s.448-1 1-1h1v-5c0-.552.448-1 1-1zm-7-1.25c.69 0 1.25.56 1.25 1.25v2c0 .69-.56 1.25-1.25 1.25s-1.25-.56-1.25-1.25v-2c0-.69.56-1.25 1.25-1.25zm12 0c.69 0 1.25.56 1.25 1.25v2c0 .69-.56 1.25-1.25 1.25s-1.25-.56-1.25-1.25v-2c0-.69.56-1.25 1.25-1.25zM29 5c1.105 0 2 .896 2 2v5c0 .552-.448 1-1 1s-1-.448-1-1V7h-5c-.552 0-1-.448-1-1s.448-1 1-1zM12 5c.552 0 1 .448 1 1s-.448 1-1 1H7v5c0 .552-.448 1-1 1s-1-.448-1-1V7c0-1.104.895-2 2-2z"/>
</svg>
