<svg xmlns="http://www.w3.org/2000/svg" width="36" height="36" viewBox="0 0 36 36">
    <path fill-rule="evenodd" d="M10.636 26.778l1.414 1.414-3.182 3.183-1.415-1.414 3.183-3.183zM7.808 23.95l1.414 1.414-4.947 4.947-1.414-1.414 4.947-4.947zM23.547 5.19c1.514-.106 3.082-.084 4.262-.037.89.036 1.568.086 1.857.11.328.026.655.058.982.088l.076.83c.052.669.095 1.338.122 2.009.047 1.18.07 2.748-.037 4.262-.148 2.088-1.231 3.889-2.659 5.234-.997.94-2.04 1.89-3.066 2.803l.575 5.552c.084.817-.34 1.603-1.069 1.981l-5.273 2.736c-.264.137-.576.15-.85.034l-3.977-1.68c-.32-.134-.547-.426-.6-.77-.052-.343.077-.69.343-.914l1.468-1.242-5.888-5.888-1.242 1.468c-.224.266-.57.395-.914.343-.344-.052-.635-.28-.77-.6l-1.68-3.977c-.116-.274-.103-.586.034-.85l2.736-5.273c.378-.73 1.163-1.153 1.98-1.069l5.568.576c.92-1.035 1.869-2.08 2.79-3.063 1.343-1.432 3.144-2.515 5.232-2.663zm-6.48 19.532l-5.788-5.787.243-.292c.52-.623 1.258-1.502 2.128-2.523 1.743-2.043 4.01-4.645 6.124-6.899 1.092-1.164 2.45-1.932 3.913-2.036 1.411-.1 2.898-.08 4.042-.034.408.017.769.036 1.065.055.018.295.037.657.054 1.064.046 1.144.065 2.63-.034 4.042-.104 1.463-.872 2.822-2.035 3.918-2.337 2.201-4.938 4.467-6.96 6.185-1.01.859-1.873 1.58-2.484 2.085l-.269.222zM13.598 12.73l-3.847-.398-2.52 4.857.864 2.045 5.503-6.504zm9.672 9.672l.398 3.847-4.857 2.52-2.045-.864 6.504-5.503zm-2.736-11.18c1.172-1.17 3.072-1.17 4.243 0 1.172 1.172 1.172 3.072 0 4.243-1.171 1.172-3.07 1.172-4.242 0-1.172-1.171-1.172-3.07 0-4.242zm2.829 1.415c-.39-.39-1.024-.39-1.414 0-.39.39-.39 1.024 0 1.414.39.39 1.023.39 1.414 0 .39-.39.39-1.023 0-1.414z"/>
</svg>
