<svg xmlns="http://www.w3.org/2000/svg" width="36" height="36" viewBox="0 0 36 36">
    <path fill-rule="evenodd" d="M28 9c1.656 0 3 1.344 3 3v13c0 1.656-1.344 3-3 3H8c-1.656 0-3-1.344-3-3V12c0-1.656 1.344-3 3-3h20zm0 2H8c-.552 0-1 .448-1 1v13c0 .552.448 1 1 1h20c.552 0 1-.448 1-1V12c0-.552-.448-1-1-1zM9 15h18v-2H9v2zm9 5.688c1.318 0 2.515-.648 3.252-1.688H27v-2h-6.314c-.382 0-.73.217-.898.56-.337.687-1.022 1.128-1.788 1.128s-1.451-.44-1.788-1.128c-.168-.343-.516-.56-.898-.56H9v2h5.748c.737 1.04 1.934 1.688 3.252 1.688z"/>
</svg>
