<svg xmlns="http://www.w3.org/2000/svg" width="36" height="36" viewBox="0 0 36 36">
    <path fill-rule="evenodd" d="M13 15c4.418 0 8 3.582 8 8s-3.582 8-8 8-8-3.582-8-8 3.582-8 8-8zm0 2c-3.314 0-6 2.686-6 6s2.686 6 6 6 6-2.686 6-6-2.686-6-6-6zm16.063-4.24c.36.36.388.927.083 1.32l-.083.093-4.95 4.95c-.39.39-1.024.39-1.415 0-.36-.36-.388-.927-.083-1.32l.083-.094 4.95-4.95c.39-.39 1.024-.39 1.415 0zm1.414-7.072c.36.36.388.928.083 1.32l-.083.095-7.778 7.778c-.39.39-1.024.39-1.415 0-.36-.36-.388-.928-.083-1.32l.083-.095 7.778-7.778c.39-.39 1.024-.39 1.415 0zm-7.072 1.414c.36.361.389.928.083 1.32l-.083.095-4.95 4.95c-.39.39-1.023.39-1.414 0-.36-.36-.388-.928-.083-1.32l.083-.095 4.95-4.95c.39-.39 1.024-.39 1.414 0z"/>
</svg>
