<svg xmlns="http://www.w3.org/2000/svg" width="36" height="36" viewBox="0 0 36 36">
    <path fill-rule="evenodd" d="M17.363 5.603c.593-.847 1.749-1.108 2.654-.572l8.035 4.747c.29.172.533.414.704.705.562.95.247 2.177-.704 2.739l-8.035 4.747-.056.032.056.03 8.035 4.747c.29.172.533.414.704.705.562.95.247 2.177-.704 2.739l-8.035 4.747c-.308.182-.66.279-1.017.279-1.105 0-2-.896-2-2V19.75L9.017 24.47c-.308.182-.66.279-1.017.279-1.105 0-2-.896-2-2v-9.496c0-.357.096-.709.278-1.017l.085-.132c.593-.847 1.749-1.108 2.654-.572L17 16.248V6.752c0-.298.067-.592.194-.86l.084-.157zM19 19.753v9.495l8.033-4.748L19 19.753zm-11-6.5v9.495L16.033 18 8 13.253zm11-6.5v9.495l8.034-4.748L19 6.753z"/>
</svg>
