<svg xmlns="http://www.w3.org/2000/svg" width="36" height="36" viewBox="0 0 36 36">
    <path fill-rule="evenodd" d="M18 0c9.941 0 18 8.059 18 18s-8.059 18-18 18S0 27.941 0 18 8.059 0 18 0zM9 21c-.552 0-1 .448-1 1v4l.005.15C8.082 27.183 8.945 28 10 28h4l.117-.007c.497-.057.883-.48.883-.993 0-.552-.448-1-1-1h-4v-4l-.007-.117C9.936 21.386 9.513 21 9 21zm18 0c-.552 0-1 .448-1 1v4h-4l-.117.007c-.497.057-.883.48-.883.993 0 .552.448 1 1 1h4l.15-.005C27.184 27.918 28 27.055 28 26v-4l-.007-.117c-.057-.497-.48-.883-.993-.883zm-9-9c-2.774 0-5 2.442-5 5.428v1.144C13 21.558 15.226 24 18 24l.195-.004C20.896 23.873 23 21.472 23 18.572v-1.144C23 14.442 20.774 12 18 12zm8-4h-4l-.117.007c-.497.057-.883.48-.883.993 0 .552.448 1 1 1h4v4l.007.117c.057.497.48.883.993.883.552 0 1-.448 1-1v-4l-.005-.15C27.918 8.817 27.055 8 26 8zM14 8h-4l-.15.005C8.816 8.082 8 8.945 8 10v4l.007.117c.057.497.48.883.993.883.552 0 1-.448 1-1v-4h4l.117-.007c.497-.057.883-.48.883-.993 0-.552-.448-1-1-1z"/>
</svg>
