<svg xmlns="http://www.w3.org/2000/svg" width="36" height="36" viewBox="0 0 36 36">
    <path fill-rule="evenodd" d="M19.488 15.784c2.182 0 3.953 1.77 3.953 3.953 0 2.184-1.77 3.954-3.953 3.954h-1.954l-.001.998h1.822c.433 0 .79.325.843.744l.006.107c0 .469-.38.85-.85.85l-1.821-.001v.523c0 .513-.386.936-.883.994l-.116.006c-.553 0-1-.447-1-1l-.001-.523h-.845c-.434 0-.791-.324-.844-.743l-.006-.106c0-.47.38-.85.85-.85l.845-.001v-.998h-.845c-.553 0-1-.447-1-1 0-.552.447-1 1-1h.845v-4.907c0-.552.448-1 1-1zm-1.954 2h1.954c1.078 0 1.953.875 1.953 1.953 0 1.08-.875 1.954-1.953 1.954h-1.954v-3.907zM18 10.783c6.074 0 11 4.925 11 11s-4.925 11-11 11-11-4.925-11-11 4.926-11 11-11zm0 2c-4.97 0-9 4.03-9 9s4.03 9 9 9 9-4.03 9-9-4.03-9-9-9zM14 8V5c0-.552-.448-1-1-1s-1 .448-1 1v3c0 .552.448 1 1 1s1-.448 1-1zm10 0V5c0-.552-.448-1-1-1s-1 .448-1 1v3c0 .552.448 1 1 1s1-.448 1-1zm-5-1V4c0-.552-.448-1-1-1s-1 .448-1 1v3c0 .552.448 1 1 1s1-.448 1-1z"/>
</svg>
