<svg xmlns="http://www.w3.org/2000/svg" width="36" height="36" viewBox="0 0 36 36">
    <path fill-rule="evenodd" d="M18 0c9.941 0 18 8.059 18 18s-8.059 18-18 18S0 27.941 0 18 8.059 0 18 0zm.905 9h-1.81C14.26 9 12 10.741 12 13.445V17c0 .573-.1 1.141-.304 1.68l-2.302 3.21C8.48 23.221 9.245 25 10.754 25H15.5c0 1.104.894 2 2 2h1c1.104 0 2-.896 2-2h4.745c1.508 0 2.274-1.778 1.36-3.11l-2.266-3.112C24.134 18.24 24 17.573 24 17v-3.555C24 10.741 21.74 9 18.905 9zm-.763 1.675c-2.614.975-3.44 2.322-4.562 4.957-.266-2.027.338-3.586.886-4.034.54-.452 1.407-.94 3.676-.923z"/>
</svg>
