<svg xmlns="http://www.w3.org/2000/svg" width="36" height="36" viewBox="0 0 36 36">
    <path fill-rule="evenodd" d="M8.079 17c.552 0 1 .448 1 1 0 4.97 4.029 9 9 9 3.061 0 5.838-1.545 7.479-3.999L23.398 23c-.553 0-1-.448-1-1s.447-1 1-1h4.5c.552 0 1 .448 1 1v4.5c0 .552-.448 1-1 1-.553 0-1-.448-1-1v-1.93c-2.035 2.732-5.27 4.43-8.82 4.43-6.075 0-11-4.925-11-11 0-.552.448-1 1-1zM17.92 7c6.076 0 11 4.925 11 11 0 .552-.447 1-1 1-.552 0-1-.448-1-1 0-4.97-4.029-9-9-9-3.058 0-5.832 1.541-7.473 3.991h2.13c.553 0 1 .448 1 1s-.447 1-1 1l-3.695.002c-.079.01-.16.01-.24 0l-.564-.002c-.553 0-1-.448-1-1v-4.5c0-.552.447-1 1-1 .552 0 1 .448 1 1v1.97C11.112 8.712 14.359 7 17.92 7z"/>
</svg>
