<svg xmlns="http://www.w3.org/2000/svg" width="36" height="36" viewBox="0 0 36 36">
    <path fill-rule="evenodd" d="M17.379 6.55c.656-.515 1.617-.048 1.617.787v5.747c0 1.427 1.157 2.585 2.585 2.585.748 0 1.442-.329 1.937-.897.494-.567 1.413-.407 1.686.293.519 1.33.796 2.639.796 3.935 0 4.418-3.582 8-8 8s-8-3.582-8-8c0-2.986 1.405-5.95 3.724-8.79.791-.968 1.637-1.854 2.484-2.642l.53-.48c.16-.14.301-.261.423-.363l.218-.175zm-.824 3.48c-.438.457-.869.94-1.282 1.446C13.219 13.991 12 16.562 12 19c0 3.314 2.687 6 6 6s6-2.686 6-6c0-.617-.081-1.247-.24-1.892-.657.362-1.401.56-2.179.56-2.532 0-4.585-2.052-4.585-4.584v-3.5l-.44.447zM13 31h9c.552 0 1-.448 1-1s-.448-1-1-1h-9c-.552 0-1 .448-1 1s.448 1 1 1z"/>
</svg>
