<svg xmlns="http://www.w3.org/2000/svg" width="36" height="36" viewBox="0 0 36 36">
    <path fill-rule="evenodd" d="M19 10.414c0-1.782 2.155-2.674 3.416-1.413l8.292 8.302c.39.39.39 1.023-.001 1.414L22.414 27c-1.26 1.26-3.414.367-3.414-1.414V23.01H9v-2h11c.552 0 1 .448 1 1v3.577l7.586-7.578L21 10.414 21 15.998h-2zm-11.707.877c.39-.39 1.024-.39 1.414 0 .39.39.39 1.024 0 1.414L7.412 14 17 13.998v2l-9.584.001 1.291 1.292c.36.36.388.928.083 1.32l-.083.094c-.39.39-1.024.39-1.414 0l-3-3c-.39-.39-.39-1.024 0-1.414z"/>
</svg>
