<svg xmlns="http://www.w3.org/2000/svg" width="36" height="36" viewBox="0 0 36 36">
    <path fill-rule="evenodd" d="M18 36C8.059 36 0 27.941 0 18S8.059 0 18 0s18 8.059 18 18-8.059 18-18 18zm8-27c.552 0 1 .448 1 1v16c0 .552-.448 1-1 1h-1v1c0 .552-.447 1-1 1-.552 0-1-.448-1-1v-1H13v1c0 .552-.448 1-1 1s-1-.448-1-1v-1h-1c-.552 0-1-.448-1-1V10c0-.552.448-1 1-1h16zm-10.659 4.833l5.63.027c.549.003.993.447.995.996l.027 5.63c.003.552-.443 1.002-.995 1.004-.552.003-1.002-.443-1.005-.995l-.015-3.234-4.264 4.266c-.36.36-.928.388-1.32.083l-.094-.083c-.39-.39-.39-1.024 0-1.414l4.263-4.265-3.231-.015c-.513-.002-.934-.39-.99-.888l-.006-.116c.003-.553.453-.998 1.005-.996z"/>
</svg>
