<svg xmlns="http://www.w3.org/2000/svg" width="36" height="36" viewBox="0 0 36 36">
    <path fill-rule="evenodd" d="M18 0c9.941 0 18 8.059 18 18s-8.059 18-18 18S0 27.941 0 18 8.059 0 18 0zm-2.46 18.316l-2.768 3.967c-1.388 1.99.036 4.717 2.46 4.717h5.537c2.424 0 3.848-2.728 2.46-4.717l-2.768-3.967c-1.194-1.71-3.727-1.71-4.921 0zM10.725 14.5c-1.243 0-2.25 1.007-2.25 2.25S9.482 19 10.725 19s2.25-1.007 2.25-2.25-1.007-2.25-2.25-2.25zm14.55 0c-1.243 0-2.25 1.007-2.25 2.25S24.032 19 25.275 19s2.25-1.007 2.25-2.25-1.007-2.25-2.25-2.25zM14.75 9.75c-1.243 0-2.25 1.007-2.25 2.25s1.007 2.25 2.25 2.25S17 13.243 17 12s-1.007-2.25-2.25-2.25zm6.5 0C20.007 9.75 19 10.757 19 12s1.007 2.25 2.25 2.25S23.5 13.243 23.5 12s-1.007-2.25-2.25-2.25z"/>
</svg>
