<svg xmlns="http://www.w3.org/2000/svg" width="36" height="36" viewBox="0 0 36 36">
    <path fill-rule="evenodd" d="M18 0c9.941 0 18 8.059 18 18s-8.059 18-18 18S0 27.941 0 18 8.059 0 18 0zm3.038 14.43H14.97c-1.165 0-2.129.866-2.199 1.976L12.033 26H9v2h18v-2h-3.023l-.739-9.594c-.071-1.11-1.035-1.976-2.2-1.976zm2.738-5.62l-1.75 1.837c-.381.4-.366 1.033.034 1.414.4.38 1.033.366 1.414-.034l1.75-1.837c.381-.4.366-1.033-.034-1.414s-1.033-.366-1.414.034zM10.81 8.776c-.4.38-.415 1.014-.034 1.414l1.75 1.837c.38.4 1.014.415 1.414.034.4-.381.415-1.014.034-1.414l-1.75-1.837c-.38-.4-1.014-.415-1.414-.034zM18 7c-.552 0-1 .448-1 1v2.398c0 .552.448 1 1 1s1-.448 1-1V8c0-.552-.448-1-1-1zm-4 14.034l.23-3.682c.048-.76.678-1.352 1.438-1.352h1.744L14 21.034z"/>
</svg>
