<svg xmlns="http://www.w3.org/2000/svg" width="36" height="36" viewBox="0 0 36 36">
    <path fill-rule="evenodd" d="M24.087 6.744c.552 0 1 .448 1 1 0 2.437-1.127 3.246-3.81 3.89l-.409.1c-1.232.321-1.691.596-1.823 1.273l6.876.001c.127 0 .247.023.359.066 3.825.499 6.728 3.89 6.728 7.934 0 4.358-3.738 8-8.05 8-2.396 0-4.827-1.65-6.203-4.008h-1.494c-1.404 2.41-3.875 4.008-6.558 4.008-4.26 0-7.695-3.591-7.695-8 0-3.958 2.781-7.29 6.486-7.898l.243-.036.114-.036c.078-.02.16-.03.244-.03l6.928-.001c.173-1.999 1.325-2.729 3.788-3.319l.21-.051c1.7-.423 2.066-.73 2.066-1.893 0-.552.448-1 1-1zm-13.74 8.264l-.078.017-.302.036c-2.806.382-4.959 2.908-4.959 5.947 0 3.324 2.56 6 5.695 6 2.078 0 4.05-1.382 5.061-3.448.168-.343.517-.56.898-.56h2.691c.382 0 .73.217.899.56.984 2.012 2.95 3.448 4.706 3.448 3.22 0 6.05-2.758 6.05-6 0-3.039-2.152-5.565-4.958-5.947l-.302-.036-.078-.017H10.347zM25 22.5c.552 0 1 .448 1 1s-.448 1-1 1-1-.448-1-1 .448-1 1-1zM10.5 18c.552 0 1 .448 1 1v1.008h1c.513 0 .936.386.993.884l.007.116c0 .553-.448 1-1 1h-1V23c0 .513-.386.936-.883.993L10.5 24c-.552 0-1-.448-1-1v-.992h-1c-.513 0-.936-.386-.993-.883l-.007-.117c0-.552.448-1 1-1h1V19c0-.513.386-.936.883-.993zM28 20.008c.552 0 1 .448 1 1s-.448 1-1 1-1-.448-1-1 .448-1 1-1zm-6 0c.552 0 1 .448 1 1s-.448 1-1 1-1-.448-1-1 .448-1 1-1zm3-2.582h.033l.052.003-.085-.003c.05 0 .1.004.148.01l.055.01.058.014c.018.005.037.01.055.017l.05.018c.02.008.04.016.058.025l.055.028c.015.008.03.016.045.026l.052.034c.046.032.09.07.131.11l-.086-.076c.06.048.115.102.162.162l.038.05.029.044.037.065.017.035c.01.02.018.038.025.057l.02.057c.006.015.01.03.014.044l.016.063.011.067c.003.016.004.033.006.049l.003.058.001.033v.033l-.004.056.004-.09c0 .047-.003.092-.009.136l-.012.072-.013.053-.016.053-.022.06-.022.051-.017.034c-.013.025-.026.049-.041.073l-.028.04c-.032.048-.07.093-.113.136l.08-.09c-.048.061-.104.117-.166.166l-.06.045-.03.02-.054.03c-.02.012-.04.022-.062.032l-.034.015-.067.025-.054.016-.053.012c-.022.005-.045.009-.067.012l-.051.006c-.019.002-.037.003-.056.003h-.066c-.02 0-.038-.002-.057-.003l.09.004c-.047 0-.094-.004-.14-.01l-.066-.011-.057-.014-.05-.015c-.024-.008-.046-.016-.069-.026l-.032-.014c-.024-.01-.047-.022-.07-.035l-.043-.025-.045-.03c-.047-.033-.093-.07-.135-.113l.086.076c-.062-.049-.118-.105-.166-.166l-.034-.046-.026-.04c-.016-.024-.03-.048-.042-.073l-.017-.034-.022-.05-.02-.058c-.008-.021-.014-.043-.02-.064l-.01-.045c-.005-.02-.008-.04-.011-.06-.003-.02-.006-.04-.007-.062-.002-.017-.003-.035-.003-.052L24 18.426v-.033l.004-.052-.004.085c0-.05.004-.1.011-.15l.01-.057.012-.048.018-.061c.006-.02.013-.037.02-.055.007-.019.016-.038.025-.057.006-.012.011-.024.018-.035.01-.022.023-.044.036-.065l.03-.044c.033-.048.07-.093.113-.135l-.076.085c.047-.06.102-.114.162-.162l.04-.03c.02-.014.04-.028.062-.04l.031-.02.065-.032c.018-.01.037-.017.057-.025l.05-.018.054-.016.06-.015.054-.01.062-.007.053-.003H25z"/>
</svg>
