<svg xmlns="http://www.w3.org/2000/svg" width="36" height="36" viewBox="0 0 36 36">
    <path fill-rule="evenodd" d="M18 10.978c4.86 0 9.01 3.376 10.078 8.021L29 19l.117.007c.497.057.883.48.883.993 0 .552-.448 1-1 1h-1.587l-8.416 8.417.003.047V31c0 .553-.448 1-1 1s-1-.447-1-1v-1.536-.035L8.159 21H7c-.552 0-1-.448-1-1s.448-1 1-1h.923C8.99 14.353 13.14 10.977 18 10.977zm0 2c-3.761 0-6.997 2.509-8.012 6.022h2.066c.552 0 1 .448 1 1s-.448 1-1 1h-.998l6.927 6.603L24.584 21H18c-.513 0-.936-.386-.993-.883L17 20c0-.552.448-1 1-1h8.012c-1.015-3.513-4.25-6.022-8.012-6.022zM18 4c1.656 0 3 1.344 3 3s-1.344 3-3 3-3-1.344-3-3 1.344-3 3-3zm0 2c-.552 0-1 .448-1 1s.448 1 1 1 1-.448 1-1-.448-1-1-1z"/>
</svg>
